<svg xmlns="http://www.w3.org/2000/svg" xmlns:xlink="http://www.w3.org/1999/xlink" contentStyleType="text/css" data-diagram-type="DESCRIPTION" height="219px" preserveAspectRatio="none" style="width:2256px;height:219px;background:#FFFFFF;" version="1.1" viewBox="0 0 2256 219" width="2256px" zoomAndPan="magnify"><title>Backup and Recovery Architecture</title><defs/><g><g class="title" data-source-line="1"><text fill="#000000" font-family="sans-serif" font-size="14" font-weight="bold" lengthAdjust="spacing" textLength="272.9658" x="984.5282" y="22.9951">Backup and Recovery Architecture</text></g><!--cluster Primary Site--><g class="cluster" data-entity="Primary Site" data-source-line="3" data-uid="ent0002" id="cluster_Primary Site"><path d="M8.5,96.6569 L107.4727,96.6569 A3.75,3.75 0 0 1 109.9727,99.1569 L116.9727,118.9537 L575.5,118.9537 A2.5,2.5 0 0 1 578,121.4537 L578,210.4569 A2.5,2.5 0 0 1 575.5,212.9569 L8.5,212.9569 A2.5,2.5 0 0 1 6,210.4569 L6,99.1569 A2.5,2.5 0 0 1 8.5,96.6569" fill="none" style="stroke:#000000;stroke-width:1.5;"/><line style="stroke:#000000;stroke-width:1.5;" x1="6" x2="116.9727" y1="118.9537" y2="118.9537"/><text fill="#000000" font-family="sans-serif" font-size="14" font-weight="bold" lengthAdjust="spacing" textLength="97.9727" x="10" y="111.652">Primary Site</text></g><!--cluster Backup Systems--><g class="cluster" data-entity="Backup Systems" data-source-line="9" data-uid="ent0006" id="cluster_Backup Systems"><path d="M604.5,96.6569 L734.7402,96.6569 A3.75,3.75 0 0 1 737.2402,99.1569 L744.2402,118.9537 L1387.5,118.9537 A2.5,2.5 0 0 1 1390,121.4537 L1390,210.4569 A2.5,2.5 0 0 1 1387.5,212.9569 L604.5,212.9569 A2.5,2.5 0 0 1 602,210.4569 L602,99.1569 A2.5,2.5 0 0 1 604.5,96.6569" fill="none" style="stroke:#000000;stroke-width:1.5;"/><line style="stroke:#000000;stroke-width:1.5;" x1="602" x2="744.2402" y1="118.9537" y2="118.9537"/><text fill="#000000" font-family="sans-serif" font-size="14" font-weight="bold" lengthAdjust="spacing" textLength="129.2402" x="606" y="111.652">Backup Systems</text></g><!--cluster Secondary Site--><g class="cluster" data-entity="Secondary Site" data-source-line="15" data-uid="ent0010" id="cluster_Secondary Site"><path d="M1480.5,96.6569 L1600.4043,96.6569 A3.75,3.75 0 0 1 1602.9043,99.1569 L1609.9043,118.9537 L2244.5,118.9537 A2.5,2.5 0 0 1 2247,121.4537 L2247,210.4569 A2.5,2.5 0 0 1 2244.5,212.9569 L1480.5,212.9569 A2.5,2.5 0 0 1 1478,210.4569 L1478,99.1569 A2.5,2.5 0 0 1 1480.5,96.6569" fill="none" style="stroke:#000000;stroke-width:1.5;"/><line style="stroke:#000000;stroke-width:1.5;" x1="1478" x2="1609.9043" y1="118.9537" y2="118.9537"/><text fill="#000000" font-family="sans-serif" font-size="14" font-weight="bold" lengthAdjust="spacing" textLength="118.9043" x="1482" y="111.652">Secondary Site</text></g><!--entity Primary--><g class="entity" data-entity="Primary" data-source-line="4" data-uid="ent0003" id="entity_Primary"><rect fill="#F1F1F1" height="46.2969" rx="2.5" ry="2.5" style="stroke:#181818;stroke-width:0.5;" width="148.4863" x="21.76" y="150.6569"/><rect fill="#F1F1F1" height="10" style="stroke:#181818;stroke-width:0.5;" width="15" x="150.2463" y="155.6569"/><rect fill="#F1F1F1" height="2" style="stroke:#181818;stroke-width:0.5;" width="4" x="148.2463" y="157.6569"/><rect fill="#F1F1F1" height="2" style="stroke:#181818;stroke-width:0.5;" width="4" x="148.2463" y="161.6569"/><text fill="#000000" font-family="sans-serif" font-size="14" lengthAdjust="spacing" textLength="108.4863" x="36.76" y="183.652">Primary Cluster</text></g><!--entity PrimaryDB--><g class="entity" data-entity="PrimaryDB" data-source-line="5" data-uid="ent0004" id="entity_PrimaryDB"><rect fill="#F1F1F1" height="46.2969" rx="2.5" ry="2.5" style="stroke:#181818;stroke-width:0.5;" width="165.5967" x="205.2" y="150.6569"/><rect fill="#F1F1F1" height="10" style="stroke:#181818;stroke-width:0.5;" width="15" x="350.7967" y="155.6569"/><rect fill="#F1F1F1" height="2" style="stroke:#181818;stroke-width:0.5;" width="4" x="348.7967" y="157.6569"/><rect fill="#F1F1F1" height="2" style="stroke:#181818;stroke-width:0.5;" width="4" x="348.7967" y="161.6569"/><text fill="#000000" font-family="sans-serif" font-size="14" lengthAdjust="spacing" textLength="125.5967" x="220.2" y="183.652">Primary Database</text></g><!--entity AppData--><g class="entity" data-entity="AppData" data-source-line="6" data-uid="ent0005" id="entity_AppData"><rect fill="#F1F1F1" height="46.2969" rx="2.5" ry="2.5" style="stroke:#181818;stroke-width:0.5;" width="156.1016" x="405.95" y="150.6569"/><rect fill="#F1F1F1" height="10" style="stroke:#181818;stroke-width:0.5;" width="15" x="542.0516" y="155.6569"/><rect fill="#F1F1F1" height="2" style="stroke:#181818;stroke-width:0.5;" width="4" x="540.0516" y="157.6569"/><rect fill="#F1F1F1" height="2" style="stroke:#181818;stroke-width:0.5;" width="4" x="540.0516" y="161.6569"/><text fill="#000000" font-family="sans-serif" font-size="14" lengthAdjust="spacing" textLength="116.1016" x="420.95" y="183.652">Application Data</text></g><!--entity BackupCtrl--><g class="entity" data-entity="BackupCtrl" data-source-line="10" data-uid="ent0007" id="entity_BackupCtrl"><rect fill="#F1F1F1" height="46.2969" rx="2.5" ry="2.5" style="stroke:#181818;stroke-width:0.5;" width="165.3711" x="618.31" y="150.6569"/><rect fill="#F1F1F1" height="10" style="stroke:#181818;stroke-width:0.5;" width="15" x="763.6811" y="155.6569"/><rect fill="#F1F1F1" height="2" style="stroke:#181818;stroke-width:0.5;" width="4" x="761.6811" y="157.6569"/><rect fill="#F1F1F1" height="2" style="stroke:#181818;stroke-width:0.5;" width="4" x="761.6811" y="161.6569"/><text fill="#000000" font-family="sans-serif" font-size="14" lengthAdjust="spacing" textLength="125.3711" x="633.31" y="183.652">Backup Controller</text></g><!--entity Snapshot--><g class="entity" data-entity="Snapshot" data-source-line="11" data-uid="ent0008" id="entity_Snapshot"><rect fill="#F1F1F1" height="46.2969" rx="2.5" ry="2.5" style="stroke:#181818;stroke-width:0.5;" width="161.6387" x="933.18" y="150.6569"/><rect fill="#F1F1F1" height="10" style="stroke:#181818;stroke-width:0.5;" width="15" x="1074.8187" y="155.6569"/><rect fill="#F1F1F1" height="2" style="stroke:#181818;stroke-width:0.5;" width="4" x="1072.8187" y="157.6569"/><rect fill="#F1F1F1" height="2" style="stroke:#181818;stroke-width:0.5;" width="4" x="1072.8187" y="161.6569"/><text fill="#000000" font-family="sans-serif" font-size="14" lengthAdjust="spacing" textLength="121.6387" x="948.18" y="183.652">Snapshot Service</text></g><!--entity BackupStorage--><g class="entity" data-entity="BackupStorage" data-source-line="12" data-uid="ent0009" id="entity_BackupStorage"><rect fill="#F1F1F1" height="46.2969" rx="2.5" ry="2.5" style="stroke:#181818;stroke-width:0.5;" width="150.9746" x="1223.51" y="150.6569"/><rect fill="#F1F1F1" height="10" style="stroke:#181818;stroke-width:0.5;" width="15" x="1354.4846" y="155.6569"/><rect fill="#F1F1F1" height="2" style="stroke:#181818;stroke-width:0.5;" width="4" x="1352.4846" y="157.6569"/><rect fill="#F1F1F1" height="2" style="stroke:#181818;stroke-width:0.5;" width="4" x="1352.4846" y="161.6569"/><text fill="#000000" font-family="sans-serif" font-size="14" lengthAdjust="spacing" textLength="110.9746" x="1238.51" y="183.652">Backup Storage</text></g><!--entity DRCluster--><g class="entity" data-entity="DRCluster" data-source-line="16" data-uid="ent0011" id="entity_DRCluster"><rect fill="#F1F1F1" height="46.2969" rx="2.5" ry="2.5" style="stroke:#181818;stroke-width:0.5;" width="114.6484" x="1972.68" y="150.6569"/><rect fill="#F1F1F1" height="10" style="stroke:#181818;stroke-width:0.5;" width="15" x="2067.3284" y="155.6569"/><rect fill="#F1F1F1" height="2" style="stroke:#181818;stroke-width:0.5;" width="4" x="2065.3284" y="157.6569"/><rect fill="#F1F1F1" height="2" style="stroke:#181818;stroke-width:0.5;" width="4" x="2065.3284" y="161.6569"/><text fill="#000000" font-family="sans-serif" font-size="14" lengthAdjust="spacing" textLength="74.6484" x="1987.68" y="183.652">DR Cluster</text></g><!--entity DRDB--><g class="entity" data-entity="DRDB" data-source-line="17" data-uid="ent0012" id="entity_DRDB"><rect fill="#F1F1F1" height="46.2969" rx="2.5" ry="2.5" style="stroke:#181818;stroke-width:0.5;" width="131.7588" x="1806.12" y="150.6569"/><rect fill="#F1F1F1" height="10" style="stroke:#181818;stroke-width:0.5;" width="15" x="1917.8788" y="155.6569"/><rect fill="#F1F1F1" height="2" style="stroke:#181818;stroke-width:0.5;" width="4" x="1915.8788" y="157.6569"/><rect fill="#F1F1F1" height="2" style="stroke:#181818;stroke-width:0.5;" width="4" x="1915.8788" y="161.6569"/><text fill="#000000" font-family="sans-serif" font-size="14" lengthAdjust="spacing" textLength="91.7588" x="1821.12" y="183.652">DR Database</text></g><!--entity Recovery--><g class="entity" data-entity="Recovery" data-source-line="18" data-uid="ent0013" id="entity_Recovery"><rect fill="#F1F1F1" height="46.2969" rx="2.5" ry="2.5" style="stroke:#181818;stroke-width:0.5;" width="161.7344" x="1494.13" y="150.6569"/><rect fill="#F1F1F1" height="10" style="stroke:#181818;stroke-width:0.5;" width="15" x="1635.8644" y="155.6569"/><rect fill="#F1F1F1" height="2" style="stroke:#181818;stroke-width:0.5;" width="4" x="1633.8644" y="157.6569"/><rect fill="#F1F1F1" height="2" style="stroke:#181818;stroke-width:0.5;" width="4" x="1633.8644" y="161.6569"/><text fill="#000000" font-family="sans-serif" font-size="14" lengthAdjust="spacing" textLength="121.7344" x="1509.13" y="183.652">Recovery Service</text></g><!--link Primary to BackupCtrl--><g class="link" data-entity-1="Primary" data-entity-2="BackupCtrl" data-source-line="21" data-uid="lnk14" id="link_Primary_BackupCtrl"><path d="M113.01,150.2869 C129.52,129.6469 156.62,101.0469 188,88.6569 C231.92,71.3169 569.31,69.0069 613,86.9369 C643.98,99.6469 666.3253,124.2933 681.8353,145.3833" fill="none" id="Primary-to-BackupCtrl" style="stroke:#181818;stroke-width:1;"/><polygon fill="#181818" points="685.39,150.2169,683.2803,140.5966,682.4277,146.1889,676.8355,145.3363,685.39,150.2169" style="stroke:#181818;stroke-width:1;"/><text fill="#000000" font-family="sans-serif" font-size="13" lengthAdjust="spacing" textLength="98.2617" x="514" y="76.7238">Trigger backup</text></g><!--link BackupCtrl to Snapshot--><g class="link" data-entity-1="BackupCtrl" data-entity-2="Snapshot" data-source-line="22" data-uid="lnk15" id="link_BackupCtrl_Snapshot"><path d="M784.06,173.8069 C830.06,173.8069 881.01,173.8069 926.72,173.8069" fill="none" id="BackupCtrl-to-Snapshot" style="stroke:#181818;stroke-width:1;"/><polygon fill="#181818" points="932.72,173.8069,923.72,169.8069,927.72,173.8069,923.72,177.8069,932.72,173.8069" style="stroke:#181818;stroke-width:1;"/><text fill="#000000" font-family="sans-serif" font-size="13" lengthAdjust="spacing" textLength="113.6802" x="801.93" y="166.8738">Create snapshots</text></g><!--link Snapshot to BackupStorage--><g class="link" data-entity-1="Snapshot" data-entity-2="BackupStorage" data-source-line="23" data-uid="lnk16" id="link_Snapshot_BackupStorage"><path d="M1095.29,173.8069 C1135.6,173.8069 1177.97,173.8069 1217.47,173.8069" fill="none" id="Snapshot-to-BackupStorage" style="stroke:#181818;stroke-width:1;"/><polygon fill="#181818" points="1223.47,173.8069,1214.47,169.8069,1218.47,173.8069,1214.47,177.8069,1223.47,173.8069" style="stroke:#181818;stroke-width:1;"/><text fill="#000000" font-family="sans-serif" font-size="13" lengthAdjust="spacing" textLength="92.936" x="1113.17" y="166.8738">Store backups</text></g><!--link PrimaryDB to BackupStorage--><g class="link" data-entity-1="PrimaryDB" data-entity-2="BackupStorage" data-source-line="24" data-uid="lnk17" id="link_PrimaryDB_BackupStorage"><path d="M304.81,150.1869 C321.42,129.0769 348.94,99.5769 381,86.9369 C404.35,77.7269 904.34,43.2969 1112,88.6569 C1166.19,100.4969 1218.3342,126.4012 1255.0042,147.2512" fill="none" id="PrimaryDB-to-BackupStorage" style="stroke:#181818;stroke-width:1;"/><polygon fill="#181818" points="1260.22,150.2169,1254.3733,142.2912,1255.8735,147.7455,1250.4191,149.2456,1260.22,150.2169" style="stroke:#181818;stroke-width:1;"/><text fill="#000000" font-family="sans-serif" font-size="13" lengthAdjust="spacing" textLength="120.3198" x="382" y="76.7238">Database backups</text></g><!--link AppData to BackupStorage--><g class="link" data-entity-1="AppData" data-entity-2="BackupStorage" data-source-line="25" data-uid="lnk18" id="link_AppData_BackupStorage"><path d="M507.23,150.1869 C529.37,129.4769 564.78,100.8269 602,88.6569 C709.72,53.4469 1001.41,63.8669 1112,88.6569 C1166.13,100.7969 1218.267,126.6538 1254.967,147.4038" fill="none" id="AppData-to-BackupStorage" style="stroke:#181818;stroke-width:1;"/><polygon fill="#181818" points="1260.19,150.3569,1254.3242,142.4453,1255.8375,147.896,1250.3868,149.4093,1260.19,150.3569" style="stroke:#181818;stroke-width:1;"/><text fill="#000000" font-family="sans-serif" font-size="13" lengthAdjust="spacing" textLength="130.9268" x="856" y="76.7238">Application backups</text></g><!--link BackupStorage to Recovery--><g class="link" data-entity-1="BackupStorage" data-entity-2="Recovery" data-source-line="28" data-uid="lnk19" id="link_BackupStorage_Recovery"><path d="M1374.78,173.8069 C1411.81,173.8069 1450.39,173.8069 1488.07,173.8069" fill="none" id="BackupStorage-to-Recovery" style="stroke:#181818;stroke-width:1;"/><polygon fill="#181818" points="1494.07,173.8069,1485.07,169.8069,1489.07,173.8069,1485.07,177.8069,1494.07,173.8069" style="stroke:#181818;stroke-width:1;"/><text fill="#000000" font-family="sans-serif" font-size="13" lengthAdjust="spacing" textLength="83.6113" x="1392.81" y="189.8738">Restore data</text></g><!--link Recovery to DRCluster--><g class="link" data-entity-1="Recovery" data-entity-2="DRCluster" data-source-line="29" data-uid="lnk20" id="link_Recovery_DRCluster"><path d="M1612.65,150.3169 C1649.22,128.9869 1707.12,99.0569 1762,86.9369 C1845.76,68.4269 1877.17,52.5869 1955,88.6569 C1982.7,101.4969 2001.1747,124.916 2013.9547,145.406" fill="none" id="Recovery-to-DRCluster" style="stroke:#181818;stroke-width:1;"/><polygon fill="#181818" points="2017.13,150.4969,2015.761,140.7436,2014.4839,146.2544,2008.9731,144.9774,2017.13,150.4969" style="stroke:#181818;stroke-width:1;"/><text fill="#000000" font-family="sans-serif" font-size="13" lengthAdjust="spacing" textLength="102.9907" x="1763" y="76.7238">Deploy services</text></g><!--link Recovery to DRDB--><g class="link" data-entity-1="Recovery" data-entity-2="DRDB" data-source-line="30" data-uid="lnk21" id="link_Recovery_DRDB"><path d="M1656.16,173.8069 C1703.22,173.8069 1755.72,173.8069 1799.95,173.8069" fill="none" id="Recovery-to-DRDB" style="stroke:#181818;stroke-width:1;"/><polygon fill="#181818" points="1805.95,173.8069,1796.95,169.8069,1800.95,173.8069,1796.95,177.8069,1805.95,173.8069" style="stroke:#181818;stroke-width:1;"/><text fill="#000000" font-family="sans-serif" font-size="13" lengthAdjust="spacing" textLength="114.6006" x="1673.99" y="166.8738">Restore database</text></g><!--link DRCluster to DRCluster--><g class="link" data-entity-1="DRCluster" data-entity-2="DRCluster" data-source-line="31" data-uid="lnk22" id="link_DRCluster_DRCluster"><path d="M2087.7,165.1269 C2106.94,165.1269 2122.32,168.0169 2122.32,173.8069 C2122.32,179.5969 2112.94,182.4869 2093.7,182.4869" fill="none" id="DRCluster-to-DRCluster" style="stroke:#181818;stroke-width:1;"/><polygon fill="#181818" points="2087.7,182.4869,2096.7,186.4869,2092.7,182.4869,2096.7,178.4869,2087.7,182.4869" style="stroke:#181818;stroke-width:1;"/><text fill="#000000" font-family="sans-serif" font-size="13" lengthAdjust="spacing" textLength="114.7021" x="2128.32" y="178.3738">Validate recovery</text></g><!--SRC=[VP91RiCW44Ntd6AKJLUzW1UL4dE0ogwwd-1fWae00KaLLRrxmG5Ykqwzmdy-upzl76HG13iKdsSBg0VeI9WBkIjidJZAG2AS7J5cemCF19jN9qyOotsiRU2RGNo4ELcZIOTxkLLd7yXj03raxP6LOy0zUffw-MxftbghfC0WZHvlZEuefZFxcGJCi_JN-FsJNucO3QtHmHcbSiYRsWQdblvUe_L74w0dTv7YbhE83vhtmRYOPj8vAxEeVMIjXtzeycu6adVvRSKteyYxlm3hOgTZ5375AljuVfd0QE3DoSE17En7ZTrBoLWmDD0wma3Wi-1PnLRxPGJDI8ToGy_gobUSPQfgpXjViKv_aE9cJy2bnuGCN9d_GvalDhkSkXKIJJpvCT-G_gnABLeg_fYBh39Ny3UKVc7ZktcND06hjnUjtb798Q4h0Tal]--></g></svg>