<svg xmlns="http://www.w3.org/2000/svg" xmlns:xlink="http://www.w3.org/1999/xlink" contentStyleType="text/css" data-diagram-type="DESCRIPTION" height="535px" preserveAspectRatio="none" style="width:1245px;height:535px;background:#1A1A1A;" version="1.1" viewBox="0 0 1245 535" width="1245px" zoomAndPan="magnify"><title>VisualGridDev Studio - Live Monitoring Dashboard</title><defs/><g><rect fill="#1A1A1A" height="535" style="stroke:none;stroke-width:1;" width="1245" x="0" y="0"/><g class="title" data-source-line="7"><text fill="#000000" font-family="Verdana" font-size="22" font-weight="bold" lengthAdjust="spacing" textLength="623.917" x="306.0415" y="35.4209">VisualGridDev Studio - Live Monitoring Dashboard</text></g><!--cluster overview--><g class="cluster" data-entity="overview" data-source-line="9" data-uid="ent0002" id="cluster_overview"><rect fill="#2D3748" height="216.89" rx="2.5" ry="2.5" style="stroke:#4A5568;stroke-width:1;" width="473" x="285" y="66.7594"/><text fill="#000000" font-family="Verdana" font-size="14" font-weight="bold" lengthAdjust="spacing" textLength="136.9717" x="453.0142" y="81.7545">System Overview</text></g><!--cluster flowmap--><g class="cluster" data-entity="flowmap" data-source-line="16" data-uid="ent0007" id="cluster_flowmap"><rect fill="#2D3748" height="365.3" rx="2.5" ry="2.5" style="stroke:#4A5568;stroke-width:1;" width="242" x="12" y="64.7794"/><text fill="#000000" font-family="Verdana" font-size="14" font-weight="bold" lengthAdjust="spacing" textLength="157.4932" x="54.2534" y="79.7745">Flow Execution Map</text></g><!--cluster charts--><g class="cluster" data-entity="charts" data-source-line="29" data-uid="ent0022" id="cluster_charts"><rect fill="#2D3748" height="233.19" rx="2.5" ry="2.5" style="stroke:#4A5568;stroke-width:1;" width="457" x="782" y="58.6094"/><text fill="#000000" font-family="Verdana" font-size="14" font-weight="bold" lengthAdjust="spacing" textLength="114.9463" x="953.0269" y="73.6045">Metrics Charts</text></g><!--cluster alerts--><g class="cluster" data-entity="alerts" data-source-line="35" data-uid="ent0026" id="cluster_alerts"><rect fill="#2D3748" height="188.58" rx="2.5" ry="2.5" style="stroke:#4A5568;stroke-width:1;" width="465" x="278" y="340.7994"/><text fill="#000000" font-family="Verdana" font-size="14" font-weight="bold" lengthAdjust="spacing" textLength="101.1787" x="459.9106" y="355.7945">Active Alerts</text></g><!--entity agents--><g class="entity" data-entity="agents" data-source-line="10" data-uid="ent0003" id="entity_agents"><rect fill="#2D3748" height="36.2969" rx="2.5" ry="2.5" style="stroke:#4A5568;stroke-width:1;" width="179.0996" x="301.45" y="101.7594"/><text fill="#000000" font-family="Verdana" font-size="14" lengthAdjust="spacing" textLength="159.0996" x="311.45" y="124.7545">&#128994; Agents: 24/25 Active</text></g><!--entity throughput--><g class="entity" data-entity="throughput" data-source-line="11" data-uid="ent0004" id="entity_throughput"><rect fill="#2D3748" height="36.2969" rx="2.5" ry="2.5" style="stroke:#4A5568;stroke-width:1;" width="226.3154" x="515.84" y="101.7594"/><text fill="#000000" font-family="Verdana" font-size="14" lengthAdjust="spacing" textLength="206.3154" x="525.84" y="124.7545">&#128202; Throughput: 1,247 msg/sec</text></g><!--entity latency--><g class="entity" data-entity="latency" data-source-line="12" data-uid="ent0005" id="entity_latency"><rect fill="#2D3748" height="36.2969" rx="2.5" ry="2.5" style="stroke:#4A5568;stroke-width:1;" width="167.7314" x="307.13" y="231.3594"/><text fill="#000000" font-family="Verdana" font-size="14" lengthAdjust="spacing" textLength="147.7314" x="317.13" y="254.3545">&#9889; Latency: 12ms avg</text></g><!--entity resources--><g class="entity" data-entity="resources" data-source-line="13" data-uid="ent0006" id="entity_resources"><rect fill="#2D3748" height="36.2969" rx="2.5" ry="2.5" style="stroke:#4A5568;stroke-width:1;" width="186.8857" x="509.56" y="231.3594"/><text fill="#000000" font-family="Verdana" font-size="14" lengthAdjust="spacing" textLength="166.8857" x="519.56" y="254.3545">&#128293; CPU: 45% | RAM: 62%</text></g><!--entity flowA--><g class="entity" data-entity="flowA" data-source-line="17" data-uid="ent0008" id="entity_flowA"><rect fill="#90EE90" height="36.2969" rx="2.5" ry="2.5" style="stroke:#4A5568;stroke-width:1;" width="65.9854" x="30.01" y="101.7594"/><text fill="#000000" font-family="Verdana" font-size="14" lengthAdjust="spacing" textLength="45.9854" x="40.01" y="124.7545">Flow A</text></g><!--entity flowB--><g class="entity" data-entity="flowB" data-source-line="18" data-uid="ent0009" id="entity_flowB"><rect fill="#FFD700" height="36.2969" rx="2.5" ry="2.5" style="stroke:#4A5568;stroke-width:1;" width="66.0127" x="28.99" y="231.3594"/><text fill="#000000" font-family="Verdana" font-size="14" lengthAdjust="spacing" textLength="46.0127" x="38.99" y="254.3545">Flow B</text></g><!--entity flowC--><g class="entity" data-entity="flowC" data-source-line="19" data-uid="ent0010" id="entity_flowC"><rect fill="#FF6B6B" height="36.2969" rx="2.5" ry="2.5" style="stroke:#4A5568;stroke-width:1;" width="66.1836" x="27.91" y="375.7994"/><text fill="#000000" font-family="Verdana" font-size="14" lengthAdjust="spacing" textLength="46.1836" x="37.91" y="398.7945">Flow C</text></g><g class="entity" data-entity="GMN13" data-source-line="24" data-uid="ent0014" id="entity_GMN13"><path d="M130.74,99.7794 L130.74,115.9094 L96.09,119.9094 L130.74,123.9094 L130.74,140.045 A0,0 0 0 0 130.74,140.045 L237.2683,140.045 A0,0 0 0 0 237.2683,140.045 L237.2683,109.7794 L227.2683,99.7794 L130.74,99.7794 A0,0 0 0 0 130.74,99.7794" fill="#FFFFFF" style="stroke:#000000;stroke-width:1;"/><path d="M227.2683,99.7794 L227.2683,109.7794 L237.2683,109.7794 L227.2683,99.7794" fill="#FFFFFF" style="stroke:#000000;stroke-width:1;"/><text fill="#000000" font-family="Verdana" font-size="13" lengthAdjust="spacing" textLength="85.5283" x="136.74" y="116.8463">156 msg/min</text><text fill="#000000" font-family="Verdana" font-size="13" lengthAdjust="spacing" textLength="79.5933" x="136.74" y="131.9791">2ms latency</text></g><g class="entity" data-entity="GMN16" data-source-line="25" data-uid="ent0017" id="entity_GMN16"><path d="M129.57,229.3694 L129.57,245.5094 L95.36,249.5094 L129.57,253.5094 L129.57,269.635 A0,0 0 0 0 129.57,269.635 L238.4343,269.635 A0,0 0 0 0 238.4343,269.635 L238.4343,239.3694 L228.4343,229.3694 L129.57,229.3694 A0,0 0 0 0 129.57,229.3694" fill="#FFFFFF" style="stroke:#000000;stroke-width:1;"/><path d="M228.4343,229.3694 L228.4343,239.3694 L238.4343,239.3694 L228.4343,229.3694" fill="#FFFFFF" style="stroke:#000000;stroke-width:1;"/><text fill="#000000" font-family="Verdana" font-size="13" lengthAdjust="spacing" textLength="77.2573" x="135.57" y="246.4363">89 msg/min</text><text fill="#000000" font-family="Verdana" font-size="13" lengthAdjust="spacing" textLength="87.8643" x="135.57" y="261.5691">15ms latency</text></g><g class="entity" data-entity="GMN19" data-source-line="26" data-uid="ent0020" id="entity_GMN19"><path d="M129.57,373.8194 L129.57,389.9494 L94.15,393.9494 L129.57,397.9494 L129.57,414.085 A0,0 0 0 0 129.57,414.085 L238.4343,414.085 A0,0 0 0 0 238.4343,414.085 L238.4343,383.8194 L228.4343,373.8194 L129.57,373.8194 A0,0 0 0 0 129.57,373.8194" fill="#FFFFFF" style="stroke:#000000;stroke-width:1;"/><path d="M228.4343,373.8194 L228.4343,383.8194 L238.4343,383.8194 L228.4343,373.8194" fill="#FFFFFF" style="stroke:#000000;stroke-width:1;"/><text fill="#000000" font-family="Verdana" font-size="13" lengthAdjust="spacing" textLength="77.2573" x="135.57" y="390.8863">23 msg/min</text><text fill="#000000" font-family="Verdana" font-size="13" lengthAdjust="spacing" textLength="87.8643" x="135.57" y="406.0191">45ms latency</text></g><!--entity volume--><g class="entity" data-entity="volume" data-source-line="30" data-uid="ent0023" id="entity_volume"><rect fill="#2D3748" height="52.5938" rx="2.5" ry="2.5" style="stroke:#4A5568;stroke-width:1;" width="182.7432" x="797.63" y="93.6094"/><text fill="#000000" font-family="Verdana" font-size="14" lengthAdjust="spacing" textLength="118.9658" x="807.63" y="116.6045">Message Volume</text><text fill="#000000" font-family="Verdana" font-size="14" lengthAdjust="spacing" textLength="162.7432" x="807.63" y="132.9014">&#128200; &#9650; 15% from last hour</text></g><!--entity errors--><g class="entity" data-entity="errors" data-source-line="31" data-uid="ent0024" id="entity_errors"><rect fill="#2D3748" height="52.5938" rx="2.5" ry="2.5" style="stroke:#4A5568;stroke-width:1;" width="207.1953" x="1015.4" y="93.6094"/><text fill="#000000" font-family="Verdana" font-size="14" lengthAdjust="spacing" textLength="71.5381" x="1025.4" y="116.6045">Error Rate</text><text fill="#000000" font-family="Verdana" font-size="14" lengthAdjust="spacing" textLength="187.1953" x="1025.4" y="132.9014">&#128201; &#9660; 0.02% (target: &lt;0.1%)</text></g><!--entity response--><g class="entity" data-entity="response" data-source-line="32" data-uid="ent0025" id="entity_response"><rect fill="#2D3748" height="52.5938" rx="2.5" ry="2.5" style="stroke:#4A5568;stroke-width:1;" width="219.6299" x="798.19" y="223.2094"/><text fill="#000000" font-family="Verdana" font-size="14" lengthAdjust="spacing" textLength="107.0098" x="808.19" y="246.2045">Response Time</text><text fill="#000000" font-family="Verdana" font-size="14" lengthAdjust="spacing" textLength="199.6299" x="808.19" y="262.5014">&#128202; 12ms avg (target: &lt;50ms)</text></g><!--entity alert1--><g class="entity" data-entity="alert1" data-source-line="36" data-uid="ent0027" id="entity_alert1"><rect fill="#2D3748" height="36.2969" rx="2.5" ry="2.5" style="stroke:#4A5568;stroke-width:1;" width="193.4277" x="294.29" y="375.7994"/><text fill="#000000" font-family="Verdana" font-size="14" lengthAdjust="spacing" textLength="173.4277" x="304.29" y="398.7945">&#128993; High latency on Flow C</text></g><!--entity alert2--><g class="entity" data-entity="alert2" data-source-line="37" data-uid="ent0028" id="entity_alert2"><rect fill="#2D3748" height="36.2969" rx="2.5" ry="2.5" style="stroke:#4A5568;stroke-width:1;" width="203.8936" x="523.05" y="375.7994"/><text fill="#000000" font-family="Verdana" font-size="14" lengthAdjust="spacing" textLength="183.8936" x="533.05" y="398.7945">&#128308; Agent-007 disconnected</text></g><!--entity alert3--><g class="entity" data-entity="alert3" data-source-line="38" data-uid="ent0029" id="entity_alert3"><rect fill="#2D3748" height="36.2969" rx="2.5" ry="2.5" style="stroke:#4A5568;stroke-width:1;" width="251.916" x="294.04" y="477.0794"/><text fill="#000000" font-family="Verdana" font-size="14" lengthAdjust="spacing" textLength="231.916" x="304.04" y="500.0745">&#128994; Auto-scaling triggered +2 pods</text></g><!--link flowA to flowB--><g class="link" data-entity-1="flowA" data-entity-2="flowB" data-source-line="21" data-uid="lnk11" id="link_flowA_flowB"><path d="M62.86,138.3894 C62.67,162.8194 62.3769,200.9196 62.1869,225.2396" fill="none" id="flowA-to-flowB" style="stroke:#000000;stroke-width:1;"/><polygon fill="#000000" points="62.14,231.2394,66.2102,222.2709,62.1791,226.2395,58.2104,222.2084,62.14,231.2394" style="stroke:#000000;stroke-width:1;"/><text fill="#000000" font-family="Verdana" font-size="13" lengthAdjust="spacing" textLength="60.7788" x="63.56" y="189.2763">&#128994; healthy</text></g><!--link flowB to flowC--><g class="link" data-entity-1="flowB" data-entity-2="flowC" data-source-line="22" data-uid="lnk12" id="link_flowB_flowC"><path d="M61.88,267.9694 C61.69,295.3094 61.3637,341.9095 61.1637,369.3395" fill="none" id="flowB-to-flowC" style="stroke:#000000;stroke-width:1;"/><polygon fill="#000000" points="61.12,375.3394,65.1855,366.3688,61.1565,370.3395,57.1857,366.3104,61.12,375.3394" style="stroke:#000000;stroke-width:1;"/><text fill="#000000" font-family="Verdana" font-size="13" lengthAdjust="spacing" textLength="64.2192" x="62.59" y="320.8663">&#128993; warning</text></g><!--SRC=[XPJ1RjD048RlVegXLIGgIEkuST9622b94pWq0hMbfrwsziHUrTwrTjTE8-0ElO8uSAc2n0iWZZnDdu17OBrn7CUDH9o3xVt-cPr_P_n4XHWZ916Xp98tb2L4a1YkYNSJ29uoVyWZBc2tHVAhGWZq5651X8CwwlY7tVRHLfGB7qM1jOdhTghOb3DLh4tDpx8KLH729PKfYLu9wfzW1kSgzIc79fpI36726LLSK1R02P7XDIV2jwmo8-oSpwN26DvaA3AAinqW4dZn0EyjW0hxz_x-1_G3P4hsm6aVE2xqFQNJ61Kn2tN5bpku27NvGPYagWUjvqwx2x4C3YHwHgRArKtfm_S5d1A5p9jhcHFh15bW5D7oRJtJrvymVFkk1sst0H_Wh3_fGSTf68L0oLFXeRG-RXG_ZlWCHhVefOfo1XEI67ogNySagPTlw7v9z67ts1wDZkqjrA2a1h0x7fzqxMtKiAI6ETKPT0QQqlzb-6RpPH6Y1yRw44camda134fWk0GMC2E2wQDU1c5S8GWQX0huj0YfdNGxnlwOiYkMkxfsyx4WptnqlEPRxdy4-KwSmxMWNHLiUZz19QWdOHWIeQHnmZEtTTidAANkBRZaKHhZ5TCzzGaUlltIfJHWAdYi4qW5eJvX4oKpt6QCaH1wRixqHep-izR_0NlVTXhmL14He6xD5_P-gx5dGc2Errhv36N2cKIueCKkxigsh0HnxLZkhPhE26frBoS6-X6koYRcTikmBU2rDdVb7-WEhRIDKRKU3S7lvO0sRRiBFfKUPqolex_MEDk6EbMyAJqIvHyAVIv1W09zUEP0mltABWzrCVy0]--></g></svg>