<svg xmlns="http://www.w3.org/2000/svg" xmlns:xlink="http://www.w3.org/1999/xlink" contentStyleType="text/css" data-diagram-type="DESCRIPTION" height="875px" preserveAspectRatio="none" style="width:1170px;height:875px;background:#F0F8FF;" version="1.1" viewBox="0 0 1170 875" width="1170px" zoomAndPan="magnify"><title>VisualGridDev Studio - Data Flow Architecture View</title><defs/><g><rect fill="#F0F8FF" height="875" style="stroke:none;stroke-width:1;" width="1170" x="0" y="0"/><g class="title" data-source-line="4"><text fill="#000000" font-family="Verdana" font-size="22" font-weight="bold" lengthAdjust="spacing" textLength="641.7813" x="260.0702" y="35.4209">VisualGridDev Studio - Data Flow Architecture View</text></g><!--cluster ingestion--><g class="cluster" data-entity="ingestion" data-source-line="15" data-uid="ent0005" id="cluster_ingestion"><path d="M341,191.2618 L682,191.2618 C687,191.2618 687,259.0618 687,259.0618 C687,259.0618 687,326.8618 682,326.8618 L341,326.8618 C336,326.8618 336,259.0618 336,259.0618 C336,259.0618 336,191.2618 341,191.2618" fill="#FFFFFF" style="stroke:#000000;stroke-width:1;"/><path d="M682,191.2618 C677,191.2618 677,259.0618 677,259.0618 C677,326.8618 682,326.8618 682,326.8618" fill="none" style="stroke:#000000;stroke-width:1;"/><text fill="#000000" font-family="Verdana" font-size="14" font-weight="bold" lengthAdjust="spacing" textLength="123.8193" x="449.5903" y="206.2569">Event Ingestion</text><text fill="#000000" font-family="Verdana" font-size="14" font-weight="bold" lengthAdjust="spacing" textLength="43.8936" x="489.5532" y="222.5538">Layer</text></g><!--cluster processing--><g class="cluster" data-entity="processing" data-source-line="20" data-uid="ent0008" id="cluster_processing"><rect fill="#FFFFFF" height="119.59" rx="2.5" ry="2.5" style="stroke:#000000;stroke-width:1;" width="675" x="12" y="391.8618"/><text fill="#000000" font-family="Verdana" font-size="14" font-weight="bold" lengthAdjust="spacing" textLength="134.7979" x="282.1011" y="406.8569">Processing Layer</text></g><!--cluster storage--><g class="cluster" data-entity="storage" data-source-line="27" data-uid="ent0013" id="cluster_storage"><path d="M242,586.4518 C242,576.4518 394,576.4518 394,576.4518 C394,576.4518 546,576.4518 546,586.4518 L546,848.6418 C546,858.6418 394,858.6418 394,858.6418 C394,858.6418 242,858.6418 242,848.6418 L242,586.4518" fill="#FFFFFF" style="stroke:#000000;stroke-width:1;"/><path d="M242,586.4518 C242,596.4518 394,596.4518 394,596.4518 C394,596.4518 546,596.4518 546,586.4518" fill="none" style="stroke:#000000;stroke-width:1;"/><text fill="#000000" font-family="Verdana" font-size="14" font-weight="bold" lengthAdjust="spacing" textLength="104.3438" x="341.8281" y="611.4469">Data Storage</text><text fill="#000000" font-family="Verdana" font-size="14" font-weight="bold" lengthAdjust="spacing" textLength="43.8936" x="372.0532" y="627.7438">Layer</text></g><!--cluster output--><g class="cluster" data-entity="output" data-source-line="34" data-uid="ent0018" id="cluster_output"><rect fill="#FFFFFF" height="242.19" rx="2.5" ry="2.5" style="stroke:#000000;stroke-width:1;" width="328" x="586" y="611.9518"/><text fill="#000000" font-family="Verdana" font-size="14" font-weight="bold" lengthAdjust="spacing" textLength="104.0088" x="697.9956" y="626.9469">Output Layer</text></g><!--entity kafka--><g class="entity" data-entity="kafka" data-source-line="16" data-uid="ent0006" id="entity_kafka"><rect fill="#FFFFFF" height="52.5938" rx="2.5" ry="2.5" style="stroke:#000000;stroke-width:1;" width="116.0518" x="359.97" y="250.2618"/><text fill="#000000" font-family="Verdana" font-size="14" lengthAdjust="spacing" textLength="96.0518" x="369.97" y="273.2569">Apache Kafka</text><text fill="#000000" font-family="Verdana" font-size="14" lengthAdjust="spacing" textLength="72.6113" x="369.97" y="289.5538">Streaming</text></g><!--entity router--><g class="entity" data-entity="router" data-source-line="17" data-uid="ent0007" id="entity_router"><rect fill="#FFFFFF" height="52.5938" rx="2.5" ry="2.5" style="stroke:#000000;stroke-width:1;" width="132.834" x="510.58" y="250.2618"/><text fill="#000000" font-family="Verdana" font-size="14" lengthAdjust="spacing" textLength="112.834" x="520.58" y="273.2569">Message Router</text><text fill="#000000" font-family="Verdana" font-size="14" lengthAdjust="spacing" textLength="51.0576" x="520.58" y="289.5538">&amp; Filter</text></g><!--entity agents--><g class="entity" data-entity="agents" data-source-line="21" data-uid="ent0009" id="entity_agents"><rect fill="#FFFFFF" height="52.5938" rx="2.5" ry="2.5" style="stroke:#000000;stroke-width:1;" width="93.999" x="36" y="434.8618"/><text fill="#000000" font-family="Verdana" font-size="14" lengthAdjust="spacing" textLength="66.8896" x="46" y="457.8569">AI Agents</text><text fill="#000000" font-family="Verdana" font-size="14" lengthAdjust="spacing" textLength="73.999" x="46" y="474.1538">(A2A/MCP)</text></g><!--entity flows--><g class="entity" data-entity="flows" data-source-line="22" data-uid="ent0010" id="entity_flows"><rect fill="#FFFFFF" height="52.5938" rx="2.5" ry="2.5" style="stroke:#000000;stroke-width:1;" width="134.6455" x="164.68" y="434.8618"/><text fill="#000000" font-family="Verdana" font-size="14" lengthAdjust="spacing" textLength="114.6455" x="174.68" y="457.8569">Node-RED Flows</text><text fill="#000000" font-family="Verdana" font-size="14" lengthAdjust="spacing" textLength="94.3154" x="174.68" y="474.1538">(Visual Logic)</text></g><!--entity ml--><g class="entity" data-entity="ml" data-source-line="23" data-uid="ent0011" id="entity_ml"><rect fill="#FFFFFF" height="52.5938" rx="2.5" ry="2.5" style="stroke:#000000;stroke-width:1;" width="135.7324" x="334.13" y="434.8618"/><text fill="#000000" font-family="Verdana" font-size="14" lengthAdjust="spacing" textLength="90.4258" x="344.13" y="457.8569">ML Inference</text><text fill="#000000" font-family="Verdana" font-size="14" lengthAdjust="spacing" textLength="115.7324" x="344.13" y="474.1538">(Python/FastAPI)</text></g><!--entity analytics--><g class="entity" data-entity="analytics" data-source-line="24" data-uid="ent0012" id="entity_analytics"><rect fill="#FFFFFF" height="52.5938" rx="2.5" ry="2.5" style="stroke:#000000;stroke-width:1;" width="138.9863" x="504.51" y="434.8618"/><text fill="#000000" font-family="Verdana" font-size="14" lengthAdjust="spacing" textLength="118.9863" x="514.51" y="457.8569">Stream Analytics</text><text fill="#000000" font-family="Verdana" font-size="14" lengthAdjust="spacing" textLength="100.4131" x="514.51" y="474.1538">(Apache Flink)</text></g><!--entity sqliteai--><g class="entity" data-entity="sqliteai" data-source-line="28" data-uid="ent0014" id="entity_sqliteai"><path d="M265.77,660.4518 C265.77,650.4518 307.998,650.4518 307.998,650.4518 C307.998,650.4518 350.2261,650.4518 350.2261,660.4518 L350.2261,702.0455 C350.2261,712.0455 307.998,712.0455 307.998,712.0455 C307.998,712.0455 265.77,712.0455 265.77,702.0455 L265.77,660.4518" fill="#FFFFFF" style="stroke:#000000;stroke-width:1;"/><path d="M265.77,660.4518 C265.77,670.4518 307.998,670.4518 307.998,670.4518 C307.998,670.4518 350.2261,670.4518 350.2261,660.4518" fill="none" style="stroke:#000000;stroke-width:1;"/><text fill="#000000" font-family="Verdana" font-size="14" lengthAdjust="spacing" textLength="64.4561" x="275.77" y="687.4469">SQLite-AI</text><text fill="#000000" font-family="Verdana" font-size="14" lengthAdjust="spacing" textLength="46.1563" x="275.77" y="703.7438">(Edge)</text></g><!--entity vectordb--><g class="entity" data-entity="vectordb" data-source-line="29" data-uid="ent0015" id="entity_vectordb"><path d="M385.19,660.4518 C385.19,650.4518 444.002,650.4518 444.002,650.4518 C444.002,650.4518 502.814,650.4518 502.814,660.4518 L502.814,702.0455 C502.814,712.0455 444.002,712.0455 444.002,712.0455 C444.002,712.0455 385.19,712.0455 385.19,702.0455 L385.19,660.4518" fill="#FFFFFF" style="stroke:#000000;stroke-width:1;"/><path d="M385.19,660.4518 C385.19,670.4518 444.002,670.4518 444.002,670.4518 C444.002,670.4518 502.814,670.4518 502.814,660.4518" fill="none" style="stroke:#000000;stroke-width:1;"/><text fill="#000000" font-family="Verdana" font-size="14" lengthAdjust="spacing" textLength="70.5332" x="395.19" y="687.4469">Vector DB</text><text fill="#000000" font-family="Verdana" font-size="14" lengthAdjust="spacing" textLength="97.624" x="395.19" y="703.7438">(Embeddings)</text></g><!--entity timeseries--><g class="entity" data-entity="timeseries" data-source-line="30" data-uid="ent0016" id="entity_timeseries"><path d="M265.9,783.0518 C265.9,773.0518 316.9977,773.0518 316.9977,773.0518 C316.9977,773.0518 368.0953,773.0518 368.0953,783.0518 L368.0953,824.6455 C368.0953,834.6455 316.9977,834.6455 316.9977,834.6455 C316.9977,834.6455 265.9,834.6455 265.9,824.6455 L265.9,783.0518" fill="#FFFFFF" style="stroke:#000000;stroke-width:1;"/><path d="M265.9,783.0518 C265.9,793.0518 316.9977,793.0518 316.9977,793.0518 C316.9977,793.0518 368.0953,793.0518 368.0953,783.0518" fill="none" style="stroke:#000000;stroke-width:1;"/><text fill="#000000" font-family="Verdana" font-size="14" lengthAdjust="spacing" textLength="82.1953" x="275.9" y="810.0469">Time Series</text><text fill="#000000" font-family="Verdana" font-size="14" lengthAdjust="spacing" textLength="70.2871" x="275.9" y="826.3438">(InfluxDB)</text></g><!--entity datalake--><g class="entity" data-entity="datalake" data-source-line="31" data-uid="ent0017" id="entity_datalake"><path d="M402.75,783.0518 C402.75,773.0518 449.999,773.0518 449.999,773.0518 C449.999,773.0518 497.248,773.0518 497.248,783.0518 L497.248,824.6455 C497.248,834.6455 449.999,834.6455 449.999,834.6455 C449.999,834.6455 402.75,834.6455 402.75,824.6455 L402.75,783.0518" fill="#FFFFFF" style="stroke:#000000;stroke-width:1;"/><path d="M402.75,783.0518 C402.75,793.0518 449.999,793.0518 449.999,793.0518 C449.999,793.0518 497.248,793.0518 497.248,783.0518" fill="none" style="stroke:#000000;stroke-width:1;"/><text fill="#000000" font-family="Verdana" font-size="14" lengthAdjust="spacing" textLength="70.9775" x="412.75" y="810.0469">Data Lake</text><text fill="#000000" font-family="Verdana" font-size="14" lengthAdjust="spacing" textLength="74.498" x="412.75" y="826.3438">(Analytics)</text></g><!--entity dashboards--><g class="entity" data-entity="dashboards" data-source-line="35" data-uid="ent0019" id="entity_dashboards"><rect fill="#FFFFFF" height="52.5938" rx="2.5" ry="2.5" style="stroke:#000000;stroke-width:1;" width="103.4941" x="610.25" y="654.9518"/><text fill="#000000" font-family="Verdana" font-size="14" lengthAdjust="spacing" textLength="67.4912" x="620.25" y="677.9469">Real-time</text><text fill="#000000" font-family="Verdana" font-size="14" lengthAdjust="spacing" textLength="83.4941" x="620.25" y="694.2438">Dashboards</text></g><!--entity responses--><g class="entity" data-entity="responses" data-source-line="36" data-uid="ent0020" id="entity_responses"><rect fill="#FFFFFF" height="52.5938" rx="2.5" ry="2.5" style="stroke:#000000;stroke-width:1;" width="121.7598" x="749.12" y="654.9518"/><text fill="#000000" font-family="Verdana" font-size="14" lengthAdjust="spacing" textLength="101.7598" x="759.12" y="677.9469">API Responses</text><text fill="#000000" font-family="Verdana" font-size="14" lengthAdjust="spacing" textLength="88.1152" x="759.12" y="694.2438">&amp; Webhooks</text></g><!--entity alerts--><g class="entity" data-entity="alerts" data-source-line="37" data-uid="ent0021" id="entity_alerts"><rect fill="#FFFFFF" height="52.5938" rx="2.5" ry="2.5" style="stroke:#000000;stroke-width:1;" width="107.623" x="610.19" y="777.5518"/><text fill="#000000" font-family="Verdana" font-size="14" lengthAdjust="spacing" textLength="55.9863" x="620.19" y="800.5469">Alerts &amp;</text><text fill="#000000" font-family="Verdana" font-size="14" lengthAdjust="spacing" textLength="87.623" x="620.19" y="816.8438">Notifications</text></g><!--entity exports--><g class="entity" data-entity="exports" data-source-line="38" data-uid="ent0022" id="entity_exports"><rect fill="#FFFFFF" height="52.5938" rx="2.5" ry="2.5" style="stroke:#000000;stroke-width:1;" width="111" x="752.5" y="777.5518"/><text fill="#000000" font-family="Verdana" font-size="14" lengthAdjust="spacing" textLength="91" x="762.5" y="800.5469">Data Exports</text><text fill="#000000" font-family="Verdana" font-size="14" lengthAdjust="spacing" textLength="69.6992" x="762.5" y="816.8438">&amp; Reports</text></g><!--entity iot--><g class="entity" data-entity="iot" data-source-line="11" data-uid="ent0002" id="entity_iot"><path d="M479.736,67.2611 C483.6732,61.0133 487.7261,61.8446 491.7614,67.1591 C494.3746,60.9189 500.0218,61.2493 503.629,66.0951 C507.3948,61.0998 511.2791,60.2648 515.5357,65.5254 C519.476,60.3418 523.6649,59.0416 527.9736,65.1186 C531.0025,59.5625 537.0381,58.8212 540.1548,65.0277 C544.319,60.049 548.0223,58.7585 552.1556,65.0606 C556.6458,60.9752 560.2406,61.3554 562.7723,67.1626 C566.3823,60.3445 572.9053,61.3978 576.5011,67.1782 C582.9965,69.8034 583.0734,75.0506 577.3857,78.618 C582.8453,82.4445 582.0774,86.3626 576.9514,89.7772 C583.1395,92.6451 582.8453,98.4258 577.1934,101.5374 C581.7649,105.3282 581.0712,110.2182 576.1253,113.1322 C571.869,118.6446 568.1503,119.0863 564.1408,112.8799 C561.0375,118.8889 556.798,119.263 552.2578,114.4589 C548.7692,120.6273 545.0132,120.8668 540.9192,115.0306 C537.2057,122.0853 532.5057,122.1018 527.6651,116.1819 C524.1706,121.8826 518.7044,122.4806 515.2033,116.1887 C511.135,120.2457 506.344,119.9832 504.3212,113.9769 C500.8283,119.2623 496.0985,119.7616 492.5226,114.066 C488.7447,118.297 483.9615,118.1499 481.4098,112.6638 C475.2646,110.6947 474.6473,105.1824 479.4743,101.3382 C473.7687,99.111 471.7022,95.9469 475.9279,90.4769 C471.0287,84.9908 470.9048,80.2006 478.8652,77.6621 C473.4326,73.8444 473.8399,70.1304 479.736,67.2611" fill="#FFFFFF" style="stroke:#000000;stroke-width:1;"/><text fill="#000000" font-family="Verdana" font-size="14" lengthAdjust="spacing" textLength="80.9785" x="486.51" y="85.6669">IoT Sensors</text><text fill="#000000" font-family="Verdana" font-size="14" lengthAdjust="spacing" textLength="70.54" x="486.51" y="101.9638">&amp; Devices</text></g><!--entity apis--><g class="entity" data-entity="apis" data-source-line="12" data-uid="ent0003" id="entity_apis"><path d="M626.192,66.917 C629.8926,58.9684 635.6857,59.2284 640.3992,65.935 C644.6909,59.3795 648.729,60.5342 652.9848,65.9726 C656.5723,58.2046 662.646,57.6094 667.1452,65.128 C671.8419,59.388 676.1569,59.6606 679.8661,66.1547 C682.5209,58.8472 688.5379,59.64 692.7346,64.5276 C698.0502,59.215 703.4312,59.2622 706.5271,66.893 C711.1883,60.6769 715.3705,59.4666 720.4714,66.4276 C723.4953,60.0982 729.6384,60.304 733.2657,65.7733 C740.5136,68.9685 741.0362,72.7464 735.4709,78.213 C741.4125,80.669 743.7775,85.9239 738.1454,90.8327 C742.0015,94.8272 742.3952,98.0822 736.7515,100.7401 C741.1849,105.494 740.8936,112.3865 733.1842,113.8317 C730.3699,121.1235 723.64,121.9399 719.1771,115.5151 C714.7328,121.3966 710.4975,122.2671 706.0777,115.4897 C703.3666,122.7737 696.9271,123.0201 692.598,117.1475 C689.8354,123.7349 685.7994,123.9833 680.6158,119.8546 C676.6963,124.7805 670.2122,125.087 667.4812,118.4989 C662.6427,124.0206 657.7938,123.7009 654.1702,117.1586 C650.206,123.0359 643.8385,122.6478 641.2079,115.8002 C635.5348,122.512 630.5645,121.7733 626.6847,114.0019 C620.6557,111.7439 619.1191,107.9218 622.9896,102.4871 C616.8474,99.422 616.2126,95.3262 620.7852,90.3198 C616.227,85.1904 617.8464,80.5887 623.7862,78.0209 C620.1353,73.3751 620.9366,69.6332 626.192,66.917" fill="#FFFFFF" style="stroke:#000000;stroke-width:1;"/><text fill="#000000" font-family="Verdana" font-size="14" lengthAdjust="spacing" textLength="92.2236" x="632.89" y="85.6669">External APIs</text><text fill="#000000" font-family="Verdana" font-size="14" lengthAdjust="spacing" textLength="74.4023" x="632.89" y="101.9638">&amp; Services</text></g><!--entity users--><g class="entity" data-entity="users" data-source-line="13" data-uid="ent0004" id="entity_users"><path d="M784.446,66.6077 C788.8884,60.828 793.9252,60.0985 798.4562,66.5057 C802.237,60.638 807.2722,59.8008 811.8222,65.6264 C814.9131,59.6658 821.2759,59.643 825.0403,64.8276 C829.4377,59.0923 834.1942,59.7643 837.8807,65.6153 C842.7036,59.0001 847.8962,58.6557 852.268,66.0776 C856.3485,60.9351 861.5297,61.2113 865.1952,66.5876 C868.5633,59.5895 874.249,60.451 878.0183,66.1834 C882.6347,60.2788 888.1467,59.9349 892.6017,66.3741 C899.8058,68.4497 900.6276,73.974 895.6868,79.0138 C901.6297,81.1523 901.6247,85.4294 897.8432,89.5568 C902.3226,95.2288 900.0555,99.5503 893.7886,101.6063 C899.4799,106.7035 898.9554,111.1066 891.7378,114.0817 C888.682,119.6003 883.7387,121.0088 879.7345,115.0759 C876.6258,123.3839 869.5389,122.3598 864.8378,116.7845 C861.3496,124.3209 856.4907,125.3384 850.8149,118.9947 C847.8207,125.2648 843.2348,125.4167 838.454,121.0758 C833.0067,127.3431 826.7263,127.0902 823.4315,118.8472 C818.6704,125.1393 813.6517,124.666 809.992,117.7283 C803.7665,124.0155 799.8232,122.4333 796.6903,114.7778 C791.5436,120.6012 787.1321,119.2163 784.0356,112.6789 C777.6419,111.8262 775.8637,107.577 780.2671,102.6623 C772.7149,101.7932 769.5775,97.2261 774.1723,90.346 C770.249,85.21 772.1415,80.3136 778.6294,79.4278 C773.8419,72.9296 775.7731,66.9988 784.446,66.6077" fill="#FFFFFF" style="stroke:#000000;stroke-width:1;"/><text fill="#000000" font-family="Verdana" font-size="14" lengthAdjust="spacing" textLength="79.9053" x="789.69" y="85.6669">User Inputs</text><text fill="#000000" font-family="Verdana" font-size="14" lengthAdjust="spacing" textLength="94.6162" x="789.69" y="101.9638">&amp; Commands</text></g><g class="entity" data-entity="GMN30" data-source-line="50" data-uid="ent0031" id="entity_GMN30"><path d="M714.5,256.4318 L714.5,296.6974 L861.5073,296.6974 L861.5073,266.4318 L851.5073,256.4318 L714.5,256.4318" fill="#FFFFFF" style="stroke:#000000;stroke-width:1;"/><path d="M851.5073,256.4318 L851.5073,266.4318 L861.5073,266.4318 L851.5073,256.4318" fill="#FFFFFF" style="stroke:#000000;stroke-width:1;"/><text fill="#000000" font-family="Verdana" font-size="13" lengthAdjust="spacing" textLength="126.0073" x="720.5" y="273.4987">1M+ messages/sec</text><text fill="#000000" font-family="Verdana" font-size="13" lengthAdjust="spacing" textLength="88.3911" x="720.5" y="288.6315">Fault-tolerant</text></g><g class="entity" data-entity="GMN33" data-source-line="51" data-uid="ent0034" id="entity_GMN33"><path d="M714.75,441.0218 L714.75,481.2874 L819.2534,481.2874 L819.2534,451.0218 L809.2534,441.0218 L714.75,441.0218" fill="#FFFFFF" style="stroke:#000000;stroke-width:1;"/><path d="M809.2534,441.0218 L809.2534,451.0218 L819.2534,451.0218 L809.2534,441.0218" fill="#FFFFFF" style="stroke:#000000;stroke-width:1;"/><text fill="#000000" font-family="Verdana" font-size="13" lengthAdjust="spacing" textLength="83.5034" x="720.75" y="458.0887">A2A protocol</text><text fill="#000000" font-family="Verdana" font-size="13" lengthAdjust="spacing" textLength="77.0479" x="720.75" y="473.2215">Self-healing</text></g><g class="entity" data-entity="GMN36" data-source-line="52" data-uid="ent0037" id="entity_GMN36"><path d="M854.61,441.0218 L854.61,481.2874 L1007.381,481.2874 L1007.381,451.0218 L997.381,441.0218 L854.61,441.0218" fill="#FFFFFF" style="stroke:#000000;stroke-width:1;"/><path d="M997.381,441.0218 L997.381,451.0218 L1007.381,451.0218 L997.381,441.0218" fill="#FFFFFF" style="stroke:#000000;stroke-width:1;"/><text fill="#000000" font-family="Verdana" font-size="13" lengthAdjust="spacing" textLength="131.771" x="860.61" y="458.0887">Visual programming</text><text fill="#000000" font-family="Verdana" font-size="13" lengthAdjust="spacing" textLength="130.7808" x="860.61" y="473.2215">Real-time execution</text></g><g class="entity" data-entity="GMN39" data-source-line="53" data-uid="ent0040" id="entity_GMN39"><path d="M1042.07,441.0218 L1042.07,481.2874 L1163.9216,481.2874 L1163.9216,451.0218 L1153.9216,441.0218 L1042.07,441.0218" fill="#FFFFFF" style="stroke:#000000;stroke-width:1;"/><path d="M1153.9216,441.0218 L1153.9216,451.0218 L1163.9216,451.0218 L1153.9216,441.0218" fill="#FFFFFF" style="stroke:#000000;stroke-width:1;"/><text fill="#000000" font-family="Verdana" font-size="13" lengthAdjust="spacing" textLength="100.8516" x="1048.07" y="458.0887">AI/ML inference</text><text fill="#000000" font-family="Verdana" font-size="13" lengthAdjust="spacing" textLength="91.0762" x="1048.07" y="473.2215">Model serving</text></g><!--link iot to ingestion--><g class="link" data-entity-1="iot" data-entity-2="ingestion" data-source-line="41" data-uid="lnk23" id="link_iot_ingestion"><path d="M545.07,120.6118 C556.6,137.2618 573.1,156.5918 593,167.2618 C619.04,181.2318 637.33,155.1818 659,175.2618 C663.1025,179.0643 666.4983,183.4496 669.2991,188.2167 C669.6492,188.8126 669.9901,189.4145 670.3218,190.0219 C670.4877,190.3256 667.8559,185.3217 668.0173,185.6281" fill="none" id="iot-to-ingestion" style="stroke:#000000;stroke-width:1;"/><polygon fill="#000000" points="670.8126,190.9372,670.1589,181.11,668.4831,186.513,663.0802,184.8372,670.8126,190.9372" style="stroke:#000000;stroke-width:1;"/><text fill="#000000" font-family="Verdana" font-size="13" lengthAdjust="spacing" textLength="76.4956" x="594" y="163.3287">sensor data</text></g><!--link apis to ingestion--><g class="link" data-entity-1="apis" data-entity-2="ingestion" data-source-line="42" data-uid="lnk24" id="link_apis_ingestion"><path d="M679,120.6218 C679,133.5943 679,149.5655 679,166.274 C679,170.4511 679,174.6743 679,178.9082 C679,181.0251 679,183.1448 679,185.2627 C679,186.3217 679,187.3802 679,188.4377 C679,188.9665 679,189.495 679,190.0232 C679,190.2873 679,184.5513 679,184.8153" fill="none" id="apis-to-ingestion" style="stroke:#000000;stroke-width:1;"/><polygon fill="#000000" points="679,190.8153,683,181.8153,679,185.8153,675,181.8153,679,190.8153" style="stroke:#000000;stroke-width:1;"/><text fill="#000000" font-family="Verdana" font-size="13" lengthAdjust="spacing" textLength="87.3628" x="680" y="163.3287">external data</text></g><!--link users to ingestion--><g class="link" data-entity-1="users" data-entity-2="ingestion" data-source-line="43" data-uid="lnk25" id="link_users_ingestion"><path d="M820.89,120.7218 C810.43,137.4218 795.18,156.7418 776,167.2618 C760.53,175.7518 709.95,163.2818 697,175.2618 C692.9113,179.0493 689.5563,183.4233 686.8163,188.1823 C686.4738,188.7771 686.141,189.378 685.8175,189.9845 C685.6557,190.2878 688.2364,185.2547 688.0793,185.5607" fill="none" id="users-to-ingestion" style="stroke:#000000;stroke-width:1;"/><polygon fill="#000000" points="685.3392,190.8984,693.0079,184.7185,687.6227,186.4503,685.8909,181.065,685.3392,190.8984" style="stroke:#000000;stroke-width:1;"/><text fill="#000000" font-family="Verdana" font-size="13" lengthAdjust="spacing" textLength="71.6587" x="798.08" y="163.3287">commands</text></g><!--link ingestion to processing--><g class="link" data-entity-1="ingestion" data-entity-2="processing" data-source-line="45" data-uid="lnk26" id="link_ingestion_processing"><path d="M679,327.7511 C679,328.0634 679,328.3766 679,328.6905 C679,331.2021 679,333.7643 679,336.367 C679,346.778 679,357.8371 679,368.8955 C679,374.4248 679,379.9538 679,385.4015 C679,386.7635 679,388.1203 679,389.4709 C679,390.1461 679,384.8198 679,385.4917" fill="none" id="ingestion-to-processing" style="stroke:#000000;stroke-width:1;"/><polygon fill="#000000" points="679,391.4917,683,382.4917,679,386.4917,675,382.4917,679,391.4917" style="stroke:#000000;stroke-width:1;"/><text fill="#000000" font-family="Verdana" font-size="13" lengthAdjust="spacing" textLength="115.4639" x="680" y="363.9287">structured events</text></g><!--link processing to storage--><g class="link" data-entity-1="processing" data-entity-2="storage" data-source-line="46" data-uid="lnk27" id="link_processing_storage"><path d="M671.1688,511.536 C671.1195,511.64 671.0698,511.7438 671.0199,511.8474 C670.92,512.0547 670.8189,512.2613 670.7166,512.4673 C670.3074,513.2911 669.879,514.1039 669.4305,514.9038 C668.5336,516.5035 667.5563,518.0511 666.4916,519.5303 C664.3623,522.4887 661.8838,525.173 659,527.4518 C637.34,544.5818 553.89,515.3118 535,535.4518 C529.5825,541.2293 527.0131,552.9324 526.2181,567.2948 C526.1187,569.09 526.0471,570.9269 526.0011,572.7989 C525.9781,573.7349 525.9615,574.6797 525.951,575.6325 C525.9484,575.8707 525.9926,570.1096 525.9907,570.3488" fill="none" id="processing-to-storage" style="stroke:#000000;stroke-width:1;"/><polygon fill="#000000" points="525.9443,576.3486,530.0138,567.3798,525.983,571.3487,522.0141,567.3179,525.9443,576.3486" style="stroke:#000000;stroke-width:1;"/><text fill="#000000" font-family="Verdana" font-size="13" lengthAdjust="spacing" textLength="99.9058" x="536" y="548.5187">processed data</text></g><!--link storage to processing--><g class="link" data-entity-1="storage" data-entity-2="processing" data-source-line="47" data-uid="lnk28" id="link_storage_processing"><path d="M546.0587,641.7792 C546.9139,638.7847 547.8517,635.6957 548.8788,632.543 C557.095,607.3218 571.02,578.0268 594,560.4518 C610.48,547.8518 622.27,563.2418 640,552.4518 C651.92,545.2018 652.64,539.8718 659,527.4518 C660.6763,524.1805 662.2398,520.7441 663.6935,517.2305 C664.4203,515.4737 665.1196,513.6976 665.7918,511.9132 C665.8338,511.8017 663.771,517.3089 663.8128,517.1973" fill="none" id="storage-to-processing" style="stroke:#000000;stroke-width:1;"/><polygon fill="#000000" points="665.9175,511.5786,659.0146,518.6036,664.1636,516.2609,666.5063,521.4098,665.9175,511.5786" style="stroke:#000000;stroke-width:1;"/><text fill="#000000" font-family="Verdana" font-size="13" lengthAdjust="spacing" textLength="81.6309" x="655.89" y="548.5187">data queries</text></g><!--link processing to output--><g class="link" data-entity-1="processing" data-entity-2="output" data-source-line="48" data-uid="lnk29" id="link_processing_output"><path d="M685.9325,511.6441 C685.979,511.7487 686.0258,511.8533 686.0729,511.9576 C686.4496,512.7927 686.8448,513.6184 687.2593,514.4328 C688.0885,516.0616 688.995,517.6452 689.986,519.1682 C691.968,522.214 694.2875,525.0168 697,527.4518 C705.21,534.8318 735.12,533.6018 746,535.4518 C808.74,546.1418 842.41,515.0418 887,560.4518 C896.295,569.9193 902.1656,581.9824 905.7344,594.7902 C906.6266,597.9922 907.3749,601.2407 907.9969,604.5068 C908.3079,606.1398 908.5873,607.7773 908.8373,609.4156 C908.9623,610.2347 908.2771,605.108 908.3877,605.927" fill="none" id="processing-to-output" style="stroke:#000000;stroke-width:1;"/><polygon fill="#000000" points="909.1906,611.8731,911.9504,602.4188,908.5215,606.9181,904.0223,603.4892,909.1906,611.8731" style="stroke:#000000;stroke-width:1;"/><text fill="#000000" font-family="Verdana" font-size="13" lengthAdjust="spacing" textLength="43.8369" x="877.49" y="548.5187">results</text></g><!--link kafka to GMN30--><g class="link" data-entity-1="kafka" data-entity-2="GMN30" data-source-line="50" data-uid="lnk32" id="link_kafka_GMN30"><path d="M428.21,249.9518 C441.73,218.9118 468.86,169.1318 510.5,147.7618 C576.54,113.8918 610.06,116.7718 677.5,147.7618 C726.22,170.1618 761.52,225.8118 777.85,256.1118" fill="none" id="kafka-GMN30" style="stroke:#000000;stroke-width:1;stroke-dasharray:7,7;"/></g><!--link agents to GMN33--><g class="link" data-entity-1="agents" data-entity-2="GMN33" data-source-line="51" data-uid="lnk35" id="link_agents_GMN33"><path d="M94.58,434.5918 C107.41,409.1518 130.83,372.7318 164.5,359.3618 C217.48,338.3218 624.52,338.3218 677.5,359.3618 C715.34,374.3818 742.91,415.5918 756.81,440.7318" fill="none" id="agents-GMN33" style="stroke:#000000;stroke-width:1;stroke-dasharray:7,7;"/></g><!--link flows to GMN36--><g class="link" data-entity-1="flows" data-entity-2="GMN36" data-source-line="52" data-uid="lnk38" id="link_flows_GMN36"><path d="M249.03,434.7218 C266.87,409.7818 297.44,374.0818 334.5,359.3618 C384.58,339.4718 769.26,339.8718 819.5,359.3618 C861.53,375.6618 897.42,416.0118 916.44,440.7318" fill="none" id="flows-GMN36" style="stroke:#000000;stroke-width:1;stroke-dasharray:7,7;"/></g><!--link ml to GMN39--><g class="link" data-entity-1="ml" data-entity-2="GMN39" data-source-line="53" data-uid="lnk41" id="link_ml_GMN39"><path d="M419.03,434.7218 C436.87,409.7818 467.44,374.0818 504.5,359.3618 C556.44,338.7318 955.56,338.7318 1007.5,359.3618 C1046.46,374.8318 1076.38,415.8818 1091.68,440.8718" fill="none" id="ml-GMN39" style="stroke:#000000;stroke-width:1;stroke-dasharray:7,7;"/></g><!--SRC=[PLLDZzem4BtdLqofj6fL8TgUgZrKoa9OeS924tPxuMAIIR1mRDPss5rL_UyTsm52zWOpxta-t-I3tM6DS12CoyZikJmmpMhOidnVQTN8Ogo4ql2n_5h-ACieijmAX2Tk6YRkDIycU8JCDWLNC8G9imocGhr0hFCTjvZRHZiqlaJHXm9BBX4cyJhEbe_fE85SgAOuErRfSfnasJ85JKGcAu5dNxPUfl5z0WL5s3BJTQH9l83d1XkCeixRWvbQGuRIA6qsyWOeKPwZ6G0pm9MzWYQl5hLa0kBLp8Cpr1SqEt1p1Nyqg64c3utruB6gQoQB06x8PwAeJMkG755QmbPeB5To8-Vi3NL8ucI4ln5qYX_41vRl47wnSiysChCQMKrWJzexupLyWSQm2Y5L3LNX4ffoOTiWsXkZVr7KOQoqejeClGcNT0uNOp-V6SGLbK75Veg_nwF5UFKvDCPRhy4Fgi1Xcapy6ZX6M1MOguhdWLOwJw-6EVMeH8qoH-AitknEoT6K6KiJ2QnQN5D2No2ciRrPdllaGkEcWijzc-79wpfmsg61NzFCAaq5T2TYWidNVmPdl-UqoCDuHW6IeiBmi7aMP6MyYtoYhIMfJEuSijvYKL0pJS0VlQ_OTl5hJiAZJUFeagVwHVCwkGjuIpxZNLs6JtpEzgv7vy83mGb3aAStwcLZQKqxOrR1q1jnYamCNSoDd32psogcstqkpdzxIx6QGOhceAH1hu8_kDqfjGyiVVBqI0ArDN2paG_AyfBdpEr_gpBlkyRxUfFNWz91QIdwdnwFmUpg9Jd3SFYpewXRC5xvlYsH4_0x09uqxo5UjkymUQji2d6sEan7AnJ9wiRVkGBmw0NHSJlqQQrkJpn2-g0dnxiddTUTD3__tclj06zTZnj1qIAfB8BcrSw2AiE58FUtnHUemsam8uFvHauPuOTMKQEPj3rQq3BnIE4k6Qjo9UZwe2Y7EzeE2jzZU1aJeHKuSIhwShXBjP7dVQ8sOzwunlNOjN2nPYDIFhyeVq7NGz3iwFfIlFy0]--></g></svg>