<svg xmlns="http://www.w3.org/2000/svg" xmlns:xlink="http://www.w3.org/1999/xlink" contentStyleType="text/css" data-diagram-type="DESCRIPTION" height="219px" preserveAspectRatio="none" style="width:2247px;height:219px;background:#FFFFFF;" version="1.1" viewBox="0 0 2247 219" width="2247px" zoomAndPan="magnify"><title>Event-Driven Architecture Pattern</title><defs/><g><g class="title" data-source-line="1"><text fill="#000000" font-family="sans-serif" font-size="14" font-weight="bold" lengthAdjust="spacing" textLength="270.1221" x="981.439" y="22.9951">Event-Driven Architecture Pattern</text></g><!--cluster Event Producers--><g class="cluster" data-entity="Event Producers" data-source-line="3" data-uid="ent0002" id="cluster_Event Producers"><path d="M8.5,96.5969 L139.0205,96.5969 A3.75,3.75 0 0 1 141.5205,99.0969 L148.5205,118.8937 L503.5,118.8937 A2.5,2.5 0 0 1 506,121.3937 L506,210.3969 A2.5,2.5 0 0 1 503.5,212.8969 L8.5,212.8969 A2.5,2.5 0 0 1 6,210.3969 L6,99.0969 A2.5,2.5 0 0 1 8.5,96.5969" fill="none" style="stroke:#000000;stroke-width:1.5;"/><line style="stroke:#000000;stroke-width:1.5;" x1="6" x2="148.5205" y1="118.8937" y2="118.8937"/><text fill="#000000" font-family="sans-serif" font-size="14" font-weight="bold" lengthAdjust="spacing" textLength="129.5205" x="10" y="111.592">Event Producers</text></g><!--cluster Event Backbone--><g class="cluster" data-entity="Event Backbone" data-source-line="9" data-uid="ent0006" id="cluster_Event Backbone"><path d="M617.5,96.5969 L745.0469,96.5969 A3.75,3.75 0 0 1 747.5469,99.0969 L754.5469,118.8937 L1330.5,118.8937 A2.5,2.5 0 0 1 1333,121.3937 L1333,210.3969 A2.5,2.5 0 0 1 1330.5,212.8969 L617.5,212.8969 A2.5,2.5 0 0 1 615,210.3969 L615,99.0969 A2.5,2.5 0 0 1 617.5,96.5969" fill="none" style="stroke:#000000;stroke-width:1.5;"/><line style="stroke:#000000;stroke-width:1.5;" x1="615" x2="754.5469" y1="118.8937" y2="118.8937"/><text fill="#000000" font-family="sans-serif" font-size="14" font-weight="bold" lengthAdjust="spacing" textLength="126.5469" x="619" y="111.592">Event Backbone</text></g><!--cluster Event Consumers--><g class="cluster" data-entity="Event Consumers" data-source-line="15" data-uid="ent0010" id="cluster_Event Consumers"><path d="M1536.5,96.5969 L1674.6973,96.5969 A3.75,3.75 0 0 1 1677.1973,99.0969 L1684.1973,118.8937 L2237.5,118.8937 A2.5,2.5 0 0 1 2240,121.3937 L2240,210.3969 A2.5,2.5 0 0 1 2237.5,212.8969 L1536.5,212.8969 A2.5,2.5 0 0 1 1534,210.3969 L1534,99.0969 A2.5,2.5 0 0 1 1536.5,96.5969" fill="none" style="stroke:#000000;stroke-width:1.5;"/><line style="stroke:#000000;stroke-width:1.5;" x1="1534" x2="1684.1973" y1="118.8937" y2="118.8937"/><text fill="#000000" font-family="sans-serif" font-size="14" font-weight="bold" lengthAdjust="spacing" textLength="137.1973" x="1538" y="111.592">Event Consumers</text></g><!--entity UserEvents--><g class="entity" data-entity="UserEvents" data-source-line="4" data-uid="ent0003" id="entity_UserEvents"><rect fill="#F1F1F1" height="46.2969" rx="2.5" ry="2.5" style="stroke:#181818;stroke-width:0.5;" width="127.7461" x="22.13" y="150.5969"/><rect fill="#F1F1F1" height="10" style="stroke:#181818;stroke-width:0.5;" width="15" x="129.8761" y="155.5969"/><rect fill="#F1F1F1" height="2" style="stroke:#181818;stroke-width:0.5;" width="4" x="127.8761" y="157.5969"/><rect fill="#F1F1F1" height="2" style="stroke:#181818;stroke-width:0.5;" width="4" x="127.8761" y="161.5969"/><text fill="#000000" font-family="sans-serif" font-size="14" lengthAdjust="spacing" textLength="87.7461" x="37.13" y="183.592">User Actions</text></g><!--entity SysEvents--><g class="entity" data-entity="SysEvents" data-source-line="5" data-uid="ent0004" id="entity_SysEvents"><rect fill="#F1F1F1" height="46.2969" rx="2.5" ry="2.5" style="stroke:#181818;stroke-width:0.5;" width="144.0566" x="184.97" y="150.5969"/><rect fill="#F1F1F1" height="10" style="stroke:#181818;stroke-width:0.5;" width="15" x="309.0266" y="155.5969"/><rect fill="#F1F1F1" height="2" style="stroke:#181818;stroke-width:0.5;" width="4" x="307.0266" y="157.5969"/><rect fill="#F1F1F1" height="2" style="stroke:#181818;stroke-width:0.5;" width="4" x="307.0266" y="161.5969"/><text fill="#000000" font-family="sans-serif" font-size="14" lengthAdjust="spacing" textLength="104.0566" x="199.97" y="183.592">System Events</text></g><!--entity SensorEvents--><g class="entity" data-entity="SensorEvents" data-source-line="6" data-uid="ent0005" id="entity_SensorEvents"><rect fill="#F1F1F1" height="46.2969" rx="2.5" ry="2.5" style="stroke:#181818;stroke-width:0.5;" width="125.8662" x="364.07" y="150.5969"/><rect fill="#F1F1F1" height="10" style="stroke:#181818;stroke-width:0.5;" width="15" x="469.9362" y="155.5969"/><rect fill="#F1F1F1" height="2" style="stroke:#181818;stroke-width:0.5;" width="4" x="467.9362" y="157.5969"/><rect fill="#F1F1F1" height="2" style="stroke:#181818;stroke-width:0.5;" width="4" x="467.9362" y="161.5969"/><text fill="#000000" font-family="sans-serif" font-size="14" lengthAdjust="spacing" textLength="85.8662" x="379.07" y="183.592">Sensor Data</text></g><!--entity Kafka--><g class="entity" data-entity="Kafka" data-source-line="10" data-uid="ent0007" id="entity_Kafka"><rect fill="#F1F1F1" height="46.2969" rx="2.5" ry="2.5" style="stroke:#181818;stroke-width:0.5;" width="136.0518" x="630.97" y="150.5969"/><rect fill="#F1F1F1" height="10" style="stroke:#181818;stroke-width:0.5;" width="15" x="747.0218" y="155.5969"/><rect fill="#F1F1F1" height="2" style="stroke:#181818;stroke-width:0.5;" width="4" x="745.0218" y="157.5969"/><rect fill="#F1F1F1" height="2" style="stroke:#181818;stroke-width:0.5;" width="4" x="745.0218" y="161.5969"/><text fill="#000000" font-family="sans-serif" font-size="14" lengthAdjust="spacing" textLength="96.0518" x="645.97" y="183.592">Apache Kafka</text></g><!--entity EventRouter--><g class="entity" data-entity="EventRouter" data-source-line="11" data-uid="ent0008" id="entity_EventRouter"><rect fill="#F1F1F1" height="46.2969" rx="2.5" ry="2.5" style="stroke:#181818;stroke-width:0.5;" width="131.5811" x="889.21" y="150.5969"/><rect fill="#F1F1F1" height="10" style="stroke:#181818;stroke-width:0.5;" width="15" x="1000.7911" y="155.5969"/><rect fill="#F1F1F1" height="2" style="stroke:#181818;stroke-width:0.5;" width="4" x="998.7911" y="157.5969"/><rect fill="#F1F1F1" height="2" style="stroke:#181818;stroke-width:0.5;" width="4" x="998.7911" y="161.5969"/><text fill="#000000" font-family="sans-serif" font-size="14" lengthAdjust="spacing" textLength="91.5811" x="904.21" y="183.592">Event Router</text></g><!--entity DLQ--><g class="entity" data-entity="DLQ" data-source-line="12" data-uid="ent0009" id="entity_DLQ"><rect fill="#F1F1F1" height="46.2969" rx="2.5" ry="2.5" style="stroke:#181818;stroke-width:0.5;" width="173.5127" x="1143.24" y="150.5969"/><rect fill="#F1F1F1" height="10" style="stroke:#181818;stroke-width:0.5;" width="15" x="1296.7527" y="155.5969"/><rect fill="#F1F1F1" height="2" style="stroke:#181818;stroke-width:0.5;" width="4" x="1294.7527" y="157.5969"/><rect fill="#F1F1F1" height="2" style="stroke:#181818;stroke-width:0.5;" width="4" x="1294.7527" y="161.5969"/><text fill="#000000" font-family="sans-serif" font-size="14" lengthAdjust="spacing" textLength="133.5127" x="1158.24" y="183.592">Dead Letter Queue</text></g><!--entity FlowProc--><g class="entity" data-entity="FlowProc" data-source-line="16" data-uid="ent0011" id="entity_FlowProc"><rect fill="#F1F1F1" height="46.2969" rx="2.5" ry="2.5" style="stroke:#181818;stroke-width:0.5;" width="144.3916" x="1549.8" y="150.5969"/><rect fill="#F1F1F1" height="10" style="stroke:#181818;stroke-width:0.5;" width="15" x="1674.1916" y="155.5969"/><rect fill="#F1F1F1" height="2" style="stroke:#181818;stroke-width:0.5;" width="4" x="1672.1916" y="157.5969"/><rect fill="#F1F1F1" height="2" style="stroke:#181818;stroke-width:0.5;" width="4" x="1672.1916" y="161.5969"/><text fill="#000000" font-family="sans-serif" font-size="14" lengthAdjust="spacing" textLength="104.3916" x="1564.8" y="183.592">Flow Processor</text></g><!--entity Analytics--><g class="entity" data-entity="Analytics" data-source-line="17" data-uid="ent0012" id="entity_Analytics"><rect fill="#F1F1F1" height="46.2969" rx="2.5" ry="2.5" style="stroke:#181818;stroke-width:0.5;" width="156.0059" x="1729" y="150.5969"/><rect fill="#F1F1F1" height="10" style="stroke:#181818;stroke-width:0.5;" width="15" x="1865.0059" y="155.5969"/><rect fill="#F1F1F1" height="2" style="stroke:#181818;stroke-width:0.5;" width="4" x="1863.0059" y="157.5969"/><rect fill="#F1F1F1" height="2" style="stroke:#181818;stroke-width:0.5;" width="4" x="1863.0059" y="161.5969"/><text fill="#000000" font-family="sans-serif" font-size="14" lengthAdjust="spacing" textLength="116.0059" x="1744" y="183.592">Analytics Engine</text></g><!--entity Alerts--><g class="entity" data-entity="Alerts" data-source-line="18" data-uid="ent0013" id="entity_Alerts"><rect fill="#F1F1F1" height="46.2969" rx="2.5" ry="2.5" style="stroke:#181818;stroke-width:0.5;" width="139.1416" x="1920.43" y="150.5969"/><rect fill="#F1F1F1" height="10" style="stroke:#181818;stroke-width:0.5;" width="15" x="2039.5716" y="155.5969"/><rect fill="#F1F1F1" height="2" style="stroke:#181818;stroke-width:0.5;" width="4" x="2037.5716" y="157.5969"/><rect fill="#F1F1F1" height="2" style="stroke:#181818;stroke-width:0.5;" width="4" x="2037.5716" y="161.5969"/><text fill="#000000" font-family="sans-serif" font-size="14" lengthAdjust="spacing" textLength="99.1416" x="1935.43" y="183.592">Alert Manager</text></g><!--entity Audit--><g class="entity" data-entity="Audit" data-source-line="19" data-uid="ent0014" id="entity_Audit"><rect fill="#F1F1F1" height="46.2969" rx="2.5" ry="2.5" style="stroke:#181818;stroke-width:0.5;" width="129.6738" x="2094.16" y="150.5969"/><rect fill="#F1F1F1" height="10" style="stroke:#181818;stroke-width:0.5;" width="15" x="2203.8338" y="155.5969"/><rect fill="#F1F1F1" height="2" style="stroke:#181818;stroke-width:0.5;" width="4" x="2201.8338" y="157.5969"/><rect fill="#F1F1F1" height="2" style="stroke:#181818;stroke-width:0.5;" width="4" x="2201.8338" y="161.5969"/><text fill="#000000" font-family="sans-serif" font-size="14" lengthAdjust="spacing" textLength="89.6738" x="2109.16" y="183.592">Audit Logger</text></g><!--link UserEvents to Kafka--><g class="link" data-entity-1="UserEvents" data-entity-2="Kafka" data-source-line="22" data-uid="lnk15" id="link_UserEvents_Kafka"><path d="M101.25,150.3069 C115.63,130.3169 139.12,102.6369 167,88.5969 C205.85,69.0369 464,79.5669 506,88.5969 C561.68,100.5669 615.6588,126.5325 653.5988,147.3325" fill="none" id="UserEvents-to-Kafka" style="stroke:#181818;stroke-width:1;"/><polygon fill="#181818" points="658.86,150.2169,652.8911,142.3828,654.4757,147.8132,649.0453,149.3978,658.86,150.2169" style="stroke:#181818;stroke-width:1;"/><text fill="#000000" font-family="sans-serif" font-size="13" lengthAdjust="spacing" textLength="110.8428" x="182" y="76.6638">User interactions</text></g><!--link SysEvents to Kafka--><g class="link" data-entity-1="SysEvents" data-entity-2="Kafka" data-source-line="23" data-uid="lnk16" id="link_SysEvents_Kafka"><path d="M273.57,150.3669 C289.67,129.8169 316.16,101.2669 347,88.5969 C360.86,82.9069 521.44,83.6369 534.5,86.8769 C583.72,99.0769 629.4523,125.6518 661.3223,146.9618" fill="none" id="SysEvents-to-Kafka" style="stroke:#181818;stroke-width:1;"/><polygon fill="#181818" points="666.31,150.2969,661.0518,141.9691,662.1536,147.5177,656.605,148.6194,666.31,150.2969" style="stroke:#181818;stroke-width:1;"/><text fill="#000000" font-family="sans-serif" font-size="13" lengthAdjust="spacing" textLength="107.2246" x="426.5" y="76.6638">System changes</text></g><!--link SensorEvents to Kafka--><g class="link" data-entity-1="SensorEvents" data-entity-2="Kafka" data-source-line="24" data-uid="lnk17" id="link_SensorEvents_Kafka"><path d="M490.43,173.7469 C532.5,173.7469 581.67,173.7469 624.71,173.7469" fill="none" id="SensorEvents-to-Kafka" style="stroke:#181818;stroke-width:1;"/><polygon fill="#181818" points="630.71,173.7469,621.71,169.7469,625.71,173.7469,621.71,177.7469,630.71,173.7469" style="stroke:#181818;stroke-width:1;"/><text fill="#000000" font-family="sans-serif" font-size="13" lengthAdjust="spacing" textLength="105.1299" x="507.95" y="166.8138">Sensor readings</text></g><!--link Kafka to EventRouter--><g class="link" data-entity-1="Kafka" data-entity-2="EventRouter" data-source-line="25" data-uid="lnk18" id="link_Kafka_EventRouter"><path d="M767.27,173.7469 C805.04,173.7469 845.75,173.7469 883.13,173.7469" fill="none" id="Kafka-to-EventRouter" style="stroke:#181818;stroke-width:1;"/><polygon fill="#181818" points="889.13,173.7469,880.13,169.7469,884.13,173.7469,880.13,177.7469,889.13,173.7469" style="stroke:#181818;stroke-width:1;"/><text fill="#000000" font-family="sans-serif" font-size="13" lengthAdjust="spacing" textLength="86.252" x="785.12" y="166.8138">Route events</text></g><!--link EventRouter to FlowProc--><g class="link" data-entity-1="EventRouter" data-entity-2="FlowProc" data-source-line="26" data-uid="lnk19" id="link_EventRouter_FlowProc"><path d="M985.54,150.1069 C1015.11,128.8269 1062.16,99.0769 1108.5,86.8769 C1273.97,43.2969 1469.8712,109.3441 1563.6712,147.9341" fill="none" id="EventRouter-to-FlowProc" style="stroke:#181818;stroke-width:1;"/><polygon fill="#181818" points="1569.22,150.2169,1562.4187,143.0935,1564.596,148.3145,1559.375,150.4918,1569.22,150.2169" style="stroke:#181818;stroke-width:1;"/><text fill="#000000" font-family="sans-serif" font-size="13" lengthAdjust="spacing" textLength="87.5088" x="1109.5" y="76.6638">Process flows</text></g><!--link EventRouter to Analytics--><g class="link" data-entity-1="EventRouter" data-entity-2="Analytics" data-source-line="27" data-uid="lnk20" id="link_EventRouter_Analytics"><path d="M990.17,150.1869 C1023.51,129.3569 1075.82,100.4969 1126,88.5969 C1246.87,59.9369 1560.84,82.9169 1685,86.8769 C1697.02,87.2569 1700.91,83.9469 1712,88.5969 C1743.45,101.7969 1767.5503,125.3585 1784.8603,145.6885" fill="none" id="EventRouter-to-Analytics" style="stroke:#181818;stroke-width:1;"/><polygon fill="#181818" points="1788.75,150.2569,1785.961,140.8112,1785.5086,146.4499,1779.8698,145.9975,1788.75,150.2569" style="stroke:#181818;stroke-width:1;"/><text fill="#000000" font-family="sans-serif" font-size="13" lengthAdjust="spacing" textLength="84.6396" x="1600" y="76.6638">Analyze data</text></g><!--link EventRouter to Alerts--><g class="link" data-entity-1="EventRouter" data-entity-2="Alerts" data-source-line="28" data-uid="lnk21" id="link_EventRouter_Alerts"><path d="M965.23,150.3469 C975.81,129.3969 994.53,100.0069 1021,86.8769 C1053.65,70.6769 1066.56,86.8369 1103,86.8769 C1191.89,86.9669 1820.73,54.9369 1903,88.5969 C1933.32,101.0069 1955.2308,124.7988 1970.6308,145.4288" fill="none" id="EventRouter-to-Alerts" style="stroke:#181818;stroke-width:1;"/><polygon fill="#181818" points="1974.22,150.2369,1972.0416,140.6319,1971.229,146.2301,1965.6308,145.4175,1974.22,150.2369" style="stroke:#181818;stroke-width:1;"/><text fill="#000000" font-family="sans-serif" font-size="13" lengthAdjust="spacing" textLength="80.9136" x="1022" y="76.6638">Check alerts</text></g><!--link EventRouter to Audit--><g class="link" data-entity-1="EventRouter" data-entity-2="Audit" data-source-line="29" data-uid="lnk22" id="link_EventRouter_Audit"><path d="M990.17,150.1669 C1023.5,129.3369 1075.81,100.4669 1126,88.5969 C1299.55,47.5669 1750.17,85.8369 1928.5,86.8769 C1994.5,87.2569 2016.41,62.4169 2077,88.5969 C2106.2,101.2169 2126.6708,124.8534 2140.9908,145.4134" fill="none" id="EventRouter-to-Audit" style="stroke:#181818;stroke-width:1;"/><polygon fill="#181818" points="2144.42,150.3369,2142.5585,140.6655,2141.5623,146.234,2135.9939,145.2378,2144.42,150.3369" style="stroke:#181818;stroke-width:1;"/><text fill="#000000" font-family="sans-serif" font-size="13" lengthAdjust="spacing" textLength="71.3794" x="1856.5" y="76.6638">Log events</text></g><!--link EventRouter to DLQ--><g class="link" data-entity-1="EventRouter" data-entity-2="DLQ" data-source-line="30" data-uid="lnk23" id="link_EventRouter_DLQ"><path d="M1021.22,173.7469 C1057.69,173.7469 1097.42,173.7469 1136.77,173.7469" fill="none" id="EventRouter-to-DLQ" style="stroke:#181818;stroke-width:1;"/><polygon fill="#181818" points="1142.77,173.7469,1133.77,169.7469,1137.77,173.7469,1133.77,177.7469,1142.77,173.7469" style="stroke:#181818;stroke-width:1;"/><text fill="#000000" font-family="sans-serif" font-size="13" lengthAdjust="spacing" textLength="86.8486" x="1039.02" y="166.8138">Failed events</text></g><!--SRC=[TP9DJiCm48NtESMe-ruW2wJIq0r5Qa4SO72cYTN4hlm3AeYxC_Qq8KhQR68_VxPdtdFGeIDu-YGJbfNJ_8ULKwqEf49q13iCWPmfYXEg8pO4Yyp2pjawAd9-0Jy5yATiVx8cBItUFJbOgQ2juMNqa8IypK_HjxCFrClzmh9o1oNZhOCA0mgOvnVsTrRW8qy_UEkD-bQCjWJFU3ZAKNaqfUIOLnkv_qnbGUPJjYAiOKl9AjX7YfGtLDlzZSBMx4hiRpktwUnNibQHvzxo8KbAogm9WzqvQCLrcKORkN4GPtH7Bi0B6Yv4pitAd8kr3h2rpO0b8NNndo4i7yInCWSBsd3RA74NGtmZwXAoQj4qnCWek34b-JgsKfl65rbEwoFVIya3I58VhIJmQbLvjH0EhCommQHIXjy4DJ-g6PODAc7TaZe2YbrJ9hbJ9h_kbCHFe8GDwexgA_47]--></g></svg>