<svg xmlns="http://www.w3.org/2000/svg" xmlns:xlink="http://www.w3.org/1999/xlink" contentStyleType="text/css" data-diagram-type="ACTIVITY" height="903px" preserveAspectRatio="none" style="width:679px;height:903px;background:#FFFFFF;" version="1.1" viewBox="0 0 679 903" width="679px" zoomAndPan="magnify"><title>Self-Healing Activity</title><defs/><g><g class="title" data-source-line="1"><text fill="#000000" font-family="sans-serif" font-size="14" font-weight="bold" lengthAdjust="spacing" textLength="161.7656" x="257.4548" y="32.9951">Self-Healing Activity</text></g><ellipse cx="322.3376" cy="57.2969" fill="#222222" rx="10" ry="10" style="stroke:#222222;stroke-width:1;"/><rect fill="#F1F1F1" height="33.9688" rx="12.5" ry="12.5" style="stroke:#181818;stroke-width:0.5;" width="161.5215" x="241.5769" y="87.2969"/><text fill="#000000" font-family="sans-serif" font-size="12" lengthAdjust="spacing" textLength="141.5215" x="251.5769" y="108.4355">Monitor system metrics</text><rect fill="#F1F1F1" height="33.9688" rx="12.5" ry="12.5" style="stroke:#181818;stroke-width:0.5;" width="139.9297" x="252.3728" y="141.2656"/><text fill="#000000" font-family="sans-serif" font-size="12" lengthAdjust="spacing" textLength="119.9297" x="262.3728" y="162.4043">Analyze health data</text><rect fill="#F1F1F1" height="33.9688" rx="12.5" ry="12.5" style="stroke:#181818;stroke-width:0.5;" width="152.4453" x="246.115" y="243.6367"/><text fill="#000000" font-family="sans-serif" font-size="12" lengthAdjust="spacing" textLength="132.4453" x="256.115" y="264.7754">Classify anomaly type</text><polygon fill="#F1F1F1" points="49.4182,297.6055,106.4001,297.6055,118.4001,309.6055,106.4001,321.6055,49.4182,321.6055,37.4182,309.6055,49.4182,297.6055" style="stroke:#181818;stroke-width:0.5;"/><text fill="#000000" font-family="sans-serif" font-size="11" lengthAdjust="spacing" textLength="19.0083" x="81.9092" y="331.8159">yes</text><text fill="#000000" font-family="sans-serif" font-size="11" lengthAdjust="spacing" textLength="56.9819" x="49.4182" y="313.4136">High CPU?</text><rect fill="#F1F1F1" height="33.9688" rx="12.5" ry="12.5" style="stroke:#181818;stroke-width:0.5;" width="133.8184" x="11" y="354.4102"/><text fill="#000000" font-family="sans-serif" font-size="12" lengthAdjust="spacing" textLength="113.8184" x="21" y="375.5488">Scale up resources</text><polygon fill="#F1F1F1" points="192.9431,297.6055,280.4651,297.6055,292.4651,309.6055,280.4651,321.6055,192.9431,321.6055,180.9431,309.6055,192.9431,297.6055" style="stroke:#181818;stroke-width:0.5;"/><text fill="#000000" font-family="sans-serif" font-size="11" lengthAdjust="spacing" textLength="19.0083" x="240.7041" y="331.8159">yes</text><text fill="#000000" font-family="sans-serif" font-size="11" lengthAdjust="spacing" textLength="87.522" x="192.9431" y="313.4136">High error rate?</text><rect fill="#F1F1F1" height="33.9688" rx="12.5" ry="12.5" style="stroke:#181818;stroke-width:0.5;" width="163.7715" x="154.8184" y="354.4102"/><text fill="#000000" font-family="sans-serif" font-size="12" lengthAdjust="spacing" textLength="143.7715" x="164.8184" y="375.5488">Restart affected service</text><polygon fill="#F1F1F1" points="350.5898,297.6055,452.5386,297.6055,464.5386,309.6055,452.5386,321.6055,350.5898,321.6055,338.5898,309.6055,350.5898,297.6055" style="stroke:#181818;stroke-width:0.5;"/><text fill="#000000" font-family="sans-serif" font-size="11" lengthAdjust="spacing" textLength="19.0083" x="405.5642" y="331.8159">yes</text><text fill="#000000" font-family="sans-serif" font-size="11" lengthAdjust="spacing" textLength="101.9487" x="350.5898" y="313.4136">Network partition?</text><text fill="#000000" font-family="sans-serif" font-size="11" lengthAdjust="spacing" textLength="31.2329" x="464.5386" y="307.0112">Other</text><rect fill="#F1F1F1" height="33.9688" rx="12.5" ry="12.5" style="stroke:#181818;stroke-width:0.5;" width="111.9688" x="345.5798" y="354.4102"/><text fill="#000000" font-family="sans-serif" font-size="12" lengthAdjust="spacing" textLength="91.9688" x="355.5798" y="375.5488">Trigger failover</text><rect fill="#F1F1F1" height="33.9688" rx="12.5" ry="12.5" style="stroke:#181818;stroke-width:0.5;" width="159.1367" x="484.5386" y="351.0078"/><text fill="#000000" font-family="sans-serif" font-size="12" lengthAdjust="spacing" textLength="139.1367" x="494.5386" y="372.1465">Apply generic recovery</text><rect fill="#F1F1F1" height="33.9688" rx="12.5" ry="12.5" style="stroke:#181818;stroke-width:0.5;" width="165.6992" x="239.488" y="428.3789"/><text fill="#000000" font-family="sans-serif" font-size="12" lengthAdjust="spacing" textLength="145.6992" x="249.488" y="449.5176">Execute recovery action</text><rect fill="#F1F1F1" height="33.9688" rx="12.5" ry="12.5" style="stroke:#181818;stroke-width:0.5;" width="178.3496" x="233.1628" y="489.3477"/><text fill="#000000" font-family="sans-serif" font-size="12" lengthAdjust="spacing" textLength="158.3496" x="243.1628" y="510.4863">Monitor recovery progress</text><rect fill="#F1F1F1" height="33.9688" rx="12.5" ry="12.5" style="stroke:#181818;stroke-width:0.5;" width="212.0293" x="216.323" y="591.7188"/><text fill="#000000" font-family="sans-serif" font-size="12" lengthAdjust="spacing" textLength="192.0293" x="226.323" y="612.8574">Escalate to manual intervention</text><ellipse cx="322.3376" cy="665.2031" fill="none" rx="11" ry="11" style="stroke:#222222;stroke-width:1;"/><ellipse cx="322.3376" cy="665.2031" fill="#222222" rx="6" ry="6" style="stroke:#222222;stroke-width:1;"/><polygon fill="#F1F1F1" points="263.457,543.3164,381.2183,543.3164,393.2183,555.3164,381.2183,567.3164,263.457,567.3164,251.457,555.3164,263.457,543.3164" style="stroke:#181818;stroke-width:0.5;"/><text fill="#000000" font-family="sans-serif" font-size="11" lengthAdjust="spacing" textLength="13.7017" x="326.3376" y="577.5269">no</text><text fill="#000000" font-family="sans-serif" font-size="11" lengthAdjust="spacing" textLength="117.7612" x="263.457" y="559.1245">Recovery successful?</text><rect fill="#F1F1F1" height="33.9688" rx="12.5" ry="12.5" style="stroke:#181818;stroke-width:0.5;" width="164.7383" x="239.9685" y="718.2031"/><text fill="#000000" font-family="sans-serif" font-size="12" lengthAdjust="spacing" textLength="144.7383" x="249.9685" y="739.3418">Update knowledge base</text><polygon fill="#F1F1F1" points="269.0752,195.2344,375.6001,195.2344,387.6001,207.2344,375.6001,219.2344,269.0752,219.2344,257.0752,207.2344,269.0752,195.2344" style="stroke:#181818;stroke-width:0.5;"/><text fill="#000000" font-family="sans-serif" font-size="11" lengthAdjust="spacing" textLength="19.0083" x="326.3376" y="229.4448">yes</text><text fill="#000000" font-family="sans-serif" font-size="11" lengthAdjust="spacing" textLength="106.5249" x="269.0752" y="211.0425">Anomaly detected?</text><polygon fill="#F1F1F1" points="322.3376,772.1719,334.3376,784.1719,322.3376,796.1719,310.3376,784.1719,322.3376,772.1719" style="stroke:#181818;stroke-width:0.5;"/><rect fill="#F1F1F1" height="33.9688" rx="12.5" ry="12.5" style="stroke:#181818;stroke-width:0.5;" width="143.2813" x="250.697" y="816.1719"/><text fill="#000000" font-family="sans-serif" font-size="12" lengthAdjust="spacing" textLength="123.2813" x="260.697" y="837.3105">Continue monitoring</text><ellipse cx="322.3376" cy="881.1406" fill="none" rx="11" ry="11" style="stroke:#222222;stroke-width:1;"/><ellipse cx="322.3376" cy="881.1406" fill="#222222" rx="6" ry="6" style="stroke:#222222;stroke-width:1;"/><line style="stroke:#181818;stroke-width:1;" x1="322.3376" x2="322.3376" y1="67.2969" y2="87.2969"/><polygon fill="#181818" points="318.3376,77.2969,322.3376,87.2969,326.3376,77.2969,322.3376,81.2969" style="stroke:#181818;stroke-width:1;"/><line style="stroke:#181818;stroke-width:1;" x1="322.3376" x2="322.3376" y1="121.2656" y2="141.2656"/><polygon fill="#181818" points="318.3376,131.2656,322.3376,141.2656,326.3376,131.2656,322.3376,135.2656" style="stroke:#181818;stroke-width:1;"/><line style="stroke:#181818;stroke-width:1;" x1="77.9092" x2="77.9092" y1="321.6055" y2="354.4102"/><polygon fill="#181818" points="73.9092,344.4102,77.9092,354.4102,81.9092,344.4102,77.9092,348.4102" style="stroke:#181818;stroke-width:1;"/><line style="stroke:#181818;stroke-width:1;" x1="77.9092" x2="77.9092" y1="388.3789" y2="408.3789"/><polygon fill="#181818" points="73.9092,398.3789,77.9092,408.3789,81.9092,398.3789,77.9092,402.3789" style="stroke:#181818;stroke-width:1;"/><line style="stroke:#181818;stroke-width:1;" x1="236.7041" x2="236.7041" y1="321.6055" y2="354.4102"/><polygon fill="#181818" points="232.7041,344.4102,236.7041,354.4102,240.7041,344.4102,236.7041,348.4102" style="stroke:#181818;stroke-width:1;"/><line style="stroke:#181818;stroke-width:1;" x1="236.7041" x2="236.7041" y1="388.3789" y2="408.3789"/><polygon fill="#181818" points="232.7041,398.3789,236.7041,408.3789,240.7041,398.3789,236.7041,402.3789" style="stroke:#181818;stroke-width:1;"/><line style="stroke:#181818;stroke-width:1;" x1="401.5642" x2="401.5642" y1="321.6055" y2="354.4102"/><polygon fill="#181818" points="397.5642,344.4102,401.5642,354.4102,405.5642,344.4102,401.5642,348.4102" style="stroke:#181818;stroke-width:1;"/><line style="stroke:#181818;stroke-width:1;" x1="401.5642" x2="401.5642" y1="388.3789" y2="408.3789"/><polygon fill="#181818" points="397.5642,398.3789,401.5642,408.3789,405.5642,398.3789,401.5642,402.3789" style="stroke:#181818;stroke-width:1;"/><line style="stroke:#181818;stroke-width:1;" x1="118.4001" x2="180.9431" y1="309.6055" y2="309.6055"/><polygon fill="#181818" points="170.9431,305.6055,180.9431,309.6055,170.9431,313.6055,174.9431,309.6055" style="stroke:#181818;stroke-width:1;"/><line style="stroke:#181818;stroke-width:1;" x1="292.4651" x2="338.5898" y1="309.6055" y2="309.6055"/><polygon fill="#181818" points="328.5898,305.6055,338.5898,309.6055,328.5898,313.6055,332.5898,309.6055" style="stroke:#181818;stroke-width:1;"/><line style="stroke:#181818;stroke-width:1;" x1="322.3376" x2="322.3376" y1="277.6055" y2="282.6055"/><line style="stroke:#181818;stroke-width:1;" x1="322.3376" x2="77.9092" y1="282.6055" y2="282.6055"/><line style="stroke:#181818;stroke-width:1;" x1="77.9092" x2="77.9092" y1="282.6055" y2="297.6055"/><polygon fill="#181818" points="73.9092,287.6055,77.9092,297.6055,81.9092,287.6055,77.9092,291.6055" style="stroke:#181818;stroke-width:1;"/><line style="stroke:#181818;stroke-width:1;" x1="464.5386" x2="564.1069" y1="309.6055" y2="309.6055"/><line style="stroke:#181818;stroke-width:1;" x1="564.1069" x2="564.1069" y1="309.6055" y2="351.0078"/><polygon fill="#181818" points="560.1069,341.0078,564.1069,351.0078,568.1069,341.0078,564.1069,345.0078" style="stroke:#181818;stroke-width:1;"/><line style="stroke:#181818;stroke-width:1;" x1="564.1069" x2="564.1069" y1="384.9766" y2="408.3789"/><polygon fill="#181818" points="560.1069,398.3789,564.1069,408.3789,568.1069,398.3789,564.1069,402.3789" style="stroke:#181818;stroke-width:1;"/><line style="stroke:#181818;stroke-width:1;" x1="77.9092" x2="564.1069" y1="408.3789" y2="408.3789"/><line style="stroke:#181818;stroke-width:1;" x1="322.3376" x2="322.3376" y1="408.3789" y2="428.3789"/><polygon fill="#181818" points="318.3376,418.3789,322.3376,428.3789,326.3376,418.3789,322.3376,422.3789" style="stroke:#181818;stroke-width:1;"/><line style="stroke:#181818;stroke-width:1;" x1="322.3376" x2="322.3376" y1="462.3477" y2="489.3477"/><polygon fill="#181818" points="318.3376,479.3477,322.3376,489.3477,326.3376,479.3477,322.3376,483.3477" style="stroke:#181818;stroke-width:1;"/><line style="stroke:#181818;stroke-width:1;" x1="322.3376" x2="322.3376" y1="625.6875" y2="654.2031"/><polygon fill="#181818" points="318.3376,644.2031,322.3376,654.2031,326.3376,644.2031,322.3376,648.2031" style="stroke:#181818;stroke-width:1;"/><line style="stroke:#181818;stroke-width:1;" x1="322.3376" x2="322.3376" y1="567.3164" y2="591.7188"/><polygon fill="#181818" points="318.3376,581.7188,322.3376,591.7188,326.3376,581.7188,322.3376,585.7188" style="stroke:#181818;stroke-width:1;"/><line style="stroke:#181818;stroke-width:1;" x1="393.2183" x2="438.3523" y1="555.3164" y2="555.3164"/><polygon fill="#181818" points="434.3523,624.2031,438.3523,634.2031,442.3523,624.2031,438.3523,628.2031" style="stroke:#181818;stroke-width:1;"/><line style="stroke:#181818;stroke-width:1;" x1="438.3523" x2="438.3523" y1="555.3164" y2="698.2031"/><line style="stroke:#181818;stroke-width:1;" x1="438.3523" x2="322.3376" y1="698.2031" y2="698.2031"/><line style="stroke:#181818;stroke-width:1;" x1="322.3376" x2="322.3376" y1="698.2031" y2="718.2031"/><polygon fill="#181818" points="318.3376,708.2031,322.3376,718.2031,326.3376,708.2031,322.3376,712.2031" style="stroke:#181818;stroke-width:1;"/><line style="stroke:#181818;stroke-width:1;" x1="322.3376" x2="322.3376" y1="523.3164" y2="543.3164"/><polygon fill="#181818" points="318.3376,533.3164,322.3376,543.3164,326.3376,533.3164,322.3376,537.3164" style="stroke:#181818;stroke-width:1;"/><line style="stroke:#181818;stroke-width:1;" x1="322.3376" x2="322.3376" y1="219.2344" y2="243.6367"/><polygon fill="#181818" points="318.3376,233.6367,322.3376,243.6367,326.3376,233.6367,322.3376,237.6367" style="stroke:#181818;stroke-width:1;"/><line style="stroke:#181818;stroke-width:1;" x1="387.6001" x2="653.6753" y1="207.2344" y2="207.2344"/><polygon fill="#181818" points="649.6753,459.3477,653.6753,469.3477,657.6753,459.3477,653.6753,463.3477" style="stroke:#181818;stroke-width:1;"/><line style="stroke:#181818;stroke-width:1;" x1="653.6753" x2="653.6753" y1="207.2344" y2="784.1719"/><line style="stroke:#181818;stroke-width:1;" x1="653.6753" x2="334.3376" y1="784.1719" y2="784.1719"/><polygon fill="#181818" points="344.3376,780.1719,334.3376,784.1719,344.3376,788.1719,340.3376,784.1719" style="stroke:#181818;stroke-width:1;"/><line style="stroke:#181818;stroke-width:1;" x1="322.3376" x2="322.3376" y1="752.1719" y2="772.1719"/><polygon fill="#181818" points="318.3376,762.1719,322.3376,772.1719,326.3376,762.1719,322.3376,766.1719" style="stroke:#181818;stroke-width:1;"/><line style="stroke:#181818;stroke-width:1;" x1="322.3376" x2="322.3376" y1="175.2344" y2="195.2344"/><polygon fill="#181818" points="318.3376,185.2344,322.3376,195.2344,326.3376,185.2344,322.3376,189.2344" style="stroke:#181818;stroke-width:1;"/><line style="stroke:#181818;stroke-width:1;" x1="322.3376" x2="322.3376" y1="796.1719" y2="816.1719"/><polygon fill="#181818" points="318.3376,806.1719,322.3376,816.1719,326.3376,806.1719,322.3376,810.1719" style="stroke:#181818;stroke-width:1;"/><line style="stroke:#181818;stroke-width:1;" x1="322.3376" x2="322.3376" y1="850.1406" y2="870.1406"/><polygon fill="#181818" points="318.3376,860.1406,322.3376,870.1406,326.3376,860.1406,322.3376,864.1406" style="stroke:#181818;stroke-width:1;"/><!--SRC=[TP9DReCm48Ntd6AMoQ8NW4M5eaZPz4T9Sm3NZ65KOoFFa9IUlWEa96qLR-UzvpUVBIGUuO3UFUpGU0erb5ReH39a6Oj9akLFCP3413omO0ijIYBBHPQNmVZX2w5HfpHG6J55HWvMPOYjZg12GIjOFQv16Wom6f3N6UZ9Dzumanl0NBGoT5XCip5XHtK3czVZV-VaFbYZjViE4dBiaqMUhUWP5pkcfAsJ4RoJiiTfGp3EJJM1CPt8uk-iPvHpJ1_GgPI4OhYJzfQehZ61C-JZ2TCr1LOlQaWtshBhTEKQ0ofANSAEXk7Y21Mv6TBs4sqlk0Z0sB70h5lUPPbsATOAXAyOzpyZxgr2OjVxfNs8DuMsh4IL54Y4reJUUA0WYWF3zSRniCJkRyrZLutMZn3F7giQuTsmGfmL-IPgHEWHshcl_h4YcsA-0G00]--></g></svg>