<svg xmlns="http://www.w3.org/2000/svg" xmlns:xlink="http://www.w3.org/1999/xlink" contentStyleType="text/css" data-diagram-type="SEQUENCE" height="495px" preserveAspectRatio="none" style="width:985px;height:495px;background:#FFFFFF;" version="1.1" viewBox="0 0 985 495" width="985px" zoomAndPan="magnify"><title>Performance Monitoring and Optimization</title><defs/><g><text fill="#000000" font-family="sans-serif" font-size="14" font-weight="bold" lengthAdjust="spacing" textLength="332.917" x="324.8738" y="27.9951">Performance Monitoring and Optimization</text><rect fill="none" height="252.1953" style="stroke:#000000;stroke-width:1.5;" width="834.7617" x="10" y="90.5938"/><rect fill="none" height="133.6641" style="stroke:#000000;stroke-width:1.5;" width="814.7617" x="20" y="202.125"/><g><title>Application</title><rect fill="#000000" fill-opacity="0.00000" height="386.7266" width="8" x="72.1118" y="73.5938"/><line style="stroke:#181818;stroke-width:0.5;stroke-dasharray:5,5;" x1="76" x2="76" y1="73.5938" y2="460.3203"/></g><g><title>Metrics Collector</title><rect fill="#000000" fill-opacity="0.00000" height="386.7266" width="8" x="193.9785" y="73.5938"/><line style="stroke:#181818;stroke-width:0.5;stroke-dasharray:5,5;" x1="197.2236" x2="197.2236" y1="73.5938" y2="460.3203"/></g><g><title>Time Series DB</title><rect fill="#000000" fill-opacity="0.00000" height="386.7266" width="8" x="330.2485" y="73.5938"/><line style="stroke:#181818;stroke-width:0.5;stroke-dasharray:5,5;" x1="333.7334" x2="333.7334" y1="73.5938" y2="460.3203"/></g><g><title>Alert Manager</title><rect fill="#000000" fill-opacity="0.00000" height="386.7266" width="8" x="466.6528" y="73.5938"/><line style="stroke:#181818;stroke-width:0.5;stroke-dasharray:5,5;" x1="470.082" x2="470.082" y1="73.5938" y2="460.3203"/></g><g><title>Auto Scaler</title><rect fill="#000000" fill-opacity="0.00000" height="386.7266" width="8" x="587.1309" y="73.5938"/><line style="stroke:#181818;stroke-width:0.5;stroke-dasharray:5,5;" x1="590.9424" x2="590.9424" y1="73.5938" y2="460.3203"/></g><g><title>Performance Optimizer</title><rect fill="#000000" fill-opacity="0.00000" height="386.7266" width="8" x="732.5405" y="73.5938"/><line style="stroke:#181818;stroke-width:0.5;stroke-dasharray:5,5;" x1="736.3193" x2="736.3193" y1="73.5938" y2="460.3203"/></g><g class="participant participant-head" data-participant="App"><rect fill="#E2E2F0" height="30.2969" rx="2.5" ry="2.5" style="stroke:#181818;stroke-width:0.5;" width="92.2236" x="30" y="42.2969"/><text fill="#000000" font-family="sans-serif" font-size="14" lengthAdjust="spacing" textLength="78.2236" x="37" y="62.292">Application</text></g><g class="participant participant-tail" data-participant="App"><rect fill="#E2E2F0" height="30.2969" rx="2.5" ry="2.5" style="stroke:#181818;stroke-width:0.5;" width="92.2236" x="30" y="459.3203"/><text fill="#000000" font-family="sans-serif" font-size="14" lengthAdjust="spacing" textLength="78.2236" x="37" y="479.3154">Application</text></g><g class="participant participant-head" data-participant="Collector"><rect fill="#E2E2F0" height="30.2969" rx="2.5" ry="2.5" style="stroke:#181818;stroke-width:0.5;" width="131.5098" x="132.2236" y="42.2969"/><text fill="#000000" font-family="sans-serif" font-size="14" lengthAdjust="spacing" textLength="117.5098" x="139.2236" y="62.292">Metrics Collector</text></g><g class="participant participant-tail" data-participant="Collector"><rect fill="#E2E2F0" height="30.2969" rx="2.5" ry="2.5" style="stroke:#181818;stroke-width:0.5;" width="131.5098" x="132.2236" y="459.3203"/><text fill="#000000" font-family="sans-serif" font-size="14" lengthAdjust="spacing" textLength="117.5098" x="139.2236" y="479.3154">Metrics Collector</text></g><g class="participant participant-head" data-participant="TSDB"><rect fill="#E2E2F0" height="30.2969" rx="2.5" ry="2.5" style="stroke:#181818;stroke-width:0.5;" width="121.0303" x="273.7334" y="42.2969"/><text fill="#000000" font-family="sans-serif" font-size="14" lengthAdjust="spacing" textLength="107.0303" x="280.7334" y="62.292">Time Series DB</text></g><g class="participant participant-tail" data-participant="TSDB"><rect fill="#E2E2F0" height="30.2969" rx="2.5" ry="2.5" style="stroke:#181818;stroke-width:0.5;" width="121.0303" x="273.7334" y="459.3203"/><text fill="#000000" font-family="sans-serif" font-size="14" lengthAdjust="spacing" textLength="107.0303" x="280.7334" y="479.3154">Time Series DB</text></g><g class="participant participant-head" data-participant="AlertMgr"><rect fill="#E2E2F0" height="30.2969" rx="2.5" ry="2.5" style="stroke:#181818;stroke-width:0.5;" width="113.1416" x="414.082" y="42.2969"/><text fill="#000000" font-family="sans-serif" font-size="14" lengthAdjust="spacing" textLength="99.1416" x="421.082" y="62.292">Alert Manager</text></g><g class="participant participant-tail" data-participant="AlertMgr"><rect fill="#E2E2F0" height="30.2969" rx="2.5" ry="2.5" style="stroke:#181818;stroke-width:0.5;" width="113.1416" x="414.082" y="459.3203"/><text fill="#000000" font-family="sans-serif" font-size="14" lengthAdjust="spacing" textLength="99.1416" x="421.082" y="479.3154">Alert Manager</text></g><g class="participant participant-head" data-participant="Scaler"><rect fill="#E2E2F0" height="30.2969" rx="2.5" ry="2.5" style="stroke:#181818;stroke-width:0.5;" width="94.377" x="543.9424" y="42.2969"/><text fill="#000000" font-family="sans-serif" font-size="14" lengthAdjust="spacing" textLength="80.377" x="550.9424" y="62.292">Auto Scaler</text></g><g class="participant participant-tail" data-participant="Scaler"><rect fill="#E2E2F0" height="30.2969" rx="2.5" ry="2.5" style="stroke:#181818;stroke-width:0.5;" width="94.377" x="543.9424" y="459.3203"/><text fill="#000000" font-family="sans-serif" font-size="14" lengthAdjust="spacing" textLength="80.377" x="550.9424" y="479.3154">Auto Scaler</text></g><g class="participant participant-head" data-participant="Optimizer"><rect fill="#E2E2F0" height="30.2969" rx="2.5" ry="2.5" style="stroke:#181818;stroke-width:0.5;" width="176.4424" x="648.3193" y="42.2969"/><text fill="#000000" font-family="sans-serif" font-size="14" lengthAdjust="spacing" textLength="162.4424" x="655.3193" y="62.292">Performance Optimizer</text></g><g class="participant participant-tail" data-participant="Optimizer"><rect fill="#E2E2F0" height="30.2969" rx="2.5" ry="2.5" style="stroke:#181818;stroke-width:0.5;" width="176.4424" x="648.3193" y="459.3203"/><text fill="#000000" font-family="sans-serif" font-size="14" lengthAdjust="spacing" textLength="162.4424" x="655.3193" y="479.3154">Performance Optimizer</text></g><path d="M10,90.5938 L86.624,90.5938 L86.624,97.7266 L76.624,107.7266 L10,107.7266 L10,90.5938" fill="#EEEEEE" style="stroke:#000000;stroke-width:1.5;"/><rect fill="none" height="252.1953" style="stroke:#000000;stroke-width:1.5;" width="834.7617" x="10" y="90.5938"/><text fill="#000000" font-family="sans-serif" font-size="13" font-weight="bold" lengthAdjust="spacing" textLength="31.624" x="25" y="103.6606">loop</text><text fill="#000000" font-family="sans-serif" font-size="11" font-weight="bold" lengthAdjust="spacing" textLength="118.0996" x="101.624" y="102.8042">[Every 15 seconds]</text><g class="message" data-participant-1="App" data-participant-2="Collector"><polygon fill="#181818" points="185.9785,124.8594,195.9785,128.8594,185.9785,132.8594,189.9785,128.8594" style="stroke:#181818;stroke-width:1;"/><line style="stroke:#181818;stroke-width:1;" x1="76.1118" x2="191.9785" y1="128.8594" y2="128.8594"/><text fill="#000000" font-family="sans-serif" font-size="13" lengthAdjust="spacing" textLength="85.5093" x="83.1118" y="123.7935">Send metrics</text></g><g class="message" data-participant-1="Collector" data-participant-2="TSDB"><polygon fill="#181818" points="322.2485,153.9922,332.2485,157.9922,322.2485,161.9922,326.2485,157.9922" style="stroke:#181818;stroke-width:1;"/><line style="stroke:#181818;stroke-width:1;" x1="197.9785" x2="328.2485" y1="157.9922" y2="157.9922"/><text fill="#000000" font-family="sans-serif" font-size="13" lengthAdjust="spacing" textLength="87.4136" x="204.9785" y="152.9263">Store metrics</text></g><g class="message" data-participant-1="TSDB" data-participant-2="AlertMgr"><polygon fill="#181818" points="458.6528,183.125,468.6528,187.125,458.6528,191.125,462.6528,187.125" style="stroke:#181818;stroke-width:1;"/><line style="stroke:#181818;stroke-width:1;" x1="334.2485" x2="464.6528" y1="187.125" y2="187.125"/><text fill="#000000" font-family="sans-serif" font-size="13" lengthAdjust="spacing" textLength="112.4043" x="341.2485" y="182.0591">Check thresholds</text></g><path d="M20,202.125 L84.4429,202.125 L84.4429,209.2578 L74.4429,219.2578 L20,219.2578 L20,202.125" fill="#EEEEEE" style="stroke:#000000;stroke-width:1.5;"/><rect fill="none" height="133.6641" style="stroke:#000000;stroke-width:1.5;" width="814.7617" x="20" y="202.125"/><text fill="#000000" font-family="sans-serif" font-size="13" font-weight="bold" lengthAdjust="spacing" textLength="19.4429" x="35" y="215.1919">alt</text><text fill="#000000" font-family="sans-serif" font-size="11" font-weight="bold" lengthAdjust="spacing" textLength="169.0659" x="99.4429" y="214.3354">[Performance degradation]</text><g class="message" data-participant-1="AlertMgr" data-participant-2="Scaler"><polygon fill="#181818" points="579.1309,236.3906,589.1309,240.3906,579.1309,244.3906,583.1309,240.3906" style="stroke:#181818;stroke-width:1;"/><line style="stroke:#181818;stroke-width:1;" x1="470.6528" x2="585.1309" y1="240.3906" y2="240.3906"/><text fill="#000000" font-family="sans-serif" font-size="13" lengthAdjust="spacing" textLength="96.478" x="477.6528" y="235.3247">Trigger scaling</text></g><g class="message" data-participant-1="Scaler" data-participant-2="App"><polygon fill="#181818" points="87.1118,265.5234,77.1118,269.5234,87.1118,273.5234,83.1118,269.5234" style="stroke:#181818;stroke-width:1;"/><line style="stroke:#181818;stroke-width:1;" x1="81.1118" x2="590.1309" y1="269.5234" y2="269.5234"/><text fill="#000000" font-family="sans-serif" font-size="13" lengthAdjust="spacing" textLength="102.6797" x="93.1118" y="264.4575">Scale resources</text></g><g class="message" data-participant-1="AlertMgr" data-participant-2="Optimizer"><polygon fill="#181818" points="724.5405,294.6563,734.5405,298.6563,724.5405,302.6563,728.5405,298.6563" style="stroke:#181818;stroke-width:1;"/><line style="stroke:#181818;stroke-width:1;" x1="470.6528" x2="730.5405" y1="298.6563" y2="298.6563"/><text fill="#000000" font-family="sans-serif" font-size="13" lengthAdjust="spacing" textLength="145.9072" x="477.6528" y="293.5903">Optimize performance</text></g><g class="message" data-participant-1="Optimizer" data-participant-2="App"><polygon fill="#181818" points="87.1118,323.7891,77.1118,327.7891,87.1118,331.7891,83.1118,327.7891" style="stroke:#181818;stroke-width:1;"/><line style="stroke:#181818;stroke-width:1;" x1="81.1118" x2="735.5405" y1="327.7891" y2="327.7891"/><text fill="#000000" font-family="sans-serif" font-size="13" lengthAdjust="spacing" textLength="128.4893" x="93.1118" y="322.7231">Apply optimizations</text></g><path d="M202,354.7891 L202,394.7891 L372,394.7891 L372,364.7891 L362,354.7891 L202,354.7891" fill="#FEFFDD" style="stroke:#181818;stroke-width:0.5;"/><path d="M362,354.7891 L362,364.7891 L372,364.7891 L362,354.7891" fill="#FEFFDD" style="stroke:#181818;stroke-width:0.5;"/><text fill="#000000" font-family="sans-serif" font-size="13" lengthAdjust="spacing" textLength="149.1636" x="208" y="371.856">CPU, memory, latency,</text><text fill="#000000" font-family="sans-serif" font-size="13" lengthAdjust="spacing" textLength="125.7217" x="208" y="386.9888">throughput metrics</text><path d="M741,405.0547 L741,445.0547 L978,445.0547 L978,415.0547 L968,405.0547 L741,405.0547" fill="#FEFFDD" style="stroke:#181818;stroke-width:0.5;"/><path d="M968,405.0547 L968,415.0547 L978,415.0547 L968,405.0547" fill="#FEFFDD" style="stroke:#181818;stroke-width:0.5;"/><text fill="#000000" font-family="sans-serif" font-size="13" lengthAdjust="spacing" textLength="128.6543" x="747" y="422.1216">Query optimization,</text><text fill="#000000" font-family="sans-serif" font-size="13" lengthAdjust="spacing" textLength="216.6646" x="747" y="437.2544">cache tuning, resource allocation</text><!--SRC=[RL8zRuCm4Dtv5QVCTEZGXQ5IFZf6JPLqwsAP2rWrFii-Aj5VtmCJ1w8YWNo-ntj-xyo6BS89mvL2fvn6E98pJC6u1fIhuTspwSolOaEkABmARBJnoZ5ijjvRewVE1bG4gTU08t8mEiAUh4Kjf1CiLslmnNG8Pmm68nns4_9oFkmU92q6XgDogi74DkqScmUoRSy4PwtiZ4hBDMPfUdOvetDL59R8mziFXW6UNo2Y9bV70kGHj_3qUdTJoU4bhovvdY2vDm97CuAH2bUWSN_itunKi6zHVmEt0MDBTfQRFihoQbOrDa7LQJOmFpUUaJFPhk0IJ2E1GPHQ1fkngJ-fUr-b4aIM-g0n_akPiwdo4lpzIFcVZCliutKPW1RtAIb8QiNu5evOr4tJCj1r4PuaSlei9RIEmb22LOnE3-MNauYeRrhVSqvqpN4_H0KV_JZ4fRmmQALR1EwTf59cvvApfNInYpy0]--></g></svg>