<svg xmlns="http://www.w3.org/2000/svg" xmlns:xlink="http://www.w3.org/1999/xlink" contentStyleType="text/css" data-diagram-type="DESCRIPTION" height="205px" preserveAspectRatio="none" style="width:2339px;height:205px;background:#FFFFFF;" version="1.1" viewBox="0 0 2339 205" width="2339px" zoomAndPan="magnify"><title>Edge Computing Component Interaction</title><defs/><g><g class="title" data-source-line="1"><text fill="#000000" font-family="sans-serif" font-size="14" font-weight="bold" lengthAdjust="spacing" textLength="317.0029" x="1003.9985" y="22.9951">Edge Computing Component Interaction</text></g><!--cluster Edge Device--><g class="cluster" data-entity="Edge Device" data-source-line="3" data-uid="ent0002" id="cluster_Edge Device"><path d="M8.5,81.8169 L106.3105,81.8169 A3.75,3.75 0 0 1 108.8105,84.3169 L115.8105,104.1137 L1354.5,104.1137 A2.5,2.5 0 0 1 1357,106.6137 L1357,195.6169 A2.5,2.5 0 0 1 1354.5,198.1169 L8.5,198.1169 A2.5,2.5 0 0 1 6,195.6169 L6,84.3169 A2.5,2.5 0 0 1 8.5,81.8169" fill="none" style="stroke:#000000;stroke-width:1.5;"/><line style="stroke:#000000;stroke-width:1.5;" x1="6" x2="115.8105" y1="104.1137" y2="104.1137"/><text fill="#000000" font-family="sans-serif" font-size="14" font-weight="bold" lengthAdjust="spacing" textLength="96.8105" x="10" y="96.812">Edge Device</text></g><!--cluster Cloud Infrastructure--><g class="cluster" data-entity="Cloud Infrastructure" data-source-line="11" data-uid="ent0008" id="cluster_Cloud Infrastructure"><path d="M1383.5,81.8169 L1544.9258,81.8169 A3.75,3.75 0 0 1 1547.4258,84.3169 L1554.4258,104.1137 L2329.5,104.1137 A2.5,2.5 0 0 1 2332,106.6137 L2332,195.6169 A2.5,2.5 0 0 1 2329.5,198.1169 L1383.5,198.1169 A2.5,2.5 0 0 1 1381,195.6169 L1381,84.3169 A2.5,2.5 0 0 1 1383.5,81.8169" fill="none" style="stroke:#000000;stroke-width:1.5;"/><line style="stroke:#000000;stroke-width:1.5;" x1="1381" x2="1554.4258" y1="104.1137" y2="104.1137"/><text fill="#000000" font-family="sans-serif" font-size="14" font-weight="bold" lengthAdjust="spacing" textLength="160.4258" x="1385" y="96.812">Cloud Infrastructure</text></g><!--entity EdgeRuntime--><g class="entity" data-entity="EdgeRuntime" data-source-line="4" data-uid="ent0003" id="entity_EdgeRuntime"><rect fill="#F1F1F1" height="46.2969" rx="2.5" ry="2.5" style="stroke:#181818;stroke-width:0.5;" width="138.7861" x="1202.61" y="135.8169"/><rect fill="#F1F1F1" height="10" style="stroke:#181818;stroke-width:0.5;" width="15" x="1321.3961" y="140.8169"/><rect fill="#F1F1F1" height="2" style="stroke:#181818;stroke-width:0.5;" width="4" x="1319.3961" y="142.8169"/><rect fill="#F1F1F1" height="2" style="stroke:#181818;stroke-width:0.5;" width="4" x="1319.3961" y="146.8169"/><text fill="#000000" font-family="sans-serif" font-size="14" lengthAdjust="spacing" textLength="98.7861" x="1217.61" y="168.812">Edge Runtime</text></g><!--entity EdgeDB--><g class="entity" data-entity="EdgeDB" data-source-line="5" data-uid="ent0004" id="entity_EdgeDB"><rect fill="#F1F1F1" height="46.2969" rx="2.5" ry="2.5" style="stroke:#181818;stroke-width:0.5;" width="104.4561" x="1062.77" y="135.8169"/><rect fill="#F1F1F1" height="10" style="stroke:#181818;stroke-width:0.5;" width="15" x="1147.2261" y="140.8169"/><rect fill="#F1F1F1" height="2" style="stroke:#181818;stroke-width:0.5;" width="4" x="1145.2261" y="142.8169"/><rect fill="#F1F1F1" height="2" style="stroke:#181818;stroke-width:0.5;" width="4" x="1145.2261" y="146.8169"/><text fill="#000000" font-family="sans-serif" font-size="14" lengthAdjust="spacing" textLength="64.4561" x="1077.77" y="168.812">SQLite-AI</text></g><!--entity EdgeAgent--><g class="entity" data-entity="EdgeAgent" data-source-line="6" data-uid="ent0005" id="entity_EdgeAgent"><rect fill="#F1F1F1" height="46.2969" rx="2.5" ry="2.5" style="stroke:#181818;stroke-width:0.5;" width="122.4209" x="290.79" y="135.8169"/><rect fill="#F1F1F1" height="10" style="stroke:#181818;stroke-width:0.5;" width="15" x="393.2109" y="140.8169"/><rect fill="#F1F1F1" height="2" style="stroke:#181818;stroke-width:0.5;" width="4" x="391.2109" y="142.8169"/><rect fill="#F1F1F1" height="2" style="stroke:#181818;stroke-width:0.5;" width="4" x="391.2109" y="146.8169"/><text fill="#000000" font-family="sans-serif" font-size="14" lengthAdjust="spacing" textLength="82.4209" x="305.79" y="168.812">Local Agent</text></g><!--entity Sensors--><g class="entity" data-entity="Sensors" data-source-line="7" data-uid="ent0006" id="entity_Sensors"><rect fill="#F1F1F1" height="46.2969" rx="2.5" ry="2.5" style="stroke:#181818;stroke-width:0.5;" width="155.1172" x="22.44" y="135.8169"/><rect fill="#F1F1F1" height="10" style="stroke:#181818;stroke-width:0.5;" width="15" x="157.5572" y="140.8169"/><rect fill="#F1F1F1" height="2" style="stroke:#181818;stroke-width:0.5;" width="4" x="155.5572" y="142.8169"/><rect fill="#F1F1F1" height="2" style="stroke:#181818;stroke-width:0.5;" width="4" x="155.5572" y="146.8169"/><text fill="#000000" font-family="sans-serif" font-size="14" lengthAdjust="spacing" textLength="115.1172" x="37.44" y="168.812">Sensor Interface</text></g><!--entity MeshClient--><g class="entity" data-entity="MeshClient" data-source-line="8" data-uid="ent0007" id="entity_MeshClient"><rect fill="#F1F1F1" height="46.2969" rx="2.5" ry="2.5" style="stroke:#181818;stroke-width:0.5;" width="121.8398" x="552.08" y="135.8169"/><rect fill="#F1F1F1" height="10" style="stroke:#181818;stroke-width:0.5;" width="15" x="653.9198" y="140.8169"/><rect fill="#F1F1F1" height="2" style="stroke:#181818;stroke-width:0.5;" width="4" x="651.9198" y="142.8169"/><rect fill="#F1F1F1" height="2" style="stroke:#181818;stroke-width:0.5;" width="4" x="651.9198" y="146.8169"/><text fill="#000000" font-family="sans-serif" font-size="14" lengthAdjust="spacing" textLength="81.8398" x="567.08" y="168.812">Mesh Client</text></g><!--entity CloudCtrl--><g class="entity" data-entity="CloudCtrl" data-source-line="12" data-uid="ent0009" id="entity_CloudCtrl"><rect fill="#F1F1F1" height="46.2969" rx="2.5" ry="2.5" style="stroke:#181818;stroke-width:0.5;" width="153.6133" x="1671.19" y="135.8169"/><rect fill="#F1F1F1" height="10" style="stroke:#181818;stroke-width:0.5;" width="15" x="1804.8033" y="140.8169"/><rect fill="#F1F1F1" height="2" style="stroke:#181818;stroke-width:0.5;" width="4" x="1802.8033" y="142.8169"/><rect fill="#F1F1F1" height="2" style="stroke:#181818;stroke-width:0.5;" width="4" x="1802.8033" y="146.8169"/><text fill="#000000" font-family="sans-serif" font-size="14" lengthAdjust="spacing" textLength="113.6133" x="1686.19" y="168.812">Cloud Controller</text></g><!--entity DataLake--><g class="entity" data-entity="DataLake" data-source-line="13" data-uid="ent0010" id="entity_DataLake"><rect fill="#F1F1F1" height="46.2969" rx="2.5" ry="2.5" style="stroke:#181818;stroke-width:0.5;" width="110.9775" x="1962.51" y="135.8169"/><rect fill="#F1F1F1" height="10" style="stroke:#181818;stroke-width:0.5;" width="15" x="2053.4875" y="140.8169"/><rect fill="#F1F1F1" height="2" style="stroke:#181818;stroke-width:0.5;" width="4" x="2051.4875" y="142.8169"/><rect fill="#F1F1F1" height="2" style="stroke:#181818;stroke-width:0.5;" width="4" x="2051.4875" y="146.8169"/><text fill="#000000" font-family="sans-serif" font-size="14" lengthAdjust="spacing" textLength="70.9775" x="1977.51" y="168.812">Data Lake</text></g><!--entity MLPipeline--><g class="entity" data-entity="MLPipeline" data-source-line="14" data-uid="ent0011" id="entity_MLPipeline"><rect fill="#F1F1F1" height="46.2969" rx="2.5" ry="2.5" style="stroke:#181818;stroke-width:0.5;" width="119.4268" x="2196.29" y="135.8169"/><rect fill="#F1F1F1" height="10" style="stroke:#181818;stroke-width:0.5;" width="15" x="2295.7168" y="140.8169"/><rect fill="#F1F1F1" height="2" style="stroke:#181818;stroke-width:0.5;" width="4" x="2293.7168" y="142.8169"/><rect fill="#F1F1F1" height="2" style="stroke:#181818;stroke-width:0.5;" width="4" x="2293.7168" y="146.8169"/><text fill="#000000" font-family="sans-serif" font-size="14" lengthAdjust="spacing" textLength="79.4268" x="2211.29" y="168.812">ML Pipeline</text></g><!--entity MeshNet--><g class="entity" data-entity="MeshNet" data-source-line="15" data-uid="ent0012" id="entity_MeshNet"><rect fill="#F1F1F1" height="46.2969" rx="2.5" ry="2.5" style="stroke:#181818;stroke-width:0.5;" width="139.7637" x="1397.12" y="135.8169"/><rect fill="#F1F1F1" height="10" style="stroke:#181818;stroke-width:0.5;" width="15" x="1516.8837" y="140.8169"/><rect fill="#F1F1F1" height="2" style="stroke:#181818;stroke-width:0.5;" width="4" x="1514.8837" y="142.8169"/><rect fill="#F1F1F1" height="2" style="stroke:#181818;stroke-width:0.5;" width="4" x="1514.8837" y="146.8169"/><text fill="#000000" font-family="sans-serif" font-size="14" lengthAdjust="spacing" textLength="99.7637" x="1412.12" y="168.812">Mesh Network</text></g><!--link Sensors to EdgeAgent--><g class="link" data-entity-1="Sensors" data-entity-2="EdgeAgent" data-source-line="18" data-uid="lnk13" id="link_Sensors_EdgeAgent"><path d="M178.01,158.9669 C214.15,158.9669 250.48,158.9669 284.33,158.9669" fill="none" id="Sensors-to-EdgeAgent" style="stroke:#181818;stroke-width:1;"/><polygon fill="#181818" points="290.33,158.9669,281.33,154.9669,285.33,158.9669,281.33,162.9669,290.33,158.9669" style="stroke:#181818;stroke-width:1;"/><text fill="#000000" font-family="sans-serif" font-size="13" lengthAdjust="spacing" textLength="77.9746" x="195.67" y="152.0338">Sensor data</text></g><!--link EdgeAgent to EdgeDB--><g class="link" data-entity-1="EdgeAgent" data-entity-2="EdgeDB" data-source-line="19" data-uid="lnk14" id="link_EdgeAgent_EdgeDB"><path d="M389.88,135.3969 C425.73,114.5669 481.82,85.6969 535,73.8169 C592.2,61.0369 1011.45,43.2969 1062.5,72.0969 C1086.29,85.5169 1098.4809,108.884 1106.0009,129.694" fill="none" id="EdgeAgent-to-EdgeDB" style="stroke:#181818;stroke-width:1;"/><polygon fill="#181818" points="1108.04,135.3369,1108.7432,125.5132,1106.3407,130.6345,1101.2194,128.232,1108.04,135.3369" style="stroke:#181818;stroke-width:1;"/><text fill="#000000" font-family="sans-serif" font-size="13" lengthAdjust="spacing" textLength="109.9668" x="952.5" y="61.8838">Store/query data</text></g><!--link EdgeDB to EdgeAgent--><g class="link" data-entity-1="EdgeDB" data-entity-2="EdgeAgent" data-source-line="20" data-uid="lnk15" id="link_EdgeDB_EdgeAgent"><path d="M1108.04,135.3369 C1100.52,114.5269 1086.29,85.5169 1062.5,72.0969 C1011.45,43.2969 592.2,61.0369 535,73.8169 C481.82,85.6969 430.9179,111.5526 395.0679,132.3826" fill="none" id="EdgeDB-to-EdgeAgent" style="stroke:#181818;stroke-width:1;"/><polygon fill="#181818" points="389.88,135.3969,399.6713,134.334,394.2032,132.8849,395.6522,127.4168,389.88,135.3969" style="stroke:#181818;stroke-width:1;"/><text fill="#000000" font-family="sans-serif" font-size="13" lengthAdjust="spacing" textLength="125.9819" x="944.5" y="61.8838">AI inference results</text></g><!--link EdgeAgent to MeshClient--><g class="link" data-entity-1="EdgeAgent" data-entity-2="MeshClient" data-source-line="21" data-uid="lnk16" id="link_EdgeAgent_MeshClient"><path d="M413.52,158.9669 C455.27,158.9669 504.23,158.9669 545.89,158.9669" fill="none" id="EdgeAgent-to-MeshClient" style="stroke:#181818;stroke-width:1;"/><polygon fill="#181818" points="551.89,158.9669,542.89,154.9669,546.89,158.9669,542.89,162.9669,551.89,158.9669" style="stroke:#181818;stroke-width:1;"/><text fill="#000000" font-family="sans-serif" font-size="13" lengthAdjust="spacing" textLength="102.3813" x="431.65" y="152.0338">Sync with cloud</text></g><!--link MeshClient to MeshNet--><g class="link" data-entity-1="MeshClient" data-entity-2="MeshNet" data-source-line="22" data-uid="lnk17" id="link_MeshClient_MeshNet"><path d="M674.34,143.1069 C757.59,122.4469 911.34,87.3669 1045,73.8169 C1147.59,63.4169 1173.89,72.4769 1277,72.0969 C1320.56,71.9369 1334.53,56.0069 1375,72.0969 C1406.85,84.7569 1430.3604,109.5076 1446.7504,130.6176" fill="none" id="MeshClient-to-MeshNet" style="stroke:#181818;stroke-width:1;"/><polygon fill="#181818" points="1450.43,135.3569,1448.0701,125.7949,1447.3637,131.4075,1441.7511,130.7011,1450.43,135.3569" style="stroke:#181818;stroke-width:1;"/><text fill="#000000" font-family="sans-serif" font-size="13" lengthAdjust="spacing" textLength="138.8931" x="1257" y="61.8838">Mesh communication</text></g><!--link MeshNet to MeshClient--><g class="link" data-entity-1="MeshNet" data-entity-2="MeshClient" data-source-line="27" data-uid="lnk22" id="link_MeshNet_MeshClient"><path d="M1450.43,135.3569 C1434.04,114.2469 1406.85,84.7569 1375,72.0969 C1334.53,56.0069 1320.56,71.9369 1277,72.0969 C1173.89,72.4769 1147.59,63.4169 1045,73.8169 C911.34,87.3669 763.4134,121.0017 680.1634,141.6617" fill="none" id="MeshNet-to-MeshClient" style="stroke:#181818;stroke-width:1;"/><polygon fill="#181818" points="674.34,143.1069,684.0385,144.8214,679.1928,141.9026,682.1116,137.0569,674.34,143.1069" style="stroke:#181818;stroke-width:1;"/><text fill="#000000" font-family="sans-serif" font-size="13" lengthAdjust="spacing" textLength="96.9033" x="1278" y="61.8838">Deploy models</text></g><!--link MeshNet to CloudCtrl--><g class="link" data-entity-1="MeshNet" data-entity-2="CloudCtrl" data-source-line="23" data-uid="lnk18" id="link_MeshNet_CloudCtrl"><path d="M1537.18,158.9669 C1577.82,158.9669 1623.04,158.9669 1664.81,158.9669" fill="none" id="MeshNet-to-CloudCtrl" style="stroke:#181818;stroke-width:1;"/><polygon fill="#181818" points="1670.81,158.9669,1661.81,154.9669,1665.81,158.9669,1661.81,162.9669,1670.81,158.9669" style="stroke:#181818;stroke-width:1;"/><text fill="#000000" font-family="sans-serif" font-size="13" lengthAdjust="spacing" textLength="98.1348" x="1555.04" y="152.0338">Status updates</text></g><!--link CloudCtrl to DataLake--><g class="link" data-entity-1="CloudCtrl" data-entity-2="DataLake" data-source-line="24" data-uid="lnk19" id="link_CloudCtrl_DataLake"><path d="M1825.01,158.9669 C1868.81,158.9669 1916.66,158.9669 1956.34,158.9669" fill="none" id="CloudCtrl-to-DataLake" style="stroke:#181818;stroke-width:1;"/><polygon fill="#181818" points="1962.34,158.9669,1953.34,154.9669,1957.34,158.9669,1953.34,162.9669,1962.34,158.9669" style="stroke:#181818;stroke-width:1;"/><text fill="#000000" font-family="sans-serif" font-size="13" lengthAdjust="spacing" textLength="101.4673" x="1843.16" y="152.0338">Aggregate data</text></g><!--link DataLake to MLPipeline--><g class="link" data-entity-1="DataLake" data-entity-2="MLPipeline" data-source-line="25" data-uid="lnk20" id="link_DataLake_MLPipeline"><path d="M2073.8,158.9669 C2110.48,158.9669 2152.46,158.9669 2189.97,158.9669" fill="none" id="DataLake-to-MLPipeline" style="stroke:#181818;stroke-width:1;"/><polygon fill="#181818" points="2195.97,158.9669,2186.97,154.9669,2190.97,158.9669,2186.97,162.9669,2195.97,158.9669" style="stroke:#181818;stroke-width:1;"/><text fill="#000000" font-family="sans-serif" font-size="13" lengthAdjust="spacing" textLength="86.6201" x="2091.89" y="152.0338">Training data</text></g><!--link MLPipeline to MeshNet--><g class="link" data-entity-1="MLPipeline" data-entity-2="MeshNet" data-source-line="26" data-uid="lnk21" id="link_MLPipeline_MeshNet"><path d="M2222.17,135.4769 C2190.08,114.7069 2139.65,85.8869 2091,73.8169 C1996.74,50.4469 1748.79,52.7269 1654,73.8169 C1599.85,85.8669 1547.7108,111.74 1511.0208,132.52" fill="none" id="MLPipeline-to-MeshNet" style="stroke:#181818;stroke-width:1;"/><polygon fill="#181818" points="1505.8,135.4769,1515.6025,134.5221,1510.1507,133.0128,1511.6599,127.561,1505.8,135.4769" style="stroke:#181818;stroke-width:1;"/><text fill="#000000" font-family="sans-serif" font-size="13" lengthAdjust="spacing" textLength="95.7417" x="1818.5" y="61.8838">Model updates</text></g><!--link MeshClient to EdgeDB--><g class="link" data-entity-1="MeshClient" data-entity-2="EdgeDB" data-source-line="28" data-uid="lnk23" id="link_MeshClient_EdgeDB"><path d="M674.3,158.9669 C773.83,158.9669 962.82,158.9669 1056.42,158.9669" fill="none" id="MeshClient-to-EdgeDB" style="stroke:#181818;stroke-width:1;"/><polygon fill="#181818" points="1062.42,158.9669,1053.42,154.9669,1057.42,158.9669,1053.42,162.9669,1062.42,158.9669" style="stroke:#181818;stroke-width:1;"/><text fill="#000000" font-family="sans-serif" font-size="13" lengthAdjust="spacing" textLength="98.4648" x="819.35" y="152.0338">Update models</text></g><!--SRC=[RPFDRi8m48JlUOeLTzHx3vKWwG4fLFrz0CjPWeLZf_Qw25Lzz_edSKA0KyRxCPvP9IH88ZmtBKAfkzwHK6ryqWeLmKuH6iP9Q5KKFUCdvi5Ln2ly4HnNy5k0__7ybpHzTuf4vyVCHlT1BzcFjreGhZUx35RR9LDhpYHiMYyo5TMD6IghJSfyO3nTdWxjajsZFK8fnMWQT9B5twnfARLhlEF1C4l6SNBcNkM4bLgHqLAYYPRni2GZbtJ5Y47DJYbWK47S9ApXLVGeXKhSlXxbtIulI6TjJhcCrw79K1_MJzFUu77O2ZJ-xc8w7w1g6mZI1X- -7PhBXFd9mcYp0w4EQ51n18FMIRBNZjDcW-j5SJWBEW8Fsobcmm7rkJqNA_cAdLE2i_ZwZKFFvSt6d8oS1TVxa6YBQUIvSRKXPziQR3sIokH9k3KlrdEVXWaLle68pKRNyNI3CjyvItPLji9UwWjq0RQBgddFNz5aXFu1]--></g></svg>