<svg xmlns="http://www.w3.org/2000/svg" xmlns:xlink="http://www.w3.org/1999/xlink" contentStyleType="text/css" data-diagram-type="SEQUENCE" height="682px" preserveAspectRatio="none" style="width:1285px;height:682px;background:#FFFFFF;" version="1.1" viewBox="0 0 1285 682" width="1285px" zoomAndPan="magnify"><title>Distributed Tracing Flow</title><defs/><g><text fill="#000000" font-family="sans-serif" font-size="14" font-weight="bold" lengthAdjust="spacing" textLength="194.9951" x="544.4387" y="27.9951">Distributed Tracing Flow</text><g><title>User Request</title><rect fill="#000000" fill-opacity="0.00000" height="573.5234" width="8" x="54.9287" y="73.5938"/><line style="stroke:#181818;stroke-width:0.5;stroke-dasharray:5,5;" x1="58" x2="58" y1="73.5938" y2="647.1172"/></g><g><title>API Gateway</title><rect fill="#000000" fill-opacity="0.00000" height="573.5234" width="8" x="267.6572" y="73.5938"/><line style="stroke:#181818;stroke-width:0.5;stroke-dasharray:5,5;" x1="271.4355" x2="271.4355" y1="73.5938" y2="647.1172"/></g><g><title>Flow Engine</title><rect fill="#000000" fill-opacity="0.00000" height="573.5234" width="8" x="493.0303" y="73.5938"/><line style="stroke:#181818;stroke-width:0.5;stroke-dasharray:5,5;" x1="496.8354" x2="496.8354" y1="73.5938" y2="647.1172"/></g><g><title>Agent A</title><rect fill="#000000" fill-opacity="0.00000" height="573.5234" width="8" x="698.624" y="73.5938"/><line style="stroke:#181818;stroke-width:0.5;stroke-dasharray:5,5;" x1="701.8906" x2="701.8906" y1="73.5938" y2="647.1172"/></g><g><title>Agent B</title><rect fill="#000000" fill-opacity="0.00000" height="573.5234" width="8" x="886.2856" y="73.5938"/><line style="stroke:#181818;stroke-width:0.5;stroke-dasharray:5,5;" x1="889.5386" x2="889.5386" y1="73.5938" y2="647.1172"/></g><g><title>Database</title><rect fill="#000000" fill-opacity="0.00000" height="573.5234" width="8" x="1080.917" y="73.5938"/><line style="stroke:#181818;stroke-width:0.5;stroke-dasharray:5,5;" x1="1084.5166" x2="1084.5166" y1="73.5938" y2="647.1172"/></g><g><title>Jaeger</title><rect fill="#000000" fill-opacity="0.00000" height="573.5234" width="8" x="1246.584" y="73.5938"/><line style="stroke:#181818;stroke-width:0.5;stroke-dasharray:5,5;" x1="1250.2954" x2="1250.2954" y1="73.5938" y2="647.1172"/></g><g class="participant participant-head" data-participant="User"><rect fill="#E2E2F0" height="30.2969" rx="2.5" ry="2.5" style="stroke:#181818;stroke-width:0.5;" width="107.8574" x="5" y="42.2969"/><text fill="#000000" font-family="sans-serif" font-size="14" lengthAdjust="spacing" textLength="93.8574" x="12" y="62.292">User Request</text></g><g class="participant participant-tail" data-participant="User"><rect fill="#E2E2F0" height="30.2969" rx="2.5" ry="2.5" style="stroke:#181818;stroke-width:0.5;" width="107.8574" x="5" y="646.1172"/><text fill="#000000" font-family="sans-serif" font-size="14" lengthAdjust="spacing" textLength="93.8574" x="12" y="666.1123">User Request</text></g><g class="participant participant-head" data-participant="Gateway"><rect fill="#E2E2F0" height="30.2969" rx="2.5" ry="2.5" style="stroke:#181818;stroke-width:0.5;" width="102.4434" x="220.4355" y="42.2969"/><text fill="#000000" font-family="sans-serif" font-size="14" lengthAdjust="spacing" textLength="88.4434" x="227.4355" y="62.292">API Gateway</text></g><g class="participant participant-tail" data-participant="Gateway"><rect fill="#E2E2F0" height="30.2969" rx="2.5" ry="2.5" style="stroke:#181818;stroke-width:0.5;" width="102.4434" x="220.4355" y="646.1172"/><text fill="#000000" font-family="sans-serif" font-size="14" lengthAdjust="spacing" textLength="88.4434" x="227.4355" y="666.1123">API Gateway</text></g><g class="participant participant-head" data-participant="Flow"><rect fill="#E2E2F0" height="30.2969" rx="2.5" ry="2.5" style="stroke:#181818;stroke-width:0.5;" width="98.3896" x="447.8354" y="42.2969"/><text fill="#000000" font-family="sans-serif" font-size="14" lengthAdjust="spacing" textLength="84.3896" x="454.8354" y="62.292">Flow Engine</text></g><g class="participant participant-tail" data-participant="Flow"><rect fill="#E2E2F0" height="30.2969" rx="2.5" ry="2.5" style="stroke:#181818;stroke-width:0.5;" width="98.3896" x="447.8354" y="646.1172"/><text fill="#000000" font-family="sans-serif" font-size="14" lengthAdjust="spacing" textLength="84.3896" x="454.8354" y="666.1123">Flow Engine</text></g><g class="participant participant-head" data-participant="AgentA"><rect fill="#E2E2F0" height="30.2969" rx="2.5" ry="2.5" style="stroke:#181818;stroke-width:0.5;" width="69.4668" x="667.8906" y="42.2969"/><text fill="#000000" font-family="sans-serif" font-size="14" lengthAdjust="spacing" textLength="55.4668" x="674.8906" y="62.292">Agent A</text></g><g class="participant participant-tail" data-participant="AgentA"><rect fill="#E2E2F0" height="30.2969" rx="2.5" ry="2.5" style="stroke:#181818;stroke-width:0.5;" width="69.4668" x="667.8906" y="646.1172"/><text fill="#000000" font-family="sans-serif" font-size="14" lengthAdjust="spacing" textLength="55.4668" x="674.8906" y="666.1123">Agent A</text></g><g class="participant participant-head" data-participant="AgentB"><rect fill="#E2E2F0" height="30.2969" rx="2.5" ry="2.5" style="stroke:#181818;stroke-width:0.5;" width="69.4941" x="855.5386" y="42.2969"/><text fill="#000000" font-family="sans-serif" font-size="14" lengthAdjust="spacing" textLength="55.4941" x="862.5386" y="62.292">Agent B</text></g><g class="participant participant-tail" data-participant="AgentB"><rect fill="#E2E2F0" height="30.2969" rx="2.5" ry="2.5" style="stroke:#181818;stroke-width:0.5;" width="69.4941" x="855.5386" y="646.1172"/><text fill="#000000" font-family="sans-serif" font-size="14" lengthAdjust="spacing" textLength="55.4941" x="862.5386" y="666.1123">Agent B</text></g><g class="participant participant-head" data-participant="DB"><rect fill="#E2E2F0" height="30.2969" rx="2.5" ry="2.5" style="stroke:#181818;stroke-width:0.5;" width="80.8008" x="1044.5166" y="42.2969"/><text fill="#000000" font-family="sans-serif" font-size="14" lengthAdjust="spacing" textLength="66.8008" x="1051.5166" y="62.292">Database</text></g><g class="participant participant-tail" data-participant="DB"><rect fill="#E2E2F0" height="30.2969" rx="2.5" ry="2.5" style="stroke:#181818;stroke-width:0.5;" width="80.8008" x="1044.5166" y="646.1172"/><text fill="#000000" font-family="sans-serif" font-size="14" lengthAdjust="spacing" textLength="66.8008" x="1051.5166" y="666.1123">Database</text></g><g class="participant participant-head" data-participant="Tracer"><rect fill="#E2E2F0" height="30.2969" rx="2.5" ry="2.5" style="stroke:#181818;stroke-width:0.5;" width="58.5771" x="1221.2954" y="42.2969"/><text fill="#000000" font-family="sans-serif" font-size="14" lengthAdjust="spacing" textLength="44.5771" x="1228.2954" y="62.292">Jaeger</text></g><g class="participant participant-tail" data-participant="Tracer"><rect fill="#E2E2F0" height="30.2969" rx="2.5" ry="2.5" style="stroke:#181818;stroke-width:0.5;" width="58.5771" x="1221.2954" y="646.1172"/><text fill="#000000" font-family="sans-serif" font-size="14" lengthAdjust="spacing" textLength="44.5771" x="1228.2954" y="666.1123">Jaeger</text></g><g class="message" data-participant-1="User" data-participant-2="Gateway"><polygon fill="#181818" points="259.6572,100.7266,269.6572,104.7266,259.6572,108.7266,263.6572,104.7266" style="stroke:#181818;stroke-width:1;"/><line style="stroke:#181818;stroke-width:1;" x1="58.9287" x2="265.6572" y1="104.7266" y2="104.7266"/><text fill="#000000" font-family="sans-serif" font-size="13" lengthAdjust="spacing" textLength="188.7285" x="65.9287" y="99.6606">HTTP Request [trace-id: 123]</text></g><g class="message" data-participant-1="Gateway" data-participant-2="Tracer"><polygon fill="#181818" points="1238.584,129.8594,1248.584,133.8594,1238.584,137.8594,1242.584,133.8594" style="stroke:#181818;stroke-width:1;"/><line style="stroke:#181818;stroke-width:1;" x1="271.6572" x2="1244.584" y1="133.8594" y2="133.8594"/><text fill="#000000" font-family="sans-serif" font-size="13" lengthAdjust="spacing" textLength="137.0015" x="278.6572" y="128.7935">Start span [gateway]</text></g><g class="message" data-participant-1="Gateway" data-participant-2="Flow"><polygon fill="#181818" points="485.0303,158.9922,495.0303,162.9922,485.0303,166.9922,489.0303,162.9922" style="stroke:#181818;stroke-width:1;"/><line style="stroke:#181818;stroke-width:1;" x1="271.6572" x2="491.0303" y1="162.9922" y2="162.9922"/><text fill="#000000" font-family="sans-serif" font-size="13" lengthAdjust="spacing" textLength="201.373" x="278.6572" y="157.9263">Process request [trace-id: 123]</text></g><g class="message" data-participant-1="Flow" data-participant-2="Tracer"><polygon fill="#181818" points="1238.584,188.125,1248.584,192.125,1238.584,196.125,1242.584,192.125" style="stroke:#181818;stroke-width:1;"/><line style="stroke:#181818;stroke-width:1;" x1="497.0303" x2="1244.584" y1="192.125" y2="192.125"/><text fill="#000000" font-family="sans-serif" font-size="13" lengthAdjust="spacing" textLength="157.1997" x="504.0303" y="187.0591">Start span [flow-engine]</text></g><g class="message" data-participant-1="Flow" data-participant-2="AgentA"><polygon fill="#181818" points="690.624,217.2578,700.624,221.2578,690.624,225.2578,694.624,221.2578" style="stroke:#181818;stroke-width:1;"/><line style="stroke:#181818;stroke-width:1;" x1="497.0303" x2="696.624" y1="221.2578" y2="221.2578"/><text fill="#000000" font-family="sans-serif" font-size="13" lengthAdjust="spacing" textLength="181.5938" x="504.0303" y="216.1919">Execute task [trace-id: 123]</text></g><g class="message" data-participant-1="AgentA" data-participant-2="Tracer"><polygon fill="#181818" points="1238.584,246.3906,1248.584,250.3906,1238.584,254.3906,1242.584,250.3906" style="stroke:#181818;stroke-width:1;"/><line style="stroke:#181818;stroke-width:1;" x1="702.624" x2="1244.584" y1="250.3906" y2="250.3906"/><text fill="#000000" font-family="sans-serif" font-size="13" lengthAdjust="spacing" textLength="131.606" x="709.624" y="245.3247">Start span [agent-a]</text></g><g class="message" data-participant-1="AgentA" data-participant-2="AgentB"><polygon fill="#181818" points="878.2856,275.5234,888.2856,279.5234,878.2856,283.5234,882.2856,279.5234" style="stroke:#181818;stroke-width:1;"/><line style="stroke:#181818;stroke-width:1;" x1="702.624" x2="884.2856" y1="279.5234" y2="279.5234"/><text fill="#000000" font-family="sans-serif" font-size="13" lengthAdjust="spacing" textLength="163.6616" x="709.624" y="274.4575">Call agent [trace-id: 123]</text></g><g class="message" data-participant-1="AgentB" data-participant-2="Tracer"><polygon fill="#181818" points="1238.584,304.6563,1248.584,308.6563,1238.584,312.6563,1242.584,308.6563" style="stroke:#181818;stroke-width:1;"/><line style="stroke:#181818;stroke-width:1;" x1="890.2856" x2="1244.584" y1="308.6563" y2="308.6563"/><text fill="#000000" font-family="sans-serif" font-size="13" lengthAdjust="spacing" textLength="131.8916" x="897.2856" y="303.5903">Start span [agent-b]</text></g><g class="message" data-participant-1="AgentB" data-participant-2="DB"><polygon fill="#181818" points="1072.917,333.7891,1082.917,337.7891,1072.917,341.7891,1076.917,337.7891" style="stroke:#181818;stroke-width:1;"/><line style="stroke:#181818;stroke-width:1;" x1="890.2856" x2="1078.917" y1="337.7891" y2="337.7891"/><text fill="#000000" font-family="sans-serif" font-size="13" lengthAdjust="spacing" textLength="170.6313" x="897.2856" y="332.7231">Query data [trace-id: 123]</text></g><g class="message" data-participant-1="DB" data-participant-2="Tracer"><polygon fill="#181818" points="1238.584,362.9219,1248.584,366.9219,1238.584,370.9219,1242.584,366.9219" style="stroke:#181818;stroke-width:1;"/><line style="stroke:#181818;stroke-width:1;" x1="1084.917" x2="1244.584" y1="366.9219" y2="366.9219"/><text fill="#000000" font-family="sans-serif" font-size="13" lengthAdjust="spacing" textLength="141.667" x="1091.917" y="361.856">Start span [database]</text></g><g class="message" data-participant-1="DB" data-participant-2="AgentB"><polygon fill="#181818" points="901.2856,392.0547,891.2856,396.0547,901.2856,400.0547,897.2856,396.0547" style="stroke:#181818;stroke-width:1;"/><line style="stroke:#181818;stroke-width:1;" x1="895.2856" x2="1083.917" y1="396.0547" y2="396.0547"/><text fill="#000000" font-family="sans-serif" font-size="13" lengthAdjust="spacing" textLength="77.3652" x="907.2856" y="390.9888">Return data</text></g><g class="message" data-participant-1="AgentB" data-participant-2="Tracer"><polygon fill="#181818" points="1238.584,421.1875,1248.584,425.1875,1238.584,429.1875,1242.584,425.1875" style="stroke:#181818;stroke-width:1;"/><line style="stroke:#181818;stroke-width:1;" x1="890.2856" x2="1244.584" y1="425.1875" y2="425.1875"/><text fill="#000000" font-family="sans-serif" font-size="13" lengthAdjust="spacing" textLength="124.8394" x="897.2856" y="420.1216">End span [agent-b]</text></g><g class="message" data-participant-1="AgentB" data-participant-2="AgentA"><polygon fill="#181818" points="713.624,450.3203,703.624,454.3203,713.624,458.3203,709.624,454.3203" style="stroke:#181818;stroke-width:1;"/><line style="stroke:#181818;stroke-width:1;" x1="707.624" x2="889.2856" y1="454.3203" y2="454.3203"/><text fill="#000000" font-family="sans-serif" font-size="13" lengthAdjust="spacing" textLength="85.1475" x="719.624" y="449.2544">Return result</text></g><g class="message" data-participant-1="AgentA" data-participant-2="Tracer"><polygon fill="#181818" points="1238.584,479.4531,1248.584,483.4531,1238.584,487.4531,1242.584,483.4531" style="stroke:#181818;stroke-width:1;"/><line style="stroke:#181818;stroke-width:1;" x1="702.624" x2="1244.584" y1="483.4531" y2="483.4531"/><text fill="#000000" font-family="sans-serif" font-size="13" lengthAdjust="spacing" textLength="124.5537" x="709.624" y="478.3872">End span [agent-a]</text></g><g class="message" data-participant-1="AgentA" data-participant-2="Flow"><polygon fill="#181818" points="508.0303,508.5859,498.0303,512.5859,508.0303,516.5859,504.0303,512.5859" style="stroke:#181818;stroke-width:1;"/><line style="stroke:#181818;stroke-width:1;" x1="502.0303" x2="701.624" y1="512.5859" y2="512.5859"/><text fill="#000000" font-family="sans-serif" font-size="13" lengthAdjust="spacing" textLength="85.1475" x="514.0303" y="507.52">Return result</text></g><g class="message" data-participant-1="Flow" data-participant-2="Tracer"><polygon fill="#181818" points="1238.584,537.7188,1248.584,541.7188,1238.584,545.7188,1242.584,541.7188" style="stroke:#181818;stroke-width:1;"/><line style="stroke:#181818;stroke-width:1;" x1="497.0303" x2="1244.584" y1="541.7188" y2="541.7188"/><text fill="#000000" font-family="sans-serif" font-size="13" lengthAdjust="spacing" textLength="150.1475" x="504.0303" y="536.6528">End span [flow-engine]</text></g><g class="message" data-participant-1="Flow" data-participant-2="Gateway"><polygon fill="#181818" points="282.6572,566.8516,272.6572,570.8516,282.6572,574.8516,278.6572,570.8516" style="stroke:#181818;stroke-width:1;"/><line style="stroke:#181818;stroke-width:1;" x1="276.6572" x2="496.0303" y1="570.8516" y2="570.8516"/><text fill="#000000" font-family="sans-serif" font-size="13" lengthAdjust="spacing" textLength="107.415" x="288.6572" y="565.7856">Return response</text></g><g class="message" data-participant-1="Gateway" data-participant-2="Tracer"><polygon fill="#181818" points="1238.584,595.9844,1248.584,599.9844,1238.584,603.9844,1242.584,599.9844" style="stroke:#181818;stroke-width:1;"/><line style="stroke:#181818;stroke-width:1;" x1="271.6572" x2="1244.584" y1="599.9844" y2="599.9844"/><text fill="#000000" font-family="sans-serif" font-size="13" lengthAdjust="spacing" textLength="129.9492" x="278.6572" y="594.9185">End span [gateway]</text></g><g class="message" data-participant-1="Gateway" data-participant-2="User"><polygon fill="#181818" points="69.9287,625.1172,59.9287,629.1172,69.9287,633.1172,65.9287,629.1172" style="stroke:#181818;stroke-width:1;"/><line style="stroke:#181818;stroke-width:1;" x1="63.9287" x2="270.6572" y1="629.1172" y2="629.1172"/><text fill="#000000" font-family="sans-serif" font-size="13" lengthAdjust="spacing" textLength="100.6484" x="75.9287" y="624.0513">HTTP Response</text></g><!--SRC=[VP8zRuCm48PtViKfEqFRZQ4IAUdNHDDqYZeSS4LMaPFQXzBy-_e3GfoOJbYyhn_VlNSik2CeX6ObgfwfWOt2MiWM7hlT8Kdsg5ZKOe-IOV6XIS6QVdhIl03KO7-4bhnyWITaEk3HEOPpQB9eMCbMI78czrI8QSbySgUwSnxJbvE-3FK26IlK7bzSYAz8BIadsMPD2udhBBqVoytWURCfnrPXozQMYYQ3czkxpsHmsGiUaC4xcnT0cmTWstevyDaMCoZLhYQjGSs0NJ0pr2-ZfUH2cum-cmnMlrIRwG6Z_hwYUjCS5wsQuhdD9vh10tOTE3tENFxFhCvjXU6zzQIEq9ZPNF6AMLOpZ7BqZCMjYNib7IrIpKesyxMCgGq8HRhlE1BJ9IG8oKyqH5pERm94ftVQjecotqbDiGMRKB7riljxMje1yWS0]--></g></svg>