<svg xmlns="http://www.w3.org/2000/svg" xmlns:xlink="http://www.w3.org/1999/xlink" contentStyleType="text/css" data-diagram-type="DESCRIPTION" height="274px" preserveAspectRatio="none" style="width:3023px;height:274px;background:#FFFFFF;" version="1.1" viewBox="0 0 3023 274" width="3023px" zoomAndPan="magnify"><title>Microservices Integration Pattern</title><defs/><g><g class="title" data-source-line="1"><text fill="#000000" font-family="sans-serif" font-size="14" font-weight="bold" lengthAdjust="spacing" textLength="266.3555" x="1371.3223" y="22.9951">Microservices Integration Pattern</text></g><!--cluster VisualGridDev Platform--><g class="cluster" data-entity="VisualGridDev Platform" data-source-line="3" data-uid="ent0002" id="cluster_VisualGridDev Platform"><path d="M8.5,84.1169 L194.4121,84.1169 A3.75,3.75 0 0 1 196.9121,86.6169 L203.9121,106.4138 L3013.5,106.4138 A2.5,2.5 0 0 1 3016,108.9138 L3016,264.9169 A2.5,2.5 0 0 1 3013.5,267.4169 L8.5,267.4169 A2.5,2.5 0 0 1 6,264.9169 L6,86.6169 A2.5,2.5 0 0 1 8.5,84.1169" fill="none" style="stroke:#000000;stroke-width:1.5;"/><line style="stroke:#000000;stroke-width:1.5;" x1="6" x2="203.9121" y1="106.4138" y2="106.4138"/><text fill="#000000" font-family="sans-serif" font-size="14" font-weight="bold" lengthAdjust="spacing" textLength="184.9121" x="10" y="99.112">VisualGridDev Platform</text></g><!--cluster Core Services--><g class="cluster" data-entity="Core Services" data-source-line="8" data-uid="ent0006" id="cluster_Core Services"><path d="M32.5,127.1169 L141.2002,127.1169 A3.75,3.75 0 0 1 143.7002,129.6169 L150.7002,149.4138 L766.5,149.4138 A2.5,2.5 0 0 1 769,151.9138 L769,240.9169 A2.5,2.5 0 0 1 766.5,243.4169 L32.5,243.4169 A2.5,2.5 0 0 1 30,240.9169 L30,129.6169 A2.5,2.5 0 0 1 32.5,127.1169" fill="none" style="stroke:#000000;stroke-width:1.5;"/><line style="stroke:#000000;stroke-width:1.5;" x1="30" x2="150.7002" y1="149.4138" y2="149.4138"/><text fill="#000000" font-family="sans-serif" font-size="14" font-weight="bold" lengthAdjust="spacing" textLength="107.7002" x="34" y="142.112">Core Services</text></g><!--cluster AI/ML Services--><g class="cluster" data-entity="AI.ML Services" data-source-line="14" data-uid="ent0010" id="cluster_AI.ML Services"><path d="M854.5,127.1169 L970.918,127.1169 A3.75,3.75 0 0 1 973.418,129.6169 L980.418,149.4138 L1487.5,149.4138 A2.5,2.5 0 0 1 1490,151.9138 L1490,240.9169 A2.5,2.5 0 0 1 1487.5,243.4169 L854.5,243.4169 A2.5,2.5 0 0 1 852,240.9169 L852,129.6169 A2.5,2.5 0 0 1 854.5,127.1169" fill="none" style="stroke:#000000;stroke-width:1.5;"/><line style="stroke:#000000;stroke-width:1.5;" x1="852" x2="980.418" y1="149.4138" y2="149.4138"/><text fill="#000000" font-family="sans-serif" font-size="14" font-weight="bold" lengthAdjust="spacing" textLength="115.418" x="856" y="142.112">AI/ML Services</text></g><!--cluster Data Services--><g class="cluster" data-entity="Data Services" data-source-line="20" data-uid="ent0014" id="cluster_Data Services"><path d="M1516.5,127.1169 L1626.1162,127.1169 A3.75,3.75 0 0 1 1628.6162,129.6169 L1635.6162,149.4138 L2260.5,149.4138 A2.5,2.5 0 0 1 2263,151.9138 L2263,240.9169 A2.5,2.5 0 0 1 2260.5,243.4169 L1516.5,243.4169 A2.5,2.5 0 0 1 1514,240.9169 L1514,129.6169 A2.5,2.5 0 0 1 1516.5,127.1169" fill="none" style="stroke:#000000;stroke-width:1.5;"/><line style="stroke:#000000;stroke-width:1.5;" x1="1514" x2="1635.6162" y1="149.4138" y2="149.4138"/><text fill="#000000" font-family="sans-serif" font-size="14" font-weight="bold" lengthAdjust="spacing" textLength="108.6162" x="1518" y="142.112">Data Services</text></g><!--entity Gateway--><g class="entity" data-entity="Gateway" data-source-line="4" data-uid="ent0003" id="entity_Gateway"><rect fill="#F1F1F1" height="46.2969" rx="2.5" ry="2.5" style="stroke:#181818;stroke-width:0.5;" width="128.4434" x="2282.78" y="181.1169"/><rect fill="#F1F1F1" height="10" style="stroke:#181818;stroke-width:0.5;" width="15" x="2391.2234" y="186.1169"/><rect fill="#F1F1F1" height="2" style="stroke:#181818;stroke-width:0.5;" width="4" x="2389.2234" y="188.1169"/><rect fill="#F1F1F1" height="2" style="stroke:#181818;stroke-width:0.5;" width="4" x="2389.2234" y="192.1169"/><text fill="#000000" font-family="sans-serif" font-size="14" lengthAdjust="spacing" textLength="88.4434" x="2297.78" y="214.112">API Gateway</text></g><!--entity Discovery--><g class="entity" data-entity="Discovery" data-source-line="5" data-uid="ent0004" id="entity_Discovery"><rect fill="#F1F1F1" height="46.2969" rx="2.5" ry="2.5" style="stroke:#181818;stroke-width:0.5;" width="165.3574" x="2542.32" y="181.1169"/><rect fill="#F1F1F1" height="10" style="stroke:#181818;stroke-width:0.5;" width="15" x="2687.6774" y="186.1169"/><rect fill="#F1F1F1" height="2" style="stroke:#181818;stroke-width:0.5;" width="4" x="2685.6774" y="188.1169"/><rect fill="#F1F1F1" height="2" style="stroke:#181818;stroke-width:0.5;" width="4" x="2685.6774" y="192.1169"/><text fill="#000000" font-family="sans-serif" font-size="14" lengthAdjust="spacing" textLength="125.3574" x="2557.32" y="214.112">Service Discovery</text></g><!--entity LB--><g class="entity" data-entity="LB" data-source-line="6" data-uid="ent0005" id="entity_LB"><rect fill="#F1F1F1" height="46.2969" rx="2.5" ry="2.5" style="stroke:#181818;stroke-width:0.5;" width="139.873" x="2860.06" y="181.1169"/><rect fill="#F1F1F1" height="10" style="stroke:#181818;stroke-width:0.5;" width="15" x="2979.933" y="186.1169"/><rect fill="#F1F1F1" height="2" style="stroke:#181818;stroke-width:0.5;" width="4" x="2977.933" y="188.1169"/><rect fill="#F1F1F1" height="2" style="stroke:#181818;stroke-width:0.5;" width="4" x="2977.933" y="192.1169"/><text fill="#000000" font-family="sans-serif" font-size="14" lengthAdjust="spacing" textLength="99.873" x="2875.06" y="214.112">Load Balancer</text></g><!--entity FlowEngine--><g class="entity" data-entity="FlowEngine" data-source-line="9" data-uid="ent0007" id="entity_FlowEngine"><rect fill="#F1F1F1" height="46.2969" rx="2.5" ry="2.5" style="stroke:#181818;stroke-width:0.5;" width="124.3896" x="45.81" y="181.1169"/><rect fill="#F1F1F1" height="10" style="stroke:#181818;stroke-width:0.5;" width="15" x="150.1996" y="186.1169"/><rect fill="#F1F1F1" height="2" style="stroke:#181818;stroke-width:0.5;" width="4" x="148.1996" y="188.1169"/><rect fill="#F1F1F1" height="2" style="stroke:#181818;stroke-width:0.5;" width="4" x="148.1996" y="192.1169"/><text fill="#000000" font-family="sans-serif" font-size="14" lengthAdjust="spacing" textLength="84.3896" x="60.81" y="214.112">Flow Engine</text></g><!--entity AgentMgr--><g class="entity" data-entity="AgentMgr" data-source-line="10" data-uid="ent0008" id="entity_AgentMgr"><rect fill="#F1F1F1" height="46.2969" rx="2.5" ry="2.5" style="stroke:#181818;stroke-width:0.5;" width="147.2559" x="605.37" y="181.1169"/><rect fill="#F1F1F1" height="10" style="stroke:#181818;stroke-width:0.5;" width="15" x="732.6259" y="186.1169"/><rect fill="#F1F1F1" height="2" style="stroke:#181818;stroke-width:0.5;" width="4" x="730.6259" y="188.1169"/><rect fill="#F1F1F1" height="2" style="stroke:#181818;stroke-width:0.5;" width="4" x="730.6259" y="192.1169"/><text fill="#000000" font-family="sans-serif" font-size="14" lengthAdjust="spacing" textLength="107.2559" x="620.37" y="214.112">Agent Manager</text></g><!--entity Router--><g class="entity" data-entity="Router" data-source-line="11" data-uid="ent0009" id="entity_Router"><rect fill="#F1F1F1" height="46.2969" rx="2.5" ry="2.5" style="stroke:#181818;stroke-width:0.5;" width="148.4453" x="309.78" y="181.1169"/><rect fill="#F1F1F1" height="10" style="stroke:#181818;stroke-width:0.5;" width="15" x="438.2253" y="186.1169"/><rect fill="#F1F1F1" height="2" style="stroke:#181818;stroke-width:0.5;" width="4" x="436.2253" y="188.1169"/><rect fill="#F1F1F1" height="2" style="stroke:#181818;stroke-width:0.5;" width="4" x="436.2253" y="192.1169"/><text fill="#000000" font-family="sans-serif" font-size="14" lengthAdjust="spacing" textLength="108.4453" x="324.78" y="214.112">Protocol Router</text></g><!--entity ModelServer--><g class="entity" data-entity="ModelServer" data-source-line="15" data-uid="ent0011" id="entity_ModelServer"><rect fill="#F1F1F1" height="46.2969" rx="2.5" ry="2.5" style="stroke:#181818;stroke-width:0.5;" width="132.3945" x="867.8" y="181.1169"/><rect fill="#F1F1F1" height="10" style="stroke:#181818;stroke-width:0.5;" width="15" x="980.1945" y="186.1169"/><rect fill="#F1F1F1" height="2" style="stroke:#181818;stroke-width:0.5;" width="4" x="978.1945" y="188.1169"/><rect fill="#F1F1F1" height="2" style="stroke:#181818;stroke-width:0.5;" width="4" x="978.1945" y="192.1169"/><text fill="#000000" font-family="sans-serif" font-size="14" lengthAdjust="spacing" textLength="92.3945" x="882.8" y="214.112">Model Server</text></g><!--entity Training--><g class="entity" data-entity="Training" data-source-line="16" data-uid="ent0012" id="entity_Training"><rect fill="#F1F1F1" height="46.2969" rx="2.5" ry="2.5" style="stroke:#181818;stroke-width:0.5;" width="153.4902" x="1320.25" y="181.1169"/><rect fill="#F1F1F1" height="10" style="stroke:#181818;stroke-width:0.5;" width="15" x="1453.7402" y="186.1169"/><rect fill="#F1F1F1" height="2" style="stroke:#181818;stroke-width:0.5;" width="4" x="1451.7402" y="188.1169"/><rect fill="#F1F1F1" height="2" style="stroke:#181818;stroke-width:0.5;" width="4" x="1451.7402" y="192.1169"/><text fill="#000000" font-family="sans-serif" font-size="14" lengthAdjust="spacing" textLength="113.4902" x="1335.25" y="214.112">Training Service</text></g><!--entity Inference--><g class="entity" data-entity="Inference" data-source-line="17" data-uid="ent0013" id="entity_Inference"><rect fill="#F1F1F1" height="46.2969" rx="2.5" ry="2.5" style="stroke:#181818;stroke-width:0.5;" width="158.5283" x="1126.74" y="181.1169"/><rect fill="#F1F1F1" height="10" style="stroke:#181818;stroke-width:0.5;" width="15" x="1265.2683" y="186.1169"/><rect fill="#F1F1F1" height="2" style="stroke:#181818;stroke-width:0.5;" width="4" x="1263.2683" y="188.1169"/><rect fill="#F1F1F1" height="2" style="stroke:#181818;stroke-width:0.5;" width="4" x="1263.2683" y="192.1169"/><text fill="#000000" font-family="sans-serif" font-size="14" lengthAdjust="spacing" textLength="118.5283" x="1141.74" y="214.112">Inference Engine</text></g><!--entity Ingestion--><g class="entity" data-entity="Ingestion" data-source-line="21" data-uid="ent0015" id="entity_Ingestion"><rect fill="#F1F1F1" height="46.2969" rx="2.5" ry="2.5" style="stroke:#181818;stroke-width:0.5;" width="142.4912" x="1529.75" y="181.1169"/><rect fill="#F1F1F1" height="10" style="stroke:#181818;stroke-width:0.5;" width="15" x="1652.2412" y="186.1169"/><rect fill="#F1F1F1" height="2" style="stroke:#181818;stroke-width:0.5;" width="4" x="1650.2412" y="188.1169"/><rect fill="#F1F1F1" height="2" style="stroke:#181818;stroke-width:0.5;" width="4" x="1650.2412" y="192.1169"/><text fill="#000000" font-family="sans-serif" font-size="14" lengthAdjust="spacing" textLength="102.4912" x="1544.75" y="214.112">Data Ingestion</text></g><!--entity StreamProc--><g class="entity" data-entity="StreamProc" data-source-line="22" data-uid="ent0016" id="entity_StreamProc"><rect fill="#F1F1F1" height="46.2969" rx="2.5" ry="2.5" style="stroke:#181818;stroke-width:0.5;" width="163.3955" x="1814.3" y="181.1169"/><rect fill="#F1F1F1" height="10" style="stroke:#181818;stroke-width:0.5;" width="15" x="1957.6955" y="186.1169"/><rect fill="#F1F1F1" height="2" style="stroke:#181818;stroke-width:0.5;" width="4" x="1955.6955" y="188.1169"/><rect fill="#F1F1F1" height="2" style="stroke:#181818;stroke-width:0.5;" width="4" x="1955.6955" y="192.1169"/><text fill="#000000" font-family="sans-serif" font-size="14" lengthAdjust="spacing" textLength="123.3955" x="1829.3" y="214.112">Stream Processor</text></g><!--entity Storage--><g class="entity" data-entity="Storage" data-source-line="23" data-uid="ent0017" id="entity_Storage"><rect fill="#F1F1F1" height="46.2969" rx="2.5" ry="2.5" style="stroke:#181818;stroke-width:0.5;" width="150.9678" x="2096.52" y="181.1169"/><rect fill="#F1F1F1" height="10" style="stroke:#181818;stroke-width:0.5;" width="15" x="2227.4878" y="186.1169"/><rect fill="#F1F1F1" height="2" style="stroke:#181818;stroke-width:0.5;" width="4" x="2225.4878" y="188.1169"/><rect fill="#F1F1F1" height="2" style="stroke:#181818;stroke-width:0.5;" width="4" x="2225.4878" y="192.1169"/><text fill="#000000" font-family="sans-serif" font-size="14" lengthAdjust="spacing" textLength="110.9678" x="2111.52" y="214.112">Storage Service</text></g><!--link Gateway to Discovery--><g class="link" data-entity-1="Gateway" data-entity-2="Discovery" data-source-line="27" data-uid="lnk18" id="link_Gateway_Discovery"><path d="M2411.48,204.2669 C2450.29,204.2669 2494.12,204.2669 2535.87,204.2669" fill="none" id="Gateway-to-Discovery" style="stroke:#181818;stroke-width:1;"/><polygon fill="#181818" points="2541.87,204.2669,2532.87,200.2669,2536.87,204.2669,2532.87,208.2669,2541.87,204.2669" style="stroke:#181818;stroke-width:1;"/><text fill="#000000" font-family="sans-serif" font-size="13" lengthAdjust="spacing" textLength="95.7163" x="2429.27" y="197.3338">Service lookup</text></g><!--link Discovery to LB--><g class="link" data-entity-1="Discovery" data-entity-2="LB" data-source-line="28" data-uid="lnk19" id="link_Discovery_LB"><path d="M2707.94,204.2669 C2755.48,204.2669 2808.5,204.2669 2853.74,204.2669" fill="none" id="Discovery-to-LB" style="stroke:#181818;stroke-width:1;"/><polygon fill="#181818" points="2859.74,204.2669,2850.74,200.2669,2854.74,204.2669,2850.74,208.2669,2859.74,204.2669" style="stroke:#181818;stroke-width:1;"/><text fill="#000000" font-family="sans-serif" font-size="13" lengthAdjust="spacing" textLength="116.5938" x="2725.87" y="197.3338">Service endpoints</text></g><!--link LB to FlowEngine--><g class="link" data-entity-1="LB" data-entity-2="FlowEngine" data-source-line="29" data-uid="lnk20" id="link_LB_FlowEngine"><path d="M2901.35,180.8369 C2863.64,151.6569 2794,103.3769 2725,84.7269 C2594.51,49.4669 421.6,46.3269 292,84.7269 C228.81,103.4469 171.5215,147.5127 138.0815,176.6827" fill="none" id="LB-to-FlowEngine" style="stroke:#181818;stroke-width:1;"/><polygon fill="#181818" points="133.56,180.6269,142.9716,177.725,137.3279,177.3401,137.7128,171.6964,133.56,180.6269" style="stroke:#181818;stroke-width:1;"/><text fill="#000000" font-family="sans-serif" font-size="13" lengthAdjust="spacing" textLength="98.9282" x="1820" y="64.1838">Route requests</text></g><!--link FlowEngine to Router--><g class="link" data-entity-1="FlowEngine" data-entity-2="Router" data-source-line="30" data-uid="lnk21" id="link_FlowEngine_Router"><path d="M170.63,204.2669 C211.82,204.2669 259.94,204.2669 303.36,204.2669" fill="none" id="FlowEngine-to-Router" style="stroke:#181818;stroke-width:1;"/><polygon fill="#181818" points="309.36,204.2669,300.36,200.2669,304.36,204.2669,300.36,208.2669,309.36,204.2669" style="stroke:#181818;stroke-width:1;"/><text fill="#000000" font-family="sans-serif" font-size="13" lengthAdjust="spacing" textLength="103.7715" x="188.49" y="197.3338">Protocol routing</text></g><!--link Router to AgentMgr--><g class="link" data-entity-1="Router" data-entity-2="AgentMgr" data-source-line="31" data-uid="lnk22" id="link_Router_AgentMgr"><path d="M458.44,204.2669 C503.33,204.2669 554.3,204.2669 599.09,204.2669" fill="none" id="Router-to-AgentMgr" style="stroke:#181818;stroke-width:1;"/><polygon fill="#181818" points="605.09,204.2669,596.09,200.2669,600.09,204.2669,596.09,208.2669,605.09,204.2669" style="stroke:#181818;stroke-width:1;"/><text fill="#000000" font-family="sans-serif" font-size="13" lengthAdjust="spacing" textLength="111.8013" x="476.3" y="197.3338">Agent operations</text></g><!--link AgentMgr to ModelServer--><g class="link" data-entity-1="AgentMgr" data-entity-2="ModelServer" data-source-line="32" data-uid="lnk23" id="link_AgentMgr_ModelServer"><path d="M753.1,204.2669 C789.27,204.2669 826.45,204.2669 861.54,204.2669" fill="none" id="AgentMgr-to-ModelServer" style="stroke:#181818;stroke-width:1;"/><polygon fill="#181818" points="867.54,204.2669,858.54,200.2669,862.54,204.2669,858.54,208.2669,867.54,204.2669" style="stroke:#181818;stroke-width:1;"/><text fill="#000000" font-family="sans-serif" font-size="13" lengthAdjust="spacing" textLength="79.0664" x="770.72" y="220.3338">ML requests</text></g><!--link ModelServer to Inference--><g class="link" data-entity-1="ModelServer" data-entity-2="Inference" data-source-line="33" data-uid="lnk24" id="link_ModelServer_Inference"><path d="M1000.54,204.2669 C1038.6,204.2669 1080.58,204.2669 1120.6,204.2669" fill="none" id="ModelServer-to-Inference" style="stroke:#181818;stroke-width:1;"/><polygon fill="#181818" points="1126.6,204.2669,1117.6,200.2669,1121.6,204.2669,1117.6,208.2669,1126.6,204.2669" style="stroke:#181818;stroke-width:1;"/><text fill="#000000" font-family="sans-serif" font-size="13" lengthAdjust="spacing" textLength="90.7969" x="1018.47" y="197.3338">Run inference</text></g><!--link Training to Storage--><g class="link" data-entity-1="Training" data-entity-2="Storage" data-source-line="34" data-uid="lnk25" id="link_Training_Storage"><path d="M1411.32,180.8569 C1430.54,151.9469 1467.69,104.2069 1514,84.7269 C1612.53,43.2969 1892.79,53.4469 1995,84.7269 C2056.34,103.4969 2111.175,147.4557 2143.155,176.5957" fill="none" id="Training-to-Storage" style="stroke:#181818;stroke-width:1;"/><polygon fill="#181818" points="2147.59,180.6369,2143.6316,171.6185,2143.8942,177.2693,2138.2434,177.5318,2147.59,180.6369" style="stroke:#181818;stroke-width:1;"/><text fill="#000000" font-family="sans-serif" font-size="13" lengthAdjust="spacing" textLength="86.0298" x="1643" y="64.1838">Store models</text></g><!--link Ingestion to StreamProc--><g class="link" data-entity-1="Ingestion" data-entity-2="StreamProc" data-source-line="35" data-uid="lnk26" id="link_Ingestion_StreamProc"><path d="M1672.41,204.2669 C1715.13,204.2669 1763.57,204.2669 1808.03,204.2669" fill="none" id="Ingestion-to-StreamProc" style="stroke:#181818;stroke-width:1;"/><polygon fill="#181818" points="1814.03,204.2669,1805.03,200.2669,1809.03,204.2669,1805.03,208.2669,1814.03,204.2669" style="stroke:#181818;stroke-width:1;"/><text fill="#000000" font-family="sans-serif" font-size="13" lengthAdjust="spacing" textLength="106.5771" x="1690.27" y="197.3338">Process streams</text></g><!--link StreamProc to Storage--><g class="link" data-entity-1="StreamProc" data-entity-2="Storage" data-source-line="36" data-uid="lnk27" id="link_StreamProc_Storage"><path d="M1978.06,204.2669 C2015.56,204.2669 2053.7,204.2669 2090.38,204.2669" fill="none" id="StreamProc-to-Storage" style="stroke:#181818;stroke-width:1;"/><polygon fill="#181818" points="2096.38,204.2669,2087.38,200.2669,2091.38,204.2669,2087.38,208.2669,2096.38,204.2669" style="stroke:#181818;stroke-width:1;"/><text fill="#000000" font-family="sans-serif" font-size="13" lengthAdjust="spacing" textLength="82.6147" x="1996.11" y="197.3338">Store results</text></g><!--SRC=[XPDFQ_Cm3CRl_XIYzx5x3eDstKOWWV9kx6vIBPYvLbxPwHXZttt-dr8oraDhIJy_VcofJZcDqAk1oIAVrO0MMkDmPEaK6JX8vv2D49CStkM8i7bLTfRwYTLnZsSuQEdUY4yR-1BWFmET9Z9e76osXnQUfCCF-Ra1QSlw6djEny9UsO7Eo0ckqJNUaJp2Jcff1kI8Thl8nA_gyfuO8KlROkvAwb7J1poOKHcCGY5EuHgz7SDFButNJmV7J3_o6drWSZIGXdyqkyodPQI_Lonlszk- -yjpJqVK4SgYCP7YDVw5fJBAZ4KtxYd9jGsjUKD6_xYNBrEJlvhVIoV_yXwPrenemsXbuHojyS-EKPx0FwNNj9Jkcv8Xjxw5EFYvl6tEPUlVGkH1X9kxPSoQiWKqqViyYLe9MBTRwcYE4odZhEXseRPCJPCw38p_PtyhAvPI05Fx6wYZmJuHkf0A0IaJrQGLq8JfVsX5AGNiekSD-9cf1ruK0bVRvftD1bJjOfqA3-NdQU82uHGahAYDIKXvywPq0spCMR7KLiGOxQozhny0]--></g></svg>