<svg xmlns="http://www.w3.org/2000/svg" xmlns:xlink="http://www.w3.org/1999/xlink" contentStyleType="text/css" data-diagram-type="STATE" height="158px" preserveAspectRatio="none" style="width:2065px;height:158px;background:#FFFFFF;" version="1.1" viewBox="0 0 2065 158" width="2065px" zoomAndPan="magnify"><title>Flow Execution States</title><defs/><g><g class="title" data-source-line="1"><text fill="#000000" font-family="sans-serif" font-size="14" font-weight="bold" lengthAdjust="spacing" textLength="174.8359" x="938.082" y="22.9951">Flow Execution States</text></g><ellipse cx="16" cy="127.5369" fill="#222222" rx="10" ry="10" style="stroke:#222222;stroke-width:1;"/><g id="Idle"><rect fill="#F1F1F1" height="50" rx="12.5" ry="12.5" style="stroke:#181818;stroke-width:0.5;" width="50" x="145" y="102.5369"/><line style="stroke:#181818;stroke-width:0.5;" x1="145" x2="195" y1="128.8338" y2="128.8338"/><text fill="#000000" font-family="sans-serif" font-size="14" lengthAdjust="spacing" textLength="25.5186" x="157.2407" y="120.532">Idle</text></g><g id="Starting"><rect fill="#F1F1F1" height="50" rx="12.5" ry="12.5" style="stroke:#181818;stroke-width:0.5;" width="75.8496" x="337.08" y="102.5369"/><line style="stroke:#181818;stroke-width:0.5;" x1="337.08" x2="412.9296" y1="128.8338" y2="128.8338"/><text fill="#000000" font-family="sans-serif" font-size="14" lengthAdjust="spacing" textLength="55.8496" x="347.08" y="120.532">Starting</text></g><g id="Running"><rect fill="#F1F1F1" height="50" rx="12.5" ry="12.5" style="stroke:#181818;stroke-width:0.5;" width="77.9961" x="549" y="102.5369"/><line style="stroke:#181818;stroke-width:0.5;" x1="549" x2="626.9961" y1="128.8338" y2="128.8338"/><text fill="#000000" font-family="sans-serif" font-size="14" lengthAdjust="spacing" textLength="57.9961" x="559" y="120.532">Running</text></g><g id="Error"><rect fill="#F1F1F1" height="50" rx="12.5" ry="12.5" style="stroke:#181818;stroke-width:0.5;" width="54.6787" x="1616.66" y="102.5369"/><line style="stroke:#181818;stroke-width:0.5;" x1="1616.66" x2="1671.3387" y1="128.8338" y2="128.8338"/><text fill="#000000" font-family="sans-serif" font-size="14" lengthAdjust="spacing" textLength="34.6787" x="1626.66" y="120.532">Error</text></g><g id="Processing"><rect fill="#F1F1F1" height="50" rx="12.5" ry="12.5" style="stroke:#181818;stroke-width:0.5;" width="95.3115" x="1385.34" y="102.5369"/><line style="stroke:#181818;stroke-width:0.5;" x1="1385.34" x2="1480.6515" y1="128.8338" y2="128.8338"/><text fill="#000000" font-family="sans-serif" font-size="14" lengthAdjust="spacing" textLength="75.3115" x="1395.34" y="120.532">Processing</text></g><g id="Stopped"><rect fill="#F1F1F1" height="50" rx="12.5" ry="12.5" style="stroke:#181818;stroke-width:0.5;" width="78.2148" x="1838.89" y="102.5369"/><line style="stroke:#181818;stroke-width:0.5;" x1="1838.89" x2="1917.1048" y1="128.8338" y2="128.8338"/><text fill="#000000" font-family="sans-serif" font-size="14" lengthAdjust="spacing" textLength="58.2148" x="1848.89" y="120.532">Stopped</text></g><g id="Pausing"><rect fill="#F1F1F1" height="50" rx="12.5" ry="12.5" style="stroke:#181818;stroke-width:0.5;" width="74.8379" x="849.58" y="102.5369"/><line style="stroke:#181818;stroke-width:0.5;" x1="849.58" x2="924.4179" y1="128.8338" y2="128.8338"/><text fill="#000000" font-family="sans-serif" font-size="14" lengthAdjust="spacing" textLength="54.8379" x="859.58" y="120.532">Pausing</text></g><g id="Paused"><rect fill="#F1F1F1" height="50" rx="12.5" ry="12.5" style="stroke:#181818;stroke-width:0.5;" width="70.6885" x="1063.66" y="102.5369"/><line style="stroke:#181818;stroke-width:0.5;" x1="1063.66" x2="1134.3485" y1="128.8338" y2="128.8338"/><text fill="#000000" font-family="sans-serif" font-size="14" lengthAdjust="spacing" textLength="50.6885" x="1073.66" y="120.532">Paused</text></g><g id="Resuming"><rect fill="#F1F1F1" height="50" rx="12.5" ry="12.5" style="stroke:#181818;stroke-width:0.5;" width="89.7949" x="1260.1" y="102.5369"/><line style="stroke:#181818;stroke-width:0.5;" x1="1260.1" x2="1349.8949" y1="128.8338" y2="128.8338"/><text fill="#000000" font-family="sans-serif" font-size="14" lengthAdjust="spacing" textLength="69.7949" x="1270.1" y="120.532">Resuming</text></g><g id="Stopping"><rect fill="#F1F1F1" height="50" rx="12.5" ry="12.5" style="stroke:#181818;stroke-width:0.5;" width="82.3643" x="731.82" y="102.5369"/><line style="stroke:#181818;stroke-width:0.5;" x1="731.82" x2="814.1843" y1="128.8338" y2="128.8338"/><text fill="#000000" font-family="sans-serif" font-size="14" lengthAdjust="spacing" textLength="62.3643" x="741.82" y="120.532">Stopping</text></g><ellipse cx="2048" cy="127.5369" fill="none" rx="11" ry="11" style="stroke:#222222;stroke-width:1;"/><ellipse cx="2048" cy="127.5369" fill="#222222" rx="6" ry="6" style="stroke:#222222;stroke-width:1;"/><!--link *start* to Idle--><g class="link" data-entity-1=".start." data-entity-2="Idle" data-source-line="3" data-uid="lnk4" id="link_.start._Idle"><path d="M26.1,127.5369 C49.93,127.5369 104.19,127.5369 138.7,127.5369" fill="none" id="*start*-to-Idle" style="stroke:#181818;stroke-width:1;"/><polygon fill="#181818" points="144.7,127.5369,135.7,123.5369,139.7,127.5369,135.7,131.5369,144.7,127.5369" style="stroke:#181818;stroke-width:1;"/><text fill="#000000" font-family="sans-serif" font-size="13" lengthAdjust="spacing" textLength="83.6113" x="44" y="120.6038">Flow created</text></g><!--link Idle to Starting--><g class="link" data-entity-1="Idle" data-entity-2="Starting" data-source-line="4" data-uid="lnk6" id="link_Idle_Starting"><path d="M195.14,127.5369 C230.53,127.5369 289.33,127.5369 330.73,127.5369" fill="none" id="Idle-to-Starting" style="stroke:#181818;stroke-width:1;"/><polygon fill="#181818" points="336.73,127.5369,327.73,123.5369,331.73,127.5369,327.73,131.5369,336.73,127.5369" style="stroke:#181818;stroke-width:1;"/><text fill="#000000" font-family="sans-serif" font-size="13" lengthAdjust="spacing" textLength="106.9199" x="213.04" y="120.6038">Trigger received</text></g><!--link Starting to Running--><g class="link" data-entity-1="Starting" data-entity-2="Running" data-source-line="5" data-uid="lnk8" id="link_Starting_Running"><path d="M413.08,127.5369 C451.37,127.5369 504.13,127.5369 542.81,127.5369" fill="none" id="Starting-to-Running" style="stroke:#181818;stroke-width:1;"/><polygon fill="#181818" points="548.81,127.5369,539.81,123.5369,543.81,127.5369,539.81,131.5369,548.81,127.5369" style="stroke:#181818;stroke-width:1;"/><text fill="#000000" font-family="sans-serif" font-size="13" lengthAdjust="spacing" textLength="100.8516" x="430.96" y="120.6038">All nodes ready</text></g><!--link Starting to Error--><g class="link" data-entity-1="Starting" data-entity-2="Error" data-source-line="6" data-uid="lnk10" id="link_Starting_Error"><path d="M413.23,120.1569 C444.92,114.3469 491.21,106.5869 532,102.5369 C935.9,62.4569 1038.7,74.2169 1444.5,66.1169 C1496.49,65.0869 1512.14,49.7669 1561.5,66.1169 C1583.2,73.3069 1599.3412,84.6743 1614.5412,98.2243" fill="none" id="Starting-to-Error" style="stroke:#181818;stroke-width:1;"/><polygon fill="#181818" points="1619.02,102.2169,1614.9636,93.2422,1615.2877,98.8897,1609.6401,99.2138,1619.02,102.2169" style="stroke:#181818;stroke-width:1;"/><text fill="#000000" font-family="sans-serif" font-size="13" lengthAdjust="spacing" textLength="115.502" x="1445.5" y="68.6038">Node startup fails</text></g><!--link Running to Processing--><g class="link" data-entity-1="Running" data-entity-2="Processing" data-source-line="7" data-uid="lnk12" id="link_Running_Processing"><path d="M627.22,118.3869 C651.98,112.9569 684.7,106.3969 714,102.5369 C957.1,70.5169 1019.43,74.2169 1264.5,66.1169 C1317.36,64.3769 1335.79,43.2969 1383.5,66.1169 C1399.19,73.6269 1408.296,83.7176 1416.716,97.1076" fill="none" id="Running-to-Processing" style="stroke:#181818;stroke-width:1;"/><polygon fill="#181818" points="1419.91,102.1869,1418.5052,92.4387,1417.2484,97.9542,1411.7329,96.6973,1419.91,102.1869" style="stroke:#181818;stroke-width:1;"/><text fill="#000000" font-family="sans-serif" font-size="13" lengthAdjust="spacing" textLength="117.1523" x="1265.5" y="68.6038">Message received</text></g><!--link Processing to Running--><g class="link" data-entity-1="Processing" data-entity-2="Running" data-source-line="8" data-uid="lnk13" id="link_Processing_Running"><path d="M1419.91,102.1869 C1411.49,88.7969 1399.19,73.6269 1383.5,66.1169 C1335.79,43.2969 1317.36,64.3769 1264.5,66.1169 C1019.43,74.2169 957.1,70.5169 714,102.5369 C684.7,106.3969 657.8407,111.6716 633.0807,117.1016" fill="none" id="Processing-to-Running" style="stroke:#181818;stroke-width:1;"/><polygon fill="#181818" points="627.22,118.3869,636.8679,120.3661,632.1039,117.3158,635.1542,112.5518,627.22,118.3869" style="stroke:#181818;stroke-width:1;"/><text fill="#000000" font-family="sans-serif" font-size="13" lengthAdjust="spacing" textLength="127.6006" x="1260.5" y="68.6038">Message processed</text></g><!--link Processing to Error--><g class="link" data-entity-1="Processing" data-entity-2="Error" data-source-line="9" data-uid="lnk14" id="link_Processing_Error"><path d="M1481.14,127.5369 C1522.98,127.5369 1576.12,127.5369 1610.42,127.5369" fill="none" id="Processing-to-Error" style="stroke:#181818;stroke-width:1;"/><polygon fill="#181818" points="1616.42,127.5369,1607.42,123.5369,1611.42,127.5369,1607.42,131.5369,1616.42,127.5369" style="stroke:#181818;stroke-width:1;"/><text fill="#000000" font-family="sans-serif" font-size="13" lengthAdjust="spacing" textLength="100.604" x="1498.66" y="120.6038">Processing fails</text></g><!--link Error to Running--><g class="link" data-entity-1="Error" data-entity-2="Running" data-source-line="10" data-uid="lnk15" id="link_Error_Running"><path d="M1616.31,122.6269 C1586.97,117.4569 1539.26,109.1769 1498,102.5369 C1498,102.5369 714,102.5369 714,102.5369 C684.74,106.6469 657.8737,111.9251 633.1137,117.2951" fill="none" id="Error-to-Running" style="stroke:#181818;stroke-width:1;"/><polygon fill="#181818" points="627.25,118.5669,636.8933,120.5684,632.1364,117.5071,635.1977,112.7502,627.25,118.5669" style="stroke:#181818;stroke-width:1;"/><text fill="#000000" font-family="sans-serif" font-size="13" lengthAdjust="spacing" textLength="102.064" x="1153" y="68.6038">Error recovered</text></g><!--link Error to Stopped--><g class="link" data-entity-1="Error" data-entity-2="Stopped" data-source-line="11" data-uid="lnk17" id="link_Error_Stopped"><path d="M1671.76,127.5369 C1713.17,127.5369 1785.28,127.5369 1832.58,127.5369" fill="none" id="Error-to-Stopped" style="stroke:#181818;stroke-width:1;"/><polygon fill="#181818" points="1838.58,127.5369,1829.58,123.5369,1833.58,127.5369,1829.58,131.5369,1838.58,127.5369" style="stroke:#181818;stroke-width:1;"/><text fill="#000000" font-family="sans-serif" font-size="13" lengthAdjust="spacing" textLength="131.1807" x="1689.62" y="120.6038">Unrecoverable error</text></g><!--link Running to Pausing--><g class="link" data-entity-1="Running" data-entity-2="Pausing" data-source-line="12" data-uid="lnk19" id="link_Running_Pausing"><path d="M597.22,102.3469 C603.54,89.0069 613.37,73.8369 627.5,66.1169 C659.1,48.8769 672.87,60.9769 708.5,66.1169 C765.14,74.2969 778.38,82.5569 832,102.5369 C837.6,104.6269 837.9377,104.6242 843.6177,107.0942" fill="none" id="Running-to-Pausing" style="stroke:#181818;stroke-width:1;"/><polygon fill="#181818" points="849.12,109.4869,842.4617,102.2296,844.5348,107.4929,839.2715,109.566,849.12,109.4869" style="stroke:#181818;stroke-width:1;"/><text fill="#000000" font-family="sans-serif" font-size="13" lengthAdjust="spacing" textLength="79.7646" x="628.5" y="68.6038">User pauses</text></g><!--link Pausing to Paused--><g class="link" data-entity-1="Pausing" data-entity-2="Paused" data-source-line="13" data-uid="lnk21" id="link_Pausing_Paused"><path d="M924.9,127.5369 C964.08,127.5369 1018.8,127.5369 1057.19,127.5369" fill="none" id="Pausing-to-Paused" style="stroke:#181818;stroke-width:1;"/><polygon fill="#181818" points="1063.19,127.5369,1054.19,123.5369,1058.19,127.5369,1054.19,131.5369,1063.19,127.5369" style="stroke:#181818;stroke-width:1;"/><text fill="#000000" font-family="sans-serif" font-size="13" lengthAdjust="spacing" textLength="103.6699" x="942.54" y="120.6038">Pause complete</text></g><!--link Paused to Resuming--><g class="link" data-entity-1="Paused" data-entity-2="Resuming" data-source-line="14" data-uid="lnk23" id="link_Paused_Resuming"><path d="M1134.41,127.5369 C1169.04,127.5369 1215.91,127.5369 1253.61,127.5369" fill="none" id="Paused-to-Resuming" style="stroke:#181818;stroke-width:1;"/><polygon fill="#181818" points="1259.61,127.5369,1250.61,123.5369,1254.61,127.5369,1250.61,131.5369,1259.61,127.5369" style="stroke:#181818;stroke-width:1;"/><text fill="#000000" font-family="sans-serif" font-size="13" lengthAdjust="spacing" textLength="89.5527" x="1152.72" y="120.6038">User resumes</text></g><!--link Resuming to Running--><g class="link" data-entity-1="Resuming" data-entity-2="Running" data-source-line="15" data-uid="lnk24" id="link_Resuming_Running"><path d="M1259.72,119.1069 C1143.2,97.9869 835.09,45.8869 734.5,66.1169 C696.51,73.7569 661.4495,88.8194 632.7195,103.2794" fill="none" id="Resuming-to-Running" style="stroke:#181818;stroke-width:1;"/><polygon fill="#181818" points="627.36,105.9769,637.1975,105.5037,631.8262,103.729,633.6009,98.3577,627.36,105.9769" style="stroke:#181818;stroke-width:1;"/><text fill="#000000" font-family="sans-serif" font-size="13" lengthAdjust="spacing" textLength="117.5586" x="735.5" y="68.6038">Resume complete</text></g><!--link Running to Stopping--><g class="link" data-entity-1="Running" data-entity-2="Stopping" data-source-line="16" data-uid="lnk26" id="link_Running_Stopping"><path d="M627.23,127.5369 C657.89,127.5369 694.38,127.5369 725.58,127.5369" fill="none" id="Running-to-Stopping" style="stroke:#181818;stroke-width:1;"/><polygon fill="#181818" points="731.58,127.5369,722.58,123.5369,726.58,127.5369,722.58,131.5369,731.58,127.5369" style="stroke:#181818;stroke-width:1;"/><text fill="#000000" font-family="sans-serif" font-size="13" lengthAdjust="spacing" textLength="68.6118" x="645.41" y="120.6038">User stops</text></g><!--link Stopping to Stopped--><g class="link" data-entity-1="Stopping" data-entity-2="Stopped" data-source-line="17" data-uid="lnk27" id="link_Stopping_Stopped"><path d="M813.93,102.0769 C838.24,88.4769 870.24,73.1169 901,66.1169 C942.6,56.6569 954.35,64.9969 997,66.1169 C1304.87,74.2169 1382.32,74.2269 1689,102.5369 C1740.91,107.3269 1794.5463,114.7977 1832.7163,120.5177" fill="none" id="Stopping-to-Stopped" style="stroke:#181818;stroke-width:1;"/><polygon fill="#181818" points="1838.65,121.4069,1830.3422,116.1172,1833.7052,120.6659,1829.1566,124.0289,1838.65,121.4069" style="stroke:#181818;stroke-width:1;"/><text fill="#000000" font-family="sans-serif" font-size="13" lengthAdjust="spacing" textLength="94.4087" x="902" y="68.6038">Stop complete</text></g><!--link Stopped to Starting--><g class="link" data-entity-1="Stopped" data-entity-2="Starting" data-source-line="18" data-uid="lnk28" id="link_Stopped_Starting"><path d="M1838.67,121.1769 C1800.52,115.2769 1740.96,106.7969 1689,102.5369 C1188.64,61.4769 1061.97,74.2169 560,66.1169 C521.78,65.5069 510.76,55.6469 474,66.1169 C449.1,73.2169 429.1886,85.0189 410.6686,98.5989" fill="none" id="Stopped-to-Starting" style="stroke:#181818;stroke-width:1;"/><polygon fill="#181818" points="405.83,102.1469,415.4532,100.0507,409.8622,99.1902,410.7226,93.5992,405.83,102.1469" style="stroke:#181818;stroke-width:1;"/><text fill="#000000" font-family="sans-serif" font-size="13" lengthAdjust="spacing" textLength="84.1572" x="475" y="68.6038">User restarts</text></g><!--link Stopped to *end*--><g class="link" data-entity-1="Stopped" data-entity-2=".end." data-source-line="19" data-uid="lnk30" id="link_Stopped_.end."><path d="M1917.43,127.5369 C1956.07,127.5369 2006.56,127.5369 2030.55,127.5369" fill="none" id="Stopped-to-*end*" style="stroke:#181818;stroke-width:1;"/><polygon fill="#181818" points="2036.55,127.5369,2027.55,123.5369,2031.55,127.5369,2027.55,131.5369,2036.55,127.5369" style="stroke:#181818;stroke-width:1;"/><text fill="#000000" font-family="sans-serif" font-size="13" lengthAdjust="spacing" textLength="83.0146" x="1935.55" y="120.6038">Flow deleted</text></g><!--SRC=[PPBDJWGX48JlF0Ld4r_0Wuc7DV6WCUgUZ0SSsWa92wIRMVNjBOPX5k8DghvK_wIpovxqlO_V-l13qv9T3FercqoYrFlLXxw-rGyMo4s59YPuLgqQFA2SNPZXlx6RPsBDD94xWzazS2zB21Mxyrw7Q4a06lixK0Vco62Uu6ifnfBqbt5UL0i0zSnn8f4QzuYNcUbIjNE7kWrCrVz7jjgTMYjNOyYg4ah6Cp6ITkGrnvJ80Zc6pJQVs1GLO9Z1BDi0Hy7E4hxOU5CtO0rQ7tgAf-GfazhqqWx9SkeokFmHikj3owlQvNIzh4rtGOA_g5qTnYglIqZJnqDetHH5UgRSqtP7bag0LNy0]--></g></svg>