<svg xmlns="http://www.w3.org/2000/svg" xmlns:xlink="http://www.w3.org/1999/xlink" contentStyleType="text/css" data-diagram-type="DESCRIPTION" height="212px" preserveAspectRatio="none" style="width:4187px;height:212px;background:#F5F5F5;" version="1.1" viewBox="0 0 4187 212" width="4187px" zoomAndPan="magnify"><title>VisualGridDev Studio - Deployment Flow Visualization</title><defs/><g><rect fill="#F5F5F5" height="212" style="stroke:none;stroke-width:1;" width="4187" x="0" y="0"/><g class="title" data-source-line="4"><text fill="#000000" font-family="Verdana" font-size="22" font-weight="bold" lengthAdjust="spacing" textLength="670.9785" x="1753.5667" y="35.4209">VisualGridDev Studio - Deployment Flow Visualization</text></g><!--cluster dev--><g class="cluster" data-entity="dev" data-source-line="6" data-uid="ent0002" id="cluster_dev"><rect fill="#FFFFFF" height="103.59" rx="2.5" ry="2.5" style="stroke:#000000;stroke-width:1;" width="666" x="12" y="102.6894"/><text fill="#000000" font-family="Verdana" font-size="14" font-weight="bold" lengthAdjust="spacing" textLength="104.918" x="292.541" y="117.6845">Development</text></g><!--cluster cicd--><g class="cluster" data-entity="cicd" data-source-line="12" data-uid="ent0006" id="cluster_cicd"><rect fill="#FFFFFF" height="103.59" rx="2.5" ry="2.5" style="stroke:#000000;stroke-width:1;" width="955" x="762" y="102.6894"/><text fill="#000000" font-family="Verdana" font-size="14" font-weight="bold" lengthAdjust="spacing" textLength="111.002" x="1183.999" y="117.6845">CI/CD Pipeline</text></g><!--cluster staging--><g class="cluster" data-entity="staging" data-source-line="19" data-uid="ent0011" id="cluster_staging"><rect fill="#FFFFFF" height="103.59" rx="2.5" ry="2.5" style="stroke:#000000;stroke-width:1;" width="711" x="1843" y="102.6894"/><text fill="#000000" font-family="Verdana" font-size="14" font-weight="bold" lengthAdjust="spacing" textLength="166.5918" x="2115.2041" y="117.6845">Staging Environment</text></g><!--cluster production--><g class="cluster" data-entity="production" data-source-line="25" data-uid="ent0015" id="cluster_production"><rect fill="#FFFFFF" height="103.59" rx="2.5" ry="2.5" style="stroke:#000000;stroke-width:1;" width="708" x="2704" y="102.6894"/><text fill="#000000" font-family="Verdana" font-size="14" font-weight="bold" lengthAdjust="spacing" textLength="191.707" x="2962.1465" y="117.6845">Production Environment</text></g><!--entity developer--><g class="entity" data-entity="developer" data-source-line="7" data-uid="ent0003" id="entity_developer"><rect fill="#FFFFFF" height="52.5938" rx="2.5" ry="2.5" style="stroke:#000000;stroke-width:1;" width="113.2559" x="28.37" y="137.6894"/><text fill="#000000" font-family="Verdana" font-size="14" lengthAdjust="spacing" textLength="93.2559" x="38.37" y="160.6845">&#128104;&#8205;&#128187; Developer</text><text fill="#000000" font-family="Verdana" font-size="14" lengthAdjust="spacing" textLength="84.4512" x="38.37" y="176.9814">Workstation</text></g><!--entity testing--><g class="entity" data-entity="testing" data-source-line="8" data-uid="ent0004" id="entity_testing"><rect fill="#FFFFFF" height="52.5938" rx="2.5" ry="2.5" style="stroke:#000000;stroke-width:1;" width="125.4307" x="268.28" y="137.6894"/><text fill="#000000" font-family="Verdana" font-size="14" lengthAdjust="spacing" textLength="105.4307" x="278.28" y="160.6845">&#128295; Local Testing</text><text fill="#000000" font-family="Verdana" font-size="14" lengthAdjust="spacing" textLength="85.5859" x="278.28" y="176.9814">&amp; Validation</text></g><!--entity git--><g class="entity" data-entity="git" data-source-line="9" data-uid="ent0005" id="entity_git"><rect fill="#FFFFFF" height="52.5938" rx="2.5" ry="2.5" style="stroke:#000000;stroke-width:1;" width="132.6016" x="529.7" y="137.6894"/><text fill="#000000" font-family="Verdana" font-size="14" lengthAdjust="spacing" textLength="112.6016" x="539.7" y="160.6845">&#128221; Git Repository</text><text fill="#000000" font-family="Verdana" font-size="14" lengthAdjust="spacing" textLength="99.6064" x="539.7" y="176.9814">(Source Code)</text></g><!--entity build--><g class="entity" data-entity="build" data-source-line="13" data-uid="ent0007" id="entity_build"><rect fill="#FFFFFF" height="52.5938" rx="2.5" ry="2.5" style="stroke:#000000;stroke-width:1;" width="136.0332" x="777.98" y="137.6894"/><text fill="#000000" font-family="Verdana" font-size="14" lengthAdjust="spacing" textLength="106.1074" x="787.98" y="160.6845">&#127959;&#65039; Build Process</text><text fill="#000000" font-family="Verdana" font-size="14" lengthAdjust="spacing" textLength="116.0332" x="787.98" y="176.9814">(Docker Images)</text></g><!--entity tests--><g class="entity" data-entity="tests" data-source-line="14" data-uid="ent0008" id="entity_tests"><rect fill="#FFFFFF" height="52.5938" rx="2.5" ry="2.5" style="stroke:#000000;stroke-width:1;" width="152.2549" x="1007.87" y="137.6894"/><text fill="#000000" font-family="Verdana" font-size="14" lengthAdjust="spacing" textLength="132.2549" x="1017.87" y="160.6845">&#129514; Automated Tests</text><text fill="#000000" font-family="Verdana" font-size="14" lengthAdjust="spacing" textLength="121.2832" x="1017.87" y="176.9814">(Unit/Integration)</text></g><!--entity registry--><g class="entity" data-entity="registry" data-source-line="15" data-uid="ent0009" id="entity_registry"><rect fill="#FFFFFF" height="52.5938" rx="2.5" ry="2.5" style="stroke:#000000;stroke-width:1;" width="154.9277" x="1278.54" y="137.6894"/><text fill="#000000" font-family="Verdana" font-size="14" lengthAdjust="spacing" textLength="126.6494" x="1288.54" y="160.6845">&#128230; Artifact Registry</text><text fill="#000000" font-family="Verdana" font-size="14" lengthAdjust="spacing" textLength="134.9277" x="1288.54" y="176.9814">(Container Images)</text></g><!--entity deploy--><g class="entity" data-entity="deploy" data-source-line="16" data-uid="ent0010" id="entity_deploy"><rect fill="#FFFFFF" height="52.5938" rx="2.5" ry="2.5" style="stroke:#000000;stroke-width:1;" width="118.4854" x="1582.76" y="137.6894"/><text fill="#000000" font-family="Verdana" font-size="14" lengthAdjust="spacing" textLength="98.4854" x="1592.76" y="160.6845">&#128640; Deployment</text><text fill="#000000" font-family="Verdana" font-size="14" lengthAdjust="spacing" textLength="88.8877" x="1592.76" y="176.9814">Orchestrator</text></g><!--entity stagingk8s--><g class="entity" data-entity="stagingk8s" data-source-line="20" data-uid="ent0012" id="entity_stagingk8s"><rect fill="#FFFFFF" height="52.5938" rx="2.5" ry="2.5" style="stroke:#000000;stroke-width:1;" width="140.4834" x="1858.76" y="137.6894"/><text fill="#000000" font-family="Verdana" font-size="14" lengthAdjust="spacing" textLength="120.4834" x="1868.76" y="160.6845">&#127917; Staging Cluster</text><text fill="#000000" font-family="Verdana" font-size="14" lengthAdjust="spacing" textLength="36.3057" x="1868.76" y="176.9814">(K8s)</text></g><!--entity perftest--><g class="entity" data-entity="perftest" data-source-line="21" data-uid="ent0013" id="entity_perftest"><rect fill="#FFFFFF" height="52.5938" rx="2.5" ry="2.5" style="stroke:#000000;stroke-width:1;" width="164.0059" x="2093" y="137.6894"/><text fill="#000000" font-family="Verdana" font-size="14" lengthAdjust="spacing" textLength="144.0059" x="2103" y="160.6845">&#128269; Performance Tests</text><text fill="#000000" font-family="Verdana" font-size="14" lengthAdjust="spacing" textLength="85.5859" x="2103" y="176.9814">&amp; Validation</text></g><!--entity approval--><g class="entity" data-entity="approval" data-source-line="22" data-uid="ent0014" id="entity_approval"><rect fill="#FFFFFF" height="52.5938" rx="2.5" ry="2.5" style="stroke:#000000;stroke-width:1;" width="133.2578" x="2404.37" y="137.6894"/><text fill="#000000" font-family="Verdana" font-size="14" lengthAdjust="spacing" textLength="113.2578" x="2414.37" y="160.6845">&#9989; Approval Gate</text><text fill="#000000" font-family="Verdana" font-size="14" lengthAdjust="spacing" textLength="99.0186" x="2414.37" y="176.9814">(Manual/Auto)</text></g><!--entity prodk8s--><g class="entity" data-entity="prodk8s" data-source-line="26" data-uid="ent0016" id="entity_prodk8s"><rect fill="#FFFFFF" height="52.5938" rx="2.5" ry="2.5" style="stroke:#000000;stroke-width:1;" width="162.0303" x="2719.98" y="137.6894"/><text fill="#000000" font-family="Verdana" font-size="14" lengthAdjust="spacing" textLength="142.0303" x="2729.98" y="160.6845">&#127760; Production Cluster</text><text fill="#000000" font-family="Verdana" font-size="14" lengthAdjust="spacing" textLength="98.752" x="2729.98" y="176.9814">(Multi-Region)</text></g><!--entity monitoring--><g class="entity" data-entity="monitoring" data-source-line="27" data-uid="ent0017" id="entity_monitoring"><rect fill="#FFFFFF" height="52.5938" rx="2.5" ry="2.5" style="stroke:#000000;stroke-width:1;" width="128.1309" x="3008.93" y="137.6894"/><text fill="#000000" font-family="Verdana" font-size="14" lengthAdjust="spacing" textLength="87.7188" x="3018.93" y="160.6845">&#128202; Monitoring</text><text fill="#000000" font-family="Verdana" font-size="14" lengthAdjust="spacing" textLength="108.1309" x="3018.93" y="176.9814">&amp; Observability</text></g><!--entity autoscaling--><g class="entity" data-entity="autoscaling" data-source-line="28" data-uid="ent0018" id="entity_autoscaling"><rect fill="#FFFFFF" height="52.5938" rx="2.5" ry="2.5" style="stroke:#000000;stroke-width:1;" width="119.5176" x="3276.24" y="137.6894"/><text fill="#000000" font-family="Verdana" font-size="14" lengthAdjust="spacing" textLength="99.5176" x="3286.24" y="160.6845">&#128260; Auto-scaling</text><text fill="#000000" font-family="Verdana" font-size="14" lengthAdjust="spacing" textLength="98.3418" x="3286.24" y="176.9814">&amp; Self-healing</text></g><g class="entity" data-entity="GMN31" data-source-line="44" data-uid="ent0032" id="entity_GMN31"><path d="M3430.51,143.8494 L3430.51,184.115 L3567.4944,184.115 L3567.4944,153.8494 L3557.4944,143.8494 L3430.51,143.8494" fill="#FFFFFF" style="stroke:#000000;stroke-width:1;"/><path d="M3557.4944,143.8494 L3557.4944,153.8494 L3567.4944,153.8494 L3557.4944,143.8494" fill="#FFFFFF" style="stroke:#000000;stroke-width:1;"/><text fill="#000000" font-family="Verdana" font-size="13" lengthAdjust="spacing" textLength="115.4258" x="3436.51" y="160.9163">Multi-stage builds</text><text fill="#000000" font-family="Verdana" font-size="13" lengthAdjust="spacing" textLength="115.9844" x="3436.51" y="176.0491">Security scanning</text></g><g class="entity" data-entity="GMN34" data-source-line="45" data-uid="ent0035" id="entity_GMN34"><path d="M3602.36,143.8494 L3602.36,184.115 L3733.6315,184.115 L3733.6315,153.8494 L3723.6315,143.8494 L3602.36,143.8494" fill="#FFFFFF" style="stroke:#000000;stroke-width:1;"/><path d="M3723.6315,143.8494 L3723.6315,153.8494 L3733.6315,153.8494 L3723.6315,143.8494" fill="#FFFFFF" style="stroke:#000000;stroke-width:1;"/><text fill="#000000" font-family="Verdana" font-size="13" lengthAdjust="spacing" textLength="110.2715" x="3608.36" y="160.9163">Unit, integration,</text><text fill="#000000" font-family="Verdana" font-size="13" lengthAdjust="spacing" textLength="107.2817" x="3608.36" y="176.0491">end-to-end tests</text></g><g class="entity" data-entity="GMN37" data-source-line="46" data-uid="ent0038" id="entity_GMN37"><path d="M3768.91,143.8494 L3768.91,184.115 L3943.0916,184.115 L3943.0916,153.8494 L3933.0916,143.8494 L3768.91,143.8494" fill="#FFFFFF" style="stroke:#000000;stroke-width:1;"/><path d="M3933.0916,143.8494 L3933.0916,153.8494 L3943.0916,153.8494 L3933.0916,143.8494" fill="#FFFFFF" style="stroke:#000000;stroke-width:1;"/><text fill="#000000" font-family="Verdana" font-size="13" lengthAdjust="spacing" textLength="153.1816" x="3774.91" y="160.9163">Blue-green deployment</text><text fill="#000000" font-family="Verdana" font-size="13" lengthAdjust="spacing" textLength="104.8823" x="3774.91" y="176.0491">Canary releases</text></g><g class="entity" data-entity="GMN40" data-source-line="47" data-uid="ent0041" id="entity_GMN40"><path d="M3977.88,143.8494 L3977.88,184.115 L4180.1119,184.115 L4180.1119,153.8494 L4170.1119,143.8494 L3977.88,143.8494" fill="#FFFFFF" style="stroke:#000000;stroke-width:1;"/><path d="M4170.1119,143.8494 L4170.1119,153.8494 L4180.1119,153.8494 L4170.1119,143.8494" fill="#FFFFFF" style="stroke:#000000;stroke-width:1;"/><text fill="#000000" font-family="Verdana" font-size="13" lengthAdjust="spacing" textLength="101.0229" x="3983.88" y="160.9163">Rolling updates</text><text fill="#000000" font-family="Verdana" font-size="13" lengthAdjust="spacing" textLength="181.2319" x="3983.88" y="176.0491">Zero-downtime deployment</text></g><!--link developer to testing--><g class="link" data-entity-1="developer" data-entity-2="testing" data-source-line="31" data-uid="lnk19" id="link_developer_testing"><path d="M142.06,163.9794 C179.81,163.9794 223.33,163.9794 262.21,163.9794" fill="none" id="developer-to-testing" style="stroke:#000000;stroke-width:1;"/><polygon fill="#000000" points="268.21,163.9794,259.21,159.9794,263.21,163.9794,259.21,167.9794,268.21,163.9794" style="stroke:#000000;stroke-width:1;"/><text fill="#000000" font-family="Verdana" font-size="13" lengthAdjust="spacing" textLength="90.0986" x="159.96" y="157.0463">code changes</text></g><!--link testing to git--><g class="link" data-entity-1="testing" data-entity-2="git" data-source-line="32" data-uid="lnk20" id="link_testing_git"><path d="M394.14,163.9794 C435.01,163.9794 482.15,163.9794 523.65,163.9794" fill="none" id="testing-to-git" style="stroke:#000000;stroke-width:1;"/><polygon fill="#000000" points="529.65,163.9794,520.65,159.9794,524.65,163.9794,520.65,167.9794,529.65,163.9794" style="stroke:#000000;stroke-width:1;"/><text fill="#000000" font-family="Verdana" font-size="13" lengthAdjust="spacing" textLength="99.0425" x="412.21" y="157.0463">commit &amp; push</text></g><!--link git to build--><g class="link" data-entity-1="git" data-entity-2="build" data-source-line="33" data-uid="lnk21" id="link_git_build"><path d="M662.67,163.9794 C698.25,163.9794 735.96,163.9794 771.78,163.9794" fill="none" id="git-to-build" style="stroke:#000000;stroke-width:1;"/><polygon fill="#000000" points="777.78,163.9794,768.78,159.9794,772.78,163.9794,768.78,167.9794,777.78,163.9794" style="stroke:#000000;stroke-width:1;"/><text fill="#000000" font-family="Verdana" font-size="13" lengthAdjust="spacing" textLength="79.9995" x="680.64" y="180.0463">trigger build</text></g><!--link build to tests--><g class="link" data-entity-1="build" data-entity-2="tests" data-source-line="34" data-uid="lnk22" id="link_build_tests"><path d="M914.2,163.9794 C943.32,163.9794 971.44,163.9794 1001.42,163.9794" fill="none" id="build-to-tests" style="stroke:#000000;stroke-width:1;"/><polygon fill="#000000" points="1007.42,163.9794,998.42,159.9794,1002.42,163.9794,998.42,167.9794,1007.42,163.9794" style="stroke:#000000;stroke-width:1;"/><text fill="#000000" font-family="Verdana" font-size="13" lengthAdjust="spacing" textLength="57.6938" x="932.44" y="157.0463">run tests</text></g><!--link tests to registry--><g class="link" data-entity-1="tests" data-entity-2="registry" data-source-line="35" data-uid="lnk23" id="link_tests_registry"><path d="M1160.49,163.9794 C1197.26,163.9794 1235.26,163.9794 1272.2,163.9794" fill="none" id="tests-to-registry" style="stroke:#000000;stroke-width:1;"/><polygon fill="#000000" points="1278.2,163.9794,1269.2,159.9794,1273.2,163.9794,1269.2,167.9794,1278.2,163.9794" style="stroke:#000000;stroke-width:1;"/><text fill="#000000" font-family="Verdana" font-size="13" lengthAdjust="spacing" textLength="82.9004" x="1178.33" y="157.0463">push images</text></g><!--link registry to deploy--><g class="link" data-entity-1="registry" data-entity-2="deploy" data-source-line="36" data-uid="lnk24" id="link_registry_deploy"><path d="M1433.77,163.9794 C1480.58,163.9794 1533.26,163.9794 1576.39,163.9794" fill="none" id="registry-to-deploy" style="stroke:#000000;stroke-width:1;"/><polygon fill="#000000" points="1582.39,163.9794,1573.39,159.9794,1577.39,163.9794,1573.39,167.9794,1582.39,163.9794" style="stroke:#000000;stroke-width:1;"/><text fill="#000000" font-family="Verdana" font-size="13" lengthAdjust="spacing" textLength="113.2676" x="1451.61" y="157.0463">deploy to staging</text></g><!--link deploy to stagingk8s--><g class="link" data-entity-1="deploy" data-entity-2="stagingk8s" data-source-line="37" data-uid="lnk25" id="link_deploy_stagingk8s"><path d="M1701.47,163.9794 C1747.11,163.9794 1804.27,163.9794 1852.46,163.9794" fill="none" id="deploy-to-stagingk8s" style="stroke:#000000;stroke-width:1;"/><polygon fill="#000000" points="1858.46,163.9794,1849.46,159.9794,1853.46,163.9794,1849.46,167.9794,1858.46,163.9794" style="stroke:#000000;stroke-width:1;"/><text fill="#000000" font-family="Verdana" font-size="13" lengthAdjust="spacing" textLength="121.3608" x="1719.5" y="180.0463">kubernetes deploy</text></g><!--link stagingk8s to perftest--><g class="link" data-entity-1="stagingk8s" data-entity-2="perftest" data-source-line="38" data-uid="lnk26" id="link_stagingk8s_perftest"><path d="M1999.49,163.9794 C2028.6,163.9794 2056.53,163.9794 2086.76,163.9794" fill="none" id="stagingk8s-to-perftest" style="stroke:#000000;stroke-width:1;"/><polygon fill="#000000" points="2092.76,163.9794,2083.76,159.9794,2087.76,163.9794,2083.76,167.9794,2092.76,163.9794" style="stroke:#000000;stroke-width:1;"/><text fill="#000000" font-family="Verdana" font-size="13" lengthAdjust="spacing" textLength="57.6938" x="2017.62" y="157.0463">run tests</text></g><!--link perftest to approval--><g class="link" data-entity-1="perftest" data-entity-2="approval" data-source-line="39" data-uid="lnk27" id="link_perftest_approval"><path d="M2257.45,163.9794 C2303.64,163.9794 2354.5,163.9794 2397.93,163.9794" fill="none" id="perftest-to-approval" style="stroke:#000000;stroke-width:1;"/><polygon fill="#000000" points="2403.93,163.9794,2394.93,159.9794,2398.93,163.9794,2394.93,167.9794,2403.93,163.9794" style="stroke:#000000;stroke-width:1;"/><text fill="#000000" font-family="Verdana" font-size="13" lengthAdjust="spacing" textLength="111.9727" x="2275.19" y="157.0463">validation results</text></g><!--link approval to prodk8s--><g class="link" data-entity-1="approval" data-entity-2="prodk8s" data-source-line="40" data-uid="lnk28" id="link_approval_prodk8s"><path d="M2537.78,163.9794 C2590.33,163.9794 2657.77,163.9794 2713.72,163.9794" fill="none" id="approval-to-prodk8s" style="stroke:#000000;stroke-width:1;"/><polygon fill="#000000" points="2719.72,163.9794,2710.72,159.9794,2714.72,163.9794,2710.72,167.9794,2719.72,163.9794" style="stroke:#000000;stroke-width:1;"/><text fill="#000000" font-family="Verdana" font-size="13" lengthAdjust="spacing" textLength="146.6689" x="2555.81" y="180.0463">promote to production</text></g><!--link prodk8s to monitoring--><g class="link" data-entity-1="prodk8s" data-entity-2="monitoring" data-source-line="41" data-uid="lnk29" id="link_prodk8s_monitoring"><path d="M2882.24,163.9794 C2922.63,163.9794 2964.75,163.9794 3002.56,163.9794" fill="none" id="prodk8s-to-monitoring" style="stroke:#000000;stroke-width:1;"/><polygon fill="#000000" points="3008.56,163.9794,2999.56,159.9794,3003.56,163.9794,2999.56,167.9794,3008.56,163.9794" style="stroke:#000000;stroke-width:1;"/><text fill="#000000" font-family="Verdana" font-size="13" lengthAdjust="spacing" textLength="90.1177" x="2900.47" y="157.0463">health checks</text></g><!--link monitoring to autoscaling--><g class="link" data-entity-1="monitoring" data-entity-2="autoscaling" data-source-line="42" data-uid="lnk30" id="link_monitoring_autoscaling"><path d="M3137.34,163.9794 C3179.61,163.9794 3228.55,163.9794 3269.93,163.9794" fill="none" id="monitoring-to-autoscaling" style="stroke:#000000;stroke-width:1;"/><polygon fill="#000000" points="3275.93,163.9794,3266.93,159.9794,3270.93,163.9794,3266.93,167.9794,3275.93,163.9794" style="stroke:#000000;stroke-width:1;"/><text fill="#000000" font-family="Verdana" font-size="13" lengthAdjust="spacing" textLength="103.8286" x="3155.15" y="157.0463">metrics &amp; alerts</text></g><!--link build to GMN31--><g class="link" data-entity-1="build" data-entity-2="GMN31" data-source-line="44" data-uid="lnk33" id="link_build_GMN31"><path d="M884.02,137.3794 C915.48,117.0894 962.19,90.7994 1007.5,79.6894 C1071.9,63.8894 3331.98,57.6094 3394.5,79.6894 C3430.33,92.3394 3462.9,123.0494 3481.83,143.6994" fill="none" id="build-GMN31" style="stroke:#000000;stroke-width:1;stroke-dasharray:7,7;"/></g><!--link tests to GMN34--><g class="link" data-entity-1="tests" data-entity-2="GMN34" data-source-line="45" data-uid="lnk36" id="link_tests_GMN34"><path d="M1130.56,137.3294 C1168.88,117.0094 1225.35,90.7094 1278.5,79.6894 C1340.76,66.7694 3507.75,57.9494 3567.5,79.6894 C3602.38,92.3794 3633.59,123.0794 3651.66,143.7194" fill="none" id="tests-GMN34" style="stroke:#000000;stroke-width:1;stroke-dasharray:7,7;"/></g><!--link stagingk8s to GMN37--><g class="link" data-entity-1="stagingk8s" data-entity-2="GMN37" data-source-line="46" data-uid="lnk39" id="link_stagingk8s_GMN37"><path d="M1967.54,137.3794 C1999.42,117.0794 2046.72,90.7894 2092.5,79.6894 C2136.8,68.9394 3689.97,66.1594 3733.5,79.6894 C3773.68,92.1794 3812.36,122.9394 3835.16,143.6394" fill="none" id="stagingk8s-GMN37" style="stroke:#000000;stroke-width:1;stroke-dasharray:7,7;"/></g><!--link prodk8s to GMN40--><g class="link" data-entity-1="prodk8s" data-entity-2="GMN40" data-source-line="47" data-uid="lnk42" id="link_prodk8s_GMN40"><path d="M2850.89,137.3194 C2891.9,116.9894 2952.21,90.6794 3008.5,79.6894 C3059.48,69.7294 3893.55,65.4194 3943.5,79.6894 C3986.92,92.0894 4029.98,122.8694 4055.54,143.5994" fill="none" id="prodk8s-GMN40" style="stroke:#000000;stroke-width:1;stroke-dasharray:7,7;"/></g><!--SRC=[RLNHQjH057tFLrmhb1OQ-YIKF0ZjhfQYfQMh5MHVPfExsM4dCs5cigMAq0Tz4MlL5WHH-cP5y5tmR_e3zXEyaqmssqGMajsvzzmxvzmpitVi13E4N30k0pFbCcUQPJ1YyJJLgf19JmcbuUxudli4WULM81noKp2nhNdInnaCR95m1I7qCHVgE4DfuQ5GHpwDls2MAna46cFBP4hu9OAXKBbBNG9c8A4oBmE0XPIRouy_hazERou__G6VZdeedoazDRQiM2EhK1jzSGMFLSm4F45ZkKo7SXaEQJT9WxLLf8qy_mRRtC81vifmg_JnKAuCLA5ZX9vASBN4fjm6hsvnwksiz_gmptCKN6AP5FCuwV8w-_ptznbi5LmaiAzLZCPGXxwAfwXX9sCfcgh7oAMqqLS_OREmAcCMavAR0p-LtAxlI8kfBkcjplcP3hlliAaj7xFOKKoviIN1dfAMFD3QWVO9xI9VJXQ6FPHxEfvGB-gjj9-A2xO46bYMajpmGCwuLd8-VEFNEqAz_mKrfYSAOztyLnvj-Brvs7IZG_7Y5FPHZvNEcAIXUP4wuoVJZ9r4j-7NNz_0PfvhDIFlR9FAr7ENIJBokjEzwiryGeiXJJCfOjUWGp9lGXsUxpx00hAXkbi8oqCtf7gYhif_29-_XLqbdLUzqVT61lMCZRZWzhX4PlDuHwtNfQ52GuV5mmSenk44ozyLNqhmSKTvVkWWl5-VeWXYEXmGJwWmci2lkWGwAYwOPNIebY4lp2IW9HSf3Hw1rJnDgLZbz_9P5pOHw49w9vTF5wbj6PNLW9UE3UfLbr4PCF9liAgsI-1NAASnK0JJOeHQ8dMelTj4NMxjbSNjr6ikNXiYWjdSPBHDGnCqGHqi2rKJZDoNJ5bqMsky4VYmosmc5e6RXPsGk1XFJT14ojRDR2B8aCIC3UdC16hg7KZNX0IUM53ZIcA8eBAMuuZL6XsG0SQ59hy0LPFIQNKRMyaVWRjire0tjytQKA9CGl8GlRmujw4BOaQm9GeCKuqelTRL9T9Zaj7mD0fa1jiLQc4YE532SOKY9vcHzlqSjGeJTIGjfx-ofcJm3m00]--></g></svg>