<svg xmlns="http://www.w3.org/2000/svg" xmlns:xlink="http://www.w3.org/1999/xlink" contentStyleType="text/css" data-diagram-type="TIMING" height="394px" preserveAspectRatio="none" style="width:514px;height:394px;background:#FFFFFF;" version="1.1" viewBox="0 0 514 394" width="514px" zoomAndPan="magnify"><title>Self-Healing Response Timing</title><defs/><g><g class="title" data-source-line="1"><text fill="#000000" font-family="sans-serif" font-size="14" font-weight="bold" lengthAdjust="spacing" textLength="236.0381" x="105.2983" y="32.9951">Self-Healing Response Timing</text></g><line style="stroke:#333333;stroke-width:0.5;" x1="10" x2="10" y1="47.2969" y2="364.4844"/><line style="stroke:#333333;stroke-width:0.5;" x1="437.6348" x2="437.6348" y1="47.2969" y2="364.4844"/><line style="stroke:#333333;stroke-width:0.5;stroke-dasharray:3,5;" x1="82.6348" x2="82.6348" y1="47.2969" y2="364.4844"/><line style="stroke:#333333;stroke-width:0.5;stroke-dasharray:3,5;" x1="132.6348" x2="132.6348" y1="47.2969" y2="364.4844"/><line style="stroke:#333333;stroke-width:0.5;stroke-dasharray:3,5;" x1="182.6348" x2="182.6348" y1="47.2969" y2="364.4844"/><line style="stroke:#333333;stroke-width:0.5;stroke-dasharray:3,5;" x1="232.6348" x2="232.6348" y1="47.2969" y2="364.4844"/><line style="stroke:#333333;stroke-width:0.5;stroke-dasharray:3,5;" x1="282.6348" x2="282.6348" y1="47.2969" y2="364.4844"/><line style="stroke:#333333;stroke-width:0.5;stroke-dasharray:3,5;" x1="332.6348" x2="332.6348" y1="47.2969" y2="364.4844"/><line style="stroke:#333333;stroke-width:0.5;stroke-dasharray:3,5;" x1="382.6348" x2="382.6348" y1="47.2969" y2="364.4844"/><line style="stroke:#333333;stroke-width:0.5;stroke-dasharray:3,5;" x1="432.6348" x2="432.6348" y1="47.2969" y2="364.4844"/><line style="stroke:#333333;stroke-width:0.5;" x1="10" x2="437.6348" y1="47.2969" y2="47.2969"/><text fill="#333333" font-family="sans-serif" font-size="14" font-weight="bold" lengthAdjust="spacing" textLength="124.7217" x="15" y="60.292">System Monitor</text><line style="stroke:#333333;stroke-width:0.5;" x1="10" x2="140.7217" y1="64.5938" y2="64.5938"/><line style="stroke:#333333;stroke-width:0.5;" x1="140.7217" x2="150.7217" y1="64.5938" y2="47.2969"/><text fill="#333333" font-family="sans-serif" font-size="12" lengthAdjust="spacing" textLength="59.6309" x="18.0039" y="94.748">Collecting</text><text fill="#333333" font-family="sans-serif" font-size="12" lengthAdjust="spacing" textLength="58.459" x="18.0039" y="74.748">Analyzing</text><line style="stroke:#006400;stroke-width:2;" x1="82.6348" x2="132.6348" y1="89.5938" y2="89.5938"/><line style="stroke:#006400;stroke-width:2;" x1="132.6348" x2="382.6348" y1="69.5938" y2="69.5938"/><line style="stroke:#006400;stroke-width:2;" x1="382.6348" x2="432.6348" y1="89.5938" y2="89.5938"/><line style="stroke:#006400;stroke-width:2;" x1="132.6348" x2="132.6348" y1="69.5938" y2="89.5938"/><line style="stroke:#006400;stroke-width:2;" x1="382.6348" x2="382.6348" y1="69.5938" y2="89.5938"/><text fill="#333333" font-family="sans-serif" font-size="12" lengthAdjust="spacing" textLength="94.7051" x="134.6348" y="66.7637">Process metrics</text><text fill="#333333" font-family="sans-serif" font-size="12" lengthAdjust="spacing" textLength="117.9727" x="384.6348" y="86.7637">Resume monitoring</text><line style="stroke:#333333;stroke-width:0.5;" x1="10" x2="437.6348" y1="101.5938" y2="101.5938"/><text fill="#333333" font-family="sans-serif" font-size="14" font-weight="bold" lengthAdjust="spacing" textLength="149.9326" x="15" y="114.5889">Anomaly Detection</text><line style="stroke:#333333;stroke-width:0.5;" x1="10" x2="165.9326" y1="118.8906" y2="118.8906"/><line style="stroke:#333333;stroke-width:0.5;" x1="165.9326" x2="175.9326" y1="118.8906" y2="101.5938"/><text fill="#333333" font-family="sans-serif" font-size="12" lengthAdjust="spacing" textLength="43.6289" x="19.0645" y="169.0449">Normal</text><text fill="#333333" font-family="sans-serif" font-size="12" lengthAdjust="spacing" textLength="58.5703" x="19.0645" y="149.0449">Detecting</text><text fill="#333333" font-family="sans-serif" font-size="12" lengthAdjust="spacing" textLength="28.5645" x="19.0645" y="129.0449">Alert</text><line style="stroke:#006400;stroke-width:2;" x1="82.6348" x2="132.6348" y1="163.8906" y2="163.8906"/><line style="stroke:#006400;stroke-width:2;" x1="132.6348" x2="182.6348" y1="143.8906" y2="143.8906"/><line style="stroke:#006400;stroke-width:2;" x1="182.6348" x2="382.6348" y1="123.8906" y2="123.8906"/><line style="stroke:#006400;stroke-width:2;" x1="382.6348" x2="432.6348" y1="163.8906" y2="163.8906"/><line style="stroke:#006400;stroke-width:2;" x1="132.6348" x2="132.6348" y1="143.8906" y2="163.8906"/><line style="stroke:#006400;stroke-width:2;" x1="182.6348" x2="182.6348" y1="123.8906" y2="143.8906"/><line style="stroke:#006400;stroke-width:2;" x1="382.6348" x2="382.6348" y1="123.8906" y2="163.8906"/><text fill="#333333" font-family="sans-serif" font-size="12" lengthAdjust="spacing" textLength="91.2832" x="134.6348" y="141.0605">Check patterns</text><text fill="#333333" font-family="sans-serif" font-size="12" lengthAdjust="spacing" textLength="95.6543" x="184.6348" y="121.0605">Anomaly found!</text><text fill="#333333" font-family="sans-serif" font-size="12" lengthAdjust="spacing" textLength="57.2109" x="384.6348" y="161.0605">No issues</text><line style="stroke:#333333;stroke-width:0.5;" x1="10" x2="437.6348" y1="175.8906" y2="175.8906"/><text fill="#333333" font-family="sans-serif" font-size="14" font-weight="bold" lengthAdjust="spacing" textLength="127.9277" x="15" y="188.8857">Recovery Action</text><line style="stroke:#333333;stroke-width:0.5;" x1="10" x2="143.9277" y1="193.1875" y2="193.1875"/><line style="stroke:#333333;stroke-width:0.5;" x1="143.9277" x2="153.9277" y1="193.1875" y2="175.8906"/><text fill="#333333" font-family="sans-serif" font-size="12" lengthAdjust="spacing" textLength="21.873" x="18.4629" y="283.3418">Idle</text><text fill="#333333" font-family="sans-serif" font-size="12" lengthAdjust="spacing" textLength="51.6914" x="18.4629" y="263.3418">Planning</text><text fill="#333333" font-family="sans-serif" font-size="12" lengthAdjust="spacing" textLength="59.5313" x="18.4629" y="243.3418">Executing</text><text fill="#333333" font-family="sans-serif" font-size="12" lengthAdjust="spacing" textLength="64.1719" x="18.4629" y="223.3418">Monitoring</text><text fill="#333333" font-family="sans-serif" font-size="12" lengthAdjust="spacing" textLength="57.832" x="18.4629" y="203.3418">Complete</text><line style="stroke:#006400;stroke-width:2;" x1="82.6348" x2="182.6348" y1="278.1875" y2="278.1875"/><line style="stroke:#006400;stroke-width:2;" x1="182.6348" x2="232.6348" y1="258.1875" y2="258.1875"/><line style="stroke:#006400;stroke-width:2;" x1="232.6348" x2="282.6348" y1="238.1875" y2="238.1875"/><line style="stroke:#006400;stroke-width:2;" x1="282.6348" x2="332.6348" y1="218.1875" y2="218.1875"/><line style="stroke:#006400;stroke-width:2;" x1="332.6348" x2="382.6348" y1="198.1875" y2="198.1875"/><line style="stroke:#006400;stroke-width:2;" x1="382.6348" x2="432.6348" y1="278.1875" y2="278.1875"/><line style="stroke:#006400;stroke-width:2;" x1="182.6348" x2="182.6348" y1="258.1875" y2="278.1875"/><line style="stroke:#006400;stroke-width:2;" x1="232.6348" x2="232.6348" y1="238.1875" y2="258.1875"/><line style="stroke:#006400;stroke-width:2;" x1="282.6348" x2="282.6348" y1="218.1875" y2="238.1875"/><line style="stroke:#006400;stroke-width:2;" x1="332.6348" x2="332.6348" y1="198.1875" y2="218.1875"/><line style="stroke:#006400;stroke-width:2;" x1="382.6348" x2="382.6348" y1="198.1875" y2="278.1875"/><text fill="#333333" font-family="sans-serif" font-size="12" lengthAdjust="spacing" textLength="82.1191" x="184.6348" y="255.3574">Plan recovery</text><text fill="#333333" font-family="sans-serif" font-size="12" lengthAdjust="spacing" textLength="95.3613" x="234.6348" y="235.3574">Execute actions</text><text fill="#333333" font-family="sans-serif" font-size="12" lengthAdjust="spacing" textLength="93.0586" x="284.6348" y="215.3574">Check progress</text><text fill="#333333" font-family="sans-serif" font-size="12" lengthAdjust="spacing" textLength="88.9629" x="334.6348" y="195.3574">Action finished</text><text fill="#333333" font-family="sans-serif" font-size="12" lengthAdjust="spacing" textLength="88.7168" x="384.6348" y="275.3574">Ready for next</text><line style="stroke:#333333;stroke-width:0.5;" x1="10" x2="437.6348" y1="290.1875" y2="290.1875"/><text fill="#333333" font-family="sans-serif" font-size="14" font-weight="bold" lengthAdjust="spacing" textLength="115.3086" x="15" y="303.1826">System Health</text><line style="stroke:#333333;stroke-width:0.5;" x1="10" x2="131.3086" y1="307.4844" y2="307.4844"/><line style="stroke:#333333;stroke-width:0.5;" x1="131.3086" x2="141.3086" y1="307.4844" y2="290.1875"/><text fill="#333333" font-family="sans-serif" font-size="12" lengthAdjust="spacing" textLength="31.5996" x="15" y="357.6387">Good</text><text fill="#333333" font-family="sans-serif" font-size="12" lengthAdjust="spacing" textLength="59.1445" x="15" y="337.6387">Degraded</text><text fill="#333333" font-family="sans-serif" font-size="12" lengthAdjust="spacing" textLength="67.6348" x="15" y="317.6387">Recovering</text><line style="stroke:#006400;stroke-width:2;" x1="82.6348" x2="232.6348" y1="352.4844" y2="352.4844"/><line style="stroke:#006400;stroke-width:2;" x1="232.6348" x2="282.6348" y1="332.4844" y2="332.4844"/><line style="stroke:#006400;stroke-width:2;" x1="282.6348" x2="332.6348" y1="312.4844" y2="312.4844"/><line style="stroke:#006400;stroke-width:2;" x1="332.6348" x2="382.6348" y1="352.4844" y2="352.4844"/><line style="stroke:#006400;stroke-width:2;" x1="382.6348" x2="432.6348" y1="352.4844" y2="352.4844"/><line style="stroke:#006400;stroke-width:2;" x1="232.6348" x2="232.6348" y1="332.4844" y2="352.4844"/><line style="stroke:#006400;stroke-width:2;" x1="282.6348" x2="282.6348" y1="312.4844" y2="332.4844"/><line style="stroke:#006400;stroke-width:2;" x1="332.6348" x2="332.6348" y1="312.4844" y2="352.4844"/><line style="stroke:#006400;stroke-width:2;" x1="382.6348" x2="382.6348" y1="352.4844" y2="352.4844"/><text fill="#333333" font-family="sans-serif" font-size="12" lengthAdjust="spacing" textLength="99.3398" x="234.6348" y="329.6543">System stressed</text><text fill="#333333" font-family="sans-serif" font-size="12" lengthAdjust="spacing" textLength="60.7793" x="284.6348" y="309.6543">Improving</text><text fill="#333333" font-family="sans-serif" font-size="12" lengthAdjust="spacing" textLength="93.6504" x="334.6348" y="349.6543">System healthy</text><text fill="#333333" font-family="sans-serif" font-size="12" lengthAdjust="spacing" textLength="38.0098" x="384.6348" y="349.6543">Stable</text><line style="stroke:#333333;stroke-width:2;" x1="82.6348" x2="82.6348" y1="364.4844" y2="369.4844"/><line style="stroke:#333333;stroke-width:2;" x1="132.6348" x2="132.6348" y1="364.4844" y2="369.4844"/><line style="stroke:#333333;stroke-width:2;" x1="182.6348" x2="182.6348" y1="364.4844" y2="369.4844"/><line style="stroke:#333333;stroke-width:2;" x1="232.6348" x2="232.6348" y1="364.4844" y2="369.4844"/><line style="stroke:#333333;stroke-width:2;" x1="282.6348" x2="282.6348" y1="364.4844" y2="369.4844"/><line style="stroke:#333333;stroke-width:2;" x1="332.6348" x2="332.6348" y1="364.4844" y2="369.4844"/><line style="stroke:#333333;stroke-width:2;" x1="382.6348" x2="382.6348" y1="364.4844" y2="369.4844"/><line style="stroke:#333333;stroke-width:2;" x1="432.6348" x2="432.6348" y1="364.4844" y2="369.4844"/><line style="stroke:#333333;stroke-width:2;" x1="82.6348" x2="432.6348" y1="364.4844" y2="364.4844"/><text fill="#333333" font-family="sans-serif" font-size="11" lengthAdjust="spacing" textLength="6.9985" x="79.1355" y="380.6948">0</text><text fill="#333333" font-family="sans-serif" font-size="11" lengthAdjust="spacing" textLength="27.9941" x="118.6377" y="380.6948">1000</text><text fill="#333333" font-family="sans-serif" font-size="11" lengthAdjust="spacing" textLength="27.9941" x="168.6377" y="380.6948">2000</text><text fill="#333333" font-family="sans-serif" font-size="11" lengthAdjust="spacing" textLength="27.9941" x="218.6377" y="380.6948">3000</text><text fill="#333333" font-family="sans-serif" font-size="11" lengthAdjust="spacing" textLength="27.9941" x="268.6377" y="380.6948">4000</text><text fill="#333333" font-family="sans-serif" font-size="11" lengthAdjust="spacing" textLength="27.9941" x="318.6377" y="380.6948">5000</text><text fill="#333333" font-family="sans-serif" font-size="11" lengthAdjust="spacing" textLength="27.9941" x="368.6377" y="380.6948">6000</text><!--SRC=[RLBDRi8m3BxdAJpkazZlOISgc3OEGmZs0g4rD5eIeoH5iAUVqwQbBRivrfVlntPGGIDiKU_lFr5gPG-mGNyawn6-bU6t48vsbGymsLvyG0DVP5KWDm7fsxg3P9QCr1TOOC0yAB8rAdKxr0PpEg6xG7R5jBsnMdGLoXhIb4BCfYBfWl8m9wsZ5ZjjrRcx8iUbw9IujImqYeOZFZ-82kPwc4u7T9bbXjyuXpTOEyhHUp0OdCfzdpy5h67p4lCVECeGq5dFd8-HimVEDBh0mBQrfyeMTmDpQosjJQfSWcl78MPFaQsFVJzZNYNjfaQGzIHzBzy23quMM30eZT87nsamfduUSwO9308vEiGFFSxqeq4j3IDEzONCNiPySp97pJEAgMjhi5TM-PBLXokusYlhVapyEjh9TSMCvlEi38Bf3D-kdL4hugUlqD-SG4qXYxW51nRFuHz3GUxuLlu0]--></g></svg>