<svg xmlns="http://www.w3.org/2000/svg" xmlns:xlink="http://www.w3.org/1999/xlink" contentStyleType="text/css" data-diagram-type="DESCRIPTION" height="211px" preserveAspectRatio="none" style="width:2945px;height:211px;background:#FFFFFF;" version="1.1" viewBox="0 0 2945 211" width="2945px" zoomAndPan="magnify"><title>Zero-Trust Security Architecture</title><defs/><g><g class="title" data-source-line="1"><text fill="#000000" font-family="sans-serif" font-size="14" font-weight="bold" lengthAdjust="spacing" textLength="256.8877" x="1337.0562" y="22.9951">Zero-Trust Security Architecture</text></g><!--cluster Identity Layer--><g class="cluster" data-entity="Identity Layer" data-source-line="3" data-uid="ent0002" id="cluster_Identity Layer"><path d="M8.5,87.7869 L120.2695,87.7869 A3.75,3.75 0 0 1 122.7695,90.2869 L129.7695,110.0837 L664.5,110.0837 A2.5,2.5 0 0 1 667,112.5837 L667,201.5869 A2.5,2.5 0 0 1 664.5,204.0869 L8.5,204.0869 A2.5,2.5 0 0 1 6,201.5869 L6,90.2869 A2.5,2.5 0 0 1 8.5,87.7869" fill="none" style="stroke:#000000;stroke-width:1.5;"/><line style="stroke:#000000;stroke-width:1.5;" x1="6" x2="129.7695" y1="110.0837" y2="110.0837"/><text fill="#000000" font-family="sans-serif" font-size="14" font-weight="bold" lengthAdjust="spacing" textLength="110.7695" x="10" y="102.782">Identity Layer</text></g><!--cluster Policy Layer--><g class="cluster" data-entity="Policy Layer" data-source-line="9" data-uid="ent0006" id="cluster_Policy Layer"><path d="M2176.5,87.7869 L2273.1689,87.7869 A3.75,3.75 0 0 1 2275.6689,90.2869 L2282.6689,110.0837 L2935.5,110.0837 A2.5,2.5 0 0 1 2938,112.5837 L2938,201.5869 A2.5,2.5 0 0 1 2935.5,204.0869 L2176.5,204.0869 A2.5,2.5 0 0 1 2174,201.5869 L2174,90.2869 A2.5,2.5 0 0 1 2176.5,87.7869" fill="none" style="stroke:#000000;stroke-width:1.5;"/><line style="stroke:#000000;stroke-width:1.5;" x1="2174" x2="2282.6689" y1="110.0837" y2="110.0837"/><text fill="#000000" font-family="sans-serif" font-size="14" font-weight="bold" lengthAdjust="spacing" textLength="95.6689" x="2178" y="102.782">Policy Layer</text></g><!--cluster Network Layer--><g class="cluster" data-entity="Network Layer" data-source-line="15" data-uid="ent0010" id="cluster_Network Layer"><path d="M783.5,87.7869 L899.9385,87.7869 A3.75,3.75 0 0 1 902.4385,90.2869 L909.4385,110.0837 L1459.5,110.0837 A2.5,2.5 0 0 1 1462,112.5837 L1462,201.5869 A2.5,2.5 0 0 1 1459.5,204.0869 L783.5,204.0869 A2.5,2.5 0 0 1 781,201.5869 L781,90.2869 A2.5,2.5 0 0 1 783.5,87.7869" fill="none" style="stroke:#000000;stroke-width:1.5;"/><line style="stroke:#000000;stroke-width:1.5;" x1="781" x2="909.4385" y1="110.0837" y2="110.0837"/><text fill="#000000" font-family="sans-serif" font-size="14" font-weight="bold" lengthAdjust="spacing" textLength="115.4385" x="785" y="102.782">Network Layer</text></g><!--cluster Application Layer--><g class="cluster" data-entity="Application Layer" data-source-line="21" data-uid="ent0014" id="cluster_Application Layer"><path d="M1488.5,87.7869 L1627.5654,87.7869 A3.75,3.75 0 0 1 1630.0654,90.2869 L1637.0654,110.0837 L2147.5,110.0837 A2.5,2.5 0 0 1 2150,112.5837 L2150,201.5869 A2.5,2.5 0 0 1 2147.5,204.0869 L1488.5,204.0869 A2.5,2.5 0 0 1 1486,201.5869 L1486,90.2869 A2.5,2.5 0 0 1 1488.5,87.7869" fill="none" style="stroke:#000000;stroke-width:1.5;"/><line style="stroke:#000000;stroke-width:1.5;" x1="1486" x2="1637.0654" y1="110.0837" y2="110.0837"/><text fill="#000000" font-family="sans-serif" font-size="14" font-weight="bold" lengthAdjust="spacing" textLength="138.0654" x="1490" y="102.782">Application Layer</text></g><!--entity IdP--><g class="entity" data-entity="IdP" data-source-line="4" data-uid="ent0003" id="entity_IdP"><rect fill="#F1F1F1" height="46.2969" rx="2.5" ry="2.5" style="stroke:#181818;stroke-width:0.5;" width="156.2998" x="21.85" y="141.7869"/><rect fill="#F1F1F1" height="10" style="stroke:#181818;stroke-width:0.5;" width="15" x="158.1498" y="146.7869"/><rect fill="#F1F1F1" height="2" style="stroke:#181818;stroke-width:0.5;" width="4" x="156.1498" y="148.7869"/><rect fill="#F1F1F1" height="2" style="stroke:#181818;stroke-width:0.5;" width="4" x="156.1498" y="152.7869"/><text fill="#000000" font-family="sans-serif" font-size="14" lengthAdjust="spacing" textLength="116.2998" x="36.85" y="174.782">Identity Provider</text></g><!--entity CA--><g class="entity" data-entity="CA" data-source-line="5" data-uid="ent0004" id="entity_CA"><rect fill="#F1F1F1" height="46.2969" rx="2.5" ry="2.5" style="stroke:#181818;stroke-width:0.5;" width="181.9688" x="469.02" y="141.7869"/><rect fill="#F1F1F1" height="10" style="stroke:#181818;stroke-width:0.5;" width="15" x="630.9888" y="146.7869"/><rect fill="#F1F1F1" height="2" style="stroke:#181818;stroke-width:0.5;" width="4" x="628.9888" y="148.7869"/><rect fill="#F1F1F1" height="2" style="stroke:#181818;stroke-width:0.5;" width="4" x="628.9888" y="152.7869"/><text fill="#000000" font-family="sans-serif" font-size="14" lengthAdjust="spacing" textLength="141.9688" x="484.02" y="174.782">Certificate Authority</text></g><!--entity TokenSvc--><g class="entity" data-entity="TokenSvc" data-source-line="6" data-uid="ent0005" id="entity_TokenSvc"><rect fill="#F1F1F1" height="46.2969" rx="2.5" ry="2.5" style="stroke:#181818;stroke-width:0.5;" width="138.9023" x="295.55" y="141.7869"/><rect fill="#F1F1F1" height="10" style="stroke:#181818;stroke-width:0.5;" width="15" x="414.4523" y="146.7869"/><rect fill="#F1F1F1" height="2" style="stroke:#181818;stroke-width:0.5;" width="4" x="412.4523" y="148.7869"/><rect fill="#F1F1F1" height="2" style="stroke:#181818;stroke-width:0.5;" width="4" x="412.4523" y="152.7869"/><text fill="#000000" font-family="sans-serif" font-size="14" lengthAdjust="spacing" textLength="98.9023" x="310.55" y="174.782">Token Service</text></g><!--entity PolicyEngine--><g class="entity" data-entity="PolicyEngine" data-source-line="10" data-uid="ent0007" id="entity_PolicyEngine"><rect fill="#F1F1F1" height="46.2969" rx="2.5" ry="2.5" style="stroke:#181818;stroke-width:0.5;" width="133.2012" x="2487.4" y="141.7869"/><rect fill="#F1F1F1" height="10" style="stroke:#181818;stroke-width:0.5;" width="15" x="2600.6012" y="146.7869"/><rect fill="#F1F1F1" height="2" style="stroke:#181818;stroke-width:0.5;" width="4" x="2598.6012" y="148.7869"/><rect fill="#F1F1F1" height="2" style="stroke:#181818;stroke-width:0.5;" width="4" x="2598.6012" y="152.7869"/><text fill="#000000" font-family="sans-serif" font-size="14" lengthAdjust="spacing" textLength="93.2012" x="2502.4" y="174.782">Policy Engine</text></g><!--entity RBAC--><g class="entity" data-entity="RBAC" data-source-line="11" data-uid="ent0008" id="entity_RBAC"><rect fill="#F1F1F1" height="46.2969" rx="2.5" ry="2.5" style="stroke:#181818;stroke-width:0.5;" width="152.3076" x="2189.85" y="141.7869"/><rect fill="#F1F1F1" height="10" style="stroke:#181818;stroke-width:0.5;" width="15" x="2322.1576" y="146.7869"/><rect fill="#F1F1F1" height="2" style="stroke:#181818;stroke-width:0.5;" width="4" x="2320.1576" y="148.7869"/><rect fill="#F1F1F1" height="2" style="stroke:#181818;stroke-width:0.5;" width="4" x="2320.1576" y="152.7869"/><text fill="#000000" font-family="sans-serif" font-size="14" lengthAdjust="spacing" textLength="112.3076" x="2204.85" y="174.782">RBAC Controller</text></g><!--entity AccessCtrl--><g class="entity" data-entity="AccessCtrl" data-source-line="12" data-uid="ent0009" id="entity_AccessCtrl"><rect fill="#F1F1F1" height="46.2969" rx="2.5" ry="2.5" style="stroke:#181818;stroke-width:0.5;" width="143.5371" x="2778.23" y="141.7869"/><rect fill="#F1F1F1" height="10" style="stroke:#181818;stroke-width:0.5;" width="15" x="2901.7671" y="146.7869"/><rect fill="#F1F1F1" height="2" style="stroke:#181818;stroke-width:0.5;" width="4" x="2899.7671" y="148.7869"/><rect fill="#F1F1F1" height="2" style="stroke:#181818;stroke-width:0.5;" width="4" x="2899.7671" y="152.7869"/><text fill="#000000" font-family="sans-serif" font-size="14" lengthAdjust="spacing" textLength="103.5371" x="2793.23" y="174.782">Access Control</text></g><!--entity mTLS--><g class="entity" data-entity="mTLS" data-source-line="16" data-uid="ent0011" id="entity_mTLS"><rect fill="#F1F1F1" height="46.2969" rx="2.5" ry="2.5" style="stroke:#181818;stroke-width:0.5;" width="145.1709" x="797.41" y="141.7869"/><rect fill="#F1F1F1" height="10" style="stroke:#181818;stroke-width:0.5;" width="15" x="922.5809" y="146.7869"/><rect fill="#F1F1F1" height="2" style="stroke:#181818;stroke-width:0.5;" width="4" x="920.5809" y="148.7869"/><rect fill="#F1F1F1" height="2" style="stroke:#181818;stroke-width:0.5;" width="4" x="920.5809" y="152.7869"/><text fill="#000000" font-family="sans-serif" font-size="14" lengthAdjust="spacing" textLength="105.1709" x="812.41" y="174.782">mTLS Gateway</text></g><!--entity NetPol--><g class="entity" data-entity="NetPol" data-source-line="17" data-uid="ent0012" id="entity_NetPol"><rect fill="#F1F1F1" height="46.2969" rx="2.5" ry="2.5" style="stroke:#181818;stroke-width:0.5;" width="155.1855" x="977.41" y="141.7869"/><rect fill="#F1F1F1" height="10" style="stroke:#181818;stroke-width:0.5;" width="15" x="1112.5955" y="146.7869"/><rect fill="#F1F1F1" height="2" style="stroke:#181818;stroke-width:0.5;" width="4" x="1110.5955" y="148.7869"/><rect fill="#F1F1F1" height="2" style="stroke:#181818;stroke-width:0.5;" width="4" x="1110.5955" y="152.7869"/><text fill="#000000" font-family="sans-serif" font-size="14" lengthAdjust="spacing" textLength="115.1855" x="992.41" y="174.782">Network Policies</text></g><!--entity Encryption--><g class="entity" data-entity="Encryption" data-source-line="18" data-uid="ent0013" id="entity_Encryption"><rect fill="#F1F1F1" height="46.2969" rx="2.5" ry="2.5" style="stroke:#181818;stroke-width:0.5;" width="163.9424" x="1282.03" y="141.7869"/><rect fill="#F1F1F1" height="10" style="stroke:#181818;stroke-width:0.5;" width="15" x="1425.9724" y="146.7869"/><rect fill="#F1F1F1" height="2" style="stroke:#181818;stroke-width:0.5;" width="4" x="1423.9724" y="148.7869"/><rect fill="#F1F1F1" height="2" style="stroke:#181818;stroke-width:0.5;" width="4" x="1423.9724" y="152.7869"/><text fill="#000000" font-family="sans-serif" font-size="14" lengthAdjust="spacing" textLength="123.9424" x="1297.03" y="174.782">Traffic Encryption</text></g><!--entity AgentAuth--><g class="entity" data-entity="AgentAuth" data-source-line="22" data-uid="ent0015" id="entity_AgentAuth"><rect fill="#F1F1F1" height="46.2969" rx="2.5" ry="2.5" style="stroke:#181818;stroke-width:0.5;" width="188.6611" x="1501.67" y="141.7869"/><rect fill="#F1F1F1" height="10" style="stroke:#181818;stroke-width:0.5;" width="15" x="1670.3311" y="146.7869"/><rect fill="#F1F1F1" height="2" style="stroke:#181818;stroke-width:0.5;" width="4" x="1668.3311" y="148.7869"/><rect fill="#F1F1F1" height="2" style="stroke:#181818;stroke-width:0.5;" width="4" x="1668.3311" y="152.7869"/><text fill="#000000" font-family="sans-serif" font-size="14" lengthAdjust="spacing" textLength="148.6611" x="1516.67" y="174.782">Agent Authentication</text></g><!--entity APIAuth--><g class="entity" data-entity="APIAuth" data-source-line="23" data-uid="ent0016" id="entity_APIAuth"><rect fill="#F1F1F1" height="46.2969" rx="2.5" ry="2.5" style="stroke:#181818;stroke-width:0.5;" width="160.3672" x="1725.82" y="141.7869"/><rect fill="#F1F1F1" height="10" style="stroke:#181818;stroke-width:0.5;" width="15" x="1866.1872" y="146.7869"/><rect fill="#F1F1F1" height="2" style="stroke:#181818;stroke-width:0.5;" width="4" x="1864.1872" y="148.7869"/><rect fill="#F1F1F1" height="2" style="stroke:#181818;stroke-width:0.5;" width="4" x="1864.1872" y="152.7869"/><text fill="#000000" font-family="sans-serif" font-size="14" lengthAdjust="spacing" textLength="120.3672" x="1740.82" y="174.782">API Authorization</text></g><!--entity AuditLog--><g class="entity" data-entity="AuditLog" data-source-line="24" data-uid="ent0017" id="entity_AuditLog"><rect fill="#F1F1F1" height="46.2969" rx="2.5" ry="2.5" style="stroke:#181818;stroke-width:0.5;" width="129.6738" x="2004.16" y="141.7869"/><rect fill="#F1F1F1" height="10" style="stroke:#181818;stroke-width:0.5;" width="15" x="2113.8338" y="146.7869"/><rect fill="#F1F1F1" height="2" style="stroke:#181818;stroke-width:0.5;" width="4" x="2111.8338" y="148.7869"/><rect fill="#F1F1F1" height="2" style="stroke:#181818;stroke-width:0.5;" width="4" x="2111.8338" y="152.7869"/><text fill="#000000" font-family="sans-serif" font-size="14" lengthAdjust="spacing" textLength="89.6738" x="2019.16" y="174.782">Audit Logger</text></g><!--link IdP to TokenSvc--><g class="link" data-entity-1="IdP" data-entity-2="TokenSvc" data-source-line="27" data-uid="lnk18" id="link_IdP_TokenSvc"><path d="M178.43,164.9369 C215.52,164.9369 253.43,164.9369 289.33,164.9369" fill="none" id="IdP-to-TokenSvc" style="stroke:#181818;stroke-width:1;"/><polygon fill="#181818" points="295.33,164.9369,286.33,160.9369,290.33,164.9369,286.33,168.9369,295.33,164.9369" style="stroke:#181818;stroke-width:1;"/><text fill="#000000" font-family="sans-serif" font-size="13" lengthAdjust="spacing" textLength="81.3389" x="196.35" y="158.0038">Issue tokens</text></g><!--link CA to mTLS--><g class="link" data-entity-1="CA" data-entity-2="mTLS" data-source-line="28" data-uid="lnk19" id="link_CA_mTLS"><path d="M651.33,164.9369 C697.77,164.9369 747.43,164.9369 790.98,164.9369" fill="none" id="CA-to-mTLS" style="stroke:#181818;stroke-width:1;"/><polygon fill="#181818" points="796.98,164.9369,787.98,160.9369,791.98,164.9369,787.98,168.9369,796.98,164.9369" style="stroke:#181818;stroke-width:1;"/><text fill="#000000" font-family="sans-serif" font-size="13" lengthAdjust="spacing" textLength="110.1191" x="669.2" y="181.0038">Issue certificates</text></g><!--link TokenSvc to AgentAuth--><g class="link" data-entity-1="TokenSvc" data-entity-2="AgentAuth" data-source-line="29" data-uid="lnk20" id="link_TokenSvc_AgentAuth"><path d="M380.78,141.4269 C396.18,120.7969 421.68,92.1969 452,79.7869 C539.87,43.8269 1211.56,77.5369 1306.5,78.0669 C1375.61,78.4469 1395.74,60.1169 1462,79.7869 C1502.96,91.9469 1538.7784,116.8194 1564.3484,137.5394" fill="none" id="TokenSvc-to-AgentAuth" style="stroke:#181818;stroke-width:1;"/><polygon fill="#181818" points="1569.01,141.3169,1564.5358,132.5429,1565.1253,138.169,1559.4992,138.7585,1569.01,141.3169" style="stroke:#181818;stroke-width:1;"/><text fill="#000000" font-family="sans-serif" font-size="13" lengthAdjust="spacing" textLength="101.1182" x="1204.5" y="67.8538">Validate tokens</text></g><!--link AgentAuth to RBAC--><g class="link" data-entity-1="AgentAuth" data-entity-2="RBAC" data-source-line="30" data-uid="lnk21" id="link_AgentAuth_RBAC"><path d="M1617.82,141.3669 C1638.68,120.6869 1672.18,92.0569 1708,79.7869 C1800.92,47.9569 2056.84,48.6669 2150,79.7869 C2186.73,92.0569 2217.1537,116.5505 2238.8837,137.2305" fill="none" id="AgentAuth-to-RBAC" style="stroke:#181818;stroke-width:1;"/><polygon fill="#181818" points="2243.23,141.3669,2239.468,132.2648,2239.608,137.9199,2233.9529,138.0599,2243.23,141.3669" style="stroke:#181818;stroke-width:1;"/><text fill="#000000" font-family="sans-serif" font-size="13" lengthAdjust="spacing" textLength="122.1162" x="1879" y="67.8538">Check permissions</text></g><!--link RBAC to PolicyEngine--><g class="link" data-entity-1="RBAC" data-entity-2="PolicyEngine" data-source-line="31" data-uid="lnk22" id="link_RBAC_PolicyEngine"><path d="M2342.42,164.9369 C2387.42,164.9369 2437.79,164.9369 2481.04,164.9369" fill="none" id="RBAC-to-PolicyEngine" style="stroke:#181818;stroke-width:1;"/><polygon fill="#181818" points="2487.04,164.9369,2478.04,160.9369,2482.04,164.9369,2478.04,168.9369,2487.04,164.9369" style="stroke:#181818;stroke-width:1;"/><text fill="#000000" font-family="sans-serif" font-size="13" lengthAdjust="spacing" textLength="109.8779" x="2360.28" y="158.0038">Evaluate policies</text></g><!--link PolicyEngine to AccessCtrl--><g class="link" data-entity-1="PolicyEngine" data-entity-2="AccessCtrl" data-source-line="32" data-uid="lnk23" id="link_PolicyEngine_AccessCtrl"><path d="M2620.8,164.9369 C2667.52,164.9369 2723.87,164.9369 2771.75,164.9369" fill="none" id="PolicyEngine-to-AccessCtrl" style="stroke:#181818;stroke-width:1;"/><polygon fill="#181818" points="2777.75,164.9369,2768.75,160.9369,2772.75,164.9369,2768.75,168.9369,2777.75,164.9369" style="stroke:#181818;stroke-width:1;"/><text fill="#000000" font-family="sans-serif" font-size="13" lengthAdjust="spacing" textLength="121.2212" x="2638.92" y="158.0038">Grant/deny access</text></g><!--link mTLS to Encryption--><g class="link" data-entity-1="mTLS" data-entity-2="Encryption" data-source-line="33" data-uid="lnk24" id="link_mTLS_Encryption"><path d="M887.62,141.6769 C904.05,121.8069 930.41,94.2069 960,79.7869 C964.65,77.5269 966.35,78.4469 971.5,78.0669 C1050.62,72.1669 1072.28,63.8669 1150,79.7869 C1210.72,92.2269 1270.9655,118.2003 1313.3155,138.8203" fill="none" id="mTLS-to-Encryption" style="stroke:#181818;stroke-width:1;"/><polygon fill="#181818" points="1318.71,141.4469,1312.3692,133.9106,1314.2145,139.2581,1308.8671,141.1034,1318.71,141.4469" style="stroke:#181818;stroke-width:1;"/><text fill="#000000" font-family="sans-serif" font-size="13" lengthAdjust="spacing" textLength="109.1797" x="972.5" y="67.8538">Secure transport</text></g><!--link NetPol to Encryption--><g class="link" data-entity-1="NetPol" data-entity-2="Encryption" data-source-line="34" data-uid="lnk25" id="link_NetPol_Encryption"><path d="M1132.97,164.9369 C1178.39,164.9369 1229.6,164.9369 1275.73,164.9369" fill="none" id="NetPol-to-Encryption" style="stroke:#181818;stroke-width:1;"/><polygon fill="#181818" points="1281.73,164.9369,1272.73,160.9369,1276.73,164.9369,1272.73,168.9369,1281.73,164.9369" style="stroke:#181818;stroke-width:1;"/><text fill="#000000" font-family="sans-serif" font-size="13" lengthAdjust="spacing" textLength="113.2295" x="1150.81" y="158.0038">Network isolation</text></g><!--link AccessCtrl to AuditLog--><g class="link" data-entity-1="AccessCtrl" data-entity-2="AuditLog" data-source-line="35" data-uid="lnk26" id="link_AccessCtrl_AuditLog"><path d="M2812.24,141.4469 C2775.56,120.1169 2717.51,90.1869 2662.5,78.0669 C2556.49,54.6969 2276.24,43.2969 2174,79.7869 C2139.74,92.0169 2112.5661,116.2726 2093.2361,136.9626" fill="none" id="AccessCtrl-to-AuditLog" style="stroke:#181818;stroke-width:1;"/><polygon fill="#181818" points="2089.14,141.3469,2098.207,137.5012,2092.5534,137.6933,2092.3613,132.0397,2089.14,141.3469" style="stroke:#181818;stroke-width:1;"/><text fill="#000000" font-family="sans-serif" font-size="13" lengthAdjust="spacing" textLength="87.9404" x="2574.5" y="67.8538">Log decisions</text></g><!--link APIAuth to AuditLog--><g class="link" data-entity-1="APIAuth" data-entity-2="AuditLog" data-source-line="36" data-uid="lnk27" id="link_APIAuth_AuditLog"><path d="M1886.34,164.9369 C1923.95,164.9369 1962.18,164.9369 1997.7,164.9369" fill="none" id="APIAuth-to-AuditLog" style="stroke:#181818;stroke-width:1;"/><polygon fill="#181818" points="2003.7,164.9369,1994.7,160.9369,1998.7,164.9369,1994.7,168.9369,2003.7,164.9369" style="stroke:#181818;stroke-width:1;"/><text fill="#000000" font-family="sans-serif" font-size="13" lengthAdjust="spacing" textLength="81.3896" x="1904.67" y="158.0038">Log API calls</text></g><!--SRC=[TPD1Q-Cm48Nl-XL3xwLt7nQyfXH3MCmczB0t8KyT4SKoet5AklI_LoFPYUiqlXYz-ImzpHkpPOVm3ya_xcWC35iq8ra-GqbcRnaDZuHA3TeST8VmKBVOizGt-epq0FyLnCVuu-3xM5a03VcJRONH0UgsMOCL4jitQpGZb2FllHoRuAfSipj_m3vwevCrc9YaR4z6VIxCDTvPSz_QL7xkEzldNRAIXJNzztTPGULx9k_ST0tHrbnf38OmamdBKiNaljdxW_pkwN3Ntt6tsS9BxCUxpeqGOGtDcoJh5aC2enZNDrqZ_HOR72ziw3omzNs2hyjlxifXS996rEywB3jvILeISeRpZQKW-iqNJJsd-x70c_f7U6mjmyPttTJl9CIr68qZ18-_Bi4NK8Sm8h2iWwfAAKh3veAvpbTGyrS2NRmMyAgTRMK0frqk9U4ax0AgFPe334X76qBq7rGQZ5XV3ay1poVjHjbgc89Hotewzp8L1RoGxlaf_Yfdq4bMAVn8NTCfyiyOpKKu39vOvPpNs3mIDdYNUgokHwM3fouMqbfeqTXyaIc5MqH2CzgveBu0]--></g></svg>