<svg xmlns="http://www.w3.org/2000/svg" xmlns:xlink="http://www.w3.org/1999/xlink" contentStyleType="text/css" data-diagram-type="ACTIVITY" height="1171px" preserveAspectRatio="none" style="width:270px;height:1171px;background:#FFFFFF;" version="1.1" viewBox="0 0 270 1171" width="270px" zoomAndPan="magnify"><title>Visual Flow Creation Activity</title><defs/><g><g class="title" data-source-line="1"><text fill="#000000" font-family="sans-serif" font-size="14" font-weight="bold" lengthAdjust="spacing" textLength="227.2813" x="20" y="32.9951">Visual Flow Creation Activity</text></g><ellipse cx="130.3276" cy="57.2969" fill="#222222" rx="10" ry="10" style="stroke:#222222;stroke-width:1;"/><rect fill="#F1F1F1" height="33.9688" rx="12.5" ry="12.5" style="stroke:#181818;stroke-width:0.5;" width="218.2109" x="21.2222" y="87.2969"/><text fill="#000000" font-family="sans-serif" font-size="12" lengthAdjust="spacing" textLength="198.2109" x="31.2222" y="108.4355">User opens VisualGridDev Studio</text><rect fill="#F1F1F1" height="33.9688" rx="12.5" ry="12.5" style="stroke:#181818;stroke-width:0.5;" width="169.0801" x="45.7876" y="141.2656"/><text fill="#000000" font-family="sans-serif" font-size="12" lengthAdjust="spacing" textLength="149.0801" x="55.7876" y="162.4043">Select node from palette</text><rect fill="#F1F1F1" height="33.9688" rx="12.5" ry="12.5" style="stroke:#181818;stroke-width:0.5;" width="144.8457" x="57.9048" y="195.2344"/><text fill="#000000" font-family="sans-serif" font-size="12" lengthAdjust="spacing" textLength="124.8457" x="67.9048" y="216.373">Drag node to canvas</text><rect fill="#F1F1F1" height="33.9688" rx="12.5" ry="12.5" style="stroke:#181818;stroke-width:0.5;" width="185.6035" x="37.5259" y="249.2031"/><text fill="#000000" font-family="sans-serif" font-size="12" lengthAdjust="spacing" textLength="165.6035" x="47.5259" y="270.3418">Configure node parameters</text><rect fill="#F1F1F1" height="33.9688" rx="12.5" ry="12.5" style="stroke:#181818;stroke-width:0.5;" width="160.3438" x="50.1558" y="351.5742"/><text fill="#000000" font-family="sans-serif" font-size="12" lengthAdjust="spacing" textLength="140.3438" x="60.1558" y="372.7129">Open inline code editor</text><rect fill="#F1F1F1" height="33.9688" rx="12.5" ry="12.5" style="stroke:#181818;stroke-width:0.5;" width="173.375" x="43.6401" y="405.543"/><text fill="#000000" font-family="sans-serif" font-size="12" lengthAdjust="spacing" textLength="153.375" x="53.6401" y="426.6816">Write Python/JS/SQL code</text><rect fill="#F1F1F1" height="33.9688" rx="12.5" ry="12.5" style="stroke:#181818;stroke-width:0.5;" width="145.9766" x="57.3394" y="459.5117"/><text fill="#000000" font-family="sans-serif" font-size="12" lengthAdjust="spacing" textLength="125.9766" x="67.3394" y="480.6504">Validate code syntax</text><rect fill="#F1F1F1" height="33.9688" rx="12.5" ry="12.5" style="stroke:#181818;stroke-width:0.5;" width="143.4629" x="58.5962" y="576.8828"/><text fill="#000000" font-family="sans-serif" font-size="12" lengthAdjust="spacing" textLength="123.4629" x="68.5962" y="598.0215">Show error message</text><ellipse cx="130.3276" cy="650.3672" fill="none" rx="11" ry="11" style="stroke:#222222;stroke-width:1;"/><ellipse cx="130.3276" cy="650.3672" fill="#222222" rx="6" ry="6" style="stroke:#222222;stroke-width:1;"/><polygon fill="#F1F1F1" points="93.4739,528.4805,167.1814,528.4805,179.1814,540.4805,167.1814,552.4805,93.4739,552.4805,81.4739,540.4805,93.4739,528.4805" style="stroke:#181818;stroke-width:0.5;"/><text fill="#000000" font-family="sans-serif" font-size="11" lengthAdjust="spacing" textLength="13.7017" x="134.3276" y="562.6909">no</text><text fill="#000000" font-family="sans-serif" font-size="11" lengthAdjust="spacing" textLength="73.7075" x="93.4739" y="544.2886">Syntax valid?</text><polygon fill="#F1F1F1" points="67.4805,303.1719,193.1748,303.1719,205.1748,315.1719,193.1748,327.1719,67.4805,327.1719,55.4805,315.1719,67.4805,303.1719" style="stroke:#181818;stroke-width:0.5;"/><text fill="#000000" font-family="sans-serif" font-size="11" lengthAdjust="spacing" textLength="19.0083" x="134.3276" y="337.3823">yes</text><text fill="#000000" font-family="sans-serif" font-size="11" lengthAdjust="spacing" textLength="125.6943" x="67.4805" y="318.98">Code editing required?</text><polygon fill="#F1F1F1" points="130.3276,703.3672,142.3276,715.3672,130.3276,727.3672,118.3276,715.3672,130.3276,703.3672" style="stroke:#181818;stroke-width:0.5;"/><rect fill="#F1F1F1" height="33.9688" rx="12.5" ry="12.5" style="stroke:#181818;stroke-width:0.5;" width="178.9707" x="40.8423" y="747.3672"/><text fill="#000000" font-family="sans-serif" font-size="12" lengthAdjust="spacing" textLength="158.9707" x="50.8423" y="768.5059">Connect nodes with edges</text><rect fill="#F1F1F1" height="33.9688" rx="12.5" ry="12.5" style="stroke:#181818;stroke-width:0.5;" width="129.8574" x="65.3989" y="801.3359"/><text fill="#000000" font-family="sans-serif" font-size="12" lengthAdjust="spacing" textLength="109.8574" x="75.3989" y="822.4746">Validate flow logic</text><rect fill="#F1F1F1" height="33.9688" rx="12.5" ry="12.5" style="stroke:#181818;stroke-width:0.5;" width="154.8652" x="52.895" y="903.707"/><text fill="#000000" font-family="sans-serif" font-size="12" lengthAdjust="spacing" textLength="134.8652" x="62.895" y="924.8457">Show validation errors</text><ellipse cx="130.3276" cy="977.1914" fill="none" rx="11" ry="11" style="stroke:#222222;stroke-width:1;"/><ellipse cx="130.3276" cy="977.1914" fill="#222222" rx="6" ry="6" style="stroke:#222222;stroke-width:1;"/><polygon fill="#F1F1F1" points="99.9326,855.3047,160.7227,855.3047,172.7227,867.3047,160.7227,879.3047,99.9326,879.3047,87.9326,867.3047,99.9326,855.3047" style="stroke:#181818;stroke-width:0.5;"/><text fill="#000000" font-family="sans-serif" font-size="11" lengthAdjust="spacing" textLength="13.7017" x="134.3276" y="889.5151">no</text><text fill="#000000" font-family="sans-serif" font-size="11" lengthAdjust="spacing" textLength="60.79" x="99.9326" y="871.1128">Flow valid?</text><rect fill="#F1F1F1" height="33.9688" rx="12.5" ry="12.5" style="stroke:#181818;stroke-width:0.5;" width="157.4785" x="51.5884" y="1030.1914"/><text fill="#000000" font-family="sans-serif" font-size="12" lengthAdjust="spacing" textLength="137.4785" x="61.5884" y="1051.3301">Deploy flow to runtime</text><rect fill="#F1F1F1" height="33.9688" rx="12.5" ry="12.5" style="stroke:#181818;stroke-width:0.5;" width="176.8965" x="41.8794" y="1084.1602"/><text fill="#000000" font-family="sans-serif" font-size="12" lengthAdjust="spacing" textLength="156.8965" x="51.8794" y="1105.2988">Start real-time monitoring</text><ellipse cx="130.3276" cy="1149.1289" fill="none" rx="11" ry="11" style="stroke:#222222;stroke-width:1;"/><ellipse cx="130.3276" cy="1149.1289" fill="#222222" rx="6" ry="6" style="stroke:#222222;stroke-width:1;"/><line style="stroke:#181818;stroke-width:1;" x1="130.3276" x2="130.3276" y1="67.2969" y2="87.2969"/><polygon fill="#181818" points="126.3276,77.2969,130.3276,87.2969,134.3276,77.2969,130.3276,81.2969" style="stroke:#181818;stroke-width:1;"/><line style="stroke:#181818;stroke-width:1;" x1="130.3276" x2="130.3276" y1="121.2656" y2="141.2656"/><polygon fill="#181818" points="126.3276,131.2656,130.3276,141.2656,134.3276,131.2656,130.3276,135.2656" style="stroke:#181818;stroke-width:1;"/><line style="stroke:#181818;stroke-width:1;" x1="130.3276" x2="130.3276" y1="175.2344" y2="195.2344"/><polygon fill="#181818" points="126.3276,185.2344,130.3276,195.2344,134.3276,185.2344,130.3276,189.2344" style="stroke:#181818;stroke-width:1;"/><line style="stroke:#181818;stroke-width:1;" x1="130.3276" x2="130.3276" y1="229.2031" y2="249.2031"/><polygon fill="#181818" points="126.3276,239.2031,130.3276,249.2031,134.3276,239.2031,130.3276,243.2031" style="stroke:#181818;stroke-width:1;"/><line style="stroke:#181818;stroke-width:1;" x1="130.3276" x2="130.3276" y1="385.543" y2="405.543"/><polygon fill="#181818" points="126.3276,395.543,130.3276,405.543,134.3276,395.543,130.3276,399.543" style="stroke:#181818;stroke-width:1;"/><line style="stroke:#181818;stroke-width:1;" x1="130.3276" x2="130.3276" y1="439.5117" y2="459.5117"/><polygon fill="#181818" points="126.3276,449.5117,130.3276,459.5117,134.3276,449.5117,130.3276,453.5117" style="stroke:#181818;stroke-width:1;"/><line style="stroke:#181818;stroke-width:1;" x1="130.3276" x2="130.3276" y1="610.8516" y2="639.3672"/><polygon fill="#181818" points="126.3276,629.3672,130.3276,639.3672,134.3276,629.3672,130.3276,633.3672" style="stroke:#181818;stroke-width:1;"/><line style="stroke:#181818;stroke-width:1;" x1="130.3276" x2="130.3276" y1="552.4805" y2="576.8828"/><polygon fill="#181818" points="126.3276,566.8828,130.3276,576.8828,134.3276,566.8828,130.3276,570.8828" style="stroke:#181818;stroke-width:1;"/><line style="stroke:#181818;stroke-width:1;" x1="179.1814" x2="212.0591" y1="540.4805" y2="540.4805"/><polygon fill="#181818" points="208.0591,609.3672,212.0591,619.3672,216.0591,609.3672,212.0591,613.3672" style="stroke:#181818;stroke-width:1;"/><line style="stroke:#181818;stroke-width:1;" x1="212.0591" x2="212.0591" y1="540.4805" y2="683.3672"/><line style="stroke:#181818;stroke-width:1;" x1="212.0591" x2="130.3276" y1="683.3672" y2="683.3672"/><line style="stroke:#181818;stroke-width:1;" x1="130.3276" x2="130.3276" y1="683.3672" y2="703.3672"/><polygon fill="#181818" points="126.3276,693.3672,130.3276,703.3672,134.3276,693.3672,130.3276,697.3672" style="stroke:#181818;stroke-width:1;"/><line style="stroke:#181818;stroke-width:1;" x1="130.3276" x2="130.3276" y1="493.4805" y2="528.4805"/><polygon fill="#181818" points="126.3276,518.4805,130.3276,528.4805,134.3276,518.4805,130.3276,522.4805" style="stroke:#181818;stroke-width:1;"/><line style="stroke:#181818;stroke-width:1;" x1="130.3276" x2="130.3276" y1="327.1719" y2="351.5742"/><polygon fill="#181818" points="126.3276,341.5742,130.3276,351.5742,134.3276,341.5742,130.3276,345.5742" style="stroke:#181818;stroke-width:1;"/><line style="stroke:#181818;stroke-width:1;" x1="205.1748" x2="234.0591" y1="315.1719" y2="315.1719"/><polygon fill="#181818" points="230.0591,499.9141,234.0591,509.9141,238.0591,499.9141,234.0591,503.9141" style="stroke:#181818;stroke-width:1;"/><line style="stroke:#181818;stroke-width:1;" x1="234.0591" x2="234.0591" y1="315.1719" y2="715.3672"/><line style="stroke:#181818;stroke-width:1;" x1="234.0591" x2="142.3276" y1="715.3672" y2="715.3672"/><polygon fill="#181818" points="152.3276,711.3672,142.3276,715.3672,152.3276,719.3672,148.3276,715.3672" style="stroke:#181818;stroke-width:1;"/><line style="stroke:#181818;stroke-width:1;" x1="130.3276" x2="130.3276" y1="283.1719" y2="303.1719"/><polygon fill="#181818" points="126.3276,293.1719,130.3276,303.1719,134.3276,293.1719,130.3276,297.1719" style="stroke:#181818;stroke-width:1;"/><line style="stroke:#181818;stroke-width:1;" x1="130.3276" x2="130.3276" y1="727.3672" y2="747.3672"/><polygon fill="#181818" points="126.3276,737.3672,130.3276,747.3672,134.3276,737.3672,130.3276,741.3672" style="stroke:#181818;stroke-width:1;"/><line style="stroke:#181818;stroke-width:1;" x1="130.3276" x2="130.3276" y1="781.3359" y2="801.3359"/><polygon fill="#181818" points="126.3276,791.3359,130.3276,801.3359,134.3276,791.3359,130.3276,795.3359" style="stroke:#181818;stroke-width:1;"/><line style="stroke:#181818;stroke-width:1;" x1="130.3276" x2="130.3276" y1="937.6758" y2="966.1914"/><polygon fill="#181818" points="126.3276,956.1914,130.3276,966.1914,134.3276,956.1914,130.3276,960.1914" style="stroke:#181818;stroke-width:1;"/><line style="stroke:#181818;stroke-width:1;" x1="130.3276" x2="130.3276" y1="879.3047" y2="903.707"/><polygon fill="#181818" points="126.3276,893.707,130.3276,903.707,134.3276,893.707,130.3276,897.707" style="stroke:#181818;stroke-width:1;"/><line style="stroke:#181818;stroke-width:1;" x1="172.7227" x2="217.7603" y1="867.3047" y2="867.3047"/><polygon fill="#181818" points="213.7603,936.1914,217.7603,946.1914,221.7603,936.1914,217.7603,940.1914" style="stroke:#181818;stroke-width:1;"/><line style="stroke:#181818;stroke-width:1;" x1="217.7603" x2="217.7603" y1="867.3047" y2="1010.1914"/><line style="stroke:#181818;stroke-width:1;" x1="217.7603" x2="130.3276" y1="1010.1914" y2="1010.1914"/><line style="stroke:#181818;stroke-width:1;" x1="130.3276" x2="130.3276" y1="1010.1914" y2="1030.1914"/><polygon fill="#181818" points="126.3276,1020.1914,130.3276,1030.1914,134.3276,1020.1914,130.3276,1024.1914" style="stroke:#181818;stroke-width:1;"/><line style="stroke:#181818;stroke-width:1;" x1="130.3276" x2="130.3276" y1="835.3047" y2="855.3047"/><polygon fill="#181818" points="126.3276,845.3047,130.3276,855.3047,134.3276,845.3047,130.3276,849.3047" style="stroke:#181818;stroke-width:1;"/><line style="stroke:#181818;stroke-width:1;" x1="130.3276" x2="130.3276" y1="1064.1602" y2="1084.1602"/><polygon fill="#181818" points="126.3276,1074.1602,130.3276,1084.1602,134.3276,1074.1602,130.3276,1078.1602" style="stroke:#181818;stroke-width:1;"/><line style="stroke:#181818;stroke-width:1;" x1="130.3276" x2="130.3276" y1="1118.1289" y2="1138.1289"/><polygon fill="#181818" points="126.3276,1128.1289,130.3276,1138.1289,134.3276,1128.1289,130.3276,1132.1289" style="stroke:#181818;stroke-width:1;"/><!--SRC=[RL6xRiCm3Dpz5HoJeSYU34MHe0MA0crXD9q5ctO8oAHBqKxzzzN3oLGE0iJJaQSx8_C8PmgJy_3ivGf7HMSa34-DqKosL5KmfrRjlm8go8WSLiABKdl26MgRMf93jQ_HOsF0qY9qAWECpgCPHkYahY-02JIEPnTYzoZSKJyf5cXqwWOqr8XH1vjZQc9BHjo3uiz4YktZ5ko239i5mxQ2MFltA0g8FJ52S-E87WhwhMG87ujTX7UlzQx-VCklLlZiFBNELcPOsDnlWPA4EjzXJe_kcrdAuiolBz4rL1M50KDm_JeuLJ0PymMvfQugP_erttmAS2MxHC4z9aFkOhgKXPUUcc95pkP_5KN1N9WfkImc51LPmRhtXAENfOoEAUZ4HaCAfqu1HuETVqWT68IJVz7rGvK7_040]--></g></svg>