<svg xmlns="http://www.w3.org/2000/svg" xmlns:xlink="http://www.w3.org/1999/xlink" contentStyleType="text/css" data-diagram-type="DESCRIPTION" height="206px" preserveAspectRatio="none" style="width:3025px;height:206px;background:#FFFFFF;" version="1.1" viewBox="0 0 3025 206" width="3025px" zoomAndPan="magnify"><title>End-to-End Testing Architecture</title><defs/><g><g class="title" data-source-line="1"><text fill="#000000" font-family="sans-serif" font-size="14" font-weight="bold" lengthAdjust="spacing" textLength="253.9893" x="1378.5054" y="22.9951">End-to-End Testing Architecture</text></g><!--cluster Test Environment--><g class="cluster" data-entity="Test Environment" data-source-line="3" data-uid="ent0002" id="cluster_Test Environment"><path d="M8.5,82.8069 L149.1309,82.8069 A3.75,3.75 0 0 1 151.6309,85.3069 L158.6309,105.1037 L674.5,105.1037 A2.5,2.5 0 0 1 677,107.6037 L677,196.6069 A2.5,2.5 0 0 1 674.5,199.1069 L8.5,199.1069 A2.5,2.5 0 0 1 6,196.6069 L6,85.3069 A2.5,2.5 0 0 1 8.5,82.8069" fill="none" style="stroke:#000000;stroke-width:1.5;"/><line style="stroke:#000000;stroke-width:1.5;" x1="6" x2="158.6309" y1="105.1037" y2="105.1037"/><text fill="#000000" font-family="sans-serif" font-size="14" font-weight="bold" lengthAdjust="spacing" textLength="139.6309" x="10" y="97.802">Test Environment</text></g><!--cluster System Under Test--><g class="cluster" data-entity="System Under Test" data-source-line="9" data-uid="ent0006" id="cluster_System Under Test"><path d="M922.5,82.8069 L1073.3916,82.8069 A3.75,3.75 0 0 1 1075.8916,85.3069 L1082.8916,105.1037 L1683.5,105.1037 A2.5,2.5 0 0 1 1686,107.6037 L1686,196.6069 A2.5,2.5 0 0 1 1683.5,199.1069 L922.5,199.1069 A2.5,2.5 0 0 1 920,196.6069 L920,85.3069 A2.5,2.5 0 0 1 922.5,82.8069" fill="none" style="stroke:#000000;stroke-width:1.5;"/><line style="stroke:#000000;stroke-width:1.5;" x1="920" x2="1082.8916" y1="105.1037" y2="105.1037"/><text fill="#000000" font-family="sans-serif" font-size="14" font-weight="bold" lengthAdjust="spacing" textLength="149.8916" x="924" y="97.802">System Under Test</text></g><!--cluster Validation--><g class="cluster" data-entity="Validation" data-source-line="15" data-uid="ent0010" id="cluster_Validation"><path d="M2151.5,82.8069 L2232.9248,82.8069 A3.75,3.75 0 0 1 2235.4248,85.3069 L2242.4248,105.1037 L3015.5,105.1037 A2.5,2.5 0 0 1 3018,107.6037 L3018,196.6069 A2.5,2.5 0 0 1 3015.5,199.1069 L2151.5,199.1069 A2.5,2.5 0 0 1 2149,196.6069 L2149,85.3069 A2.5,2.5 0 0 1 2151.5,82.8069" fill="none" style="stroke:#000000;stroke-width:1.5;"/><line style="stroke:#000000;stroke-width:1.5;" x1="2149" x2="2242.4248" y1="105.1037" y2="105.1037"/><text fill="#000000" font-family="sans-serif" font-size="14" font-weight="bold" lengthAdjust="spacing" textLength="80.4248" x="2153" y="97.802">Validation</text></g><!--entity TestRunner--><g class="entity" data-entity="TestRunner" data-source-line="4" data-uid="ent0003" id="entity_TestRunner"><rect fill="#F1F1F1" height="46.2969" rx="2.5" ry="2.5" style="stroke:#181818;stroke-width:0.5;" width="125.1143" x="22.44" y="136.8069"/><rect fill="#F1F1F1" height="10" style="stroke:#181818;stroke-width:0.5;" width="15" x="127.5543" y="141.8069"/><rect fill="#F1F1F1" height="2" style="stroke:#181818;stroke-width:0.5;" width="4" x="125.5543" y="143.8069"/><rect fill="#F1F1F1" height="2" style="stroke:#181818;stroke-width:0.5;" width="4" x="125.5543" y="147.8069"/><text fill="#000000" font-family="sans-serif" font-size="14" lengthAdjust="spacing" textLength="85.1143" x="37.44" y="169.802">Test Runner</text></g><!--entity TestData--><g class="entity" data-entity="TestData" data-source-line="5" data-uid="ent0004" id="entity_TestData"><rect fill="#F1F1F1" height="46.2969" rx="2.5" ry="2.5" style="stroke:#181818;stroke-width:0.5;" width="173.6426" x="487.18" y="136.8069"/><rect fill="#F1F1F1" height="10" style="stroke:#181818;stroke-width:0.5;" width="15" x="640.8226" y="141.8069"/><rect fill="#F1F1F1" height="2" style="stroke:#181818;stroke-width:0.5;" width="4" x="638.8226" y="143.8069"/><rect fill="#F1F1F1" height="2" style="stroke:#181818;stroke-width:0.5;" width="4" x="638.8226" y="147.8069"/><text fill="#000000" font-family="sans-serif" font-size="14" lengthAdjust="spacing" textLength="133.6426" x="502.18" y="169.802">Test Data Manager</text></g><!--entity Mocks--><g class="entity" data-entity="Mocks" data-source-line="6" data-uid="ent0005" id="entity_Mocks"><rect fill="#F1F1F1" height="46.2969" rx="2.5" ry="2.5" style="stroke:#181818;stroke-width:0.5;" width="139.9346" x="312.03" y="136.8069"/><rect fill="#F1F1F1" height="10" style="stroke:#181818;stroke-width:0.5;" width="15" x="431.9646" y="141.8069"/><rect fill="#F1F1F1" height="2" style="stroke:#181818;stroke-width:0.5;" width="4" x="429.9646" y="143.8069"/><rect fill="#F1F1F1" height="2" style="stroke:#181818;stroke-width:0.5;" width="4" x="429.9646" y="147.8069"/><text fill="#000000" font-family="sans-serif" font-size="14" lengthAdjust="spacing" textLength="99.9346" x="327.03" y="169.802">Mock Services</text></g><!--entity Studio--><g class="entity" data-entity="Studio" data-source-line="10" data-uid="ent0007" id="entity_Studio"><rect fill="#F1F1F1" height="46.2969" rx="2.5" ry="2.5" style="stroke:#181818;stroke-width:0.5;" width="188.2031" x="935.9" y="136.8069"/><rect fill="#F1F1F1" height="10" style="stroke:#181818;stroke-width:0.5;" width="15" x="1104.1031" y="141.8069"/><rect fill="#F1F1F1" height="2" style="stroke:#181818;stroke-width:0.5;" width="4" x="1102.1031" y="143.8069"/><rect fill="#F1F1F1" height="2" style="stroke:#181818;stroke-width:0.5;" width="4" x="1102.1031" y="147.8069"/><text fill="#000000" font-family="sans-serif" font-size="14" lengthAdjust="spacing" textLength="148.2031" x="950.9" y="169.802">VisualGridDev Studio</text></g><!--entity Agents--><g class="entity" data-entity="Agents" data-source-line="11" data-uid="ent0008" id="entity_Agents"><rect fill="#F1F1F1" height="46.2969" rx="2.5" ry="2.5" style="stroke:#181818;stroke-width:0.5;" width="144.3438" x="1278.83" y="136.8069"/><rect fill="#F1F1F1" height="10" style="stroke:#181818;stroke-width:0.5;" width="15" x="1403.1738" y="141.8069"/><rect fill="#F1F1F1" height="2" style="stroke:#181818;stroke-width:0.5;" width="4" x="1401.1738" y="143.8069"/><rect fill="#F1F1F1" height="2" style="stroke:#181818;stroke-width:0.5;" width="4" x="1401.1738" y="147.8069"/><text fill="#000000" font-family="sans-serif" font-size="14" lengthAdjust="spacing" textLength="104.3438" x="1293.83" y="169.802">Agent Network</text></g><!--entity DB--><g class="entity" data-entity="DB" data-source-line="12" data-uid="ent0009" id="entity_DB"><rect fill="#F1F1F1" height="46.2969" rx="2.5" ry="2.5" style="stroke:#181818;stroke-width:0.5;" width="106.8008" x="1563.6" y="136.8069"/><rect fill="#F1F1F1" height="10" style="stroke:#181818;stroke-width:0.5;" width="15" x="1650.4008" y="141.8069"/><rect fill="#F1F1F1" height="2" style="stroke:#181818;stroke-width:0.5;" width="4" x="1648.4008" y="143.8069"/><rect fill="#F1F1F1" height="2" style="stroke:#181818;stroke-width:0.5;" width="4" x="1648.4008" y="147.8069"/><text fill="#000000" font-family="sans-serif" font-size="14" lengthAdjust="spacing" textLength="66.8008" x="1578.6" y="169.802">Database</text></g><!--entity Validator--><g class="entity" data-entity="Validator" data-source-line="16" data-uid="ent0011" id="entity_Validator"><rect fill="#F1F1F1" height="46.2969" rx="2.5" ry="2.5" style="stroke:#181818;stroke-width:0.5;" width="151.5488" x="2540.23" y="136.8069"/><rect fill="#F1F1F1" height="10" style="stroke:#181818;stroke-width:0.5;" width="15" x="2671.7788" y="141.8069"/><rect fill="#F1F1F1" height="2" style="stroke:#181818;stroke-width:0.5;" width="4" x="2669.7788" y="143.8069"/><rect fill="#F1F1F1" height="2" style="stroke:#181818;stroke-width:0.5;" width="4" x="2669.7788" y="147.8069"/><text fill="#000000" font-family="sans-serif" font-size="14" lengthAdjust="spacing" textLength="111.5488" x="2555.23" y="169.802">Result Validator</text></g><!--entity PerfMon--><g class="entity" data-entity="PerfMon" data-source-line="17" data-uid="ent0012" id="entity_PerfMon"><rect fill="#F1F1F1" height="46.2969" rx="2.5" ry="2.5" style="stroke:#181818;stroke-width:0.5;" width="187.1299" x="2165.44" y="136.8069"/><rect fill="#F1F1F1" height="10" style="stroke:#181818;stroke-width:0.5;" width="15" x="2332.5699" y="141.8069"/><rect fill="#F1F1F1" height="2" style="stroke:#181818;stroke-width:0.5;" width="4" x="2330.5699" y="143.8069"/><rect fill="#F1F1F1" height="2" style="stroke:#181818;stroke-width:0.5;" width="4" x="2330.5699" y="147.8069"/><text fill="#000000" font-family="sans-serif" font-size="14" lengthAdjust="spacing" textLength="147.1299" x="2180.44" y="169.802">Performance Monitor</text></g><!--entity Reporter--><g class="entity" data-entity="Reporter" data-source-line="18" data-uid="ent0013" id="entity_Reporter"><rect fill="#F1F1F1" height="46.2969" rx="2.5" ry="2.5" style="stroke:#181818;stroke-width:0.5;" width="162.582" x="2839.71" y="136.8069"/><rect fill="#F1F1F1" height="10" style="stroke:#181818;stroke-width:0.5;" width="15" x="2982.292" y="141.8069"/><rect fill="#F1F1F1" height="2" style="stroke:#181818;stroke-width:0.5;" width="4" x="2980.292" y="143.8069"/><rect fill="#F1F1F1" height="2" style="stroke:#181818;stroke-width:0.5;" width="4" x="2980.292" y="147.8069"/><text fill="#000000" font-family="sans-serif" font-size="14" lengthAdjust="spacing" textLength="122.582" x="2854.71" y="169.802">Report Generator</text></g><!--link TestRunner to TestData--><g class="link" data-entity-1="TestRunner" data-entity-2="TestData" data-source-line="21" data-uid="lnk14" id="link_TestRunner_TestData"><path d="M121.33,136.4769 C156.65,115.1469 212.64,85.2269 266,73.0869 C353.98,53.0669 384.22,43.9369 469,74.8069 C503.18,87.2569 530.352,111.4738 549.722,132.0938" fill="none" id="TestRunner-to-TestData" style="stroke:#181818;stroke-width:1;"/><polygon fill="#181818" points="553.83,136.4669,550.5834,127.1685,550.4067,132.8226,544.7526,132.6459,553.83,136.4669" style="stroke:#181818;stroke-width:1;"/><text fill="#000000" font-family="sans-serif" font-size="13" lengthAdjust="spacing" textLength="100.3501" x="267" y="62.8738">Setup test data</text></g><!--link TestData to DB--><g class="link" data-entity-1="TestData" data-entity-2="DB" data-source-line="22" data-uid="lnk15" id="link_TestData_DB"><path d="M647.97,136.3869 C717.39,115.5569 824.54,86.6869 920,74.8069 C1034.89,60.5069 1328.32,48.1869 1441,74.8069 C1492.37,86.9469 1541.1323,112.6578 1575.5323,133.4078" fill="none" id="TestData-to-DB" style="stroke:#181818;stroke-width:1;"/><polygon fill="#181818" points="1580.67,136.5069,1575.0295,128.4332,1576.3886,133.9243,1570.8974,135.2834,1580.67,136.5069" style="stroke:#181818;stroke-width:1;"/><text fill="#000000" font-family="sans-serif" font-size="13" lengthAdjust="spacing" textLength="118.8091" x="1193" y="62.8738">Initialize database</text></g><!--link TestRunner to Mocks--><g class="link" data-entity-1="TestRunner" data-entity-2="Mocks" data-source-line="23" data-uid="lnk16" id="link_TestRunner_Mocks"><path d="M147.99,159.9569 C195.92,159.9569 255.88,159.9569 305.56,159.9569" fill="none" id="TestRunner-to-Mocks" style="stroke:#181818;stroke-width:1;"/><polygon fill="#181818" points="311.56,159.9569,302.56,155.9569,306.56,159.9569,302.56,163.9569,311.56,159.9569" style="stroke:#181818;stroke-width:1;"/><text fill="#000000" font-family="sans-serif" font-size="13" lengthAdjust="spacing" textLength="128.6543" x="165.79" y="153.0238">Start mock services</text></g><!--link TestRunner to Studio--><g class="link" data-entity-1="TestRunner" data-entity-2="Studio" data-source-line="24" data-uid="lnk17" id="link_TestRunner_Studio"><path d="M128.93,136.3569 C170.39,115.5069 234.98,86.6269 295,74.8069 C364.83,61.0669 869.19,47.2369 935.5,73.0869 C967.89,85.7069 992.1472,110.5253 1009.0772,131.6453" fill="none" id="TestRunner-to-Studio" style="stroke:#181818;stroke-width:1;"/><polygon fill="#181818" points="1012.83,136.3269,1010.3219,126.8027,1009.7027,132.4256,1004.0798,131.8064,1012.83,136.3269" style="stroke:#181818;stroke-width:1;"/><text fill="#000000" font-family="sans-serif" font-size="13" lengthAdjust="spacing" textLength="147.4243" x="787.5" y="62.8738">Execute test scenarios</text></g><!--link Studio to Agents--><g class="link" data-entity-1="Studio" data-entity-2="Agents" data-source-line="25" data-uid="lnk18" id="link_Studio_Agents"><path d="M1124.57,159.9569 C1173.77,159.9569 1226.96,159.9569 1272.49,159.9569" fill="none" id="Studio-to-Agents" style="stroke:#181818;stroke-width:1;"/><polygon fill="#181818" points="1278.49,159.9569,1269.49,155.9569,1273.49,159.9569,1269.49,163.9569,1278.49,159.9569" style="stroke:#181818;stroke-width:1;"/><text fill="#000000" font-family="sans-serif" font-size="13" lengthAdjust="spacing" textLength="118.9678" x="1142.46" y="153.0238">Process workflows</text></g><!--link Agents to DB--><g class="link" data-entity-1="Agents" data-entity-2="DB" data-source-line="26" data-uid="lnk19" id="link_Agents_DB"><path d="M1423.33,159.9569 C1467.49,159.9569 1516.99,159.9569 1557.25,159.9569" fill="none" id="Agents-to-DB" style="stroke:#181818;stroke-width:1;"/><polygon fill="#181818" points="1563.25,159.9569,1554.25,155.9569,1558.25,159.9569,1554.25,163.9569,1563.25,159.9569" style="stroke:#181818;stroke-width:1;"/><text fill="#000000" font-family="sans-serif" font-size="13" lengthAdjust="spacing" textLength="104.3618" x="1441.39" y="153.0238">Data operations</text></g><!--link DB to Validator--><g class="link" data-entity-1="DB" data-entity-2="Validator" data-source-line="27" data-uid="lnk20" id="link_DB_Validator"><path d="M1649.03,136.5069 C1680.27,115.2069 1730.03,85.2969 1778.5,73.0869 C1799.71,67.7469 2224.59,50.0969 2370,74.8069 C2439.28,86.5869 2509.6412,113.1226 2558.5412,133.9826" fill="none" id="DB-to-Validator" style="stroke:#181818;stroke-width:1;"/><polygon fill="#181818" points="2564.06,136.3369,2557.3513,129.1263,2559.461,134.375,2554.2123,136.4847,2564.06,136.3369" style="stroke:#181818;stroke-width:1;"/><text fill="#000000" font-family="sans-serif" font-size="13" lengthAdjust="spacing" textLength="101.3657" x="1779.5" y="62.8738">Validate results</text></g><!--link Studio to PerfMon--><g class="link" data-entity-1="Studio" data-entity-2="PerfMon" data-source-line="28" data-uid="lnk21" id="link_Studio_PerfMon"><path d="M1078.61,136.3369 C1124.41,115.4669 1195.59,86.5769 1261,74.8069 C1427.77,44.8169 1856.69,43.2969 2023.5,73.0869 C2090.85,85.1069 2158.7155,112.5571 2205.3455,133.9271" fill="none" id="Studio-to-PerfMon" style="stroke:#181818;stroke-width:1;"/><polygon fill="#181818" points="2210.8,136.4269,2204.2848,129.041,2206.2546,134.3438,2200.9518,136.3136,2210.8,136.4269" style="stroke:#181818;stroke-width:1;"/><text fill="#000000" font-family="sans-serif" font-size="13" lengthAdjust="spacing" textLength="135.8398" x="1887.5" y="62.8738">Performance metrics</text></g><!--link PerfMon to Validator--><g class="link" data-entity-1="PerfMon" data-entity-2="Validator" data-source-line="29" data-uid="lnk22" id="link_PerfMon_Validator"><path d="M2352.8,159.9569 C2411.16,159.9569 2479.25,159.9569 2533.94,159.9569" fill="none" id="PerfMon-to-Validator" style="stroke:#181818;stroke-width:1;"/><polygon fill="#181818" points="2539.94,159.9569,2530.94,155.9569,2534.94,159.9569,2530.94,163.9569,2539.94,159.9569" style="stroke:#181818;stroke-width:1;"/><text fill="#000000" font-family="sans-serif" font-size="13" lengthAdjust="spacing" textLength="151.2075" x="2370.9" y="153.0238">Performance validation</text></g><!--link Validator to Reporter--><g class="link" data-entity-1="Validator" data-entity-2="Reporter" data-source-line="30" data-uid="lnk23" id="link_Validator_Reporter"><path d="M2692.18,159.9569 C2736.99,159.9569 2787.66,159.9569 2833.39,159.9569" fill="none" id="Validator-to-Reporter" style="stroke:#181818;stroke-width:1;"/><polygon fill="#181818" points="2839.39,159.9569,2830.39,155.9569,2834.39,159.9569,2830.39,163.9569,2839.39,159.9569" style="stroke:#181818;stroke-width:1;"/><text fill="#000000" font-family="sans-serif" font-size="13" lengthAdjust="spacing" textLength="111.6108" x="2710.24" y="153.0238">Generate reports</text></g><!--link Reporter to TestRunner--><g class="link" data-entity-1="Reporter" data-entity-2="TestRunner" data-source-line="31" data-uid="lnk24" id="link_Reporter_TestRunner"><path d="M2876.63,136.3269 C2834.76,115.4569 2769.55,86.5569 2709,74.8069 C2577.35,49.2569 426.61,49.0369 295,74.8069 C234.96,86.5669 175.739,112.7586 134.289,133.6286" fill="none" id="Reporter-to-TestRunner" style="stroke:#181818;stroke-width:1;"/><polygon fill="#181818" points="128.93,136.3269,138.7674,135.8522,133.3959,134.0783,135.1697,128.7068,128.93,136.3269" style="stroke:#181818;stroke-width:1;"/><text fill="#000000" font-family="sans-serif" font-size="13" lengthAdjust="spacing" textLength="75.7783" x="1453.5" y="62.8738">Test results</text></g><!--SRC=[RL7BJiCm4BpxArQzzmToGA8AGXn0g0NknbcArSIEl9lo4l_Ehfs44fgBxPt9U3p3dbk4gz2iEQvbWGSazc4FbyczUaR7Gq9ZUkiETe-mKbZeHvzYw33m2huCoETYrySWWv6o7KB0j09BMR4Spp9honPkRH3vNxuEb-pRw0wmmtJq3YapTKBc-yJUxeCOEtWC3QOiTCRVawV1jjV9DpKUOST3usEMAzib_NAlontoMqo7pCiJMlBKyhCbp9HwyyVMasrzOzd7SCRF5cbe6KPEB27CfoNx7jDBJ9qD3kNzmKy_w5pE_yNxc1YkKUAVnSjG-X2Fl-t0-cBElfAWUUY1jQ56ovWGPTMR2cxaQYycFp7Z-lA5Lcv7XDYAWKxBex6y1R7aNi7LExg1iLnA3eDDFf8fi19By1NSfoWg1Dh8InlVo1HayfPznbvVB96JgJUAp95MqnOXvUnFxnXphE0qw0uvUKTc11TgfypZtBIP6KgV8g-cAlHk7P6Pe2d_4aoLzxF17m00]--></g></svg>