<svg xmlns="http://www.w3.org/2000/svg" xmlns:xlink="http://www.w3.org/1999/xlink" contentStyleType="text/css" data-diagram-type="DESCRIPTION" height="731px" preserveAspectRatio="none" style="width:606px;height:731px;background:#FFFFFF;" version="1.1" viewBox="0 0 606 731" width="606px" zoomAndPan="magnify"><defs/><g><!--cluster VisualGridDev Platform--><g class="cluster" data-entity="VisualGridDev Platform" data-source-line="3" data-uid="ent0004" id="cluster_VisualGridDev Platform"><rect fill="none" height="580.48" rx="2.5" ry="2.5" style="stroke:#181818;stroke-width:1;" width="528" x="7" y="144.8"/><text fill="#000000" font-family="sans-serif" font-size="14" font-weight="bold" lengthAdjust="spacing" textLength="184.9121" x="178.5439" y="159.7951">VisualGridDev Platform</text></g><!--entity IDE--><g class="entity" data-entity="IDE" data-source-line="4" data-uid="ent0005" id="entity_IDE"><rect fill="#F1F1F1" height="36.2969" rx="2.5" ry="2.5" style="stroke:#181818;stroke-width:0.5;" width="90.3076" x="358.85" y="179.8"/><text fill="#000000" font-family="sans-serif" font-size="14" lengthAdjust="spacing" textLength="70.3076" x="368.85" y="202.7951">Visual IDE</text></g><!--entity API--><g class="entity" data-entity="API" data-source-line="5" data-uid="ent0006" id="entity_API"><rect fill="#F1F1F1" height="36.2969" rx="2.5" ry="2.5" style="stroke:#181818;stroke-width:0.5;" width="108.4434" x="349.78" y="293.09"/><text fill="#000000" font-family="sans-serif" font-size="14" lengthAdjust="spacing" textLength="88.4434" x="359.78" y="316.0851">API Gateway</text></g><!--entity RT--><g class="entity" data-entity="RT" data-source-line="6" data-uid="ent0007" id="entity_RT"><rect fill="#F1F1F1" height="36.2969" rx="2.5" ry="2.5" style="stroke:#181818;stroke-width:0.5;" width="115.5117" x="193.24" y="426.39"/><text fill="#000000" font-family="sans-serif" font-size="14" lengthAdjust="spacing" textLength="95.5117" x="203.24" y="449.3851">Flow Runtime</text></g><!--entity Mesh--><g class="entity" data-entity="Mesh" data-source-line="7" data-uid="ent0008" id="entity_Mesh"><rect fill="#F1F1F1" height="36.2969" rx="2.5" ry="2.5" style="stroke:#181818;stroke-width:0.5;" width="102.749" x="22.63" y="559.69"/><text fill="#000000" font-family="sans-serif" font-size="14" lengthAdjust="spacing" textLength="82.749" x="32.63" y="582.6851">Mesh Agent</text></g><!--entity AI--><g class="entity" data-entity="AI" data-source-line="8" data-uid="ent0009" id="entity_AI"><rect fill="#F1F1F1" height="36.2969" rx="2.5" ry="2.5" style="stroke:#181818;stroke-width:0.5;" width="110.7334" x="160.63" y="559.69"/><text fill="#000000" font-family="sans-serif" font-size="14" lengthAdjust="spacing" textLength="90.7334" x="170.63" y="582.6851">AI/ML Engine</text></g><!--entity Mon--><g class="entity" data-entity="Mon" data-source-line="9" data-uid="ent0010" id="entity_Mon"><rect fill="#F1F1F1" height="36.2969" rx="2.5" ry="2.5" style="stroke:#181818;stroke-width:0.5;" width="175.5176" x="306.24" y="559.69"/><text fill="#000000" font-family="sans-serif" font-size="14" lengthAdjust="spacing" textLength="155.5176" x="316.24" y="582.6851">Monitoring Dashboard</text></g><!--entity DB--><g class="entity" data-entity="DB" data-source-line="10" data-uid="ent0011" id="entity_DB"><rect fill="#F1F1F1" height="36.2969" rx="2.5" ry="2.5" style="stroke:#181818;stroke-width:0.5;" width="86.8008" x="411.6" y="672.98"/><text fill="#000000" font-family="sans-serif" font-size="14" lengthAdjust="spacing" textLength="66.8008" x="421.6" y="695.9751">Database</text></g><!--entity Developer--><g class="entity" data-entity="Developer" data-source-line="1" data-uid="ent0002" id="entity_Developer"><ellipse cx="404.0015" cy="14" fill="#F1F1F1" rx="8" ry="8" style="stroke:#181818;stroke-width:0.5;"/><path d="M404.0015,22 L404.0015,49 M391.0015,30 L417.0015,30 M404.0015,49 L391.0015,64 M404.0015,49 L417.0015,64" fill="none" style="stroke:#181818;stroke-width:0.5;"/><text fill="#000000" font-family="sans-serif" font-size="14" lengthAdjust="spacing" textLength="72.0029" x="368" y="78.4951">Developer</text></g><!--entity Admin--><g class="entity" data-entity="Admin" data-source-line="2" data-uid="ent0003" id="entity_Admin"><ellipse cx="573.0021" cy="414.89" fill="#F1F1F1" rx="8" ry="8" style="stroke:#181818;stroke-width:0.5;"/><path d="M573.0021,422.89 L573.0021,449.89 M560.0021,430.89 L586.0021,430.89 M573.0021,449.89 L560.0021,464.89 M573.0021,449.89 L586.0021,464.89" fill="none" style="stroke:#181818;stroke-width:0.5;"/><text fill="#000000" font-family="sans-serif" font-size="14" lengthAdjust="spacing" textLength="44.8643" x="550.57" y="479.3851">Admin</text></g><!--link Developer to IDE--><g class="link" data-entity-1="Developer" data-entity-2="IDE" data-source-line="12" data-uid="lnk12" id="link_Developer_IDE"><path d="M404,82.29 C404,113.3 404,149.86 404,173.44" fill="none" id="Developer-to-IDE" style="stroke:#181818;stroke-width:1;"/><polygon fill="#181818" points="404,179.44,408,170.44,404,174.44,400,170.44,404,179.44" style="stroke:#181818;stroke-width:1;"/><text fill="#000000" font-family="sans-serif" font-size="13" lengthAdjust="spacing" textLength="31.0591" x="405" y="124.8669">Uses</text></g><!--link Admin to Mon--><g class="link" data-entity-1="Admin" data-entity-2="Mon" data-source-line="13" data-uid="lnk13" id="link_Admin_Mon"><path d="M559.58,483.13 C552.15,499.34 541.45,517.38 527,529.69 C511.61,542.79 497.9692,550.3007 478.8992,557.2307" fill="none" id="Admin-to-Mon" style="stroke:#181818;stroke-width:1;"/><polygon fill="#181818" points="473.26,559.28,483.085,559.9656,477.9593,557.5723,480.3526,552.4466,473.26,559.28" style="stroke:#181818;stroke-width:1;"/><text fill="#000000" font-family="sans-serif" font-size="13" lengthAdjust="spacing" textLength="56.1895" x="542.14" y="525.7569">Monitors</text></g><!--link IDE to API--><g class="link" data-entity-1="IDE" data-entity-2="API" data-source-line="14" data-uid="lnk14" id="link_IDE_API"><path d="M404,216.33 C404,237.12 404,265.71 404,286.61" fill="none" id="IDE-to-API" style="stroke:#181818;stroke-width:1;"/><polygon fill="#181818" points="404,292.61,408,283.61,404,287.61,400,283.61,404,292.61" style="stroke:#181818;stroke-width:1;"/><text fill="#000000" font-family="sans-serif" font-size="13" lengthAdjust="spacing" textLength="55.7388" x="405" y="259.1569">API Calls</text></g><!--link API to RT--><g class="link" data-entity-1="API" data-entity-2="RT" data-source-line="15" data-uid="lnk15" id="link_API_RT"><path d="M375.15,329.82 C362.14,338.21 346.86,348.72 334,359.39 C308.57,380.48 286.316,403.8722 270.316,421.6322" fill="none" id="API-to-RT" style="stroke:#181818;stroke-width:1;"/><polygon fill="#181818" points="266.3,426.09,275.2959,422.0807,269.6467,422.3752,269.3522,416.726,266.3,426.09" style="stroke:#181818;stroke-width:1;"/><text fill="#000000" font-family="sans-serif" font-size="13" lengthAdjust="spacing" textLength="92.8726" x="335" y="372.4569">Deploys Flows</text></g><!--link RT to Mesh--><g class="link" data-entity-1="RT" data-entity-2="Mesh" data-source-line="16" data-uid="lnk16" id="link_RT_Mesh"><path d="M192.98,457.2 C159.45,466.78 118.89,483.66 93,512.69 C81.48,525.6 77.6835,539.2575 75.8935,553.3975" fill="none" id="RT-to-Mesh" style="stroke:#181818;stroke-width:1;"/><polygon fill="#181818" points="75.14,559.35,80.2386,550.9236,75.7679,554.3896,72.302,549.9189,75.14,559.35" style="stroke:#181818;stroke-width:1;"/><text fill="#000000" font-family="sans-serif" font-size="13" lengthAdjust="spacing" textLength="87.4897" x="94" y="525.7569">Mesh Comms</text></g><!--link RT to AI--><g class="link" data-entity-1="RT" data-entity-2="AI" data-source-line="17" data-uid="lnk17" id="link_RT_AI"><path d="M229.17,462.95 C215.63,475.22 199.44,492.94 192,512.69 C186.04,528.49 190.8224,541.4613 199.1624,554.3613" fill="none" id="RT-to-AI" style="stroke:#181818;stroke-width:1;"/><polygon fill="#181818" points="202.42,559.4,200.8928,549.6703,199.7054,555.2011,194.1745,554.0137,202.42,559.4" style="stroke:#181818;stroke-width:1;"/><text fill="#000000" font-family="sans-serif" font-size="13" lengthAdjust="spacing" textLength="70.7383" x="193" y="525.7569">AI/ML Calls</text></g><!--link RT to Mon--><g class="link" data-entity-1="RT" data-entity-2="Mon" data-source-line="18" data-uid="lnk18" id="link_RT_Mon"><path d="M258.56,462.89 C267.3,481.34 283.2,510.48 304,529.69 C317.09,541.77 328.4652,549.0339 343.9752,556.5839" fill="none" id="RT-to-Mon" style="stroke:#181818;stroke-width:1;"/><polygon fill="#181818" points="349.37,559.21,343.0286,551.6743,344.8743,557.0216,339.5271,558.8674,349.37,559.21" style="stroke:#181818;stroke-width:1;"/><text fill="#000000" font-family="sans-serif" font-size="13" lengthAdjust="spacing" textLength="88.4927" x="305" y="525.7569">Health/Status</text></g><!--link API to DB--><g class="link" data-entity-1="API" data-entity-2="DB" data-source-line="19" data-uid="lnk19" id="link_API_DB"><path d="M417.2,329.61 C422.88,338.11 428.92,348.78 432,359.39 C453.12,432.11 395.84,466.13 437,529.69 C453.64,555.38 482.74,533.75 499,559.69 C521.98,596.34 494.1633,641.6414 473.7233,667.8114" fill="none" id="API-to-DB" style="stroke:#181818;stroke-width:1;"/><polygon fill="#181818" points="470.03,672.54,478.7223,667.9093,473.1077,668.5995,472.4175,662.9849,470.03,672.54" style="stroke:#181818;stroke-width:1;"/><text fill="#000000" font-family="sans-serif" font-size="13" lengthAdjust="spacing" textLength="80.501" x="438" y="525.7569">State/Config</text></g><!--link Mon to DB--><g class="link" data-entity-1="Mon" data-entity-2="DB" data-source-line="20" data-uid="lnk20" id="link_Mon_DB"><path d="M403.53,596.22 C414.92,617.01 430.9972,646.3379 442.4472,667.2379" fill="none" id="Mon-to-DB" style="stroke:#181818;stroke-width:1;"/><polygon fill="#181818" points="445.33,672.5,444.5138,662.685,442.9277,668.1149,437.4977,666.5288,445.33,672.5" style="stroke:#181818;stroke-width:1;"/><text fill="#000000" font-family="sans-serif" font-size="13" lengthAdjust="spacing" textLength="47.1885" x="429.15" y="639.0469">Metrics</text></g><!--SRC=[PL11QiCm4Bph5OllmNSV2egLfeOOWflslh4tja2MWYGtXDA_Lv9R5wSNIJipEyC8Msyi2FeWPQva6QQPTwFKp5BhKVUA87kNRaArjx8BKZWgz1TZnmm-6S0_6LHYbm6wUAzvVgnWZvvkU4-2CAy5pyhSe9cqboCbHNDQ2sfo0_2Uj4zq71yYghm-m4xtKiyE_26YDbg6ZbBt8D0DPuEscxsCNYi5UZoZcst4bdsnvPzWitcAzQ20DqUEfGzBO709u4-8Or4JuTYyI6U9IeM5y8fuSmgmeAioTmUnlMC1IaQnQJ5VfHd7XU39ATMSlNuNKl8BeV93_khHJtynOXkeY55U6dsHFOlgXQd9MzcwRm00]--></g></svg>