<svg xmlns="http://www.w3.org/2000/svg" xmlns:xlink="http://www.w3.org/1999/xlink" contentStyleType="text/css" data-diagram-type="SEQUENCE" height="594px" preserveAspectRatio="none" style="width:729px;height:594px;background:#FFFFFF;" version="1.1" viewBox="0 0 729 594" width="729px" zoomAndPan="magnify"><title>Chaos Engineering Testing</title><defs/><g><text fill="#000000" font-family="sans-serif" font-size="14" font-weight="bold" lengthAdjust="spacing" textLength="211.2441" x="260.8215" y="27.9951">Chaos Engineering Testing</text><rect fill="none" height="104.5313" style="stroke:#000000;stroke-width:1.5;" width="713.8872" x="10" y="336.6563"/><g><title>Chaos Controller</title><rect fill="#000000" fill-opacity="0.00000" height="485.125" width="8" x="81.355" y="73.5938"/><line style="stroke:#181818;stroke-width:0.5;stroke-dasharray:5,5;" x1="85" x2="85" y1="73.5938" y2="558.7188"/></g><g><title>Target System</title><rect fill="#000000" fill-opacity="0.00000" height="485.125" width="8" x="256.1499" y="73.5938"/><line style="stroke:#181818;stroke-width:0.5;stroke-dasharray:5,5;" x1="259.8838" x2="259.8838" y1="73.5938" y2="558.7188"/></g><g><title>Monitoring</title><rect fill="#000000" fill-opacity="0.00000" height="485.125" width="8" x="388.1274" y="73.5938"/><line style="stroke:#181818;stroke-width:0.5;stroke-dasharray:5,5;" x1="391.6938" x2="391.6938" y1="73.5938" y2="558.7188"/></g><g><title>Recovery System</title><rect fill="#000000" fill-opacity="0.00000" height="485.125" width="8" x="520.1772" y="73.5938"/><line style="stroke:#181818;stroke-width:0.5;stroke-dasharray:5,5;" x1="524.0776" x2="524.0776" y1="73.5938" y2="558.7188"/></g><g><title>Test Validator</title><rect fill="#000000" fill-opacity="0.00000" height="485.125" width="8" x="654.082" y="73.5938"/><line style="stroke:#181818;stroke-width:0.5;stroke-dasharray:5,5;" x1="657.2769" x2="657.2769" y1="73.5938" y2="558.7188"/></g><g class="participant participant-head" data-participant="Chaos"><rect fill="#E2E2F0" height="30.2969" rx="2.5" ry="2.5" style="stroke:#181818;stroke-width:0.5;" width="130.71" x="20" y="42.2969"/><text fill="#000000" font-family="sans-serif" font-size="14" lengthAdjust="spacing" textLength="116.71" x="27" y="62.292">Chaos Controller</text></g><g class="participant participant-tail" data-participant="Chaos"><rect fill="#E2E2F0" height="30.2969" rx="2.5" ry="2.5" style="stroke:#181818;stroke-width:0.5;" width="130.71" x="20" y="557.7188"/><text fill="#000000" font-family="sans-serif" font-size="14" lengthAdjust="spacing" textLength="116.71" x="27" y="577.7139">Chaos Controller</text></g><g class="participant participant-head" data-participant="System"><rect fill="#E2E2F0" height="30.2969" rx="2.5" ry="2.5" style="stroke:#181818;stroke-width:0.5;" width="116.5322" x="201.8838" y="42.2969"/><text fill="#000000" font-family="sans-serif" font-size="14" lengthAdjust="spacing" textLength="102.5322" x="208.8838" y="62.292">Target System</text></g><g class="participant participant-tail" data-participant="System"><rect fill="#E2E2F0" height="30.2969" rx="2.5" ry="2.5" style="stroke:#181818;stroke-width:0.5;" width="116.5322" x="201.8838" y="557.7188"/><text fill="#000000" font-family="sans-serif" font-size="14" lengthAdjust="spacing" textLength="102.5322" x="208.8838" y="577.7139">Target System</text></g><g class="participant participant-head" data-participant="Monitor"><rect fill="#E2E2F0" height="30.2969" rx="2.5" ry="2.5" style="stroke:#181818;stroke-width:0.5;" width="88.8672" x="347.6938" y="42.2969"/><text fill="#000000" font-family="sans-serif" font-size="14" lengthAdjust="spacing" textLength="74.8672" x="354.6938" y="62.292">Monitoring</text></g><g class="participant participant-tail" data-participant="Monitor"><rect fill="#E2E2F0" height="30.2969" rx="2.5" ry="2.5" style="stroke:#181818;stroke-width:0.5;" width="88.8672" x="347.6938" y="557.7188"/><text fill="#000000" font-family="sans-serif" font-size="14" lengthAdjust="spacing" textLength="74.8672" x="354.6938" y="577.7139">Monitoring</text></g><g class="participant participant-head" data-participant="Recovery"><rect fill="#E2E2F0" height="30.2969" rx="2.5" ry="2.5" style="stroke:#181818;stroke-width:0.5;" width="136.1992" x="456.0776" y="42.2969"/><text fill="#000000" font-family="sans-serif" font-size="14" lengthAdjust="spacing" textLength="122.1992" x="463.0776" y="62.292">Recovery System</text></g><g class="participant participant-tail" data-participant="Recovery"><rect fill="#E2E2F0" height="30.2969" rx="2.5" ry="2.5" style="stroke:#181818;stroke-width:0.5;" width="136.1992" x="456.0776" y="557.7188"/><text fill="#000000" font-family="sans-serif" font-size="14" lengthAdjust="spacing" textLength="122.1992" x="463.0776" y="577.7139">Recovery System</text></g><g class="participant participant-head" data-participant="Validator"><rect fill="#E2E2F0" height="30.2969" rx="2.5" ry="2.5" style="stroke:#181818;stroke-width:0.5;" width="111.6104" x="602.2769" y="42.2969"/><text fill="#000000" font-family="sans-serif" font-size="14" lengthAdjust="spacing" textLength="97.6104" x="609.2769" y="62.292">Test Validator</text></g><g class="participant participant-tail" data-participant="Validator"><rect fill="#E2E2F0" height="30.2969" rx="2.5" ry="2.5" style="stroke:#181818;stroke-width:0.5;" width="111.6104" x="602.2769" y="557.7188"/><text fill="#000000" font-family="sans-serif" font-size="14" lengthAdjust="spacing" textLength="97.6104" x="609.2769" y="577.7139">Test Validator</text></g><g class="message" data-participant-1="Chaos" data-participant-2="System"><polygon fill="#181818" points="248.1499,100.7266,258.1499,104.7266,248.1499,108.7266,252.1499,104.7266" style="stroke:#181818;stroke-width:1;"/><line style="stroke:#181818;stroke-width:1;" x1="85.355" x2="254.1499" y1="104.7266" y2="104.7266"/><text fill="#000000" font-family="sans-serif" font-size="13" lengthAdjust="spacing" textLength="81.4087" x="92.355" y="99.6606">Inject failure</text></g><g class="message" data-participant-1="System" data-participant-2="System"><line style="stroke:#181818;stroke-width:1;" x1="260.1499" x2="302.1499" y1="133.8594" y2="133.8594"/><line style="stroke:#181818;stroke-width:1;" x1="302.1499" x2="302.1499" y1="133.8594" y2="146.8594"/><line style="stroke:#181818;stroke-width:1;" x1="261.1499" x2="302.1499" y1="146.8594" y2="146.8594"/><polygon fill="#181818" points="271.1499,142.8594,261.1499,146.8594,271.1499,150.8594,267.1499,146.8594" style="stroke:#181818;stroke-width:1;"/><text fill="#000000" font-family="sans-serif" font-size="13" lengthAdjust="spacing" textLength="117.9775" x="267.1499" y="128.7935">Experience failure</text></g><g class="message" data-participant-1="System" data-participant-2="Monitor"><polygon fill="#181818" points="380.1274,171.9922,390.1274,175.9922,380.1274,179.9922,384.1274,175.9922" style="stroke:#181818;stroke-width:1;"/><line style="stroke:#181818;stroke-width:1;" x1="260.1499" x2="386.1274" y1="175.9922" y2="175.9922"/><text fill="#000000" font-family="sans-serif" font-size="13" lengthAdjust="spacing" textLength="73.6646" x="267.1499" y="170.9263">Send alerts</text></g><g class="message" data-participant-1="Monitor" data-participant-2="Recovery"><polygon fill="#181818" points="512.1772,201.125,522.1772,205.125,512.1772,209.125,516.1772,205.125" style="stroke:#181818;stroke-width:1;"/><line style="stroke:#181818;stroke-width:1;" x1="392.1274" x2="518.1772" y1="205.125" y2="205.125"/><text fill="#000000" font-family="sans-serif" font-size="13" lengthAdjust="spacing" textLength="108.0498" x="399.1274" y="200.0591">Trigger recovery</text></g><g class="message" data-participant-1="Recovery" data-participant-2="System"><polygon fill="#181818" points="271.1499,230.2578,261.1499,234.2578,271.1499,238.2578,267.1499,234.2578" style="stroke:#181818;stroke-width:1;"/><line style="stroke:#181818;stroke-width:1;" x1="265.1499" x2="523.1772" y1="234.2578" y2="234.2578"/><text fill="#000000" font-family="sans-serif" font-size="13" lengthAdjust="spacing" textLength="113.6929" x="277.1499" y="229.1919">Execute recovery</text></g><g class="message" data-participant-1="System" data-participant-2="Monitor"><polygon fill="#181818" points="380.1274,259.3906,390.1274,263.3906,380.1274,267.3906,384.1274,263.3906" style="stroke:#181818;stroke-width:1;"/><line style="stroke:#181818;stroke-width:1;" x1="260.1499" x2="386.1274" y1="263.3906" y2="263.3906"/><text fill="#000000" font-family="sans-serif" font-size="13" lengthAdjust="spacing" textLength="87.7563" x="267.1499" y="258.3247">Report status</text></g><g class="message" data-participant-1="Monitor" data-participant-2="Validator"><polygon fill="#181818" points="646.082,288.5234,656.082,292.5234,646.082,296.5234,650.082,292.5234" style="stroke:#181818;stroke-width:1;"/><line style="stroke:#181818;stroke-width:1;" x1="392.1274" x2="652.082" y1="292.5234" y2="292.5234"/><text fill="#000000" font-family="sans-serif" font-size="13" lengthAdjust="spacing" textLength="114.7021" x="399.1274" y="287.4575">Validate recovery</text></g><g class="message" data-participant-1="Validator" data-participant-2="Chaos"><polygon fill="#181818" points="96.355,317.6563,86.355,321.6563,96.355,325.6563,92.355,321.6563" style="stroke:#181818;stroke-width:1;"/><line style="stroke:#181818;stroke-width:1;" x1="90.355" x2="657.082" y1="321.6563" y2="321.6563"/><text fill="#000000" font-family="sans-serif" font-size="13" lengthAdjust="spacing" textLength="132.2725" x="102.355" y="316.5903">Recovery successful</text></g><path d="M10,336.6563 L74.4429,336.6563 L74.4429,343.7891 L64.4429,353.7891 L10,353.7891 L10,336.6563" fill="#EEEEEE" style="stroke:#000000;stroke-width:1.5;"/><rect fill="none" height="104.5313" style="stroke:#000000;stroke-width:1.5;" width="713.8872" x="10" y="336.6563"/><text fill="#000000" font-family="sans-serif" font-size="13" font-weight="bold" lengthAdjust="spacing" textLength="19.4429" x="25" y="349.7231">alt</text><text fill="#000000" font-family="sans-serif" font-size="11" font-weight="bold" lengthAdjust="spacing" textLength="106.2026" x="89.4429" y="348.8667">[Recovery failed]</text><g class="message" data-participant-1="Validator" data-participant-2="Chaos"><polygon fill="#181818" points="96.355,370.9219,86.355,374.9219,96.355,378.9219,92.355,374.9219" style="stroke:#181818;stroke-width:1;"/><line style="stroke:#181818;stroke-width:1;" x1="90.355" x2="657.082" y1="374.9219" y2="374.9219"/><text fill="#000000" font-family="sans-serif" font-size="13" lengthAdjust="spacing" textLength="101.0103" x="102.355" y="369.856">Recovery failed</text></g><g class="message" data-participant-1="Chaos" data-participant-2="System"><polygon fill="#181818" points="248.1499,400.0547,258.1499,404.0547,248.1499,408.0547,252.1499,404.0547" style="stroke:#181818;stroke-width:1;"/><line style="stroke:#181818;stroke-width:1;" x1="85.355" x2="254.1499" y1="404.0547" y2="404.0547"/><text fill="#000000" font-family="sans-serif" font-size="13" lengthAdjust="spacing" textLength="150.7949" x="92.355" y="398.9888">Stop chaos experiment</text></g><g class="message" data-participant-1="System" data-participant-2="Recovery"><polygon fill="#181818" points="512.1772,429.1875,522.1772,433.1875,512.1772,437.1875,516.1772,433.1875" style="stroke:#181818;stroke-width:1;"/><line style="stroke:#181818;stroke-width:1;" x1="260.1499" x2="518.1772" y1="433.1875" y2="433.1875"/><text fill="#000000" font-family="sans-serif" font-size="13" lengthAdjust="spacing" textLength="130.4951" x="267.1499" y="428.1216">Manual intervention</text></g><path d="M90,453.1875 L90,493.1875 L350,493.1875 L350,463.1875 L340,453.1875 L90,453.1875" fill="#FEFFDD" style="stroke:#181818;stroke-width:0.5;"/><path d="M340,453.1875 L340,463.1875 L350,463.1875 L340,453.1875" fill="#FEFFDD" style="stroke:#181818;stroke-width:0.5;"/><text fill="#000000" font-family="sans-serif" font-size="13" lengthAdjust="spacing" textLength="124.4902" x="96" y="470.2544">Network partitions,</text><text fill="#000000" font-family="sans-serif" font-size="13" lengthAdjust="spacing" textLength="239.8271" x="96" y="485.3872">service failures, resource exhaustion</text><path d="M529,503.4531 L529,543.4531 L678,543.4531 L678,513.4531 L668,503.4531 L529,503.4531" fill="#FEFFDD" style="stroke:#181818;stroke-width:0.5;"/><path d="M668,503.4531 L668,513.4531 L678,513.4531 L668,503.4531" fill="#FEFFDD" style="stroke:#181818;stroke-width:0.5;"/><text fill="#000000" font-family="sans-serif" font-size="13" lengthAdjust="spacing" textLength="128.3433" x="535" y="520.52">Automated healing,</text><text fill="#000000" font-family="sans-serif" font-size="13" lengthAdjust="spacing" textLength="102.6226" x="535" y="535.6528">failover, scaling</text><!--SRC=[VP8zRiCm38LtdOB8d5x0Gu4YoD0X7PAWKnT1PXor2cM8L9hSlfBytmRrOedwzCZtRB7Y43PdxHcsr5X239OQE29BUYlLwY3Ms5QJmAhZDfuaUESmh41pTtd97NLeKE1mPy5BWRhbajfvik9pkuBqsoMpH-El6EvphQ7sgsUQ6DwrixLEAWKSTqfrapyzzpeLlD8d6e6JjYu6L5rv3cnlROe2oU03g9-rWWDI3Jf58QpwOZuVHgpW66pJO80m33qwMlH24mKdw46dFRO-2B1eYOjUeyjgMCw4niDCbX2gSJZWQ0modw9JIZkP3h9Xh1Mavr-16VSdu8Fu5aofOedoWYG5dSnDCUqqHUt0ac2u9j1wKYbQfSXdExOv2_XJtwM2DvHl7xwW_04PvlK7SRfgfy_5wnG3-nXI2Mzd7RceBWL7AnMyHF6N55uDPqocgKcIMIgVhu5DgQaV]--></g></svg>