<svg xmlns="http://www.w3.org/2000/svg" xmlns:xlink="http://www.w3.org/1999/xlink" contentStyleType="text/css" data-diagram-type="DESCRIPTION" height="207px" preserveAspectRatio="none" style="width:2287px;height:207px;background:#FFFFFF;" version="1.1" viewBox="0 0 2287 207" width="2287px" zoomAndPan="magnify"><title>Health Check Architecture</title><defs/><g><g class="title" data-source-line="1"><text fill="#000000" font-family="sans-serif" font-size="14" font-weight="bold" lengthAdjust="spacing" textLength="207.5596" x="1032.7202" y="22.9951">Health Check Architecture</text></g><!--cluster Health Monitoring System--><g class="cluster" data-entity="Health Monitoring System" data-source-line="3" data-uid="ent0002" id="cluster_Health Monitoring System"><path d="M808.5,84.2269 L1016,84.2269 A3.75,3.75 0 0 1 1018.5,86.7269 L1025.5,106.5237 L1725.5,106.5237 A2.5,2.5 0 0 1 1728,109.0237 L1728,198.0269 A2.5,2.5 0 0 1 1725.5,200.5269 L808.5,200.5269 A2.5,2.5 0 0 1 806,198.0269 L806,86.7269 A2.5,2.5 0 0 1 808.5,84.2269" fill="none" style="stroke:#000000;stroke-width:1.5;"/><line style="stroke:#000000;stroke-width:1.5;" x1="806" x2="1025.5" y1="106.5237" y2="106.5237"/><text fill="#000000" font-family="sans-serif" font-size="14" font-weight="bold" lengthAdjust="spacing" textLength="206.5" x="810" y="99.222">Health Monitoring System</text></g><!--cluster System Components--><g class="cluster" data-entity="System Components" data-source-line="10" data-uid="ent0007" id="cluster_System Components"><path d="M8.5,84.2269 L171.2656,84.2269 A3.75,3.75 0 0 1 173.7656,86.7269 L180.7656,106.5237 L700.5,106.5237 A2.5,2.5 0 0 1 703,109.0237 L703,198.0269 A2.5,2.5 0 0 1 700.5,200.5269 L8.5,200.5269 A2.5,2.5 0 0 1 6,198.0269 L6,86.7269 A2.5,2.5 0 0 1 8.5,84.2269" fill="none" style="stroke:#000000;stroke-width:1.5;"/><line style="stroke:#000000;stroke-width:1.5;" x1="6" x2="180.7656" y1="106.5237" y2="106.5237"/><text fill="#000000" font-family="sans-serif" font-size="14" font-weight="bold" lengthAdjust="spacing" textLength="161.7656" x="10" y="99.222">System Components</text></g><!--cluster External Monitoring--><g class="cluster" data-entity="External Monitoring" data-source-line="17" data-uid="ent0012" id="cluster_External Monitoring"><path d="M1754.5,84.2269 L1912.5898,84.2269 A3.75,3.75 0 0 1 1915.0898,86.7269 L1922.0898,106.5237 L2277.5,106.5237 A2.5,2.5 0 0 1 2280,109.0237 L2280,198.0269 A2.5,2.5 0 0 1 2277.5,200.5269 L1754.5,200.5269 A2.5,2.5 0 0 1 1752,198.0269 L1752,86.7269 A2.5,2.5 0 0 1 1754.5,84.2269" fill="none" style="stroke:#000000;stroke-width:1.5;"/><line style="stroke:#000000;stroke-width:1.5;" x1="1752" x2="1922.0898" y1="106.5237" y2="106.5237"/><text fill="#000000" font-family="sans-serif" font-size="14" font-weight="bold" lengthAdjust="spacing" textLength="157.0898" x="1756" y="99.222">External Monitoring</text></g><!--entity Aggregator--><g class="entity" data-entity="Aggregator" data-source-line="4" data-uid="ent0003" id="entity_Aggregator"><rect fill="#F1F1F1" height="46.2969" rx="2.5" ry="2.5" style="stroke:#181818;stroke-width:0.5;" width="169.418" x="822.29" y="138.2269"/><rect fill="#F1F1F1" height="10" style="stroke:#181818;stroke-width:0.5;" width="15" x="971.708" y="143.2269"/><rect fill="#F1F1F1" height="2" style="stroke:#181818;stroke-width:0.5;" width="4" x="969.708" y="145.2269"/><rect fill="#F1F1F1" height="2" style="stroke:#181818;stroke-width:0.5;" width="4" x="969.708" y="149.2269"/><text fill="#000000" font-family="sans-serif" font-size="14" lengthAdjust="spacing" textLength="129.418" x="837.29" y="171.222">Health Aggregator</text></g><!--entity AlertMgr--><g class="entity" data-entity="AlertMgr" data-source-line="5" data-uid="ent0004" id="entity_AlertMgr"><rect fill="#F1F1F1" height="46.2969" rx="2.5" ry="2.5" style="stroke:#181818;stroke-width:0.5;" width="139.1416" x="1136.43" y="138.2269"/><rect fill="#F1F1F1" height="10" style="stroke:#181818;stroke-width:0.5;" width="15" x="1255.5716" y="143.2269"/><rect fill="#F1F1F1" height="2" style="stroke:#181818;stroke-width:0.5;" width="4" x="1253.5716" y="145.2269"/><rect fill="#F1F1F1" height="2" style="stroke:#181818;stroke-width:0.5;" width="4" x="1253.5716" y="149.2269"/><text fill="#000000" font-family="sans-serif" font-size="14" lengthAdjust="spacing" textLength="99.1416" x="1151.43" y="171.222">Alert Manager</text></g><!--entity Dashboard--><g class="entity" data-entity="Dashboard" data-source-line="6" data-uid="ent0005" id="entity_Dashboard"><rect fill="#F1F1F1" height="46.2969" rx="2.5" ry="2.5" style="stroke:#181818;stroke-width:0.5;" width="116.2002" x="1595.9" y="138.2269"/><rect fill="#F1F1F1" height="10" style="stroke:#181818;stroke-width:0.5;" width="15" x="1692.1002" y="143.2269"/><rect fill="#F1F1F1" height="2" style="stroke:#181818;stroke-width:0.5;" width="4" x="1690.1002" y="145.2269"/><rect fill="#F1F1F1" height="2" style="stroke:#181818;stroke-width:0.5;" width="4" x="1690.1002" y="149.2269"/><text fill="#000000" font-family="sans-serif" font-size="14" lengthAdjust="spacing" textLength="76.2002" x="1610.9" y="171.222">Dashboard</text></g><!--entity Notify--><g class="entity" data-entity="Notify" data-source-line="7" data-uid="ent0006" id="entity_Notify"><rect fill="#F1F1F1" height="46.2969" rx="2.5" ry="2.5" style="stroke:#181818;stroke-width:0.5;" width="176.5205" x="1384.74" y="138.2269"/><rect fill="#F1F1F1" height="10" style="stroke:#181818;stroke-width:0.5;" width="15" x="1541.2605" y="143.2269"/><rect fill="#F1F1F1" height="2" style="stroke:#181818;stroke-width:0.5;" width="4" x="1539.2605" y="145.2269"/><rect fill="#F1F1F1" height="2" style="stroke:#181818;stroke-width:0.5;" width="4" x="1539.2605" y="149.2269"/><text fill="#000000" font-family="sans-serif" font-size="14" lengthAdjust="spacing" textLength="136.5205" x="1399.74" y="171.222">Notification Service</text></g><!--entity AgentHealth--><g class="entity" data-entity="AgentHealth" data-source-line="11" data-uid="ent0008" id="entity_AgentHealth"><rect fill="#F1F1F1" height="46.2969" rx="2.5" ry="2.5" style="stroke:#181818;stroke-width:0.5;" width="131.8613" x="22.07" y="138.2269"/><rect fill="#F1F1F1" height="10" style="stroke:#181818;stroke-width:0.5;" width="15" x="133.9313" y="143.2269"/><rect fill="#F1F1F1" height="2" style="stroke:#181818;stroke-width:0.5;" width="4" x="131.9313" y="145.2269"/><rect fill="#F1F1F1" height="2" style="stroke:#181818;stroke-width:0.5;" width="4" x="131.9313" y="149.2269"/><text fill="#000000" font-family="sans-serif" font-size="14" lengthAdjust="spacing" textLength="91.8613" x="37.07" y="171.222">Agent Health</text></g><!--entity FlowHealth--><g class="entity" data-entity="FlowHealth" data-source-line="12" data-uid="ent0009" id="entity_FlowHealth"><rect fill="#F1F1F1" height="46.2969" rx="2.5" ry="2.5" style="stroke:#181818;stroke-width:0.5;" width="122.3799" x="188.81" y="138.2269"/><rect fill="#F1F1F1" height="10" style="stroke:#181818;stroke-width:0.5;" width="15" x="291.1899" y="143.2269"/><rect fill="#F1F1F1" height="2" style="stroke:#181818;stroke-width:0.5;" width="4" x="289.1899" y="145.2269"/><rect fill="#F1F1F1" height="2" style="stroke:#181818;stroke-width:0.5;" width="4" x="289.1899" y="149.2269"/><text fill="#000000" font-family="sans-serif" font-size="14" lengthAdjust="spacing" textLength="82.3799" x="203.81" y="171.222">Flow Health</text></g><!--entity DBHealth--><g class="entity" data-entity="DBHealth" data-source-line="13" data-uid="ent0010" id="entity_DBHealth"><rect fill="#F1F1F1" height="46.2969" rx="2.5" ry="2.5" style="stroke:#181818;stroke-width:0.5;" width="157.2227" x="346.39" y="138.2269"/><rect fill="#F1F1F1" height="10" style="stroke:#181818;stroke-width:0.5;" width="15" x="483.6127" y="143.2269"/><rect fill="#F1F1F1" height="2" style="stroke:#181818;stroke-width:0.5;" width="4" x="481.6127" y="145.2269"/><rect fill="#F1F1F1" height="2" style="stroke:#181818;stroke-width:0.5;" width="4" x="481.6127" y="149.2269"/><text fill="#000000" font-family="sans-serif" font-size="14" lengthAdjust="spacing" textLength="117.2227" x="361.39" y="171.222">Database Health</text></g><!--entity NetHealth--><g class="entity" data-entity="NetHealth" data-source-line="14" data-uid="ent0011" id="entity_NetHealth"><rect fill="#F1F1F1" height="46.2969" rx="2.5" ry="2.5" style="stroke:#181818;stroke-width:0.5;" width="148.876" x="538.56" y="138.2269"/><rect fill="#F1F1F1" height="10" style="stroke:#181818;stroke-width:0.5;" width="15" x="667.436" y="143.2269"/><rect fill="#F1F1F1" height="2" style="stroke:#181818;stroke-width:0.5;" width="4" x="665.436" y="145.2269"/><rect fill="#F1F1F1" height="2" style="stroke:#181818;stroke-width:0.5;" width="4" x="665.436" y="149.2269"/><text fill="#000000" font-family="sans-serif" font-size="14" lengthAdjust="spacing" textLength="108.876" x="553.56" y="171.222">Network Health</text></g><!--entity Prometheus--><g class="entity" data-entity="Prometheus" data-source-line="18" data-uid="ent0013" id="entity_Prometheus"><rect fill="#F1F1F1" height="46.2969" rx="2.5" ry="2.5" style="stroke:#181818;stroke-width:0.5;" width="124.1572" x="1767.92" y="138.2269"/><rect fill="#F1F1F1" height="10" style="stroke:#181818;stroke-width:0.5;" width="15" x="1872.0772" y="143.2269"/><rect fill="#F1F1F1" height="2" style="stroke:#181818;stroke-width:0.5;" width="4" x="1870.0772" y="145.2269"/><rect fill="#F1F1F1" height="2" style="stroke:#181818;stroke-width:0.5;" width="4" x="1870.0772" y="149.2269"/><text fill="#000000" font-family="sans-serif" font-size="14" lengthAdjust="spacing" textLength="84.1572" x="1782.92" y="171.222">Prometheus</text></g><!--entity Grafana--><g class="entity" data-entity="Grafana" data-source-line="19" data-uid="ent0014" id="entity_Grafana"><rect fill="#F1F1F1" height="46.2969" rx="2.5" ry="2.5" style="stroke:#181818;stroke-width:0.5;" width="96.1436" x="2018.93" y="138.2269"/><rect fill="#F1F1F1" height="10" style="stroke:#181818;stroke-width:0.5;" width="15" x="2095.0736" y="143.2269"/><rect fill="#F1F1F1" height="2" style="stroke:#181818;stroke-width:0.5;" width="4" x="2093.0736" y="145.2269"/><rect fill="#F1F1F1" height="2" style="stroke:#181818;stroke-width:0.5;" width="4" x="2093.0736" y="149.2269"/><text fill="#000000" font-family="sans-serif" font-size="14" lengthAdjust="spacing" textLength="56.1436" x="2033.93" y="171.222">Grafana</text></g><!--entity PagerDuty--><g class="entity" data-entity="PagerDuty" data-source-line="20" data-uid="ent0015" id="entity_PagerDuty"><rect fill="#F1F1F1" height="46.2969" rx="2.5" ry="2.5" style="stroke:#181818;stroke-width:0.5;" width="113.7051" x="2150.15" y="138.2269"/><rect fill="#F1F1F1" height="10" style="stroke:#181818;stroke-width:0.5;" width="15" x="2243.8551" y="143.2269"/><rect fill="#F1F1F1" height="2" style="stroke:#181818;stroke-width:0.5;" width="4" x="2241.8551" y="145.2269"/><rect fill="#F1F1F1" height="2" style="stroke:#181818;stroke-width:0.5;" width="4" x="2241.8551" y="149.2269"/><text fill="#000000" font-family="sans-serif" font-size="14" lengthAdjust="spacing" textLength="73.7051" x="2165.15" y="171.222">PagerDuty</text></g><!--link AgentHealth to Aggregator--><g class="link" data-entity-1="AgentHealth" data-entity-2="Aggregator" data-source-line="23" data-uid="lnk16" id="link_AgentHealth_Aggregator"><path d="M102.82,137.9269 C117.34,117.3369 141.56,88.7669 171,76.2269 C225.38,53.0569 645.09,64.3769 703,76.2269 C761.47,88.1969 818.8408,114.2802 859.0708,135.0902" fill="none" id="AgentHealth-to-Aggregator" style="stroke:#181818;stroke-width:1;"/><polygon fill="#181818" points="864.4,137.8469,858.2439,130.159,859.959,135.5496,854.5684,137.2647,864.4,137.8469" style="stroke:#181818;stroke-width:1;"/><text fill="#000000" font-family="sans-serif" font-size="13" lengthAdjust="spacing" textLength="86.7661" x="408" y="64.2938">Health status</text></g><!--link FlowHealth to Aggregator--><g class="link" data-entity-1="FlowHealth" data-entity-2="Aggregator" data-source-line="24" data-uid="lnk17" id="link_FlowHealth_Aggregator"><path d="M259.48,138.0169 C269.38,117.0769 287.11,87.7069 313,74.5069 C331.4,65.1169 540.97,43.2969 703,76.2269 C761.48,88.1169 818.8624,114.217 859.0724,135.047" fill="none" id="FlowHealth-to-Aggregator" style="stroke:#181818;stroke-width:1;"/><polygon fill="#181818" points="864.4,137.8069,858.2485,130.1154,859.9603,135.507,854.5687,137.2188,864.4,137.8069" style="stroke:#181818;stroke-width:1;"/><text fill="#000000" font-family="sans-serif" font-size="13" lengthAdjust="spacing" textLength="82.4434" x="314" y="64.2938">Flow metrics</text></g><!--link DBHealth to Aggregator--><g class="link" data-entity-1="DBHealth" data-entity-2="Aggregator" data-source-line="25" data-uid="lnk18" id="link_DBHealth_Aggregator"><path d="M443.01,137.9169 C460.41,117.3269 488.82,88.7469 521,76.2269 C594.94,47.4669 621.72,58.8769 699.5,74.5069 C759.61,86.5769 818.7227,113.7372 859.5627,135.0872" fill="none" id="DBHealth-to-Aggregator" style="stroke:#181818;stroke-width:1;"/><polygon fill="#181818" points="864.88,137.8669,858.7573,130.1525,860.449,135.5504,855.051,137.2421,864.88,137.8669" style="stroke:#181818;stroke-width:1;"/><text fill="#000000" font-family="sans-serif" font-size="13" lengthAdjust="spacing" textLength="71.6968" x="627.5" y="64.2938">DB metrics</text></g><!--link NetHealth to Aggregator--><g class="link" data-entity-1="NetHealth" data-entity-2="Aggregator" data-source-line="26" data-uid="lnk19" id="link_NetHealth_Aggregator"><path d="M687.57,161.3769 C728.48,161.3769 773.38,161.3769 815.85,161.3769" fill="none" id="NetHealth-to-Aggregator" style="stroke:#181818;stroke-width:1;"/><polygon fill="#181818" points="821.85,161.3769,812.85,157.3769,816.85,161.3769,812.85,165.3769,821.85,161.3769" style="stroke:#181818;stroke-width:1;"/><text fill="#000000" font-family="sans-serif" font-size="13" lengthAdjust="spacing" textLength="98.3569" x="705.86" y="154.4438">Network status</text></g><!--link Aggregator to AlertMgr--><g class="link" data-entity-1="Aggregator" data-entity-2="AlertMgr" data-source-line="27" data-uid="lnk20" id="link_Aggregator_AlertMgr"><path d="M991.88,161.3769 C1037.46,161.3769 1086.96,161.3769 1130.04,161.3769" fill="none" id="Aggregator-to-AlertMgr" style="stroke:#181818;stroke-width:1;"/><polygon fill="#181818" points="1136.04,161.3769,1127.04,157.3769,1131.04,161.3769,1127.04,165.3769,1136.04,161.3769" style="stroke:#181818;stroke-width:1;"/><text fill="#000000" font-family="sans-serif" font-size="13" lengthAdjust="spacing" textLength="108.1641" x="1010.07" y="154.4438">Health summary</text></g><!--link AlertMgr to Dashboard--><g class="link" data-entity-1="AlertMgr" data-entity-2="Dashboard" data-source-line="28" data-uid="lnk21" id="link_AlertMgr_Dashboard"><path d="M1222.21,137.7669 C1238.27,116.6669 1264.98,87.1869 1296.5,74.5069 C1332.05,60.2069 1521.13,49.7669 1579,76.2269 C1606.77,88.9269 1625.2456,112.3691 1637.9956,132.9091" fill="none" id="AlertMgr-to-Dashboard" style="stroke:#181818;stroke-width:1;"/><polygon fill="#181818" points="1641.16,138.0069,1639.8119,128.2507,1638.523,133.7588,1633.015,132.4699,1641.16,138.0069" style="stroke:#181818;stroke-width:1;"/><text fill="#000000" font-family="sans-serif" font-size="13" lengthAdjust="spacing" textLength="91.9966" x="1297.5" y="64.2938">Display status</text></g><!--link AlertMgr to Notify--><g class="link" data-entity-1="AlertMgr" data-entity-2="Notify" data-source-line="29" data-uid="lnk22" id="link_AlertMgr_Notify"><path d="M1275.8,161.3769 C1309.02,161.3769 1343.12,161.3769 1378.45,161.3769" fill="none" id="AlertMgr-to-Notify" style="stroke:#181818;stroke-width:1;"/><polygon fill="#181818" points="1384.45,161.3769,1375.45,157.3769,1379.45,161.3769,1375.45,165.3769,1384.45,161.3769" style="stroke:#181818;stroke-width:1;"/><text fill="#000000" font-family="sans-serif" font-size="13" lengthAdjust="spacing" textLength="73.6646" x="1293.66" y="154.4438">Send alerts</text></g><!--link Aggregator to Prometheus--><g class="link" data-entity-1="Aggregator" data-entity-2="Prometheus" data-source-line="30" data-uid="lnk23" id="link_Aggregator_Prometheus"><path d="M951.38,137.7969 C993.26,116.9669 1058.48,88.0969 1119,76.2269 C1185.4,63.2069 1664.49,52.8869 1728,76.2269 C1761.56,88.5669 1787.8436,112.7285 1806.5436,133.3885" fill="none" id="Aggregator-to-Prometheus" style="stroke:#181818;stroke-width:1;"/><polygon fill="#181818" points="1810.57,137.8369,1807.496,128.48,1807.2147,134.1299,1801.5648,133.8485,1810.57,137.8369" style="stroke:#181818;stroke-width:1;"/><text fill="#000000" font-family="sans-serif" font-size="13" lengthAdjust="spacing" textLength="95.3228" x="1437.5" y="64.2938">Export metrics</text></g><!--link Prometheus to Grafana--><g class="link" data-entity-1="Prometheus" data-entity-2="Grafana" data-source-line="31" data-uid="lnk24" id="link_Prometheus_Grafana"><path d="M1892.27,161.3769 C1931.77,161.3769 1976.12,161.3769 2012.61,161.3769" fill="none" id="Prometheus-to-Grafana" style="stroke:#181818;stroke-width:1;"/><polygon fill="#181818" points="2018.61,161.3769,2009.61,157.3769,2013.61,161.3769,2009.61,165.3769,2018.61,161.3769" style="stroke:#181818;stroke-width:1;"/><text fill="#000000" font-family="sans-serif" font-size="13" lengthAdjust="spacing" textLength="90.9429" x="1910.5" y="154.4438">Visualize data</text></g><!--link Notify to PagerDuty--><g class="link" data-entity-1="Notify" data-entity-2="PagerDuty" data-source-line="32" data-uid="lnk25" id="link_Notify_PagerDuty"><path d="M1493.18,137.9169 C1512.55,117.3069 1543.84,88.7369 1578,76.2269 C1613.48,63.2469 1625.22,74.8869 1663,74.5069 C1821.51,72.8969 2123.17,71.7269 2133,76.2269 C2160.59,88.8869 2178.7794,112.3023 2191.2994,132.8623" fill="none" id="Notify-to-PagerDuty" style="stroke:#181818;stroke-width:1;"/><polygon fill="#181818" points="2194.42,137.9869,2193.1555,128.2195,2191.8195,133.7164,2186.3226,132.3804,2194.42,137.9869" style="stroke:#181818;stroke-width:1;"/><text fill="#000000" font-family="sans-serif" font-size="13" lengthAdjust="spacing" textLength="86.3916" x="1664" y="64.2938">Critical alerts</text></g><!--SRC=[RP9DReCm48Ntd6AKVI_0eX89QRj9L2bIznCo0IjW8tjeGglUlRR1O17Om7W-vkVviU2Qu8EmvWfs5HKto7HH2QQ2Eqr9qc9nmv9WCp879GKhBMG9fzumDHluJS0-XMfQ9KdoX6PbgQb4Isy0JHGk-QmcpN10QHkDh3ivb4zaZgOwAzGNJqtH4Zig5bTH80ibuKJwMnJa__29FlcBzXgsW5tuswmib9NkDQmrxc8FXdZ9ljNg7gCkNYTpP3oZePZEj-liaVYkz2r6xT78nkli7qnQOXrTrCf2drern1LrnfUQmoNuhl5gxyLJu_TJBNThUSVzK2f4Rgf89dXvZHoG1iiPHhPTPv6Md9VJ3gT5OPAWpXBAjnCogR9aWe9ZnpdbmT5lyrnTqw3kav1mq6Gtsr2OjiP-AXPHWyLIQpjv0NI9PRDPxHJsZrPPxuVfvvG3Hy5J-1Acmrhy45oiPvAXXIyLr4vXfmLRozUXvpy0]--></g></svg>