<svg xmlns="http://www.w3.org/2000/svg" xmlns:xlink="http://www.w3.org/1999/xlink" contentStyleType="text/css" data-diagram-type="DESCRIPTION" height="371px" preserveAspectRatio="none" style="width:684px;height:371px;background:#FFFFFF;" version="1.1" viewBox="0 0 684 371" width="684px" zoomAndPan="magnify"><defs/><g><!--cluster VisualGridDev Platform--><g class="cluster" data-entity="VisualGridDev Platform" data-source-line="3" data-uid="ent0004" id="cluster_VisualGridDev Platform"><rect fill="none" height="220.59" rx="2.5" ry="2.5" style="stroke:#181818;stroke-width:1;" width="607" x="7" y="144.8"/><text fill="#000000" font-family="sans-serif" font-size="14" font-weight="bold" lengthAdjust="spacing" textLength="184.9121" x="218.0439" y="159.7951">VisualGridDev Platform</text></g><!--entity Agent--><g class="entity" data-entity="Agent" data-source-line="4" data-uid="ent0005" id="entity_Agent"><rect fill="#F1F1F1" height="36.2969" rx="2.5" ry="2.5" style="stroke:#181818;stroke-width:0.5;" width="150.5186" x="215.74" y="179.8"/><text fill="#000000" font-family="sans-serif" font-size="14" lengthAdjust="spacing" textLength="130.5186" x="225.74" y="202.7951">Self-Healing Agent</text></g><!--entity Ext--><g class="entity" data-entity="Ext" data-source-line="5" data-uid="ent0006" id="entity_Ext"><rect fill="#F1F1F1" height="36.2969" rx="2.5" ry="2.5" style="stroke:#181818;stroke-width:0.5;" width="154.5449" x="22.73" y="313.09"/><text fill="#000000" font-family="sans-serif" font-size="14" lengthAdjust="spacing" textLength="134.5449" x="32.73" y="336.0851">Extension Manager</text></g><!--entity Sec--><g class="entity" data-entity="Sec" data-source-line="6" data-uid="ent0007" id="entity_Sec"><rect fill="#F1F1F1" height="36.2969" rx="2.5" ry="2.5" style="stroke:#181818;stroke-width:0.5;" width="175.1416" x="212.43" y="313.09"/><text fill="#000000" font-family="sans-serif" font-size="14" lengthAdjust="spacing" textLength="155.1416" x="222.43" y="336.0851">Security Policy Engine</text></g><!--entity Mon--><g class="entity" data-entity="Mon" data-source-line="7" data-uid="ent0008" id="entity_Mon"><rect fill="#F1F1F1" height="36.2969" rx="2.5" ry="2.5" style="stroke:#181818;stroke-width:0.5;" width="175.5176" x="422.24" y="313.09"/><text fill="#000000" font-family="sans-serif" font-size="14" lengthAdjust="spacing" textLength="155.5176" x="432.24" y="336.0851">Monitoring Dashboard</text></g><!--entity User--><g class="entity" data-entity="User" data-source-line="1" data-uid="ent0002" id="entity_User"><ellipse cx="290.9951" cy="14" fill="#F1F1F1" rx="8" ry="8" style="stroke:#181818;stroke-width:0.5;"/><path d="M290.9951,22 L290.9951,49 M277.9951,30 L303.9951,30 M290.9951,49 L277.9951,64 M290.9951,49 L303.9951,64" fill="none" style="stroke:#181818;stroke-width:0.5;"/><text fill="#000000" font-family="sans-serif" font-size="14" lengthAdjust="spacing" textLength="31.9102" x="275.04" y="78.4951">User</text></g><!--entity Admin--><g class="entity" data-entity="Admin" data-source-line="2" data-uid="ent0003" id="entity_Admin"><ellipse cx="652.0021" cy="168.3" fill="#F1F1F1" rx="8" ry="8" style="stroke:#181818;stroke-width:0.5;"/><path d="M652.0021,176.3 L652.0021,203.3 M639.0021,184.3 L665.0021,184.3 M652.0021,203.3 L639.0021,218.3 M652.0021,203.3 L665.0021,218.3" fill="none" style="stroke:#181818;stroke-width:0.5;"/><text fill="#000000" font-family="sans-serif" font-size="14" lengthAdjust="spacing" textLength="44.8643" x="629.57" y="232.7951">Admin</text></g><!--link User to Agent--><g class="link" data-entity-1="User" data-entity-2="Agent" data-source-line="9" data-uid="lnk9" id="link_User_Agent"><path d="M291,82.29 C291,113.3 291,149.86 291,173.44" fill="none" id="User-to-Agent" style="stroke:#181818;stroke-width:1;"/><polygon fill="#181818" points="291,179.44,295,170.44,291,174.44,287,170.44,291,179.44" style="stroke:#181818;stroke-width:1;"/><text fill="#000000" font-family="sans-serif" font-size="13" lengthAdjust="spacing" textLength="31.0591" x="292" y="124.8669">Uses</text></g><!--link Admin to Mon--><g class="link" data-entity-1="Admin" data-entity-2="Mon" data-source-line="10" data-uid="lnk10" id="link_Admin_Mon"><path d="M637.7,236.2 C630.15,252.16 619.59,270.08 606,283.09 C592.99,295.55 581.5028,302.8267 565.4928,310.1767" fill="none" id="Admin-to-Mon" style="stroke:#181818;stroke-width:1;"/><polygon fill="#181818" points="560.04,312.68,569.8881,312.5602,564.584,310.5939,566.5504,305.2898,560.04,312.68" style="stroke:#181818;stroke-width:1;"/><text fill="#000000" font-family="sans-serif" font-size="13" lengthAdjust="spacing" textLength="56.1895" x="620.58" y="279.1569">Monitors</text></g><!--link Agent to Ext--><g class="link" data-entity-1="Agent" data-entity-2="Ext" data-source-line="11" data-uid="lnk11" id="link_Agent_Ext"><path d="M215.55,214.87 C183.78,224.92 148.55,240.93 124,266.09 C111.63,278.77 106.7456,292.5444 103.8056,306.7544" fill="none" id="Agent-to-Ext" style="stroke:#181818;stroke-width:1;"/><polygon fill="#181818" points="102.59,312.63,108.3305,304.6271,103.603,307.7337,100.4964,303.0062,102.59,312.63" style="stroke:#181818;stroke-width:1;"/><text fill="#000000" font-family="sans-serif" font-size="13" lengthAdjust="spacing" textLength="153.4355" x="125" y="279.1569">Loads/Validates Plugins</text></g><!--link Agent to Sec--><g class="link" data-entity-1="Agent" data-entity-2="Sec" data-source-line="12" data-uid="lnk12" id="link_Agent_Sec"><path d="M288.76,216.42 C286.94,233.49 285.13,260.18 288,283.09 C289.26,293.15 290.3351,298.3699 292.8551,307.2099" fill="none" id="Agent-to-Sec" style="stroke:#181818;stroke-width:1;"/><polygon fill="#181818" points="294.5,312.98,295.8794,303.2282,293.1293,308.1716,288.1859,305.4214,294.5,312.98" style="stroke:#181818;stroke-width:1;"/><text fill="#000000" font-family="sans-serif" font-size="13" lengthAdjust="spacing" textLength="108.9258" x="289" y="279.1569">Enforces Policies</text></g><!--link Agent to Mon--><g class="link" data-entity-1="Agent" data-entity-2="Mon" data-source-line="13" data-uid="lnk13" id="link_Agent_Mon"><path d="M320.08,216.38 C361.97,241.49 433.6936,284.4954 475.6536,309.6454" fill="none" id="Agent-to-Mon" style="stroke:#181818;stroke-width:1;"/><polygon fill="#181818" points="480.8,312.73,475.1369,304.6721,476.5114,310.1595,471.024,311.534,480.8,312.73" style="stroke:#181818;stroke-width:1;"/><text fill="#000000" font-family="sans-serif" font-size="13" lengthAdjust="spacing" textLength="155.0352" x="427.56" y="279.1569">Reports Health/Security</text></g><!--SRC=[NP11ImD138Nlyol2tfVUFGY5BdgmK1HxZpFfD33DI6PMBE9_DpEhiFKMyZwIznxwcXLU2wd3Fcx3XSKf-OeI4y5mv39ZUb0EE_g0Gy9wodePuCi1hB0NIgVnaJ2nHDX6aZe0bcMw9QVFIb8u2-nHC99sqBR_3_fPkLxXa1FxAqmIMQYp9jso-onivjlh7PRpMqODdJJ1VRiM3yRnVd43TorlSJrfNnjbozyZ9dIg2MRAXAUCeMoE5YrWfM8Tp6PbpPaXuoQnPdm3ccEcDR6yUARthBL0wwcUDtyHVm00]--></g></svg>