<svg xmlns="http://www.w3.org/2000/svg" xmlns:xlink="http://www.w3.org/1999/xlink" contentStyleType="text/css" data-diagram-type="DESCRIPTION" height="390px" preserveAspectRatio="none" style="width:1178px;height:390px;background:#FFFFFF;" version="1.1" viewBox="0 0 1178 390" width="1178px" zoomAndPan="magnify"><title>Edge Device Use Cases</title><defs/><g><g class="title" data-source-line="1"><text fill="#000000" font-family="sans-serif" font-size="14" font-weight="bold" lengthAdjust="spacing" textLength="181.6377" x="491.4912" y="22.9951">Edge Device Use Cases</text></g><!--cluster Edge Device--><g class="cluster" data-entity="Edge Device" data-source-line="9" data-uid="ent0005" id="cluster_Edge Device"><path d="M154.85,43.2969 L252.6605,43.2969 A3.75,3.75 0 0 1 255.1605,45.7969 L262.1605,65.5938 L1169.12,65.5938 A2.5,2.5 0 0 1 1171.62,68.0938 L1171.62,334.7969 A2.5,2.5 0 0 1 1169.12,337.2969 L154.85,337.2969 A2.5,2.5 0 0 1 152.35,334.7969 L152.35,45.7969 A2.5,2.5 0 0 1 154.85,43.2969" fill="none" style="stroke:#000000;stroke-width:1.5;"/><line style="stroke:#000000;stroke-width:1.5;" x1="152.35" x2="262.1605" y1="65.5938" y2="65.5938"/><text fill="#000000" font-family="sans-serif" font-size="14" font-weight="bold" lengthAdjust="spacing" textLength="96.8105" x="156.35" y="58.292">Edge Device</text></g><!--entity CollectData--><g class="entity" data-entity="CollectData" data-source-line="10" data-uid="ent0006" id="entity_CollectData"><ellipse cx="253.4525" cy="97.2934" fill="#F1F1F1" rx="83.2325" ry="19.0465" style="stroke:#181818;stroke-width:0.5;"/><text fill="#000000" font-family="sans-serif" font-size="14" lengthAdjust="spacing" textLength="138.2363" x="184.3343" y="101.9418">Collect Sensor Data</text></g><!--entity ProcessLocal--><g class="entity" data-entity="ProcessLocal" data-source-line="11" data-uid="ent0007" id="entity_ProcessLocal"><ellipse cx="484.5812" cy="200.2931" fill="#F1F1F1" rx="86.0312" ry="19.6062" style="stroke:#181818;stroke-width:0.5;"/><text fill="#000000" font-family="sans-serif" font-size="14" lengthAdjust="spacing" textLength="144.6963" x="412.2331" y="204.9416">Process Data Locally</text></g><!--entity RunAI--><g class="entity" data-entity="RunAI" data-source-line="12" data-uid="ent0008" id="entity_RunAI"><ellipse cx="704.562" cy="226.2973" fill="#F1F1F1" rx="73.952" ry="17.1904" style="stroke:#181818;stroke-width:0.5;"/><text fill="#000000" font-family="sans-serif" font-size="14" lengthAdjust="spacing" textLength="116.1768" x="646.4736" y="230.9457">Run AI Inference</text></g><!--entity StoreData--><g class="entity" data-entity="StoreData" data-source-line="13" data-uid="ent0009" id="entity_StoreData"><ellipse cx="894.6763" cy="227.3005" fill="#F1F1F1" rx="56.1663" ry="14.5236" style="stroke:#181818;stroke-width:0.5;"/><text fill="#000000" font-family="sans-serif" font-size="14" lengthAdjust="spacing" textLength="75.1885" x="857.082" y="231.9489">Store Data</text></g><!--entity SyncCloud--><g class="entity" data-entity="SyncCloud" data-source-line="14" data-uid="ent0010" id="entity_SyncCloud"><ellipse cx="1083.2381" cy="253.2945" fill="#F1F1F1" rx="72.3881" ry="16.8776" style="stroke:#181818;stroke-width:0.5;"/><text fill="#000000" font-family="sans-serif" font-size="14" lengthAdjust="spacing" textLength="112.335" x="1027.0706" y="257.9429">Sync with Cloud</text></g><!--entity OfflineMode--><g class="entity" data-entity="OfflineMode" data-source-line="15" data-uid="ent0011" id="entity_OfflineMode"><ellipse cx="253.4507" cy="170.297" fill="#F1F1F1" rx="85.1007" ry="19.4201" style="stroke:#181818;stroke-width:0.5;"/><text fill="#000000" font-family="sans-serif" font-size="14" lengthAdjust="spacing" textLength="142.5566" x="182.1724" y="174.9455">Handle Offline Mode</text></g><!--entity SelfHeal--><g class="entity" data-entity="SelfHeal" data-source-line="16" data-uid="ent0012" id="entity_SelfHeal"><ellipse cx="253.4532" cy="239.3005" fill="#F1F1F1" rx="47.5332" ry="14.5236" style="stroke:#181818;stroke-width:0.5;"/><text fill="#000000" font-family="sans-serif" font-size="14" lengthAdjust="spacing" textLength="62.9795" x="221.9635" y="243.9489">Self-Heal</text></g><!--entity UpdateModels--><g class="entity" data-entity="UpdateModels" data-source-line="17" data-uid="ent0013" id="entity_UpdateModels"><ellipse cx="253.4493" cy="305.2967" fill="#F1F1F1" rx="69.2493" ry="16.2499" style="stroke:#181818;stroke-width:0.5;"/><text fill="#000000" font-family="sans-serif" font-size="14" lengthAdjust="spacing" textLength="104.4805" x="201.2091" y="309.9452">Update Models</text></g><!--entity Sensor--><g class="entity" data-entity="Sensor" data-source-line="5" data-uid="ent0002" id="entity_Sensor"><ellipse cx="57.1723" cy="67.6469" fill="#F1F1F1" rx="8" ry="8" style="stroke:#181818;stroke-width:0.5;"/><path d="M57.1723,75.6469 L57.1723,102.6469 M44.1723,83.6469 L70.1723,83.6469 M57.1723,102.6469 L44.1723,117.6469 M57.1723,102.6469 L70.1723,117.6469" fill="none" style="stroke:#181818;stroke-width:0.5;"/><text fill="#000000" font-family="sans-serif" font-size="14" lengthAdjust="spacing" textLength="73.6846" x="20.33" y="132.142">IoT Sensor</text></g><!--entity Operator--><g class="entity" data-entity="Operator" data-source-line="6" data-uid="ent0003" id="entity_Operator"><ellipse cx="57.1738" cy="194.6469" fill="#F1F1F1" rx="8" ry="8" style="stroke:#181818;stroke-width:0.5;"/><path d="M57.1738,202.6469 L57.1738,229.6469 M44.1738,210.6469 L70.1738,210.6469 M57.1738,229.6469 L44.1738,244.6469 M57.1738,229.6469 L70.1738,244.6469" fill="none" style="stroke:#181818;stroke-width:0.5;"/><text fill="#000000" font-family="sans-serif" font-size="14" lengthAdjust="spacing" textLength="102.3477" x="6" y="259.142">Edge Operator</text></g><!--entity Cloud--><g class="entity" data-entity="Cloud" data-source-line="7" data-uid="ent0004" id="entity_Cloud"><ellipse cx="57.1732" cy="317.6469" fill="#F1F1F1" rx="8" ry="8" style="stroke:#181818;stroke-width:0.5;"/><path d="M57.1732,325.6469 L57.1732,352.6469 M44.1732,333.6469 L70.1732,333.6469 M57.1732,352.6469 L44.1732,367.6469 M57.1732,352.6469 L70.1732,367.6469" fill="none" style="stroke:#181818;stroke-width:0.5;"/><text fill="#000000" font-family="sans-serif" font-size="14" lengthAdjust="spacing" textLength="96.6465" x="8.85" y="382.142">Cloud System</text></g><!--link Sensor to CollectData--><g class="link" data-entity-1="Sensor" data-entity-2="CollectData" data-source-line="20" data-uid="lnk14" id="link_Sensor_CollectData"><path d="M94.26,97.2969 C115.55,97.2969 137.41,97.2969 163.82,97.2969" fill="none" id="Sensor-to-CollectData" style="stroke:#181818;stroke-width:1;"/><polygon fill="#181818" points="169.82,97.2969,160.82,93.2969,164.82,97.2969,160.82,101.2969,169.82,97.2969" style="stroke:#181818;stroke-width:1;"/></g><!--link CollectData to ProcessLocal--><g class="link" data-entity-1="CollectData" data-entity-2="ProcessLocal" data-source-line="21" data-uid="lnk15" id="link_CollectData_ProcessLocal"><path d="M294.76,114.2769 C308.67,120.2169 324.33,126.9669 338.55,133.2969 C375.04,149.5369 410.9363,166.1623 440.1063,179.8223" fill="none" id="CollectData-to-ProcessLocal" style="stroke:#181818;stroke-width:1;"/><polygon fill="#181818" points="445.54,182.3669,439.0858,174.9276,441.0119,180.2464,435.6931,182.1725,445.54,182.3669" style="stroke:#181818;stroke-width:1;"/></g><!--link ProcessLocal to RunAI--><g class="link" data-entity-1="ProcessLocal" data-entity-2="RunAI" data-source-line="22" data-uid="lnk16" id="link_ProcessLocal_RunAI"><path d="M561.51,209.3569 C586.46,212.3269 607.9924,214.8949 632.0924,217.7749" fill="none" id="ProcessLocal-to-RunAI" style="stroke:#181818;stroke-width:1;"/><polygon fill="#181818" points="638.05,218.4869,629.5882,213.4472,633.0853,217.8936,628.639,221.3907,638.05,218.4869" style="stroke:#181818;stroke-width:1;"/></g><!--link RunAI to StoreData--><g class="link" data-entity-1="RunAI" data-entity-2="StoreData" data-source-line="23" data-uid="lnk17" id="link_RunAI_StoreData"><path d="M778.83,226.6869 C798.54,226.7969 813.5201,226.8746 832.0901,226.9746" fill="none" id="RunAI-to-StoreData" style="stroke:#181818;stroke-width:1;"/><polygon fill="#181818" points="838.09,227.0069,829.1117,222.9585,833.0901,226.98,829.0686,230.9584,838.09,227.0069" style="stroke:#181818;stroke-width:1;"/></g><!--link StoreData to SyncCloud--><g class="link" data-entity-1="StoreData" data-entity-2="SyncCloud" data-source-line="24" data-uid="lnk18" id="link_StoreData_SyncCloud"><path d="M944.7,234.1269 C967.8,237.3469 989.6774,240.399 1014.2274,243.819" fill="none" id="StoreData-to-SyncCloud" style="stroke:#181818;stroke-width:1;"/><polygon fill="#181818" points="1020.17,244.6469,1011.808,239.4434,1015.2178,243.957,1010.7042,247.3668,1020.17,244.6469" style="stroke:#181818;stroke-width:1;"/></g><!--link Cloud to SyncCloud--><g class="link" data-entity-1="Cloud" data-entity-2="SyncCloud" data-source-line="25" data-uid="lnk19" id="link_Cloud_SyncCloud"><path d="M105.96,352.3169 C184.61,360.1169 346.3,374.2969 483.58,374.2969 C483.58,374.2969 483.58,374.2969 705.56,374.2969 C841.56,374.2969 987.2274,304.7433 1048.6474,271.9433" fill="none" id="Cloud-to-SyncCloud" style="stroke:#181818;stroke-width:1;"/><polygon fill="#181818" points="1053.94,269.1169,1044.1169,269.8281,1049.5295,271.4722,1047.8854,276.8849,1053.94,269.1169" style="stroke:#181818;stroke-width:1;"/></g><!--link Cloud to UpdateModels--><g class="link" data-entity-1="Cloud" data-entity-2="UpdateModels" data-source-line="26" data-uid="lnk20" id="link_Cloud_UpdateModels"><path d="M105.7,337.0269 C134.68,330.7569 165.8554,324.0145 195.4654,317.6145" fill="none" id="Cloud-to-UpdateModels" style="stroke:#181818;stroke-width:1;"/><polygon fill="#181818" points="201.33,316.3469,191.6881,314.3385,196.4429,317.4032,193.3782,322.158,201.33,316.3469" style="stroke:#181818;stroke-width:1;"/></g><!--link Operator to OfflineMode--><g class="link" data-entity-1="Operator" data-entity-2="OfflineMode" data-source-line="27" data-uid="lnk21" id="link_Operator_OfflineMode"><path d="M108.71,210.2469 C136.14,202.6269 164.2894,194.8045 192.2994,187.0145" fill="none" id="Operator-to-OfflineMode" style="stroke:#181818;stroke-width:1;"/><polygon fill="#181818" points="198.08,185.4069,188.3373,183.9646,193.2628,186.7466,190.4809,191.6721,198.08,185.4069" style="stroke:#181818;stroke-width:1;"/></g><!--link Operator to SelfHeal--><g class="link" data-entity-1="Operator" data-entity-2="SelfHeal" data-source-line="28" data-uid="lnk22" id="link_Operator_SelfHeal"><path d="M108.71,228.1969 C139.07,230.5469 171.3978,233.0455 200.8278,235.3155" fill="none" id="Operator-to-SelfHeal" style="stroke:#181818;stroke-width:1;"/><polygon fill="#181818" points="206.81,235.7769,198.1443,231.0966,201.8248,235.3924,197.529,239.0729,206.81,235.7769" style="stroke:#181818;stroke-width:1;"/></g><!--SRC=[TL9TRiCW37xd55RUSuL9LJkfaJPrQjO3830j6eC8oAPesjr734d3fkKXylTZOnkYZWRXKLuH3lYX1S8b8EnvmC2OGHKXEl3wUeiWjKSHjRECSH6TXwPphz2Z3Sutm4C95v5gdWRqF1Pz0OjZRzmeePz2n7So4C7OmCKRJydDfgq6lXYaRmmeKdCfsHcJsYc7me57dcjaViPrmejt0aCW9pmvmOsPAAC8HDKfvz72heFEAlHevoQIFP6xhlRrQHoyjq3mRmFzP0LywdZBSsPhulBKbVN8hKpNSbBAQ8lmx6G-kn0p_bKRZMgFo4sv2ADcK7ikW-Gn5pE1V9d91FjchEooRH-gDMvYqgg5RG6fUJ_q9tpVnXfbVXqzluF_kAh9vGcHijr69Qpp_m00]--></g></svg>