<svg xmlns="http://www.w3.org/2000/svg" xmlns:xlink="http://www.w3.org/1999/xlink" contentStyleType="text/css" data-diagram-type="DESCRIPTION" height="1188px" preserveAspectRatio="none" style="width:2708px;height:1188px;background:#F0F8FF;" version="1.1" viewBox="0 0 2708 1188" width="2708px" zoomAndPan="magnify"><title>VisualGridDev Studio - Scalability Architecture View</title><defs/><g><rect fill="#F0F8FF" height="1188" style="stroke:none;stroke-width:1;" width="2708" x="0" y="0"/><g class="title" data-source-line="4"><text fill="#000000" font-family="Verdana" font-size="22" font-weight="bold" lengthAdjust="spacing" textLength="646.9912" x="1026.0044" y="35.4209">VisualGridDev Studio - Scalability Architecture View</text></g><!--cluster loadbalancer--><g class="cluster" data-entity="loadbalancer" data-source-line="6" data-uid="ent0002" id="cluster_loadbalancer"><rect fill="#FFFFFF" height="138.59" rx="2.5" ry="2.5" style="stroke:#000000;stroke-width:1;" width="479" x="666" y="116.2394"/><text fill="#000000" font-family="Verdana" font-size="14" font-weight="bold" lengthAdjust="spacing" textLength="155.9209" x="827.5396" y="131.2345">Load Balancing Tier</text></g><!--cluster autoscaling--><g class="cluster" data-entity="autoscaling" data-source-line="12" data-uid="ent0006" id="cluster_autoscaling"><rect fill="#FFFFFF" height="138.59" rx="2.5" ry="2.5" style="stroke:#000000;stroke-width:1;" width="623" x="563" y="319.8294"/><text fill="#000000" font-family="Verdana" font-size="14" font-weight="bold" lengthAdjust="spacing" textLength="161.5469" x="793.7266" y="334.8245">Auto-Scaling Groups</text></g><!--cluster datascaling--><g class="cluster" data-entity="datascaling" data-source-line="19" data-uid="ent0011" id="cluster_datascaling"><rect fill="#FFFFFF" height="324.19" rx="2.5" ry="2.5" style="stroke:#000000;stroke-width:1;" width="461" x="1334" y="523.4194"/><text fill="#000000" font-family="Verdana" font-size="14" font-weight="bold" lengthAdjust="spacing" textLength="99.4971" x="1514.7515" y="538.4145">Data Scaling</text></g><!--cluster compute--><g class="cluster" data-entity="compute" data-source-line="26" data-uid="ent0016" id="cluster_compute"><rect fill="#FFFFFF" height="342.19" rx="2.5" ry="2.5" style="stroke:#000000;stroke-width:1;" width="522" x="1835" y="709.0194"/><text fill="#000000" font-family="Verdana" font-size="14" font-weight="bold" lengthAdjust="spacing" textLength="132.9453" x="2029.5273" y="724.0145">Compute Scaling</text></g><!--cluster geo--><g class="cluster" data-entity="geo" data-source-line="33" data-uid="ent0021" id="cluster_geo"><rect fill="#FFFFFF" height="270.19" rx="2.5" ry="2.5" style="stroke:#000000;stroke-width:1;" width="305" x="2397" y="912.6094"/><text fill="#000000" font-family="Verdana" font-size="14" font-weight="bold" lengthAdjust="spacing" textLength="189.1504" x="2454.9248" y="927.6045">Geographic Distribution</text></g><!--cluster metrics--><g class="cluster" data-entity="metrics" data-source-line="51" data-uid="ent0045" id="cluster_metrics"><rect fill="#FFFFFF" height="325.89" rx="2.5" ry="2.5" style="stroke:#000000;stroke-width:1;" width="724" x="1226" y="124.3894"/><text fill="#000000" font-family="Verdana" font-size="14" font-weight="bold" lengthAdjust="spacing" textLength="120.7432" x="1527.6284" y="139.3845">Scaling Metrics</text></g><!--cluster actions--><g class="cluster" data-entity="actions" data-source-line="59" data-uid="ent0051" id="cluster_actions"><rect fill="#FFFFFF" height="325.89" rx="2.5" ry="2.5" style="stroke:#000000;stroke-width:1;" width="511" x="12" y="124.3894"/><text fill="#000000" font-family="Verdana" font-size="14" font-weight="bold" lengthAdjust="spacing" textLength="120.832" x="207.084" y="139.3845">Scaling Actions</text></g><!--entity glb--><g class="entity" data-entity="glb" data-source-line="7" data-uid="ent0003" id="entity_glb"><rect fill="#FFFFFF" height="52.5938" rx="2.5" ry="2.5" style="stroke:#000000;stroke-width:1;" width="102.9404" x="689.53" y="178.2394"/><text fill="#000000" font-family="Verdana" font-size="14" lengthAdjust="spacing" textLength="82.9404" x="699.53" y="201.2345">Global Load</text><text fill="#000000" font-family="Verdana" font-size="14" lengthAdjust="spacing" textLength="61.5918" x="699.53" y="217.5314">Balancer</text></g><!--entity rlb--><g class="entity" data-entity="rlb" data-source-line="8" data-uid="ent0004" id="entity_rlb"><rect fill="#FFFFFF" height="52.5938" rx="2.5" ry="2.5" style="stroke:#000000;stroke-width:1;" width="119.3057" x="827.35" y="178.2394"/><text fill="#000000" font-family="Verdana" font-size="14" lengthAdjust="spacing" textLength="99.3057" x="837.35" y="201.2345">Regional Load</text><text fill="#000000" font-family="Verdana" font-size="14" lengthAdjust="spacing" textLength="61.5918" x="837.35" y="217.5314">Balancer</text></g><!--entity smlb--><g class="entity" data-entity="smlb" data-source-line="9" data-uid="ent0005" id="entity_smlb"><rect fill="#FFFFFF" height="52.5938" rx="2.5" ry="2.5" style="stroke:#000000;stroke-width:1;" width="119.873" x="982.06" y="178.2394"/><text fill="#000000" font-family="Verdana" font-size="14" lengthAdjust="spacing" textLength="93.0508" x="992.06" y="201.2345">Service Mesh</text><text fill="#000000" font-family="Verdana" font-size="14" lengthAdjust="spacing" textLength="99.873" x="992.06" y="217.5314">Load Balancer</text></g><!--entity webpods--><g class="entity" data-entity="webpods" data-source-line="13" data-uid="ent0007" id="entity_webpods"><rect fill="#FFFFFF" height="52.5938" rx="2.5" ry="2.5" style="stroke:#000000;stroke-width:1;" width="107.8076" x="587.1" y="381.8294"/><text fill="#000000" font-family="Verdana" font-size="14" lengthAdjust="spacing" textLength="87.8076" x="597.1" y="404.8245">Web UI Pods</text><text fill="#000000" font-family="Verdana" font-size="14" lengthAdjust="spacing" textLength="80.4111" x="597.1" y="421.1214">(HPA: 2-20)</text></g><!--entity apipods--><g class="entity" data-entity="apipods" data-source-line="14" data-uid="ent0008" id="entity_apipods"><rect fill="#FFFFFF" height="52.5938" rx="2.5" ry="2.5" style="stroke:#000000;stroke-width:1;" width="108.4434" x="889.78" y="381.8294"/><text fill="#000000" font-family="Verdana" font-size="14" lengthAdjust="spacing" textLength="88.4434" x="899.78" y="404.8245">API Gateway</text><text fill="#000000" font-family="Verdana" font-size="14" lengthAdjust="spacing" textLength="80.4111" x="899.78" y="421.1214">(HPA: 3-50)</text></g><!--entity agentpods--><g class="entity" data-entity="agentpods" data-source-line="15" data-uid="ent0009" id="entity_agentpods"><rect fill="#FFFFFF" height="52.5938" rx="2.5" ry="2.5" style="stroke:#000000;stroke-width:1;" width="124.9932" x="729.5" y="381.8294"/><text fill="#000000" font-family="Verdana" font-size="14" lengthAdjust="spacing" textLength="104.9932" x="739.5" y="404.8245">Agent Runtime</text><text fill="#000000" font-family="Verdana" font-size="14" lengthAdjust="spacing" textLength="89.3184" x="739.5" y="421.1214">(HPA: 5-100)</text></g><!--entity mlpods--><g class="entity" data-entity="mlpods" data-source-line="16" data-uid="ent0010" id="entity_mlpods"><rect fill="#FFFFFF" height="52.5938" rx="2.5" ry="2.5" style="stroke:#000000;stroke-width:1;" width="109.3184" x="1033.34" y="381.8294"/><text fill="#000000" font-family="Verdana" font-size="14" lengthAdjust="spacing" textLength="83.3643" x="1043.34" y="404.8245">ML Services</text><text fill="#000000" font-family="Verdana" font-size="14" lengthAdjust="spacing" textLength="89.3184" x="1043.34" y="421.1214">(HPA: 2-200)</text></g><!--entity kafka--><g class="entity" data-entity="kafka" data-source-line="20" data-uid="ent0012" id="entity_kafka"><rect fill="#FFFFFF" height="52.5938" rx="2.5" ry="2.5" style="stroke:#000000;stroke-width:1;" width="113.5156" x="1358.24" y="585.4194"/><text fill="#000000" font-family="Verdana" font-size="14" lengthAdjust="spacing" textLength="93.5156" x="1368.24" y="608.4145">Kafka Cluster</text><text fill="#000000" font-family="Verdana" font-size="14" lengthAdjust="spacing" textLength="77.2598" x="1368.24" y="624.7114">(9 brokers)</text></g><!--entity sharding--><g class="entity" data-entity="sharding" data-source-line="21" data-uid="ent0013" id="entity_sharding"><rect fill="#FFFFFF" height="52.5938" rx="2.5" ry="2.5" style="stroke:#000000;stroke-width:1;" width="86.8008" x="1506.6" y="585.4194"/><text fill="#000000" font-family="Verdana" font-size="14" lengthAdjust="spacing" textLength="66.8008" x="1516.6" y="608.4145">Database</text><text fill="#000000" font-family="Verdana" font-size="14" lengthAdjust="spacing" textLength="62.6309" x="1516.6" y="624.7114">Sharding</text></g><!--entity cache--><g class="entity" data-entity="cache" data-source-line="22" data-uid="ent0014" id="entity_cache"><rect fill="#FFFFFF" height="52.5938" rx="2.5" ry="2.5" style="stroke:#000000;stroke-width:1;" width="123.4756" x="1628.26" y="585.4194"/><text fill="#000000" font-family="Verdana" font-size="14" lengthAdjust="spacing" textLength="87.0215" x="1638.26" y="608.4145">Cache Layer</text><text fill="#000000" font-family="Verdana" font-size="14" lengthAdjust="spacing" textLength="103.4756" x="1638.26" y="624.7114">(Redis Cluster)</text></g><!--entity cdn--><g class="entity" data-entity="cdn" data-source-line="23" data-uid="ent0015" id="entity_cdn"><rect fill="#FFFFFF" height="52.5938" rx="2.5" ry="2.5" style="stroke:#000000;stroke-width:1;" width="105.8047" x="1427.1" y="771.0194"/><text fill="#000000" font-family="Verdana" font-size="14" lengthAdjust="spacing" textLength="31.0283" x="1437.1" y="794.0145">CDN</text><text fill="#000000" font-family="Verdana" font-size="14" lengthAdjust="spacing" textLength="85.8047" x="1437.1" y="810.3114">(CloudFlare)</text></g><!--entity nodepools--><g class="entity" data-entity="nodepools" data-source-line="27" data-uid="ent0017" id="entity_nodepools"><rect fill="#FFFFFF" height="52.5938" rx="2.5" ry="2.5" style="stroke:#000000;stroke-width:1;" width="100.1924" x="1858.9" y="771.0194"/><text fill="#000000" font-family="Verdana" font-size="14" lengthAdjust="spacing" textLength="80.1924" x="1868.9" y="794.0145">Kubernetes</text><text fill="#000000" font-family="Verdana" font-size="14" lengthAdjust="spacing" textLength="77.7451" x="1868.9" y="810.3114">Node Pools</text></g><!--entity spot--><g class="entity" data-entity="spot" data-source-line="28" data-uid="ent0018" id="entity_spot"><rect fill="#FFFFFF" height="52.5938" rx="2.5" ry="2.5" style="stroke:#000000;stroke-width:1;" width="156.0557" x="1993.97" y="771.0194"/><text fill="#000000" font-family="Verdana" font-size="14" lengthAdjust="spacing" textLength="103.1201" x="2003.97" y="794.0145">Spot Instances</text><text fill="#000000" font-family="Verdana" font-size="14" lengthAdjust="spacing" textLength="136.0557" x="2003.97" y="810.3114">(Cost Optimization)</text></g><!--entity gpu--><g class="entity" data-entity="gpu" data-source-line="29" data-uid="ent0019" id="entity_gpu"><rect fill="#FFFFFF" height="52.5938" rx="2.5" ry="2.5" style="stroke:#000000;stroke-width:1;" width="128.7393" x="2184.63" y="771.0194"/><text fill="#000000" font-family="Verdana" font-size="14" lengthAdjust="spacing" textLength="77.8203" x="2194.63" y="794.0145">GPU Nodes</text><text fill="#000000" font-family="Verdana" font-size="14" lengthAdjust="spacing" textLength="108.7393" x="2194.63" y="810.3114">(ML Workloads)</text></g><!--entity edge--><g class="entity" data-entity="edge" data-source-line="30" data-uid="ent0020" id="entity_edge"><rect fill="#FFFFFF" height="52.5938" rx="2.5" ry="2.5" style="stroke:#000000;stroke-width:1;" width="131.9316" x="2006.03" y="974.6094"/><text fill="#000000" font-family="Verdana" font-size="14" lengthAdjust="spacing" textLength="83.5146" x="2016.03" y="997.6045">Edge Nodes</text><text fill="#000000" font-family="Verdana" font-size="14" lengthAdjust="spacing" textLength="111.9316" x="2016.03" y="1013.9014">(IoT Processing)</text></g><!--entity useast--><g class="entity" data-entity="useast" data-source-line="34" data-uid="ent0022" id="entity_useast"><rect fill="#FFFFFF" height="52.5938" rx="2.5" ry="2.5" style="stroke:#000000;stroke-width:1;" width="85.2695" x="2440.37" y="974.6094"/><text fill="#000000" font-family="Verdana" font-size="14" lengthAdjust="spacing" textLength="54.3936" x="2450.37" y="997.6045">US-East</text><text fill="#000000" font-family="Verdana" font-size="14" lengthAdjust="spacing" textLength="65.2695" x="2450.37" y="1013.9014">(Primary)</text></g><!--entity uswest--><g class="entity" data-entity="uswest" data-source-line="35" data-uid="ent0023" id="entity_uswest"><rect fill="#FFFFFF" height="52.5938" rx="2.5" ry="2.5" style="stroke:#000000;stroke-width:1;" width="105.0664" x="2560.47" y="974.6094"/><text fill="#000000" font-family="Verdana" font-size="14" lengthAdjust="spacing" textLength="59.4248" x="2570.47" y="997.6045">US-West</text><text fill="#000000" font-family="Verdana" font-size="14" lengthAdjust="spacing" textLength="85.0664" x="2570.47" y="1013.9014">(Secondary)</text></g><!--entity eu--><g class="entity" data-entity="eu" data-source-line="36" data-uid="ent0024" id="entity_eu"><rect fill="#FFFFFF" height="52.5938" rx="2.5" ry="2.5" style="stroke:#000000;stroke-width:1;" width="95.1201" x="2429.44" y="1106.2094"/><text fill="#000000" font-family="Verdana" font-size="14" lengthAdjust="spacing" textLength="75.1201" x="2439.44" y="1129.2045">EU-Central</text><text fill="#000000" font-family="Verdana" font-size="14" lengthAdjust="spacing" textLength="50.7227" x="2439.44" y="1145.5014">(GDPR)</text></g><!--entity apac--><g class="entity" data-entity="apac" data-source-line="37" data-uid="ent0025" id="entity_apac"><rect fill="#FFFFFF" height="52.5938" rx="2.5" ry="2.5" style="stroke:#000000;stroke-width:1;" width="118.5264" x="2559.74" y="1106.2094"/><text fill="#000000" font-family="Verdana" font-size="14" lengthAdjust="spacing" textLength="79.5156" x="2569.74" y="1129.2045">Asia-Pacific</text><text fill="#000000" font-family="Verdana" font-size="14" lengthAdjust="spacing" textLength="98.5264" x="2569.74" y="1145.5014">(Low Latency)</text></g><!--entity cpu--><g class="entity" data-entity="cpu" data-source-line="52" data-uid="ent0046" id="entity_cpu"><rect fill="#FFFFFF" height="36.2969" rx="2.5" ry="2.5" style="stroke:#000000;stroke-width:1;" width="172.291" x="1249.85" y="186.3894"/><text fill="#000000" font-family="Verdana" font-size="14" lengthAdjust="spacing" textLength="152.291" x="1259.85" y="209.3845">&#128202; CPU: 70% threshold</text></g><!--entity memory--><g class="entity" data-entity="memory" data-source-line="53" data-uid="ent0047" id="entity_memory"><rect fill="#FFFFFF" height="36.2969" rx="2.5" ry="2.5" style="stroke:#000000;stroke-width:1;" width="200.7627" x="1457.62" y="186.3894"/><text fill="#000000" font-family="Verdana" font-size="14" lengthAdjust="spacing" textLength="180.7627" x="1467.62" y="209.3845">&#128200; Memory: 80% threshold</text></g><!--entity queue--><g class="entity" data-entity="queue" data-source-line="54" data-uid="ent0048" id="entity_queue"><rect fill="#FFFFFF" height="36.2969" rx="2.5" ry="2.5" style="stroke:#000000;stroke-width:1;" width="212.2949" x="1693.85" y="186.3894"/><text fill="#000000" font-family="Verdana" font-size="14" lengthAdjust="spacing" textLength="192.2949" x="1703.85" y="209.3845">&#128260; Queue Depth: 1000 msgs</text></g><!--entity response--><g class="entity" data-entity="response" data-source-line="55" data-uid="ent0049" id="entity_response"><rect fill="#FFFFFF" height="36.2969" rx="2.5" ry="2.5" style="stroke:#000000;stroke-width:1;" width="198.1104" x="1357.94" y="389.9794"/><text fill="#000000" font-family="Verdana" font-size="14" lengthAdjust="spacing" textLength="178.1104" x="1367.94" y="412.9745">&#9889; Response Time: 100ms</text></g><!--entity users_metric--><g class="entity" data-entity="users_metric" data-source-line="56" data-uid="ent0050" id="entity_users_metric"><rect fill="#FFFFFF" height="36.2969" rx="2.5" ry="2.5" style="stroke:#000000;stroke-width:1;" width="190.9395" x="1591.53" y="389.9794"/><text fill="#000000" font-family="Verdana" font-size="14" lengthAdjust="spacing" textLength="170.9395" x="1601.53" y="412.9745">&#128101; Concurrent Users: 10K</text></g><!--entity hpa--><g class="entity" data-entity="hpa" data-source-line="60" data-uid="ent0052" id="entity_hpa"><rect fill="#FFFFFF" height="36.2969" rx="2.5" ry="2.5" style="stroke:#000000;stroke-width:1;" width="213.4639" x="36.27" y="186.3894"/><text fill="#000000" font-family="Verdana" font-size="14" lengthAdjust="spacing" textLength="193.4639" x="46.27" y="209.3845">&#128260; Horizontal Pod Autoscaler</text></g><!--entity vpa--><g class="entity" data-entity="vpa" data-source-line="61" data-uid="ent0053" id="entity_vpa"><rect fill="#FFFFFF" height="36.2969" rx="2.5" ry="2.5" style="stroke:#000000;stroke-width:1;" width="195.4717" x="284.26" y="186.3894"/><text fill="#000000" font-family="Verdana" font-size="14" lengthAdjust="spacing" textLength="175.4717" x="294.26" y="209.3845">&#128200; Vertical Pod Autoscaler</text></g><!--entity ca--><g class="entity" data-entity="ca" data-source-line="62" data-uid="ent0054" id="entity_ca"><rect fill="#FFFFFF" height="36.2969" rx="2.5" ry="2.5" style="stroke:#000000;stroke-width:1;" width="161.3262" x="62.34" y="389.9794"/><text fill="#000000" font-family="Verdana" font-size="14" lengthAdjust="spacing" textLength="141.3262" x="72.34" y="412.9745">&#127760; Cluster Autoscaler</text></g><!--entity custom--><g class="entity" data-entity="custom" data-source-line="63" data-uid="ent0055" id="entity_custom"><rect fill="#FFFFFF" height="36.2969" rx="2.5" ry="2.5" style="stroke:#000000;stroke-width:1;" width="191.0557" x="258.47" y="389.9794"/><text fill="#000000" font-family="Verdana" font-size="14" lengthAdjust="spacing" textLength="171.0557" x="268.47" y="412.9745">&#9889; Custom Metrics Scaler</text></g><g class="entity" data-entity="GMN30" data-source-line="45" data-uid="ent0031" id="entity_GMN30"><path d="M1977.11,184.3994 L1977.11,224.665 L2120.8991,224.665 L2120.8991,194.3994 L2110.8991,184.3994 L1977.11,184.3994" fill="#FFFFFF" style="stroke:#000000;stroke-width:1;"/><path d="M2110.8991,184.3994 L2110.8991,194.3994 L2120.8991,194.3994 L2110.8991,184.3994" fill="#FFFFFF" style="stroke:#000000;stroke-width:1;"/><text fill="#000000" font-family="Verdana" font-size="13" lengthAdjust="spacing" textLength="122.7891" x="1983.11" y="201.4663">DNS-based routing</text><text fill="#000000" font-family="Verdana" font-size="13" lengthAdjust="spacing" textLength="91.6538" x="1983.11" y="216.5991">Health checks</text></g><g class="entity" data-entity="GMN33" data-source-line="46" data-uid="ent0034" id="entity_GMN33"><path d="M1973.85,387.9994 L1973.85,428.265 L2104.1503,428.265 L2104.1503,397.9994 L2094.1503,387.9994 L1973.85,387.9994" fill="#FFFFFF" style="stroke:#000000;stroke-width:1;"/><path d="M2094.1503,387.9994 L2094.1503,397.9994 L2104.1503,397.9994 L2094.1503,387.9994" fill="#FFFFFF" style="stroke:#000000;stroke-width:1;"/><text fill="#000000" font-family="Verdana" font-size="13" lengthAdjust="spacing" textLength="65.8442" x="1979.85" y="405.0663">React app</text><text fill="#000000" font-family="Verdana" font-size="13" lengthAdjust="spacing" textLength="109.3003" x="1979.85" y="420.1991">Stateless scaling</text></g><g class="entity" data-entity="GMN36" data-source-line="47" data-uid="ent0037" id="entity_GMN36"><path d="M2139.44,387.9994 L2139.44,428.265 L2276.5513,428.265 L2276.5513,397.9994 L2266.5513,387.9994 L2139.44,387.9994" fill="#FFFFFF" style="stroke:#000000;stroke-width:1;"/><path d="M2266.5513,387.9994 L2266.5513,397.9994 L2276.5513,397.9994 L2266.5513,387.9994" fill="#FFFFFF" style="stroke:#000000;stroke-width:1;"/><text fill="#000000" font-family="Verdana" font-size="13" lengthAdjust="spacing" textLength="74.5151" x="2145.44" y="405.0663">A2A agents</text><text fill="#000000" font-family="Verdana" font-size="13" lengthAdjust="spacing" textLength="116.1113" x="2145.44" y="420.1991">Horizontal scaling</text></g><g class="entity" data-entity="GMN39" data-source-line="48" data-uid="ent0040" id="entity_GMN39"><path d="M1822.51,591.5894 L1822.51,631.855 L1957.4885,631.855 L1957.4885,601.5894 L1947.4885,591.5894 L1822.51,591.5894" fill="#FFFFFF" style="stroke:#000000;stroke-width:1;"/><path d="M1947.4885,591.5894 L1947.4885,601.5894 L1957.4885,601.5894 L1947.4885,591.5894" fill="#FFFFFF" style="stroke:#000000;stroke-width:1;"/><text fill="#000000" font-family="Verdana" font-size="13" lengthAdjust="spacing" textLength="88.499" x="1828.51" y="608.6563">1M+ msg/sec</text><text fill="#000000" font-family="Verdana" font-size="13" lengthAdjust="spacing" textLength="113.9785" x="1828.51" y="623.7891">Partitioned topics</text></g><g class="entity" data-entity="GMN42" data-source-line="49" data-uid="ent0043" id="entity_GMN42"><path d="M2384.81,777.1794 L2384.81,817.445 L2555.183,817.445 L2555.183,787.1794 L2545.183,777.1794 L2384.81,777.1794" fill="#FFFFFF" style="stroke:#000000;stroke-width:1;"/><path d="M2545.183,777.1794 L2545.183,787.1794 L2555.183,787.1794 L2545.183,777.1794" fill="#FFFFFF" style="stroke:#000000;stroke-width:1;"/><text fill="#000000" font-family="Verdana" font-size="13" lengthAdjust="spacing" textLength="114.4102" x="2390.81" y="794.2463">Auto-provisioning</text><text fill="#000000" font-family="Verdana" font-size="13" lengthAdjust="spacing" textLength="149.373" x="2390.81" y="809.3791">Multi-zone deployment</text></g><!--link loadbalancer to autoscaling--><g class="link" data-entity-1="loadbalancer" data-entity-2="autoscaling" data-source-line="40" data-uid="lnk26" id="link_loadbalancer_autoscaling"><path d="M1119.7235,255.103 C1119.7031,255.2543 1119.6831,255.4056 1119.6635,255.557 C1119.6242,255.8598 1119.5863,256.1628 1119.55,256.466 C1119.4774,257.0724 1119.4107,257.6795 1119.3505,258.2869 C1119.23,259.5019 1119.1348,260.7185 1119.0677,261.9343 C1118.9334,264.3659 1118.911,266.7946 1119.0209,269.2014 C1119.4606,278.8288 1122.0175,288.1069 1128,295.8294 C1136.71,307.0794 1149.3,293.4194 1159,303.8294 C1162.915,308.0319 1166.1542,312.7642 1168.8247,317.8324 C1169.1585,318.4659 1166.8375,313.7196 1167.1538,314.3632" fill="none" id="loadbalancer-to-autoscaling" style="stroke:#000000;stroke-width:1;"/><polygon fill="#000000" points="1169.7997,319.7483,1169.4209,309.9067,1167.5947,315.2607,1162.2407,313.4346,1169.7997,319.7483" style="stroke:#000000;stroke-width:1;"/><text fill="#000000" font-family="Verdana" font-size="13" lengthAdjust="spacing" textLength="104.73" x="1129" y="291.8963">distribute traffic</text></g><!--link autoscaling to datascaling--><g class="link" data-entity-1="autoscaling" data-entity-2="datascaling" data-source-line="41" data-uid="lnk27" id="link_autoscaling_datascaling"><path d="M1186.0482,424.2162 C1186.103,424.3087 1186.1581,424.4016 1186.2135,424.4947 C1186.6562,425.2398 1187.1159,426.0025 1187.5921,426.7807 C1189.497,429.8936 1191.6672,433.2544 1194.0862,436.7219 C1203.7625,450.5919 1217.42,466.1694 1234,474.4194 C1340.44,527.3994 1679.03,428.5594 1768,507.4194 C1772.2975,511.2306 1775.8252,515.668 1778.7073,520.5196 C1779.0676,521.1261 1779.4178,521.739 1779.7582,522.358 C1779.9283,522.6675 1777.2906,517.6748 1777.4559,517.9872" fill="none" id="autoscaling-to-datascaling" style="stroke:#000000;stroke-width:1;"/><polygon fill="#000000" points="1780.2613,523.291,1779.5891,513.4651,1777.9235,518.8712,1772.5174,517.2056,1780.2613,523.291" style="stroke:#000000;stroke-width:1;"/><text fill="#000000" font-family="Verdana" font-size="13" lengthAdjust="spacing" textLength="102.6035" x="1757.16" y="495.4863">data operations</text></g><!--link datascaling to compute--><g class="link" data-entity-1="datascaling" data-entity-2="compute" data-source-line="42" data-uid="lnk28" id="link_datascaling_compute"><path d="M1795.0478,628.3799 C1795.29,628.7202 1795.5377,629.0592 1795.7908,629.396 C1796.297,630.0696 1796.8248,630.7344 1797.3742,631.3839 C1799.5719,633.9819 1802.115,636.3344 1805,638.0194 C1906.11,697.0494 2242.7,613.8894 2329,693.0194 C2333.2413,696.9081 2336.7416,701.4038 2339.6191,706.298 C2339.9788,706.9098 2340.3287,707.5278 2340.6692,708.1517 C2340.7543,708.3076 2338.0056,703.175 2338.0896,703.3317" fill="none" id="datascaling-to-compute" style="stroke:#000000;stroke-width:1;"/><polygon fill="#000000" points="2340.9227,708.6206,2340.1989,698.7984,2338.5618,704.2132,2333.147,702.576,2340.9227,708.6206" style="stroke:#000000;stroke-width:1;"/><text fill="#000000" font-family="Verdana" font-size="13" lengthAdjust="spacing" textLength="124.0903" x="2318.47" y="681.0863">resource allocation</text></g><!--link compute to geo--><g class="link" data-entity-1="compute" data-entity-2="geo" data-source-line="43" data-uid="lnk29" id="link_compute_geo"><path d="M2357.0773,827.6866 C2357.1062,827.7916 2357.1352,827.8968 2357.1642,828.0021 C2357.2223,828.2128 2357.2805,828.4241 2357.3388,828.6359 C2357.5723,829.4832 2357.8082,830.3396 2358.0464,831.2038 C2358.9991,834.6605 2359.9869,838.2425 2360.9888,841.8725 C2362.9925,849.1325 2365.0525,856.5844 2367,863.6094 C2375.27,893.4394 2384.605,926.9244 2391.9525,953.2394 C2392.8709,956.5288 2393.7583,959.7061 2394.6087,962.7503 C2395.0339,964.2723 2395.4498,965.7611 2395.8557,967.214 C2396.0587,967.9404 2396.2592,968.6579 2396.457,969.366 C2396.556,969.7201 2396.6543,970.0718 2396.7519,970.4212 C2396.8007,970.5958 2395.2345,964.9913 2395.283,965.1648" fill="none" id="compute-to-geo" style="stroke:#000000;stroke-width:1;"/><polygon fill="#000000" points="2396.8978,970.9434,2398.328,961.199,2395.5521,966.1279,2390.6232,963.3521,2396.8978,970.9434" style="stroke:#000000;stroke-width:1;"/><text fill="#000000" font-family="Verdana" font-size="13" lengthAdjust="spacing" textLength="134.8687" x="2374.19" y="884.6763">regional deployment</text></g><!--link glb to GMN30--><g class="link" data-entity-1="glb" data-entity-2="GMN30" data-source-line="45" data-uid="lnk32" id="link_glb_GMN30"><path d="M750.13,177.7594 C762.24,147.4194 786.95,100.2394 827.5,85.2394 C856.5,74.5094 1911.5,74.5094 1940.5,85.2394 C1988.03,102.8194 2022.59,155.1694 2038.76,184.3394" fill="none" id="glb-GMN30" style="stroke:#000000;stroke-width:1;stroke-dasharray:7,7;"/></g><!--link webpods to GMN33--><g class="link" data-entity-1="webpods" data-entity-2="GMN33" data-source-line="46" data-uid="lnk35" id="link_webpods_GMN33"><path d="M650.57,381.3694 C663.18,350.9994 688.67,303.5494 729.5,287.3294 C759.83,275.2894 1874.02,275.6494 1904.5,287.3294 C1957.25,307.5394 2002.32,359.0494 2024.42,387.8494" fill="none" id="webpods-GMN33" style="stroke:#000000;stroke-width:1;stroke-dasharray:7,7;"/></g><!--link agentpods to GMN36--><g class="link" data-entity-1="agentpods" data-entity-2="GMN36" data-source-line="47" data-uid="lnk38" id="link_agentpods_GMN36"><path d="M803.46,381.5794 C818.24,351.3994 847.17,304.1394 889.5,287.3294 C920.87,274.8794 2073.13,274.8794 2104.5,287.3294 C2150.96,305.7794 2183.46,358.5294 2198.52,387.8494" fill="none" id="agentpods-GMN36" style="stroke:#000000;stroke-width:1;stroke-dasharray:7,7;"/></g><!--link kafka to GMN39--><g class="link" data-entity-1="kafka" data-entity-2="GMN39" data-source-line="48" data-uid="lnk41" id="link_kafka_GMN39"><path d="M1425.2,585.0394 C1438.54,554.7194 1465.18,507.3294 1506.5,490.9194 C1535.31,479.4794 1756.69,479.4794 1785.5,490.9194 C1832.15,509.4494 1865.07,562.1594 1880.36,591.4594" fill="none" id="kafka-GMN39" style="stroke:#000000;stroke-width:1;stroke-dasharray:7,7;"/></g><!--link nodepools to GMN42--><g class="link" data-entity-1="nodepools" data-entity-2="GMN42" data-source-line="49" data-uid="lnk44" id="link_nodepools_GMN42"><path d="M1917.27,770.7494 C1928.72,739.1294 1952.72,687.8194 1993.5,665.5194 C2062.52,627.7794 2275.38,634.0894 2347.5,665.5194 C2399.91,688.3594 2439.99,745.8894 2458.58,776.8494" fill="none" id="nodepools-GMN42" style="stroke:#000000;stroke-width:1;stroke-dasharray:7,7;"/></g><!--link metrics to actions--><g class="link" data-entity-1="metrics" data-entity-2="actions" data-source-line="66" data-uid="lnk56" id="link_metrics_actions"><path d="M1937.9513,123.9485 C1937.8862,123.7931 1937.8205,123.638 1937.7544,123.4831 C1937.622,123.1733 1937.4876,122.8646 1937.3511,122.5571 C1937.0781,121.9421 1936.7968,121.3316 1936.5069,120.7261 C1935.3472,118.3041 1934.0505,115.9612 1932.603,113.7209 C1929.708,109.2405 1926.21,105.1706 1922,101.6994 C1868.5,57.6094 740.5,82.0694 674,101.6994 C635.535,113.0544 597.62,136.9419 568.4675,158.8381 C553.8913,169.7863 541.5056,180.2366 532.3372,188.3736 C530.0451,190.4079 527.954,192.2975 526.0801,194.0143 C525.1432,194.8726 524.2605,195.6878 523.4341,196.4561 C523.3308,196.5521 527.6189,192.558 527.5173,192.6526" fill="none" id="metrics-to-actions" style="stroke:#000000;stroke-width:1;"/><polygon fill="#000000" points="523.1268,196.742,532.4389,193.5349,526.7856,193.3342,526.9863,187.6809,523.1268,196.742" style="stroke:#000000;stroke-width:1;"/><text fill="#000000" font-family="Verdana" font-size="13" lengthAdjust="spacing" textLength="93.6343" x="1181.5" y="88.3063">trigger scaling</text></g><!--link actions to autoscaling--><g class="link" data-entity-1="actions" data-entity-2="autoscaling" data-source-line="67" data-uid="lnk57" id="link_actions_autoscaling"><path d="M523.0733,209.9333 C523.5047,210.1637 523.952,210.402 524.4148,210.6478 C526.2661,211.6314 528.3658,212.7365 530.6919,213.9452 C539.9962,218.7797 552.9225,225.27 568.055,232.2556 C598.32,246.2269 637.41,262.1794 674,270.8294 C819.3,305.1694 860,286.2994 1009,295.8294 C1025.66,296.8994 1146.46,292.8094 1159,303.8294 C1163.3138,307.6219 1166.8536,312.045 1169.7447,316.8862 C1170.1061,317.4913 1170.4573,318.103 1170.7987,318.7208 C1170.9693,319.0297 1168.3218,314.0418 1168.4875,314.3537" fill="none" id="actions-to-autoscaling" style="stroke:#000000;stroke-width:1;"/><polygon fill="#000000" points="1171.3033,319.652,1170.6118,309.8274,1168.9568,315.2368,1163.5475,313.5818,1171.3033,319.652" style="stroke:#000000;stroke-width:1;"/><text fill="#000000" font-family="Verdana" font-size="13" lengthAdjust="spacing" textLength="101.2007" x="1010" y="291.8963">scale resources</text></g><!--SRC=[TLNDZkD44BxxAOf5I21aaHsqOia1APiCcT5E1fDiTYuZeNQxOhVIxZRTxOcoY1i7X3Y0uCG5SU35U08UWUgsFOexmytTzNrTLL_z-3rNOOtGI2PKOlT2DSom6dB6zwNHhIhcMce3x-yckvUxNP8uuIJ2Ms5R9fT650jyW8rh2w4XXGrdakL22dU4cU6LSCXTQpmU3qbYwCHKIVndDveLy8hGYWjLmXk1vXam2vBkyt2D1hvB04uuIwd919vwhrxreC0gPJw6hh4KMZqDDZ5uW-P1S8GLskfUdKJM4snDZEz7uSzQfrEVhGz-IJerDa0PtTl-Eeh-3dFONaEc2tklFhpAPbEuI2yc7mNU0VE636F6BBk69NDuOCU1yMdwecUmHZp1A54vMBVAYHe7pelq-MGWUVivRNK3lGQZq7fIBGDZBC22EGQz005LqCN_PFwQxVOCvhAr3Wqv-1noe_TeRFV-tfl73FzwpYobiAcOAGOVjZ-CmNF6AuGRTWoFhx4GTd3MEU0U474MjuITIzqMNqfci0SMAafphkkcTJZAbFTtSPPjZaQXynhUwWAfqbfsNQ7esFXJr7UDTd2jhFEjvfMVQ-lWguQA9zunHmtSXMK95qr2jWNlmvEeU7VQxFtWz8AMJJk6NnObFkAlzHl8Z2QFbZBg64Y0AFCbwjAmfX8S5i8w8_BMHzGvG1rdlzsabymwUZypecRcs3tSMgJRC-WT1kW6kLR52VY0CVXocywfPmsJX5ykidKVS9JXp0gMPeoBdU04lD47QWY7YX-7QM7S9pXQBsdwnMXWfr0CcIAGonqzbfm2FE6qpwVX1Bf14yfbarEhHm-zCgLWhMuDRHacfUO1dWnMZ_IQUbI_jwXXf3xMb7gIA4qO8yhAWTxvNKV0nUqczHDI02qVH-xkrHKowIgWNkTx6v7w_KB4DJBkI8-6PikHH9Bw0FgG8zBZjY3Qx6BMdQc5hhGHxxHo5ERJn33HH7g- -XXgMtvYaOgICKF_3igEOdQw4JoEyN5Al3k_NnkZ7uGbHaXlrKedKlAB8t5EvwaNVeLKHDwDNjrzn-twxv-__GJpR3k5poOVWAkeEfMMHJVVyVWG-4TwjDRcE8MNP_WwM6BAxp_0ross20jiN4LQJ2OJBqONrhVUDARyyyTVL1oQTMMH_eSr1axTuKrlYBty-ZVCjUAjCNxnRoqjLKzxFGoViTzq2aJJFKWruw5lkndfli-bebHEIau_i50UN_h-1rarx0d5tY8Ld3_DU3Xd_FpBiBLZC6VdIiq9gUkXr64_3-XWyVaEjGzptYStfS4MPKbEXjOTBEVR88JmEBWs-Gy0]--></g></svg>