<svg xmlns="http://www.w3.org/2000/svg" xmlns:xlink="http://www.w3.org/1999/xlink" contentStyleType="text/css" data-diagram-type="STATE" height="861px" preserveAspectRatio="none" style="width:381px;height:861px;background:#FFFFFF;" version="1.1" viewBox="0 0 381 861" width="381px" zoomAndPan="magnify"><defs/><g><ellipse cx="253.43" cy="16" fill="#222222" rx="10" ry="10" style="stroke:#222222;stroke-width:1;"/><g id="Designing"><rect fill="#F1F1F1" height="50" rx="12.5" ry="12.5" style="stroke:#181818;stroke-width:0.5;" width="89.9863" x="208.44" y="87"/><line style="stroke:#181818;stroke-width:0.5;" x1="208.44" x2="298.4263" y1="113.2969" y2="113.2969"/><text fill="#000000" font-family="sans-serif" font-size="14" lengthAdjust="spacing" textLength="69.9863" x="218.44" y="104.9951">Designing</text></g><g id="Deploying"><rect fill="#F1F1F1" height="50" rx="12.5" ry="12.5" style="stroke:#181818;stroke-width:0.5;" width="90.6699" x="208.1" y="214"/><line style="stroke:#181818;stroke-width:0.5;" x1="208.1" x2="298.7699" y1="240.2969" y2="240.2969"/><text fill="#000000" font-family="sans-serif" font-size="14" lengthAdjust="spacing" textLength="70.6699" x="218.1" y="231.9951">Deploying</text></g><g id="Running"><rect fill="#F1F1F1" height="50" rx="12.5" ry="12.5" style="stroke:#181818;stroke-width:0.5;" width="77.9961" x="139.44" y="341"/><line style="stroke:#181818;stroke-width:0.5;" x1="139.44" x2="217.4361" y1="367.2969" y2="367.2969"/><text fill="#000000" font-family="sans-serif" font-size="14" lengthAdjust="spacing" textLength="57.9961" x="149.44" y="358.9951">Running</text></g><g id="Error"><rect fill="#F1F1F1" height="50" rx="12.5" ry="12.5" style="stroke:#181818;stroke-width:0.5;" width="54.6787" x="226.09" y="722"/><line style="stroke:#181818;stroke-width:0.5;" x1="226.09" x2="280.7687" y1="748.2969" y2="748.2969"/><text fill="#000000" font-family="sans-serif" font-size="14" lengthAdjust="spacing" textLength="34.6787" x="236.09" y="739.9951">Error</text></g><g id="Monitoring"><rect fill="#F1F1F1" height="50" rx="12.5" ry="12.5" style="stroke:#181818;stroke-width:0.5;" width="94.8672" x="7" y="468"/><line style="stroke:#181818;stroke-width:0.5;" x1="7" x2="101.8672" y1="494.2969" y2="494.2969"/><text fill="#000000" font-family="sans-serif" font-size="14" lengthAdjust="spacing" textLength="74.8672" x="17" y="485.9951">Monitoring</text></g><g id="Healing"><rect fill="#F1F1F1" height="50" rx="12.5" ry="12.5" style="stroke:#181818;stroke-width:0.5;" width="73.2588" x="141.8" y="595"/><line style="stroke:#181818;stroke-width:0.5;" x1="141.8" x2="215.0588" y1="621.2969" y2="621.2969"/><text fill="#000000" font-family="sans-serif" font-size="14" lengthAdjust="spacing" textLength="53.2588" x="151.8" y="612.9951">Healing</text></g><ellipse cx="253.43" cy="844" fill="none" rx="11" ry="11" style="stroke:#222222;stroke-width:1;"/><ellipse cx="253.43" cy="844" fill="#222222" rx="6" ry="6" style="stroke:#222222;stroke-width:1;"/><!--link *start* to Designing--><g class="link" data-entity-1=".start." data-entity-2="Designing" data-source-line="1" data-uid="lnk4" id="link_.start._Designing"><path d="M253.43,26.36 C253.43,40.29 253.43,60.95 253.43,80.65" fill="none" id="*start*-to-Designing" style="stroke:#181818;stroke-width:1;"/><polygon fill="#181818" points="253.43,86.65,257.43,77.65,253.43,81.65,249.43,77.65,253.43,86.65" style="stroke:#181818;stroke-width:1;"/></g><!--link Designing to Deploying--><g class="link" data-entity-1="Designing" data-entity-2="Deploying" data-source-line="2" data-uid="lnk6" id="link_Designing_Deploying"><path d="M253.43,137.4 C253.43,159.42 253.43,185.66 253.43,207.66" fill="none" id="Designing-to-Deploying" style="stroke:#181818;stroke-width:1;"/><polygon fill="#181818" points="253.43,213.66,257.43,204.66,253.43,208.66,249.43,204.66,253.43,213.66" style="stroke:#181818;stroke-width:1;"/><text fill="#000000" font-family="sans-serif" font-size="13" lengthAdjust="spacing" textLength="79.3267" x="254.43" y="180.0669">Deploy Flow</text></g><!--link Deploying to Running--><g class="link" data-entity-1="Deploying" data-entity-2="Running" data-source-line="3" data-uid="lnk8" id="link_Deploying_Running"><path d="M238.79,264.4 C225.58,286.42 209.327,313.515 196.127,335.515" fill="none" id="Deploying-to-Running" style="stroke:#181818;stroke-width:1;"/><polygon fill="#181818" points="193.04,340.66,201.1004,335.0005,195.6125,336.3725,194.2405,330.8846,193.04,340.66" style="stroke:#181818;stroke-width:1;"/><text fill="#000000" font-family="sans-serif" font-size="13" lengthAdjust="spacing" textLength="52.3301" x="221.42" y="307.0669">Success</text></g><!--link Deploying to Error--><g class="link" data-entity-1="Deploying" data-entity-2="Error" data-source-line="4" data-uid="lnk10" id="link_Deploying_Error"><path d="M278.83,264.25 C300.58,287.74 328.43,325.52 328.43,365 C328.43,365 328.43,365 328.43,621 C328.43,654.04 323.37,663.64 306.43,692 C299.77,703.17 294.6339,709.5895 285.5639,718.3995" fill="none" id="Deploying-to-Error" style="stroke:#181818;stroke-width:1;"/><polygon fill="#181818" points="281.26,722.58,290.5028,719.1785,284.8466,719.0962,284.9288,713.44,281.26,722.58" style="stroke:#181818;stroke-width:1;"/><text fill="#000000" font-family="sans-serif" font-size="13" lengthAdjust="spacing" textLength="44.2495" x="329.43" y="497.5669">Failure</text></g><!--link Running to Monitoring--><g class="link" data-entity-1="Running" data-entity-2="Monitoring" data-source-line="5" data-uid="lnk12" id="link_Running_Monitoring"><path d="M138.96,375.49 C113.61,383.07 82.21,396.83 64.43,421 C54.62,434.34 52.2938,446.98 52.3338,461.82" fill="none" id="Running-to-Monitoring" style="stroke:#181818;stroke-width:1;"/><polygon fill="#181818" points="52.35,467.82,56.3257,458.8093,52.3365,462.82,48.3258,458.8308,52.35,467.82" style="stroke:#181818;stroke-width:1;"/><text fill="#000000" font-family="sans-serif" font-size="13" lengthAdjust="spacing" textLength="86.8105" x="65.43" y="434.0669">Health Check</text></g><!--link Monitoring to Healing--><g class="link" data-entity-1="Monitoring" data-entity-2="Healing" data-source-line="6" data-uid="lnk14" id="link_Monitoring_Healing"><path d="M42.69,518.24 C37.42,532.92 34.2,551.37 43.43,565 C65.23,597.19 103.7294,609.2171 135.6794,614.4671" fill="none" id="Monitoring-to-Healing" style="stroke:#181818;stroke-width:1;"/><polygon fill="#181818" points="141.6,615.44,133.3677,610.0336,136.6662,614.6293,132.0705,617.9278,141.6,615.44" style="stroke:#181818;stroke-width:1;"/><text fill="#000000" font-family="sans-serif" font-size="13" lengthAdjust="spacing" textLength="107.98" x="44.43" y="561.0669">Failure Detected</text></g><!--link Healing to Running--><g class="link" data-entity-1="Healing" data-entity-2="Running" data-source-line="7" data-uid="lnk15" id="link_Healing_Running"><path d="M178.43,594.54 C178.43,546.25 178.43,445.21 178.43,397.16" fill="none" id="Healing-to-Running" style="stroke:#181818;stroke-width:1;"/><polygon fill="#181818" points="178.43,391.16,174.43,400.16,178.43,396.16,182.43,400.16,178.43,391.16" style="stroke:#181818;stroke-width:1;"/><text fill="#000000" font-family="sans-serif" font-size="13" lengthAdjust="spacing" textLength="78.8696" x="179.43" y="497.5669">Remediated</text></g><!--link Healing to Error--><g class="link" data-entity-1="Healing" data-entity-2="Error" data-source-line="8" data-uid="lnk16" id="link_Healing_Error"><path d="M185.26,645.34 C189.83,659.54 196.61,677.45 205.43,692 C211.81,702.51 216.2666,708.4754 224.3666,717.2754" fill="none" id="Healing-to-Error" style="stroke:#181818;stroke-width:1;"/><polygon fill="#181818" points="228.43,721.69,225.2779,712.3592,225.0438,718.0112,219.3918,717.7771,228.43,721.69" style="stroke:#181818;stroke-width:1;"/><text fill="#000000" font-family="sans-serif" font-size="13" lengthAdjust="spacing" textLength="95.0625" x="206.43" y="688.0669">Unrecoverable</text></g><!--link Error to *end*--><g class="link" data-entity-1="Error" data-entity-2=".end." data-source-line="9" data-uid="lnk18" id="link_Error_.end."><path d="M253.43,772.46 C253.43,792.04 253.43,812.49 253.43,826.8" fill="none" id="Error-to-*end*" style="stroke:#181818;stroke-width:1;"/><polygon fill="#181818" points="253.43,832.8,257.43,823.8,253.43,827.8,249.43,823.8,253.43,832.8" style="stroke:#181818;stroke-width:1;"/></g><!--SRC=[NOwx3i8m34NtV4NcIlq11XPAnS9In5Hr2AdLHeGOEGc8lwTM4XxTx7kEhTjNWwphhMp0cyaPDudFbFExnHTlcppBrk9JV7EskkXSSavHQ_1-nVT4I0jjbR6HG1IVsH6T2KZf_03AXbdkPj1NyKDOP9Qi_6Of540764L1_rqwkC5er5eePSwEGEC3I5qiY9GoxwlX3G00]--></g></svg>