<svg xmlns="http://www.w3.org/2000/svg" xmlns:xlink="http://www.w3.org/1999/xlink" contentStyleType="text/css" data-diagram-type="SEQUENCE" height="298px" preserveAspectRatio="none" style="width:421px;height:298px;background:#FFFFFF;" version="1.1" viewBox="0 0 421 298" width="421px" zoomAndPan="magnify"><defs/><g><g><title>User1</title><rect fill="#000000" fill-opacity="0.00000" height="136.5313" width="8" x="24.4087" y="81.2969"/><line style="stroke:#181818;stroke-width:0.5;stroke-dasharray:5,5;" x1="28" x2="28" y1="81.2969" y2="217.8281"/></g><g><title>User2</title><rect fill="#000000" fill-opacity="0.00000" height="136.5313" width="8" x="81.2261" y="81.2969"/><line style="stroke:#181818;stroke-width:0.5;stroke-dasharray:5,5;" x1="84.8174" x2="84.8174" y1="81.2969" y2="217.8281"/></g><g><title>Visual IDE</title><rect fill="#000000" fill-opacity="0.00000" height="136.5313" width="8" x="214.6914" y="81.2969"/><line style="stroke:#181818;stroke-width:0.5;stroke-dasharray:5,5;" x1="218.5376" x2="218.5376" y1="81.2969" y2="217.8281"/></g><g><title>Collab Server</title><rect fill="#000000" fill-opacity="0.00000" height="136.5313" width="8" x="358.0146" y="81.2969"/><line style="stroke:#181818;stroke-width:0.5;stroke-dasharray:5,5;" x1="361.0415" x2="361.0415" y1="81.2969" y2="217.8281"/></g><g class="participant participant-head" data-participant="User1"><text fill="#000000" font-family="sans-serif" font-size="14" lengthAdjust="spacing" textLength="40.8174" x="5" y="77.9951">User1</text><ellipse cx="28.4087" cy="13.5" fill="#E2E2F0" rx="8" ry="8" style="stroke:#181818;stroke-width:0.5;"/><path d="M28.4087,21.5 L28.4087,48.5 M15.4087,29.5 L41.4087,29.5 M28.4087,48.5 L15.4087,63.5 M28.4087,48.5 L41.4087,63.5" fill="none" style="stroke:#181818;stroke-width:0.5;"/></g><g class="participant participant-tail" data-participant="User1"><text fill="#000000" font-family="sans-serif" font-size="14" lengthAdjust="spacing" textLength="40.8174" x="5" y="229.8232">User1</text><ellipse cx="28.4087" cy="241.625" fill="#E2E2F0" rx="8" ry="8" style="stroke:#181818;stroke-width:0.5;"/><path d="M28.4087,249.625 L28.4087,276.625 M15.4087,257.625 L41.4087,257.625 M28.4087,276.625 L15.4087,291.625 M28.4087,276.625 L41.4087,291.625" fill="none" style="stroke:#181818;stroke-width:0.5;"/></g><g class="participant participant-head" data-participant="User2"><text fill="#000000" font-family="sans-serif" font-size="14" lengthAdjust="spacing" textLength="40.8174" x="61.8174" y="77.9951">User2</text><ellipse cx="85.2261" cy="13.5" fill="#E2E2F0" rx="8" ry="8" style="stroke:#181818;stroke-width:0.5;"/><path d="M85.2261,21.5 L85.2261,48.5 M72.2261,29.5 L98.2261,29.5 M85.2261,48.5 L72.2261,63.5 M85.2261,48.5 L98.2261,63.5" fill="none" style="stroke:#181818;stroke-width:0.5;"/></g><g class="participant participant-tail" data-participant="User2"><text fill="#000000" font-family="sans-serif" font-size="14" lengthAdjust="spacing" textLength="40.8174" x="61.8174" y="229.8232">User2</text><ellipse cx="85.2261" cy="241.625" fill="#E2E2F0" rx="8" ry="8" style="stroke:#181818;stroke-width:0.5;"/><path d="M85.2261,249.625 L85.2261,276.625 M72.2261,257.625 L98.2261,257.625 M85.2261,276.625 L72.2261,291.625 M85.2261,276.625 L98.2261,291.625" fill="none" style="stroke:#181818;stroke-width:0.5;"/></g><g class="participant participant-head" data-participant="IDE"><rect fill="#E2E2F0" height="30.2969" rx="2.5" ry="2.5" style="stroke:#181818;stroke-width:0.5;" width="84.3076" x="176.5376" y="50"/><text fill="#000000" font-family="sans-serif" font-size="14" lengthAdjust="spacing" textLength="70.3076" x="183.5376" y="69.9951">Visual IDE</text></g><g class="participant participant-tail" data-participant="IDE"><rect fill="#E2E2F0" height="30.2969" rx="2.5" ry="2.5" style="stroke:#181818;stroke-width:0.5;" width="84.3076" x="176.5376" y="216.8281"/><text fill="#000000" font-family="sans-serif" font-size="14" lengthAdjust="spacing" textLength="70.3076" x="183.5376" y="236.8232">Visual IDE</text></g><g class="participant participant-head" data-participant="Server"><rect fill="#E2E2F0" height="30.2969" rx="2.5" ry="2.5" style="stroke:#181818;stroke-width:0.5;" width="107.9463" x="308.0415" y="50"/><text fill="#000000" font-family="sans-serif" font-size="14" lengthAdjust="spacing" textLength="93.9463" x="315.0415" y="69.9951">Collab Server</text></g><g class="participant participant-tail" data-participant="Server"><rect fill="#E2E2F0" height="30.2969" rx="2.5" ry="2.5" style="stroke:#181818;stroke-width:0.5;" width="107.9463" x="308.0415" y="216.8281"/><text fill="#000000" font-family="sans-serif" font-size="14" lengthAdjust="spacing" textLength="93.9463" x="315.0415" y="236.8232">Collab Server</text></g><g class="message" data-participant-1="User1" data-participant-2="IDE"><polygon fill="#181818" points="206.6914,108.4297,216.6914,112.4297,206.6914,116.4297,210.6914,112.4297" style="stroke:#181818;stroke-width:1;"/><line style="stroke:#181818;stroke-width:1;" x1="28.4087" x2="212.6914" y1="112.4297" y2="112.4297"/><text fill="#000000" font-family="sans-serif" font-size="13" lengthAdjust="spacing" textLength="58.9824" x="35.4087" y="107.3638">Edit Flow</text></g><g class="message" data-participant-1="IDE" data-participant-2="Server"><polygon fill="#181818" points="350.0146,137.5625,360.0146,141.5625,350.0146,145.5625,354.0146,141.5625" style="stroke:#181818;stroke-width:1;"/><line style="stroke:#181818;stroke-width:1;" x1="218.6914" x2="356.0146" y1="141.5625" y2="141.5625"/><text fill="#000000" font-family="sans-serif" font-size="13" lengthAdjust="spacing" textLength="85.2363" x="225.6914" y="136.4966">Sync Change</text></g><g class="message" data-participant-1="Server" data-participant-2="IDE"><polygon fill="#181818" points="229.6914,166.6953,219.6914,170.6953,229.6914,174.6953,225.6914,170.6953" style="stroke:#181818;stroke-width:1;"/><line style="stroke:#181818;stroke-width:1;" x1="223.6914" x2="361.0146" y1="170.6953" y2="170.6953"/><text fill="#000000" font-family="sans-serif" font-size="13" lengthAdjust="spacing" textLength="119.3232" x="235.6914" y="165.6294">Broadcast Change</text></g><g class="message" data-participant-1="User2" data-participant-2="IDE"><polygon fill="#181818" points="206.6914,195.8281,216.6914,199.8281,206.6914,203.8281,210.6914,199.8281" style="stroke:#181818;stroke-width:1;"/><line style="stroke:#181818;stroke-width:1;" x1="85.2261" x2="212.6914" y1="199.8281" y2="199.8281"/><text fill="#000000" font-family="sans-serif" font-size="13" lengthAdjust="spacing" textLength="109.4653" x="92.2261" y="194.7622">Receives Update</text></g><!--SRC=[LOwx3i8m34NtV8MLdG763WoK8h5IjRj9B8WK9P7Z5lNleL4eOlCzzo6ZaSWmPEAzmkq-g8GiphY4GU1wxW0pwD7b2VqgzP_V4y_49T96x_5UYLPb5tR7Cj50Pvt0nSUNMlK7rsO3_H8Cj4yC3r8LRgqJHxG6itm3vSEVVoD3RgOCGx8ez0O0]--></g></svg>