<svg xmlns="http://www.w3.org/2000/svg" xmlns:xlink="http://www.w3.org/1999/xlink" contentStyleType="text/css" data-diagram-type="SEQUENCE" height="636px" preserveAspectRatio="none" style="width:823px;height:636px;background:#FFFFFF;" version="1.1" viewBox="0 0 823 636" width="823px" zoomAndPan="magnify"><title>Edge Device Deployment Sequence</title><defs/><g><text fill="#000000" font-family="sans-serif" font-size="14" font-weight="bold" lengthAdjust="spacing" textLength="278.8037" x="273.907" y="27.9951">Edge Device Deployment Sequence</text><rect fill="none" height="293" style="stroke:#000000;stroke-width:1.5;" width="807.6177" x="10" y="291.3906"/><rect fill="none" height="90.2031" style="stroke:#000000;stroke-width:1.5;" width="675.2075" x="20" y="487.1875"/><g><title>Cloud Controller</title><rect fill="#000000" fill-opacity="0.00000" height="527.7969" width="8" x="89.8066" y="73.5938"/><line style="stroke:#181818;stroke-width:0.5;stroke-dasharray:5,5;" x1="93" x2="93" y1="73.5938" y2="601.3906"/></g><g><title>Edge Device</title><rect fill="#000000" fill-opacity="0.00000" height="527.7969" width="8" x="251.2842" y="73.5938"/><line style="stroke:#181818;stroke-width:0.5;stroke-dasharray:5,5;" x1="254.5034" x2="254.5034" y1="73.5938" y2="601.3906"/></g><g><title>SQLite-AI</title><rect fill="#000000" fill-opacity="0.00000" height="527.7969" width="8" x="451.791" y="73.5938"/><line style="stroke:#181818;stroke-width:0.5;stroke-dasharray:5,5;" x1="455.563" x2="455.563" y1="73.5938" y2="601.3906"/></g><g><title>Local Agent</title><rect fill="#000000" fill-opacity="0.00000" height="527.7969" width="8" x="632.9971" y="73.5938"/><line style="stroke:#181818;stroke-width:0.5;stroke-dasharray:5,5;" x1="636.7866" x2="636.7866" y1="73.5938" y2="601.3906"/></g><g><title>Sensor</title><rect fill="#000000" fill-opacity="0.00000" height="527.7969" width="8" x="772.6235" y="73.5938"/><line style="stroke:#181818;stroke-width:0.5;stroke-dasharray:5,5;" x1="775.6294" x2="775.6294" y1="73.5938" y2="601.3906"/></g><g class="participant participant-head" data-participant="Cloud"><rect fill="#E2E2F0" height="30.2969" rx="2.5" ry="2.5" style="stroke:#181818;stroke-width:0.5;" width="127.6133" x="30" y="42.2969"/><text fill="#000000" font-family="sans-serif" font-size="14" lengthAdjust="spacing" textLength="113.6133" x="37" y="62.292">Cloud Controller</text></g><g class="participant participant-tail" data-participant="Cloud"><rect fill="#E2E2F0" height="30.2969" rx="2.5" ry="2.5" style="stroke:#181818;stroke-width:0.5;" width="127.6133" x="30" y="600.3906"/><text fill="#000000" font-family="sans-serif" font-size="14" lengthAdjust="spacing" textLength="113.6133" x="37" y="620.3857">Cloud Controller</text></g><g class="participant participant-head" data-participant="Edge"><rect fill="#E2E2F0" height="30.2969" rx="2.5" ry="2.5" style="stroke:#181818;stroke-width:0.5;" width="101.5615" x="204.5034" y="42.2969"/><text fill="#000000" font-family="sans-serif" font-size="14" lengthAdjust="spacing" textLength="87.5615" x="211.5034" y="62.292">Edge Device</text></g><g class="participant participant-tail" data-participant="Edge"><rect fill="#E2E2F0" height="30.2969" rx="2.5" ry="2.5" style="stroke:#181818;stroke-width:0.5;" width="101.5615" x="204.5034" y="600.3906"/><text fill="#000000" font-family="sans-serif" font-size="14" lengthAdjust="spacing" textLength="87.5615" x="211.5034" y="620.3857">Edge Device</text></g><g class="participant participant-head" data-participant="DB"><rect fill="#E2E2F0" height="30.2969" rx="2.5" ry="2.5" style="stroke:#181818;stroke-width:0.5;" width="78.4561" x="416.563" y="42.2969"/><text fill="#000000" font-family="sans-serif" font-size="14" lengthAdjust="spacing" textLength="64.4561" x="423.563" y="62.292">SQLite-AI</text></g><g class="participant participant-tail" data-participant="DB"><rect fill="#E2E2F0" height="30.2969" rx="2.5" ry="2.5" style="stroke:#181818;stroke-width:0.5;" width="78.4561" x="416.563" y="600.3906"/><text fill="#000000" font-family="sans-serif" font-size="14" lengthAdjust="spacing" textLength="64.4561" x="423.563" y="620.3857">SQLite-AI</text></g><g class="participant participant-head" data-participant="Agent"><rect fill="#E2E2F0" height="30.2969" rx="2.5" ry="2.5" style="stroke:#181818;stroke-width:0.5;" width="96.4209" x="588.7866" y="42.2969"/><text fill="#000000" font-family="sans-serif" font-size="14" lengthAdjust="spacing" textLength="82.4209" x="595.7866" y="62.292">Local Agent</text></g><g class="participant participant-tail" data-participant="Agent"><rect fill="#E2E2F0" height="30.2969" rx="2.5" ry="2.5" style="stroke:#181818;stroke-width:0.5;" width="96.4209" x="588.7866" y="600.3906"/><text fill="#000000" font-family="sans-serif" font-size="14" lengthAdjust="spacing" textLength="82.4209" x="595.7866" y="620.3857">Local Agent</text></g><g class="participant participant-head" data-participant="Sensor"><rect fill="#E2E2F0" height="30.2969" rx="2.5" ry="2.5" style="stroke:#181818;stroke-width:0.5;" width="61.9883" x="745.6294" y="42.2969"/><text fill="#000000" font-family="sans-serif" font-size="14" lengthAdjust="spacing" textLength="47.9883" x="752.6294" y="62.292">Sensor</text></g><g class="participant participant-tail" data-participant="Sensor"><rect fill="#E2E2F0" height="30.2969" rx="2.5" ry="2.5" style="stroke:#181818;stroke-width:0.5;" width="61.9883" x="745.6294" y="600.3906"/><text fill="#000000" font-family="sans-serif" font-size="14" lengthAdjust="spacing" textLength="47.9883" x="752.6294" y="620.3857">Sensor</text></g><g class="message" data-participant-1="Cloud" data-participant-2="Edge"><polygon fill="#181818" points="243.2842,100.7266,253.2842,104.7266,243.2842,108.7266,247.2842,104.7266" style="stroke:#181818;stroke-width:1;"/><line style="stroke:#181818;stroke-width:1;" x1="93.8066" x2="249.2842" y1="104.7266" y2="104.7266"/><text fill="#000000" font-family="sans-serif" font-size="13" lengthAdjust="spacing" textLength="137.4775" x="100.8066" y="99.6606">Deploy edge runtime</text></g><g class="message" data-participant-1="Edge" data-participant-2="Edge"><line style="stroke:#181818;stroke-width:1;" x1="255.2842" x2="297.2842" y1="133.8594" y2="133.8594"/><line style="stroke:#181818;stroke-width:1;" x1="297.2842" x2="297.2842" y1="133.8594" y2="146.8594"/><line style="stroke:#181818;stroke-width:1;" x1="256.2842" x2="297.2842" y1="146.8594" y2="146.8594"/><polygon fill="#181818" points="266.2842,142.8594,256.2842,146.8594,266.2842,150.8594,262.2842,146.8594" style="stroke:#181818;stroke-width:1;"/><text fill="#000000" font-family="sans-serif" font-size="13" lengthAdjust="spacing" textLength="186.5068" x="262.2842" y="128.7935">Initialize lightweight runtime</text></g><g class="message" data-participant-1="Edge" data-participant-2="DB"><polygon fill="#181818" points="443.791,171.9922,453.791,175.9922,443.791,179.9922,447.791,175.9922" style="stroke:#181818;stroke-width:1;"/><line style="stroke:#181818;stroke-width:1;" x1="255.2842" x2="449.791" y1="175.9922" y2="175.9922"/><text fill="#000000" font-family="sans-serif" font-size="13" lengthAdjust="spacing" textLength="160.145" x="262.2842" y="170.9263">Start SQLite-AI database</text></g><g class="message" data-participant-1="Edge" data-participant-2="Agent"><polygon fill="#181818" points="624.9971,201.125,634.9971,205.125,624.9971,209.125,628.9971,205.125" style="stroke:#181818;stroke-width:1;"/><line style="stroke:#181818;stroke-width:1;" x1="255.2842" x2="630.9971" y1="205.125" y2="205.125"/><text fill="#000000" font-family="sans-serif" font-size="13" lengthAdjust="spacing" textLength="107.8657" x="262.2842" y="200.0591">Start local agent</text></g><g class="message" data-participant-1="Agent" data-participant-2="Agent"><line style="stroke:#181818;stroke-width:1;" x1="636.9971" x2="678.9971" y1="234.2578" y2="234.2578"/><line style="stroke:#181818;stroke-width:1;" x1="678.9971" x2="678.9971" y1="234.2578" y2="247.2578"/><line style="stroke:#181818;stroke-width:1;" x1="637.9971" x2="678.9971" y1="247.2578" y2="247.2578"/><polygon fill="#181818" points="647.9971,243.2578,637.9971,247.2578,647.9971,251.2578,643.9971,247.2578" style="stroke:#181818;stroke-width:1;"/><text fill="#000000" font-family="sans-serif" font-size="13" lengthAdjust="spacing" textLength="125.6265" x="643.9971" y="229.1919">Register with mesh</text></g><g class="message" data-participant-1="Agent" data-participant-2="Cloud"><polygon fill="#181818" points="104.8066,272.3906,94.8066,276.3906,104.8066,280.3906,100.8066,276.3906" style="stroke:#181818;stroke-width:1;"/><line style="stroke:#181818;stroke-width:1;" x1="98.8066" x2="635.9971" y1="276.3906" y2="276.3906"/><text fill="#000000" font-family="sans-serif" font-size="13" lengthAdjust="spacing" textLength="139.7754" x="110.8066" y="271.3247">Announce availability</text></g><path d="M10,291.3906 L86.624,291.3906 L86.624,298.5234 L76.624,308.5234 L10,308.5234 L10,291.3906" fill="#EEEEEE" style="stroke:#000000;stroke-width:1.5;"/><rect fill="none" height="293" style="stroke:#000000;stroke-width:1.5;" width="807.6177" x="10" y="291.3906"/><text fill="#000000" font-family="sans-serif" font-size="13" font-weight="bold" lengthAdjust="spacing" textLength="31.624" x="25" y="304.4575">loop</text><text fill="#000000" font-family="sans-serif" font-size="11" font-weight="bold" lengthAdjust="spacing" textLength="110.7144" x="101.624" y="303.6011">[Data Processing]</text><g class="message" data-participant-1="Sensor" data-participant-2="Agent"><polygon fill="#181818" points="647.9971,325.6563,637.9971,329.6563,647.9971,333.6563,643.9971,329.6563" style="stroke:#181818;stroke-width:1;"/><line style="stroke:#181818;stroke-width:1;" x1="641.9971" x2="775.6235" y1="329.6563" y2="329.6563"/><text fill="#000000" font-family="sans-serif" font-size="13" lengthAdjust="spacing" textLength="113.3691" x="653.9971" y="324.5903">Send sensor data</text></g><g class="message" data-participant-1="Agent" data-participant-2="DB"><polygon fill="#181818" points="466.791,354.7891,456.791,358.7891,466.791,362.7891,462.791,358.7891" style="stroke:#181818;stroke-width:1;"/><line style="stroke:#181818;stroke-width:1;" x1="460.791" x2="635.9971" y1="358.7891" y2="358.7891"/><text fill="#000000" font-family="sans-serif" font-size="13" lengthAdjust="spacing" textLength="113.7881" x="472.791" y="353.7231">Store data locally</text></g><g class="message" data-participant-1="DB" data-participant-2="DB"><line style="stroke:#181818;stroke-width:1;" x1="455.791" x2="497.791" y1="387.9219" y2="387.9219"/><line style="stroke:#181818;stroke-width:1;" x1="497.791" x2="497.791" y1="387.9219" y2="400.9219"/><line style="stroke:#181818;stroke-width:1;" x1="456.791" x2="497.791" y1="400.9219" y2="400.9219"/><polygon fill="#181818" points="466.791,396.9219,456.791,400.9219,466.791,404.9219,462.791,400.9219" style="stroke:#181818;stroke-width:1;"/><text fill="#000000" font-family="sans-serif" font-size="13" lengthAdjust="spacing" textLength="107.6563" x="462.791" y="382.856">Run AI inference</text></g><g class="message" data-participant-1="DB" data-participant-2="Agent"><polygon fill="#181818" points="624.9971,426.0547,634.9971,430.0547,624.9971,434.0547,628.9971,430.0547" style="stroke:#181818;stroke-width:1;"/><line style="stroke:#181818;stroke-width:1;" x1="455.791" x2="630.9971" y1="430.0547" y2="430.0547"/><text fill="#000000" font-family="sans-serif" font-size="13" lengthAdjust="spacing" textLength="157.2061" x="462.791" y="424.9888">Return inference results</text></g><g class="message" data-participant-1="Agent" data-participant-2="Agent"><line style="stroke:#181818;stroke-width:1;" x1="636.9971" x2="678.9971" y1="459.1875" y2="459.1875"/><line style="stroke:#181818;stroke-width:1;" x1="678.9971" x2="678.9971" y1="459.1875" y2="472.1875"/><line style="stroke:#181818;stroke-width:1;" x1="637.9971" x2="678.9971" y1="472.1875" y2="472.1875"/><polygon fill="#181818" points="647.9971,468.1875,637.9971,472.1875,647.9971,476.1875,643.9971,472.1875" style="stroke:#181818;stroke-width:1;"/><text fill="#000000" font-family="sans-serif" font-size="13" lengthAdjust="spacing" textLength="97.7983" x="643.9971" y="454.1216">Process results</text></g><path d="M20,487.1875 L84.4429,487.1875 L84.4429,494.3203 L74.4429,504.3203 L20,504.3203 L20,487.1875" fill="#EEEEEE" style="stroke:#000000;stroke-width:1.5;"/><rect fill="none" height="90.2031" style="stroke:#000000;stroke-width:1.5;" width="675.2075" x="20" y="487.1875"/><text fill="#000000" font-family="sans-serif" font-size="13" font-weight="bold" lengthAdjust="spacing" textLength="19.4429" x="35" y="500.2544">alt</text><text fill="#000000" font-family="sans-serif" font-size="11" font-weight="bold" lengthAdjust="spacing" textLength="122.3535" x="99.4429" y="499.3979">[Network available]</text><g class="message" data-participant-1="Agent" data-participant-2="Cloud"><polygon fill="#181818" points="104.8066,521.4531,94.8066,525.4531,104.8066,529.4531,100.8066,525.4531" style="stroke:#181818;stroke-width:1;"/><line style="stroke:#181818;stroke-width:1;" x1="98.8066" x2="635.9971" y1="525.4531" y2="525.4531"/><text fill="#000000" font-family="sans-serif" font-size="13" lengthAdjust="spacing" textLength="79.3013" x="110.8066" y="520.3872">Sync results</text></g><line style="stroke:#000000;stroke-width:1;stroke-dasharray:2,2;" x1="20" x2="695.2075" y1="534.4531" y2="534.4531"/><text fill="#000000" font-family="sans-serif" font-size="11" font-weight="bold" lengthAdjust="spacing" textLength="89.9927" x="25" y="544.6636">[Offline mode]</text><g class="message" data-participant-1="Agent" data-participant-2="DB"><polygon fill="#181818" points="466.791,565.3906,456.791,569.3906,466.791,573.3906,462.791,569.3906" style="stroke:#181818;stroke-width:1;"/><line style="stroke:#181818;stroke-width:1;" x1="460.791" x2="635.9971" y1="569.3906" y2="569.3906"/><text fill="#000000" font-family="sans-serif" font-size="13" lengthAdjust="spacing" textLength="124.7886" x="472.791" y="564.3247">Store for later sync</text></g><!--SRC=[RPBTRi8m38NlynJMxda1BYO1tGKIsWzzWj2QOiqaNUA2kgTVwXHAjrLgcjfVx7Ei20aZlDGDGe4NgePFoxu_enCeyQj3Lw4nhGr25RKsHPysxBiQDjv9yCmOdi16qE2SUwYgoF0_9ygF7GakLblD5-jvTkShox1gaXJDw-vN0NJHPm5vQqnMjtZMTilH3k2W9NHEw8n6XTs9hICXo_IDmDISv8h3-WSkraie9JM7ksgehTY3ZHEa4cySgtwhgZNnGEoneIWOu4foWZF6quIeWoMidFDTcZxOYoMs1sAItXZsleKYDORtu2kCaLnZ83rv08ygqDKGStHGgjIzI_RZ0sekY-LUcM9z0_QTW-IJt163teGfVJSYNN0J0G5ZnnBdpKPuL3nZTB4iy8fozU7pPfTpircPSJ9bxwfP3UI8y7OyCZc4iw__EJhPFQPni1rc7rETVDxLPdX_0000]--></g></svg>