<svg xmlns="http://www.w3.org/2000/svg" xmlns:xlink="http://www.w3.org/1999/xlink" contentStyleType="text/css" data-diagram-type="DESCRIPTION" height="879px" preserveAspectRatio="none" style="width:666px;height:879px;background:#FFFFFF;" version="1.1" viewBox="0 0 666 879" width="666px" zoomAndPan="magnify"><title>Edge Device Internal Architecture</title><defs/><g><g class="title" data-source-line="1"><text fill="#000000" font-family="sans-serif" font-size="14" font-weight="bold" lengthAdjust="spacing" textLength="267.3877" x="192.3062" y="22.9951">Edge Device Internal Architecture</text></g><!--cluster Edge Device (Raspberry Pi)--><g class="cluster" data-entity="Edge Device .Raspberry Pi." data-source-line="3" data-uid="ent0002" id="cluster_Edge Device .Raspberry Pi."><path d="M8.5,43.2969 L224.9482,43.2969 A3.75,3.75 0 0 1 227.4482,45.7969 L234.4482,65.5938 L656.5,65.5938 A2.5,2.5 0 0 1 659,68.0938 L659,869.5769 A2.5,2.5 0 0 1 656.5,872.0769 L8.5,872.0769 A2.5,2.5 0 0 1 6,869.5769 L6,45.7969 A2.5,2.5 0 0 1 8.5,43.2969" fill="none" style="stroke:#000000;stroke-width:1.5;"/><line style="stroke:#000000;stroke-width:1.5;" x1="6" x2="234.4482" y1="65.5938" y2="65.5938"/><text fill="#000000" font-family="sans-serif" font-size="14" font-weight="bold" lengthAdjust="spacing" textLength="215.4482" x="10" y="58.292">Edge Device (Raspberry Pi)</text></g><!--cluster Runtime--><g class="cluster" data-entity="Runtime" data-source-line="4" data-uid="ent0003" id="cluster_Runtime"><rect fill="none" height="366.89" rx="2.5" ry="2.5" style="stroke:#181818;stroke-width:1;" width="200" x="30" y="86.2969"/><rect fill="none" height="10" style="stroke:#181818;stroke-width:1;" width="15" x="210" y="91.2969"/><rect fill="none" height="2" style="stroke:#181818;stroke-width:1;" width="4" x="208" y="93.2969"/><rect fill="none" height="2" style="stroke:#181818;stroke-width:1;" width="4" x="208" y="97.2969"/><text fill="#000000" font-family="sans-serif" font-size="14" font-weight="bold" lengthAdjust="spacing" textLength="184.3516" x="37.8242" y="112.292">Edge Runtime Manager</text></g><!--cluster Agents--><g class="cluster" data-entity="Agents" data-source-line="10" data-uid="ent0007" id="cluster_Agents"><rect fill="none" height="366.89" rx="2.5" ry="2.5" style="stroke:#181818;stroke-width:1;" width="207" x="310" y="355.8869"/><rect fill="none" height="10" style="stroke:#181818;stroke-width:1;" width="15" x="497" y="360.8869"/><rect fill="none" height="2" style="stroke:#181818;stroke-width:1;" width="4" x="495" y="362.8869"/><rect fill="none" height="2" style="stroke:#181818;stroke-width:1;" width="4" x="495" y="366.8869"/><text fill="#000000" font-family="sans-serif" font-size="14" font-weight="bold" lengthAdjust="spacing" textLength="95.7783" x="365.6108" y="381.882">Agent Layer</text></g><!--cluster Data--><g class="cluster" data-entity="Data" data-source-line="16" data-uid="ent0011" id="cluster_Data"><rect fill="none" height="345.89" rx="2.5" ry="2.5" style="stroke:#181818;stroke-width:1;" width="163" x="123" y="502.1869"/><rect fill="none" height="10" style="stroke:#181818;stroke-width:1;" width="15" x="266" y="507.1869"/><rect fill="none" height="2" style="stroke:#181818;stroke-width:1;" width="4" x="264" y="509.1869"/><rect fill="none" height="2" style="stroke:#181818;stroke-width:1;" width="4" x="264" y="513.1869"/><text fill="#000000" font-family="sans-serif" font-size="14" font-weight="bold" lengthAdjust="spacing" textLength="85.9756" x="161.5122" y="528.182">Data Layer</text></g><!--cluster Hardware--><g class="cluster" data-entity="Hardware" data-source-line="22" data-uid="ent0015" id="cluster_Hardware"><rect fill="none" height="220.59" rx="2.5" ry="2.5" style="stroke:#181818;stroke-width:1;" width="381" x="254" y="86.2969"/><rect fill="none" height="10" style="stroke:#181818;stroke-width:1;" width="15" x="615" y="91.2969"/><rect fill="none" height="2" style="stroke:#181818;stroke-width:1;" width="4" x="613" y="93.2969"/><rect fill="none" height="2" style="stroke:#181818;stroke-width:1;" width="4" x="613" y="97.2969"/><text fill="#000000" font-family="sans-serif" font-size="14" font-weight="bold" lengthAdjust="spacing" textLength="153.3438" x="367.8281" y="112.292">Hardware Interface</text></g><!--entity Core--><g class="entity" data-entity="Core" data-source-line="5" data-uid="ent0004" id="entity_Core"><rect fill="#F1F1F1" height="46.2969" rx="2.5" ry="2.5" style="stroke:#181818;stroke-width:0.5;" width="159.3008" x="49.35" y="121.2969"/><rect fill="#F1F1F1" height="10" style="stroke:#181818;stroke-width:0.5;" width="15" x="188.6508" y="126.2969"/><rect fill="#F1F1F1" height="2" style="stroke:#181818;stroke-width:0.5;" width="4" x="186.6508" y="128.2969"/><rect fill="#F1F1F1" height="2" style="stroke:#181818;stroke-width:0.5;" width="4" x="186.6508" y="132.2969"/><text fill="#000000" font-family="sans-serif" font-size="14" lengthAdjust="spacing" textLength="119.3008" x="64.35" y="154.292">Lightweight Core</text></g><!--entity Monitor--><g class="entity" data-entity="Monitor" data-source-line="6" data-uid="ent0005" id="entity_Monitor"><rect fill="#F1F1F1" height="46.2969" rx="2.5" ry="2.5" style="stroke:#181818;stroke-width:0.5;" width="162.8076" x="48.6" y="244.5969"/><rect fill="#F1F1F1" height="10" style="stroke:#181818;stroke-width:0.5;" width="15" x="191.4076" y="249.5969"/><rect fill="#F1F1F1" height="2" style="stroke:#181818;stroke-width:0.5;" width="4" x="189.4076" y="251.5969"/><rect fill="#F1F1F1" height="2" style="stroke:#181818;stroke-width:0.5;" width="4" x="189.4076" y="255.5969"/><text fill="#000000" font-family="sans-serif" font-size="14" lengthAdjust="spacing" textLength="122.8076" x="63.6" y="277.592">Resource Monitor</text></g><!--entity Scaler--><g class="entity" data-entity="Scaler" data-source-line="7" data-uid="ent0006" id="entity_Scaler"><rect fill="#F1F1F1" height="46.2969" rx="2.5" ry="2.5" style="stroke:#181818;stroke-width:0.5;" width="119.3857" x="50.31" y="390.8869"/><rect fill="#F1F1F1" height="10" style="stroke:#181818;stroke-width:0.5;" width="15" x="149.6957" y="395.8869"/><rect fill="#F1F1F1" height="2" style="stroke:#181818;stroke-width:0.5;" width="4" x="147.6957" y="397.8869"/><rect fill="#F1F1F1" height="2" style="stroke:#181818;stroke-width:0.5;" width="4" x="147.6957" y="401.8869"/><text fill="#000000" font-family="sans-serif" font-size="14" lengthAdjust="spacing" textLength="79.3857" x="65.31" y="423.882">Auto-scaler</text></g><!--entity LocalAgent--><g class="entity" data-entity="LocalAgent" data-source-line="11" data-uid="ent0008" id="entity_LocalAgent"><rect fill="#F1F1F1" height="46.2969" rx="2.5" ry="2.5" style="stroke:#181818;stroke-width:0.5;" width="122.4209" x="325.79" y="390.8869"/><rect fill="#F1F1F1" height="10" style="stroke:#181818;stroke-width:0.5;" width="15" x="428.2109" y="395.8869"/><rect fill="#F1F1F1" height="2" style="stroke:#181818;stroke-width:0.5;" width="4" x="426.2109" y="397.8869"/><rect fill="#F1F1F1" height="2" style="stroke:#181818;stroke-width:0.5;" width="4" x="426.2109" y="401.8869"/><text fill="#000000" font-family="sans-serif" font-size="14" lengthAdjust="spacing" textLength="82.4209" x="340.79" y="423.882">Local Agent</text></g><!--entity MeshClient--><g class="entity" data-entity="MeshClient" data-source-line="12" data-uid="ent0009" id="entity_MeshClient"><rect fill="#F1F1F1" height="46.2969" rx="2.5" ry="2.5" style="stroke:#181818;stroke-width:0.5;" width="121.8398" x="352.08" y="660.4869"/><rect fill="#F1F1F1" height="10" style="stroke:#181818;stroke-width:0.5;" width="15" x="453.9198" y="665.4869"/><rect fill="#F1F1F1" height="2" style="stroke:#181818;stroke-width:0.5;" width="4" x="451.9198" y="667.4869"/><rect fill="#F1F1F1" height="2" style="stroke:#181818;stroke-width:0.5;" width="4" x="451.9198" y="671.4869"/><text fill="#000000" font-family="sans-serif" font-size="14" lengthAdjust="spacing" textLength="81.8398" x="367.08" y="693.482">Mesh Client</text></g><!--entity Protocol--><g class="entity" data-entity="Protocol" data-source-line="13" data-uid="ent0010" id="entity_Protocol"><rect fill="#F1F1F1" height="46.2969" rx="2.5" ry="2.5" style="stroke:#181818;stroke-width:0.5;" width="156.5459" x="325.73" y="537.1869"/><rect fill="#F1F1F1" height="10" style="stroke:#181818;stroke-width:0.5;" width="15" x="462.2759" y="542.1869"/><rect fill="#F1F1F1" height="2" style="stroke:#181818;stroke-width:0.5;" width="4" x="460.2759" y="544.1869"/><rect fill="#F1F1F1" height="2" style="stroke:#181818;stroke-width:0.5;" width="4" x="460.2759" y="548.1869"/><text fill="#000000" font-family="sans-serif" font-size="14" lengthAdjust="spacing" textLength="116.5459" x="340.73" y="570.182">Protocol Handler</text></g><!--entity DB--><g class="entity" data-entity="DB" data-source-line="17" data-uid="ent0012" id="entity_DB"><rect fill="#F1F1F1" height="46.2969" rx="2.5" ry="2.5" style="stroke:#181818;stroke-width:0.5;" width="104.4561" x="151.77" y="537.1869"/><rect fill="#F1F1F1" height="10" style="stroke:#181818;stroke-width:0.5;" width="15" x="236.2261" y="542.1869"/><rect fill="#F1F1F1" height="2" style="stroke:#181818;stroke-width:0.5;" width="4" x="234.2261" y="544.1869"/><rect fill="#F1F1F1" height="2" style="stroke:#181818;stroke-width:0.5;" width="4" x="234.2261" y="548.1869"/><text fill="#000000" font-family="sans-serif" font-size="14" lengthAdjust="spacing" textLength="64.4561" x="166.77" y="570.182">SQLite-AI</text></g><!--entity Vector--><g class="entity" data-entity="Vector" data-source-line="18" data-uid="ent0013" id="entity_Vector"><rect fill="#F1F1F1" height="46.2969" rx="2.5" ry="2.5" style="stroke:#181818;stroke-width:0.5;" width="127.459" x="139.27" y="660.4869"/><rect fill="#F1F1F1" height="10" style="stroke:#181818;stroke-width:0.5;" width="15" x="246.729" y="665.4869"/><rect fill="#F1F1F1" height="2" style="stroke:#181818;stroke-width:0.5;" width="4" x="244.729" y="667.4869"/><rect fill="#F1F1F1" height="2" style="stroke:#181818;stroke-width:0.5;" width="4" x="244.729" y="671.4869"/><text fill="#000000" font-family="sans-serif" font-size="14" lengthAdjust="spacing" textLength="87.459" x="154.27" y="693.482">Vector Store</text></g><!--entity Cache--><g class="entity" data-entity="Cache" data-source-line="19" data-uid="ent0014" id="entity_Cache"><rect fill="#F1F1F1" height="46.2969" rx="2.5" ry="2.5" style="stroke:#181818;stroke-width:0.5;" width="130.0225" x="138.99" y="785.7769"/><rect fill="#F1F1F1" height="10" style="stroke:#181818;stroke-width:0.5;" width="15" x="249.0125" y="790.7769"/><rect fill="#F1F1F1" height="2" style="stroke:#181818;stroke-width:0.5;" width="4" x="247.0125" y="792.7769"/><rect fill="#F1F1F1" height="2" style="stroke:#181818;stroke-width:0.5;" width="4" x="247.0125" y="796.7769"/><text fill="#000000" font-family="sans-serif" font-size="14" lengthAdjust="spacing" textLength="90.0225" x="153.99" y="818.772">Model Cache</text></g><!--entity GPIO--><g class="entity" data-entity="GPIO" data-source-line="23" data-uid="ent0016" id="entity_GPIO"><rect fill="#F1F1F1" height="46.2969" rx="2.5" ry="2.5" style="stroke:#181818;stroke-width:0.5;" width="148.0625" x="269.97" y="121.2969"/><rect fill="#F1F1F1" height="10" style="stroke:#181818;stroke-width:0.5;" width="15" x="398.0325" y="126.2969"/><rect fill="#F1F1F1" height="2" style="stroke:#181818;stroke-width:0.5;" width="4" x="396.0325" y="128.2969"/><rect fill="#F1F1F1" height="2" style="stroke:#181818;stroke-width:0.5;" width="4" x="396.0325" y="132.2969"/><text fill="#000000" font-family="sans-serif" font-size="14" lengthAdjust="spacing" textLength="108.0625" x="284.97" y="154.292">GPIO Controller</text></g><!--entity Sensors--><g class="entity" data-entity="Sensors" data-source-line="24" data-uid="ent0017" id="entity_Sensors"><rect fill="#F1F1F1" height="46.2969" rx="2.5" ry="2.5" style="stroke:#181818;stroke-width:0.5;" width="155.1172" x="277.44" y="244.5969"/><rect fill="#F1F1F1" height="10" style="stroke:#181818;stroke-width:0.5;" width="15" x="412.5572" y="249.5969"/><rect fill="#F1F1F1" height="2" style="stroke:#181818;stroke-width:0.5;" width="4" x="410.5572" y="251.5969"/><rect fill="#F1F1F1" height="2" style="stroke:#181818;stroke-width:0.5;" width="4" x="410.5572" y="255.5969"/><text fill="#000000" font-family="sans-serif" font-size="14" lengthAdjust="spacing" textLength="115.1172" x="292.44" y="277.592">Sensor Interface</text></g><!--entity Network--><g class="entity" data-entity="Network" data-source-line="25" data-uid="ent0018" id="entity_Network"><rect fill="#F1F1F1" height="46.2969" rx="2.5" ry="2.5" style="stroke:#181818;stroke-width:0.5;" width="165.583" x="453.21" y="121.2969"/><rect fill="#F1F1F1" height="10" style="stroke:#181818;stroke-width:0.5;" width="15" x="598.793" y="126.2969"/><rect fill="#F1F1F1" height="2" style="stroke:#181818;stroke-width:0.5;" width="4" x="596.793" y="128.2969"/><rect fill="#F1F1F1" height="2" style="stroke:#181818;stroke-width:0.5;" width="4" x="596.793" y="132.2969"/><text fill="#000000" font-family="sans-serif" font-size="14" lengthAdjust="spacing" textLength="125.583" x="468.21" y="154.292">Network Interface</text></g><!--link Core to Monitor--><g class="link" data-entity-1="Core" data-entity-2="Monitor" data-source-line="29" data-uid="lnk19" id="link_Core_Monitor"><path d="M129.19,167.9769 C129.37,189.7569 129.5903,216.5871 129.7703,238.3271" fill="none" id="Core-to-Monitor" style="stroke:#181818;stroke-width:1;"/><polygon fill="#181818" points="129.82,244.3269,133.7453,235.2941,129.7786,239.327,125.7456,235.3603,129.82,244.3269" style="stroke:#181818;stroke-width:1;"/><text fill="#000000" font-family="sans-serif" font-size="13" lengthAdjust="spacing" textLength="95.4561" x="130.56" y="210.6638">Health metrics</text></g><!--link Monitor to Scaler--><g class="link" data-entity-1="Monitor" data-entity-2="Scaler" data-source-line="30" data-uid="lnk20" id="link_Monitor_Scaler"><path d="M126.88,291.2869 C123.12,318.3969 117.6745,357.6738 113.9245,384.7038" fill="none" id="Monitor-to-Scaler" style="stroke:#181818;stroke-width:1;"/><polygon fill="#181818" points="113.1,390.6469,118.2988,382.2819,113.7871,385.6943,110.3747,381.1826,113.1,390.6469" style="stroke:#181818;stroke-width:1;"/><text fill="#000000" font-family="sans-serif" font-size="13" lengthAdjust="spacing" textLength="99.4678" x="123.38" y="335.9538">Scale decisions</text></g><!--link LocalAgent to Protocol--><g class="link" data-entity-1="LocalAgent" data-entity-2="Protocol" data-source-line="31" data-uid="lnk21" id="link_LocalAgent_Protocol"><path d="M389.66,437.5869 C392.85,464.6969 397.4792,503.9479 400.6592,530.9879" fill="none" id="LocalAgent-to-Protocol" style="stroke:#181818;stroke-width:1;"/><polygon fill="#181818" points="401.36,536.9469,404.2814,527.5413,400.776,531.9811,396.3362,528.4757,401.36,536.9469" style="stroke:#181818;stroke-width:1;"/><text fill="#000000" font-family="sans-serif" font-size="13" lengthAdjust="spacing" textLength="117.5205" x="395.99" y="482.2538">Message handling</text></g><!--link Protocol to MeshClient--><g class="link" data-entity-1="Protocol" data-entity-2="MeshClient" data-source-line="32" data-uid="lnk22" id="link_Protocol_MeshClient"><path d="M390.54,583.9569 C384.19,597.4069 378.82,614.8469 383,630.4869 C385.78,640.8769 388.0193,646.2469 393.4793,655.0569" fill="none" id="Protocol-to-MeshClient" style="stroke:#181818;stroke-width:1;"/><polygon fill="#181818" points="396.64,660.1569,395.2989,650.3998,394.0061,655.9069,388.4989,654.614,396.64,660.1569" style="stroke:#181818;stroke-width:1;"/><text fill="#000000" font-family="sans-serif" font-size="13" lengthAdjust="spacing" textLength="138.8931" x="384" y="626.5538">Mesh communication</text></g><!--link LocalAgent to DB--><g class="link" data-entity-1="LocalAgent" data-entity-2="DB" data-source-line="33" data-uid="lnk23" id="link_LocalAgent_DB"><path d="M331.1,437.6569 C313.51,446.1469 294.61,456.7969 279,469.1869 C254.6,488.5469 236.0156,512.0479 222.2356,531.7779" fill="none" id="LocalAgent-to-DB" style="stroke:#181818;stroke-width:1;"/><polygon fill="#181818" points="218.8,536.6969,227.2327,531.6087,221.663,532.5977,220.674,527.028,218.8,536.6969" style="stroke:#181818;stroke-width:1;"/><text fill="#000000" font-family="sans-serif" font-size="13" lengthAdjust="spacing" textLength="104.3618" x="280" y="482.2538">Data operations</text></g><!--link DB to Vector--><g class="link" data-entity-1="DB" data-entity-2="Vector" data-source-line="34" data-uid="lnk24" id="link_DB_Vector"><path d="M203.81,583.8669 C203.63,605.6569 203.4097,632.4771 203.2297,654.2171" fill="none" id="DB-to-Vector" style="stroke:#181818;stroke-width:1;"/><polygon fill="#181818" points="203.18,660.2169,207.2544,651.2503,203.2214,655.217,199.2547,651.1841,203.18,660.2169" style="stroke:#181818;stroke-width:1;"/><text fill="#000000" font-family="sans-serif" font-size="13" lengthAdjust="spacing" textLength="94.7832" x="204.56" y="626.5538">Vector queries</text></g><!--link Vector to Cache--><g class="link" data-entity-1="Vector" data-entity-2="Cache" data-source-line="35" data-uid="lnk25" id="link_Vector_Cache"><path d="M203.18,707.2469 C203.36,729.4969 203.5914,757.2571 203.7714,779.4571" fill="none" id="Vector-to-Cache" style="stroke:#181818;stroke-width:1;"/><polygon fill="#181818" points="203.82,785.4569,207.7469,776.4247,203.7795,780.457,199.7472,776.4896,203.82,785.4569" style="stroke:#181818;stroke-width:1;"/><text fill="#000000" font-family="sans-serif" font-size="13" lengthAdjust="spacing" textLength="86.9692" x="204.56" y="751.8438">Model access</text></g><!--link GPIO to Sensors--><g class="link" data-entity-1="GPIO" data-entity-2="Sensors" data-source-line="36" data-uid="lnk26" id="link_GPIO_Sensors"><path d="M346.04,167.9769 C348.02,189.7569 350.4585,216.6114 352.4285,238.3514" fill="none" id="GPIO-to-Sensors" style="stroke:#181818;stroke-width:1;"/><polygon fill="#181818" points="352.97,244.3269,356.1415,235.0026,352.5188,239.3473,348.1741,235.7246,352.97,244.3269" style="stroke:#181818;stroke-width:1;"/><text fill="#000000" font-family="sans-serif" font-size="13" lengthAdjust="spacing" textLength="77.9746" x="351.16" y="210.6638">Sensor data</text></g><!--link Sensors to LocalAgent--><g class="link" data-entity-1="Sensors" data-entity-2="LocalAgent" data-source-line="37" data-uid="lnk27" id="link_Sensors_LocalAgent"><path d="M360,291.2869 C366.01,318.3969 374.7398,357.7594 380.7398,384.7894" fill="none" id="Sensors-to-LocalAgent" style="stroke:#181818;stroke-width:1;"/><polygon fill="#181818" points="382.04,390.6469,383.9946,380.9939,380.9565,385.7657,376.1847,382.7275,382.04,390.6469" style="stroke:#181818;stroke-width:1;"/><text fill="#000000" font-family="sans-serif" font-size="13" lengthAdjust="spacing" textLength="68.6118" x="371.04" y="335.9538">Data input</text></g><!--link Network to MeshClient--><g class="link" data-entity-1="Network" data-entity-2="MeshClient" data-source-line="38" data-uid="lnk28" id="link_Network_MeshClient"><path d="M534.82,167.7969 C533.64,192.1269 532,232.1869 532,266.7369 C532,266.7369 532,266.7369 532,561.3369 C532,592.1469 544.58,605.1769 527,630.4869 C514.52,648.4469 499.8577,658.161 479.8677,665.981" fill="none" id="Network-to-MeshClient" style="stroke:#181818;stroke-width:1;"/><polygon fill="#181818" points="474.28,668.1669,484.1187,668.6132,478.9364,666.3453,481.2042,661.163,474.28,668.1669" style="stroke:#181818;stroke-width:1;"/><text fill="#000000" font-family="sans-serif" font-size="13" lengthAdjust="spacing" textLength="76.8574" x="533" y="418.6038">Network I/O</text></g><!--SRC=[VPDDRzim38Rl-XL4JjiXw3s70MaoD06IDKk0tZMPYuKwaYVH2ugX_xsYFjmqrUA3JL8FfPSYJPewXE_D4M69VxL2M1j2PsG7SwTQJQXeS2X4BzMp3DJaalsobxx_XSwzm4v_dS0_0U5HzjHRWuOol1yCwHF2LfgmWvk0z6CiPLnbRVInfJFo6nRMOSnWemRlqTl11J5RQpJPj7ssQ_ny83lrIdPPoI6QaNoDx-iQvaV-REHBJeY-_uzog_Zcc8XizADRexVeMrXqkj3i9xT6xvmbgsm7AscQehu4R-XVIf8NygDR5N_ukGdzdixNYRklCKzX7go30vMsf42rEjjW1mkfsjn0jcxeN4dNdANB4_XRgfGsXgkQ7tRhnp0QXfpjofrmh5eV6X-qVzm-1NsD_u5qjkxvAY57So6lGl1WmdJwhGmTp625igCMJaXEAo_A0aDft08J3MXGQQ-jyU9zL28tTdl6O-7vrskvxzeSnRWMJns79g4jbt0QZ5QImiRN-oxl0nPdmFRe8k952F9QRkwi67y6T1gzo2uZiObyK6okL2fe4x49iRXqcLnTkkic72HAb8aBDLc6Dlr0ejprfuh69jmzYZS0]--></g></svg>