<svg xmlns="http://www.w3.org/2000/svg" xmlns:xlink="http://www.w3.org/1999/xlink" contentStyleType="text/css" data-diagram-type="SEQUENCE" height="676px" preserveAspectRatio="none" style="width:783px;height:676px;background:#FFFFFF;" version="1.1" viewBox="0 0 783 676" width="783px" zoomAndPan="magnify"><title>ML Model Lifecycle Management</title><defs/><g><text fill="#000000" font-family="sans-serif" font-size="14" font-weight="bold" lengthAdjust="spacing" textLength="257.7148" x="261.7705" y="27.9951">ML Model Lifecycle Management</text><g><title>Data Scientist</title><rect fill="#000000" fill-opacity="0.00000" height="567.3906" width="8" x="57" y="73.5938"/><line style="stroke:#181818;stroke-width:0.5;stroke-dasharray:5,5;" x1="61" x2="61" y1="73.5938" y2="640.9844"/></g><g><title>Model Registry</title><rect fill="#000000" fill-opacity="0.00000" height="567.3906" width="8" x="182.2705" y="73.5938"/><line style="stroke:#181818;stroke-width:0.5;stroke-dasharray:5,5;" x1="186.0576" x2="186.0576" y1="73.5938" y2="640.9844"/></g><g><title>Training Pipeline</title><rect fill="#000000" fill-opacity="0.00000" height="567.3906" width="8" x="316.9067" y="73.5938"/><line style="stroke:#181818;stroke-width:0.5;stroke-dasharray:5,5;" x1="320.4834" x2="320.4834" y1="73.5938" y2="640.9844"/></g><g><title>Model Server</title><rect fill="#000000" fill-opacity="0.00000" height="567.3906" width="8" x="445.5273" y="73.5938"/><line style="stroke:#181818;stroke-width:0.5;stroke-dasharray:5,5;" x1="449.3301" x2="449.3301" y1="73.5938" y2="640.9844"/></g><g><title>Edge Device</title><rect fill="#000000" fill-opacity="0.00000" height="567.3906" width="8" x="578.1738" y="73.5938"/><line style="stroke:#181818;stroke-width:0.5;stroke-dasharray:5,5;" x1="581.3931" x2="581.3931" y1="73.5938" y2="640.9844"/></g><g><title>Monitoring</title><rect fill="#000000" fill-opacity="0.00000" height="567.3906" width="8" x="728.8223" y="73.5938"/><line style="stroke:#181818;stroke-width:0.5;stroke-dasharray:5,5;" x1="732.3887" x2="732.3887" y1="73.5938" y2="640.9844"/></g><g class="participant participant-head" data-participant="DS"><rect fill="#E2E2F0" height="30.2969" rx="2.5" ry="2.5" style="stroke:#181818;stroke-width:0.5;" width="112" x="5" y="42.2969"/><text fill="#000000" font-family="sans-serif" font-size="14" lengthAdjust="spacing" textLength="98" x="12" y="62.292">Data Scientist</text></g><g class="participant participant-tail" data-participant="DS"><rect fill="#E2E2F0" height="30.2969" rx="2.5" ry="2.5" style="stroke:#181818;stroke-width:0.5;" width="112" x="5" y="639.9844"/><text fill="#000000" font-family="sans-serif" font-size="14" lengthAdjust="spacing" textLength="98" x="12" y="659.9795">Data Scientist</text></g><g class="participant participant-head" data-participant="Registry"><rect fill="#E2E2F0" height="30.2969" rx="2.5" ry="2.5" style="stroke:#181818;stroke-width:0.5;" width="118.4258" x="127.0576" y="42.2969"/><text fill="#000000" font-family="sans-serif" font-size="14" lengthAdjust="spacing" textLength="104.4258" x="134.0576" y="62.292">Model Registry</text></g><g class="participant participant-tail" data-participant="Registry"><rect fill="#E2E2F0" height="30.2969" rx="2.5" ry="2.5" style="stroke:#181818;stroke-width:0.5;" width="118.4258" x="127.0576" y="639.9844"/><text fill="#000000" font-family="sans-serif" font-size="14" lengthAdjust="spacing" textLength="104.4258" x="134.0576" y="659.9795">Model Registry</text></g><g class="participant participant-head" data-participant="Training"><rect fill="#E2E2F0" height="30.2969" rx="2.5" ry="2.5" style="stroke:#181818;stroke-width:0.5;" width="130.8467" x="255.4834" y="42.2969"/><text fill="#000000" font-family="sans-serif" font-size="14" lengthAdjust="spacing" textLength="116.8467" x="262.4834" y="62.292">Training Pipeline</text></g><g class="participant participant-tail" data-participant="Training"><rect fill="#E2E2F0" height="30.2969" rx="2.5" ry="2.5" style="stroke:#181818;stroke-width:0.5;" width="130.8467" x="255.4834" y="639.9844"/><text fill="#000000" font-family="sans-serif" font-size="14" lengthAdjust="spacing" textLength="116.8467" x="262.4834" y="659.9795">Training Pipeline</text></g><g class="participant participant-head" data-participant="Server"><rect fill="#E2E2F0" height="30.2969" rx="2.5" ry="2.5" style="stroke:#181818;stroke-width:0.5;" width="106.3945" x="396.3301" y="42.2969"/><text fill="#000000" font-family="sans-serif" font-size="14" lengthAdjust="spacing" textLength="92.3945" x="403.3301" y="62.292">Model Server</text></g><g class="participant participant-tail" data-participant="Server"><rect fill="#E2E2F0" height="30.2969" rx="2.5" ry="2.5" style="stroke:#181818;stroke-width:0.5;" width="106.3945" x="396.3301" y="639.9844"/><text fill="#000000" font-family="sans-serif" font-size="14" lengthAdjust="spacing" textLength="92.3945" x="403.3301" y="659.9795">Model Server</text></g><g class="participant participant-head" data-participant="Edge"><rect fill="#E2E2F0" height="30.2969" rx="2.5" ry="2.5" style="stroke:#181818;stroke-width:0.5;" width="101.5615" x="531.3931" y="42.2969"/><text fill="#000000" font-family="sans-serif" font-size="14" lengthAdjust="spacing" textLength="87.5615" x="538.3931" y="62.292">Edge Device</text></g><g class="participant participant-tail" data-participant="Edge"><rect fill="#E2E2F0" height="30.2969" rx="2.5" ry="2.5" style="stroke:#181818;stroke-width:0.5;" width="101.5615" x="531.3931" y="639.9844"/><text fill="#000000" font-family="sans-serif" font-size="14" lengthAdjust="spacing" textLength="87.5615" x="538.3931" y="659.9795">Edge Device</text></g><g class="participant participant-head" data-participant="Monitor"><rect fill="#E2E2F0" height="30.2969" rx="2.5" ry="2.5" style="stroke:#181818;stroke-width:0.5;" width="88.8672" x="688.3887" y="42.2969"/><text fill="#000000" font-family="sans-serif" font-size="14" lengthAdjust="spacing" textLength="74.8672" x="695.3887" y="62.292">Monitoring</text></g><g class="participant participant-tail" data-participant="Monitor"><rect fill="#E2E2F0" height="30.2969" rx="2.5" ry="2.5" style="stroke:#181818;stroke-width:0.5;" width="88.8672" x="688.3887" y="639.9844"/><text fill="#000000" font-family="sans-serif" font-size="14" lengthAdjust="spacing" textLength="74.8672" x="695.3887" y="659.9795">Monitoring</text></g><g class="message" data-participant-1="DS" data-participant-2="Training"><polygon fill="#181818" points="308.9067,100.7266,318.9067,104.7266,308.9067,108.7266,312.9067,104.7266" style="stroke:#181818;stroke-width:1;"/><line style="stroke:#181818;stroke-width:1;" x1="61" x2="314.9067" y1="104.7266" y2="104.7266"/><text fill="#000000" font-family="sans-serif" font-size="13" lengthAdjust="spacing" textLength="124.5601" x="68" y="99.6606">Submit training job</text></g><g class="message" data-participant-1="Training" data-participant-2="Training"><line style="stroke:#181818;stroke-width:1;" x1="320.9067" x2="362.9067" y1="133.8594" y2="133.8594"/><line style="stroke:#181818;stroke-width:1;" x1="362.9067" x2="362.9067" y1="133.8594" y2="146.8594"/><line style="stroke:#181818;stroke-width:1;" x1="321.9067" x2="362.9067" y1="146.8594" y2="146.8594"/><polygon fill="#181818" points="331.9067,142.8594,321.9067,146.8594,331.9067,150.8594,327.9067,146.8594" style="stroke:#181818;stroke-width:1;"/><text fill="#000000" font-family="sans-serif" font-size="13" lengthAdjust="spacing" textLength="77.7144" x="327.9067" y="128.7935">Train model</text></g><g class="message" data-participant-1="Training" data-participant-2="Registry"><polygon fill="#181818" points="197.2705,171.9922,187.2705,175.9922,197.2705,179.9922,193.2705,175.9922" style="stroke:#181818;stroke-width:1;"/><line style="stroke:#181818;stroke-width:1;" x1="191.2705" x2="319.9067" y1="175.9922" y2="175.9922"/><text fill="#000000" font-family="sans-serif" font-size="13" lengthAdjust="spacing" textLength="98.7188" x="203.2705" y="170.9263">Register model</text></g><g class="message" data-participant-1="Registry" data-participant-2="Registry"><line style="stroke:#181818;stroke-width:1;" x1="186.2705" x2="228.2705" y1="205.125" y2="205.125"/><line style="stroke:#181818;stroke-width:1;" x1="228.2705" x2="228.2705" y1="205.125" y2="218.125"/><line style="stroke:#181818;stroke-width:1;" x1="187.2705" x2="228.2705" y1="218.125" y2="218.125"/><polygon fill="#181818" points="197.2705,214.125,187.2705,218.125,197.2705,222.125,193.2705,218.125" style="stroke:#181818;stroke-width:1;"/><text fill="#000000" font-family="sans-serif" font-size="13" lengthAdjust="spacing" textLength="93.4248" x="193.2705" y="200.0591">Version model</text></g><g class="message" data-participant-1="DS" data-participant-2="Registry"><polygon fill="#181818" points="174.2705,243.2578,184.2705,247.2578,174.2705,251.2578,178.2705,247.2578" style="stroke:#181818;stroke-width:1;"/><line style="stroke:#181818;stroke-width:1;" x1="61" x2="180.2705" y1="247.2578" y2="247.2578"/><text fill="#000000" font-family="sans-serif" font-size="13" lengthAdjust="spacing" textLength="98.998" x="68" y="242.1919">Approve model</text></g><g class="message" data-participant-1="Registry" data-participant-2="Server"><polygon fill="#181818" points="437.5273,272.3906,447.5273,276.3906,437.5273,280.3906,441.5273,276.3906" style="stroke:#181818;stroke-width:1;"/><line style="stroke:#181818;stroke-width:1;" x1="186.2705" x2="443.5273" y1="276.3906" y2="276.3906"/><text fill="#000000" font-family="sans-serif" font-size="13" lengthAdjust="spacing" textLength="115.0259" x="193.2705" y="271.3247">Deploy to staging</text></g><g class="message" data-participant-1="Server" data-participant-2="Monitor"><polygon fill="#181818" points="720.8223,301.5234,730.8223,305.5234,720.8223,309.5234,724.8223,305.5234" style="stroke:#181818;stroke-width:1;"/><line style="stroke:#181818;stroke-width:1;" x1="449.5273" x2="726.8223" y1="305.5234" y2="305.5234"/><text fill="#000000" font-family="sans-serif" font-size="13" lengthAdjust="spacing" textLength="91.6538" x="456.5273" y="300.4575">Health checks</text></g><g class="message" data-participant-1="Monitor" data-participant-2="Registry"><polygon fill="#181818" points="197.2705,330.6563,187.2705,334.6563,197.2705,338.6563,193.2705,334.6563" style="stroke:#181818;stroke-width:1;"/><line style="stroke:#181818;stroke-width:1;" x1="191.2705" x2="731.8223" y1="334.6563" y2="334.6563"/><text fill="#000000" font-family="sans-serif" font-size="13" lengthAdjust="spacing" textLength="113.1724" x="203.2705" y="329.5903">Validation results</text></g><g class="message" data-participant-1="Registry" data-participant-2="Server"><polygon fill="#181818" points="437.5273,359.7891,447.5273,363.7891,437.5273,367.7891,441.5273,363.7891" style="stroke:#181818;stroke-width:1;"/><line style="stroke:#181818;stroke-width:1;" x1="186.2705" x2="443.5273" y1="363.7891" y2="363.7891"/><text fill="#000000" font-family="sans-serif" font-size="13" lengthAdjust="spacing" textLength="136.9253" x="193.2705" y="358.7231">Deploy to production</text></g><g class="message" data-participant-1="Server" data-participant-2="Edge"><polygon fill="#181818" points="570.1738,388.9219,580.1738,392.9219,570.1738,396.9219,574.1738,392.9219" style="stroke:#181818;stroke-width:1;"/><line style="stroke:#181818;stroke-width:1;" x1="449.5273" x2="576.1738" y1="392.9219" y2="392.9219"/><text fill="#000000" font-family="sans-serif" font-size="13" lengthAdjust="spacing" textLength="108.6465" x="456.5273" y="387.856">Distribute model</text></g><g class="message" data-participant-1="Edge" data-participant-2="Edge"><line style="stroke:#181818;stroke-width:1;" x1="582.1738" x2="624.1738" y1="422.0547" y2="422.0547"/><line style="stroke:#181818;stroke-width:1;" x1="624.1738" x2="624.1738" y1="422.0547" y2="435.0547"/><line style="stroke:#181818;stroke-width:1;" x1="583.1738" x2="624.1738" y1="435.0547" y2="435.0547"/><polygon fill="#181818" points="593.1738,431.0547,583.1738,435.0547,593.1738,439.0547,589.1738,435.0547" style="stroke:#181818;stroke-width:1;"/><text fill="#000000" font-family="sans-serif" font-size="13" lengthAdjust="spacing" textLength="121.7544" x="589.1738" y="416.9888">Load model locally</text></g><g class="message" data-participant-1="Edge" data-participant-2="Monitor"><polygon fill="#181818" points="720.8223,460.1875,730.8223,464.1875,720.8223,468.1875,724.8223,464.1875" style="stroke:#181818;stroke-width:1;"/><line style="stroke:#181818;stroke-width:1;" x1="582.1738" x2="726.8223" y1="464.1875" y2="464.1875"/><text fill="#000000" font-family="sans-serif" font-size="13" lengthAdjust="spacing" textLength="126.6484" x="589.1738" y="459.1216">Model performance</text></g><g class="message" data-participant-1="Monitor" data-participant-2="Registry"><polygon fill="#181818" points="197.2705,489.3203,187.2705,493.3203,197.2705,497.3203,193.2705,493.3203" style="stroke:#181818;stroke-width:1;"/><line style="stroke:#181818;stroke-width:1;" x1="191.2705" x2="731.8223" y1="493.3203" y2="493.3203"/><text fill="#000000" font-family="sans-serif" font-size="13" lengthAdjust="spacing" textLength="135.8398" x="203.2705" y="488.2544">Performance metrics</text></g><g class="message" data-participant-1="Registry" data-participant-2="DS"><polygon fill="#181818" points="72,518.4531,62,522.4531,72,526.4531,68,522.4531" style="stroke:#181818;stroke-width:1;"/><line style="stroke:#181818;stroke-width:1;" x1="66" x2="185.2705" y1="522.4531" y2="522.4531"/><text fill="#000000" font-family="sans-serif" font-size="13" lengthAdjust="spacing" textLength="101.2705" x="78" y="517.3872">Model analytics</text></g><path d="M191,535.4531 L191,575.4531 L343,575.4531 L343,545.4531 L333,535.4531 L191,535.4531" fill="#FEFFDD" style="stroke:#181818;stroke-width:0.5;"/><path d="M333,535.4531 L333,545.4531 L343,545.4531 L333,535.4531" fill="#FEFFDD" style="stroke:#181818;stroke-width:0.5;"/><text fill="#000000" font-family="sans-serif" font-size="13" lengthAdjust="spacing" textLength="115.0132" x="197" y="552.52">Model versioning,</text><text fill="#000000" font-family="sans-serif" font-size="13" lengthAdjust="spacing" textLength="131.0728" x="197" y="567.6528">A/B testing, rollback</text><path d="M587,585.7188 L587,625.7188 L715,625.7188 L715,595.7188 L705,585.7188 L587,585.7188" fill="#FEFFDD" style="stroke:#181818;stroke-width:0.5;"/><path d="M705,585.7188 L705,595.7188 L715,595.7188 L705,585.7188" fill="#FEFFDD" style="stroke:#181818;stroke-width:0.5;"/><text fill="#000000" font-family="sans-serif" font-size="13" lengthAdjust="spacing" textLength="103.3398" x="593" y="602.7856">Local inference,</text><text fill="#000000" font-family="sans-serif" font-size="13" lengthAdjust="spacing" textLength="107.9102" x="593" y="617.9185">offline capability</text><!--SRC=[XPB1QiCm38RlUGhHyyRkFGmwCjYXWxACdNPH72NLwjZ1KG9v-zbnd2wbi9jbVVxrIxAmQ8Bt8xpRYZGSkIOrgN251XjgoKYMTUY45NTe17Ov2aAXs6UubnrW3tcnHQBM1pKUSDECf60BVZfamwQ14tUasT3CfjjxeWMvaToCnUCMUgqQWfn6Lb4gnBSoXiKwBpy3IvXbUG6FpslfFHH3sRA098S_jinMknjoFa4Rx6s8rF9-EP5Re9JOGb_aUhP9ADgvPWzTv-n8TnJY6FQ-wqxR2SH2BzY4ySLCO9Okz_16gEKCwapgqcVBzOqFr5oX12kE-a5B_qyvRwmQL7Zmfs8Ol8V2Cou7ISRd_QpfeyKg9a1RXLfFAx0wZclloDNMjMWKtNTzkWBGaY-gjhRp8advVwqd2VdCM6_CSNCMiFKg1eaSuqRyA1- -pU7f1OHw2H4ugtM9wdAZC9iFRVbUW4rDZhmV_zZMTVZTeB33aZNBbFq2]--></g></svg>