<svg xmlns="http://www.w3.org/2000/svg" xmlns:xlink="http://www.w3.org/1999/xlink" contentStyleType="text/css" data-diagram-type="DESCRIPTION" height="229px" preserveAspectRatio="none" style="width:2595px;height:229px;background:#FFFFFF;" version="1.1" viewBox="0 0 2595 229" width="2595px" zoomAndPan="magnify"><title>Protocol Router Component Architecture</title><defs/><g><g class="title" data-source-line="1"><text fill="#000000" font-family="sans-serif" font-size="14" font-weight="bold" lengthAdjust="spacing" textLength="322.4785" x="1129.2607" y="22.9951">Protocol Router Component Architecture</text></g><!--cluster Protocol Router--><g class="cluster" data-entity="Protocol Router" data-source-line="3" data-uid="ent0002" id="cluster_Protocol Router"><path d="M8.5,106.6169 L133.6406,106.6169 A3.75,3.75 0 0 1 136.1406,109.1169 L143.1406,128.9138 L1967.5,128.9138 A2.5,2.5 0 0 1 1970,131.4138 L1970,220.4169 A2.5,2.5 0 0 1 1967.5,222.9169 L8.5,222.9169 A2.5,2.5 0 0 1 6,220.4169 L6,109.1169 A2.5,2.5 0 0 1 8.5,106.6169" fill="none" style="stroke:#000000;stroke-width:1.5;"/><line style="stroke:#000000;stroke-width:1.5;" x1="6" x2="143.1406" y1="128.9138" y2="128.9138"/><text fill="#000000" font-family="sans-serif" font-size="14" font-weight="bold" lengthAdjust="spacing" textLength="124.1406" x="10" y="121.612">Protocol Router</text></g><!--cluster External Systems--><g class="cluster" data-entity="External Systems" data-source-line="13" data-uid="ent0010" id="cluster_External Systems"><path d="M2120.5,106.6169 L2258.9229,106.6169 A3.75,3.75 0 0 1 2261.4229,109.1169 L2268.4229,128.9138 L2585.5,128.9138 A2.5,2.5 0 0 1 2588,131.4138 L2588,220.4169 A2.5,2.5 0 0 1 2585.5,222.9169 L2120.5,222.9169 A2.5,2.5 0 0 1 2118,220.4169 L2118,109.1169 A2.5,2.5 0 0 1 2120.5,106.6169" fill="none" style="stroke:#000000;stroke-width:1.5;"/><line style="stroke:#000000;stroke-width:1.5;" x1="2118" x2="2268.4229" y1="128.9138" y2="128.9138"/><text fill="#000000" font-family="sans-serif" font-size="14" font-weight="bold" lengthAdjust="spacing" textLength="137.4229" x="2122" y="121.612">External Systems</text></g><!--entity Dispatcher--><g class="entity" data-entity="Dispatcher" data-source-line="4" data-uid="ent0003" id="entity_Dispatcher"><rect fill="#F1F1F1" height="46.2969" rx="2.5" ry="2.5" style="stroke:#181818;stroke-width:0.5;" width="181.668" x="22.17" y="160.6169"/><rect fill="#F1F1F1" height="10" style="stroke:#181818;stroke-width:0.5;" width="15" x="183.838" y="165.6169"/><rect fill="#F1F1F1" height="2" style="stroke:#181818;stroke-width:0.5;" width="4" x="181.838" y="167.6169"/><rect fill="#F1F1F1" height="2" style="stroke:#181818;stroke-width:0.5;" width="4" x="181.838" y="171.6169"/><text fill="#000000" font-family="sans-serif" font-size="14" lengthAdjust="spacing" textLength="141.668" x="37.17" y="193.612">Message Dispatcher</text></g><!--entity A2AHandler--><g class="entity" data-entity="A2AHandler" data-source-line="5" data-uid="ent0004" id="entity_A2AHandler"><rect fill="#F1F1F1" height="46.2969" rx="2.5" ry="2.5" style="stroke:#181818;stroke-width:0.5;" width="127.6367" x="1826.18" y="160.6169"/><rect fill="#F1F1F1" height="10" style="stroke:#181818;stroke-width:0.5;" width="15" x="1933.8167" y="165.6169"/><rect fill="#F1F1F1" height="2" style="stroke:#181818;stroke-width:0.5;" width="4" x="1931.8167" y="167.6169"/><rect fill="#F1F1F1" height="2" style="stroke:#181818;stroke-width:0.5;" width="4" x="1931.8167" y="171.6169"/><text fill="#000000" font-family="sans-serif" font-size="14" lengthAdjust="spacing" textLength="87.6367" x="1841.18" y="193.612">A2A Handler</text></g><!--entity MCPHandler--><g class="entity" data-entity="MCPHandler" data-source-line="6" data-uid="ent0005" id="entity_MCPHandler"><rect fill="#F1F1F1" height="46.2969" rx="2.5" ry="2.5" style="stroke:#181818;stroke-width:0.5;" width="129.8721" x="1408.06" y="160.6169"/><rect fill="#F1F1F1" height="10" style="stroke:#181818;stroke-width:0.5;" width="15" x="1517.9321" y="165.6169"/><rect fill="#F1F1F1" height="2" style="stroke:#181818;stroke-width:0.5;" width="4" x="1515.9321" y="167.6169"/><rect fill="#F1F1F1" height="2" style="stroke:#181818;stroke-width:0.5;" width="4" x="1515.9321" y="171.6169"/><text fill="#000000" font-family="sans-serif" font-size="14" lengthAdjust="spacing" textLength="89.8721" x="1423.06" y="193.612">MCP Handler</text></g><!--entity KafkaHandler--><g class="entity" data-entity="KafkaHandler" data-source-line="7" data-uid="ent0006" id="entity_KafkaHandler"><rect fill="#F1F1F1" height="46.2969" rx="2.5" ry="2.5" style="stroke:#181818;stroke-width:0.5;" width="138.9502" x="1234.52" y="160.6169"/><rect fill="#F1F1F1" height="10" style="stroke:#181818;stroke-width:0.5;" width="15" x="1353.4702" y="165.6169"/><rect fill="#F1F1F1" height="2" style="stroke:#181818;stroke-width:0.5;" width="4" x="1351.4702" y="167.6169"/><rect fill="#F1F1F1" height="2" style="stroke:#181818;stroke-width:0.5;" width="4" x="1351.4702" y="171.6169"/><text fill="#000000" font-family="sans-serif" font-size="14" lengthAdjust="spacing" textLength="98.9502" x="1249.52" y="193.612">Kafka Handler</text></g><!--entity Selector--><g class="entity" data-entity="Selector" data-source-line="8" data-uid="ent0007" id="entity_Selector"><rect fill="#F1F1F1" height="46.2969" rx="2.5" ry="2.5" style="stroke:#181818;stroke-width:0.5;" width="158.9316" x="337.53" y="160.6169"/><rect fill="#F1F1F1" height="10" style="stroke:#181818;stroke-width:0.5;" width="15" x="476.4616" y="165.6169"/><rect fill="#F1F1F1" height="2" style="stroke:#181818;stroke-width:0.5;" width="4" x="474.4616" y="167.6169"/><rect fill="#F1F1F1" height="2" style="stroke:#181818;stroke-width:0.5;" width="4" x="474.4616" y="171.6169"/><text fill="#000000" font-family="sans-serif" font-size="14" lengthAdjust="spacing" textLength="118.9316" x="352.53" y="193.612">Protocol Selector</text></g><!--entity Translator--><g class="entity" data-entity="Translator" data-source-line="9" data-uid="ent0008" id="entity_Translator"><rect fill="#F1F1F1" height="46.2969" rx="2.5" ry="2.5" style="stroke:#181818;stroke-width:0.5;" width="177.1426" x="656.43" y="160.6169"/><rect fill="#F1F1F1" height="10" style="stroke:#181818;stroke-width:0.5;" width="15" x="813.5726" y="165.6169"/><rect fill="#F1F1F1" height="2" style="stroke:#181818;stroke-width:0.5;" width="4" x="811.5726" y="167.6169"/><rect fill="#F1F1F1" height="2" style="stroke:#181818;stroke-width:0.5;" width="4" x="811.5726" y="171.6169"/><text fill="#000000" font-family="sans-serif" font-size="14" lengthAdjust="spacing" textLength="137.1426" x="671.43" y="193.612">Message Translator</text></g><!--entity LoadBalancer--><g class="entity" data-entity="LoadBalancer" data-source-line="10" data-uid="ent0009" id="entity_LoadBalancer"><rect fill="#F1F1F1" height="46.2969" rx="2.5" ry="2.5" style="stroke:#181818;stroke-width:0.5;" width="139.873" x="953.06" y="160.6169"/><rect fill="#F1F1F1" height="10" style="stroke:#181818;stroke-width:0.5;" width="15" x="1072.933" y="165.6169"/><rect fill="#F1F1F1" height="2" style="stroke:#181818;stroke-width:0.5;" width="4" x="1070.933" y="167.6169"/><rect fill="#F1F1F1" height="2" style="stroke:#181818;stroke-width:0.5;" width="4" x="1070.933" y="171.6169"/><text fill="#000000" font-family="sans-serif" font-size="14" lengthAdjust="spacing" textLength="99.873" x="968.06" y="193.612">Load Balancer</text></g><!--entity Agents--><g class="entity" data-entity="Agents" data-source-line="14" data-uid="ent0011" id="entity_Agents"><rect fill="#F1F1F1" height="46.2969" rx="2.5" ry="2.5" style="stroke:#181818;stroke-width:0.5;" width="106.8896" x="2133.56" y="160.6169"/><rect fill="#F1F1F1" height="10" style="stroke:#181818;stroke-width:0.5;" width="15" x="2220.4496" y="165.6169"/><rect fill="#F1F1F1" height="2" style="stroke:#181818;stroke-width:0.5;" width="4" x="2218.4496" y="167.6169"/><rect fill="#F1F1F1" height="2" style="stroke:#181818;stroke-width:0.5;" width="4" x="2218.4496" y="171.6169"/><text fill="#000000" font-family="sans-serif" font-size="14" lengthAdjust="spacing" textLength="66.8896" x="2148.56" y="193.612">AI Agents</text></g><!--entity MCPServers--><g class="entity" data-entity="MCPServers" data-source-line="15" data-uid="ent0012" id="entity_MCPServers"><rect fill="#F1F1F1" height="46.2969" rx="2.5" ry="2.5" style="stroke:#181818;stroke-width:0.5;" width="127.9512" x="2275.02" y="160.6169"/><rect fill="#F1F1F1" height="10" style="stroke:#181818;stroke-width:0.5;" width="15" x="2382.9712" y="165.6169"/><rect fill="#F1F1F1" height="2" style="stroke:#181818;stroke-width:0.5;" width="4" x="2380.9712" y="167.6169"/><rect fill="#F1F1F1" height="2" style="stroke:#181818;stroke-width:0.5;" width="4" x="2380.9712" y="171.6169"/><text fill="#000000" font-family="sans-serif" font-size="14" lengthAdjust="spacing" textLength="87.9512" x="2290.02" y="193.612">MCP Servers</text></g><!--entity Kafka--><g class="entity" data-entity="Kafka" data-source-line="16" data-uid="ent0013" id="entity_Kafka"><rect fill="#F1F1F1" height="46.2969" rx="2.5" ry="2.5" style="stroke:#181818;stroke-width:0.5;" width="133.5156" x="2438.24" y="160.6169"/><rect fill="#F1F1F1" height="10" style="stroke:#181818;stroke-width:0.5;" width="15" x="2551.7556" y="165.6169"/><rect fill="#F1F1F1" height="2" style="stroke:#181818;stroke-width:0.5;" width="4" x="2549.7556" y="167.6169"/><rect fill="#F1F1F1" height="2" style="stroke:#181818;stroke-width:0.5;" width="4" x="2549.7556" y="171.6169"/><text fill="#000000" font-family="sans-serif" font-size="14" lengthAdjust="spacing" textLength="93.5156" x="2453.24" y="193.612">Kafka Cluster</text></g><!--link Dispatcher to Selector--><g class="link" data-entity-1="Dispatcher" data-entity-2="Selector" data-source-line="19" data-uid="lnk14" id="link_Dispatcher_Selector"><path d="M204.21,183.7669 C246.53,183.7669 290.39,183.7669 331.2,183.7669" fill="none" id="Dispatcher-to-Selector" style="stroke:#181818;stroke-width:1;"/><polygon fill="#181818" points="337.2,183.7669,328.2,179.7669,332.2,183.7669,328.2,187.7669,337.2,183.7669" style="stroke:#181818;stroke-width:1;"/><text fill="#000000" font-family="sans-serif" font-size="13" lengthAdjust="spacing" textLength="97.5508" x="222.18" y="176.8338">Select protocol</text></g><!--link Selector to Translator--><g class="link" data-entity-1="Selector" data-entity-2="Translator" data-source-line="20" data-uid="lnk15" id="link_Selector_Translator"><path d="M496.82,183.7669 C544.98,183.7669 600.44,183.7669 650.15,183.7669" fill="none" id="Selector-to-Translator" style="stroke:#181818;stroke-width:1;"/><polygon fill="#181818" points="656.15,183.7669,647.15,179.7669,651.15,183.7669,647.15,187.7669,656.15,183.7669" style="stroke:#181818;stroke-width:1;"/><text fill="#000000" font-family="sans-serif" font-size="13" lengthAdjust="spacing" textLength="123.4937" x="514.95" y="176.8338">Translate message</text></g><!--link Translator to LoadBalancer--><g class="link" data-entity-1="Translator" data-entity-2="LoadBalancer" data-source-line="21" data-uid="lnk16" id="link_Translator_LoadBalancer"><path d="M833.73,183.7669 C872.18,183.7669 910.57,183.7669 946.69,183.7669" fill="none" id="Translator-to-LoadBalancer" style="stroke:#181818;stroke-width:1;"/><polygon fill="#181818" points="952.69,183.7669,943.69,179.7669,947.69,183.7669,943.69,187.7669,952.69,183.7669" style="stroke:#181818;stroke-width:1;"/><text fill="#000000" font-family="sans-serif" font-size="13" lengthAdjust="spacing" textLength="83.7637" x="851.82" y="176.8338">Balance load</text></g><!--link LoadBalancer to A2AHandler--><g class="link" data-entity-1="LoadBalancer" data-entity-2="A2AHandler" data-source-line="22" data-uid="lnk17" id="link_LoadBalancer_A2AHandler"><path d="M1063.35,160.1769 C1101.49,139.3269 1161.04,110.4569 1217,98.6169 C1283.26,84.6069 1766.11,66.2369 1826.5,96.8969 C1852.49,110.0869 1867.7902,134.0446 1877.8102,154.9846" fill="none" id="LoadBalancer-to-A2AHandler" style="stroke:#181818;stroke-width:1;"/><polygon fill="#181818" points="1880.4,160.3969,1880.1234,150.5519,1878.2418,155.8866,1872.9071,154.005,1880.4,160.3969" style="stroke:#181818;stroke-width:1;"/><text fill="#000000" font-family="sans-serif" font-size="13" lengthAdjust="spacing" textLength="95.3862" x="1730.5" y="86.6838">A2A messages</text></g><!--link LoadBalancer to MCPHandler--><g class="link" data-entity-1="LoadBalancer" data-entity-2="MCPHandler" data-source-line="23" data-uid="lnk18" id="link_LoadBalancer_MCPHandler"><path d="M1058.56,160.2969 C1093.15,138.9669 1148.02,109.0469 1200.5,96.8969 C1282.99,77.7869 1313.4,64.7469 1391,98.6169 C1420.15,111.3469 1440.6374,134.9557 1454.9574,155.4857" fill="none" id="LoadBalancer-to-MCPHandler" style="stroke:#181818;stroke-width:1;"/><polygon fill="#181818" points="1458.39,160.4069,1456.5219,150.7368,1455.5295,156.3059,1449.9604,155.3136,1458.39,160.4069" style="stroke:#181818;stroke-width:1;"/><text fill="#000000" font-family="sans-serif" font-size="13" lengthAdjust="spacing" textLength="97.4619" x="1201.5" y="86.6838">MCP messages</text></g><!--link LoadBalancer to KafkaHandler--><g class="link" data-entity-1="LoadBalancer" data-entity-2="KafkaHandler" data-source-line="24" data-uid="lnk19" id="link_LoadBalancer_KafkaHandler"><path d="M1093.18,183.7669 C1136.26,183.7669 1185.22,183.7669 1228.22,183.7669" fill="none" id="LoadBalancer-to-KafkaHandler" style="stroke:#181818;stroke-width:1;"/><polygon fill="#181818" points="1234.22,183.7669,1225.22,179.7669,1229.22,183.7669,1225.22,187.7669,1234.22,183.7669" style="stroke:#181818;stroke-width:1;"/><text fill="#000000" font-family="sans-serif" font-size="13" lengthAdjust="spacing" textLength="105.8916" x="1111.23" y="176.8338">Kafka messages</text></g><!--link A2AHandler to Agents--><g class="link" data-entity-1="A2AHandler" data-entity-2="Agents" data-source-line="25" data-uid="lnk20" id="link_A2AHandler_Agents"><path d="M1954.08,183.7669 C2007.62,183.7669 2077.1,183.7669 2127.46,183.7669" fill="none" id="A2AHandler-to-Agents" style="stroke:#181818;stroke-width:1;"/><polygon fill="#181818" points="2133.46,183.7669,2124.46,179.7669,2128.46,183.7669,2124.46,187.7669,2133.46,183.7669" style="stroke:#181818;stroke-width:1;"/><text fill="#000000" font-family="sans-serif" font-size="13" lengthAdjust="spacing" textLength="143.146" x="1972.19" y="199.8338">Agent communication</text></g><!--link MCPHandler to MCPServers--><g class="link" data-entity-1="MCPHandler" data-entity-2="MCPServers" data-source-line="26" data-uid="lnk21" id="link_MCPHandler_MCPServers"><path d="M1482.85,160.3869 C1493.1,139.4469 1511.32,110.0669 1537.5,96.8969 C1573.63,78.7169 1588.06,96.8369 1628.5,96.8969 C1768.39,97.0869 2129.51,43.2969 2258,98.6169 C2287.05,111.1269 2307.2243,134.7534 2321.3043,155.3534" fill="none" id="MCPHandler-to-MCPServers" style="stroke:#181818;stroke-width:1;"/><polygon fill="#181818" points="2324.69,160.3069,2322.9138,150.6195,2321.8686,156.179,2316.3091,155.1338,2324.69,160.3069" style="stroke:#181818;stroke-width:1;"/><text fill="#000000" font-family="sans-serif" font-size="13" lengthAdjust="spacing" textLength="89.686" x="1538.5" y="86.6838">External tools</text></g><!--link KafkaHandler to Kafka--><g class="link" data-entity-1="KafkaHandler" data-entity-2="Kafka" data-source-line="27" data-uid="lnk22" id="link_KafkaHandler_Kafka"><path d="M1319.78,160.2569 C1335.18,139.6269 1360.68,111.0269 1391,98.6169 C1477.64,63.1769 2139.89,96.9869 2233.5,96.8969 C2316.39,96.8069 2343.79,66.0169 2420,98.6169 C2449.77,111.3569 2471.1103,135.0422 2486.1103,155.5722" fill="none" id="KafkaHandler-to-Kafka" style="stroke:#181818;stroke-width:1;"/><polygon fill="#181818" points="2489.65,160.4169,2487.5702,150.7901,2486.7003,156.3797,2481.1107,155.5097,2489.65,160.4169" style="stroke:#181818;stroke-width:1;"/><text fill="#000000" font-family="sans-serif" font-size="13" lengthAdjust="spacing" textLength="107.3198" x="2234.5" y="86.6838">Event streaming</text></g><!--SRC=[TPB1JiCm343l-GfhTouSEI2LWWG2f8dn0rPcjcffKYNk14ByEqwRjcctzcGdpx7p6gxO46ozOwUTWG_NCdaeNTquIvQXyFfOCMbkFIdLe3xXWM2pADZ0hmBvz5YtUQSG8lfOXGPP7oE48KkN1SLj0SzezoQHagVqukXoEoCbNo5VyUk4CxPRMQ77I-t8o8rTNp4aQnVyz6Y3mG6VqcN1cyCzFA11gzCmSMLOK7-PtgTlaMfH9la9J7MuuhTuWU8WKUXbTU4rKJloP_9X49NIww9AqmREHSMXfZy6D_UZ3RXB8JJ9cXgt19ii23Wa17NlJ6NR0kSQ14yX65bMiprXfrSXP7mowSXmGKwlGiXeOfNCtuImlOkHpZh6_ftes3i6KM7TsaeZLywgh6K_GB8j-FX7sJaJrApbC4B4pl7Km9wmhkn1_GC0]--></g></svg>