<svg xmlns="http://www.w3.org/2000/svg" xmlns:xlink="http://www.w3.org/1999/xlink" contentStyleType="text/css" data-diagram-type="SEQUENCE" height="718px" preserveAspectRatio="none" style="width:681px;height:718px;background:#FFFFFF;" version="1.1" viewBox="0 0 681 718" width="681px" zoomAndPan="magnify"><title>Edge-to-Cloud Synchronization Pattern</title><defs/><g><text fill="#000000" font-family="sans-serif" font-size="14" font-weight="bold" lengthAdjust="spacing" textLength="308.3213" x="182.3662" y="27.9951">Edge-to-Cloud Synchronization Pattern</text><g><title>Edge Device</title><rect fill="#000000" fill-opacity="0.00000" height="609.2578" width="8" x="51.7808" y="73.5938"/><line style="stroke:#181818;stroke-width:0.5;stroke-dasharray:5,5;" x1="55" x2="55" y1="73.5938" y2="682.8516"/></g><g><title>Mesh Network</title><rect fill="#000000" fill-opacity="0.00000" height="609.2578" width="8" x="201.623" y="73.5938"/><line style="stroke:#181818;stroke-width:0.5;stroke-dasharray:5,5;" x1="204.7412" x2="204.7412" y1="73.5938" y2="682.8516"/></g><g><title>Cloud Gateway</title><rect fill="#000000" fill-opacity="0.00000" height="609.2578" width="8" x="346.3682" y="73.5938"/><line style="stroke:#181818;stroke-width:0.5;stroke-dasharray:5,5;" x1="350.2256" x2="350.2256" y1="73.5938" y2="682.8516"/></g><g><title>Cloud Storage</title><rect fill="#000000" fill-opacity="0.00000" height="609.2578" width="8" x="473.1191" y="73.5938"/><line style="stroke:#181818;stroke-width:0.5;stroke-dasharray:5,5;" x1="476.5107" x2="476.5107" y1="73.5938" y2="682.8516"/></g><g><title>ML Pipeline</title><rect fill="#000000" fill-opacity="0.00000" height="609.2578" width="8" x="618.3403" y="73.5938"/><line style="stroke:#181818;stroke-width:0.5;stroke-dasharray:5,5;" x1="621.627" x2="621.627" y1="73.5938" y2="682.8516"/></g><g class="participant participant-head" data-participant="Edge"><rect fill="#E2E2F0" height="30.2969" rx="2.5" ry="2.5" style="stroke:#181818;stroke-width:0.5;" width="101.5615" x="5" y="42.2969"/><text fill="#000000" font-family="sans-serif" font-size="14" lengthAdjust="spacing" textLength="87.5615" x="12" y="62.292">Edge Device</text></g><g class="participant participant-tail" data-participant="Edge"><rect fill="#E2E2F0" height="30.2969" rx="2.5" ry="2.5" style="stroke:#181818;stroke-width:0.5;" width="101.5615" x="5" y="681.8516"/><text fill="#000000" font-family="sans-serif" font-size="14" lengthAdjust="spacing" textLength="87.5615" x="12" y="701.8467">Edge Device</text></g><g class="participant participant-head" data-participant="Mesh"><rect fill="#E2E2F0" height="30.2969" rx="2.5" ry="2.5" style="stroke:#181818;stroke-width:0.5;" width="113.7637" x="148.7412" y="42.2969"/><text fill="#000000" font-family="sans-serif" font-size="14" lengthAdjust="spacing" textLength="99.7637" x="155.7412" y="62.292">Mesh Network</text></g><g class="participant participant-tail" data-participant="Mesh"><rect fill="#E2E2F0" height="30.2969" rx="2.5" ry="2.5" style="stroke:#181818;stroke-width:0.5;" width="113.7637" x="148.7412" y="681.8516"/><text fill="#000000" font-family="sans-serif" font-size="14" lengthAdjust="spacing" textLength="99.7637" x="155.7412" y="701.8467">Mesh Network</text></g><g class="participant participant-head" data-participant="Gateway"><rect fill="#E2E2F0" height="30.2969" rx="2.5" ry="2.5" style="stroke:#181818;stroke-width:0.5;" width="120.2852" x="290.2256" y="42.2969"/><text fill="#000000" font-family="sans-serif" font-size="14" lengthAdjust="spacing" textLength="106.2852" x="297.2256" y="62.292">Cloud Gateway</text></g><g class="participant participant-tail" data-participant="Gateway"><rect fill="#E2E2F0" height="30.2969" rx="2.5" ry="2.5" style="stroke:#181818;stroke-width:0.5;" width="120.2852" x="290.2256" y="681.8516"/><text fill="#000000" font-family="sans-serif" font-size="14" lengthAdjust="spacing" textLength="106.2852" x="297.2256" y="701.8467">Cloud Gateway</text></g><g class="participant participant-head" data-participant="Storage"><rect fill="#E2E2F0" height="30.2969" rx="2.5" ry="2.5" style="stroke:#181818;stroke-width:0.5;" width="113.2168" x="420.5107" y="42.2969"/><text fill="#000000" font-family="sans-serif" font-size="14" lengthAdjust="spacing" textLength="99.2168" x="427.5107" y="62.292">Cloud Storage</text></g><g class="participant participant-tail" data-participant="Storage"><rect fill="#E2E2F0" height="30.2969" rx="2.5" ry="2.5" style="stroke:#181818;stroke-width:0.5;" width="113.2168" x="420.5107" y="681.8516"/><text fill="#000000" font-family="sans-serif" font-size="14" lengthAdjust="spacing" textLength="99.2168" x="427.5107" y="701.8467">Cloud Storage</text></g><g class="participant participant-head" data-participant="ML"><rect fill="#E2E2F0" height="30.2969" rx="2.5" ry="2.5" style="stroke:#181818;stroke-width:0.5;" width="93.4268" x="575.627" y="42.2969"/><text fill="#000000" font-family="sans-serif" font-size="14" lengthAdjust="spacing" textLength="79.4268" x="582.627" y="62.292">ML Pipeline</text></g><g class="participant participant-tail" data-participant="ML"><rect fill="#E2E2F0" height="30.2969" rx="2.5" ry="2.5" style="stroke:#181818;stroke-width:0.5;" width="93.4268" x="575.627" y="681.8516"/><text fill="#000000" font-family="sans-serif" font-size="14" lengthAdjust="spacing" textLength="79.4268" x="582.627" y="701.8467">ML Pipeline</text></g><rect fill="#EEEEEE" height="3" style="stroke:#EEEEEE;stroke-width:1;" width="674.0537" x="0" y="104.1602"/><line style="stroke:#000000;stroke-width:1;" x1="0" x2="674.0537" y1="104.1602" y2="104.1602"/><line style="stroke:#000000;stroke-width:1;" x1="0" x2="674.0537" y1="107.1602" y2="107.1602"/><rect fill="#EEEEEE" height="23.1328" style="stroke:#000000;stroke-width:2;" width="188.6431" x="242.7053" y="93.5938"/><text fill="#000000" font-family="sans-serif" font-size="13" font-weight="bold" lengthAdjust="spacing" textLength="170.1172" x="248.7053" y="109.6606">Online Synchronization</text><g class="message" data-participant-1="Edge" data-participant-2="Mesh"><polygon fill="#181818" points="193.623,143.8594,203.623,147.8594,193.623,151.8594,197.623,147.8594" style="stroke:#181818;stroke-width:1;"/><line style="stroke:#181818;stroke-width:1;" x1="55.7808" x2="199.623" y1="147.8594" y2="147.8594"/><text fill="#000000" font-family="sans-serif" font-size="13" lengthAdjust="spacing" textLength="125.5249" x="62.7808" y="142.7935">Send buffered data</text></g><g class="message" data-participant-1="Mesh" data-participant-2="Gateway"><polygon fill="#181818" points="338.3682,172.9922,348.3682,176.9922,338.3682,180.9922,342.3682,176.9922" style="stroke:#181818;stroke-width:1;"/><line style="stroke:#181818;stroke-width:1;" x1="205.623" x2="344.3682" y1="176.9922" y2="176.9922"/><text fill="#000000" font-family="sans-serif" font-size="13" lengthAdjust="spacing" textLength="94.8403" x="212.623" y="171.9263">Route to cloud</text></g><g class="message" data-participant-1="Gateway" data-participant-2="Storage"><polygon fill="#181818" points="465.1191,202.125,475.1191,206.125,465.1191,210.125,469.1191,206.125" style="stroke:#181818;stroke-width:1;"/><line style="stroke:#181818;stroke-width:1;" x1="350.3682" x2="471.1191" y1="206.125" y2="206.125"/><text fill="#000000" font-family="sans-serif" font-size="13" lengthAdjust="spacing" textLength="68.0596" x="357.3682" y="201.0591">Store data</text></g><g class="message" data-participant-1="Storage" data-participant-2="ML"><polygon fill="#181818" points="610.3403,231.2578,620.3403,235.2578,610.3403,239.2578,614.3403,235.2578" style="stroke:#181818;stroke-width:1;"/><line style="stroke:#181818;stroke-width:1;" x1="477.1191" x2="616.3403" y1="235.2578" y2="235.2578"/><text fill="#000000" font-family="sans-serif" font-size="13" lengthAdjust="spacing" textLength="121.2212" x="484.1191" y="230.1919">Trigger processing</text></g><g class="message" data-participant-1="ML" data-participant-2="Gateway"><polygon fill="#181818" points="361.3682,260.3906,351.3682,264.3906,361.3682,268.3906,357.3682,264.3906" style="stroke:#181818;stroke-width:1;"/><line style="stroke:#181818;stroke-width:1;" x1="355.3682" x2="621.3403" y1="264.3906" y2="264.3906"/><text fill="#000000" font-family="sans-serif" font-size="13" lengthAdjust="spacing" textLength="95.7417" x="367.3682" y="259.3247">Model updates</text></g><g class="message" data-participant-1="Gateway" data-participant-2="Mesh"><polygon fill="#181818" points="216.623,289.5234,206.623,293.5234,216.623,297.5234,212.623,293.5234" style="stroke:#181818;stroke-width:1;"/><line style="stroke:#181818;stroke-width:1;" x1="210.623" x2="349.3682" y1="293.5234" y2="293.5234"/><text fill="#000000" font-family="sans-serif" font-size="13" lengthAdjust="spacing" textLength="120.7451" x="222.623" y="288.4575">Distribute updates</text></g><g class="message" data-participant-1="Mesh" data-participant-2="Edge"><polygon fill="#181818" points="66.7808,318.6563,56.7808,322.6563,66.7808,326.6563,62.7808,322.6563" style="stroke:#181818;stroke-width:1;"/><line style="stroke:#181818;stroke-width:1;" x1="60.7808" x2="204.623" y1="322.6563" y2="322.6563"/><text fill="#000000" font-family="sans-serif" font-size="13" lengthAdjust="spacing" textLength="108.1895" x="72.7808" y="317.5903">Receive updates</text></g><rect fill="#EEEEEE" height="3" style="stroke:#EEEEEE;stroke-width:1;" width="674.0537" x="0" y="351.2227"/><line style="stroke:#000000;stroke-width:1;" x1="0" x2="674.0537" y1="351.2227" y2="351.2227"/><line style="stroke:#000000;stroke-width:1;" x1="0" x2="674.0537" y1="354.2227" y2="354.2227"/><rect fill="#EEEEEE" height="23.1328" style="stroke:#000000;stroke-width:2;" width="145.6123" x="264.2207" y="340.6563"/><text fill="#000000" font-family="sans-serif" font-size="13" font-weight="bold" lengthAdjust="spacing" textLength="127.0864" x="270.2207" y="356.7231">Offline Operation</text><g class="message" data-participant-1="Edge" data-participant-2="Edge"><line style="stroke:#181818;stroke-width:1;" x1="55.7808" x2="97.7808" y1="394.9219" y2="394.9219"/><line style="stroke:#181818;stroke-width:1;" x1="97.7808" x2="97.7808" y1="394.9219" y2="407.9219"/><line style="stroke:#181818;stroke-width:1;" x1="56.7808" x2="97.7808" y1="407.9219" y2="407.9219"/><polygon fill="#181818" points="66.7808,403.9219,56.7808,407.9219,66.7808,411.9219,62.7808,407.9219" style="stroke:#181818;stroke-width:1;"/><text fill="#000000" font-family="sans-serif" font-size="13" lengthAdjust="spacing" textLength="118.7964" x="62.7808" y="389.856">Buffer data locally</text></g><g class="message" data-participant-1="Edge" data-participant-2="Edge"><line style="stroke:#181818;stroke-width:1;" x1="55.7808" x2="97.7808" y1="437.0547" y2="437.0547"/><line style="stroke:#181818;stroke-width:1;" x1="97.7808" x2="97.7808" y1="437.0547" y2="450.0547"/><line style="stroke:#181818;stroke-width:1;" x1="56.7808" x2="97.7808" y1="450.0547" y2="450.0547"/><polygon fill="#181818" points="66.7808,446.0547,56.7808,450.0547,66.7808,454.0547,62.7808,450.0547" style="stroke:#181818;stroke-width:1;"/><text fill="#000000" font-family="sans-serif" font-size="13" lengthAdjust="spacing" textLength="125.2202" x="62.7808" y="431.9888">Run local inference</text></g><g class="message" data-participant-1="Edge" data-participant-2="Edge"><line style="stroke:#181818;stroke-width:1;" x1="55.7808" x2="97.7808" y1="479.1875" y2="479.1875"/><line style="stroke:#181818;stroke-width:1;" x1="97.7808" x2="97.7808" y1="479.1875" y2="492.1875"/><line style="stroke:#181818;stroke-width:1;" x1="56.7808" x2="97.7808" y1="492.1875" y2="492.1875"/><polygon fill="#181818" points="66.7808,488.1875,56.7808,492.1875,66.7808,496.1875,62.7808,492.1875" style="stroke:#181818;stroke-width:1;"/><text fill="#000000" font-family="sans-serif" font-size="13" lengthAdjust="spacing" textLength="82.6147" x="62.7808" y="474.1216">Store results</text></g><rect fill="#EEEEEE" height="3" style="stroke:#EEEEEE;stroke-width:1;" width="674.0537" x="0" y="520.7539"/><line style="stroke:#000000;stroke-width:1;" x1="0" x2="674.0537" y1="520.7539" y2="520.7539"/><line style="stroke:#000000;stroke-width:1;" x1="0" x2="674.0537" y1="523.7539" y2="523.7539"/><rect fill="#EEEEEE" height="23.1328" style="stroke:#000000;stroke-width:2;" width="117.8794" x="278.0872" y="510.1875"/><text fill="#000000" font-family="sans-serif" font-size="13" font-weight="bold" lengthAdjust="spacing" textLength="99.3535" x="284.0872" y="526.2544">Reconnection</text><g class="message" data-participant-1="Edge" data-participant-2="Mesh"><polygon fill="#181818" points="193.623,560.4531,203.623,564.4531,193.623,568.4531,197.623,564.4531" style="stroke:#181818;stroke-width:1;"/><line style="stroke:#181818;stroke-width:1;" x1="55.7808" x2="199.623" y1="564.4531" y2="564.4531"/><text fill="#000000" font-family="sans-serif" font-size="13" lengthAdjust="spacing" textLength="125.8423" x="62.7808" y="559.3872">Reconnect to mesh</text></g><g class="message" data-participant-1="Edge" data-participant-2="Mesh"><polygon fill="#181818" points="193.623,589.5859,203.623,593.5859,193.623,597.5859,197.623,593.5859" style="stroke:#181818;stroke-width:1;"/><line style="stroke:#181818;stroke-width:1;" x1="55.7808" x2="199.623" y1="593.5859" y2="593.5859"/><text fill="#000000" font-family="sans-serif" font-size="13" lengthAdjust="spacing" textLength="124.1157" x="62.7808" y="588.52">Sync buffered data</text></g><g class="message" data-participant-1="Mesh" data-participant-2="Edge"><polygon fill="#181818" points="66.7808,618.7188,56.7808,622.7188,66.7808,626.7188,62.7808,622.7188" style="stroke:#181818;stroke-width:1;"/><line style="stroke:#181818;stroke-width:1;" x1="60.7808" x2="204.623" y1="622.7188" y2="622.7188"/><text fill="#000000" font-family="sans-serif" font-size="13" lengthAdjust="spacing" textLength="121.3291" x="72.7808" y="617.6528">Download updates</text></g><g class="message" data-participant-1="Edge" data-participant-2="Edge"><line style="stroke:#181818;stroke-width:1;" x1="55.7808" x2="97.7808" y1="651.8516" y2="651.8516"/><line style="stroke:#181818;stroke-width:1;" x1="97.7808" x2="97.7808" y1="651.8516" y2="664.8516"/><line style="stroke:#181818;stroke-width:1;" x1="56.7808" x2="97.7808" y1="664.8516" y2="664.8516"/><polygon fill="#181818" points="66.7808,660.8516,56.7808,664.8516,66.7808,668.8516,62.7808,664.8516" style="stroke:#181818;stroke-width:1;"/><text fill="#000000" font-family="sans-serif" font-size="13" lengthAdjust="spacing" textLength="93.4121" x="62.7808" y="646.7856">Apply updates</text></g><!--SRC=[TPB1Ri8m38RlUGgBEozGgPEsCUq20y5U82HkYPOvKUA2kgTVanG6XTqY-xVz_NROi4LuqotEsSrVhUiqx7fIX-38_4WsZc0ZcJ6G45u6DifuIGopL0CBF1g5Cv0nzxXLh30Uu0FvvC9NbgJ0hQGCV9UC9zbdpVX-9Dkn2x8jqyRtPE0IDiQZDLH4gwKGTGrhIf4xMtKjieVvKmQhO8UaOTyr3GRKe2LBaIqCWf6gWgth684Tg8GandYIZ4HLVc0f7sDvnBA2ps3Q5WFuu1J6QAWL0_9r-vNJQA7pGpN6w-w5S64Y1xDF26VDcJ1P6V1GeJd-PRFzfid-rnx3dVDIzf9DPsQmJabh-ubYsr79WA6q7r8uKHJR0MDdkGmUO1mHgiVRlcJJDh_JpvXSOpZNFzSe0nVkHDP9VJ5xo_FilUqlkLy0]--></g></svg>