<svg xmlns="http://www.w3.org/2000/svg" xmlns:xlink="http://www.w3.org/1999/xlink" contentStyleType="text/css" data-diagram-type="STATE" height="169px" preserveAspectRatio="none" style="width:2081px;height:169px;background:#FFFFFF;" version="1.1" viewBox="0 0 2081 169" width="2081px" zoomAndPan="magnify"><title>Node Lifecycle States</title><defs/><g><g class="title" data-source-line="1"><text fill="#000000" font-family="sans-serif" font-size="14" font-weight="bold" lengthAdjust="spacing" textLength="170.666" x="948.2981" y="22.9951">Node Lifecycle States</text></g><ellipse cx="16" cy="138.5469" fill="#222222" rx="10" ry="10" style="stroke:#222222;stroke-width:1;"/><g id="Created"><rect fill="#F1F1F1" height="50" rx="12.5" ry="12.5" style="stroke:#181818;stroke-width:0.5;" width="75.7129" x="180.14" y="113.5469"/><line style="stroke:#181818;stroke-width:0.5;" x1="180.14" x2="255.8529" y1="139.8438" y2="139.8438"/><text fill="#000000" font-family="sans-serif" font-size="14" lengthAdjust="spacing" textLength="55.7129" x="190.14" y="131.542">Created</text></g><g id="Validating"><rect fill="#F1F1F1" height="50" rx="12.5" ry="12.5" style="stroke:#181818;stroke-width:0.5;" width="90.54" x="435.73" y="113.5469"/><line style="stroke:#181818;stroke-width:0.5;" x1="435.73" x2="526.27" y1="139.8438" y2="139.8438"/><text fill="#000000" font-family="sans-serif" font-size="14" lengthAdjust="spacing" textLength="70.54" x="445.73" y="131.542">Validating</text></g><g id="Invalid"><rect fill="#F1F1F1" height="50" rx="12.5" ry="12.5" style="stroke:#181818;stroke-width:0.5;" width="66.5322" x="2007.73" y="113.5469"/><line style="stroke:#181818;stroke-width:0.5;" x1="2007.73" x2="2074.2622" y1="139.8438" y2="139.8438"/><text fill="#000000" font-family="sans-serif" font-size="14" lengthAdjust="spacing" textLength="46.5322" x="2017.73" y="131.542">Invalid</text></g><g id="Deploying"><rect fill="#F1F1F1" height="50" rx="12.5" ry="12.5" style="stroke:#181818;stroke-width:0.5;" width="90.6699" x="675.67" y="113.5469"/><line style="stroke:#181818;stroke-width:0.5;" x1="675.67" x2="766.3399" y1="139.8438" y2="139.8438"/><text fill="#000000" font-family="sans-serif" font-size="14" lengthAdjust="spacing" textLength="70.6699" x="685.67" y="131.542">Deploying</text></g><g id="Running"><rect fill="#F1F1F1" height="50" rx="12.5" ry="12.5" style="stroke:#181818;stroke-width:0.5;" width="77.9961" x="953" y="113.5469"/><line style="stroke:#181818;stroke-width:0.5;" x1="953" x2="1030.9961" y1="139.8438" y2="139.8438"/><text fill="#000000" font-family="sans-serif" font-size="14" lengthAdjust="spacing" textLength="57.9961" x="963" y="131.542">Running</text></g><g id="Failed"><rect fill="#F1F1F1" height="50" rx="12.5" ry="12.5" style="stroke:#181818;stroke-width:0.5;" width="61.9111" x="1737.04" y="113.5469"/><line style="stroke:#181818;stroke-width:0.5;" x1="1737.04" x2="1798.9511" y1="139.8438" y2="139.8438"/><text fill="#000000" font-family="sans-serif" font-size="14" lengthAdjust="spacing" textLength="41.9111" x="1747.04" y="131.542">Failed</text></g><g id="Updating"><rect fill="#F1F1F1" height="50" rx="12.5" ry="12.5" style="stroke:#181818;stroke-width:0.5;" width="83.7383" x="1505.13" y="113.5469"/><line style="stroke:#181818;stroke-width:0.5;" x1="1505.13" x2="1588.8683" y1="139.8438" y2="139.8438"/><text fill="#000000" font-family="sans-serif" font-size="14" lengthAdjust="spacing" textLength="63.7383" x="1515.13" y="131.542">Updating</text></g><g id="Stopping"><rect fill="#F1F1F1" height="50" rx="12.5" ry="12.5" style="stroke:#181818;stroke-width:0.5;" width="82.3643" x="1172.82" y="113.5469"/><line style="stroke:#181818;stroke-width:0.5;" x1="1172.82" x2="1255.1843" y1="139.8438" y2="139.8438"/><text fill="#000000" font-family="sans-serif" font-size="14" lengthAdjust="spacing" textLength="62.3643" x="1182.82" y="131.542">Stopping</text></g><g id="Stopped"><rect fill="#F1F1F1" height="50" rx="12.5" ry="12.5" style="stroke:#181818;stroke-width:0.5;" width="78.2148" x="1391.89" y="113.5469"/><line style="stroke:#181818;stroke-width:0.5;" x1="1391.89" x2="1470.1048" y1="139.8438" y2="139.8438"/><text fill="#000000" font-family="sans-serif" font-size="14" lengthAdjust="spacing" textLength="58.2148" x="1401.89" y="131.542">Stopped</text></g><ellipse cx="1962" cy="138.5469" fill="none" rx="11" ry="11" style="stroke:#222222;stroke-width:1;"/><ellipse cx="1962" cy="138.5469" fill="#222222" rx="6" ry="6" style="stroke:#222222;stroke-width:1;"/><!--link *start* to Created--><g class="link" data-entity-1=".start." data-entity-2="Created" data-source-line="3" data-uid="lnk4" id="link_.start._Created"><path d="M26.29,138.5469 C54.19,138.5469 126.33,138.5469 173.8,138.5469" fill="none" id="*start*-to-Created" style="stroke:#181818;stroke-width:1;"/><polygon fill="#181818" points="179.8,138.5469,170.8,134.5469,174.8,138.5469,170.8,142.5469,179.8,138.5469" style="stroke:#181818;stroke-width:1;"/><text fill="#000000" font-family="sans-serif" font-size="13" lengthAdjust="spacing" textLength="118.6631" x="44.07" y="131.6138">User creates node</text></g><!--link Created to Validating--><g class="link" data-entity-1="Created" data-entity-2="Validating" data-source-line="4" data-uid="lnk6" id="link_Created_Validating"><path d="M256.24,138.5469 C303.83,138.5469 378.97,138.5469 429.65,138.5469" fill="none" id="Created-to-Validating" style="stroke:#181818;stroke-width:1;"/><polygon fill="#181818" points="435.65,138.5469,426.65,134.5469,430.65,138.5469,426.65,142.5469,435.65,138.5469" style="stroke:#181818;stroke-width:1;"/><text fill="#000000" font-family="sans-serif" font-size="13" lengthAdjust="spacing" textLength="143.7617" x="274.29" y="131.6138">Validate configuration</text></g><!--link Validating to Invalid--><g class="link" data-entity-1="Validating" data-entity-2="Invalid" data-source-line="5" data-uid="lnk8" id="link_Validating_Invalid"><path d="M517.25,113.1169 C538.87,99.5169 567.5,84.1669 595.5,77.1269 C637.31,66.6269 649.39,76.5269 692.5,77.1269 C981.14,81.1769 1711.01,43.2969 1991,113.5469 C1996.46,114.9169 1996.514,114.5398 2001.834,116.8698" fill="none" id="Validating-to-Invalid" style="stroke:#181818;stroke-width:1;"/><polygon fill="#181818" points="2007.33,119.2769,2000.6907,112.0023,2002.75,117.271,1997.4813,119.3303,2007.33,119.2769" style="stroke:#181818;stroke-width:1;"/><text fill="#000000" font-family="sans-serif" font-size="13" lengthAdjust="spacing" textLength="95.875" x="596.5" y="79.6138">Validation fails</text></g><!--link Invalid to Created--><g class="link" data-entity-1="Invalid" data-entity-2="Created" data-source-line="6" data-uid="lnk9" id="link_Invalid_Created"><path d="M2007.6,114.0769 C1986.61,100.2569 1958.33,84.3469 1930.5,77.1269 C1882.75,64.7469 1868.83,76.4869 1819.5,77.1269 C1196.45,85.2269 1039.34,66.7569 418,113.5469 C361.47,117.8069 302.3352,125.8077 262.1652,131.7577" fill="none" id="Invalid-to-Created" style="stroke:#181818;stroke-width:1;"/><polygon fill="#181818" points="256.23,132.6369,265.719,135.275,261.176,131.9043,264.5468,127.3613,256.23,132.6369" style="stroke:#181818;stroke-width:1;"/><text fill="#000000" font-family="sans-serif" font-size="13" lengthAdjust="spacing" textLength="109.1479" x="1820.5" y="79.6138">Fix configuration</text></g><!--link Validating to Deploying--><g class="link" data-entity-1="Validating" data-entity-2="Deploying" data-source-line="7" data-uid="lnk11" id="link_Validating_Deploying"><path d="M526.71,138.5469 C569.41,138.5469 626.81,138.5469 669.46,138.5469" fill="none" id="Validating-to-Deploying" style="stroke:#181818;stroke-width:1;"/><polygon fill="#181818" points="675.46,138.5469,666.46,134.5469,670.46,138.5469,666.46,142.5469,675.46,138.5469" style="stroke:#181818;stroke-width:1;"/><text fill="#000000" font-family="sans-serif" font-size="13" lengthAdjust="spacing" textLength="113.8706" x="544.47" y="131.6138">Validation passes</text></g><!--link Deploying to Running--><g class="link" data-entity-1="Deploying" data-entity-2="Running" data-source-line="8" data-uid="lnk13" id="link_Deploying_Running"><path d="M766.67,138.5469 C818.86,138.5469 897.41,138.5469 946.76,138.5469" fill="none" id="Deploying-to-Running" style="stroke:#181818;stroke-width:1;"/><polygon fill="#181818" points="952.76,138.5469,943.76,134.5469,947.76,138.5469,943.76,142.5469,952.76,138.5469" style="stroke:#181818;stroke-width:1;"/><text fill="#000000" font-family="sans-serif" font-size="13" lengthAdjust="spacing" textLength="150.9282" x="784.67" y="131.6138">Deployment successful</text></g><!--link Deploying to Failed--><g class="link" data-entity-1="Deploying" data-entity-2="Failed" data-source-line="9" data-uid="lnk15" id="link_Deploying_Failed"><path d="M766.63,132.3969 C810.1,126.7369 877.4,118.4969 936,113.5469 C1241.56,87.7369 1318.46,85.2269 1625,77.1269 C1649.88,76.4769 1715.8,64.0869 1737,77.1269 C1749.82,85.0169 1755.5863,94.3404 1760.1063,107.5404" fill="none" id="Deploying-to-Failed" style="stroke:#181818;stroke-width:1;"/><polygon fill="#181818" points="1762.05,113.2169,1762.9187,103.4064,1760.4302,108.4865,1755.3501,105.9981,1762.05,113.2169" style="stroke:#181818;stroke-width:1;"/><text fill="#000000" font-family="sans-serif" font-size="13" lengthAdjust="spacing" textLength="110.189" x="1626" y="79.6138">Deployment fails</text></g><!--link Failed to Deploying--><g class="link" data-entity-1="Failed" data-entity-2="Deploying" data-source-line="10" data-uid="lnk16" id="link_Failed_Deploying"><path d="M1762.05,113.2169 C1757.53,100.0169 1749.82,85.0169 1737,77.1269 C1715.8,64.0869 1649.88,76.4769 1625,77.1269 C1318.46,85.2269 1241.56,87.7369 936,113.5469 C877.4,118.4969 816.0498,125.9622 772.5798,131.6222" fill="none" id="Failed-to-Deploying" style="stroke:#181818;stroke-width:1;"/><polygon fill="#181818" points="766.63,132.3969,776.0711,135.2014,771.5881,131.7513,775.0382,127.2683,766.63,132.3969" style="stroke:#181818;stroke-width:1;"/><text fill="#000000" font-family="sans-serif" font-size="13" lengthAdjust="spacing" textLength="117.0571" x="1622.5" y="79.6138">Retry deployment</text></g><!--link Running to Updating--><g class="link" data-entity-1="Running" data-entity-2="Updating" data-source-line="11" data-uid="lnk18" id="link_Running_Updating"><path d="M1001.17,113.0469 C1007.39,99.7969 1017.05,84.7969 1031,77.1269 C1058.65,61.9369 1141.5,75.3169 1173,77.1269 C1313.7,85.2369 1351.73,77.5969 1488,113.5469 C1493.49,114.9969 1493.5087,114.7591 1499.0287,116.8191" fill="none" id="Running-to-Updating" style="stroke:#181818;stroke-width:1;"/><polygon fill="#181818" points="1504.65,118.9169,1497.6166,112.0226,1499.9656,117.1687,1494.8195,119.5177,1504.65,118.9169" style="stroke:#181818;stroke-width:1;"/><text fill="#000000" font-family="sans-serif" font-size="13" lengthAdjust="spacing" textLength="140.1372" x="1032" y="79.6138">Configuration change</text></g><!--link Updating to Running--><g class="link" data-entity-1="Updating" data-entity-2="Running" data-source-line="12" data-uid="lnk19" id="link_Updating_Running"><path d="M1504.65,118.9169 C1499.13,116.8569 1493.49,114.9969 1488,113.5469 C1351.73,77.5969 1313.7,85.2369 1173,77.1269 C1141.5,75.3169 1058.65,61.9369 1031,77.1269 C1017.05,84.7969 1009.9396,94.3655 1003.7196,107.6155" fill="none" id="Updating-to-Running" style="stroke:#181818;stroke-width:1;"/><polygon fill="#181818" points="1001.17,113.0469,1008.6154,106.5997,1003.2947,108.5208,1001.3736,103.2001,1001.17,113.0469" style="stroke:#181818;stroke-width:1;"/><text fill="#000000" font-family="sans-serif" font-size="13" lengthAdjust="spacing" textLength="118.4917" x="1043" y="79.6138">Update successful</text></g><!--link Updating to Failed--><g class="link" data-entity-1="Updating" data-entity-2="Failed" data-source-line="13" data-uid="lnk20" id="link_Updating_Failed"><path d="M1589.35,138.5469 C1632.46,138.5469 1692.29,138.5469 1730.84,138.5469" fill="none" id="Updating-to-Failed" style="stroke:#181818;stroke-width:1;"/><polygon fill="#181818" points="1736.84,138.5469,1727.84,134.5469,1731.84,138.5469,1727.84,142.5469,1736.84,138.5469" style="stroke:#181818;stroke-width:1;"/><text fill="#000000" font-family="sans-serif" font-size="13" lengthAdjust="spacing" textLength="77.7524" x="1624.46" y="131.6138">Update fails</text></g><!--link Running to Stopping--><g class="link" data-entity-1="Running" data-entity-2="Stopping" data-source-line="14" data-uid="lnk22" id="link_Running_Stopping"><path d="M1031.43,138.5469 C1071.18,138.5469 1126.27,138.5469 1166.68,138.5469" fill="none" id="Running-to-Stopping" style="stroke:#181818;stroke-width:1;"/><polygon fill="#181818" points="1172.68,138.5469,1163.68,134.5469,1167.68,138.5469,1163.68,142.5469,1172.68,138.5469" style="stroke:#181818;stroke-width:1;"/><text fill="#000000" font-family="sans-serif" font-size="13" lengthAdjust="spacing" textLength="105.187" x="1049.41" y="131.6138">User stops node</text></g><!--link Stopping to Stopped--><g class="link" data-entity-1="Stopping" data-entity-2="Stopped" data-source-line="15" data-uid="lnk24" id="link_Stopping_Stopped"><path d="M1255.58,138.5469 C1294.84,138.5469 1347.27,138.5469 1385.75,138.5469" fill="none" id="Stopping-to-Stopped" style="stroke:#181818;stroke-width:1;"/><polygon fill="#181818" points="1391.75,138.5469,1382.75,134.5469,1386.75,138.5469,1382.75,142.5469,1391.75,138.5469" style="stroke:#181818;stroke-width:1;"/><text fill="#000000" font-family="sans-serif" font-size="13" lengthAdjust="spacing" textLength="100.9658" x="1273.54" y="131.6138">Stop successful</text></g><!--link Stopped to Deploying--><g class="link" data-entity-1="Stopped" data-entity-2="Deploying" data-source-line="16" data-uid="lnk25" id="link_Stopped_Deploying"><path d="M1391.78,131.1069 C1279.26,110.2669 956.88,54.3369 853.5,77.1269 C821.81,84.1169 793.9601,96.6273 768.7601,110.2273" fill="none" id="Stopped-to-Deploying" style="stroke:#181818;stroke-width:1;"/><polygon fill="#181818" points="763.48,113.0769,773.2999,112.3226,767.8801,110.7022,769.5005,105.2824,763.48,113.0769" style="stroke:#181818;stroke-width:1;"/><text fill="#000000" font-family="sans-serif" font-size="13" lengthAdjust="spacing" textLength="83.8843" x="854.5" y="79.6138">Restart node</text></g><!--link Running to Failed--><g class="link" data-entity-1="Running" data-entity-2="Failed" data-source-line="17" data-uid="lnk26" id="link_Running_Failed"><path d="M1031.15,131.7269 C1150.05,111.4769 1505.69,54.5269 1619.5,77.1269 C1661.92,85.5569 1702.0733,103.5547 1731.3633,118.6047" fill="none" id="Running-to-Failed" style="stroke:#181818;stroke-width:1;"/><polygon fill="#181818" points="1736.7,121.3469,1730.523,113.6758,1732.2527,119.0617,1726.8668,120.7915,1736.7,121.3469" style="stroke:#181818;stroke-width:1;"/><text fill="#000000" font-family="sans-serif" font-size="13" lengthAdjust="spacing" textLength="91" x="1527.5" y="79.6138">Runtime error</text></g><!--link Failed to Running--><g class="link" data-entity-1="Failed" data-entity-2="Running" data-source-line="18" data-uid="lnk27" id="link_Failed_Running"><path d="M1736.7,121.3469 C1707.41,106.2969 1661.92,85.5569 1619.5,77.1269 C1505.69,54.5269 1155.9648,110.4695 1037.0648,130.7195" fill="none" id="Failed-to-Running" style="stroke:#181818;stroke-width:1;"/><polygon fill="#181818" points="1031.15,131.7269,1040.6938,134.1591,1036.079,130.8874,1039.3507,126.2726,1031.15,131.7269" style="stroke:#181818;stroke-width:1;"/><text fill="#000000" font-family="sans-serif" font-size="13" lengthAdjust="spacing" textLength="92.0474" x="1527" y="79.6138">Auto-recovery</text></g><!--link Failed to *end*--><g class="link" data-entity-1="Failed" data-entity-2=".end." data-source-line="19" data-uid="lnk29" id="link_Failed_.end."><path d="M1799.17,138.5469 C1843.3,138.5469 1915.84,138.5469 1944.84,138.5469" fill="none" id="Failed-to-*end*" style="stroke:#181818;stroke-width:1;"/><polygon fill="#181818" points="1950.84,138.5469,1941.84,134.5469,1945.84,138.5469,1941.84,142.5469,1950.84,138.5469" style="stroke:#181818;stroke-width:1;"/><text fill="#000000" font-family="sans-serif" font-size="13" lengthAdjust="spacing" textLength="116.8667" x="1816.98" y="131.6138">Permanent failure</text></g><!--SRC=[VPBFQiCm3CRlVWgT1ts17WQZfJ0OOxIqbx63SPJCaDX1bilozbN-s74ss2tozxE-JtBOSelmxYk4DrkZ6OoK5zQCGQdFfo_OFSE1KEeAzd0DI62cCe2JIoffWjrqQolDrZL2BWM2yQwsJIGHl5C58pTUtNsiLrmGgBLjWqhInlvaV_xjTyI-zSCcmDYnro78EAigw3awDuFpSOUE8KHZC8Gwjblu996c00KxnroKNzvdP1gWoh1ARi9T-xoZGpaAc6_j6bHPtuISJh4CM78vtuBDsGhJ2_k-NpgDJnYaNXumImcR6erVfLjI_WmQM1FFdGg_74ZEs7O8IEIfsDOwsKjaloCq_euq5CJux-tX0wdJBkqx4ge7]--></g></svg>