<svg xmlns="http://www.w3.org/2000/svg" xmlns:xlink="http://www.w3.org/1999/xlink" contentStyleType="text/css" data-diagram-type="DESCRIPTION" height="210px" preserveAspectRatio="none" style="width:2260px;height:210px;background:#FFFFFF;" version="1.1" viewBox="0 0 2260 210" width="2260px" zoomAndPan="magnify"><title>Multi-Level Caching Strategy</title><defs/><g><g class="title" data-source-line="1"><text fill="#000000" font-family="sans-serif" font-size="14" font-weight="bold" lengthAdjust="spacing" textLength="228.8193" x="1008.9761" y="22.9951">Multi-Level Caching Strategy</text></g><!--cluster Client Layer--><g class="cluster" data-entity="Client Layer" data-source-line="3" data-uid="ent0002" id="cluster_Client Layer"><path d="M8.5,87.6469 L104.2939,87.6469 A3.75,3.75 0 0 1 106.7939,90.1469 L113.7939,109.9438 L349.5,109.9438 A2.5,2.5 0 0 1 352,112.4438 L352,201.4469 A2.5,2.5 0 0 1 349.5,203.9469 L8.5,203.9469 A2.5,2.5 0 0 1 6,201.4469 L6,90.1469 A2.5,2.5 0 0 1 8.5,87.6469" fill="none" style="stroke:#000000;stroke-width:1.5;"/><line style="stroke:#000000;stroke-width:1.5;" x1="6" x2="113.7939" y1="109.9438" y2="109.9438"/><text fill="#000000" font-family="sans-serif" font-size="14" font-weight="bold" lengthAdjust="spacing" textLength="94.7939" x="10" y="102.642">Client Layer</text></g><!--cluster Edge Layer--><g class="cluster" data-entity="Edge Layer" data-source-line="8" data-uid="ent0005" id="cluster_Edge Layer"><path d="M432.5,87.6469 L521.3691,87.6469 A3.75,3.75 0 0 1 523.8691,90.1469 L530.8691,109.9438 L813.5,109.9438 A2.5,2.5 0 0 1 816,112.4438 L816,201.4469 A2.5,2.5 0 0 1 813.5,203.9469 L432.5,203.9469 A2.5,2.5 0 0 1 430,201.4469 L430,90.1469 A2.5,2.5 0 0 1 432.5,87.6469" fill="none" style="stroke:#000000;stroke-width:1.5;"/><line style="stroke:#000000;stroke-width:1.5;" x1="430" x2="530.8691" y1="109.9438" y2="109.9438"/><text fill="#000000" font-family="sans-serif" font-size="14" font-weight="bold" lengthAdjust="spacing" textLength="87.8691" x="434" y="102.642">Edge Layer</text></g><!--cluster Application Layer--><g class="cluster" data-entity="Application Layer" data-source-line="13" data-uid="ent0008" id="cluster_Application Layer"><path d="M896.5,87.6469 L1035.5654,87.6469 A3.75,3.75 0 0 1 1038.0654,90.1469 L1045.0654,109.9438 L1503.5,109.9438 A2.5,2.5 0 0 1 1506,112.4438 L1506,201.4469 A2.5,2.5 0 0 1 1503.5,203.9469 L896.5,203.9469 A2.5,2.5 0 0 1 894,201.4469 L894,90.1469 A2.5,2.5 0 0 1 896.5,87.6469" fill="none" style="stroke:#000000;stroke-width:1.5;"/><line style="stroke:#000000;stroke-width:1.5;" x1="894" x2="1045.0654" y1="109.9438" y2="109.9438"/><text fill="#000000" font-family="sans-serif" font-size="14" font-weight="bold" lengthAdjust="spacing" textLength="138.0654" x="898" y="102.642">Application Layer</text></g><!--cluster Database Layer--><g class="cluster" data-entity="Database Layer" data-source-line="19" data-uid="ent0012" id="cluster_Database Layer"><path d="M1545.5,87.6469 L1669.7725,87.6469 A3.75,3.75 0 0 1 1672.2725,90.1469 L1679.2725,109.9438 L1917.5,109.9438 A2.5,2.5 0 0 1 1920,112.4438 L1920,201.4469 A2.5,2.5 0 0 1 1917.5,203.9469 L1545.5,203.9469 A2.5,2.5 0 0 1 1543,201.4469 L1543,90.1469 A2.5,2.5 0 0 1 1545.5,87.6469" fill="none" style="stroke:#000000;stroke-width:1.5;"/><line style="stroke:#000000;stroke-width:1.5;" x1="1543" x2="1679.2725" y1="109.9438" y2="109.9438"/><text fill="#000000" font-family="sans-serif" font-size="14" font-weight="bold" lengthAdjust="spacing" textLength="123.2725" x="1547" y="102.642">Database Layer</text></g><!--entity BrowserCache--><g class="entity" data-entity="BrowserCache" data-source-line="4" data-uid="ent0003" id="entity_BrowserCache"><rect fill="#F1F1F1" height="46.2969" rx="2.5" ry="2.5" style="stroke:#181818;stroke-width:0.5;" width="145.0273" x="22.49" y="141.6469"/><rect fill="#F1F1F1" height="10" style="stroke:#181818;stroke-width:0.5;" width="15" x="147.5173" y="146.6469"/><rect fill="#F1F1F1" height="2" style="stroke:#181818;stroke-width:0.5;" width="4" x="145.5173" y="148.6469"/><rect fill="#F1F1F1" height="2" style="stroke:#181818;stroke-width:0.5;" width="4" x="145.5173" y="152.6469"/><text fill="#000000" font-family="sans-serif" font-size="14" lengthAdjust="spacing" textLength="105.0273" x="37.49" y="174.642">Browser Cache</text></g><!--entity MobileCache--><g class="entity" data-entity="MobileCache" data-source-line="5" data-uid="ent0004" id="entity_MobileCache"><rect fill="#F1F1F1" height="46.2969" rx="2.5" ry="2.5" style="stroke:#181818;stroke-width:0.5;" width="133.9121" x="202.04" y="141.6469"/><rect fill="#F1F1F1" height="10" style="stroke:#181818;stroke-width:0.5;" width="15" x="315.9521" y="146.6469"/><rect fill="#F1F1F1" height="2" style="stroke:#181818;stroke-width:0.5;" width="4" x="313.9521" y="148.6469"/><rect fill="#F1F1F1" height="2" style="stroke:#181818;stroke-width:0.5;" width="4" x="313.9521" y="152.6469"/><text fill="#000000" font-family="sans-serif" font-size="14" lengthAdjust="spacing" textLength="93.9121" x="217.04" y="174.642">Mobile Cache</text></g><!--entity CDN--><g class="entity" data-entity="CDN" data-source-line="9" data-uid="ent0006" id="entity_CDN"><rect fill="#F1F1F1" height="46.2969" rx="2.5" ry="2.5" style="stroke:#181818;stroke-width:0.5;" width="119.0166" x="446.49" y="141.6469"/><rect fill="#F1F1F1" height="10" style="stroke:#181818;stroke-width:0.5;" width="15" x="545.5066" y="146.6469"/><rect fill="#F1F1F1" height="2" style="stroke:#181818;stroke-width:0.5;" width="4" x="543.5066" y="148.6469"/><rect fill="#F1F1F1" height="2" style="stroke:#181818;stroke-width:0.5;" width="4" x="543.5066" y="152.6469"/><text fill="#000000" font-family="sans-serif" font-size="14" lengthAdjust="spacing" textLength="79.0166" x="461.49" y="174.642">CDN Cache</text></g><!--entity EdgeCache--><g class="entity" data-entity="EdgeCache" data-source-line="10" data-uid="ent0007" id="entity_EdgeCache"><rect fill="#F1F1F1" height="46.2969" rx="2.5" ry="2.5" style="stroke:#181818;stroke-width:0.5;" width="123.2207" x="676.39" y="141.6469"/><rect fill="#F1F1F1" height="10" style="stroke:#181818;stroke-width:0.5;" width="15" x="779.6107" y="146.6469"/><rect fill="#F1F1F1" height="2" style="stroke:#181818;stroke-width:0.5;" width="4" x="777.6107" y="148.6469"/><rect fill="#F1F1F1" height="2" style="stroke:#181818;stroke-width:0.5;" width="4" x="777.6107" y="152.6469"/><text fill="#000000" font-family="sans-serif" font-size="14" lengthAdjust="spacing" textLength="83.2207" x="691.39" y="174.642">Edge Cache</text></g><!--entity AppCache--><g class="entity" data-entity="AppCache" data-source-line="14" data-uid="ent0009" id="entity_AppCache"><rect fill="#F1F1F1" height="46.2969" rx="2.5" ry="2.5" style="stroke:#181818;stroke-width:0.5;" width="166.2119" x="909.89" y="141.6469"/><rect fill="#F1F1F1" height="10" style="stroke:#181818;stroke-width:0.5;" width="15" x="1056.1019" y="146.6469"/><rect fill="#F1F1F1" height="2" style="stroke:#181818;stroke-width:0.5;" width="4" x="1054.1019" y="148.6469"/><rect fill="#F1F1F1" height="2" style="stroke:#181818;stroke-width:0.5;" width="4" x="1054.1019" y="152.6469"/><text fill="#000000" font-family="sans-serif" font-size="14" lengthAdjust="spacing" textLength="126.2119" x="924.89" y="174.642">Application Cache</text></g><!--entity SessionCache--><g class="entity" data-entity="SessionCache" data-source-line="15" data-uid="ent0010" id="entity_SessionCache"><rect fill="#F1F1F1" height="46.2969" rx="2.5" ry="2.5" style="stroke:#181818;stroke-width:0.5;" width="141.4043" x="1348.3" y="141.6469"/><rect fill="#F1F1F1" height="10" style="stroke:#181818;stroke-width:0.5;" width="15" x="1469.7043" y="146.6469"/><rect fill="#F1F1F1" height="2" style="stroke:#181818;stroke-width:0.5;" width="4" x="1467.7043" y="148.6469"/><rect fill="#F1F1F1" height="2" style="stroke:#181818;stroke-width:0.5;" width="4" x="1467.7043" y="152.6469"/><text fill="#000000" font-family="sans-serif" font-size="14" lengthAdjust="spacing" textLength="101.4043" x="1363.3" y="174.642">Session Cache</text></g><!--entity Redis--><g class="entity" data-entity="Redis" data-source-line="16" data-uid="ent0011" id="entity_Redis"><rect fill="#F1F1F1" height="46.2969" rx="2.5" ry="2.5" style="stroke:#181818;stroke-width:0.5;" width="126.3994" x="1186.8" y="141.6469"/><rect fill="#F1F1F1" height="10" style="stroke:#181818;stroke-width:0.5;" width="15" x="1293.1994" y="146.6469"/><rect fill="#F1F1F1" height="2" style="stroke:#181818;stroke-width:0.5;" width="4" x="1291.1994" y="148.6469"/><rect fill="#F1F1F1" height="2" style="stroke:#181818;stroke-width:0.5;" width="4" x="1291.1994" y="152.6469"/><text fill="#000000" font-family="sans-serif" font-size="14" lengthAdjust="spacing" textLength="86.3994" x="1201.8" y="174.642">Redis Cache</text></g><!--entity QueryCache--><g class="entity" data-entity="QueryCache" data-source-line="20" data-uid="ent0013" id="entity_QueryCache"><rect fill="#F1F1F1" height="46.2969" rx="2.5" ry="2.5" style="stroke:#181818;stroke-width:0.5;" width="130.5352" x="1558.73" y="141.6469"/><rect fill="#F1F1F1" height="10" style="stroke:#181818;stroke-width:0.5;" width="15" x="1669.2652" y="146.6469"/><rect fill="#F1F1F1" height="2" style="stroke:#181818;stroke-width:0.5;" width="4" x="1667.2652" y="148.6469"/><rect fill="#F1F1F1" height="2" style="stroke:#181818;stroke-width:0.5;" width="4" x="1667.2652" y="152.6469"/><text fill="#000000" font-family="sans-serif" font-size="14" lengthAdjust="spacing" textLength="90.5352" x="1573.73" y="174.642">Query Cache</text></g><!--entity Database--><g class="entity" data-entity="Database" data-source-line="21" data-uid="ent0014" id="entity_Database"><rect fill="#F1F1F1" height="46.2969" rx="2.5" ry="2.5" style="stroke:#181818;stroke-width:0.5;" width="106.8008" x="1797.6" y="141.6469"/><rect fill="#F1F1F1" height="10" style="stroke:#181818;stroke-width:0.5;" width="15" x="1884.4008" y="146.6469"/><rect fill="#F1F1F1" height="2" style="stroke:#181818;stroke-width:0.5;" width="4" x="1882.4008" y="148.6469"/><rect fill="#F1F1F1" height="2" style="stroke:#181818;stroke-width:0.5;" width="4" x="1882.4008" y="152.6469"/><text fill="#000000" font-family="sans-serif" font-size="14" lengthAdjust="spacing" textLength="66.8008" x="1812.6" y="174.642">Database</text></g><g class="entity" data-entity="GMN28" data-source-line="38" data-uid="ent0029" id="entity_GMN28"><path d="M1939.04,144.6669 L1939.04,184.9325 L2074.958,184.9325 L2074.958,154.6669 L2064.958,144.6669 L1939.04,144.6669" fill="#FEFFDD" style="stroke:#181818;stroke-width:0.5;"/><path d="M2064.958,144.6669 L2064.958,154.6669 L2074.958,154.6669 L2064.958,144.6669" fill="#FEFFDD" style="stroke:#181818;stroke-width:1;"/><text fill="#000000" font-family="sans-serif" font-size="13" lengthAdjust="spacing" textLength="114.918" x="1945.04" y="161.7338">Distributed cache</text><text fill="#000000" font-family="sans-serif" font-size="13" lengthAdjust="spacing" textLength="103.543" x="1945.04" y="176.8666">for session data</text></g><g class="entity" data-entity="GMN31" data-source-line="39" data-uid="ent0032" id="entity_GMN31"><path d="M2110.23,144.6669 L2110.23,184.9325 L2253.7715,184.9325 L2253.7715,154.6669 L2243.7715,144.6669 L2110.23,144.6669" fill="#FEFFDD" style="stroke:#181818;stroke-width:0.5;"/><path d="M2243.7715,144.6669 L2243.7715,154.6669 L2253.7715,154.6669 L2243.7715,144.6669" fill="#FEFFDD" style="stroke:#181818;stroke-width:1;"/><text fill="#000000" font-family="sans-serif" font-size="13" lengthAdjust="spacing" textLength="97.6333" x="2116.23" y="161.7338">Database-level</text><text fill="#000000" font-family="sans-serif" font-size="13" lengthAdjust="spacing" textLength="122.5415" x="2116.23" y="176.8666">query optimization</text></g><!--link BrowserCache to CDN--><g class="link" data-entity-1="BrowserCache" data-entity-2="CDN" data-source-line="24" data-uid="lnk15" id="link_BrowserCache_CDN"><path d="M111.54,141.3369 C127.62,120.7269 154.09,92.1569 185,79.6469 C232.59,60.3969 368.4,58.6969 416,77.9269 C447.41,90.6169 470.3419,115.3105 486.2919,136.4105" fill="none" id="BrowserCache-to-CDN" style="stroke:#181818;stroke-width:1;"/><polygon fill="#181818" points="489.91,141.1969,487.6737,131.6053,486.8949,137.2082,481.2919,136.4294,489.91,141.1969" style="stroke:#181818;stroke-width:1;"/><text fill="#000000" font-family="sans-serif" font-size="13" lengthAdjust="spacing" textLength="74.3818" x="341" y="67.7138">Cache miss</text></g><!--link CDN to BrowserCache--><g class="link" data-entity-1="CDN" data-entity-2="BrowserCache" data-source-line="36" data-uid="lnk27" id="link_CDN_BrowserCache"><path d="M489.91,141.1969 C473.96,120.0969 447.41,90.6169 416,77.9269 C368.4,58.6969 232.59,60.3969 185,79.6469 C154.09,92.1569 131.3108,115.9963 115.2308,136.6063" fill="none" id="CDN-to-BrowserCache" style="stroke:#181818;stroke-width:1;"/><polygon fill="#181818" points="111.54,141.3369,120.2299,136.7016,114.6157,137.3948,113.9225,131.7805,111.54,141.3369" style="stroke:#181818;stroke-width:1;"/><text fill="#000000" font-family="sans-serif" font-size="13" lengthAdjust="spacing" textLength="77.3652" x="339.5" y="67.7138">Return data</text></g><!--link MobileCache to CDN--><g class="link" data-entity-1="MobileCache" data-entity-2="CDN" data-source-line="25" data-uid="lnk16" id="link_MobileCache_CDN"><path d="M336.28,164.7969 C370.9,164.7969 406.75,164.7969 440.23,164.7969" fill="none" id="MobileCache-to-CDN" style="stroke:#181818;stroke-width:1;"/><polygon fill="#181818" points="446.23,164.7969,437.23,160.7969,441.23,164.7969,437.23,168.7969,446.23,164.7969" style="stroke:#181818;stroke-width:1;"/><text fill="#000000" font-family="sans-serif" font-size="13" lengthAdjust="spacing" textLength="74.3818" x="354.22" y="157.8638">Cache miss</text></g><!--link CDN to EdgeCache--><g class="link" data-entity-1="CDN" data-entity-2="EdgeCache" data-source-line="26" data-uid="lnk17" id="link_CDN_EdgeCache"><path d="M565.75,164.7969 C599.58,164.7969 635.84,164.7969 670.03,164.7969" fill="none" id="CDN-to-EdgeCache" style="stroke:#181818;stroke-width:1;"/><polygon fill="#181818" points="676.03,164.7969,667.03,160.7969,671.03,164.7969,667.03,168.7969,676.03,164.7969" style="stroke:#181818;stroke-width:1;"/><text fill="#000000" font-family="sans-serif" font-size="13" lengthAdjust="spacing" textLength="74.3818" x="583.95" y="157.8638">Cache miss</text></g><!--link EdgeCache to CDN--><g class="link" data-entity-1="EdgeCache" data-entity-2="CDN" data-source-line="35" data-uid="lnk26" id="link_EdgeCache_CDN"><path d="M676.18,181.9069 C670.22,183.0769 664.24,184.0769 658.45,184.7969 C625.37,188.8969 616.52,188.9969 583.45,184.7969 C577.66,184.0669 577.5693,184.2245 571.6293,183.0145" fill="none" id="EdgeCache-to-CDN" style="stroke:#181818;stroke-width:1;"/><polygon fill="#181818" points="565.75,181.8169,573.7705,187.5328,570.6494,182.8149,575.3673,179.6938,565.75,181.8169" style="stroke:#181818;stroke-width:1;"/><text fill="#000000" font-family="sans-serif" font-size="13" lengthAdjust="spacing" textLength="73.8423" x="584.45" y="180.8638">Cache data</text></g><!--link EdgeCache to AppCache--><g class="link" data-entity-1="EdgeCache" data-entity-2="AppCache" data-source-line="27" data-uid="lnk18" id="link_EdgeCache_AppCache"><path d="M800.05,164.7969 C832.93,164.7969 867.77,164.7969 903.4,164.7969" fill="none" id="EdgeCache-to-AppCache" style="stroke:#181818;stroke-width:1;"/><polygon fill="#181818" points="909.4,164.7969,900.4,160.7969,904.4,164.7969,900.4,168.7969,909.4,164.7969" style="stroke:#181818;stroke-width:1;"/><text fill="#000000" font-family="sans-serif" font-size="13" lengthAdjust="spacing" textLength="74.3818" x="817.75" y="180.8638">Cache miss</text></g><!--link AppCache to EdgeCache--><g class="link" data-entity-1="AppCache" data-entity-2="EdgeCache" data-source-line="34" data-uid="lnk25" id="link_AppCache_EdgeCache"><path d="M909.49,146.8569 C903.85,146.0469 898.23,145.3369 892.75,144.7969 C859.14,141.4769 850.27,140.6069 816.75,144.7969 C811.29,145.4769 811.5579,145.2624 805.9479,146.3624" fill="none" id="AppCache-to-EdgeCache" style="stroke:#181818;stroke-width:1;"/><polygon fill="#181818" points="800.06,147.5169,809.6615,149.7104,804.9666,146.5548,808.1222,141.8599,800.06,147.5169" style="stroke:#181818;stroke-width:1;"/><text fill="#000000" font-family="sans-serif" font-size="13" lengthAdjust="spacing" textLength="73.8423" x="818.25" y="134.8638">Cache data</text></g><!--link AppCache to Redis--><g class="link" data-entity-1="AppCache" data-entity-2="Redis" data-source-line="28" data-uid="lnk19" id="link_AppCache_Redis"><path d="M1076.4,182.6969 C1082.16,183.5269 1087.88,184.2469 1093.45,184.7969 C1127.07,188.1169 1135.93,188.8969 1169.45,184.7969 C1175.03,184.1169 1174.8876,184.3081 1180.6176,183.2081" fill="none" id="AppCache-to-Redis" style="stroke:#181818;stroke-width:1;"/><polygon fill="#181818" points="1186.51,182.0769,1176.9173,179.8454,1181.5997,183.0195,1178.4255,187.7019,1186.51,182.0769" style="stroke:#181818;stroke-width:1;"/><text fill="#000000" font-family="sans-serif" font-size="13" lengthAdjust="spacing" textLength="74.3818" x="1094.45" y="180.8638">Cache miss</text></g><!--link Redis to AppCache--><g class="link" data-entity-1="Redis" data-entity-2="AppCache" data-source-line="33" data-uid="lnk24" id="link_Redis_AppCache"><path d="M1186.52,164.7969 C1153.3,164.7969 1118.2,164.7969 1082.44,164.7969" fill="none" id="Redis-to-AppCache" style="stroke:#181818;stroke-width:1;"/><polygon fill="#181818" points="1076.44,164.7969,1085.44,168.7969,1081.44,164.7969,1085.44,160.7969,1076.44,164.7969" style="stroke:#181818;stroke-width:1;"/><text fill="#000000" font-family="sans-serif" font-size="13" lengthAdjust="spacing" textLength="77.3652" x="1092.95" y="157.8638">Return data</text></g><!--link Redis to QueryCache--><g class="link" data-entity-1="Redis" data-entity-2="QueryCache" data-source-line="29" data-uid="lnk20" id="link_Redis_QueryCache"><path d="M1264.34,141.3969 C1278.43,120.8369 1302.01,92.2869 1331,79.6469 C1377.34,59.4469 1513.25,55.3769 1558.5,77.9269 C1584.87,91.0669 1600.7477,115.0898 1611.2177,136.0398" fill="none" id="Redis-to-QueryCache" style="stroke:#181818;stroke-width:1;"/><polygon fill="#181818" points="1613.9,141.4069,1613.4547,131.5681,1611.6648,136.9343,1606.2986,135.1444,1613.9,141.4069" style="stroke:#181818;stroke-width:1;"/><text fill="#000000" font-family="sans-serif" font-size="13" lengthAdjust="spacing" textLength="74.3818" x="1480" y="67.7138">Cache miss</text></g><!--link QueryCache to Redis--><g class="link" data-entity-1="QueryCache" data-entity-2="Redis" data-source-line="32" data-uid="lnk23" id="link_QueryCache_Redis"><path d="M1613.9,141.4069 C1603.43,120.4569 1584.87,91.0669 1558.5,77.9269 C1513.25,55.3769 1377.34,59.4469 1331,79.6469 C1302.01,92.2869 1281.8218,115.8876 1267.7318,136.4476" fill="none" id="QueryCache-to-Redis" style="stroke:#181818;stroke-width:1;"/><polygon fill="#181818" points="1264.34,141.3969,1272.7273,136.2341,1267.1665,137.2725,1266.1282,131.7117,1264.34,141.3969" style="stroke:#181818;stroke-width:1;"/><text fill="#000000" font-family="sans-serif" font-size="13" lengthAdjust="spacing" textLength="81.6245" x="1476.5" y="67.7138">Cache result</text></g><!--link QueryCache to Database--><g class="link" data-entity-1="QueryCache" data-entity-2="Database" data-source-line="30" data-uid="lnk21" id="link_QueryCache_Database"><path d="M1689.44,182.1569 C1695.15,183.2269 1700.88,184.1369 1706.43,184.7969 C1739.09,188.7069 1747.86,189.3269 1780.43,184.7969 C1785.98,184.0269 1785.8568,184.2459 1791.5368,182.9659" fill="none" id="QueryCache-to-Database" style="stroke:#181818;stroke-width:1;"/><polygon fill="#181818" points="1797.39,181.6469,1787.7308,179.7233,1792.5123,182.7461,1789.4895,187.5276,1797.39,181.6469" style="stroke:#181818;stroke-width:1;"/><text fill="#000000" font-family="sans-serif" font-size="13" lengthAdjust="spacing" textLength="72.9219" x="1707.43" y="180.8638">Query data</text></g><!--link Database to QueryCache--><g class="link" data-entity-1="Database" data-entity-2="QueryCache" data-source-line="31" data-uid="lnk22" id="link_Database_QueryCache"><path d="M1797.33,164.7969 C1765.09,164.7969 1729.83,164.7969 1695.66,164.7969" fill="none" id="Database-to-QueryCache" style="stroke:#181818;stroke-width:1;"/><polygon fill="#181818" points="1689.66,164.7969,1698.66,168.7969,1694.66,164.7969,1698.66,160.7969,1689.66,164.7969" style="stroke:#181818;stroke-width:1;"/><text fill="#000000" font-family="sans-serif" font-size="13" lengthAdjust="spacing" textLength="77.3652" x="1704.93" y="157.8638">Return data</text></g><!--link Redis to GMN28--><g class="link" data-entity-1="Redis" data-entity-2="GMN28" data-source-line="38" data-uid="lnk30" id="link_Redis_GMN28"><path d="M1263.88,141.5769 C1280.39,116.6369 1310.53,78.6969 1348.5,64.6469 C1377.37,53.9669 1873.63,53.9669 1902.5,64.6469 C1943.04,79.6469 1976.28,119.6969 1993.72,144.3669" fill="none" id="Redis-GMN28" style="stroke:#181818;stroke-width:1;stroke-dasharray:7,7;"/></g><!--link QueryCache to GMN31--><g class="link" data-entity-1="QueryCache" data-entity-2="GMN31" data-source-line="39" data-uid="lnk33" id="link_QueryCache_GMN31"><path d="M1653.47,141.2369 C1686.36,116.5869 1742.24,79.4569 1797.5,64.6469 C1856.96,48.7169 2016.77,43.2969 2074.5,64.6469 C2115.65,79.8669 2150.03,119.8469 2168.16,144.4469" fill="none" id="QueryCache-GMN31" style="stroke:#181818;stroke-width:1;stroke-dasharray:7,7;"/></g><!--SRC=[TLHDRuCm3BtdLrZS-GCS9ctjRksajTTUKd2fDPgm96pgflttvGD8qb8EI7v-URQV0uPCXx0TEaFb1h-mWnMlpoHQs1l53RPNndfUV_0MeLXrXCB0XbzH5V3Bm3wrlFHIEBXuKV9Re_8AM03NC28Uk6LlvP5iwKWEGE3-9LLV6_j-L7ErVaiaR7HByASZmuNt9PxxlgEQ6vBYOQMK4_KikZZT7hNEcIEooDvXGphX-ZZhSCqDFtBzs8Zt0TKraV3nOh59ojEcm1LBjmNbatEp2efm8QrPig2bj5k5XMU7i-ICEifaMiQOG4VmysVPu91DnRcoV8GTQPgg2dHeRCnc2szKTcW69G8dbydQKAZjLn8RYKEa0kaKTqvuHkP4ug5FZXwccyZrcP36zaBjsO0yXGwXWZLfe-Wu66oWTgSEuYGLwF4M-gFvoMJIQlQhxDmlu20-lMkoDtIX7t_bsJy0]--></g></svg>