<svg xmlns="http://www.w3.org/2000/svg" xmlns:xlink="http://www.w3.org/1999/xlink" contentStyleType="text/css" data-diagram-type="SEQUENCE" height="327px" preserveAspectRatio="none" style="width:546px;height:327px;background:#FFFFFF;" version="1.1" viewBox="0 0 546 327" width="546px" zoomAndPan="magnify"><defs/><g><g><title>Admin</title><rect fill="#000000" fill-opacity="0.00000" height="165.6641" width="8" x="26.4321" y="81.2969"/><line style="stroke:#181818;stroke-width:0.5;stroke-dasharray:5,5;" x1="30" x2="30" y1="81.2969" y2="246.9609"/></g><g><title>Visual IDE</title><rect fill="#000000" fill-opacity="0.00000" height="165.6641" width="8" x="156.457" y="81.2969"/><line style="stroke:#181818;stroke-width:0.5;stroke-dasharray:5,5;" x1="160.3032" x2="160.3032" y1="81.2969" y2="246.9609"/></g><g><title>Self-Healing Agent</title><rect fill="#000000" fill-opacity="0.00000" height="165.6641" width="8" x="280.8701" y="81.2969"/><line style="stroke:#181818;stroke-width:0.5;stroke-dasharray:5,5;" x1="284.6108" x2="284.6108" y1="81.2969" y2="246.9609"/></g><g><title>Monitoring Dashboard</title><rect fill="#000000" fill-opacity="0.00000" height="165.6641" width="8" x="452.1675" y="81.2969"/><line style="stroke:#181818;stroke-width:0.5;stroke-dasharray:5,5;" x1="455.4087" x2="455.4087" y1="81.2969" y2="246.9609"/></g><g class="participant participant-head" data-participant="Admin"><text fill="#000000" font-family="sans-serif" font-size="14" lengthAdjust="spacing" textLength="44.8643" x="5" y="77.9951">Admin</text><ellipse cx="30.4321" cy="13.5" fill="#E2E2F0" rx="8" ry="8" style="stroke:#181818;stroke-width:0.5;"/><path d="M30.4321,21.5 L30.4321,48.5 M17.4321,29.5 L43.4321,29.5 M30.4321,48.5 L17.4321,63.5 M30.4321,48.5 L43.4321,63.5" fill="none" style="stroke:#181818;stroke-width:0.5;"/></g><g class="participant participant-tail" data-participant="Admin"><text fill="#000000" font-family="sans-serif" font-size="14" lengthAdjust="spacing" textLength="44.8643" x="5" y="258.9561">Admin</text><ellipse cx="30.4321" cy="270.7578" fill="#E2E2F0" rx="8" ry="8" style="stroke:#181818;stroke-width:0.5;"/><path d="M30.4321,278.7578 L30.4321,305.7578 M17.4321,286.7578 L43.4321,286.7578 M30.4321,305.7578 L17.4321,320.7578 M30.4321,305.7578 L43.4321,320.7578" fill="none" style="stroke:#181818;stroke-width:0.5;"/></g><g class="participant participant-head" data-participant="IDE"><rect fill="#E2E2F0" height="30.2969" rx="2.5" ry="2.5" style="stroke:#181818;stroke-width:0.5;" width="84.3076" x="118.3032" y="50"/><text fill="#000000" font-family="sans-serif" font-size="14" lengthAdjust="spacing" textLength="70.3076" x="125.3032" y="69.9951">Visual IDE</text></g><g class="participant participant-tail" data-participant="IDE"><rect fill="#E2E2F0" height="30.2969" rx="2.5" ry="2.5" style="stroke:#181818;stroke-width:0.5;" width="84.3076" x="118.3032" y="245.9609"/><text fill="#000000" font-family="sans-serif" font-size="14" lengthAdjust="spacing" textLength="70.3076" x="125.3032" y="265.9561">Visual IDE</text></g><g class="participant participant-head" data-participant="Agent"><rect fill="#E2E2F0" height="30.2969" rx="2.5" ry="2.5" style="stroke:#181818;stroke-width:0.5;" width="144.5186" x="212.6108" y="50"/><text fill="#000000" font-family="sans-serif" font-size="14" lengthAdjust="spacing" textLength="130.5186" x="219.6108" y="69.9951">Self-Healing Agent</text></g><g class="participant participant-tail" data-participant="Agent"><rect fill="#E2E2F0" height="30.2969" rx="2.5" ry="2.5" style="stroke:#181818;stroke-width:0.5;" width="144.5186" x="212.6108" y="245.9609"/><text fill="#000000" font-family="sans-serif" font-size="14" lengthAdjust="spacing" textLength="130.5186" x="219.6108" y="265.9561">Self-Healing Agent</text></g><g class="participant participant-head" data-participant="Mon"><rect fill="#E2E2F0" height="30.2969" rx="2.5" ry="2.5" style="stroke:#181818;stroke-width:0.5;" width="169.5176" x="371.4087" y="50"/><text fill="#000000" font-family="sans-serif" font-size="14" lengthAdjust="spacing" textLength="155.5176" x="378.4087" y="69.9951">Monitoring Dashboard</text></g><g class="participant participant-tail" data-participant="Mon"><rect fill="#E2E2F0" height="30.2969" rx="2.5" ry="2.5" style="stroke:#181818;stroke-width:0.5;" width="169.5176" x="371.4087" y="245.9609"/><text fill="#000000" font-family="sans-serif" font-size="14" lengthAdjust="spacing" textLength="155.5176" x="378.4087" y="265.9561">Monitoring Dashboard</text></g><g class="message" data-participant-1="Admin" data-participant-2="IDE"><polygon fill="#181818" points="148.457,108.4297,158.457,112.4297,148.457,116.4297,152.457,112.4297" style="stroke:#181818;stroke-width:1;"/><line style="stroke:#181818;stroke-width:1;" x1="30.4321" x2="154.457" y1="112.4297" y2="112.4297"/><text fill="#000000" font-family="sans-serif" font-size="13" lengthAdjust="spacing" textLength="106.0249" x="37.4321" y="107.3638">View Dashboard</text></g><g class="message" data-participant-1="IDE" data-participant-2="Mon"><polygon fill="#181818" points="444.1675,137.5625,454.1675,141.5625,444.1675,145.5625,448.1675,141.5625" style="stroke:#181818;stroke-width:1;"/><line style="stroke:#181818;stroke-width:1;" x1="160.457" x2="450.1675" y1="141.5625" y2="141.5625"/><text fill="#000000" font-family="sans-serif" font-size="13" lengthAdjust="spacing" textLength="98.9473" x="167.457" y="136.4966">Request Status</text></g><g class="message" data-participant-1="Mon" data-participant-2="Agent"><polygon fill="#181818" points="295.8701,166.6953,285.8701,170.6953,295.8701,174.6953,291.8701,170.6953" style="stroke:#181818;stroke-width:1;"/><line style="stroke:#181818;stroke-width:1;" x1="289.8701" x2="455.1675" y1="170.6953" y2="170.6953"/><text fill="#000000" font-family="sans-serif" font-size="13" lengthAdjust="spacing" textLength="69.8369" x="301.8701" y="165.6294">Poll Health</text></g><g class="message" data-participant-1="Agent" data-participant-2="Mon"><polygon fill="#181818" points="444.1675,195.8281,454.1675,199.8281,444.1675,203.8281,448.1675,199.8281" style="stroke:#181818;stroke-width:1;"/><line style="stroke:#181818;stroke-width:1;" x1="284.8701" x2="450.1675" y1="199.8281" y2="199.8281"/><text fill="#000000" font-family="sans-serif" font-size="13" lengthAdjust="spacing" textLength="147.2974" x="291.8701" y="194.7622">Health/Incident Report</text></g><g class="message" data-participant-1="Mon" data-participant-2="IDE"><polygon fill="#181818" points="171.457,224.9609,161.457,228.9609,171.457,232.9609,167.457,228.9609" style="stroke:#181818;stroke-width:1;"/><line style="stroke:#181818;stroke-width:1;" x1="165.457" x2="455.1675" y1="228.9609" y2="228.9609"/><text fill="#000000" font-family="sans-serif" font-size="13" lengthAdjust="spacing" textLength="121.9702" x="177.457" y="223.895">Update Dashboard</text></g><!--SRC=[LOun2uCm44Rt_8h3NRftA0WMwb0eIjslUjM3D4cJa_xz9f5Md0pVU_451x4Ugl75HZdqmWCxD095ps513KrzBW13-kvvH_fPNWWrcmcgYOnaBv_svjKQZf7arHZcXqK_PZS2bSjGdb80Zj0pVJPBfJ6oA4RMqdkX8D09oX9K6YFBmKXlLcj8xv5PhTl_uheU6ZFmc41Bpdhv_M0Dtzs8Gblw2m00]--></g></svg>