<svg xmlns="http://www.w3.org/2000/svg" xmlns:xlink="http://www.w3.org/1999/xlink" contentStyleType="text/css" data-diagram-type="SEQUENCE" height="637px" preserveAspectRatio="none" style="width:784px;height:637px;background:#FFFFFF;" version="1.1" viewBox="0 0 784 637" width="784px" zoomAndPan="magnify"><title>Real-time Collaboration System</title><defs/><g><text fill="#000000" font-family="sans-serif" font-size="14" font-weight="bold" lengthAdjust="spacing" textLength="249.9766" x="266.3828" y="27.9951">Real-time Collaboration System</text><g><title>User A</title><rect fill="#000000" fill-opacity="0.00000" height="528.2578" width="8" x="30.9688" y="73.5938"/><line style="stroke:#181818;stroke-width:0.5;stroke-dasharray:5,5;" x1="34" x2="34" y1="73.5938" y2="601.8516"/></g><g><title>User B</title><rect fill="#000000" fill-opacity="0.00000" height="528.2578" width="8" x="100.9199" y="73.5938"/><line style="stroke:#181818;stroke-width:0.5;stroke-dasharray:5,5;" x1="103.9375" x2="103.9375" y1="73.5938" y2="601.8516"/></g><g><title>Collaboration Server</title><rect fill="#000000" fill-opacity="0.00000" height="528.2578" width="8" x="251.4731" y="73.5938"/><line style="stroke:#181818;stroke-width:0.5;stroke-dasharray:5,5;" x1="254.6411" x2="254.6411" y1="73.5938" y2="601.8516"/></g><g><title>Conflict Resolver</title><rect fill="#000000" fill-opacity="0.00000" height="528.2578" width="8" x="406.4565" y="73.5938"/><line style="stroke:#181818;stroke-width:0.5;stroke-dasharray:5,5;" x1="410.3052" x2="410.3052" y1="73.5938" y2="601.8516"/></g><g><title>Version Control</title><rect fill="#000000" fill-opacity="0.00000" height="528.2578" width="8" x="546.0474" y="73.5938"/><line style="stroke:#181818;stroke-width:0.5;stroke-dasharray:5,5;" x1="549.0811" x2="549.0811" y1="73.5938" y2="601.8516"/></g><g><title>Broadcast Service</title><rect fill="#000000" fill-opacity="0.00000" height="528.2578" width="8" x="704.4209" y="73.5938"/><line style="stroke:#181818;stroke-width:0.5;stroke-dasharray:5,5;" x1="708.0996" x2="708.0996" y1="73.5938" y2="601.8516"/></g><g class="participant participant-head" data-participant="UserA"><rect fill="#E2E2F0" height="30.2969" rx="2.5" ry="2.5" style="stroke:#181818;stroke-width:0.5;" width="59.9375" x="5" y="42.2969"/><text fill="#000000" font-family="sans-serif" font-size="14" lengthAdjust="spacing" textLength="45.9375" x="12" y="62.292">User A</text></g><g class="participant participant-tail" data-participant="UserA"><rect fill="#E2E2F0" height="30.2969" rx="2.5" ry="2.5" style="stroke:#181818;stroke-width:0.5;" width="59.9375" x="5" y="600.8516"/><text fill="#000000" font-family="sans-serif" font-size="14" lengthAdjust="spacing" textLength="45.9375" x="12" y="620.8467">User A</text></g><g class="participant participant-head" data-participant="UserB"><rect fill="#E2E2F0" height="30.2969" rx="2.5" ry="2.5" style="stroke:#181818;stroke-width:0.5;" width="59.9648" x="74.9375" y="42.2969"/><text fill="#000000" font-family="sans-serif" font-size="14" lengthAdjust="spacing" textLength="45.9648" x="81.9375" y="62.292">User B</text></g><g class="participant participant-tail" data-participant="UserB"><rect fill="#E2E2F0" height="30.2969" rx="2.5" ry="2.5" style="stroke:#181818;stroke-width:0.5;" width="59.9648" x="74.9375" y="600.8516"/><text fill="#000000" font-family="sans-serif" font-size="14" lengthAdjust="spacing" textLength="45.9648" x="81.9375" y="620.8467">User B</text></g><g class="participant participant-head" data-participant="CollabServer"><rect fill="#E2E2F0" height="30.2969" rx="2.5" ry="2.5" style="stroke:#181818;stroke-width:0.5;" width="157.6641" x="176.6411" y="42.2969"/><text fill="#000000" font-family="sans-serif" font-size="14" lengthAdjust="spacing" textLength="143.6641" x="183.6411" y="62.292">Collaboration Server</text></g><g class="participant participant-tail" data-participant="CollabServer"><rect fill="#E2E2F0" height="30.2969" rx="2.5" ry="2.5" style="stroke:#181818;stroke-width:0.5;" width="157.6641" x="176.6411" y="600.8516"/><text fill="#000000" font-family="sans-serif" font-size="14" lengthAdjust="spacing" textLength="143.6641" x="183.6411" y="620.8467">Collaboration Server</text></g><g class="participant participant-head" data-participant="Resolver"><rect fill="#E2E2F0" height="30.2969" rx="2.5" ry="2.5" style="stroke:#181818;stroke-width:0.5;" width="132.3027" x="344.3052" y="42.2969"/><text fill="#000000" font-family="sans-serif" font-size="14" lengthAdjust="spacing" textLength="118.3027" x="351.3052" y="62.292">Conflict Resolver</text></g><g class="participant participant-tail" data-participant="Resolver"><rect fill="#E2E2F0" height="30.2969" rx="2.5" ry="2.5" style="stroke:#181818;stroke-width:0.5;" width="132.3027" x="344.3052" y="600.8516"/><text fill="#000000" font-family="sans-serif" font-size="14" lengthAdjust="spacing" textLength="118.3027" x="351.3052" y="620.8467">Conflict Resolver</text></g><g class="participant participant-head" data-participant="VersionCtrl"><rect fill="#E2E2F0" height="30.2969" rx="2.5" ry="2.5" style="stroke:#181818;stroke-width:0.5;" width="121.9326" x="489.0811" y="42.2969"/><text fill="#000000" font-family="sans-serif" font-size="14" lengthAdjust="spacing" textLength="107.9326" x="496.0811" y="62.292">Version Control</text></g><g class="participant participant-tail" data-participant="VersionCtrl"><rect fill="#E2E2F0" height="30.2969" rx="2.5" ry="2.5" style="stroke:#181818;stroke-width:0.5;" width="121.9326" x="489.0811" y="600.8516"/><text fill="#000000" font-family="sans-serif" font-size="14" lengthAdjust="spacing" textLength="107.9326" x="496.0811" y="620.8467">Version Control</text></g><g class="participant participant-head" data-participant="Broadcast"><rect fill="#E2E2F0" height="30.2969" rx="2.5" ry="2.5" style="stroke:#181818;stroke-width:0.5;" width="140.6426" x="638.0996" y="42.2969"/><text fill="#000000" font-family="sans-serif" font-size="14" lengthAdjust="spacing" textLength="126.6426" x="645.0996" y="62.292">Broadcast Service</text></g><g class="participant participant-tail" data-participant="Broadcast"><rect fill="#E2E2F0" height="30.2969" rx="2.5" ry="2.5" style="stroke:#181818;stroke-width:0.5;" width="140.6426" x="638.0996" y="600.8516"/><text fill="#000000" font-family="sans-serif" font-size="14" lengthAdjust="spacing" textLength="126.6426" x="645.0996" y="620.8467">Broadcast Service</text></g><g class="message" data-participant-1="UserA" data-participant-2="CollabServer"><polygon fill="#181818" points="243.4731,100.7266,253.4731,104.7266,243.4731,108.7266,247.4731,104.7266" style="stroke:#181818;stroke-width:1;"/><line style="stroke:#181818;stroke-width:1;" x1="34.9688" x2="249.4731" y1="104.7266" y2="104.7266"/><text fill="#000000" font-family="sans-serif" font-size="13" lengthAdjust="spacing" textLength="92.6567" x="41.9688" y="99.6606">Edit flow node</text></g><g class="message" data-participant-1="CollabServer" data-participant-2="Resolver"><polygon fill="#181818" points="398.4565,129.8594,408.4565,133.8594,398.4565,137.8594,402.4565,133.8594" style="stroke:#181818;stroke-width:1;"/><line style="stroke:#181818;stroke-width:1;" x1="255.4731" x2="404.4565" y1="133.8594" y2="133.8594"/><text fill="#000000" font-family="sans-serif" font-size="13" lengthAdjust="spacing" textLength="98.2808" x="262.4731" y="128.7935">Check conflicts</text></g><g class="message" data-participant-1="Resolver" data-participant-2="VersionCtrl"><polygon fill="#181818" points="538.0474,158.9922,548.0474,162.9922,538.0474,166.9922,542.0474,162.9922" style="stroke:#181818;stroke-width:1;"/><line style="stroke:#181818;stroke-width:1;" x1="410.4565" x2="544.0474" y1="162.9922" y2="162.9922"/><text fill="#000000" font-family="sans-serif" font-size="13" lengthAdjust="spacing" textLength="115.5908" x="417.4565" y="157.9263">Get latest version</text></g><g class="message" data-participant-1="VersionCtrl" data-participant-2="Resolver"><polygon fill="#181818" points="421.4565,188.125,411.4565,192.125,421.4565,196.125,417.4565,192.125" style="stroke:#181818;stroke-width:1;"/><line style="stroke:#181818;stroke-width:1;" x1="415.4565" x2="549.0474" y1="192.125" y2="192.125"/><text fill="#000000" font-family="sans-serif" font-size="13" lengthAdjust="spacing" textLength="95.6973" x="427.4565" y="187.0591">Return version</text></g><g class="message" data-participant-1="Resolver" data-participant-2="CollabServer"><polygon fill="#181818" points="266.4731,217.2578,256.4731,221.2578,266.4731,225.2578,262.4731,221.2578" style="stroke:#181818;stroke-width:1;"/><line style="stroke:#181818;stroke-width:1;" x1="260.4731" x2="409.4565" y1="221.2578" y2="221.2578"/><text fill="#000000" font-family="sans-serif" font-size="13" lengthAdjust="spacing" textLength="75.9688" x="272.4731" y="216.1919">No conflicts</text></g><g class="message" data-participant-1="CollabServer" data-participant-2="Broadcast"><polygon fill="#181818" points="696.4209,246.3906,706.4209,250.3906,696.4209,254.3906,700.4209,250.3906" style="stroke:#181818;stroke-width:1;"/><line style="stroke:#181818;stroke-width:1;" x1="255.4731" x2="702.4209" y1="250.3906" y2="250.3906"/><text fill="#000000" font-family="sans-serif" font-size="13" lengthAdjust="spacing" textLength="117.3936" x="262.4731" y="245.3247">Broadcast change</text></g><g class="message" data-participant-1="Broadcast" data-participant-2="UserB"><polygon fill="#181818" points="115.9199,275.5234,105.9199,279.5234,115.9199,283.5234,111.9199,279.5234" style="stroke:#181818;stroke-width:1;"/><line style="stroke:#181818;stroke-width:1;" x1="109.9199" x2="707.4209" y1="279.5234" y2="279.5234"/><text fill="#000000" font-family="sans-serif" font-size="13" lengthAdjust="spacing" textLength="64.562" x="121.9199" y="274.4575">Update UI</text></g><g class="message" data-participant-1="UserB" data-participant-2="CollabServer"><polygon fill="#181818" points="243.4731,304.6563,253.4731,308.6563,243.4731,312.6563,247.4731,308.6563" style="stroke:#181818;stroke-width:1;"/><line style="stroke:#181818;stroke-width:1;" x1="104.9199" x2="249.4731" y1="308.6563" y2="308.6563"/><text fill="#000000" font-family="sans-serif" font-size="13" lengthAdjust="spacing" textLength="101.2832" x="111.9199" y="303.5903">Edit same node</text></g><g class="message" data-participant-1="CollabServer" data-participant-2="Resolver"><polygon fill="#181818" points="398.4565,333.7891,408.4565,337.7891,398.4565,341.7891,402.4565,337.7891" style="stroke:#181818;stroke-width:1;"/><line style="stroke:#181818;stroke-width:1;" x1="255.4731" x2="404.4565" y1="337.7891" y2="337.7891"/><text fill="#000000" font-family="sans-serif" font-size="13" lengthAdjust="spacing" textLength="98.2808" x="262.4731" y="332.7231">Check conflicts</text></g><g class="message" data-participant-1="Resolver" data-participant-2="Resolver"><line style="stroke:#181818;stroke-width:1;" x1="410.4565" x2="452.4565" y1="366.9219" y2="366.9219"/><line style="stroke:#181818;stroke-width:1;" x1="452.4565" x2="452.4565" y1="366.9219" y2="379.9219"/><line style="stroke:#181818;stroke-width:1;" x1="411.4565" x2="452.4565" y1="379.9219" y2="379.9219"/><polygon fill="#181818" points="421.4565,375.9219,411.4565,379.9219,421.4565,383.9219,417.4565,379.9219" style="stroke:#181818;stroke-width:1;"/><text fill="#000000" font-family="sans-serif" font-size="13" lengthAdjust="spacing" textLength="94.8657" x="417.4565" y="361.856">Detect conflict</text></g><g class="message" data-participant-1="Resolver" data-participant-2="CollabServer"><polygon fill="#181818" points="266.4731,405.0547,256.4731,409.0547,266.4731,413.0547,262.4731,409.0547" style="stroke:#181818;stroke-width:1;"/><line style="stroke:#181818;stroke-width:1;" x1="260.4731" x2="409.4565" y1="409.0547" y2="409.0547"/><text fill="#000000" font-family="sans-serif" font-size="13" lengthAdjust="spacing" textLength="111.2871" x="272.4731" y="403.9888">Conflict detected</text></g><g class="message" data-participant-1="CollabServer" data-participant-2="UserA"><polygon fill="#181818" points="45.9688,434.1875,35.9688,438.1875,45.9688,442.1875,41.9688,438.1875" style="stroke:#181818;stroke-width:1;"/><line style="stroke:#181818;stroke-width:1;" x1="39.9688" x2="254.4731" y1="438.1875" y2="438.1875"/><text fill="#000000" font-family="sans-serif" font-size="13" lengthAdjust="spacing" textLength="126.5532" x="51.9688" y="433.1216">Conflict notification</text></g><g class="message" data-participant-1="CollabServer" data-participant-2="UserB"><polygon fill="#181818" points="115.9199,463.3203,105.9199,467.3203,115.9199,471.3203,111.9199,467.3203" style="stroke:#181818;stroke-width:1;"/><line style="stroke:#181818;stroke-width:1;" x1="109.9199" x2="254.4731" y1="467.3203" y2="467.3203"/><text fill="#000000" font-family="sans-serif" font-size="13" lengthAdjust="spacing" textLength="126.5532" x="121.9199" y="462.2544">Conflict notification</text></g><g class="message" data-participant-1="UserA" data-participant-2="CollabServer"><polygon fill="#181818" points="243.4731,492.4531,253.4731,496.4531,243.4731,500.4531,247.4731,496.4531" style="stroke:#181818;stroke-width:1;"/><line style="stroke:#181818;stroke-width:1;" x1="34.9688" x2="249.4731" y1="496.4531" y2="496.4531"/><text fill="#000000" font-family="sans-serif" font-size="13" lengthAdjust="spacing" textLength="102.5781" x="41.9688" y="491.3872">Resolve conflict</text></g><g class="message" data-participant-1="CollabServer" data-participant-2="VersionCtrl"><polygon fill="#181818" points="538.0474,521.5859,548.0474,525.5859,538.0474,529.5859,542.0474,525.5859" style="stroke:#181818;stroke-width:1;"/><line style="stroke:#181818;stroke-width:1;" x1="255.4731" x2="544.0474" y1="525.5859" y2="525.5859"/><text fill="#000000" font-family="sans-serif" font-size="13" lengthAdjust="spacing" textLength="100.8643" x="262.4731" y="520.52">Save resolution</text></g><g class="message" data-participant-1="VersionCtrl" data-participant-2="Broadcast"><polygon fill="#181818" points="696.4209,550.7188,706.4209,554.7188,696.4209,558.7188,700.4209,554.7188" style="stroke:#181818;stroke-width:1;"/><line style="stroke:#181818;stroke-width:1;" x1="550.0474" x2="702.4209" y1="554.7188" y2="554.7188"/><text fill="#000000" font-family="sans-serif" font-size="13" lengthAdjust="spacing" textLength="134.3735" x="557.0474" y="549.6528">Broadcast resolution</text></g><g class="message" data-participant-1="Broadcast" data-participant-2="UserB"><polygon fill="#181818" points="115.9199,579.8516,105.9199,583.8516,115.9199,587.8516,111.9199,583.8516" style="stroke:#181818;stroke-width:1;"/><line style="stroke:#181818;stroke-width:1;" x1="109.9199" x2="707.4209" y1="583.8516" y2="583.8516"/><text fill="#000000" font-family="sans-serif" font-size="13" lengthAdjust="spacing" textLength="105.6567" x="121.9199" y="578.7856">Apply resolution</text></g><!--SRC=[fP9DRiCW48Ntd6AKVIxWHQNOhQfkkaZax2cC6rG25anIvVR5-0zSkvlkx7dV30_Ua2ADS4IkzwIk29NLcdzOnqbP0wU79xmord97IgYM6u9TxT71OGVSG_TvM57BIIrpTJ4UtHrTP7kXBonRJAELe63IMptouq_Edj7vRd3e8MTr98TQHKxdSEaibu9xYZwKm8XFLSRYxM3_b9ahu4KgWaRRRp1M8al53XwT5L1TK7o16FnxDYeTbRWgu1K9D2SCLkvzdILwFlI8T7DcujAPkSrtcnozD3dTifW_GLou-KGs5m8OCooWRcNm1_LR_ohbngju7bRe7wyoKyz8638ViJ_kEUs7Z2qeVvqTSqn0OqarIiGTN8NBBNXZ8mPpizlbq2pj4m-ewrfkj1BrQZG9lXRFeMtr8uL-0000]--></g></svg>