<svg xmlns="http://www.w3.org/2000/svg" xmlns:xlink="http://www.w3.org/1999/xlink" contentStyleType="text/css" data-diagram-type="DESCRIPTION" height="491px" preserveAspectRatio="none" style="width:564px;height:491px;background:#FFFFFF;" version="1.1" viewBox="0 0 564 491" width="564px" zoomAndPan="magnify"><title>Mesh Network Topology</title><defs/><g><g class="title" data-source-line="1"><text fill="#000000" font-family="sans-serif" font-size="14" font-weight="bold" lengthAdjust="spacing" textLength="190.5176" x="180.2049" y="22.9951">Mesh Network Topology</text></g><!--entity Agent1--><g class="entity" data-entity="Agent1" data-source-line="7" data-uid="ent0002" id="entity_Agent1"><ellipse cx="342.01" cy="63.4269" fill="#F1F1F1" rx="8" ry="8" style="stroke:#181818;stroke-width:0.5;"/><text fill="#000000" font-family="sans-serif" font-size="14" lengthAdjust="spacing" textLength="50.3467" x="316.8367" y="93.422">Agent1</text></g><!--entity Agent2--><g class="entity" data-entity="Agent2" data-source-line="8" data-uid="ent0003" id="entity_Agent2"><ellipse cx="342.01" cy="189.5569" fill="#F1F1F1" rx="8" ry="8" style="stroke:#181818;stroke-width:0.5;"/><text fill="#000000" font-family="sans-serif" font-size="14" lengthAdjust="spacing" textLength="50.3467" x="316.8367" y="219.552">Agent2</text></g><!--entity Agent3--><g class="entity" data-entity="Agent3" data-source-line="9" data-uid="ent0004" id="entity_Agent3"><ellipse cx="443.01" cy="189.5569" fill="#F1F1F1" rx="8" ry="8" style="stroke:#181818;stroke-width:0.5;"/><text fill="#000000" font-family="sans-serif" font-size="14" lengthAdjust="spacing" textLength="50.3467" x="417.8367" y="219.552">Agent3</text></g><!--entity Agent4--><g class="entity" data-entity="Agent4" data-source-line="10" data-uid="ent0005" id="entity_Agent4"><ellipse cx="358.01" cy="324.5569" fill="#F1F1F1" rx="8" ry="8" style="stroke:#181818;stroke-width:0.5;"/><text fill="#000000" font-family="sans-serif" font-size="14" lengthAdjust="spacing" textLength="50.3467" x="332.8367" y="354.552">Agent4</text></g><!--entity EdgeDevice1--><g class="entity" data-entity="EdgeDevice1" data-source-line="11" data-uid="ent0006" id="entity_EdgeDevice1"><rect fill="#F1F1F1" height="36.2969" rx="2.5" ry="2.5" style="stroke:#181818;stroke-width:0.5;" width="112.0186" x="7" y="171.4069"/><text fill="#000000" font-family="sans-serif" font-size="14" lengthAdjust="spacing" textLength="92.0186" x="17" y="194.402">EdgeDevice1</text></g><!--entity EdgeDevice2--><g class="entity" data-entity="EdgeDevice2" data-source-line="12" data-uid="ent0007" id="entity_EdgeDevice2"><rect fill="#F1F1F1" height="36.2969" rx="2.5" ry="2.5" style="stroke:#181818;stroke-width:0.5;" width="112.0186" x="178" y="306.4069"/><text fill="#000000" font-family="sans-serif" font-size="14" lengthAdjust="spacing" textLength="92.0186" x="188" y="329.402">EdgeDevice2</text></g><!--entity CloudCluster--><g class="entity" data-entity="CloudCluster" data-source-line="13" data-uid="ent0008" id="entity_CloudCluster"><path d="M257.7157,438.7143 C262.1707,433.2318 266.3333,433.2465 270.4928,439.0489 C273.301,431.9891 279.2491,432.4244 283.1633,437.9339 C286.1692,431.1599 292.5213,429.5897 296.8336,436.6423 C301.0713,430.4755 306.943,429.6676 310.9587,436.8767 C314.356,430.4925 319.3779,430.111 323.2212,436.4467 C327.7358,430.0386 332.7506,430.2955 336.1399,437.5136 C341.8464,430.9935 345.9058,433.1118 349.7734,439.4617 C354.3572,433.237 358.2125,434.3354 362.3942,439.8924 C370.8647,441.9684 372.2598,446.7119 367.8843,453.8433 C374.2349,462.2112 370.2603,467.7479 361.1551,469.453 C358.4234,476.7555 352.6922,476.0764 348.2199,471.32 C345.4378,478.4628 341.1535,479.5535 335.0543,475.0793 C332.3531,481.7888 327.1515,483.7748 322.0277,477.512 C318.6904,484.6918 314.5907,484.7711 309.3934,479.3815 C305.0291,483.8916 299.2521,483.5063 297.1054,476.9247 C293.0627,481.909 287.9814,482.5937 285.1248,475.7257 C278.7937,482.337 273.496,479.8954 270.9202,472.0388 C265.1546,478.5649 260.4957,477.3758 257.4619,469.4881 C248.1007,467.1899 246.4049,460.3075 253.8193,454.0509 C247.5518,447.2111 250.2613,442.068 257.7157,438.7143" fill="#F1F1F1" style="stroke:#181818;stroke-width:0.5;"/><text fill="#000000" font-family="sans-serif" font-size="14" lengthAdjust="spacing" textLength="89.6807" x="264.17" y="458.552">CloudCluster</text></g><g class="entity" data-entity="GMN19" data-source-line="26" data-uid="ent0020" id="entity_GMN19"><path d="M386.07,43.2969 L386.07,59.4269 L351.44,63.4269 L386.07,67.4269 L386.07,83.5625 A0,0 0 0 0 386.07,83.5625 L507.9533,83.5625 A0,0 0 0 0 507.9533,83.5625 L507.9533,53.2969 L497.9533,43.2969 L386.07,43.2969 A0,0 0 0 0 386.07,43.2969" fill="#FEFFDD" style="stroke:#181818;stroke-width:0.5;"/><path d="M497.9533,43.2969 L497.9533,53.2969 L507.9533,53.2969 L497.9533,43.2969" fill="#FEFFDD" style="stroke:#181818;stroke-width:0.5;"/><text fill="#000000" font-family="sans-serif" font-size="13" lengthAdjust="spacing" textLength="81.2056" x="392.07" y="60.3638">Peer-to-peer</text><text fill="#000000" font-family="sans-serif" font-size="13" lengthAdjust="spacing" textLength="100.8833" x="392.07" y="75.4966">Gossip protocol</text></g><g class="entity" data-entity="GMN22" data-source-line="27" data-uid="ent0023" id="entity_GMN22"><path d="M153.91,169.4269 L153.91,185.5569 L119.34,189.5569 L153.91,193.5569 L153.91,209.6925 A0,0 0 0 0 153.91,209.6925 L274.1175,209.6925 A0,0 0 0 0 274.1175,209.6925 L274.1175,179.4269 L264.1175,169.4269 L153.91,169.4269 A0,0 0 0 0 153.91,169.4269" fill="#FEFFDD" style="stroke:#181818;stroke-width:0.5;"/><path d="M264.1175,169.4269 L264.1175,179.4269 L274.1175,179.4269 L264.1175,169.4269" fill="#FEFFDD" style="stroke:#181818;stroke-width:0.5;"/><text fill="#000000" font-family="sans-serif" font-size="13" lengthAdjust="spacing" textLength="98.1729" x="159.91" y="186.4938">Offline capable</text><text fill="#000000" font-family="sans-serif" font-size="13" lengthAdjust="spacing" textLength="99.2075" x="159.91" y="201.6266">Local inference</text></g><g class="entity" data-entity="GMN25" data-source-line="28" data-uid="ent0026" id="entity_GMN25"><path d="M404.09,433.5769 L404.09,449.7069 L369.14,453.7069 L404.09,457.7069 L404.09,473.8425 A0,0 0 0 0 404.09,473.8425 L557.9274,473.8425 A0,0 0 0 0 557.9274,473.8425 L557.9274,443.5769 L547.9274,433.5769 L404.09,433.5769 A0,0 0 0 0 404.09,433.5769" fill="#FEFFDD" style="stroke:#181818;stroke-width:0.5;"/><path d="M547.9274,433.5769 L547.9274,443.5769 L557.9274,443.5769 L547.9274,433.5769" fill="#FEFFDD" style="stroke:#181818;stroke-width:0.5;"/><text fill="#000000" font-family="sans-serif" font-size="13" lengthAdjust="spacing" textLength="132.8374" x="410.09" y="450.6438">Central coordination</text><text fill="#000000" font-family="sans-serif" font-size="13" lengthAdjust="spacing" textLength="117.2476" x="410.09" y="465.7766">Model distribution</text></g><!--link Agent1 to Agent2--><g class="link" data-entity-1="Agent1" data-entity-2="Agent2" data-source-line="15" data-uid="lnk9" id="link_Agent1_Agent2"><path d="M342.01,72.5769 C342.01,95.2269 342.01,158.7669 342.01,180.8669" fill="none" id="Agent1-Agent2" style="stroke:#181818;stroke-width:1;"/><text fill="#000000" font-family="sans-serif" font-size="13" lengthAdjust="spacing" textLength="26.0571" x="343.01" y="126.6238">A2A</text></g><!--link Agent1 to Agent3--><g class="link" data-entity-1="Agent1" data-entity-2="Agent3" data-source-line="16" data-uid="lnk10" id="link_Agent1_Agent3"><path d="M348.64,72.5769 C367.07,95.2269 418.77,158.7669 436.75,180.8669" fill="none" id="Agent1-Agent3" style="stroke:#181818;stroke-width:1;"/><text fill="#000000" font-family="sans-serif" font-size="13" lengthAdjust="spacing" textLength="26.0571" x="396.54" y="126.6238">A2A</text></g><!--link Agent2 to Agent4--><g class="link" data-entity-1="Agent2" data-entity-2="Agent4" data-source-line="17" data-uid="lnk11" id="link_Agent2_Agent4"><path d="M340.67,198.5069 C338.58,212.2569 335.15,241.3669 339.01,265.5569 C341.98,284.1869 350.01,304.9469 354.62,315.8769" fill="none" id="Agent2-Agent4" style="stroke:#181818;stroke-width:1;"/><text fill="#000000" font-family="sans-serif" font-size="13" lengthAdjust="spacing" textLength="26.0571" x="340.01" y="261.6238">A2A</text></g><!--link Agent3 to Agent4--><g class="link" data-entity-1="Agent3" data-entity-2="Agent4" data-source-line="18" data-uid="lnk12" id="link_Agent3_Agent4"><path d="M437.95,198.4769 C422.79,222.1969 377.92,292.4069 362.94,315.8469" fill="none" id="Agent3-Agent4" style="stroke:#181818;stroke-width:1;"/><text fill="#000000" font-family="sans-serif" font-size="13" lengthAdjust="spacing" textLength="26.0571" x="406.6" y="261.6238">A2A</text></g><!--link Agent1 to EdgeDevice1--><g class="link" data-entity-1="Agent1" data-entity-2="EdgeDevice1" data-source-line="19" data-uid="lnk13" id="link_Agent1_EdgeDevice1"><path d="M332.73,68.5569 C297.17,84.3769 168.38,141.6769 102.47,171.0069" fill="none" id="Agent1-EdgeDevice1" style="stroke:#181818;stroke-width:1;"/><text fill="#000000" font-family="sans-serif" font-size="13" lengthAdjust="spacing" textLength="34.2266" x="228.5" y="126.6238">Mesh</text></g><!--link Agent2 to EdgeDevice2--><g class="link" data-entity-1="Agent2" data-entity-2="EdgeDevice2" data-source-line="20" data-uid="lnk14" id="link_Agent2_EdgeDevice2"><path d="M335.26,198.3669 C325.73,209.4369 307.84,230.3769 293.01,248.5569 C277.1,268.0769 259.28,290.8569 247.43,306.1469" fill="none" id="Agent2-EdgeDevice2" style="stroke:#181818;stroke-width:1;"/><text fill="#000000" font-family="sans-serif" font-size="13" lengthAdjust="spacing" textLength="34.2266" x="294.01" y="261.6238">Mesh</text></g><!--link Agent3 to CloudCluster--><g class="link" data-entity-1="Agent3" data-entity-2="CloudCluster" data-source-line="21" data-uid="lnk15" id="link_Agent3_CloudCluster"><path d="M443.3,198.5269 C443.64,212.3269 443.66,241.4869 439.01,265.5569 C426.55,330.0269 423.73,352.4869 379.01,400.5569 C368.89,411.4369 356.26,421.6269 344.53,430.0569" fill="none" id="Agent3-CloudCluster" style="stroke:#181818;stroke-width:1;"/><text fill="#000000" font-family="sans-serif" font-size="13" lengthAdjust="spacing" textLength="34.2266" x="433.99" y="329.1238">Mesh</text></g><!--link Agent4 to CloudCluster--><g class="link" data-entity-1="Agent4" data-entity-2="CloudCluster" data-source-line="22" data-uid="lnk16" id="link_Agent4_CloudCluster"><path d="M354.94,333.5169 C347.61,352.5469 328.84,401.2569 317.69,430.1769" fill="none" id="Agent4-CloudCluster" style="stroke:#181818;stroke-width:1;"/><text fill="#000000" font-family="sans-serif" font-size="13" lengthAdjust="spacing" textLength="34.2266" x="335.98" y="396.6238">Mesh</text></g><!--link EdgeDevice1 to CloudCluster--><g class="link" data-entity-1="EdgeDevice1" data-entity-2="CloudCluster" data-source-line="23" data-uid="lnk17" id="link_EdgeDevice1_CloudCluster"><path d="M65.81,208.0769 C71.78,240.3569 88.49,309.9069 127.01,353.5569 C159.63,390.5169 209.46,416.3169 248.74,432.3169" fill="none" id="EdgeDevice1-CloudCluster" style="stroke:#181818;stroke-width:1;"/><text fill="#000000" font-family="sans-serif" font-size="13" lengthAdjust="spacing" textLength="31.332" x="128.01" y="329.1238">Sync</text></g><!--link EdgeDevice2 to CloudCluster--><g class="link" data-entity-1="EdgeDevice2" data-entity-2="CloudCluster" data-source-line="24" data-uid="lnk18" id="link_EdgeDevice2_CloudCluster"><path d="M244.28,342.9769 C257.68,365.6869 281.14,405.4669 295.84,430.3769" fill="none" id="EdgeDevice2-CloudCluster" style="stroke:#181818;stroke-width:1;"/><text fill="#000000" font-family="sans-serif" font-size="13" lengthAdjust="spacing" textLength="31.332" x="279.23" y="396.6238">Sync</text></g><!--SRC=[TP7FReCm3CRlUGhl0JYKSjeD0UBIFvFMtRZGO6ZKo4R1REhRBz2g2cmzHVvzjhylYHYn27iSBd10-M5tXHFtRBcxAVNMO6i88IsBmmcqSThY4nPvMO13BJLr0SvsnwySjEMnKUe-c7P8iWcBE2osOP6eUM_HT9ZZjz6uMODOtIsooIApuo3elDFi0L7qC81tIEDqZRSXZfyu2V7sVpml2M9vRNgrO5KGSI7E2yEq2pLvfOPUVri-RwHLwFYYHH4BWZFTHO3RnrTuyGFHHS9Hxy-AIXu6qqFlM5YpNGqjRtriMpjzjAxx-coneXthseAX5XsInjNmAbJc_PrlryokCLIBOQfepmrQQCmWpfp7YQbV]--></g></svg>