<svg xmlns="http://www.w3.org/2000/svg" xmlns:xlink="http://www.w3.org/1999/xlink" contentStyleType="text/css" data-diagram-type="SEQUENCE" height="565px" preserveAspectRatio="none" style="width:1164px;height:565px;background:#FFFFFF;" version="1.1" viewBox="0 0 1164 565" width="1164px" zoomAndPan="magnify"><title>Flow Deployment Sequence</title><defs/><g><text fill="#000000" font-family="sans-serif" font-size="14" font-weight="bold" lengthAdjust="spacing" textLength="218.9072" x="471.5696" y="27.9951">Flow Deployment Sequence</text><g><title>User</title><rect fill="#000000" fill-opacity="0.00000" height="366.4609" width="8" x="19.9551" y="118.5938"/><line style="stroke:#181818;stroke-width:0.5;stroke-dasharray:5,5;" x1="23" x2="23" y1="118.5938" y2="485.0547"/></g><g><title>VisualGridDev Studio</title><rect fill="#000000" fill-opacity="0.00000" height="366.4609" width="8" x="174.082" y="118.5938"/><line style="stroke:#181818;stroke-width:0.5;stroke-dasharray:5,5;" x1="177.9805" x2="177.9805" y1="118.5938" y2="485.0547"/></g><g><title>Protocol Router</title><rect fill="#000000" fill-opacity="0.00000" height="366.4609" width="8" x="362.7505" y="118.5938"/><line style="stroke:#181818;stroke-width:0.5;stroke-dasharray:5,5;" x1="366.5278" x2="366.5278" y1="118.5938" y2="485.0547"/></g><g><title>Kafka</title><rect fill="#000000" fill-opacity="0.00000" height="366.4609" width="8" x="556.3662" y="118.5938"/><line style="stroke:#181818;stroke-width:0.5;stroke-dasharray:5,5;" x1="559.6787" x2="559.6787" y1="118.5938" y2="485.0547"/></g><g><title>AI Agent</title><rect fill="#000000" fill-opacity="0.00000" height="366.4609" width="8" x="764.3594" y="118.5938"/><line style="stroke:#181818;stroke-width:0.5;stroke-dasharray:5,5;" x1="767.5615" x2="767.5615" y1="118.5938" y2="485.0547"/></g><g><title>Node-RED Runtime</title><rect fill="#000000" fill-opacity="0.00000" height="366.4609" width="8" x="928.998" y="118.5938"/><line style="stroke:#181818;stroke-width:0.5;stroke-dasharray:5,5;" x1="932.7495" x2="932.7495" y1="118.5938" y2="485.0547"/></g><g><title>MAPE-K Controller</title><rect fill="#000000" fill-opacity="0.00000" height="366.4609" width="8" x="1083.6465" y="118.5938"/><line style="stroke:#181818;stroke-width:0.5;stroke-dasharray:5,5;" x1="1087.2466" x2="1087.2466" y1="118.5938" y2="485.0547"/></g><g class="participant participant-head" data-participant="User"><text fill="#000000" font-family="sans-serif" font-size="14" lengthAdjust="spacing" textLength="31.9102" x="5" y="115.292">User</text><ellipse cx="23.9551" cy="50.7969" fill="#E2E2F0" rx="8" ry="8" style="stroke:#181818;stroke-width:0.5;"/><path d="M23.9551,58.7969 L23.9551,85.7969 M10.9551,66.7969 L36.9551,66.7969 M23.9551,85.7969 L10.9551,100.7969 M23.9551,85.7969 L36.9551,100.7969" fill="none" style="stroke:#181818;stroke-width:0.5;"/></g><g class="participant participant-tail" data-participant="User"><text fill="#000000" font-family="sans-serif" font-size="14" lengthAdjust="spacing" textLength="31.9102" x="5" y="497.0498">User</text><ellipse cx="23.9551" cy="508.8516" fill="#E2E2F0" rx="8" ry="8" style="stroke:#181818;stroke-width:0.5;"/><path d="M23.9551,516.8516 L23.9551,543.8516 M10.9551,524.8516 L36.9551,524.8516 M23.9551,543.8516 L10.9551,558.8516 M23.9551,543.8516 L36.9551,558.8516" fill="none" style="stroke:#181818;stroke-width:0.5;"/></g><g class="participant participant-head" data-participant="Studio"><rect fill="#E2E2F0" height="30.2969" rx="2.5" ry="2.5" style="stroke:#181818;stroke-width:0.5;" width="162.2031" x="96.9805" y="87.2969"/><text fill="#000000" font-family="sans-serif" font-size="14" lengthAdjust="spacing" textLength="148.2031" x="103.9805" y="107.292">VisualGridDev Studio</text></g><g class="participant participant-tail" data-participant="Studio"><rect fill="#E2E2F0" height="30.2969" rx="2.5" ry="2.5" style="stroke:#181818;stroke-width:0.5;" width="162.2031" x="96.9805" y="484.0547"/><text fill="#000000" font-family="sans-serif" font-size="14" lengthAdjust="spacing" textLength="148.2031" x="103.9805" y="504.0498">VisualGridDev Studio</text></g><g class="participant participant-head" data-participant="Router"><rect fill="#E2E2F0" height="30.2969" rx="2.5" ry="2.5" style="stroke:#181818;stroke-width:0.5;" width="122.4453" x="305.5278" y="87.2969"/><text fill="#000000" font-family="sans-serif" font-size="14" lengthAdjust="spacing" textLength="108.4453" x="312.5278" y="107.292">Protocol Router</text></g><g class="participant participant-tail" data-participant="Router"><rect fill="#E2E2F0" height="30.2969" rx="2.5" ry="2.5" style="stroke:#181818;stroke-width:0.5;" width="122.4453" x="305.5278" y="484.0547"/><text fill="#000000" font-family="sans-serif" font-size="14" lengthAdjust="spacing" textLength="108.4453" x="312.5278" y="504.0498">Protocol Router</text></g><g class="participant participant-head" data-participant="Kafka"><rect fill="#E2E2F0" height="30.2969" rx="2.5" ry="2.5" style="stroke:#181818;stroke-width:0.5;" width="53.375" x="533.6787" y="87.2969"/><text fill="#000000" font-family="sans-serif" font-size="14" lengthAdjust="spacing" textLength="39.375" x="540.6787" y="107.292">Kafka</text></g><g class="participant participant-tail" data-participant="Kafka"><rect fill="#E2E2F0" height="30.2969" rx="2.5" ry="2.5" style="stroke:#181818;stroke-width:0.5;" width="53.375" x="533.6787" y="484.0547"/><text fill="#000000" font-family="sans-serif" font-size="14" lengthAdjust="spacing" textLength="39.375" x="540.6787" y="504.0498">Kafka</text></g><g class="participant participant-head" data-participant="Agent"><rect fill="#E2E2F0" height="30.2969" rx="2.5" ry="2.5" style="stroke:#181818;stroke-width:0.5;" width="73.5957" x="731.5615" y="87.2969"/><text fill="#000000" font-family="sans-serif" font-size="14" lengthAdjust="spacing" textLength="59.5957" x="738.5615" y="107.292">AI Agent</text></g><g class="participant participant-tail" data-participant="Agent"><rect fill="#E2E2F0" height="30.2969" rx="2.5" ry="2.5" style="stroke:#181818;stroke-width:0.5;" width="73.5957" x="731.5615" y="484.0547"/><text fill="#000000" font-family="sans-serif" font-size="14" lengthAdjust="spacing" textLength="59.5957" x="738.5615" y="504.0498">AI Agent</text></g><g class="participant participant-head" data-participant="NodeRED"><rect fill="#E2E2F0" height="30.2969" rx="2.5" ry="2.5" style="stroke:#181818;stroke-width:0.5;" width="148.4971" x="858.7495" y="87.2969"/><text fill="#000000" font-family="sans-serif" font-size="14" lengthAdjust="spacing" textLength="134.4971" x="865.7495" y="107.292">Node-RED Runtime</text></g><g class="participant participant-tail" data-participant="NodeRED"><rect fill="#E2E2F0" height="30.2969" rx="2.5" ry="2.5" style="stroke:#181818;stroke-width:0.5;" width="148.4971" x="858.7495" y="484.0547"/><text fill="#000000" font-family="sans-serif" font-size="14" lengthAdjust="spacing" textLength="134.4971" x="865.7495" y="504.0498">Node-RED Runtime</text></g><g class="participant participant-head" data-participant="MAPEK"><rect fill="#E2E2F0" height="30.2969" rx="2.5" ry="2.5" style="stroke:#181818;stroke-width:0.5;" width="140.7998" x="1017.2466" y="87.2969"/><text fill="#000000" font-family="sans-serif" font-size="14" lengthAdjust="spacing" textLength="126.7998" x="1024.2466" y="107.292">MAPE-K Controller</text></g><g class="participant participant-tail" data-participant="MAPEK"><rect fill="#E2E2F0" height="30.2969" rx="2.5" ry="2.5" style="stroke:#181818;stroke-width:0.5;" width="140.7998" x="1017.2466" y="484.0547"/><text fill="#000000" font-family="sans-serif" font-size="14" lengthAdjust="spacing" textLength="126.7998" x="1024.2466" y="504.0498">MAPE-K Controller</text></g><g class="message" data-participant-1="User" data-participant-2="Studio"><polygon fill="#181818" points="166.082,145.7266,176.082,149.7266,166.082,153.7266,170.082,149.7266" style="stroke:#181818;stroke-width:1;"/><line style="stroke:#181818;stroke-width:1;" x1="23.9551" x2="172.082" y1="149.7266" y2="149.7266"/><text fill="#000000" font-family="sans-serif" font-size="13" lengthAdjust="spacing" textLength="116.416" x="30.9551" y="144.6606">Create visual flow</text></g><g class="message" data-participant-1="Studio" data-participant-2="Studio"><line style="stroke:#181818;stroke-width:1;" x1="178.082" x2="220.082" y1="178.8594" y2="178.8594"/><line style="stroke:#181818;stroke-width:1;" x1="220.082" x2="220.082" y1="178.8594" y2="191.8594"/><line style="stroke:#181818;stroke-width:1;" x1="179.082" x2="220.082" y1="191.8594" y2="191.8594"/><polygon fill="#181818" points="189.082,187.8594,179.082,191.8594,189.082,195.8594,185.082,191.8594" style="stroke:#181818;stroke-width:1;"/><text fill="#000000" font-family="sans-serif" font-size="13" lengthAdjust="spacing" textLength="174.6685" x="185.082" y="173.7935">Validate flow configuration</text></g><g class="message" data-participant-1="Studio" data-participant-2="Router"><polygon fill="#181818" points="354.7505,216.9922,364.7505,220.9922,354.7505,224.9922,358.7505,220.9922" style="stroke:#181818;stroke-width:1;"/><line style="stroke:#181818;stroke-width:1;" x1="178.082" x2="360.7505" y1="220.9922" y2="220.9922"/><text fill="#000000" font-family="sans-serif" font-size="13" lengthAdjust="spacing" textLength="130.2603" x="185.082" y="215.9263">Deploy flow request</text></g><g class="message" data-participant-1="Router" data-participant-2="Kafka"><polygon fill="#181818" points="548.3662,246.125,558.3662,250.125,548.3662,254.125,552.3662,250.125" style="stroke:#181818;stroke-width:1;"/><line style="stroke:#181818;stroke-width:1;" x1="366.7505" x2="554.3662" y1="250.125" y2="250.125"/><text fill="#000000" font-family="sans-serif" font-size="13" lengthAdjust="spacing" textLength="169.6157" x="373.7505" y="245.0591">Publish deployment event</text></g><g class="message" data-participant-1="Kafka" data-participant-2="Agent"><polygon fill="#181818" points="756.3594,275.2578,766.3594,279.2578,756.3594,283.2578,760.3594,279.2578" style="stroke:#181818;stroke-width:1;"/><line style="stroke:#181818;stroke-width:1;" x1="560.3662" x2="762.3594" y1="279.2578" y2="279.2578"/><text fill="#000000" font-family="sans-serif" font-size="13" lengthAdjust="spacing" textLength="183.9932" x="567.3662" y="274.1919">Consume deployment event</text></g><g class="message" data-participant-1="Agent" data-participant-2="NodeRED"><polygon fill="#181818" points="920.998,304.3906,930.998,308.3906,920.998,312.3906,924.998,308.3906" style="stroke:#181818;stroke-width:1;"/><line style="stroke:#181818;stroke-width:1;" x1="768.3594" x2="926.998" y1="308.3906" y2="308.3906"/><text fill="#000000" font-family="sans-serif" font-size="13" lengthAdjust="spacing" textLength="140.6387" x="775.3594" y="303.3247">Initialize flow runtime</text></g><g class="message" data-participant-1="NodeRED" data-participant-2="NodeRED"><line style="stroke:#181818;stroke-width:1;" x1="932.998" x2="974.998" y1="337.5234" y2="337.5234"/><line style="stroke:#181818;stroke-width:1;" x1="974.998" x2="974.998" y1="337.5234" y2="350.5234"/><line style="stroke:#181818;stroke-width:1;" x1="933.998" x2="974.998" y1="350.5234" y2="350.5234"/><polygon fill="#181818" points="943.998,346.5234,933.998,350.5234,943.998,354.5234,939.998,350.5234" style="stroke:#181818;stroke-width:1;"/><text fill="#000000" font-family="sans-serif" font-size="13" lengthAdjust="spacing" textLength="105.6694" x="939.998" y="332.4575">Load flow nodes</text></g><g class="message" data-participant-1="NodeRED" data-participant-2="Kafka"><polygon fill="#181818" points="571.3662,375.6563,561.3662,379.6563,571.3662,383.6563,567.3662,379.6563" style="stroke:#181818;stroke-width:1;"/><line style="stroke:#181818;stroke-width:1;" x1="565.3662" x2="931.998" y1="379.6563" y2="379.6563"/><text fill="#000000" font-family="sans-serif" font-size="13" lengthAdjust="spacing" textLength="160.0181" x="577.3662" y="374.5903">Publish flow ready event</text></g><g class="message" data-participant-1="Kafka" data-participant-2="MAPEK"><polygon fill="#181818" points="1075.6465,404.7891,1085.6465,408.7891,1075.6465,412.7891,1079.6465,408.7891" style="stroke:#181818;stroke-width:1;"/><line style="stroke:#181818;stroke-width:1;" x1="560.3662" x2="1081.6465" y1="408.7891" y2="408.7891"/><text fill="#000000" font-family="sans-serif" font-size="13" lengthAdjust="spacing" textLength="125.6074" x="567.3662" y="403.7231">Monitor flow health</text></g><g class="message" data-participant-1="MAPEK" data-participant-2="Studio"><polygon fill="#181818" points="189.082,433.9219,179.082,437.9219,189.082,441.9219,185.082,437.9219" style="stroke:#181818;stroke-width:1;"/><line style="stroke:#181818;stroke-width:1;" x1="183.082" x2="1086.6465" y1="437.9219" y2="437.9219"/><text fill="#000000" font-family="sans-serif" font-size="13" lengthAdjust="spacing" textLength="173.0498" x="195.082" y="432.856">Update deployment status</text></g><g class="message" data-participant-1="Studio" data-participant-2="User"><polygon fill="#181818" points="34.9551,463.0547,24.9551,467.0547,34.9551,471.0547,30.9551,467.0547" style="stroke:#181818;stroke-width:1;"/><line style="stroke:#181818;stroke-width:1;" x1="28.9551" x2="177.082" y1="467.0547" y2="467.0547"/><text fill="#000000" font-family="sans-serif" font-size="13" lengthAdjust="spacing" textLength="130.127" x="40.9551" y="461.9888">Show flow deployed</text></g><!--SRC=[PP91Rm8X48Nl_8f9x_u13asCsiPO6wFHErr6bnHX2uED_VM5WQIxzZQPzmNUUq26BCABzT-mnC7w-nKTmG6_4heEXL0T-G37Y44CAf3fpA0oy7GoCIdx6enUuWqEbBJnJw1Y6wVmBdZodRUmzuamC5V7ARTHvq_5AazJSRw6-IMROvsdgVxkDSxsgoNiaoDpHURACk-cv7Q-MyqsiF2EWhUs6IhRZH0bAioUMmu9Yu2A46wS5ywvA56bCNHIrkY25Hqwxyxcae8Yuzs8hf5bAxgoeJGTILIjK1nTmYvzM1Dxq7-lWhSIclK2SWUon8ZfYlz1rWlOIf2mTePCjlhJZ8RQb6Z0X7tpIbVAvLKSCmyEMmwbxuyEkL89Mv_lpR-8mHwLfLwmDAxmE721enIH5AKuwgyyZOH3dq_XeogBMlm2]--></g></svg>