<svg xmlns="http://www.w3.org/2000/svg" xmlns:xlink="http://www.w3.org/1999/xlink" contentStyleType="text/css" data-diagram-type="DESCRIPTION" height="188px" preserveAspectRatio="none" style="width:2655px;height:188px;background:#FFFFFF;" version="1.1" viewBox="0 0 2655 188" width="2655px" zoomAndPan="magnify"><title>Real-time Data Processing Pipeline</title><defs/><g><g class="title" data-source-line="1"><text fill="#000000" font-family="sans-serif" font-size="14" font-weight="bold" lengthAdjust="spacing" textLength="277.4023" x="1182.024" y="22.9951">Real-time Data Processing Pipeline</text></g><!--entity SensorQ--><g class="entity" data-entity="SensorQ" data-source-line="7" data-uid="ent0002" id="entity_SensorQ"><path d="M11,118.9969 L106.8662,118.9969 C111.8662,118.9969 111.8662,140.2938 111.8662,140.2938 C111.8662,140.2938 111.8662,161.5906 106.8662,161.5906 L11,161.5906 C6,161.5906 6,140.2938 6,140.2938 C6,140.2938 6,118.9969 11,118.9969" fill="#F1F1F1" style="stroke:#181818;stroke-width:0.5;"/><path d="M106.8662,118.9969 C101.8662,118.9969 101.8662,140.2938 101.8662,140.2938 C101.8662,161.5906 106.8662,161.5906 106.8662,161.5906" fill="none" style="stroke:#181818;stroke-width:0.5;"/><text fill="#000000" font-family="sans-serif" font-size="14" lengthAdjust="spacing" textLength="85.8662" x="11" y="136.992">Sensor Data</text><text fill="#000000" font-family="sans-serif" font-size="14" lengthAdjust="spacing" textLength="45.9922" x="11" y="153.2889">Queue</text></g><!--entity EventQ--><g class="entity" data-entity="EventQ" data-source-line="8" data-uid="ent0003" id="entity_EventQ"><path d="M562.17,118.9969 L667.6886,118.9969 C672.6886,118.9969 672.6886,140.2938 672.6886,140.2938 C672.6886,140.2938 672.6886,161.5906 667.6886,161.5906 L562.17,161.5906 C557.17,161.5906 557.17,140.2938 557.17,140.2938 C557.17,140.2938 557.17,118.9969 562.17,118.9969" fill="#F1F1F1" style="stroke:#181818;stroke-width:0.5;"/><path d="M667.6886,118.9969 C662.6886,118.9969 662.6886,140.2938 662.6886,140.2938 C662.6886,161.5906 667.6886,161.5906 667.6886,161.5906" fill="none" style="stroke:#181818;stroke-width:0.5;"/><text fill="#000000" font-family="sans-serif" font-size="14" lengthAdjust="spacing" textLength="95.5186" x="562.17" y="136.992">Event Stream</text><text fill="#000000" font-family="sans-serif" font-size="14" lengthAdjust="spacing" textLength="45.9922" x="562.17" y="153.2889">Queue</text></g><!--entity MLQ--><g class="entity" data-entity="MLQ" data-source-line="9" data-uid="ent0004" id="entity_MLQ"><path d="M1589.22,118.9969 L1678.6468,118.9969 C1683.6468,118.9969 1683.6468,140.2938 1683.6468,140.2938 C1683.6468,140.2938 1683.6468,161.5906 1678.6468,161.5906 L1589.22,161.5906 C1584.22,161.5906 1584.22,140.2938 1584.22,140.2938 C1584.22,140.2938 1584.22,118.9969 1589.22,118.9969" fill="#F1F1F1" style="stroke:#181818;stroke-width:0.5;"/><path d="M1678.6468,118.9969 C1673.6468,118.9969 1673.6468,140.2938 1673.6468,140.2938 C1673.6468,161.5906 1678.6468,161.5906 1678.6468,161.5906" fill="none" style="stroke:#181818;stroke-width:0.5;"/><text fill="#000000" font-family="sans-serif" font-size="14" lengthAdjust="spacing" textLength="79.4268" x="1589.22" y="136.992">ML Pipeline</text><text fill="#000000" font-family="sans-serif" font-size="14" lengthAdjust="spacing" textLength="45.9922" x="1589.22" y="153.2889">Queue</text></g><!--entity Ingestion--><g class="entity" data-entity="Ingestion" data-source-line="11" data-uid="ent0005" id="entity_Ingestion"><rect fill="#F1F1F1" height="62.5938" rx="2.5" ry="2.5" style="stroke:#181818;stroke-width:0.5;" width="142.4912" x="256.69" y="108.9969"/><rect fill="#F1F1F1" height="10" style="stroke:#181818;stroke-width:0.5;" width="15" x="379.1812" y="113.9969"/><rect fill="#F1F1F1" height="2" style="stroke:#181818;stroke-width:0.5;" width="4" x="377.1812" y="115.9969"/><rect fill="#F1F1F1" height="2" style="stroke:#181818;stroke-width:0.5;" width="4" x="377.1812" y="119.9969"/><text fill="#000000" font-family="sans-serif" font-size="14" lengthAdjust="spacing" textLength="102.4912" x="271.69" y="141.992">Data Ingestion</text><text fill="#000000" font-family="sans-serif" font-size="14" lengthAdjust="spacing" textLength="51.7412" x="271.69" y="158.2889">Service</text></g><!--entity StreamProc--><g class="entity" data-entity="StreamProc" data-source-line="12" data-uid="ent0006" id="entity_StreamProc"><rect fill="#F1F1F1" height="62.5938" rx="2.5" ry="2.5" style="stroke:#181818;stroke-width:0.5;" width="163.3955" x="846.24" y="108.9969"/><rect fill="#F1F1F1" height="10" style="stroke:#181818;stroke-width:0.5;" width="15" x="989.6355" y="113.9969"/><rect fill="#F1F1F1" height="2" style="stroke:#181818;stroke-width:0.5;" width="4" x="987.6355" y="115.9969"/><rect fill="#F1F1F1" height="2" style="stroke:#181818;stroke-width:0.5;" width="4" x="987.6355" y="119.9969"/><text fill="#000000" font-family="sans-serif" font-size="14" lengthAdjust="spacing" textLength="123.3955" x="861.24" y="141.992">Stream Processor</text><text fill="#000000" font-family="sans-serif" font-size="14" lengthAdjust="spacing" textLength="100.4131" x="861.24" y="158.2889">(Apache Flink)</text></g><!--entity MLEngine--><g class="entity" data-entity="MLEngine" data-source-line="13" data-uid="ent0007" id="entity_MLEngine"><rect fill="#F1F1F1" height="62.5938" rx="2.5" ry="2.5" style="stroke:#181818;stroke-width:0.5;" width="130.4258" x="1809.72" y="108.9969"/><rect fill="#F1F1F1" height="10" style="stroke:#181818;stroke-width:0.5;" width="15" x="1920.1458" y="113.9969"/><rect fill="#F1F1F1" height="2" style="stroke:#181818;stroke-width:0.5;" width="4" x="1918.1458" y="115.9969"/><rect fill="#F1F1F1" height="2" style="stroke:#181818;stroke-width:0.5;" width="4" x="1918.1458" y="119.9969"/><text fill="#000000" font-family="sans-serif" font-size="14" lengthAdjust="spacing" textLength="90.4258" x="1824.72" y="141.992">ML Inference</text><text fill="#000000" font-family="sans-serif" font-size="14" lengthAdjust="spacing" textLength="47.9814" x="1824.72" y="158.2889">Engine</text></g><!--entity AlertMgr--><g class="entity" data-entity="AlertMgr" data-source-line="14" data-uid="ent0008" id="entity_AlertMgr"><rect fill="#F1F1F1" height="46.2969" rx="2.5" ry="2.5" style="stroke:#181818;stroke-width:0.5;" width="139.1416" x="2165.36" y="117.1369"/><rect fill="#F1F1F1" height="10" style="stroke:#181818;stroke-width:0.5;" width="15" x="2284.5016" y="122.1369"/><rect fill="#F1F1F1" height="2" style="stroke:#181818;stroke-width:0.5;" width="4" x="2282.5016" y="124.1369"/><rect fill="#F1F1F1" height="2" style="stroke:#181818;stroke-width:0.5;" width="4" x="2282.5016" y="128.1369"/><text fill="#000000" font-family="sans-serif" font-size="14" lengthAdjust="spacing" textLength="99.1416" x="2180.36" y="150.132">Alert Manager</text></g><!--entity TimeSeriesDB--><g class="entity" data-entity="TimeSeriesDB" data-source-line="16" data-uid="ent0009" id="entity_TimeSeriesDB"><path d="M2511.42,119.4969 C2511.42,109.4969 2574.9351,109.4969 2574.9351,109.4969 C2574.9351,109.4969 2638.4503,109.4969 2638.4503,119.4969 L2638.4503,161.0906 C2638.4503,171.0906 2574.9351,171.0906 2574.9351,171.0906 C2574.9351,171.0906 2511.42,171.0906 2511.42,161.0906 L2511.42,119.4969" fill="#F1F1F1" style="stroke:#181818;stroke-width:0.5;"/><path d="M2511.42,119.4969 C2511.42,129.4969 2574.9351,129.4969 2574.9351,129.4969 C2574.9351,129.4969 2638.4503,129.4969 2638.4503,119.4969" fill="none" style="stroke:#181818;stroke-width:0.5;"/><text fill="#000000" font-family="sans-serif" font-size="14" lengthAdjust="spacing" textLength="107.0303" x="2521.42" y="146.492">Time Series DB</text><text fill="#000000" font-family="sans-serif" font-size="14" lengthAdjust="spacing" textLength="70.2871" x="2521.42" y="162.7889">(InfluxDB)</text></g><!--entity VectorDB--><g class="entity" data-entity="VectorDB" data-source-line="17" data-uid="ent0010" id="entity_VectorDB"><path d="M2339.46,119.4969 C2339.46,109.4969 2407.9346,109.4969 2407.9346,109.4969 C2407.9346,109.4969 2476.4092,109.4969 2476.4092,119.4969 L2476.4092,161.0906 C2476.4092,171.0906 2407.9346,171.0906 2407.9346,171.0906 C2407.9346,171.0906 2339.46,171.0906 2339.46,161.0906 L2339.46,119.4969" fill="#F1F1F1" style="stroke:#181818;stroke-width:0.5;"/><path d="M2339.46,119.4969 C2339.46,129.4969 2407.9346,129.4969 2407.9346,129.4969 C2407.9346,129.4969 2476.4092,129.4969 2476.4092,119.4969" fill="none" style="stroke:#181818;stroke-width:0.5;"/><text fill="#000000" font-family="sans-serif" font-size="14" lengthAdjust="spacing" textLength="116.9492" x="2349.46" y="146.492">Vector Database</text><text fill="#000000" font-family="sans-serif" font-size="14" lengthAdjust="spacing" textLength="74.4912" x="2349.46" y="162.7889">(Pinecone)</text></g><!--entity DataLake--><g class="entity" data-entity="DataLake" data-source-line="18" data-uid="ent0011" id="entity_DataLake"><path d="M1272.02,119.4969 C1272.02,109.4969 1324.9326,109.4969 1324.9326,109.4969 C1324.9326,109.4969 1377.8452,109.4969 1377.8452,119.4969 L1377.8452,161.0906 C1377.8452,171.0906 1324.9326,171.0906 1324.9326,171.0906 C1324.9326,171.0906 1272.02,171.0906 1272.02,161.0906 L1272.02,119.4969" fill="#F1F1F1" style="stroke:#181818;stroke-width:0.5;"/><path d="M1272.02,119.4969 C1272.02,129.4969 1324.9326,129.4969 1324.9326,129.4969 C1324.9326,129.4969 1377.8452,129.4969 1377.8452,119.4969" fill="none" style="stroke:#181818;stroke-width:0.5;"/><text fill="#000000" font-family="sans-serif" font-size="14" lengthAdjust="spacing" textLength="70.9775" x="1282.02" y="146.492">Data Lake</text><text fill="#000000" font-family="sans-serif" font-size="14" lengthAdjust="spacing" textLength="85.8252" x="1282.02" y="162.7889">(Delta Lake)</text></g><g class="entity" data-entity="GMN22" data-source-line="31" data-uid="ent0023" id="entity_GMN22"><path d="M1044.96,120.1569 L1044.96,136.2869 L1009.89,140.2869 L1044.96,144.2869 L1044.96,160.4225 A0,0 0 0 0 1044.96,160.4225 L1236.9151,160.4225 A0,0 0 0 0 1236.9151,160.4225 L1236.9151,130.1569 L1226.9151,120.1569 L1044.96,120.1569 A0,0 0 0 0 1044.96,120.1569" fill="#FEFFDD" style="stroke:#181818;stroke-width:0.5;"/><path d="M1226.9151,120.1569 L1226.9151,130.1569 L1236.9151,130.1569 L1226.9151,120.1569" fill="#FEFFDD" style="stroke:#181818;stroke-width:0.5;"/><text fill="#000000" font-family="sans-serif" font-size="13" lengthAdjust="spacing" textLength="162.9761" x="1050.96" y="137.2238">Windowing, aggregation,</text><text fill="#000000" font-family="sans-serif" font-size="13" lengthAdjust="spacing" textLength="170.9551" x="1050.96" y="152.3566">complex event processing</text></g><g class="entity" data-entity="GMN25" data-source-line="32" data-uid="ent0026" id="entity_GMN25"><path d="M1975.28,120.1569 L1975.28,136.2869 L1940.62,140.2869 L1975.28,144.2869 L1975.28,160.4225 A0,0 0 0 0 1975.28,160.4225 L2128.5905,160.4225 A0,0 0 0 0 2128.5905,160.4225 L2128.5905,130.1569 L2118.5905,120.1569 L1975.28,120.1569 A0,0 0 0 0 1975.28,120.1569" fill="#FEFFDD" style="stroke:#181818;stroke-width:0.5;"/><path d="M2118.5905,120.1569 L2118.5905,130.1569 L2128.5905,130.1569 L2118.5905,120.1569" fill="#FEFFDD" style="stroke:#181818;stroke-width:0.5;"/><text fill="#000000" font-family="sans-serif" font-size="13" lengthAdjust="spacing" textLength="132.0884" x="1981.28" y="137.2238">Real-time inference,</text><text fill="#000000" font-family="sans-serif" font-size="13" lengthAdjust="spacing" textLength="132.3105" x="1981.28" y="152.3566">anomalies detection</text></g><g class="entity" data-entity="GMN28" data-source-line="33" data-uid="ent0029" id="entity_GMN28"><path d="M1412.37,120.1569 L1412.37,136.2869 L1378.25,140.2869 L1412.37,144.2869 L1412.37,160.4225 A0,0 0 0 0 1412.37,160.4225 L1549.494,160.4225 A0,0 0 0 0 1549.494,160.4225 L1549.494,130.1569 L1539.494,120.1569 L1412.37,120.1569 A0,0 0 0 0 1412.37,120.1569" fill="#FEFFDD" style="stroke:#181818;stroke-width:0.5;"/><path d="M1539.494,120.1569 L1539.494,130.1569 L1549.494,130.1569 L1539.494,120.1569" fill="#FEFFDD" style="stroke:#181818;stroke-width:0.5;"/><text fill="#000000" font-family="sans-serif" font-size="13" lengthAdjust="spacing" textLength="115.978" x="1418.37" y="137.2238">Batch processing,</text><text fill="#000000" font-family="sans-serif" font-size="13" lengthAdjust="spacing" textLength="116.124" x="1418.37" y="152.3566">historical analysis</text></g><!--link SensorQ to Ingestion--><g class="link" data-entity-1="SensorQ" data-entity-2="Ingestion" data-source-line="20" data-uid="lnk12" id="link_SensorQ_Ingestion"><path d="M112.08,140.2869 C153.34,140.2869 204.97,140.2869 250.31,140.2869" fill="none" id="SensorQ-to-Ingestion" style="stroke:#181818;stroke-width:1;"/><polygon fill="#181818" points="256.31,140.2869,247.31,136.2869,251.31,140.2869,247.31,144.2869,256.31,140.2869" style="stroke:#181818;stroke-width:1;"/><text fill="#000000" font-family="sans-serif" font-size="13" lengthAdjust="spacing" textLength="108.2593" x="130.28" y="133.3538">Raw sensor data</text></g><!--link Ingestion to EventQ--><g class="link" data-entity-1="Ingestion" data-entity-2="EventQ" data-source-line="21" data-uid="lnk13" id="link_Ingestion_EventQ"><path d="M399.61,140.2869 C448.1,140.2869 505.31,140.2869 550.69,140.2869" fill="none" id="Ingestion-to-EventQ" style="stroke:#181818;stroke-width:1;"/><polygon fill="#181818" points="556.69,140.2869,547.69,136.2869,551.69,140.2869,547.69,144.2869,556.69,140.2869" style="stroke:#181818;stroke-width:1;"/><text fill="#000000" font-family="sans-serif" font-size="13" lengthAdjust="spacing" textLength="121.8813" x="417.68" y="133.3538">Normalized events</text></g><!--link EventQ to StreamProc--><g class="link" data-entity-1="EventQ" data-entity-2="StreamProc" data-source-line="22" data-uid="lnk14" id="link_EventQ_StreamProc"><path d="M673.07,140.2869 C721.69,140.2869 785.61,140.2869 839.91,140.2869" fill="none" id="EventQ-to-StreamProc" style="stroke:#181818;stroke-width:1;"/><polygon fill="#181818" points="845.91,140.2869,836.91,136.2869,840.91,140.2869,836.91,144.2869,845.91,140.2869" style="stroke:#181818;stroke-width:1;"/><text fill="#000000" font-family="sans-serif" font-size="13" lengthAdjust="spacing" textLength="137.1475" x="690.96" y="133.3538">Real-time processing</text></g><!--link StreamProc to TimeSeriesDB--><g class="link" data-entity-1="StreamProc" data-entity-2="TimeSeriesDB" data-source-line="23" data-uid="lnk15" id="link_StreamProc_TimeSeriesDB"><path d="M1009.9,112.6669 C1015.96,111.2369 1022.01,109.9869 1027.93,108.9969 C1306.07,62.5069 2014.46,77.5569 2296.43,73.6269 C2335.98,73.0769 2346.37,67.4169 2385.43,73.6269 C2435.52,81.5869 2446.15,91.9869 2493.93,108.9969 C2499.47,110.9669 2499.578,110.9609 2505.318,113.1009" fill="none" id="StreamProc-to-TimeSeriesDB" style="stroke:#181818;stroke-width:1;"/><polygon fill="#181818" points="2510.94,115.1969,2503.9044,108.3049,2506.255,113.4502,2501.1097,115.8009,2510.94,115.1969" style="stroke:#181818;stroke-width:1;"/><text fill="#000000" font-family="sans-serif" font-size="13" lengthAdjust="spacing" textLength="87.4136" x="2297.43" y="75.0638">Store metrics</text></g><!--link StreamProc to MLQ--><g class="link" data-entity-1="StreamProc" data-entity-2="MLQ" data-source-line="24" data-uid="lnk16" id="link_StreamProc_MLQ"><path d="M958.57,108.6469 C973.9,95.0669 993.61,80.7169 1014.43,73.6269 C1065.04,56.3869 1472.44,83.7369 1566.93,108.9969 C1575.74,111.3469 1579.3208,112.3844 1587.8408,116.1444" fill="none" id="StreamProc-to-MLQ" style="stroke:#181818;stroke-width:1;"/><polygon fill="#181818" points="1593.33,118.5669,1586.7111,111.2737,1588.7556,116.5481,1583.4812,118.5926,1593.33,118.5669" style="stroke:#181818;stroke-width:1;"/><text fill="#000000" font-family="sans-serif" font-size="13" lengthAdjust="spacing" textLength="137.7949" x="1015.43" y="75.0638">ML processing queue</text></g><!--link MLQ to MLEngine--><g class="link" data-entity-1="MLQ" data-entity-2="MLEngine" data-source-line="25" data-uid="lnk17" id="link_MLQ_MLEngine"><path d="M1683.87,140.2869 C1720.27,140.2869 1763.93,140.2869 1803.5,140.2869" fill="none" id="MLQ-to-MLEngine" style="stroke:#181818;stroke-width:1;"/><polygon fill="#181818" points="1809.5,140.2869,1800.5,136.2869,1804.5,140.2869,1800.5,144.2869,1809.5,140.2869" style="stroke:#181818;stroke-width:1;"/><text fill="#000000" font-family="sans-serif" font-size="13" lengthAdjust="spacing" textLength="90.7969" x="1701.68" y="133.3538">Run inference</text></g><!--link MLEngine to VectorDB--><g class="link" data-entity-1="MLEngine" data-entity-2="VectorDB" data-source-line="26" data-uid="lnk18" id="link_MLEngine_VectorDB"><path d="M1896.7,108.8169 C1908,95.2769 1923.08,80.9069 1940.43,73.6269 C2012.76,43.2969 2275.31,97.4869 2321.93,108.9969 C2327.64,110.3969 2327.7562,110.2896 2333.5962,112.0896" fill="none" id="MLEngine-to-VectorDB" style="stroke:#181818;stroke-width:1;"/><polygon fill="#181818" points="2339.33,113.8569,2331.9074,107.3834,2334.5518,112.3841,2329.5511,115.0285,2339.33,113.8569" style="stroke:#181818;stroke-width:1;"/><text fill="#000000" font-family="sans-serif" font-size="13" lengthAdjust="spacing" textLength="119.0693" x="1941.43" y="75.0638">Store embeddings</text></g><!--link MLEngine to AlertMgr--><g class="link" data-entity-1="MLEngine" data-entity-2="AlertMgr" data-source-line="27" data-uid="lnk19" id="link_MLEngine_AlertMgr"><path d="M1940.53,115.2469 C1946.4,113.0969 1952.27,110.9869 1957.93,108.9969 C2005.79,92.1869 2016.34,81.5869 2066.43,73.6269 C2109.89,66.7269 2124.61,57.2169 2165.43,73.6269 C2187,82.2969 2201.8536,96.5444 2214.3836,112.0144" fill="none" id="MLEngine-to-AlertMgr" style="stroke:#181818;stroke-width:1;"/><polygon fill="#181818" points="2218.16,116.6769,2215.6037,107.1655,2215.013,112.7915,2209.3871,112.2007,2218.16,116.6769" style="stroke:#181818;stroke-width:1;"/><text fill="#000000" font-family="sans-serif" font-size="13" lengthAdjust="spacing" textLength="97.9443" x="2067.43" y="75.0638">Anomaly alerts</text></g><!--link StreamProc to DataLake--><g class="link" data-entity-1="StreamProc" data-entity-2="DataLake" data-source-line="28" data-uid="lnk20" id="link_StreamProc_DataLake"><path d="M1009.8,112.9669 C1094.69,86.6069 1221.15,53.4569 1265.93,73.6269 C1282.42,81.0469 1292.5952,90.7906 1302.6552,104.4106" fill="none" id="StreamProc-to-DataLake" style="stroke:#181818;stroke-width:1;"/><polygon fill="#181818" points="1306.22,109.2369,1304.0904,99.621,1303.2494,105.215,1297.6554,104.374,1306.22,109.2369" style="stroke:#181818;stroke-width:1;"/><text fill="#000000" font-family="sans-serif" font-size="13" lengthAdjust="spacing" textLength="94.3071" x="1170.93" y="75.0638">Historical data</text></g><!--link DataLake to MLEngine--><g class="link" data-entity-1="DataLake" data-entity-2="MLEngine" data-source-line="29" data-uid="lnk21" id="link_DataLake_MLEngine"><path d="M1378.01,115.2669 C1383.66,112.9869 1389.38,110.8469 1394.93,108.9969 C1461.95,86.6069 1479.72,81.5369 1549.93,73.6269 C1588.8,69.2469 1599.19,68.2769 1637.93,73.6269 C1697.11,81.7869 1756.6083,99.0084 1803.6183,114.6884" fill="none" id="DataLake-to-MLEngine" style="stroke:#181818;stroke-width:1;"/><polygon fill="#181818" points="1809.31,116.5869,1802.038,109.9447,1804.5669,115.0048,1799.5068,117.5337,1809.31,116.5869" style="stroke:#181818;stroke-width:1;"/><text fill="#000000" font-family="sans-serif" font-size="13" lengthAdjust="spacing" textLength="86.6201" x="1550.93" y="75.0638">Training data</text></g><!--SRC=[NLDDazem3BtxLwYSsfdTFv13Pw2axSv0WOHjBroyZWYUTMngc_tehwySOyViXS7IqzFJa-AbLmWDSdNlvO2mv9x3rXg1padTmrQUKKcDZ7tgy4X_OFTOFzRmzu8NpB5ji_bMj-sc0M66iz6eVSwr-qqp_r53HynFt15JP9Yrg9snOyU3tWM-6N07CRnBgFg5oA3r5lbGmiPuHgrNMMa9MgzsZ4tYPkDq3xf7vwNH1zsYVP4YOdEuB8Xzao767lJd-PcB4y9twlNy9IeUGG5JbfAa1tr4YrgGfbhtfEqgAZvAy5oXzR3cclTeHzGOMVUMiMJWR1yMH98bEbWkI0hngylRSX5bX7JCBXTJqMyK_kfoS9-gjjHRq8vYLSoN5QD9A_uSi4jKrqT4XrnuaQgu9hZ_EZbNGSDVmSMzXdspd0gukB8AVXaxS2N_OGSOGex5JC1CNbR5LPxpGR894E3bp1KL6uimeBTIk0z8EeMAVWggwmrJ8kRZLgZjHODCcsCf7Z39gzG9XoViEg9oDx2qkWhcsj2axy13vAEYv6K5FwKZFYcuYgwbpAsklULI1zqZXcdZ4QpiJnxCiV0DAlWZTMTU2Ne7lEyjzZoiuEwWmzUfy2tQNhfwIvQ7ANUGBI4UFiuLxh13JwQ4h-QM8ezGmO9xSIgQKVrf6fXENhqxwTX_]--></g></svg>