<svg xmlns="http://www.w3.org/2000/svg" xmlns:xlink="http://www.w3.org/1999/xlink" contentStyleType="text/css" data-diagram-type="TIMING" height="508px" preserveAspectRatio="none" style="width:538px;height:508px;background:#FFFFFF;" version="1.1" viewBox="0 0 538 508" width="538px" zoomAndPan="magnify"><title>Real-time Flow Execution Timing</title><defs/><g><g class="title" data-source-line="1"><text fill="#000000" font-family="sans-serif" font-size="14" font-weight="bold" lengthAdjust="spacing" textLength="258.5967" x="120.5571" y="32.9951">Real-time Flow Execution Timing</text></g><line style="stroke:#333333;stroke-width:0.5;" x1="10" x2="10" y1="47.2969" y2="478.7813"/><line style="stroke:#333333;stroke-width:0.5;" x1="490.7109" x2="490.7109" y1="47.2969" y2="478.7813"/><line style="stroke:#333333;stroke-width:0.5;stroke-dasharray:3,5;" x1="85.7109" x2="85.7109" y1="47.2969" y2="478.7813"/><line style="stroke:#333333;stroke-width:0.5;stroke-dasharray:3,5;" x1="135.7109" x2="135.7109" y1="47.2969" y2="478.7813"/><line style="stroke:#333333;stroke-width:0.5;stroke-dasharray:3,5;" x1="185.7109" x2="185.7109" y1="47.2969" y2="478.7813"/><line style="stroke:#333333;stroke-width:0.5;stroke-dasharray:3,5;" x1="235.7109" x2="235.7109" y1="47.2969" y2="478.7813"/><line style="stroke:#333333;stroke-width:0.5;stroke-dasharray:3,5;" x1="285.7109" x2="285.7109" y1="47.2969" y2="478.7813"/><line style="stroke:#333333;stroke-width:0.5;stroke-dasharray:3,5;" x1="335.7109" x2="335.7109" y1="47.2969" y2="478.7813"/><line style="stroke:#333333;stroke-width:0.5;stroke-dasharray:3,5;" x1="385.7109" x2="385.7109" y1="47.2969" y2="478.7813"/><line style="stroke:#333333;stroke-width:0.5;stroke-dasharray:3,5;" x1="435.7109" x2="435.7109" y1="47.2969" y2="478.7813"/><line style="stroke:#333333;stroke-width:0.5;stroke-dasharray:3,5;" x1="485.7109" x2="485.7109" y1="47.2969" y2="478.7813"/><line style="stroke:#333333;stroke-width:0.5;" x1="10" x2="490.7109" y1="47.2969" y2="47.2969"/><text fill="#333333" font-family="sans-serif" font-size="14" font-weight="bold" lengthAdjust="spacing" textLength="82.8311" x="15" y="60.292">User Input</text><line style="stroke:#333333;stroke-width:0.5;" x1="10" x2="98.8311" y1="64.5938" y2="64.5938"/><line style="stroke:#333333;stroke-width:0.5;" x1="98.8311" x2="108.8311" y1="64.5938" y2="47.2969"/><text fill="#333333" font-family="sans-serif" font-size="12" lengthAdjust="spacing" textLength="21.873" x="33.4141" y="114.748">Idle</text><text fill="#333333" font-family="sans-serif" font-size="12" lengthAdjust="spacing" textLength="37.3301" x="33.4141" y="94.748">Active</text><text fill="#333333" font-family="sans-serif" font-size="12" lengthAdjust="spacing" textLength="47.2969" x="33.4141" y="74.748">Viewing</text><line style="stroke:#006400;stroke-width:2;" x1="85.7109" x2="135.7109" y1="109.5938" y2="109.5938"/><line style="stroke:#006400;stroke-width:2;" x1="135.7109" x2="435.7109" y1="89.5938" y2="89.5938"/><line style="stroke:#006400;stroke-width:2;" x1="435.7109" x2="485.7109" y1="69.5938" y2="69.5938"/><line style="stroke:#006400;stroke-width:2;" x1="135.7109" x2="135.7109" y1="89.5938" y2="109.5938"/><line style="stroke:#006400;stroke-width:2;" x1="435.7109" x2="435.7109" y1="69.5938" y2="89.5938"/><text fill="#333333" font-family="sans-serif" font-size="12" lengthAdjust="spacing" textLength="106.4707" x="137.7109" y="86.7637">User triggers flow</text><text fill="#333333" font-family="sans-serif" font-size="12" lengthAdjust="spacing" textLength="66.6621" x="437.7109" y="66.7637">See results</text><line style="stroke:#333333;stroke-width:0.5;" x1="10" x2="490.7109" y1="121.5938" y2="121.5938"/><text fill="#333333" font-family="sans-serif" font-size="14" font-weight="bold" lengthAdjust="spacing" textLength="95.6006" x="15" y="134.5889">Flow Engine</text><line style="stroke:#333333;stroke-width:0.5;" x1="10" x2="111.6006" y1="138.8906" y2="138.8906"/><line style="stroke:#333333;stroke-width:0.5;" x1="111.6006" x2="121.6006" y1="138.8906" y2="121.5938"/><text fill="#333333" font-family="sans-serif" font-size="12" lengthAdjust="spacing" textLength="45.8145" x="16.1582" y="229.0449">Waiting</text><text fill="#333333" font-family="sans-serif" font-size="12" lengthAdjust="spacing" textLength="64.5527" x="16.1582" y="209.0449">Processing</text><text fill="#333333" font-family="sans-serif" font-size="12" lengthAdjust="spacing" textLength="59.5313" x="16.1582" y="189.0449">Executing</text><text fill="#333333" font-family="sans-serif" font-size="12" lengthAdjust="spacing" textLength="54.6328" x="16.1582" y="169.0449">Updating</text><text fill="#333333" font-family="sans-serif" font-size="12" lengthAdjust="spacing" textLength="54.2402" x="16.1582" y="149.0449">Notifying</text><line style="stroke:#006400;stroke-width:2;" x1="85.7109" x2="135.7109" y1="223.8906" y2="223.8906"/><line style="stroke:#006400;stroke-width:2;" x1="135.7109" x2="185.7109" y1="203.8906" y2="203.8906"/><line style="stroke:#006400;stroke-width:2;" x1="185.7109" x2="335.7109" y1="183.8906" y2="183.8906"/><line style="stroke:#006400;stroke-width:2;" x1="335.7109" x2="385.7109" y1="163.8906" y2="163.8906"/><line style="stroke:#006400;stroke-width:2;" x1="385.7109" x2="435.7109" y1="143.8906" y2="143.8906"/><line style="stroke:#006400;stroke-width:2;" x1="435.7109" x2="485.7109" y1="223.8906" y2="223.8906"/><line style="stroke:#006400;stroke-width:2;" x1="135.7109" x2="135.7109" y1="203.8906" y2="223.8906"/><line style="stroke:#006400;stroke-width:2;" x1="185.7109" x2="185.7109" y1="183.8906" y2="203.8906"/><line style="stroke:#006400;stroke-width:2;" x1="335.7109" x2="335.7109" y1="163.8906" y2="183.8906"/><line style="stroke:#006400;stroke-width:2;" x1="385.7109" x2="385.7109" y1="143.8906" y2="163.8906"/><line style="stroke:#006400;stroke-width:2;" x1="435.7109" x2="435.7109" y1="143.8906" y2="223.8906"/><text fill="#333333" font-family="sans-serif" font-size="12" lengthAdjust="spacing" textLength="83.9707" x="137.7109" y="201.0605">Validate input</text><text fill="#333333" font-family="sans-serif" font-size="12" lengthAdjust="spacing" textLength="57.8438" x="187.7109" y="181.0605">Start flow</text><text fill="#333333" font-family="sans-serif" font-size="12" lengthAdjust="spacing" textLength="77.6719" x="337.7109" y="161.0605">Update state</text><text fill="#333333" font-family="sans-serif" font-size="12" lengthAdjust="spacing" textLength="82.5703" x="387.7109" y="141.0605">Send updates</text><text fill="#333333" font-family="sans-serif" font-size="12" lengthAdjust="spacing" textLength="88.7168" x="437.7109" y="221.0605">Ready for next</text><line style="stroke:#333333;stroke-width:0.5;" x1="10" x2="490.7109" y1="235.8906" y2="235.8906"/><text fill="#333333" font-family="sans-serif" font-size="14" font-weight="bold" lengthAdjust="spacing" textLength="131.7559" x="15" y="248.8857">Node Processing</text><line style="stroke:#333333;stroke-width:0.5;" x1="10" x2="147.7559" y1="253.1875" y2="253.1875"/><line style="stroke:#333333;stroke-width:0.5;" x1="147.7559" x2="157.7559" y1="253.1875" y2="235.8906"/><text fill="#333333" font-family="sans-serif" font-size="12" lengthAdjust="spacing" textLength="37.793" x="19.8164" y="343.3418">Ready</text><text fill="#333333" font-family="sans-serif" font-size="12" lengthAdjust="spacing" textLength="64.5527" x="19.8164" y="323.3418">Processing</text><text fill="#333333" font-family="sans-serif" font-size="12" lengthAdjust="spacing" textLength="55.0254" x="19.8164" y="303.3418">Querying</text><text fill="#333333" font-family="sans-serif" font-size="12" lengthAdjust="spacing" textLength="65.8945" x="19.8164" y="283.3418">Computing</text><text fill="#333333" font-family="sans-serif" font-size="12" lengthAdjust="spacing" textLength="57.832" x="19.8164" y="263.3418">Complete</text><line style="stroke:#006400;stroke-width:2;" x1="85.7109" x2="185.7109" y1="338.1875" y2="338.1875"/><line style="stroke:#006400;stroke-width:2;" x1="185.7109" x2="235.7109" y1="318.1875" y2="318.1875"/><line style="stroke:#006400;stroke-width:2;" x1="235.7109" x2="285.7109" y1="298.1875" y2="298.1875"/><line style="stroke:#006400;stroke-width:2;" x1="285.7109" x2="335.7109" y1="278.1875" y2="278.1875"/><line style="stroke:#006400;stroke-width:2;" x1="335.7109" x2="435.7109" y1="258.1875" y2="258.1875"/><line style="stroke:#006400;stroke-width:2;" x1="435.7109" x2="485.7109" y1="338.1875" y2="338.1875"/><line style="stroke:#006400;stroke-width:2;" x1="185.7109" x2="185.7109" y1="318.1875" y2="338.1875"/><line style="stroke:#006400;stroke-width:2;" x1="235.7109" x2="235.7109" y1="298.1875" y2="318.1875"/><line style="stroke:#006400;stroke-width:2;" x1="285.7109" x2="285.7109" y1="278.1875" y2="298.1875"/><line style="stroke:#006400;stroke-width:2;" x1="335.7109" x2="335.7109" y1="258.1875" y2="278.1875"/><line style="stroke:#006400;stroke-width:2;" x1="435.7109" x2="435.7109" y1="258.1875" y2="338.1875"/><text fill="#333333" font-family="sans-serif" font-size="12" lengthAdjust="spacing" textLength="88.3711" x="187.7109" y="315.3574">Execute nodes</text><text fill="#333333" font-family="sans-serif" font-size="12" lengthAdjust="spacing" textLength="67.3125" x="237.7109" y="295.3574">Query data</text><text fill="#333333" font-family="sans-serif" font-size="12" lengthAdjust="spacing" textLength="90.2754" x="287.7109" y="275.3574">Process results</text><text fill="#333333" font-family="sans-serif" font-size="12" lengthAdjust="spacing" textLength="103.7813" x="337.7109" y="255.3574">Finish processing</text><text fill="#333333" font-family="sans-serif" font-size="12" lengthAdjust="spacing" textLength="55.0195" x="437.7109" y="335.3574">Available</text><line style="stroke:#333333;stroke-width:0.5;" x1="10" x2="490.7109" y1="350.1875" y2="350.1875"/><text fill="#333333" font-family="sans-serif" font-size="14" font-weight="bold" lengthAdjust="spacing" textLength="74.5049" x="15" y="363.1826">Database</text><line style="stroke:#333333;stroke-width:0.5;" x1="10" x2="90.5049" y1="367.4844" y2="367.4844"/><line style="stroke:#333333;stroke-width:0.5;" x1="90.5049" x2="100.5049" y1="367.4844" y2="350.1875"/><text fill="#333333" font-family="sans-serif" font-size="12" lengthAdjust="spacing" textLength="55.0195" x="15" y="417.6387">Available</text><text fill="#333333" font-family="sans-serif" font-size="12" lengthAdjust="spacing" textLength="64.5527" x="15" y="397.6387">Processing</text><text fill="#333333" font-family="sans-serif" font-size="12" lengthAdjust="spacing" textLength="70.7109" x="15" y="377.6387">Responding</text><line style="stroke:#006400;stroke-width:2;" x1="85.7109" x2="235.7109" y1="412.4844" y2="412.4844"/><line style="stroke:#006400;stroke-width:2;" x1="235.7109" x2="285.7109" y1="392.4844" y2="392.4844"/><line style="stroke:#006400;stroke-width:2;" x1="285.7109" x2="435.7109" y1="372.4844" y2="372.4844"/><line style="stroke:#006400;stroke-width:2;" x1="435.7109" x2="485.7109" y1="412.4844" y2="412.4844"/><line style="stroke:#006400;stroke-width:2;" x1="235.7109" x2="235.7109" y1="392.4844" y2="412.4844"/><line style="stroke:#006400;stroke-width:2;" x1="285.7109" x2="285.7109" y1="372.4844" y2="392.4844"/><line style="stroke:#006400;stroke-width:2;" x1="435.7109" x2="435.7109" y1="372.4844" y2="412.4844"/><text fill="#333333" font-family="sans-serif" font-size="12" lengthAdjust="spacing" textLength="84.4512" x="237.7109" y="389.6543">Process query</text><text fill="#333333" font-family="sans-serif" font-size="12" lengthAdjust="spacing" textLength="84.8496" x="287.7109" y="369.6543">Return results</text><text fill="#333333" font-family="sans-serif" font-size="12" lengthAdjust="spacing" textLength="37.793" x="437.7109" y="409.6543">Ready</text><line style="stroke:#333333;stroke-width:0.5;" x1="10" x2="490.7109" y1="424.4844" y2="424.4844"/><text fill="#333333" font-family="sans-serif" font-size="14" font-weight="bold" lengthAdjust="spacing" textLength="78.4971" x="15" y="437.4795">UI Update</text><line style="stroke:#333333;stroke-width:0.5;" x1="10" x2="94.4971" y1="441.7813" y2="441.7813"/><line style="stroke:#333333;stroke-width:0.5;" x1="94.4971" x2="104.4971" y1="441.7813" y2="424.4844"/><text fill="#333333" font-family="sans-serif" font-size="12" lengthAdjust="spacing" textLength="62.7891" x="16.0352" y="471.9355">Displaying</text><text fill="#333333" font-family="sans-serif" font-size="12" lengthAdjust="spacing" textLength="64.6758" x="16.0352" y="451.9355">Refreshing</text><line style="stroke:#006400;stroke-width:2;" x1="85.7109" x2="385.7109" y1="466.7813" y2="466.7813"/><line style="stroke:#006400;stroke-width:2;" x1="385.7109" x2="435.7109" y1="446.7813" y2="446.7813"/><line style="stroke:#006400;stroke-width:2;" x1="435.7109" x2="485.7109" y1="466.7813" y2="466.7813"/><line style="stroke:#006400;stroke-width:2;" x1="385.7109" x2="385.7109" y1="446.7813" y2="466.7813"/><line style="stroke:#006400;stroke-width:2;" x1="435.7109" x2="435.7109" y1="446.7813" y2="466.7813"/><text fill="#333333" font-family="sans-serif" font-size="12" lengthAdjust="spacing" textLength="89.8828" x="387.7109" y="443.9512">Update display</text><text fill="#333333" font-family="sans-serif" font-size="12" lengthAdjust="spacing" textLength="76.6582" x="437.7109" y="463.9512">Show results</text><line style="stroke:#333333;stroke-width:2;" x1="85.7109" x2="85.7109" y1="478.7813" y2="483.7813"/><line style="stroke:#333333;stroke-width:2;" x1="135.7109" x2="135.7109" y1="478.7813" y2="483.7813"/><line style="stroke:#333333;stroke-width:2;" x1="185.7109" x2="185.7109" y1="478.7813" y2="483.7813"/><line style="stroke:#333333;stroke-width:2;" x1="235.7109" x2="235.7109" y1="478.7813" y2="483.7813"/><line style="stroke:#333333;stroke-width:2;" x1="285.7109" x2="285.7109" y1="478.7813" y2="483.7813"/><line style="stroke:#333333;stroke-width:2;" x1="335.7109" x2="335.7109" y1="478.7813" y2="483.7813"/><line style="stroke:#333333;stroke-width:2;" x1="385.7109" x2="385.7109" y1="478.7813" y2="483.7813"/><line style="stroke:#333333;stroke-width:2;" x1="435.7109" x2="435.7109" y1="478.7813" y2="483.7813"/><line style="stroke:#333333;stroke-width:2;" x1="485.7109" x2="485.7109" y1="478.7813" y2="483.7813"/><line style="stroke:#333333;stroke-width:2;" x1="85.7109" x2="485.7109" y1="478.7813" y2="478.7813"/><text fill="#333333" font-family="sans-serif" font-size="11" lengthAdjust="spacing" textLength="6.9985" x="82.2117" y="494.9917">0</text><text fill="#333333" font-family="sans-serif" font-size="11" lengthAdjust="spacing" textLength="20.9956" x="125.2131" y="494.9917">100</text><text fill="#333333" font-family="sans-serif" font-size="11" lengthAdjust="spacing" textLength="20.9956" x="175.2131" y="494.9917">200</text><text fill="#333333" font-family="sans-serif" font-size="11" lengthAdjust="spacing" textLength="20.9956" x="225.2131" y="494.9917">300</text><text fill="#333333" font-family="sans-serif" font-size="11" lengthAdjust="spacing" textLength="20.9956" x="275.2131" y="494.9917">400</text><text fill="#333333" font-family="sans-serif" font-size="11" lengthAdjust="spacing" textLength="20.9956" x="325.2131" y="494.9917">500</text><text fill="#333333" font-family="sans-serif" font-size="11" lengthAdjust="spacing" textLength="20.9956" x="375.2131" y="494.9917">600</text><text fill="#333333" font-family="sans-serif" font-size="11" lengthAdjust="spacing" textLength="20.9956" x="425.2131" y="494.9917">700</text><!--SRC=[PPDDJm8n48Rl_HKJxoRudNX2H9Az40NHSs47cAIqQpkhyE-Tjll1weMqEs-VUUS39ZO82zJcakc0C3Fk1rwEkAcPd8LtEf3TAUNTkWuC5wk07WfRrNm1Ea2yTh7yrEx8OWhcOnUUknBXrRiDXY3C98dVGgUOQjPh7VBhwQHFMi2gAZNdmAfGQZnIoGa5A4g3AgUArqzD71qdSlmWfPKdDPt4yzEt9gFNya2GSfzIg8m-fGh7LwCU-hHX-aPuJ0K2Uzhjq0VOIeLdkVfYHFcX3KMFGB4xmhiMNgzjMfgaIzQUCwopEM1bCO9DxL7Z6q5rohSQ_IdhqX4agsuA752Q2tn5bL1kXP9b2moLisMMBP1hRy5Zg0s7Fi-pErIjunRLYjJuxjnIb1hasB0PMGfxg3eZPpr8Gyp0F4y8BBz2kn_qQkwOjas9IxGbr4aTcgajS2i-zWDGcISfg8UpCNuG_hGOxCp_MvRK1DaIs3eF5e_yPtiatc_Edqrgt_xRg9XqBt-8Dkil]--></g></svg>