<svg xmlns="http://www.w3.org/2000/svg" xmlns:xlink="http://www.w3.org/1999/xlink" contentStyleType="text/css" data-diagram-type="DESCRIPTION" height="1077px" preserveAspectRatio="none" style="width:1576px;height:1077px;background:#FFF5F5;" version="1.1" viewBox="0 0 1576 1077" width="1576px" zoomAndPan="magnify"><title>VisualGridDev Studio - Security Architecture View</title><defs/><g><rect fill="#FFF5F5" height="1077" style="stroke:none;stroke-width:1;" width="1576" x="0" y="0"/><g class="title" data-source-line="4"><text fill="#000000" font-family="Verdana" font-size="22" font-weight="bold" lengthAdjust="spacing" textLength="620.3613" x="473.7102" y="35.4209">VisualGridDev Studio - Security Architecture View</text></g><!--cluster iam--><g class="cluster" data-entity="iam" data-source-line="6" data-uid="ent0002" id="cluster_iam"><rect fill="#FFFFFF" height="286.18" rx="2.5" ry="2.5" style="stroke:#000000;stroke-width:1;" width="476" x="456" y="99.5994"/><text fill="#000000" font-family="Verdana" font-size="14" font-weight="bold" lengthAdjust="spacing" textLength="245.4785" x="571.2607" y="114.5945">Identity &amp; Access Management</text></g><!--cluster network--><g class="cluster" data-entity="network" data-source-line="13" data-uid="ent0007" id="cluster_network"><rect fill="#FFFFFF" height="304.19" rx="2.5" ry="2.5" style="stroke:#000000;stroke-width:1;" width="424" x="972" y="266.1894"/><text fill="#000000" font-family="Verdana" font-size="14" font-weight="bold" lengthAdjust="spacing" textLength="136.9102" x="1115.5449" y="281.1845">Network Security</text></g><!--cluster data--><g class="cluster" data-entity="data" data-source-line="20" data-uid="ent0012" id="cluster_data"><rect fill="#FFFFFF" height="304.19" rx="2.5" ry="2.5" style="stroke:#000000;stroke-width:1;" width="459" x="473" y="450.7794"/><text fill="#000000" font-family="Verdana" font-size="14" font-weight="bold" lengthAdjust="spacing" textLength="124.4277" x="640.2861" y="465.7745">Data Protection</text></g><!--cluster runtime--><g class="cluster" data-entity="runtime" data-source-line="27" data-uid="ent0017" id="cluster_runtime"><rect fill="#FFFFFF" height="304.19" rx="2.5" ry="2.5" style="stroke:#000000;stroke-width:1;" width="421" x="12" y="635.3794"/><text fill="#000000" font-family="Verdana" font-size="14" font-weight="bold" lengthAdjust="spacing" textLength="136.5273" x="154.2363" y="650.3745">Runtime Security</text></g><!--cluster compliance--><g class="cluster" data-entity="compliance" data-source-line="34" data-uid="ent0022" id="cluster_compliance"><rect fill="#FFFFFF" height="251.19" rx="2.5" ry="2.5" style="stroke:#000000;stroke-width:1;" width="421" x="473" y="819.9694"/><text fill="#000000" font-family="Verdana" font-size="14" font-weight="bold" lengthAdjust="spacing" textLength="155.5791" x="605.7104" y="834.9645">Compliance &amp; Audit</text></g><!--entity mfa--><g class="entity" data-entity="mfa" data-source-line="7" data-uid="ent0003" id="entity_mfa"><rect fill="#FFFFFF" height="52.5938" rx="2.5" ry="2.5" style="stroke:#000000;stroke-width:1;" width="122.7715" x="479.61" y="142.5994"/><text fill="#000000" font-family="Verdana" font-size="14" lengthAdjust="spacing" textLength="83.4121" x="489.61" y="165.5945">Multi-Factor</text><text fill="#000000" font-family="Verdana" font-size="14" lengthAdjust="spacing" textLength="102.7715" x="489.61" y="181.8914">Authentication</text></g><!--entity rbac--><g class="entity" data-entity="rbac" data-source-line="8" data-uid="ent0004" id="entity_rbac"><rect fill="#FFFFFF" height="52.5938" rx="2.5" ry="2.5" style="stroke:#000000;stroke-width:1;" width="123.5371" x="637.23" y="142.5994"/><text fill="#000000" font-family="Verdana" font-size="14" lengthAdjust="spacing" textLength="78.8252" x="647.23" y="165.5945">Role-Based</text><text fill="#000000" font-family="Verdana" font-size="14" lengthAdjust="spacing" textLength="103.5371" x="647.23" y="181.8914">Access Control</text></g><!--entity ca--><g class="entity" data-entity="ca" data-source-line="9" data-uid="ent0005" id="entity_ca"><rect fill="#FFFFFF" height="52.5938" rx="2.5" ry="2.5" style="stroke:#000000;stroke-width:1;" width="92.7207" x="795.64" y="142.5994"/><text fill="#000000" font-family="Verdana" font-size="14" lengthAdjust="spacing" textLength="72.7207" x="805.64" y="165.5945">Certificate</text><text fill="#000000" font-family="Verdana" font-size="14" lengthAdjust="spacing" textLength="64.7979" x="805.64" y="181.8914">Authority</text></g><!--entity tokens--><g class="entity" data-entity="tokens" data-source-line="10" data-uid="ent0006" id="entity_tokens"><rect fill="#FFFFFF" height="52.5938" rx="2.5" ry="2.5" style="stroke:#000000;stroke-width:1;" width="112.2236" x="560.89" y="309.1894"/><text fill="#000000" font-family="Verdana" font-size="14" lengthAdjust="spacing" textLength="42.7109" x="570.89" y="332.1845">Token</text><text fill="#000000" font-family="Verdana" font-size="14" lengthAdjust="spacing" textLength="92.2236" x="570.89" y="348.4814">Management</text></g><!--entity mtls--><g class="entity" data-entity="mtls" data-source-line="14" data-uid="ent0008" id="entity_mtls"><rect fill="#FFFFFF" height="52.5938" rx="2.5" ry="2.5" style="stroke:#000000;stroke-width:1;" width="95.1611" x="1015.42" y="309.1894"/><text fill="#000000" font-family="Verdana" font-size="14" lengthAdjust="spacing" textLength="38.876" x="1025.42" y="332.1845">mTLS</text><text fill="#000000" font-family="Verdana" font-size="14" lengthAdjust="spacing" textLength="75.1611" x="1025.42" y="348.4814">Encryption</text></g><!--entity netpol--><g class="entity" data-entity="netpol" data-source-line="15" data-uid="ent0009" id="entity_netpol"><rect fill="#FFFFFF" height="52.5938" rx="2.5" ry="2.5" style="stroke:#000000;stroke-width:1;" width="78.4541" x="1293.77" y="309.1894"/><text fill="#000000" font-family="Verdana" font-size="14" lengthAdjust="spacing" textLength="58.4541" x="1303.77" y="332.1845">Network</text><text fill="#000000" font-family="Verdana" font-size="14" lengthAdjust="spacing" textLength="52.2813" x="1303.77" y="348.4814">Policies</text></g><!--entity mesh--><g class="entity" data-entity="mesh" data-source-line="16" data-uid="ent0010" id="entity_mesh"><rect fill="#FFFFFF" height="52.5938" rx="2.5" ry="2.5" style="stroke:#000000;stroke-width:1;" width="113.0508" x="1145.47" y="309.1894"/><text fill="#000000" font-family="Verdana" font-size="14" lengthAdjust="spacing" textLength="93.0508" x="1155.47" y="332.1845">Service Mesh</text><text fill="#000000" font-family="Verdana" font-size="14" lengthAdjust="spacing" textLength="40.291" x="1155.47" y="348.4814">(Istio)</text></g><!--entity gateway--><g class="entity" data-entity="gateway" data-source-line="17" data-uid="ent0011" id="entity_gateway"><rect fill="#FFFFFF" height="52.5938" rx="2.5" ry="2.5" style="stroke:#000000;stroke-width:1;" width="128.582" x="1243.71" y="493.7794"/><text fill="#000000" font-family="Verdana" font-size="14" lengthAdjust="spacing" textLength="88.4434" x="1253.71" y="516.7745">API Gateway</text><text fill="#000000" font-family="Verdana" font-size="14" lengthAdjust="spacing" textLength="108.582" x="1253.71" y="533.0714">&amp; Rate Limiting</text></g><!--entity e2e--><g class="entity" data-entity="e2e" data-source-line="21" data-uid="ent0013" id="entity_e2e"><rect fill="#FFFFFF" height="52.5938" rx="2.5" ry="2.5" style="stroke:#000000;stroke-width:1;" width="97.3691" x="516.32" y="493.7794"/><text fill="#000000" font-family="Verdana" font-size="14" lengthAdjust="spacing" textLength="77.3691" x="526.32" y="516.7745">End-to-End</text><text fill="#000000" font-family="Verdana" font-size="14" lengthAdjust="spacing" textLength="75.1611" x="526.32" y="533.0714">Encryption</text></g><!--entity classification--><g class="entity" data-entity="classification" data-source-line="22" data-uid="ent0014" id="entity_classification"><rect fill="#FFFFFF" height="52.5938" rx="2.5" ry="2.5" style="stroke:#000000;stroke-width:1;" width="112.6338" x="648.68" y="493.7794"/><text fill="#000000" font-family="Verdana" font-size="14" lengthAdjust="spacing" textLength="33.4277" x="658.68" y="516.7745">Data</text><text fill="#000000" font-family="Verdana" font-size="14" lengthAdjust="spacing" textLength="92.6338" x="658.68" y="533.0714">Classification</text></g><!--entity keys--><g class="entity" data-entity="keys" data-source-line="23" data-uid="ent0015" id="entity_keys"><rect fill="#FFFFFF" height="52.5938" rx="2.5" ry="2.5" style="stroke:#000000;stroke-width:1;" width="112.2236" x="795.89" y="493.7794"/><text fill="#000000" font-family="Verdana" font-size="14" lengthAdjust="spacing" textLength="26.0791" x="805.89" y="516.7745">Key</text><text fill="#000000" font-family="Verdana" font-size="14" lengthAdjust="spacing" textLength="92.2236" x="805.89" y="533.0714">Management</text></g><!--entity dlp--><g class="entity" data-entity="dlp" data-source-line="24" data-uid="ent0016" id="entity_dlp"><rect fill="#FFFFFF" height="52.5938" rx="2.5" ry="2.5" style="stroke:#000000;stroke-width:1;" width="95.4004" x="657.3" y="678.3794"/><text fill="#000000" font-family="Verdana" font-size="14" lengthAdjust="spacing" textLength="68.8311" x="667.3" y="701.3745">Data Loss</text><text fill="#000000" font-family="Verdana" font-size="14" lengthAdjust="spacing" textLength="75.4004" x="667.3" y="717.6714">Prevention</text></g><!--entity containers--><g class="entity" data-entity="containers" data-source-line="28" data-uid="ent0018" id="entity_containers"><rect fill="#FFFFFF" height="52.5938" rx="2.5" ry="2.5" style="stroke:#000000;stroke-width:1;" width="88.4141" x="35.79" y="678.3794"/><text fill="#000000" font-family="Verdana" font-size="14" lengthAdjust="spacing" textLength="68.4141" x="45.79" y="701.3745">Container</text><text fill="#000000" font-family="Verdana" font-size="14" lengthAdjust="spacing" textLength="57.4902" x="45.79" y="717.6714">Security</text></g><!--entity scanning--><g class="entity" data-entity="scanning" data-source-line="29" data-uid="ent0019" id="entity_scanning"><rect fill="#FFFFFF" height="52.5938" rx="2.5" ry="2.5" style="stroke:#000000;stroke-width:1;" width="108.4912" x="158.75" y="678.3794"/><text fill="#000000" font-family="Verdana" font-size="14" lengthAdjust="spacing" textLength="88.4912" x="168.75" y="701.3745">Vulnerability</text><text fill="#000000" font-family="Verdana" font-size="14" lengthAdjust="spacing" textLength="64.5586" x="168.75" y="717.6714">Scanning</text></g><!--entity ids--><g class="entity" data-entity="ids" data-source-line="30" data-uid="ent0020" id="entity_ids"><rect fill="#FFFFFF" height="52.5938" rx="2.5" ry="2.5" style="stroke:#000000;stroke-width:1;" width="88.0107" x="301.99" y="678.3794"/><text fill="#000000" font-family="Verdana" font-size="14" lengthAdjust="spacing" textLength="61.7422" x="311.99" y="701.3745">Intrusion</text><text fill="#000000" font-family="Verdana" font-size="14" lengthAdjust="spacing" textLength="68.0107" x="311.99" y="717.6714">Detection</text></g><!--entity secmon--><g class="entity" data-entity="secmon" data-source-line="31" data-uid="ent0021" id="entity_secmon"><rect fill="#FFFFFF" height="52.5938" rx="2.5" ry="2.5" style="stroke:#000000;stroke-width:1;" width="94.8672" x="165.57" y="862.9694"/><text fill="#000000" font-family="Verdana" font-size="14" lengthAdjust="spacing" textLength="57.4902" x="175.57" y="885.9645">Security</text><text fill="#000000" font-family="Verdana" font-size="14" lengthAdjust="spacing" textLength="74.8672" x="175.57" y="902.2614">Monitoring</text></g><!--entity audit--><g class="entity" data-entity="audit" data-source-line="35" data-uid="ent0023" id="entity_audit"><rect fill="#FFFFFF" height="52.5938" rx="2.5" ry="2.5" style="stroke:#000000;stroke-width:1;" width="75.7881" x="497.11" y="862.9694"/><text fill="#000000" font-family="Verdana" font-size="14" lengthAdjust="spacing" textLength="36.7158" x="507.11" y="885.9645">Audit</text><text fill="#000000" font-family="Verdana" font-size="14" lengthAdjust="spacing" textLength="55.7881" x="507.11" y="902.2614">Logging</text></g><!--entity reporting--><g class="entity" data-entity="reporting" data-source-line="36" data-uid="ent0024" id="entity_reporting"><rect fill="#FFFFFF" height="52.5938" rx="2.5" ry="2.5" style="stroke:#000000;stroke-width:1;" width="102.4072" x="607.8" y="862.9694"/><text fill="#000000" font-family="Verdana" font-size="14" lengthAdjust="spacing" textLength="82.4072" x="617.8" y="885.9645">Compliance</text><text fill="#000000" font-family="Verdana" font-size="14" lengthAdjust="spacing" textLength="68.6875" x="617.8" y="902.2614">Reporting</text></g><!--entity governance--><g class="entity" data-entity="governance" data-source-line="37" data-uid="ent0025" id="entity_governance"><rect fill="#FFFFFF" height="52.5938" rx="2.5" ry="2.5" style="stroke:#000000;stroke-width:1;" width="104.7041" x="745.65" y="862.9694"/><text fill="#000000" font-family="Verdana" font-size="14" lengthAdjust="spacing" textLength="33.4277" x="755.65" y="885.9645">Data</text><text fill="#000000" font-family="Verdana" font-size="14" lengthAdjust="spacing" textLength="84.7041" x="755.65" y="902.2614">Governance</text></g><!--entity privacy--><g class="entity" data-entity="privacy" data-source-line="38" data-uid="ent0026" id="entity_privacy"><rect fill="#FFFFFF" height="52.5938" rx="2.5" ry="2.5" style="stroke:#000000;stroke-width:1;" width="78.208" x="619.9" y="994.5694"/><text fill="#000000" font-family="Verdana" font-size="14" lengthAdjust="spacing" textLength="50.9346" x="629.9" y="1017.5645">Privacy</text><text fill="#000000" font-family="Verdana" font-size="14" lengthAdjust="spacing" textLength="58.208" x="629.9" y="1033.8614">Controls</text></g><g class="entity" data-entity="GMN31" data-source-line="46" data-uid="ent0032" id="entity_GMN31"><path d="M958.93,148.7594 L958.93,189.025 L1091.0775,189.025 L1091.0775,158.7594 L1081.0775,148.7594 L958.93,148.7594" fill="#FFFFFF" style="stroke:#000000;stroke-width:1;"/><path d="M1081.0775,148.7594 L1081.0775,158.7594 L1091.0775,158.7594 L1081.0775,148.7594" fill="#FFFFFF" style="stroke:#000000;stroke-width:1;"/><text fill="#000000" font-family="Verdana" font-size="13" lengthAdjust="spacing" textLength="86.5059" x="964.93" y="165.8263">OAuth2/OIDC</text><text fill="#000000" font-family="Verdana" font-size="13" lengthAdjust="spacing" textLength="111.1475" x="964.93" y="180.9591">SAML integration</text></g><g class="entity" data-entity="GMN34" data-source-line="47" data-uid="ent0035" id="entity_GMN34"><path d="M1419.6,315.3594 L1419.6,355.625 L1542.3974,355.625 L1542.3974,325.3594 L1532.3974,315.3594 L1419.6,315.3594" fill="#FFFFFF" style="stroke:#000000;stroke-width:1;"/><path d="M1532.3974,315.3594 L1532.3974,325.3594 L1542.3974,325.3594 L1532.3974,315.3594" fill="#FFFFFF" style="stroke:#000000;stroke-width:1;"/><text fill="#000000" font-family="Verdana" font-size="13" lengthAdjust="spacing" textLength="101.7974" x="1425.6" y="332.4263">All inter-service</text><text fill="#000000" font-family="Verdana" font-size="13" lengthAdjust="spacing" textLength="100.5342" x="1425.6" y="347.5591">communication</text></g><g class="entity" data-entity="GMN37" data-source-line="48" data-uid="ent0038" id="entity_GMN37"><path d="M1420.21,499.9494 L1420.21,540.215 L1569.7818,540.215 L1569.7818,509.9494 L1559.7818,499.9494 L1420.21,499.9494" fill="#FFFFFF" style="stroke:#000000;stroke-width:1;"/><path d="M1559.7818,499.9494 L1559.7818,509.9494 L1569.7818,509.9494 L1559.7818,499.9494" fill="#FFFFFF" style="stroke:#000000;stroke-width:1;"/><text fill="#000000" font-family="Verdana" font-size="13" lengthAdjust="spacing" textLength="128.5718" x="1426.21" y="517.0163">AES-256 encryption</text><text fill="#000000" font-family="Verdana" font-size="13" lengthAdjust="spacing" textLength="110.0557" x="1426.21" y="532.1491">Zero-trust model</text></g><g class="entity" data-entity="GMN40" data-source-line="49" data-uid="ent0041" id="entity_GMN40"><path d="M956.46,684.5394 L956.46,724.805 L1057.542,724.805 L1057.542,694.5394 L1047.542,684.5394 L956.46,684.5394" fill="#FFFFFF" style="stroke:#000000;stroke-width:1;"/><path d="M1047.542,684.5394 L1047.542,694.5394 L1057.542,694.5394 L1047.542,684.5394" fill="#FFFFFF" style="stroke:#000000;stroke-width:1;"/><text fill="#000000" font-family="Verdana" font-size="13" lengthAdjust="spacing" textLength="80.082" x="962.46" y="701.6063">Pod security</text><text fill="#000000" font-family="Verdana" font-size="13" lengthAdjust="spacing" textLength="64.6636" x="962.46" y="716.7391">standards</text></g><g class="entity" data-entity="GMN43" data-source-line="50" data-uid="ent0044" id="entity_GMN43"><path d="M921.22,869.1394 L921.22,909.405 L1056.7762,909.405 L1056.7762,879.1394 L1046.7762,869.1394 L921.22,869.1394" fill="#FFFFFF" style="stroke:#000000;stroke-width:1;"/><path d="M1046.7762,869.1394 L1046.7762,879.1394 L1056.7762,879.1394 L1046.7762,869.1394" fill="#FFFFFF" style="stroke:#000000;stroke-width:1;"/><text fill="#000000" font-family="Verdana" font-size="13" lengthAdjust="spacing" textLength="101.0483" x="927.22" y="886.2063">Immutable logs</text><text fill="#000000" font-family="Verdana" font-size="13" lengthAdjust="spacing" textLength="114.5562" x="927.22" y="901.3391">SOC2 compliance</text></g><!--link iam to network--><g class="link" data-entity-1="iam" data-entity-2="network" data-source-line="41" data-uid="lnk27" id="link_iam_network"><path d="M932.0643,193.5938 C932.1414,193.8204 932.2189,194.0482 932.2968,194.2772 C932.6085,195.1934 932.9269,196.129 933.2514,197.0828 C938.4441,212.3444 945.2281,232.2831 952.0113,252.2194 C958.7944,272.1556 965.5766,292.0894 970.7655,307.3409 C971.0898,308.2942 971.4079,309.2291 971.7193,310.1446 C971.7972,310.3735 969.9421,304.9209 970.0192,305.1473" fill="none" id="iam-to-network" style="stroke:#000000;stroke-width:1;"/><polygon fill="#000000" points="971.9517,310.8276,972.8397,301.0188,970.3412,306.094,965.2661,303.5955,971.9517,310.8276" style="stroke:#000000;stroke-width:1;"/><text fill="#000000" font-family="Verdana" font-size="13" lengthAdjust="spacing" textLength="138.8867" x="947.98" y="238.2563">authenticated access</text></g><!--link network to data--><g class="link" data-entity-1="network" data-entity-2="data" data-source-line="42" data-uid="lnk28" id="link_network_data"><path d="M971.8325,347.0212 C971.765,347.1032 971.6972,347.1857 971.6289,347.2685 C971.4924,347.434 971.3544,347.601 971.2149,347.7694 C970.657,348.4429 970.075,349.1386 969.4699,349.8542 C968.2596,351.2854 966.9565,352.7961 965.5668,354.3683 C962.7873,357.5127 959.6613,360.9028 956.2375,364.3931 C942.5425,378.3544 924.085,393.9194 904,401.7794 C881.33,410.6594 709.26,407.7094 685,409.7794 C602.33,416.8594 561.17,378.7294 500,434.7794 C496.5712,437.9219 493.6942,441.5395 491.2856,445.4712 C490.6834,446.4541 490.1105,447.4566 489.5656,448.4763 C489.2931,448.9861 489.0277,449.5002 488.769,450.0182 C488.7044,450.1477 491.2838,444.8913 491.2199,445.0213" fill="none" id="network-to-data" style="stroke:#000000;stroke-width:1;"/><polygon fill="#000000" points="488.5763,450.4075,496.1326,444.0906,490.7793,445.919,488.9509,440.5658,488.5763,450.4075" style="stroke:#000000;stroke-width:1;"/><text fill="#000000" font-family="Verdana" font-size="13" lengthAdjust="spacing" textLength="107.7007" x="686" y="422.8463">secure transport</text></g><!--link data to runtime--><g class="link" data-entity-1="data" data-entity-2="runtime" data-source-line="43" data-uid="lnk29" id="link_data_runtime"><path d="M472.8586,523.3451 C472.7544,523.3764 472.6493,523.408 472.5434,523.4399 C472.3316,523.5038 472.1164,523.5691 471.8978,523.6356 C470.1491,524.1683 468.1853,524.7873 466.0394,525.4956 C457.4556,528.3288 445.9575,532.5894 433.6525,538.4569 C409.0425,550.1919 381.205,568.3544 367,594.3794 C363.38,601.0094 362.22,605.5194 367,611.3794 C378.18,625.0894 393.37,606.9894 406,619.3794 C409.32,622.6356 412.1145,626.3394 414.4622,630.3345 C415.0491,631.3333 415.6081,632.3503 416.1403,633.383 C416.4065,633.8994 416.6659,634.4197 416.9189,634.9437 C416.9821,635.0747 414.471,629.786 414.5334,629.9175" fill="none" id="data-to-runtime" style="stroke:#000000;stroke-width:1;"/><polygon fill="#000000" points="417.1074,635.3373,416.8597,625.4916,414.9624,630.8208,409.6332,628.9235,417.1074,635.3373" style="stroke:#000000;stroke-width:1;"/><text fill="#000000" font-family="Verdana" font-size="13" lengthAdjust="spacing" textLength="131.2505" x="368" y="607.4463">protected execution</text></g><!--link runtime to compliance--><g class="link" data-entity-1="runtime" data-entity-2="compliance" data-source-line="44" data-uid="lnk30" id="link_runtime_compliance"><path d="M433.1058,716.0067 C433.1728,716.0874 433.2401,716.1685 433.3077,716.2499 C433.4431,716.4128 433.5799,716.577 433.7183,716.7427 C434.2716,717.4052 434.8486,718.0899 435.4484,718.7944 C436.6482,720.2035 437.9396,721.6922 439.3163,723.243 C442.0698,726.3447 445.1647,729.695 448.5513,733.1544 C462.0975,746.9919 480.31,762.5744 500,770.9694 C575.12,803.0094 804.28,750.4994 866,803.9694 C869.5238,807.0231 872.4873,810.5734 874.9748,814.4553 C875.5966,815.4257 876.1887,816.4169 876.7524,817.4262 C877.0342,817.9309 877.3089,818.4401 877.5767,818.9535 C877.7106,819.2102 875.1422,814.1101 875.2726,814.3689" fill="none" id="runtime-to-compliance" style="stroke:#000000;stroke-width:1;"/><polygon fill="#000000" points="877.9732,819.7267,877.4942,809.8895,875.7227,815.2618,870.3504,813.4903,877.9732,819.7267" style="stroke:#000000;stroke-width:1;"/><text fill="#000000" font-family="Verdana" font-size="13" lengthAdjust="spacing" textLength="62.9307" x="854.15" y="792.0363">audit trail</text></g><!--link mfa to GMN31--><g class="link" data-entity-1="mfa" data-entity-2="GMN31" data-source-line="46" data-uid="lnk33" id="link_mfa_GMN31"><path d="M556.54,142.3494 C572.97,117.3894 601.47,81.9294 637.5,68.5994 C667.2,57.6094 892.8,57.6094 922.5,68.5994 C962.66,83.4494 995.13,123.6194 1012.11,148.3794" fill="none" id="mfa-GMN31" style="stroke:#000000;stroke-width:1;stroke-dasharray:7,7;"/></g><!--link mtls to GMN34--><g class="link" data-entity-1="mtls" data-entity-2="GMN34" data-source-line="47" data-uid="lnk36" id="link_mtls_GMN34"><path d="M1073.79,308.7294 C1086.43,281.4194 1110.24,240.5894 1145.5,222.6894 C1190.09,200.0594 1324.41,203.3194 1370.5,222.6894 C1415.23,241.4894 1450.93,288.2194 1468.71,315.2594" fill="none" id="mtls-GMN34" style="stroke:#000000;stroke-width:1;stroke-dasharray:7,7;"/></g><!--link e2e to GMN37--><g class="link" data-entity-1="e2e" data-entity-2="GMN37" data-source-line="48" data-uid="lnk39" id="link_e2e_GMN37"><path d="M577.08,493.5694 C590.39,468.1694 614.51,431.7794 648.5,418.2794 C685.78,403.4794 1332.72,404.8094 1370.5,418.2794 C1415.73,434.4194 1456.38,474.8294 1478.19,499.6094" fill="none" id="e2e-GMN37" style="stroke:#000000;stroke-width:1;stroke-dasharray:7,7;"/></g><!--link containers to GMN40--><g class="link" data-entity-1="containers" data-entity-2="GMN40" data-source-line="49" data-uid="lnk42" id="link_containers_GMN40"><path d="M90.84,678.0294 C102.95,652.5294 125.31,616.0594 158.5,602.8794 C197.12,587.5394 867.88,587.5394 906.5,602.8794 C946.2,618.6394 977.92,659.1794 994.46,684.0794" fill="none" id="containers-GMN40" style="stroke:#000000;stroke-width:1;stroke-dasharray:7,7;"/></g><!--link audit to GMN43--><g class="link" data-entity-1="audit" data-entity-2="GMN43" data-source-line="50" data-uid="lnk45" id="link_audit_GMN43"><path d="M544.13,862.9394 C554.73,837.2994 575.03,800.3594 607.5,787.4694 C636.11,776.1094 855.89,776.1094 884.5,787.4694 C924.99,803.5494 958.24,843.9794 975.71,868.7694" fill="none" id="audit-GMN43" style="stroke:#000000;stroke-width:1;stroke-dasharray:7,7;"/></g><!--SRC=[RLJ1Rjim3BtxAxGE6BQ3CI10TyXXGEPqHR1a3PAYXy4NLQOT8J9bK7AwODY_Zx9ZDt9tIaozH_6HZthd3r23Q8pKcBYZnaQIhCMpLCUAR8j5PeqbyRuiozloDacyzWR4atQjDFUaYoMSnDwtXROY5NjGBMb_5WjI1-r1-PO265wIXFXBOiNacrK1w0FiWrWe1Sw9ZKHPSHteRuHqGdC5Vn8XhZYRrdYTVfVAMyfnqNBPd4D9horsdBgKCMDd3QJVf8E2yVqrcKLFrdHuOean8GFokWmveR_11YqTM4roFzeZO8wJids8kkHl9FOd-1TBnx4t7H8lmOd8-d6zp_4E5PsRLs7Uk1XsIPdZrXgjDBWXPsDDZDm3dRG2iG5toF7Zod7MJtrMZiJOnNObxbdxYppd-47i-AzOwrfxZLL7gVh3YRwbz59ioOPf3oKN8JRHTeT5wctAFsyKmWnYRCYPOsQaS_r01gIAGZ7f1vpVJEG8P_SsjLXRvxXx1ATWeg5eqqoaxLe-vUM8HaUNu4HUi1Ql4B0v8xWQufCwdbh3GVci3IEPeoJYq6Xt-OWPA_PkwxZQ79TmtMrTkEdK-mAu7HOrByoO65JDROjLPhPkZ9R8Dk5zv4tsbyB7y4HgXybnRQjgI2n3QDgGWP_Z3XfBeuze-FhVqE_j2GW3hVVS-1c3jwHFKh72oqhtAz3qqI0mF25f-dNSj3dNEBuPK0ZPlGZ9S1oWdMldeKdXrV8aqOL2aouU0CFevtnHvtVE0xyPtfbnE0t8g-RD- -Q4VDea2J9HaAuENjWoF5eCU0YFpUppmsgPiHCMcxNGwA6YtkGJ1hy6J5aOqu4eTVsAvyXtrYqEgn6pUCC2wMwVpcw_21ZNByTVG3ODnlAYjWMO2V7LlipVsgBlJkSjnxCe9B7vOaelTovMN8wNppmjOojUj_r3DhjgJF8F]--></g></svg>