<svg xmlns="http://www.w3.org/2000/svg" xmlns:xlink="http://www.w3.org/1999/xlink" contentStyleType="text/css" data-diagram-type="DESCRIPTION" height="298px" preserveAspectRatio="none" style="width:982px;height:298px;background:#FFFFFF;" version="1.1" viewBox="0 0 982 298" width="982px" zoomAndPan="magnify"><defs/><g><!--cluster Cloud--><g class="cluster" data-entity="Cloud" data-source-line="1" data-uid="ent0002" id="cluster_Cloud"><polygon fill="none" points="16,16,26,6,375,6,375,271.59,365,281.59,16,281.59,16,16" style="stroke:#181818;stroke-width:1;"/><line style="stroke:#181818;stroke-width:1;" x1="365" x2="375" y1="16" y2="6"/><line style="stroke:#181818;stroke-width:1;" x1="16" x2="365" y1="16" y2="16"/><line style="stroke:#181818;stroke-width:1;" x1="365" x2="365" y1="16" y2="281.59"/><text fill="#000000" font-family="sans-serif" font-size="14" font-weight="bold" lengthAdjust="spacing" textLength="44.6797" x="169.1602" y="31.9951">Cloud</text></g><!--cluster Kubernetes Cluster--><g class="cluster" data-entity="Kubernetes Cluster" data-source-line="2" data-uid="ent0003" id="cluster_Kubernetes Cluster"><rect fill="none" height="203.59" rx="2.5" ry="2.5" style="stroke:#181818;stroke-width:1;" width="311" x="40" y="54"/><rect fill="none" height="10" style="stroke:#181818;stroke-width:1;" width="15" x="331" y="59"/><rect fill="none" height="2" style="stroke:#181818;stroke-width:1;" width="4" x="329" y="61"/><rect fill="none" height="2" style="stroke:#181818;stroke-width:1;" width="4" x="329" y="65"/><text fill="#000000" font-family="sans-serif" font-size="14" font-weight="bold" lengthAdjust="spacing" textLength="152.5576" x="119.2212" y="79.9951">Kubernetes Cluster</text></g><!--cluster Edge Node--><g class="cluster" data-entity="Edge Node" data-source-line="8" data-uid="ent0007" id="cluster_Edge Node"><polygon fill="none" points="399,59,409,49,772,49,772,141.29,762,151.29,399,151.29,399,59" style="stroke:#181818;stroke-width:1;"/><line style="stroke:#181818;stroke-width:1;" x1="762" x2="772" y1="59" y2="49"/><line style="stroke:#181818;stroke-width:1;" x1="399" x2="762" y1="59" y2="59"/><line style="stroke:#181818;stroke-width:1;" x1="762" x2="762" y1="59" y2="151.29"/><text fill="#000000" font-family="sans-serif" font-size="14" font-weight="bold" lengthAdjust="spacing" textLength="84.8271" x="539.0864" y="74.9951">Edge Node</text></g><!--cluster User Device--><g class="cluster" data-entity="User Device" data-source-line="12" data-uid="ent0010" id="cluster_User Device"><polygon fill="none" points="796,59,806,49,965,49,965,141.29,955,151.29,796,151.29,796,59" style="stroke:#181818;stroke-width:1;"/><line style="stroke:#181818;stroke-width:1;" x1="955" x2="965" y1="59" y2="49"/><line style="stroke:#181818;stroke-width:1;" x1="796" x2="955" y1="59" y2="59"/><line style="stroke:#181818;stroke-width:1;" x1="955" x2="955" y1="59" y2="151.29"/><text fill="#000000" font-family="sans-serif" font-size="14" font-weight="bold" lengthAdjust="spacing" textLength="93.8096" x="829.5952" y="74.9951">User Device</text></g><!--entity AGCP Core--><g class="entity" data-entity="AGCP Core" data-source-line="3" data-uid="ent0004" id="entity_AGCP Core"><rect fill="#F1F1F1" height="46.2969" rx="2.5" ry="2.5" style="stroke:#181818;stroke-width:0.5;" width="115.8037" x="56.1" y="89"/><rect fill="#F1F1F1" height="10" style="stroke:#181818;stroke-width:0.5;" width="15" x="151.9037" y="94"/><rect fill="#F1F1F1" height="2" style="stroke:#181818;stroke-width:0.5;" width="4" x="149.9037" y="96"/><rect fill="#F1F1F1" height="2" style="stroke:#181818;stroke-width:0.5;" width="4" x="149.9037" y="100"/><text fill="#000000" font-family="sans-serif" font-size="14" lengthAdjust="spacing" textLength="75.8037" x="71.1" y="121.9951">AGCP Core</text></g><!--entity API Gateway--><g class="entity" data-entity="API Gateway" data-source-line="4" data-uid="ent0005" id="entity_API Gateway"><rect fill="#F1F1F1" height="46.2969" rx="2.5" ry="2.5" style="stroke:#181818;stroke-width:0.5;" width="128.4434" x="206.78" y="89"/><rect fill="#F1F1F1" height="10" style="stroke:#181818;stroke-width:0.5;" width="15" x="315.2234" y="94"/><rect fill="#F1F1F1" height="2" style="stroke:#181818;stroke-width:0.5;" width="4" x="313.2234" y="96"/><rect fill="#F1F1F1" height="2" style="stroke:#181818;stroke-width:0.5;" width="4" x="313.2234" y="100"/><text fill="#000000" font-family="sans-serif" font-size="14" lengthAdjust="spacing" textLength="88.4434" x="221.78" y="121.9951">API Gateway</text></g><!--entity Monitoring Dashboard--><g class="entity" data-entity="Monitoring Dashboard" data-source-line="5" data-uid="ent0006" id="entity_Monitoring Dashboard"><rect fill="#F1F1F1" height="46.2969" rx="2.5" ry="2.5" style="stroke:#181818;stroke-width:0.5;" width="195.5176" x="56.24" y="195.29"/><rect fill="#F1F1F1" height="10" style="stroke:#181818;stroke-width:0.5;" width="15" x="231.7576" y="200.29"/><rect fill="#F1F1F1" height="2" style="stroke:#181818;stroke-width:0.5;" width="4" x="229.7576" y="202.29"/><rect fill="#F1F1F1" height="2" style="stroke:#181818;stroke-width:0.5;" width="4" x="229.7576" y="206.29"/><text fill="#000000" font-family="sans-serif" font-size="14" lengthAdjust="spacing" textLength="155.5176" x="71.24" y="228.2851">Monitoring Dashboard</text></g><!--entity Self-Healing Agent--><g class="entity" data-entity="Self-Healing Agent" data-source-line="9" data-uid="ent0008" id="entity_Self-Healing Agent"><rect fill="#F1F1F1" height="46.2969" rx="2.5" ry="2.5" style="stroke:#181818;stroke-width:0.5;" width="170.5186" x="414.74" y="89"/><rect fill="#F1F1F1" height="10" style="stroke:#181818;stroke-width:0.5;" width="15" x="565.2586" y="94"/><rect fill="#F1F1F1" height="2" style="stroke:#181818;stroke-width:0.5;" width="4" x="563.2586" y="96"/><rect fill="#F1F1F1" height="2" style="stroke:#181818;stroke-width:0.5;" width="4" x="563.2586" y="100"/><text fill="#000000" font-family="sans-serif" font-size="14" lengthAdjust="spacing" textLength="130.5186" x="429.74" y="121.9951">Self-Healing Agent</text></g><!--entity Flow Runtime--><g class="entity" data-entity="Flow Runtime" data-source-line="10" data-uid="ent0009" id="entity_Flow Runtime"><rect fill="#F1F1F1" height="46.2969" rx="2.5" ry="2.5" style="stroke:#181818;stroke-width:0.5;" width="135.5117" x="620.24" y="89"/><rect fill="#F1F1F1" height="10" style="stroke:#181818;stroke-width:0.5;" width="15" x="735.7517" y="94"/><rect fill="#F1F1F1" height="2" style="stroke:#181818;stroke-width:0.5;" width="4" x="733.7517" y="96"/><rect fill="#F1F1F1" height="2" style="stroke:#181818;stroke-width:0.5;" width="4" x="733.7517" y="100"/><text fill="#000000" font-family="sans-serif" font-size="14" lengthAdjust="spacing" textLength="95.5117" x="635.24" y="121.9951">Flow Runtime</text></g><!--entity Visual IDE--><g class="entity" data-entity="Visual IDE" data-source-line="13" data-uid="ent0011" id="entity_Visual IDE"><rect fill="#F1F1F1" height="46.2969" rx="2.5" ry="2.5" style="stroke:#181818;stroke-width:0.5;" width="110.3076" x="824.85" y="89"/><rect fill="#F1F1F1" height="10" style="stroke:#181818;stroke-width:0.5;" width="15" x="915.1576" y="94"/><rect fill="#F1F1F1" height="2" style="stroke:#181818;stroke-width:0.5;" width="4" x="913.1576" y="96"/><rect fill="#F1F1F1" height="2" style="stroke:#181818;stroke-width:0.5;" width="4" x="913.1576" y="100"/><text fill="#000000" font-family="sans-serif" font-size="14" lengthAdjust="spacing" textLength="70.3076" x="839.85" y="121.9951">Visual IDE</text></g><!--SRC=[POxB2i8m44Nt_OeXUp-YfBKMKOgY-xGPQo2TaJmi8lrtKyL5wMwOU-xb46i48Ir7BU2T0NGyF9YG0eXzRD4H1lGWRVG1tGzPG7ab6v3iKAoIfePA1HpLQvKTc4nWPwY7Glbxoyhf6PgoAQElKgbxX6CwLrfdjBVD3fMTstcVVc89R2sFS8eKp92i_eCNZmuAV9fkFNarFYeBTL4c_WC0]--></g></svg>