<svg xmlns="http://www.w3.org/2000/svg" xmlns:xlink="http://www.w3.org/1999/xlink" contentStyleType="text/css" data-diagram-type="SEQUENCE" height="623px" preserveAspectRatio="none" style="width:1073px;height:623px;background:#FFFFFF;" version="1.1" viewBox="0 0 1073 623" width="1073px" zoomAndPan="magnify"><title>GitOps Deployment Pipeline</title><defs/><g><text fill="#000000" font-family="sans-serif" font-size="14" font-weight="bold" lengthAdjust="spacing" textLength="222.0449" x="427.1064" y="27.9951">GitOps Deployment Pipeline</text><rect fill="none" height="133.6641" style="stroke:#000000;stroke-width:1.5;" width="1057.2578" x="10" y="437.0547"/><g><title>Developer</title><rect fill="#000000" fill-opacity="0.00000" height="514.125" width="8" x="59.0015" y="73.5938"/><line style="stroke:#181818;stroke-width:0.5;stroke-dasharray:5,5;" x1="63" x2="63" y1="73.5938" y2="587.7188"/></g><g><title>Git Repository</title><rect fill="#000000" fill-opacity="0.00000" height="514.125" width="8" x="208.3232" y="73.5938"/><line style="stroke:#181818;stroke-width:0.5;stroke-dasharray:5,5;" x1="211.4482" x2="211.4482" y1="73.5938" y2="587.7188"/></g><g><title>CI Pipeline</title><rect fill="#000000" fill-opacity="0.00000" height="514.125" width="8" x="422.353" y="73.5938"/><line style="stroke:#181818;stroke-width:0.5;stroke-dasharray:5,5;" x1="425.627" x2="425.627" y1="73.5938" y2="587.7188"/></g><g><title>Container Registry</title><rect fill="#000000" fill-opacity="0.00000" height="514.125" width="8" x="587.7979" y="73.5938"/><line style="stroke:#181818;stroke-width:0.5;stroke-dasharray:5,5;" x1="591.395" x2="591.395" y1="73.5938" y2="587.7188"/></g><g><title>ArgoCD</title><rect fill="#000000" fill-opacity="0.00000" height="514.125" width="8" x="703.8711" y="73.5938"/><line style="stroke:#181818;stroke-width:0.5;stroke-dasharray:5,5;" x1="707.2007" x2="707.2007" y1="73.5938" y2="587.7188"/></g><g><title>Kubernetes</title><rect fill="#000000" fill-opacity="0.00000" height="514.125" width="8" x="864.8662" y="73.5938"/><line style="stroke:#181818;stroke-width:0.5;stroke-dasharray:5,5;" x1="868.77" x2="868.77" y1="73.5938" y2="587.7188"/></g><g><title>Monitoring</title><rect fill="#000000" fill-opacity="0.00000" height="514.125" width="8" x="1008.8242" y="73.5938"/><line style="stroke:#181818;stroke-width:0.5;stroke-dasharray:5,5;" x1="1012.3906" x2="1012.3906" y1="73.5938" y2="587.7188"/></g><g class="participant participant-head" data-participant="Dev"><rect fill="#E2E2F0" height="30.2969" rx="2.5" ry="2.5" style="stroke:#181818;stroke-width:0.5;" width="86.0029" x="20" y="42.2969"/><text fill="#000000" font-family="sans-serif" font-size="14" lengthAdjust="spacing" textLength="72.0029" x="27" y="62.292">Developer</text></g><g class="participant participant-tail" data-participant="Dev"><rect fill="#E2E2F0" height="30.2969" rx="2.5" ry="2.5" style="stroke:#181818;stroke-width:0.5;" width="86.0029" x="20" y="586.7188"/><text fill="#000000" font-family="sans-serif" font-size="14" lengthAdjust="spacing" textLength="72.0029" x="27" y="606.7139">Developer</text></g><g class="participant participant-head" data-participant="Git"><rect fill="#E2E2F0" height="30.2969" rx="2.5" ry="2.5" style="stroke:#181818;stroke-width:0.5;" width="113.75" x="155.4482" y="42.2969"/><text fill="#000000" font-family="sans-serif" font-size="14" lengthAdjust="spacing" textLength="99.75" x="162.4482" y="62.292">Git Repository</text></g><g class="participant participant-tail" data-participant="Git"><rect fill="#E2E2F0" height="30.2969" rx="2.5" ry="2.5" style="stroke:#181818;stroke-width:0.5;" width="113.75" x="155.4482" y="586.7188"/><text fill="#000000" font-family="sans-serif" font-size="14" lengthAdjust="spacing" textLength="99.75" x="162.4482" y="606.7139">Git Repository</text></g><g class="participant participant-head" data-participant="CI"><rect fill="#E2E2F0" height="30.2969" rx="2.5" ry="2.5" style="stroke:#181818;stroke-width:0.5;" width="87.4521" x="382.627" y="42.2969"/><text fill="#000000" font-family="sans-serif" font-size="14" lengthAdjust="spacing" textLength="73.4521" x="389.627" y="62.292">CI Pipeline</text></g><g class="participant participant-tail" data-participant="CI"><rect fill="#E2E2F0" height="30.2969" rx="2.5" ry="2.5" style="stroke:#181818;stroke-width:0.5;" width="87.4521" x="382.627" y="586.7188"/><text fill="#000000" font-family="sans-serif" font-size="14" lengthAdjust="spacing" textLength="73.4521" x="389.627" y="606.7139">CI Pipeline</text></g><g class="participant participant-head" data-participant="Registry"><rect fill="#E2E2F0" height="30.2969" rx="2.5" ry="2.5" style="stroke:#181818;stroke-width:0.5;" width="144.8057" x="519.395" y="42.2969"/><text fill="#000000" font-family="sans-serif" font-size="14" lengthAdjust="spacing" textLength="130.8057" x="526.395" y="62.292">Container Registry</text></g><g class="participant participant-tail" data-participant="Registry"><rect fill="#E2E2F0" height="30.2969" rx="2.5" ry="2.5" style="stroke:#181818;stroke-width:0.5;" width="144.8057" x="519.395" y="586.7188"/><text fill="#000000" font-family="sans-serif" font-size="14" lengthAdjust="spacing" textLength="130.8057" x="526.395" y="606.7139">Container Registry</text></g><g class="participant participant-head" data-participant="ArgoCD"><rect fill="#E2E2F0" height="30.2969" rx="2.5" ry="2.5" style="stroke:#181818;stroke-width:0.5;" width="67.3408" x="674.2007" y="42.2969"/><text fill="#000000" font-family="sans-serif" font-size="14" lengthAdjust="spacing" textLength="53.3408" x="681.2007" y="62.292">ArgoCD</text></g><g class="participant participant-tail" data-participant="ArgoCD"><rect fill="#E2E2F0" height="30.2969" rx="2.5" ry="2.5" style="stroke:#181818;stroke-width:0.5;" width="67.3408" x="674.2007" y="586.7188"/><text fill="#000000" font-family="sans-serif" font-size="14" lengthAdjust="spacing" textLength="53.3408" x="681.2007" y="606.7139">ArgoCD</text></g><g class="participant participant-head" data-participant="K8s"><rect fill="#E2E2F0" height="30.2969" rx="2.5" ry="2.5" style="stroke:#181818;stroke-width:0.5;" width="94.1924" x="821.77" y="42.2969"/><text fill="#000000" font-family="sans-serif" font-size="14" lengthAdjust="spacing" textLength="80.1924" x="828.77" y="62.292">Kubernetes</text></g><g class="participant participant-tail" data-participant="K8s"><rect fill="#E2E2F0" height="30.2969" rx="2.5" ry="2.5" style="stroke:#181818;stroke-width:0.5;" width="94.1924" x="821.77" y="586.7188"/><text fill="#000000" font-family="sans-serif" font-size="14" lengthAdjust="spacing" textLength="80.1924" x="828.77" y="606.7139">Kubernetes</text></g><g class="participant participant-head" data-participant="Monitor"><rect fill="#E2E2F0" height="30.2969" rx="2.5" ry="2.5" style="stroke:#181818;stroke-width:0.5;" width="88.8672" x="968.3906" y="42.2969"/><text fill="#000000" font-family="sans-serif" font-size="14" lengthAdjust="spacing" textLength="74.8672" x="975.3906" y="62.292">Monitoring</text></g><g class="participant participant-tail" data-participant="Monitor"><rect fill="#E2E2F0" height="30.2969" rx="2.5" ry="2.5" style="stroke:#181818;stroke-width:0.5;" width="88.8672" x="968.3906" y="586.7188"/><text fill="#000000" font-family="sans-serif" font-size="14" lengthAdjust="spacing" textLength="74.8672" x="975.3906" y="606.7139">Monitoring</text></g><g class="message" data-participant-1="Dev" data-participant-2="Git"><polygon fill="#181818" points="200.3232,100.7266,210.3232,104.7266,200.3232,108.7266,204.3232,104.7266" style="stroke:#181818;stroke-width:1;"/><line style="stroke:#181818;stroke-width:1;" x1="63.0015" x2="206.3232" y1="104.7266" y2="104.7266"/><text fill="#000000" font-family="sans-serif" font-size="13" lengthAdjust="spacing" textLength="125.3218" x="70.0015" y="99.6606">Push code changes</text></g><g class="message" data-participant-1="Git" data-participant-2="CI"><polygon fill="#181818" points="414.353,129.8594,424.353,133.8594,414.353,137.8594,418.353,133.8594" style="stroke:#181818;stroke-width:1;"/><line style="stroke:#181818;stroke-width:1;" x1="212.3232" x2="420.353" y1="133.8594" y2="133.8594"/><text fill="#000000" font-family="sans-serif" font-size="13" lengthAdjust="spacing" textLength="82.8433" x="219.3232" y="128.7935">Trigger build</text></g><g class="message" data-participant-1="CI" data-participant-2="CI"><line style="stroke:#181818;stroke-width:1;" x1="426.353" x2="468.353" y1="162.9922" y2="162.9922"/><line style="stroke:#181818;stroke-width:1;" x1="468.353" x2="468.353" y1="162.9922" y2="175.9922"/><line style="stroke:#181818;stroke-width:1;" x1="427.353" x2="468.353" y1="175.9922" y2="175.9922"/><polygon fill="#181818" points="437.353,171.9922,427.353,175.9922,437.353,179.9922,433.353,175.9922" style="stroke:#181818;stroke-width:1;"/><text fill="#000000" font-family="sans-serif" font-size="13" lengthAdjust="spacing" textLength="61.3818" x="433.353" y="157.9263">Run tests</text></g><g class="message" data-participant-1="CI" data-participant-2="Registry"><polygon fill="#181818" points="579.7979,201.125,589.7979,205.125,579.7979,209.125,583.7979,205.125" style="stroke:#181818;stroke-width:1;"/><line style="stroke:#181818;stroke-width:1;" x1="426.353" x2="585.7979" y1="205.125" y2="205.125"/><text fill="#000000" font-family="sans-serif" font-size="13" lengthAdjust="spacing" textLength="141.4448" x="433.353" y="200.0591">Push container image</text></g><g class="message" data-participant-1="CI" data-participant-2="Git"><polygon fill="#181818" points="223.3232,230.2578,213.3232,234.2578,223.3232,238.2578,219.3232,234.2578" style="stroke:#181818;stroke-width:1;"/><line style="stroke:#181818;stroke-width:1;" x1="217.3232" x2="425.353" y1="234.2578" y2="234.2578"/><text fill="#000000" font-family="sans-serif" font-size="13" lengthAdjust="spacing" textLength="190.0298" x="229.3232" y="229.1919">Update deployment manifest</text></g><g class="message" data-participant-1="Git" data-participant-2="ArgoCD"><polygon fill="#181818" points="695.8711,259.3906,705.8711,263.3906,695.8711,267.3906,699.8711,263.3906" style="stroke:#181818;stroke-width:1;"/><line style="stroke:#181818;stroke-width:1;" x1="212.3232" x2="701.8711" y1="263.3906" y2="263.3906"/><text fill="#000000" font-family="sans-serif" font-size="13" lengthAdjust="spacing" textLength="102.0957" x="219.3232" y="258.3247">Detect changes</text></g><g class="message" data-participant-1="ArgoCD" data-participant-2="K8s"><polygon fill="#181818" points="856.8662,288.5234,866.8662,292.5234,856.8662,296.5234,860.8662,292.5234" style="stroke:#181818;stroke-width:1;"/><line style="stroke:#181818;stroke-width:1;" x1="707.8711" x2="862.8662" y1="292.5234" y2="292.5234"/><text fill="#000000" font-family="sans-serif" font-size="13" lengthAdjust="spacing" textLength="121.3608" x="714.8711" y="287.4575">Deploy application</text></g><g class="message" data-participant-1="K8s" data-participant-2="K8s"><line style="stroke:#181818;stroke-width:1;" x1="868.8662" x2="910.8662" y1="321.6563" y2="321.6563"/><line style="stroke:#181818;stroke-width:1;" x1="910.8662" x2="910.8662" y1="321.6563" y2="334.6563"/><line style="stroke:#181818;stroke-width:1;" x1="869.8662" x2="910.8662" y1="334.6563" y2="334.6563"/><polygon fill="#181818" points="879.8662,330.6563,869.8662,334.6563,879.8662,338.6563,875.8662,334.6563" style="stroke:#181818;stroke-width:1;"/><text fill="#000000" font-family="sans-serif" font-size="13" lengthAdjust="spacing" textLength="94.25" x="875.8662" y="316.5903">Rolling update</text></g><g class="message" data-participant-1="K8s" data-participant-2="Monitor"><polygon fill="#181818" points="1000.8242,359.7891,1010.8242,363.7891,1000.8242,367.7891,1004.8242,363.7891" style="stroke:#181818;stroke-width:1;"/><line style="stroke:#181818;stroke-width:1;" x1="868.8662" x2="1006.8242" y1="363.7891" y2="363.7891"/><text fill="#000000" font-family="sans-serif" font-size="13" lengthAdjust="spacing" textLength="91.6538" x="875.8662" y="358.7231">Health checks</text></g><g class="message" data-participant-1="Monitor" data-participant-2="ArgoCD"><polygon fill="#181818" points="718.8711,388.9219,708.8711,392.9219,718.8711,396.9219,714.8711,392.9219" style="stroke:#181818;stroke-width:1;"/><line style="stroke:#181818;stroke-width:1;" x1="712.8711" x2="1011.8242" y1="392.9219" y2="392.9219"/><text fill="#000000" font-family="sans-serif" font-size="13" lengthAdjust="spacing" textLength="123.5952" x="724.8711" y="387.856">Deployment status</text></g><g class="message" data-participant-1="ArgoCD" data-participant-2="Git"><polygon fill="#181818" points="223.3232,418.0547,213.3232,422.0547,223.3232,426.0547,219.3232,422.0547" style="stroke:#181818;stroke-width:1;"/><line style="stroke:#181818;stroke-width:1;" x1="217.3232" x2="706.8711" y1="422.0547" y2="422.0547"/><text fill="#000000" font-family="sans-serif" font-size="13" lengthAdjust="spacing" textLength="91.1587" x="229.3232" y="416.9888">Update status</text></g><path d="M10,437.0547 L74.4429,437.0547 L74.4429,444.1875 L64.4429,454.1875 L10,454.1875 L10,437.0547" fill="#EEEEEE" style="stroke:#000000;stroke-width:1.5;"/><rect fill="none" height="133.6641" style="stroke:#000000;stroke-width:1.5;" width="1057.2578" x="10" y="437.0547"/><text fill="#000000" font-family="sans-serif" font-size="13" font-weight="bold" lengthAdjust="spacing" textLength="19.4429" x="25" y="450.1216">alt</text><text fill="#000000" font-family="sans-serif" font-size="11" font-weight="bold" lengthAdjust="spacing" textLength="115.1563" x="89.4429" y="449.2651">[Deployment fails]</text><g class="message" data-participant-1="Monitor" data-participant-2="ArgoCD"><polygon fill="#181818" points="718.8711,471.3203,708.8711,475.3203,718.8711,479.3203,714.8711,475.3203" style="stroke:#181818;stroke-width:1;"/><line style="stroke:#181818;stroke-width:1;" x1="712.8711" x2="1011.8242" y1="475.3203" y2="475.3203"/><text fill="#000000" font-family="sans-serif" font-size="13" lengthAdjust="spacing" textLength="106.2217" x="724.8711" y="470.2544">Failure detected</text></g><g class="message" data-participant-1="ArgoCD" data-participant-2="K8s"><polygon fill="#181818" points="856.8662,500.4531,866.8662,504.4531,856.8662,508.4531,860.8662,504.4531" style="stroke:#181818;stroke-width:1;"/><line style="stroke:#181818;stroke-width:1;" x1="707.8711" x2="862.8662" y1="504.4531" y2="504.4531"/><text fill="#000000" font-family="sans-serif" font-size="13" lengthAdjust="spacing" textLength="136.9951" x="714.8711" y="499.3872">Rollback deployment</text></g><g class="message" data-participant-1="K8s" data-participant-2="Monitor"><polygon fill="#181818" points="1000.8242,529.5859,1010.8242,533.5859,1000.8242,537.5859,1004.8242,533.5859" style="stroke:#181818;stroke-width:1;"/><line style="stroke:#181818;stroke-width:1;" x1="868.8662" x2="1006.8242" y1="533.5859" y2="533.5859"/><text fill="#000000" font-family="sans-serif" font-size="13" lengthAdjust="spacing" textLength="119.958" x="875.8662" y="528.52">Rollback complete</text></g><g class="message" data-participant-1="ArgoCD" data-participant-2="Dev"><polygon fill="#181818" points="74.0015,558.7188,64.0015,562.7188,74.0015,566.7188,70.0015,562.7188" style="stroke:#181818;stroke-width:1;"/><line style="stroke:#181818;stroke-width:1;" x1="68.0015" x2="706.8711" y1="562.7188" y2="562.7188"/><text fill="#000000" font-family="sans-serif" font-size="13" lengthAdjust="spacing" textLength="84.1382" x="80.0015" y="557.6528">Notify failure</text></g><!--SRC=[RL5DRuCm3BtdLrYzxpvnc3HHRQkcRLMr_O0KtDHgI29YAlNVpqa30pHEuFTu7pOJMuHNugyGOOl1-bk7Zc5F0IqvL2hedgcXe6MwsU8LhG_ORq0d_dK9YmuSCFX8xFjRviXeoQbtatWcrBiLxXrh0NjHCXIvw8mVI_9pRtozpOJxwn9-7uxOEsICcVB-69VuXtSfAJcJyVAfb1I3XwUKlOBz4C_G-1QXEMjdCAhKKj1wLy5tJyP8rED0jbLIhSmFWmDnvLXcO_f9Rkn8dJPOIDdk9xIQ4Tg_KtJQqKcqHjzxqKgspzZmbEe-JWIfMPLRWWx1KgEPl5Cod-23jt810qEs6w6oW0hUK5kMd6TiBb6LyT9yoXTPyp3td_See1Av-JydJJOgaESVxHS1Xpxj81N4DlDMzLB-esukiqLbshh8n6jy5wm8hiJaqXLyUgRJBOSINuMkLRy0]--></g></svg>