<svg xmlns="http://www.w3.org/2000/svg" xmlns:xlink="http://www.w3.org/1999/xlink" contentStyleType="text/css" data-diagram-type="SEQUENCE" height="583px" preserveAspectRatio="none" style="width:933px;height:583px;background:#FFFFFF;" version="1.1" viewBox="0 0 933 583" width="933px" zoomAndPan="magnify"><title>Self-Healing MAPE-K Sequence</title><defs/><g><text fill="#000000" font-family="sans-serif" font-size="14" font-weight="bold" lengthAdjust="spacing" textLength="244.3438" x="346.1997" y="27.9951">Self-Healing MAPE-K Sequence</text><rect fill="none" height="440.6641" style="stroke:#000000;stroke-width:1.5;" width="917.7432" x="10" y="90.5938"/><rect fill="none" height="338.2656" style="stroke:#000000;stroke-width:1.5;" width="773.8691" x="143.874" y="185.9922"/><rect fill="none" height="148.4688" style="stroke:#000000;stroke-width:1.5;" width="418.2998" x="489.4434" y="310.5234"/><g><title>System Monitor</title><rect fill="#000000" fill-opacity="0.00000" height="474.6641" width="8" x="77.937" y="73.5938"/><line style="stroke:#181818;stroke-width:0.5;stroke-dasharray:5,5;" x1="81" x2="81" y1="73.5938" y2="548.2578"/></g><g><title>Anomaly Analyzer</title><rect fill="#000000" fill-opacity="0.00000" height="474.6641" width="8" x="220.2637" y="73.5938"/><line style="stroke:#181818;stroke-width:0.5;stroke-dasharray:5,5;" x1="223.874" x2="223.874" y1="73.5938" y2="548.2578"/></g><g><title>Recovery Planner</title><rect fill="#000000" fill-opacity="0.00000" height="474.6641" width="8" x="369.1631" y="73.5938"/><line style="stroke:#181818;stroke-width:0.5;stroke-dasharray:5,5;" x1="372.6533" x2="372.6533" y1="73.5938" y2="548.2578"/></g><g><title>Action Executor</title><rect fill="#000000" fill-opacity="0.00000" height="474.6641" width="8" x="557.7769" y="73.5938"/><line style="stroke:#181818;stroke-width:0.5;stroke-dasharray:5,5;" x1="561.4434" x2="561.4434" y1="73.5938" y2="548.2578"/></g><g><title>Knowledge Base</title><rect fill="#000000" fill-opacity="0.00000" height="474.6641" width="8" x="705.2705" y="73.5938"/><line style="stroke:#181818;stroke-width:0.5;stroke-dasharray:5,5;" x1="708.5205" x2="708.5205" y1="73.5938" y2="548.2578"/></g><g><title>Affected Node</title><rect fill="#000000" fill-opacity="0.00000" height="474.6641" width="8" x="836.8818" y="73.5938"/><line style="stroke:#181818;stroke-width:0.5;stroke-dasharray:5,5;" x1="840.0205" x2="840.0205" y1="73.5938" y2="548.2578"/></g><g class="participant participant-head" data-participant="Monitor"><rect fill="#E2E2F0" height="30.2969" rx="2.5" ry="2.5" style="stroke:#181818;stroke-width:0.5;" width="123.874" x="20" y="42.2969"/><text fill="#000000" font-family="sans-serif" font-size="14" lengthAdjust="spacing" textLength="109.874" x="27" y="62.292">System Monitor</text></g><g class="participant participant-tail" data-participant="Monitor"><rect fill="#E2E2F0" height="30.2969" rx="2.5" ry="2.5" style="stroke:#181818;stroke-width:0.5;" width="123.874" x="20" y="547.2578"/><text fill="#000000" font-family="sans-serif" font-size="14" lengthAdjust="spacing" textLength="109.874" x="27" y="567.2529">System Monitor</text></g><g class="participant participant-head" data-participant="Analyzer"><rect fill="#E2E2F0" height="30.2969" rx="2.5" ry="2.5" style="stroke:#181818;stroke-width:0.5;" width="140.7793" x="153.874" y="42.2969"/><text fill="#000000" font-family="sans-serif" font-size="14" lengthAdjust="spacing" textLength="126.7793" x="160.874" y="62.292">Anomaly Analyzer</text></g><g class="participant participant-tail" data-participant="Analyzer"><rect fill="#E2E2F0" height="30.2969" rx="2.5" ry="2.5" style="stroke:#181818;stroke-width:0.5;" width="140.7793" x="153.874" y="547.2578"/><text fill="#000000" font-family="sans-serif" font-size="14" lengthAdjust="spacing" textLength="126.7793" x="160.874" y="567.2529">Anomaly Analyzer</text></g><g class="participant participant-head" data-participant="Planner"><rect fill="#E2E2F0" height="30.2969" rx="2.5" ry="2.5" style="stroke:#181818;stroke-width:0.5;" width="137.0195" x="304.6533" y="42.2969"/><text fill="#000000" font-family="sans-serif" font-size="14" lengthAdjust="spacing" textLength="123.0195" x="311.6533" y="62.292">Recovery Planner</text></g><g class="participant participant-tail" data-participant="Planner"><rect fill="#E2E2F0" height="30.2969" rx="2.5" ry="2.5" style="stroke:#181818;stroke-width:0.5;" width="137.0195" x="304.6533" y="547.2578"/><text fill="#000000" font-family="sans-serif" font-size="14" lengthAdjust="spacing" textLength="123.0195" x="311.6533" y="567.2529">Recovery Planner</text></g><g class="participant participant-head" data-participant="Executor"><rect fill="#E2E2F0" height="30.2969" rx="2.5" ry="2.5" style="stroke:#181818;stroke-width:0.5;" width="124.667" x="499.4434" y="42.2969"/><text fill="#000000" font-family="sans-serif" font-size="14" lengthAdjust="spacing" textLength="110.667" x="506.4434" y="62.292">Action Executor</text></g><g class="participant participant-tail" data-participant="Executor"><rect fill="#E2E2F0" height="30.2969" rx="2.5" ry="2.5" style="stroke:#181818;stroke-width:0.5;" width="124.667" x="499.4434" y="547.2578"/><text fill="#000000" font-family="sans-serif" font-size="14" lengthAdjust="spacing" textLength="110.667" x="506.4434" y="567.2529">Action Executor</text></g><g class="participant participant-head" data-participant="Knowledge"><rect fill="#E2E2F0" height="30.2969" rx="2.5" ry="2.5" style="stroke:#181818;stroke-width:0.5;" width="129.5" x="644.5205" y="42.2969"/><text fill="#000000" font-family="sans-serif" font-size="14" lengthAdjust="spacing" textLength="115.5" x="651.5205" y="62.292">Knowledge Base</text></g><g class="participant participant-tail" data-participant="Knowledge"><rect fill="#E2E2F0" height="30.2969" rx="2.5" ry="2.5" style="stroke:#181818;stroke-width:0.5;" width="129.5" x="644.5205" y="547.2578"/><text fill="#000000" font-family="sans-serif" font-size="14" lengthAdjust="spacing" textLength="115.5" x="651.5205" y="567.2529">Knowledge Base</text></g><g class="participant participant-head" data-participant="Node"><rect fill="#E2E2F0" height="30.2969" rx="2.5" ry="2.5" style="stroke:#181818;stroke-width:0.5;" width="113.7227" x="784.0205" y="42.2969"/><text fill="#000000" font-family="sans-serif" font-size="14" lengthAdjust="spacing" textLength="99.7227" x="791.0205" y="62.292">Affected Node</text></g><g class="participant participant-tail" data-participant="Node"><rect fill="#E2E2F0" height="30.2969" rx="2.5" ry="2.5" style="stroke:#181818;stroke-width:0.5;" width="113.7227" x="784.0205" y="547.2578"/><text fill="#000000" font-family="sans-serif" font-size="14" lengthAdjust="spacing" textLength="99.7227" x="791.0205" y="567.2529">Affected Node</text></g><path d="M10,90.5938 L86.624,90.5938 L86.624,97.7266 L76.624,107.7266 L10,107.7266 L10,90.5938" fill="#EEEEEE" style="stroke:#000000;stroke-width:1.5;"/><rect fill="none" height="440.6641" style="stroke:#000000;stroke-width:1.5;" width="917.7432" x="10" y="90.5938"/><text fill="#000000" font-family="sans-serif" font-size="13" font-weight="bold" lengthAdjust="spacing" textLength="31.624" x="25" y="103.6606">loop</text><text fill="#000000" font-family="sans-serif" font-size="11" font-weight="bold" lengthAdjust="spacing" textLength="110.4458" x="101.624" y="102.8042">[Every 5 seconds]</text><g class="message" data-participant-1="Monitor" data-participant-2="Monitor"><line style="stroke:#181818;stroke-width:1;" x1="81.937" x2="123.937" y1="128.8594" y2="128.8594"/><line style="stroke:#181818;stroke-width:1;" x1="123.937" x2="123.937" y1="128.8594" y2="141.8594"/><line style="stroke:#181818;stroke-width:1;" x1="82.937" x2="123.937" y1="141.8594" y2="141.8594"/><polygon fill="#181818" points="92.937,137.8594,82.937,141.8594,92.937,145.8594,88.937,141.8594" style="stroke:#181818;stroke-width:1;"/><text fill="#000000" font-family="sans-serif" font-size="13" lengthAdjust="spacing" textLength="97.2651" x="88.937" y="123.7935">Collect metrics</text></g><g class="message" data-participant-1="Monitor" data-participant-2="Analyzer"><polygon fill="#181818" points="212.2637,166.9922,222.2637,170.9922,212.2637,174.9922,216.2637,170.9922" style="stroke:#181818;stroke-width:1;"/><line style="stroke:#181818;stroke-width:1;" x1="81.937" x2="218.2637" y1="170.9922" y2="170.9922"/><text fill="#000000" font-family="sans-serif" font-size="13" lengthAdjust="spacing" textLength="111.4395" x="88.937" y="165.9263">Send health data</text></g><path d="M143.874,185.9922 L208.3169,185.9922 L208.3169,193.125 L198.3169,203.125 L143.874,203.125 L143.874,185.9922" fill="#EEEEEE" style="stroke:#000000;stroke-width:1.5;"/><rect fill="none" height="338.2656" style="stroke:#000000;stroke-width:1.5;" width="773.8691" x="143.874" y="185.9922"/><text fill="#000000" font-family="sans-serif" font-size="13" font-weight="bold" lengthAdjust="spacing" textLength="19.4429" x="158.874" y="199.0591">alt</text><text fill="#000000" font-family="sans-serif" font-size="11" font-weight="bold" lengthAdjust="spacing" textLength="122.7778" x="223.3169" y="198.2026">[Anomaly detected]</text><g class="message" data-participant-1="Analyzer" data-participant-2="Planner"><polygon fill="#181818" points="361.1631,220.2578,371.1631,224.2578,361.1631,228.2578,365.1631,224.2578" style="stroke:#181818;stroke-width:1;"/><line style="stroke:#181818;stroke-width:1;" x1="224.2637" x2="367.1631" y1="224.2578" y2="224.2578"/><text fill="#000000" font-family="sans-serif" font-size="13" lengthAdjust="spacing" textLength="103.9048" x="231.2637" y="219.1919">Report anomaly</text></g><g class="message" data-participant-1="Planner" data-participant-2="Planner"><line style="stroke:#181818;stroke-width:1;" x1="373.1631" x2="415.1631" y1="253.3906" y2="253.3906"/><line style="stroke:#181818;stroke-width:1;" x1="415.1631" x2="415.1631" y1="253.3906" y2="266.3906"/><line style="stroke:#181818;stroke-width:1;" x1="374.1631" x2="415.1631" y1="266.3906" y2="266.3906"/><polygon fill="#181818" points="384.1631,262.3906,374.1631,266.3906,384.1631,270.3906,380.1631,266.3906" style="stroke:#181818;stroke-width:1;"/><text fill="#000000" font-family="sans-serif" font-size="13" lengthAdjust="spacing" textLength="154.2227" x="380.1631" y="248.3247">Generate recovery plan</text></g><g class="message" data-participant-1="Planner" data-participant-2="Executor"><polygon fill="#181818" points="549.7769,291.5234,559.7769,295.5234,549.7769,299.5234,553.7769,295.5234" style="stroke:#181818;stroke-width:1;"/><line style="stroke:#181818;stroke-width:1;" x1="373.1631" x2="555.7769" y1="295.5234" y2="295.5234"/><text fill="#000000" font-family="sans-serif" font-size="13" lengthAdjust="spacing" textLength="164.6138" x="380.1631" y="290.4575">Execute recovery actions</text></g><path d="M489.4434,310.5234 L553.8862,310.5234 L553.8862,317.6563 L543.8862,327.6563 L489.4434,327.6563 L489.4434,310.5234" fill="#EEEEEE" style="stroke:#000000;stroke-width:1.5;"/><rect fill="none" height="148.4688" style="stroke:#000000;stroke-width:1.5;" width="418.2998" x="489.4434" y="310.5234"/><text fill="#000000" font-family="sans-serif" font-size="13" font-weight="bold" lengthAdjust="spacing" textLength="19.4429" x="504.4434" y="323.5903">alt</text><text fill="#000000" font-family="sans-serif" font-size="11" font-weight="bold" lengthAdjust="spacing" textLength="112.8467" x="568.8862" y="322.7339">[Restart required]</text><g class="message" data-participant-1="Executor" data-participant-2="Node"><polygon fill="#181818" points="828.8818,344.7891,838.8818,348.7891,828.8818,352.7891,832.8818,348.7891" style="stroke:#181818;stroke-width:1;"/><line style="stroke:#181818;stroke-width:1;" x1="561.7769" x2="834.8818" y1="348.7891" y2="348.7891"/><text fill="#000000" font-family="sans-serif" font-size="13" lengthAdjust="spacing" textLength="98.0078" x="568.7769" y="343.7231">Restart service</text></g><g class="message" data-participant-1="Node" data-participant-2="Executor"><polygon fill="#181818" points="572.7769,373.9219,562.7769,377.9219,572.7769,381.9219,568.7769,377.9219" style="stroke:#181818;stroke-width:1;"/><line style="stroke:#181818;stroke-width:1;" x1="566.7769" x2="839.8818" y1="377.9219" y2="377.9219"/><text fill="#000000" font-family="sans-serif" font-size="13" lengthAdjust="spacing" textLength="99.2202" x="578.7769" y="372.856">Confirm restart</text></g><line style="stroke:#000000;stroke-width:1;stroke-dasharray:2,2;" x1="489.4434" x2="907.7432" y1="386.9219" y2="386.9219"/><text fill="#000000" font-family="sans-serif" font-size="11" font-weight="bold" lengthAdjust="spacing" textLength="119.6357" x="494.4434" y="397.1323">[Scale up required]</text><g class="message" data-participant-1="Executor" data-participant-2="Node"><polygon fill="#181818" points="828.8818,417.8594,838.8818,421.8594,828.8818,425.8594,832.8818,421.8594" style="stroke:#181818;stroke-width:1;"/><line style="stroke:#181818;stroke-width:1;" x1="561.7769" x2="834.8818" y1="421.8594" y2="421.8594"/><text fill="#000000" font-family="sans-serif" font-size="13" lengthAdjust="spacing" textLength="121.5767" x="568.7769" y="416.7935">Scale up instances</text></g><g class="message" data-participant-1="Node" data-participant-2="Executor"><polygon fill="#181818" points="572.7769,446.9922,562.7769,450.9922,572.7769,454.9922,568.7769,450.9922" style="stroke:#181818;stroke-width:1;"/><line style="stroke:#181818;stroke-width:1;" x1="566.7769" x2="839.8818" y1="450.9922" y2="450.9922"/><text fill="#000000" font-family="sans-serif" font-size="13" lengthAdjust="spacing" textLength="101.2007" x="578.7769" y="445.9263">Confirm scaling</text></g><g class="message" data-participant-1="Executor" data-participant-2="Knowledge"><polygon fill="#181818" points="697.2705,483.125,707.2705,487.125,697.2705,491.125,701.2705,487.125" style="stroke:#181818;stroke-width:1;"/><line style="stroke:#181818;stroke-width:1;" x1="561.7769" x2="703.2705" y1="487.125" y2="487.125"/><text fill="#000000" font-family="sans-serif" font-size="13" lengthAdjust="spacing" textLength="123.4937" x="568.7769" y="482.0591">Update experience</text></g><g class="message" data-participant-1="Knowledge" data-participant-2="Analyzer"><polygon fill="#181818" points="235.2637,512.2578,225.2637,516.2578,235.2637,520.2578,231.2637,516.2578" style="stroke:#181818;stroke-width:1;"/><line style="stroke:#181818;stroke-width:1;" x1="229.2637" x2="708.2705" y1="516.2578" y2="516.2578"/><text fill="#000000" font-family="sans-serif" font-size="13" lengthAdjust="spacing" textLength="121.0562" x="241.2637" y="511.1919">Update ML models</text></g><!--SRC=[ZPFDRW8X4CVl-nGJxnvxsKCJQqoRM1kZwGCGc5KI5X1Ogttw3ko2kzg39CiEy9iF_Xc230fXZwgPVo1JKXzWizYkvclQEtMeELQLPIv8BYtJ0MRxgm_OmiPe6OoR0VFPdd8BRLgchh3GDFzYJ-R55DqXDsTqLzWgflM03lPTK1waqR2w8EzozhoOacjjVXIA0y8RyvZ0idKNiscG1nJmPKGFHgEgb34MLgck5_1KeXQ-0Xh3TM7-ciqQbaOfYW8j1YVv0vVlNPEgMi2Hb0v742omHAQ9jY2B9Z2acj9173b033OeKyCEhN41MEzKsE5yWhuZ_LX0S5bhIqV_kMGvwy4QkR2alYzUnOYbxz07afNeKoVTgFGuSj2O8AfR5zoZEqjgiZ4TYMafIwCRwLeAdhmAZSfJyt96BTpPPrCNNcgAHXtkdypkUNeWj-nQF6enpbSwhePlAwByUB7eP7fMsU7MgPD66Hmsdz1IGQglCMQCtny0]--></g></svg>