<svg xmlns="http://www.w3.org/2000/svg" xmlns:xlink="http://www.w3.org/1999/xlink" contentStyleType="text/css" data-diagram-type="STATE" height="156px" preserveAspectRatio="none" style="width:2102px;height:156px;background:#FFFFFF;" version="1.1" viewBox="0 0 2102 156" width="2102px" zoomAndPan="magnify"><title>Agent State Machine</title><defs/><g><g class="title" data-source-line="1"><text fill="#000000" font-family="sans-serif" font-size="14" font-weight="bold" lengthAdjust="spacing" textLength="165.0742" x="961.9385" y="22.9951">Agent State Machine</text></g><ellipse cx="16" cy="125.5969" fill="#222222" rx="10" ry="10" style="stroke:#222222;stroke-width:1;"/><g id="Initializing"><rect fill="#F1F1F1" height="50" rx="12.5" ry="12.5" style="stroke:#181818;stroke-width:0.5;" width="91.627" x="154.19" y="100.5969"/><line style="stroke:#181818;stroke-width:0.5;" x1="154.19" x2="245.817" y1="126.8938" y2="126.8938"/><text fill="#000000" font-family="sans-serif" font-size="14" lengthAdjust="spacing" textLength="71.627" x="164.19" y="118.592">Initializing</text></g><g id="Registering"><rect fill="#F1F1F1" height="50" rx="12.5" ry="12.5" style="stroke:#181818;stroke-width:0.5;" width="99.9189" x="401.04" y="100.5969"/><line style="stroke:#181818;stroke-width:0.5;" x1="401.04" x2="500.9589" y1="126.8938" y2="126.8938"/><text fill="#000000" font-family="sans-serif" font-size="14" lengthAdjust="spacing" textLength="79.9189" x="411.04" y="118.592">Registering</text></g><g id="Available"><rect fill="#F1F1F1" height="50" rx="12.5" ry="12.5" style="stroke:#181818;stroke-width:0.5;" width="84.1895" x="687.91" y="100.5969"/><line style="stroke:#181818;stroke-width:0.5;" x1="687.91" x2="772.0995" y1="126.8938" y2="126.8938"/><text fill="#000000" font-family="sans-serif" font-size="14" lengthAdjust="spacing" textLength="64.1895" x="697.91" y="118.592">Available</text></g><g id="Failed"><rect fill="#F1F1F1" height="50" rx="12.5" ry="12.5" style="stroke:#181818;stroke-width:0.5;" width="61.9111" x="2034.04" y="100.5969"/><line style="stroke:#181818;stroke-width:0.5;" x1="2034.04" x2="2095.9511" y1="126.8938" y2="126.8938"/><text fill="#000000" font-family="sans-serif" font-size="14" lengthAdjust="spacing" textLength="41.9111" x="2044.04" y="118.592">Failed</text></g><g id="Busy"><rect fill="#F1F1F1" height="50" rx="12.5" ry="12.5" style="stroke:#181818;stroke-width:0.5;" width="54.0566" x="1650.97" y="100.5969"/><line style="stroke:#181818;stroke-width:0.5;" x1="1650.97" x2="1705.0266" y1="126.8938" y2="126.8938"/><text fill="#000000" font-family="sans-serif" font-size="14" lengthAdjust="spacing" textLength="34.0566" x="1660.97" y="118.592">Busy</text></g><g id="Error"><rect fill="#F1F1F1" height="50" rx="12.5" ry="12.5" style="stroke:#181818;stroke-width:0.5;" width="54.6787" x="1811.66" y="100.5969"/><line style="stroke:#181818;stroke-width:0.5;" x1="1811.66" x2="1866.3387" y1="126.8938" y2="126.8938"/><text fill="#000000" font-family="sans-serif" font-size="14" lengthAdjust="spacing" textLength="34.6787" x="1821.66" y="118.592">Error</text></g><g id="Updating"><rect fill="#F1F1F1" height="50" rx="12.5" ry="12.5" style="stroke:#181818;stroke-width:0.5;" width="83.7383" x="1532.13" y="100.5969"/><line style="stroke:#181818;stroke-width:0.5;" x1="1532.13" x2="1615.8683" y1="126.8938" y2="126.8938"/><text fill="#000000" font-family="sans-serif" font-size="14" lengthAdjust="spacing" textLength="63.7383" x="1542.13" y="118.592">Updating</text></g><g id="Disconnecting"><rect fill="#F1F1F1" height="50" rx="12.5" ry="12.5" style="stroke:#181818;stroke-width:0.5;" width="119.4219" x="942.29" y="100.5969"/><line style="stroke:#181818;stroke-width:0.5;" x1="942.29" x2="1061.7119" y1="126.8938" y2="126.8938"/><text fill="#000000" font-family="sans-serif" font-size="14" lengthAdjust="spacing" textLength="99.4219" x="952.29" y="118.592">Disconnecting</text></g><g id="Disconnected"><rect fill="#F1F1F1" height="50" rx="12.5" ry="12.5" style="stroke:#181818;stroke-width:0.5;" width="115.2725" x="1216.36" y="100.5969"/><line style="stroke:#181818;stroke-width:0.5;" x1="1216.36" x2="1331.6325" y1="126.8938" y2="126.8938"/><text fill="#000000" font-family="sans-serif" font-size="14" lengthAdjust="spacing" textLength="95.2725" x="1226.36" y="118.592">Disconnected</text></g><ellipse cx="1486" cy="125.5969" fill="none" rx="11" ry="11" style="stroke:#222222;stroke-width:1;"/><ellipse cx="1486" cy="125.5969" fill="#222222" rx="6" ry="6" style="stroke:#222222;stroke-width:1;"/><!--link *start* to Initializing--><g class="link" data-entity-1=".start." data-entity-2="Initializing" data-source-line="3" data-uid="lnk4" id="link_.start._Initializing"><path d="M26.42,125.5969 C50.44,125.5969 104.93,125.5969 147.72,125.5969" fill="none" id="*start*-to-Initializing" style="stroke:#181818;stroke-width:1;"/><polygon fill="#181818" points="153.72,125.5969,144.72,121.5969,148.72,125.5969,144.72,129.5969,153.72,125.5969" style="stroke:#181818;stroke-width:1;"/><text fill="#000000" font-family="sans-serif" font-size="13" lengthAdjust="spacing" textLength="92.4155" x="44.09" y="118.6638">Agent created</text></g><!--link Initializing to Registering--><g class="link" data-entity-1="Initializing" data-entity-2="Registering" data-source-line="4" data-uid="lnk6" id="link_Initializing_Registering"><path d="M246.04,125.5969 C289.91,125.5969 349.79,125.5969 394.95,125.5969" fill="none" id="Initializing-to-Registering" style="stroke:#181818;stroke-width:1;"/><polygon fill="#181818" points="400.95,125.5969,391.95,121.5969,395.95,125.5969,391.95,129.5969,400.95,125.5969" style="stroke:#181818;stroke-width:1;"/><text fill="#000000" font-family="sans-serif" font-size="13" lengthAdjust="spacing" textLength="119.2598" x="263.93" y="118.6638">Initialize complete</text></g><!--link Registering to Available--><g class="link" data-entity-1="Registering" data-entity-2="Available" data-source-line="5" data-uid="lnk8" id="link_Registering_Available"><path d="M501.2,125.5969 C554.39,125.5969 631.45,125.5969 681.5,125.5969" fill="none" id="Registering-to-Available" style="stroke:#181818;stroke-width:1;"/><polygon fill="#181818" points="687.5,125.5969,678.5,121.5969,682.5,125.5969,678.5,129.5969,687.5,125.5969" style="stroke:#181818;stroke-width:1;"/><text fill="#000000" font-family="sans-serif" font-size="13" lengthAdjust="spacing" textLength="150.3887" x="519.43" y="118.6638">Registration successful</text></g><!--link Registering to Failed--><g class="link" data-entity-1="Registering" data-entity-2="Failed" data-source-line="6" data-uid="lnk10" id="link_Registering_Failed"><path d="M501.34,118.6469 C545.66,112.8169 611.98,104.7869 670,100.5969 C1198.87,62.3969 1332.31,72.2769 1862.5,64.1769 C1916.27,63.3569 1932.5,47.1169 1983.5,64.1769 C2005.01,71.3769 2020.9291,82.7033 2035.9291,96.2633" fill="none" id="Registering-to-Failed" style="stroke:#181818;stroke-width:1;"/><polygon fill="#181818" points="2040.38,100.2869,2036.3861,91.2842,2036.6709,96.9339,2031.0212,97.2187,2040.38,100.2869" style="stroke:#181818;stroke-width:1;"/><text fill="#000000" font-family="sans-serif" font-size="13" lengthAdjust="spacing" textLength="119.1265" x="1863.5" y="66.6638">Registration failed</text></g><!--link Failed to Registering--><g class="link" data-entity-1="Failed" data-entity-2="Registering" data-source-line="7" data-uid="lnk11" id="link_Failed_Registering"><path d="M2040.38,100.2869 C2025.38,86.7269 2005.01,71.3769 1983.5,64.1769 C1932.5,47.1169 1916.27,63.3569 1862.5,64.1769 C1332.31,72.2769 1198.87,62.3969 670,100.5969 C611.98,104.7869 551.6088,112.0344 507.2888,117.8644" fill="none" id="Failed-to-Registering" style="stroke:#181818;stroke-width:1;"/><polygon fill="#181818" points="501.34,118.6469,510.7848,121.4389,506.2973,117.9948,509.7415,113.5073,501.34,118.6469" style="stroke:#181818;stroke-width:1;"/><text fill="#000000" font-family="sans-serif" font-size="13" lengthAdjust="spacing" textLength="114.5879" x="1866" y="66.6638">Retry registration</text></g><!--link Available to Busy--><g class="link" data-entity-1="Available" data-entity-2="Busy" data-source-line="8" data-uid="lnk13" id="link_Available_Busy"><path d="M740.58,100.3469 C747.64,86.9869 758.34,71.8169 773,64.1769 C810.06,44.8869 825.23,63.1869 867,64.1769 C1037.37,68.2269 1469.1,53.9469 1633,100.5969 C1639.02,102.3069 1639.7835,102.195 1645.4535,105.135" fill="none" id="Available-to-Busy" style="stroke:#181818;stroke-width:1;"/><polygon fill="#181818" points="1650.78,107.8969,1644.6315,100.203,1646.3412,105.5953,1640.9489,107.305,1650.78,107.8969" style="stroke:#181818;stroke-width:1;"/><text fill="#000000" font-family="sans-serif" font-size="13" lengthAdjust="spacing" textLength="92.2061" x="774" y="66.6638">Task assigned</text></g><!--link Busy to Available--><g class="link" data-entity-1="Busy" data-entity-2="Available" data-source-line="9" data-uid="lnk14" id="link_Busy_Available"><path d="M1650.78,107.8969 C1645.11,104.9569 1639.02,102.3069 1633,100.5969 C1469.1,53.9469 1037.37,68.2269 867,64.1769 C825.23,63.1869 810.06,44.8869 773,64.1769 C758.34,71.8169 750.4433,81.682 743.3833,95.042" fill="none" id="Busy-to-Available" style="stroke:#181818;stroke-width:1;"/><polygon fill="#181818" points="740.58,100.3469,748.3215,94.2585,742.9161,95.9262,741.2484,90.5207,740.58,100.3469" style="stroke:#181818;stroke-width:1;"/><text fill="#000000" font-family="sans-serif" font-size="13" lengthAdjust="spacing" textLength="103.3145" x="768.5" y="66.6638">Task completed</text></g><!--link Busy to Error--><g class="link" data-entity-1="Busy" data-entity-2="Error" data-source-line="10" data-uid="lnk16" id="link_Busy_Error"><path d="M1705.31,125.5969 C1734.83,125.5969 1775.61,125.5969 1805.28,125.5969" fill="none" id="Busy-to-Error" style="stroke:#181818;stroke-width:1;"/><polygon fill="#181818" points="1811.28,125.5969,1802.28,121.5969,1806.28,125.5969,1802.28,129.5969,1811.28,125.5969" style="stroke:#181818;stroke-width:1;"/><text fill="#000000" font-family="sans-serif" font-size="13" lengthAdjust="spacing" textLength="70.3574" x="1723.34" y="118.6638">Task failed</text></g><!--link Error to Available--><g class="link" data-entity-1="Error" data-entity-2="Available" data-source-line="11" data-uid="lnk17" id="link_Error_Available"><path d="M1811.56,118.3669 C1788.2,112.5169 1753.64,104.6369 1723,100.5969 C1399.61,58.0069 1316.08,72.2769 990,64.1769 C943.79,63.0369 931.41,55.5669 886,64.1769 C845.97,71.7769 808.4881,86.8804 777.8281,101.3204" fill="none" id="Error-to-Available" style="stroke:#181818;stroke-width:1;"/><polygon fill="#181818" points="772.4,103.8769,782.2465,103.6609,776.9234,101.7465,778.8378,96.4234,772.4,103.8769" style="stroke:#181818;stroke-width:1;"/><text fill="#000000" font-family="sans-serif" font-size="13" lengthAdjust="spacing" textLength="102.064" x="887" y="66.6638">Error recovered</text></g><!--link Error to Failed--><g class="link" data-entity-1="Error" data-entity-2="Failed" data-source-line="12" data-uid="lnk18" id="link_Error_Failed"><path d="M1866.71,125.5969 C1909.03,125.5969 1983.49,125.5969 2027.8,125.5969" fill="none" id="Error-to-Failed" style="stroke:#181818;stroke-width:1;"/><polygon fill="#181818" points="2033.8,125.5969,2024.8,121.5969,2028.8,125.5969,2024.8,129.5969,2033.8,125.5969" style="stroke:#181818;stroke-width:1;"/><text fill="#000000" font-family="sans-serif" font-size="13" lengthAdjust="spacing" textLength="131.1807" x="1884.69" y="118.6638">Unrecoverable error</text></g><!--link Available to Updating--><g class="link" data-entity-1="Available" data-entity-2="Updating" data-source-line="13" data-uid="lnk20" id="link_Available_Updating"><path d="M772.53,119.5269 C811.99,114.0469 872.38,106.0269 925,100.5969 C1131.65,79.2869 1183.42,72.2769 1391,64.1769 C1422.09,62.9669 1503.4,49.8169 1531,64.1769 C1545.66,71.8169 1553.5567,81.682 1560.6167,95.042" fill="none" id="Available-to-Updating" style="stroke:#181818;stroke-width:1;"/><polygon fill="#181818" points="1563.42,100.3469,1562.7516,90.5207,1561.0839,95.9262,1555.6785,94.2585,1563.42,100.3469" style="stroke:#181818;stroke-width:1;"/><text fill="#000000" font-family="sans-serif" font-size="13" lengthAdjust="spacing" textLength="138.0996" x="1392" y="66.6638">Configuration update</text></g><!--link Updating to Available--><g class="link" data-entity-1="Updating" data-entity-2="Available" data-source-line="14" data-uid="lnk21" id="link_Updating_Available"><path d="M1563.42,100.3469 C1556.36,86.9869 1545.66,71.8169 1531,64.1769 C1503.4,49.8169 1422.09,62.9669 1391,64.1769 C1183.42,72.2769 1131.65,79.2869 925,100.5969 C872.38,106.0269 817.933,113.2215 778.473,118.7015" fill="none" id="Updating-to-Available" style="stroke:#181818;stroke-width:1;"/><polygon fill="#181818" points="772.53,119.5269,781.9947,122.2509,777.4825,118.8391,780.8942,114.3269,772.53,119.5269" style="stroke:#181818;stroke-width:1;"/><text fill="#000000" font-family="sans-serif" font-size="13" lengthAdjust="spacing" textLength="118.4917" x="1402" y="66.6638">Update successful</text></g><!--link Updating to Failed--><g class="link" data-entity-1="Updating" data-entity-2="Failed" data-source-line="15" data-uid="lnk22" id="link_Updating_Failed"><path d="M1602.53,100.2369 C1619.75,86.6669 1642.88,71.3069 1666.5,64.1769 C1735.69,43.2969 1946.7441,94.5532 2028.0241,115.7432" fill="none" id="Updating-to-Failed" style="stroke:#181818;stroke-width:1;"/><polygon fill="#181818" points="2033.83,117.2569,2026.1302,111.1158,2028.9917,115.9955,2024.112,118.8571,2033.83,117.2569" style="stroke:#181818;stroke-width:1;"/><text fill="#000000" font-family="sans-serif" font-size="13" lengthAdjust="spacing" textLength="87.2295" x="1667.5" y="66.6638">Update failed</text></g><!--link Available to Disconnecting--><g class="link" data-entity-1="Available" data-entity-2="Disconnecting" data-source-line="16" data-uid="lnk24" id="link_Available_Disconnecting"><path d="M772.5,125.5969 C818,125.5969 884.55,125.5969 935.89,125.5969" fill="none" id="Available-to-Disconnecting" style="stroke:#181818;stroke-width:1;"/><polygon fill="#181818" points="941.89,125.5969,932.89,121.5969,936.89,125.5969,932.89,129.5969,941.89,125.5969" style="stroke:#181818;stroke-width:1;"/><text fill="#000000" font-family="sans-serif" font-size="13" lengthAdjust="spacing" textLength="134.9893" x="790.19" y="118.6638">Shutdown requested</text></g><!--link Disconnecting to Disconnected--><g class="link" data-entity-1="Disconnecting" data-entity-2="Disconnected" data-source-line="17" data-uid="lnk26" id="link_Disconnecting_Disconnected"><path d="M1062.03,125.5969 C1107.87,125.5969 1164.66,125.5969 1209.99,125.5969" fill="none" id="Disconnecting-to-Disconnected" style="stroke:#181818;stroke-width:1;"/><polygon fill="#181818" points="1215.99,125.5969,1206.99,121.5969,1210.99,125.5969,1206.99,129.5969,1215.99,125.5969" style="stroke:#181818;stroke-width:1;"/><text fill="#000000" font-family="sans-serif" font-size="13" lengthAdjust="spacing" textLength="118.2378" x="1080.04" y="118.6638">Cleanup complete</text></g><!--link Disconnected to *end*--><g class="link" data-entity-1="Disconnected" data-entity-2=".end." data-source-line="18" data-uid="lnk28" id="link_Disconnected_.end."><path d="M1331.93,125.5969 C1381.21,125.5969 1442.09,125.5969 1468.55,125.5969" fill="none" id="Disconnected-to-*end*" style="stroke:#181818;stroke-width:1;"/><polygon fill="#181818" points="1474.55,125.5969,1465.55,121.5969,1469.55,125.5969,1465.55,129.5969,1474.55,125.5969" style="stroke:#181818;stroke-width:1;"/><text fill="#000000" font-family="sans-serif" font-size="13" lengthAdjust="spacing" textLength="107.9736" x="1349.82" y="118.6638">Agent destroyed</text></g><!--SRC=[PPAxJWGn34NxV4Lg97vW2wHb0Oc2PfUj44L8FBCMmHdoM3HyFPvCvf6XzJtNzhKSCLgG-nOeobDK4UIBqXSa4EBjvbtUtibdmeZAuYzIAtS5rHwODQ8I6Jv2Yo627zbP1QdTLsSXWbWJRDXV5LhrmJliYjchY8vaI5f324soMyiJEy1i-IPNHH7_hNA4w7lfLmwnZ6RwFeMUiLSLFgKA0LlYPhcuMJ8JKve5UVJU-KakkuorZNyiUj3k2duDpR7ELDJiW46lTprtXXFaM0T73RQft20D0eXPtupETLXVTaqkyqUiXAWcFs3GZWXq6N-wf6ZS3t6UxmHXE4YDL9xS_M11KUgMXwXqveUtczxCS4_lUcxx1m00]--></g></svg>