<svg xmlns="http://www.w3.org/2000/svg" xmlns:xlink="http://www.w3.org/1999/xlink" contentStyleType="text/css" data-diagram-type="DESCRIPTION" height="443px" preserveAspectRatio="none" style="width:854px;height:443px;background:#FFFFFF;" version="1.1" viewBox="0 0 854 443" width="854px" zoomAndPan="magnify"><title>Protocol Router - Code Architecture</title><defs/><g><g class="title" data-source-line="1"><text fill="#000000" font-family="sans-serif" font-size="14" font-weight="bold" lengthAdjust="spacing" textLength="282.3311" x="278.8345" y="22.9951">Protocol Router - Code Architecture</text></g><!--cluster Protocol Router--><g class="cluster" data-entity="Protocol Router" data-source-line="3" data-uid="ent0002" id="cluster_Protocol Router"><path d="M8.5,43.2969 L133.6406,43.2969 A3.75,3.75 0 0 1 136.1406,45.7969 L143.1406,65.5938 L844.5,65.5938 A2.5,2.5 0 0 1 847,68.0938 L847,433.5769 A2.5,2.5 0 0 1 844.5,436.0769 L8.5,436.0769 A2.5,2.5 0 0 1 6,433.5769 L6,45.7969 A2.5,2.5 0 0 1 8.5,43.2969" fill="none" style="stroke:#000000;stroke-width:1.5;"/><line style="stroke:#000000;stroke-width:1.5;" x1="6" x2="143.1406" y1="65.5938" y2="65.5938"/><text fill="#000000" font-family="sans-serif" font-size="14" font-weight="bold" lengthAdjust="spacing" textLength="124.1406" x="10" y="58.292">Protocol Router</text></g><!--entity UnifiedMessage--><g class="entity" data-entity="UnifiedMessage" data-source-line="4" data-uid="ent0003" id="entity_UnifiedMessage"><rect fill="#F1F1F1" height="62.5938" rx="2.5" ry="2.5" style="stroke:#181818;stroke-width:0.5;" width="150.6875" x="21.66" y="357.4869"/><rect fill="#F1F1F1" height="10" style="stroke:#181818;stroke-width:0.5;" width="15" x="152.3475" y="362.4869"/><rect fill="#F1F1F1" height="2" style="stroke:#181818;stroke-width:0.5;" width="4" x="150.3475" y="364.4869"/><rect fill="#F1F1F1" height="2" style="stroke:#181818;stroke-width:0.5;" width="4" x="150.3475" y="368.4869"/><text fill="#000000" font-family="sans-serif" font-size="14" font-style="italic" lengthAdjust="spacing" textLength="79.96" x="52.0238" y="390.482">&#171;Interface&#187;</text><text fill="#000000" font-family="sans-serif" font-size="14" lengthAdjust="spacing" textLength="110.6875" x="36.66" y="406.7789">UnifiedMessage</text></g><!--entity ProtocolHandler--><g class="entity" data-entity="ProtocolHandler" data-source-line="5" data-uid="ent0004" id="entity_ProtocolHandler"><rect fill="#F1F1F1" height="62.5938" rx="2.5" ry="2.5" style="stroke:#181818;stroke-width:0.5;" width="152.0957" x="327.95" y="217.8869"/><rect fill="#F1F1F1" height="10" style="stroke:#181818;stroke-width:0.5;" width="15" x="460.0457" y="222.8869"/><rect fill="#F1F1F1" height="2" style="stroke:#181818;stroke-width:0.5;" width="4" x="458.0457" y="224.8869"/><rect fill="#F1F1F1" height="2" style="stroke:#181818;stroke-width:0.5;" width="4" x="458.0457" y="228.8869"/><text fill="#000000" font-family="sans-serif" font-size="14" font-style="italic" lengthAdjust="spacing" textLength="79.96" x="359.0179" y="250.882">&#171;Interface&#187;</text><text fill="#000000" font-family="sans-serif" font-size="14" lengthAdjust="spacing" textLength="112.0957" x="342.95" y="267.1789">ProtocolHandler</text></g><!--entity A2AProtocolHandler--><g class="entity" data-entity="A2AProtocolHandler" data-source-line="6" data-uid="ent0005" id="entity_A2AProtocolHandler"><rect fill="#F1F1F1" height="62.5938" rx="2.5" ry="2.5" style="stroke:#181818;stroke-width:0.5;" width="180.1572" x="206.92" y="357.4869"/><rect fill="#F1F1F1" height="10" style="stroke:#181818;stroke-width:0.5;" width="15" x="367.0772" y="362.4869"/><rect fill="#F1F1F1" height="2" style="stroke:#181818;stroke-width:0.5;" width="4" x="365.0772" y="364.4869"/><rect fill="#F1F1F1" height="2" style="stroke:#181818;stroke-width:0.5;" width="4" x="365.0772" y="368.4869"/><text fill="#000000" font-family="sans-serif" font-size="14" font-style="italic" lengthAdjust="spacing" textLength="54.1133" x="264.942" y="390.482">&#171;Class&#187;</text><text fill="#000000" font-family="sans-serif" font-size="14" lengthAdjust="spacing" textLength="140.1572" x="221.92" y="406.7789">A2AProtocolHandler</text></g><!--entity MCPProtocolHandler--><g class="entity" data-entity="MCPProtocolHandler" data-source-line="7" data-uid="ent0006" id="entity_MCPProtocolHandler"><rect fill="#F1F1F1" height="62.5938" rx="2.5" ry="2.5" style="stroke:#181818;stroke-width:0.5;" width="182.3926" x="421.8" y="357.4869"/><rect fill="#F1F1F1" height="10" style="stroke:#181818;stroke-width:0.5;" width="15" x="584.1926" y="362.4869"/><rect fill="#F1F1F1" height="2" style="stroke:#181818;stroke-width:0.5;" width="4" x="582.1926" y="364.4869"/><rect fill="#F1F1F1" height="2" style="stroke:#181818;stroke-width:0.5;" width="4" x="582.1926" y="368.4869"/><text fill="#000000" font-family="sans-serif" font-size="14" font-style="italic" lengthAdjust="spacing" textLength="54.1133" x="480.9396" y="390.482">&#171;Class&#187;</text><text fill="#000000" font-family="sans-serif" font-size="14" lengthAdjust="spacing" textLength="142.3926" x="436.8" y="406.7789">MCPProtocolHandler</text></g><!--entity KafkaProtocolHandler--><g class="entity" data-entity="KafkaProtocolHandler" data-source-line="8" data-uid="ent0007" id="entity_KafkaProtocolHandler"><rect fill="#F1F1F1" height="62.5938" rx="2.5" ry="2.5" style="stroke:#181818;stroke-width:0.5;" width="191.4707" x="639.26" y="357.4869"/><rect fill="#F1F1F1" height="10" style="stroke:#181818;stroke-width:0.5;" width="15" x="810.7307" y="362.4869"/><rect fill="#F1F1F1" height="2" style="stroke:#181818;stroke-width:0.5;" width="4" x="808.7307" y="364.4869"/><rect fill="#F1F1F1" height="2" style="stroke:#181818;stroke-width:0.5;" width="4" x="808.7307" y="368.4869"/><text fill="#000000" font-family="sans-serif" font-size="14" font-style="italic" lengthAdjust="spacing" textLength="54.1133" x="702.9387" y="390.482">&#171;Class&#187;</text><text fill="#000000" font-family="sans-serif" font-size="14" lengthAdjust="spacing" textLength="151.4707" x="654.26" y="406.7789">KafkaProtocolHandler</text></g><!--entity ProtocolRouter--><g class="entity" data-entity="ProtocolRouter" data-source-line="9" data-uid="ent0008" id="entity_ProtocolRouter"><rect fill="#F1F1F1" height="62.5938" rx="2.5" ry="2.5" style="stroke:#181818;stroke-width:0.5;" width="143.9951" x="396" y="78.2969"/><rect fill="#F1F1F1" height="10" style="stroke:#181818;stroke-width:0.5;" width="15" x="519.9951" y="83.2969"/><rect fill="#F1F1F1" height="2" style="stroke:#181818;stroke-width:0.5;" width="4" x="517.9951" y="85.2969"/><rect fill="#F1F1F1" height="2" style="stroke:#181818;stroke-width:0.5;" width="4" x="517.9951" y="89.2969"/><text fill="#000000" font-family="sans-serif" font-size="14" font-style="italic" lengthAdjust="spacing" textLength="54.1133" x="435.9409" y="111.292">&#171;Class&#187;</text><text fill="#000000" font-family="sans-serif" font-size="14" lengthAdjust="spacing" textLength="103.9951" x="411" y="127.5889">ProtocolRouter</text></g><!--entity FitnessEvaluator--><g class="entity" data-entity="FitnessEvaluator" data-source-line="10" data-uid="ent0009" id="entity_FitnessEvaluator"><rect fill="#F1F1F1" height="62.5938" rx="2.5" ry="2.5" style="stroke:#181818;stroke-width:0.5;" width="156.3682" x="514.82" y="217.8869"/><rect fill="#F1F1F1" height="10" style="stroke:#181818;stroke-width:0.5;" width="15" x="651.1882" y="222.8869"/><rect fill="#F1F1F1" height="2" style="stroke:#181818;stroke-width:0.5;" width="4" x="649.1882" y="224.8869"/><rect fill="#F1F1F1" height="2" style="stroke:#181818;stroke-width:0.5;" width="4" x="649.1882" y="228.8869"/><text fill="#000000" font-family="sans-serif" font-size="14" font-style="italic" lengthAdjust="spacing" textLength="54.1133" x="560.9474" y="250.882">&#171;Class&#187;</text><text fill="#000000" font-family="sans-serif" font-size="14" lengthAdjust="spacing" textLength="116.3682" x="529.82" y="267.1789">FitnessEvaluator</text></g><!--link ProtocolRouter to ProtocolHandler--><g class="link" data-entity-1="ProtocolRouter" data-entity-2="ProtocolHandler" data-source-line="13" data-uid="lnk10" id="link_ProtocolRouter_ProtocolHandler"><path d="M453.8,141.1269 C443.19,163.9269 431.2913,189.517 420.6913,212.297" fill="none" id="ProtocolRouter-to-ProtocolHandler" style="stroke:#181818;stroke-width:1;"/><polygon fill="#181818" points="418.16,217.7369,425.5835,211.2646,420.2694,213.2036,418.3303,207.8895,418.16,217.7369" style="stroke:#181818;stroke-width:1;"/><text fill="#000000" font-family="sans-serif" font-size="13" lengthAdjust="spacing" textLength="29.7832" x="440.83" y="183.9538">uses</text></g><!--reverse link ProtocolHandler to A2AProtocolHandler--><g class="link" data-entity-1="ProtocolHandler" data-entity-2="A2AProtocolHandler" data-source-line="14" data-uid="lnk12" id="link_ProtocolHandler_A2AProtocolHandler"><path d="M369.2004,294.9362 C351.4704,317.7362 338.4,334.5469 320.68,357.3269" fill="none" id="ProtocolHandler-backto-A2AProtocolHandler" style="stroke:#181818;stroke-width:1;"/><polygon fill="none" points="380.25,280.7269,364.4639,291.253,373.9368,298.6194,380.25,280.7269" style="stroke:#181818;stroke-width:1;"/><text fill="#000000" font-family="sans-serif" font-size="13" lengthAdjust="spacing" textLength="76.9082" x="357.91" y="323.5538">implements</text></g><!--reverse link ProtocolHandler to MCPProtocolHandler--><g class="link" data-entity-1="ProtocolHandler" data-entity-2="MCPProtocolHandler" data-source-line="15" data-uid="lnk14" id="link_ProtocolHandler_MCPProtocolHandler"><path d="M439.3665,294.8367 C457.4265,317.6367 470.83,334.5469 488.88,357.3269" fill="none" id="ProtocolHandler-backto-MCPProtocolHandler" style="stroke:#181818;stroke-width:1;"/><polygon fill="none" points="428.19,280.7269,434.6632,298.5622,444.0697,291.1112,428.19,280.7269" style="stroke:#181818;stroke-width:1;"/><text fill="#000000" font-family="sans-serif" font-size="13" lengthAdjust="spacing" textLength="76.9082" x="466.03" y="323.5538">implements</text></g><!--reverse link ProtocolHandler to KafkaProtocolHandler--><g class="link" data-entity-1="ProtocolHandler" data-entity-2="KafkaProtocolHandler" data-source-line="16" data-uid="lnk16" id="link_ProtocolHandler_KafkaProtocolHandler"><path d="M495.8647,287.7249 C518.9147,297.1749 527.69,300.8069 551,310.4869 C587.8,325.7569 628.67,342.9069 662.52,357.1669" fill="none" id="ProtocolHandler-backto-KafkaProtocolHandler" style="stroke:#181818;stroke-width:1;"/><polygon fill="none" points="479.21,280.8969,493.5886,293.2765,498.1407,282.1734,479.21,280.8969" style="stroke:#181818;stroke-width:1;"/><text fill="#000000" font-family="sans-serif" font-size="13" lengthAdjust="spacing" textLength="76.9082" x="592.37" y="323.5538">implements</text></g><!--link ProtocolRouter to FitnessEvaluator--><g class="link" data-entity-1="ProtocolRouter" data-entity-2="FitnessEvaluator" data-source-line="17" data-uid="lnk17" id="link_ProtocolRouter_FitnessEvaluator"><path d="M495.74,141.1269 C516.46,163.9269 540.6049,190.5164 561.3049,213.2964" fill="none" id="ProtocolRouter-to-FitnessEvaluator" style="stroke:#181818;stroke-width:1;"/><polygon fill="#181818" points="565.34,217.7369,562.2477,208.386,561.9774,214.0364,556.3271,213.7661,565.34,217.7369" style="stroke:#181818;stroke-width:1;"/><text fill="#000000" font-family="sans-serif" font-size="13" lengthAdjust="spacing" textLength="29.7832" x="538.98" y="183.9538">uses</text></g><!--link ProtocolHandler to UnifiedMessage--><g class="link" data-entity-1="ProtocolHandler" data-entity-2="UnifiedMessage" data-source-line="18" data-uid="lnk18" id="link_ProtocolHandler_UnifiedMessage"><path d="M335.31,280.8269 C314.05,290.3269 290.55,300.8269 269,310.4869 C234.79,325.8069 202.2522,340.4263 170.6722,354.6263" fill="none" id="ProtocolHandler-to-UnifiedMessage" style="stroke:#181818;stroke-width:1;"/><polygon fill="#181818" points="165.2,357.0869,175.0488,357.0441,169.7602,355.0364,171.768,349.7478,165.2,357.0869" style="stroke:#181818;stroke-width:1;"/><text fill="#000000" font-family="sans-serif" font-size="13" lengthAdjust="spacing" textLength="65.0127" x="270" y="323.5538">processes</text></g><!--SRC=[ZPB1Yi8m443l-Oh1UouUHGgbA2iYYE1fsSEGJjrWcfHaeeVT_VSDb1ni8vfRcFS8RmXhDWH7xzWfP-3a8fC72Orh2MgllZMJukX9Y07L5Iy4YmczW1y1wNoUhUuqjGSA8N5Vi5xlR9ftgAYgHYIh7sXRGxx8rCkwW3K6GyZ8eJc-GlRONV4LbETZo6oyrMnJpEQ69YAx1-1FY9akMtUtiYfahY062gBO9kCWVykIxWT3FLbEQgdvJRMyYpVbfv7pxUJA-LFPcNwH5GpUgNHBsZy0]--></g></svg>