<svg xmlns="http://www.w3.org/2000/svg" xmlns:xlink="http://www.w3.org/1999/xlink" contentStyleType="text/css" data-diagram-type="DESCRIPTION" height="191px" preserveAspectRatio="none" style="width:2745px;height:191px;background:#FFFFFF;" version="1.1" viewBox="0 0 2745 191" width="2745px" zoomAndPan="magnify"><title>Multi-Environment Promotion Pipeline</title><defs/><g><g class="title" data-source-line="1"><text fill="#000000" font-family="sans-serif" font-size="14" font-weight="bold" lengthAdjust="spacing" textLength="302.1348" x="1214.4886" y="22.9951">Multi-Environment Promotion Pipeline</text></g><!--cluster Development--><g class="cluster" data-entity="Development" data-source-line="3" data-uid="ent0002" id="cluster_Development"><path d="M8.5,86.7269 L114.418,86.7269 A3.75,3.75 0 0 1 116.918,89.2269 L123.918,109.0237 L393.5,109.0237 A2.5,2.5 0 0 1 396,111.5237 L396,181.5269 A2.5,2.5 0 0 1 393.5,184.0269 L8.5,184.0269 A2.5,2.5 0 0 1 6,181.5269 L6,89.2269 A2.5,2.5 0 0 1 8.5,86.7269" fill="none" style="stroke:#000000;stroke-width:1.5;"/><line style="stroke:#000000;stroke-width:1.5;" x1="6" x2="123.918" y1="109.0237" y2="109.0237"/><text fill="#000000" font-family="sans-serif" font-size="14" font-weight="bold" lengthAdjust="spacing" textLength="104.918" x="10" y="101.722">Development</text></g><!--cluster Staging--><g class="cluster" data-entity="Staging" data-source-line="8" data-uid="ent0005" id="cluster_Staging"><path d="M526.5,86.7269 L588.5313,86.7269 A3.75,3.75 0 0 1 591.0313,89.2269 L598.0313,109.0237 L1388.5,109.0237 A2.5,2.5 0 0 1 1391,111.5237 L1391,181.5269 A2.5,2.5 0 0 1 1388.5,184.0269 L526.5,184.0269 A2.5,2.5 0 0 1 524,181.5269 L524,89.2269 A2.5,2.5 0 0 1 526.5,86.7269" fill="none" style="stroke:#000000;stroke-width:1.5;"/><line style="stroke:#000000;stroke-width:1.5;" x1="524" x2="598.0313" y1="109.0237" y2="109.0237"/><text fill="#000000" font-family="sans-serif" font-size="14" font-weight="bold" lengthAdjust="spacing" textLength="61.0313" x="528" y="101.722">Staging</text></g><!--cluster Production--><g class="cluster" data-entity="Production" data-source-line="14" data-uid="ent0009" id="cluster_Production"><path d="M1491.5,86.7269 L1578.6465,86.7269 A3.75,3.75 0 0 1 1581.1465,89.2269 L1588.1465,109.0237 L2295.5,109.0237 A2.5,2.5 0 0 1 2298,111.5237 L2298,181.5269 A2.5,2.5 0 0 1 2295.5,184.0269 L1491.5,184.0269 A2.5,2.5 0 0 1 1489,181.5269 L1489,89.2269 A2.5,2.5 0 0 1 1491.5,86.7269" fill="none" style="stroke:#000000;stroke-width:1.5;"/><line style="stroke:#000000;stroke-width:1.5;" x1="1489" x2="1588.1465" y1="109.0237" y2="109.0237"/><text fill="#000000" font-family="sans-serif" font-size="14" font-weight="bold" lengthAdjust="spacing" textLength="86.1465" x="1493" y="101.722">Production</text></g><!--entity DevCluster--><g class="entity" data-entity="DevCluster" data-source-line="4" data-uid="ent0003" id="entity_DevCluster"><rect fill="#F1F1F1" height="46.2969" rx="2.5" ry="2.5" style="stroke:#181818;stroke-width:0.5;" width="121.8193" x="22.09" y="121.7269"/><rect fill="#F1F1F1" height="10" style="stroke:#181818;stroke-width:0.5;" width="15" x="123.9093" y="126.7269"/><rect fill="#F1F1F1" height="2" style="stroke:#181818;stroke-width:0.5;" width="4" x="121.9093" y="128.7269"/><rect fill="#F1F1F1" height="2" style="stroke:#181818;stroke-width:0.5;" width="4" x="121.9093" y="132.7269"/><text fill="#000000" font-family="sans-serif" font-size="14" lengthAdjust="spacing" textLength="81.8193" x="37.09" y="154.722">Dev Cluster</text></g><!--entity DevTests--><g class="entity" data-entity="DevTests" data-source-line="5" data-uid="ent0004" id="entity_DevTests"><rect fill="#F1F1F1" height="46.2969" rx="2.5" ry="2.5" style="stroke:#181818;stroke-width:0.5;" width="109.3711" x="270.31" y="121.7269"/><rect fill="#F1F1F1" height="10" style="stroke:#181818;stroke-width:0.5;" width="15" x="359.6811" y="126.7269"/><rect fill="#F1F1F1" height="2" style="stroke:#181818;stroke-width:0.5;" width="4" x="357.6811" y="128.7269"/><rect fill="#F1F1F1" height="2" style="stroke:#181818;stroke-width:0.5;" width="4" x="357.6811" y="132.7269"/><text fill="#000000" font-family="sans-serif" font-size="14" lengthAdjust="spacing" textLength="69.3711" x="285.31" y="154.722">Dev Tests</text></g><!--entity StagingCluster--><g class="entity" data-entity="StagingCluster" data-source-line="9" data-uid="ent0006" id="entity_StagingCluster"><rect fill="#F1F1F1" height="46.2969" rx="2.5" ry="2.5" style="stroke:#181818;stroke-width:0.5;" width="147.6318" x="540.18" y="121.7269"/><rect fill="#F1F1F1" height="10" style="stroke:#181818;stroke-width:0.5;" width="15" x="667.8118" y="126.7269"/><rect fill="#F1F1F1" height="2" style="stroke:#181818;stroke-width:0.5;" width="4" x="665.8118" y="128.7269"/><rect fill="#F1F1F1" height="2" style="stroke:#181818;stroke-width:0.5;" width="4" x="665.8118" y="132.7269"/><text fill="#000000" font-family="sans-serif" font-size="14" lengthAdjust="spacing" textLength="107.6318" x="555.18" y="154.722">Staging Cluster</text></g><!--entity IntegrationTests--><g class="entity" data-entity="IntegrationTests" data-source-line="10" data-uid="ent0007" id="entity_IntegrationTests"><rect fill="#F1F1F1" height="46.2969" rx="2.5" ry="2.5" style="stroke:#181818;stroke-width:0.5;" width="158.8359" x="860.58" y="121.7269"/><rect fill="#F1F1F1" height="10" style="stroke:#181818;stroke-width:0.5;" width="15" x="999.4159" y="126.7269"/><rect fill="#F1F1F1" height="2" style="stroke:#181818;stroke-width:0.5;" width="4" x="997.4159" y="128.7269"/><rect fill="#F1F1F1" height="2" style="stroke:#181818;stroke-width:0.5;" width="4" x="997.4159" y="132.7269"/><text fill="#000000" font-family="sans-serif" font-size="14" lengthAdjust="spacing" textLength="118.8359" x="875.58" y="154.722">Integration Tests</text></g><!--entity PerfTests--><g class="entity" data-entity="PerfTests" data-source-line="11" data-uid="ent0008" id="entity_PerfTests"><rect fill="#F1F1F1" height="46.2969" rx="2.5" ry="2.5" style="stroke:#181818;stroke-width:0.5;" width="171.1543" x="1203.42" y="121.7269"/><rect fill="#F1F1F1" height="10" style="stroke:#181818;stroke-width:0.5;" width="15" x="1354.5743" y="126.7269"/><rect fill="#F1F1F1" height="2" style="stroke:#181818;stroke-width:0.5;" width="4" x="1352.5743" y="128.7269"/><rect fill="#F1F1F1" height="2" style="stroke:#181818;stroke-width:0.5;" width="4" x="1352.5743" y="132.7269"/><text fill="#000000" font-family="sans-serif" font-size="14" lengthAdjust="spacing" textLength="131.1543" x="1218.42" y="154.722">Performance Tests</text></g><!--entity ProdCluster--><g class="entity" data-entity="ProdCluster" data-source-line="15" data-uid="ent0010" id="entity_ProdCluster"><rect fill="#F1F1F1" height="46.2969" rx="2.5" ry="2.5" style="stroke:#181818;stroke-width:0.5;" width="125.791" x="2156.1" y="121.7269"/><rect fill="#F1F1F1" height="10" style="stroke:#181818;stroke-width:0.5;" width="15" x="2261.891" y="126.7269"/><rect fill="#F1F1F1" height="2" style="stroke:#181818;stroke-width:0.5;" width="4" x="2259.891" y="128.7269"/><rect fill="#F1F1F1" height="2" style="stroke:#181818;stroke-width:0.5;" width="4" x="2259.891" y="132.7269"/><text fill="#000000" font-family="sans-serif" font-size="14" lengthAdjust="spacing" textLength="85.791" x="2171.1" y="154.722">Prod Cluster</text></g><!--entity Canary--><g class="entity" data-entity="Canary" data-source-line="16" data-uid="ent0011" id="entity_Canary"><rect fill="#F1F1F1" height="46.2969" rx="2.5" ry="2.5" style="stroke:#181818;stroke-width:0.5;" width="179.9316" x="1505.03" y="121.7269"/><rect fill="#F1F1F1" height="10" style="stroke:#181818;stroke-width:0.5;" width="15" x="1664.9616" y="126.7269"/><rect fill="#F1F1F1" height="2" style="stroke:#181818;stroke-width:0.5;" width="4" x="1662.9616" y="128.7269"/><rect fill="#F1F1F1" height="2" style="stroke:#181818;stroke-width:0.5;" width="4" x="1662.9616" y="132.7269"/><text fill="#000000" font-family="sans-serif" font-size="14" lengthAdjust="spacing" textLength="139.9316" x="1520.03" y="154.722">Canary Deployment</text></g><!--entity BlueGreen--><g class="entity" data-entity="BlueGreen" data-source-line="17" data-uid="ent0012" id="entity_BlueGreen"><rect fill="#F1F1F1" height="46.2969" rx="2.5" ry="2.5" style="stroke:#181818;stroke-width:0.5;" width="208.8203" x="1825.59" y="121.7269"/><rect fill="#F1F1F1" height="10" style="stroke:#181818;stroke-width:0.5;" width="15" x="2014.4103" y="126.7269"/><rect fill="#F1F1F1" height="2" style="stroke:#181818;stroke-width:0.5;" width="4" x="2012.4103" y="128.7269"/><rect fill="#F1F1F1" height="2" style="stroke:#181818;stroke-width:0.5;" width="4" x="2012.4103" y="132.7269"/><text fill="#000000" font-family="sans-serif" font-size="14" lengthAdjust="spacing" textLength="168.8203" x="1840.59" y="154.722">Blue-Green Deployment</text></g><g class="entity" data-entity="GMN20" data-source-line="28" data-uid="ent0021" id="entity_GMN20"><path d="M2317,132.3169 L2317,157.4497 L2501.0078,157.4497 L2501.0078,142.3169 L2491.0078,132.3169 L2317,132.3169" fill="#FEFFDD" style="stroke:#181818;stroke-width:0.5;"/><path d="M2491.0078,132.3169 L2491.0078,142.3169 L2501.0078,142.3169 L2491.0078,132.3169" fill="#FEFFDD" style="stroke:#181818;stroke-width:1;"/><text fill="#000000" font-family="sans-serif" font-size="13" lengthAdjust="spacing" textLength="163.0078" x="2323" y="149.3838">5% traffic to new version</text></g><g class="entity" data-entity="GMN23" data-source-line="29" data-uid="ent0024" id="entity_GMN23"><path d="M2535.88,132.3169 L2535.88,157.4497 L2738.1119,157.4497 L2738.1119,142.3169 L2728.1119,132.3169 L2535.88,132.3169" fill="#FEFFDD" style="stroke:#181818;stroke-width:0.5;"/><path d="M2728.1119,132.3169 L2728.1119,142.3169 L2738.1119,142.3169 L2728.1119,132.3169" fill="#FEFFDD" style="stroke:#181818;stroke-width:1;"/><text fill="#000000" font-family="sans-serif" font-size="13" lengthAdjust="spacing" textLength="181.2319" x="2541.88" y="149.3838">Zero-downtime deployment</text></g><!--link DevCluster to DevTests--><g class="link" data-entity-1="DevCluster" data-entity-2="DevTests" data-source-line="20" data-uid="lnk13" id="link_DevCluster_DevTests"><path d="M144.38,144.8769 C183.03,144.8769 226.49,144.8769 263.89,144.8769" fill="none" id="DevCluster-to-DevTests" style="stroke:#181818;stroke-width:1;"/><polygon fill="#181818" points="269.89,144.8769,260.89,140.8769,264.89,144.8769,260.89,148.8769,269.89,144.8769" style="stroke:#181818;stroke-width:1;"/><text fill="#000000" font-family="sans-serif" font-size="13" lengthAdjust="spacing" textLength="90.7017" x="162.11" y="137.9438">Run unit tests</text></g><!--link DevTests to StagingCluster--><g class="link" data-entity-1="DevTests" data-entity-2="StagingCluster" data-source-line="21" data-uid="lnk14" id="link_DevTests_StagingCluster"><path d="M380.04,144.8769 C425.32,144.8769 483.93,144.8769 533.78,144.8769" fill="none" id="DevTests-to-StagingCluster" style="stroke:#181818;stroke-width:1;"/><polygon fill="#181818" points="539.78,144.8769,530.78,140.8769,534.78,144.8769,530.78,148.8769,539.78,144.8769" style="stroke:#181818;stroke-width:1;"/><text fill="#000000" font-family="sans-serif" font-size="13" lengthAdjust="spacing" textLength="124.3569" x="397.93" y="160.9438">Promote to staging</text></g><!--link StagingCluster to IntegrationTests--><g class="link" data-entity-1="StagingCluster" data-entity-2="IntegrationTests" data-source-line="22" data-uid="lnk15" id="link_StagingCluster_IntegrationTests"><path d="M687.97,144.8769 C739.35,144.8769 801.76,144.8769 854.33,144.8769" fill="none" id="StagingCluster-to-IntegrationTests" style="stroke:#181818;stroke-width:1;"/><polygon fill="#181818" points="860.33,144.8769,851.33,140.8769,855.33,144.8769,851.33,148.8769,860.33,144.8769" style="stroke:#181818;stroke-width:1;"/><text fill="#000000" font-family="sans-serif" font-size="13" lengthAdjust="spacing" textLength="136.9253" x="706.2" y="137.9438">Run integration tests</text></g><!--link IntegrationTests to PerfTests--><g class="link" data-entity-1="IntegrationTests" data-entity-2="PerfTests" data-source-line="23" data-uid="lnk16" id="link_IntegrationTests_PerfTests"><path d="M1019.63,144.8769 C1074.35,144.8769 1140.95,144.8769 1197,144.8769" fill="none" id="IntegrationTests-to-PerfTests" style="stroke:#181818;stroke-width:1;"/><polygon fill="#181818" points="1203,144.8769,1194,140.8769,1198,144.8769,1194,148.8769,1203,144.8769" style="stroke:#181818;stroke-width:1;"/><text fill="#000000" font-family="sans-serif" font-size="13" lengthAdjust="spacing" textLength="148.9985" x="1037.42" y="137.9438">Run performance tests</text></g><!--link PerfTests to Canary--><g class="link" data-entity-1="PerfTests" data-entity-2="Canary" data-source-line="24" data-uid="lnk17" id="link_PerfTests_Canary"><path d="M1375.05,144.8769 C1415.53,144.8769 1457.8,144.8769 1498.79,144.8769" fill="none" id="PerfTests-to-Canary" style="stroke:#181818;stroke-width:1;"/><polygon fill="#181818" points="1504.79,144.8769,1495.79,140.8769,1499.79,144.8769,1495.79,148.8769,1504.79,144.8769" style="stroke:#181818;stroke-width:1;"/><text fill="#000000" font-family="sans-serif" font-size="13" lengthAdjust="spacing" textLength="94.0088" x="1392.81" y="160.9438">Deploy canary</text></g><!--link Canary to BlueGreen--><g class="link" data-entity-1="Canary" data-entity-2="BlueGreen" data-source-line="25" data-uid="lnk18" id="link_Canary_BlueGreen"><path d="M1685.21,144.8769 C1728.43,144.8769 1774.44,144.8769 1819.38,144.8769" fill="none" id="Canary-to-BlueGreen" style="stroke:#181818;stroke-width:1;"/><polygon fill="#181818" points="1825.38,144.8769,1816.38,140.8769,1820.38,144.8769,1816.38,148.8769,1825.38,144.8769" style="stroke:#181818;stroke-width:1;"/><text fill="#000000" font-family="sans-serif" font-size="13" lengthAdjust="spacing" textLength="104.8315" x="1703.28" y="137.9438">Full deployment</text></g><!--link BlueGreen to ProdCluster--><g class="link" data-entity-1="BlueGreen" data-entity-2="ProdCluster" data-source-line="26" data-uid="lnk19" id="link_BlueGreen_ProdCluster"><path d="M2034.74,144.8769 C2075.29,144.8769 2114.36,144.8769 2149.78,144.8769" fill="none" id="BlueGreen-to-ProdCluster" style="stroke:#181818;stroke-width:1;"/><polygon fill="#181818" points="2155.78,144.8769,2146.78,140.8769,2150.78,144.8769,2146.78,148.8769,2155.78,144.8769" style="stroke:#181818;stroke-width:1;"/><text fill="#000000" font-family="sans-serif" font-size="13" lengthAdjust="spacing" textLength="85.4331" x="2052.76" y="137.9438">Switch traffic</text></g><!--link Canary to GMN20--><g class="link" data-entity-1="Canary" data-entity-2="GMN20" data-source-line="28" data-uid="lnk22" id="link_Canary_GMN20"><path d="M1645.84,121.3469 C1691.68,101.5169 1761.52,74.6669 1825.5,63.7269 C1875.33,55.2169 2231.94,49.6769 2280.5,63.7269 C2326.88,77.1469 2372.62,112.8469 2394.93,132.1169" fill="none" id="Canary-GMN20" style="stroke:#181818;stroke-width:1;stroke-dasharray:7,7;"/></g><!--link BlueGreen to GMN23--><g class="link" data-entity-1="BlueGreen" data-entity-2="GMN23" data-source-line="29" data-uid="lnk25" id="link_BlueGreen_GMN23"><path d="M1979.91,121.3569 C2024.93,101.5169 2093.53,74.6669 2156.5,63.7269 C2232.04,50.6069 2427.61,43.2969 2501.5,63.7269 C2549.86,77.1069 2598.32,112.8269 2622.03,132.1069" fill="none" id="BlueGreen-GMN23" style="stroke:#181818;stroke-width:1;stroke-dasharray:7,7;"/></g><!--SRC=[TLAxRiCm3Dpr5KI0ZXwxUEZGz84E1OocKpV1eHsXCcN8T8AWwBzNj1I_cdWJxyvtF8aDMuJtthB9dkbelAC6YQ7mhd5i745XMhI6KAbMbz-wHjWyuH6jQuMuWHy5uIjTqpeIfQ2mjNt7w3UWEmZdTBp6_CIEkmjlEAZVcTMETMselcAJa8LLcjsmUoF6skjXgybsDetsArM1ldA-qLJYJ2NJ_sb3Q_k-b5zT2IpW8gqCRaJTQjB-72ffhJl7deCWJjVSHzjZzkeHQSqNP00av7GDa3sCPUVmqHFqP1XuMES226bPPvuU1G8xw2AabXGHhVkC3cRMVJHQyqGxjXf5xQpwA1e9mevrv6bhA6CxgRg0Z-ldyD9R2_kn7JL2W-jq3pdiJeRB0x3NLMLAfKWMzgO-CBWgMK8EztSNYhH1U88Z-YxiiX9CHZbyeNVPtfs8JOFpD7y0]--></g></svg>