<svg xmlns="http://www.w3.org/2000/svg" xmlns:xlink="http://www.w3.org/1999/xlink" contentStyleType="text/css" data-diagram-type="SEQUENCE" height="538px" preserveAspectRatio="none" style="width:954px;height:538px;background:#FFFFFF;" version="1.1" viewBox="0 0 954 538" width="954px" zoomAndPan="magnify"><title>Automated Failover Sequence</title><defs/><g><text fill="#000000" font-family="sans-serif" font-size="14" font-weight="bold" lengthAdjust="spacing" textLength="237.6787" x="357.9216" y="27.9951">Automated Failover Sequence</text><g><title>Health Monitor</title><rect fill="#000000" fill-opacity="0.00000" height="429.7266" width="8" x="59.8198" y="73.5938"/><line style="stroke:#181818;stroke-width:0.5;stroke-dasharray:5,5;" x1="63" x2="63" y1="73.5938" y2="503.3203"/></g><g><title>Failover Controller</title><rect fill="#000000" fill-opacity="0.00000" height="429.7266" width="8" x="241.7368" y="73.5938"/><line style="stroke:#181818;stroke-width:0.5;stroke-dasharray:5,5;" x1="245.1099" x2="245.1099" y1="73.5938" y2="503.3203"/></g><g><title>Primary System</title><rect fill="#000000" fill-opacity="0.00000" height="429.7266" width="8" x="385.8647" y="73.5938"/><line style="stroke:#181818;stroke-width:0.5;stroke-dasharray:5,5;" x1="389.3638" x2="389.3638" y1="73.5938" y2="503.3203"/></g><g><title>Secondary System</title><rect fill="#000000" fill-opacity="0.00000" height="429.7266" width="8" x="530.7651" y="73.5938"/><line style="stroke:#181818;stroke-width:0.5;stroke-dasharray:5,5;" x1="534.3657" x2="534.3657" y1="73.5938" y2="503.3203"/></g><g><title>Load Balancer</title><rect fill="#000000" fill-opacity="0.00000" height="429.7266" width="8" x="670.1011" y="73.5938"/><line style="stroke:#181818;stroke-width:0.5;stroke-dasharray:5,5;" x1="673.1646" x2="673.1646" y1="73.5938" y2="503.3203"/></g><g><title>DNS Service</title><rect fill="#000000" fill-opacity="0.00000" height="429.7266" width="8" x="811.105" y="73.5938"/><line style="stroke:#181818;stroke-width:0.5;stroke-dasharray:5,5;" x1="814.9395" x2="814.9395" y1="73.5938" y2="503.3203"/></g><g class="participant participant-head" data-participant="Monitor"><rect fill="#E2E2F0" height="30.2969" rx="2.5" ry="2.5" style="stroke:#181818;stroke-width:0.5;" width="117.6396" x="5" y="42.2969"/><text fill="#000000" font-family="sans-serif" font-size="14" lengthAdjust="spacing" textLength="103.6396" x="12" y="62.292">Health Monitor</text></g><g class="participant participant-tail" data-participant="Monitor"><rect fill="#E2E2F0" height="30.2969" rx="2.5" ry="2.5" style="stroke:#181818;stroke-width:0.5;" width="117.6396" x="5" y="502.3203"/><text fill="#000000" font-family="sans-serif" font-size="14" lengthAdjust="spacing" textLength="103.6396" x="12" y="522.3154">Health Monitor</text></g><g class="participant participant-head" data-participant="Controller"><rect fill="#E2E2F0" height="30.2969" rx="2.5" ry="2.5" style="stroke:#181818;stroke-width:0.5;" width="143.2539" x="174.1099" y="42.2969"/><text fill="#000000" font-family="sans-serif" font-size="14" lengthAdjust="spacing" textLength="129.2539" x="181.1099" y="62.292">Failover Controller</text></g><g class="participant participant-tail" data-participant="Controller"><rect fill="#E2E2F0" height="30.2969" rx="2.5" ry="2.5" style="stroke:#181818;stroke-width:0.5;" width="143.2539" x="174.1099" y="502.3203"/><text fill="#000000" font-family="sans-serif" font-size="14" lengthAdjust="spacing" textLength="129.2539" x="181.1099" y="522.3154">Failover Controller</text></g><g class="participant participant-head" data-participant="Primary"><rect fill="#E2E2F0" height="30.2969" rx="2.5" ry="2.5" style="stroke:#181818;stroke-width:0.5;" width="125.002" x="327.3638" y="42.2969"/><text fill="#000000" font-family="sans-serif" font-size="14" lengthAdjust="spacing" textLength="111.002" x="334.3638" y="62.292">Primary System</text></g><g class="participant participant-tail" data-participant="Primary"><rect fill="#E2E2F0" height="30.2969" rx="2.5" ry="2.5" style="stroke:#181818;stroke-width:0.5;" width="125.002" x="327.3638" y="502.3203"/><text fill="#000000" font-family="sans-serif" font-size="14" lengthAdjust="spacing" textLength="111.002" x="334.3638" y="522.3154">Primary System</text></g><g class="participant participant-head" data-participant="Secondary"><rect fill="#E2E2F0" height="30.2969" rx="2.5" ry="2.5" style="stroke:#181818;stroke-width:0.5;" width="144.7988" x="462.3657" y="42.2969"/><text fill="#000000" font-family="sans-serif" font-size="14" lengthAdjust="spacing" textLength="130.7988" x="469.3657" y="62.292">Secondary System</text></g><g class="participant participant-tail" data-participant="Secondary"><rect fill="#E2E2F0" height="30.2969" rx="2.5" ry="2.5" style="stroke:#181818;stroke-width:0.5;" width="144.7988" x="462.3657" y="502.3203"/><text fill="#000000" font-family="sans-serif" font-size="14" lengthAdjust="spacing" textLength="130.7988" x="469.3657" y="522.3154">Secondary System</text></g><g class="participant participant-head" data-participant="LB"><rect fill="#E2E2F0" height="30.2969" rx="2.5" ry="2.5" style="stroke:#181818;stroke-width:0.5;" width="113.873" x="617.1646" y="42.2969"/><text fill="#000000" font-family="sans-serif" font-size="14" lengthAdjust="spacing" textLength="99.873" x="624.1646" y="62.292">Load Balancer</text></g><g class="participant participant-tail" data-participant="LB"><rect fill="#E2E2F0" height="30.2969" rx="2.5" ry="2.5" style="stroke:#181818;stroke-width:0.5;" width="113.873" x="617.1646" y="502.3203"/><text fill="#000000" font-family="sans-serif" font-size="14" lengthAdjust="spacing" textLength="99.873" x="624.1646" y="522.3154">Load Balancer</text></g><g class="participant participant-head" data-participant="DNS"><rect fill="#E2E2F0" height="30.2969" rx="2.5" ry="2.5" style="stroke:#181818;stroke-width:0.5;" width="100.3311" x="764.9395" y="42.2969"/><text fill="#000000" font-family="sans-serif" font-size="14" lengthAdjust="spacing" textLength="86.3311" x="771.9395" y="62.292">DNS Service</text></g><g class="participant participant-tail" data-participant="DNS"><rect fill="#E2E2F0" height="30.2969" rx="2.5" ry="2.5" style="stroke:#181818;stroke-width:0.5;" width="100.3311" x="764.9395" y="502.3203"/><text fill="#000000" font-family="sans-serif" font-size="14" lengthAdjust="spacing" textLength="86.3311" x="771.9395" y="522.3154">DNS Service</text></g><g class="message" data-participant-1="Monitor" data-participant-2="Primary"><polygon fill="#181818" points="377.8647,100.7266,387.8647,104.7266,377.8647,108.7266,381.8647,104.7266" style="stroke:#181818;stroke-width:1;"/><line style="stroke:#181818;stroke-width:1;" x1="63.8198" x2="383.8647" y1="104.7266" y2="104.7266"/><text fill="#000000" font-family="sans-serif" font-size="13" lengthAdjust="spacing" textLength="84.8809" x="70.8198" y="99.6606">Health check</text></g><g class="message" data-participant-1="Primary" data-participant-2="Monitor"><polygon fill="#181818" points="74.8198,129.8594,64.8198,133.8594,74.8198,137.8594,70.8198,133.8594" style="stroke:#181818;stroke-width:1;"/><line style="stroke:#181818;stroke-width:1;" x1="68.8198" x2="388.8647" y1="133.8594" y2="133.8594"/><text fill="#000000" font-family="sans-serif" font-size="13" lengthAdjust="spacing" textLength="146.0786" x="80.8198" y="128.7935">No response (timeout)</text></g><g class="message" data-participant-1="Monitor" data-participant-2="Controller"><polygon fill="#181818" points="233.7368,158.9922,243.7368,162.9922,233.7368,166.9922,237.7368,162.9922" style="stroke:#181818;stroke-width:1;"/><line style="stroke:#181818;stroke-width:1;" x1="63.8198" x2="239.7368" y1="162.9922" y2="162.9922"/><text fill="#000000" font-family="sans-serif" font-size="13" lengthAdjust="spacing" textLength="157.917" x="70.8198" y="157.9263">Primary failure detected</text></g><g class="message" data-participant-1="Controller" data-participant-2="Secondary"><polygon fill="#181818" points="522.7651,188.125,532.7651,192.125,522.7651,196.125,526.7651,192.125" style="stroke:#181818;stroke-width:1;"/><line style="stroke:#181818;stroke-width:1;" x1="245.7368" x2="528.7651" y1="192.125" y2="192.125"/><text fill="#000000" font-family="sans-serif" font-size="13" lengthAdjust="spacing" textLength="125.0044" x="252.7368" y="187.0591">Activate secondary</text></g><g class="message" data-participant-1="Secondary" data-participant-2="Secondary"><line style="stroke:#181818;stroke-width:1;" x1="534.7651" x2="576.7651" y1="221.2578" y2="221.2578"/><line style="stroke:#181818;stroke-width:1;" x1="576.7651" x2="576.7651" y1="221.2578" y2="234.2578"/><line style="stroke:#181818;stroke-width:1;" x1="535.7651" x2="576.7651" y1="234.2578" y2="234.2578"/><polygon fill="#181818" points="545.7651,230.2578,535.7651,234.2578,545.7651,238.2578,541.7651,234.2578" style="stroke:#181818;stroke-width:1;"/><text fill="#000000" font-family="sans-serif" font-size="13" lengthAdjust="spacing" textLength="89.229" x="541.7651" y="216.1919">Start services</text></g><g class="message" data-participant-1="Secondary" data-participant-2="Controller"><polygon fill="#181818" points="256.7368,259.3906,246.7368,263.3906,256.7368,267.3906,252.7368,263.3906" style="stroke:#181818;stroke-width:1;"/><line style="stroke:#181818;stroke-width:1;" x1="250.7368" x2="533.7651" y1="263.3906" y2="263.3906"/><text fill="#000000" font-family="sans-serif" font-size="13" lengthAdjust="spacing" textLength="96.2051" x="262.7368" y="258.3247">Services ready</text></g><g class="message" data-participant-1="Controller" data-participant-2="LB"><polygon fill="#181818" points="662.1011,288.5234,672.1011,292.5234,662.1011,296.5234,666.1011,292.5234" style="stroke:#181818;stroke-width:1;"/><line style="stroke:#181818;stroke-width:1;" x1="245.7368" x2="668.1011" y1="292.5234" y2="292.5234"/><text fill="#000000" font-family="sans-serif" font-size="13" lengthAdjust="spacing" textLength="106.5962" x="252.7368" y="287.4575">Update backend</text></g><g class="message" data-participant-1="LB" data-participant-2="LB"><line style="stroke:#181818;stroke-width:1;" x1="674.1011" x2="716.1011" y1="321.6563" y2="321.6563"/><line style="stroke:#181818;stroke-width:1;" x1="716.1011" x2="716.1011" y1="321.6563" y2="334.6563"/><line style="stroke:#181818;stroke-width:1;" x1="675.1011" x2="716.1011" y1="334.6563" y2="334.6563"/><polygon fill="#181818" points="685.1011,330.6563,675.1011,334.6563,685.1011,338.6563,681.1011,334.6563" style="stroke:#181818;stroke-width:1;"/><text fill="#000000" font-family="sans-serif" font-size="13" lengthAdjust="spacing" textLength="127.0039" x="681.1011" y="316.5903">Route to secondary</text></g><g class="message" data-participant-1="Controller" data-participant-2="DNS"><polygon fill="#181818" points="803.105,359.7891,813.105,363.7891,803.105,367.7891,807.105,363.7891" style="stroke:#181818;stroke-width:1;"/><line style="stroke:#181818;stroke-width:1;" x1="245.7368" x2="809.105" y1="363.7891" y2="363.7891"/><text fill="#000000" font-family="sans-serif" font-size="13" lengthAdjust="spacing" textLength="132.1455" x="252.7368" y="358.7231">Update DNS records</text></g><g class="message" data-participant-1="DNS" data-participant-2="DNS"><line style="stroke:#181818;stroke-width:1;" x1="815.105" x2="857.105" y1="392.9219" y2="392.9219"/><line style="stroke:#181818;stroke-width:1;" x1="857.105" x2="857.105" y1="392.9219" y2="405.9219"/><line style="stroke:#181818;stroke-width:1;" x1="816.105" x2="857.105" y1="405.9219" y2="405.9219"/><polygon fill="#181818" points="826.105,401.9219,816.105,405.9219,826.105,409.9219,822.105,405.9219" style="stroke:#181818;stroke-width:1;"/><text fill="#000000" font-family="sans-serif" font-size="13" lengthAdjust="spacing" textLength="125.417" x="822.105" y="387.856">Propagate changes</text></g><g class="message" data-participant-1="Controller" data-participant-2="Monitor"><polygon fill="#181818" points="74.8198,431.0547,64.8198,435.0547,74.8198,439.0547,70.8198,435.0547" style="stroke:#181818;stroke-width:1;"/><line style="stroke:#181818;stroke-width:1;" x1="68.8198" x2="244.7368" y1="435.0547" y2="435.0547"/><text fill="#000000" font-family="sans-serif" font-size="13" lengthAdjust="spacing" textLength="116.5112" x="80.8198" y="429.9888">Failover complete</text></g><path d="M250,448.0547 L250,488.0547 L380,488.0547 L380,458.0547 L370,448.0547 L250,448.0547" fill="#FEFFDD" style="stroke:#181818;stroke-width:0.5;"/><path d="M370,448.0547 L370,458.0547 L380,458.0547 L370,448.0547" fill="#FEFFDD" style="stroke:#181818;stroke-width:0.5;"/><text fill="#000000" font-family="sans-serif" font-size="13" lengthAdjust="spacing" textLength="109.5288" x="256" y="465.1216">RTO: 30 seconds</text><text fill="#000000" font-family="sans-serif" font-size="13" lengthAdjust="spacing" textLength="100.6421" x="256" y="480.2544">RPO: 5 minutes</text><!--SRC=[NP9FJyCm3CNl-HGM9pWW8I4kFI2j8CIXZ6c56vUGU6kqDYw9EsdV7dVhl-oMn3_RxxsM7TS8guwfqOmMthIhwOW1Ilphq1jKgjM1dN6jzWmtxwXhhk23l6CADw3ZU4wvQSuBUGvKrtY1vslARu9hT3X1UOgCpHaTdbAkH4FUNf7JOyeMf2takjPYuxAzo5FYTLrASpWwW-Uwt9KQ_C3zyoWXWy6sgT0SrAXLW87DO4qGCBRa8y8jkmQfuxlbgDbuDew5dOJK1GIBZ4RILpFKjqosCbWPTaVvG10dgtCIALgoE1Jkx2gcs5B4u3kARcrFLwkBF8FlrlORVxKveBUgoCV2LhmXC2t4fDqIuzJUHno42pQg_ZoMDu5QlUy9Ksc_5wNfZ2dPwKyorBIr9AMK9saBRbynq6vX2aJRrsS6Zm-3jFZZjnjvU8B6UH4TrJy0]--></g></svg>