<svg xmlns="http://www.w3.org/2000/svg" xmlns:xlink="http://www.w3.org/1999/xlink" contentStyleType="text/css" data-diagram-type="DESCRIPTION" height="212px" preserveAspectRatio="none" style="width:2443px;height:212px;background:#FFFFFF;" version="1.1" viewBox="0 0 2443 212" width="2443px" zoomAndPan="magnify"><title>Auto-scaling Architecture</title><defs/><g><g class="title" data-source-line="1"><text fill="#000000" font-family="sans-serif" font-size="14" font-weight="bold" lengthAdjust="spacing" textLength="201.8105" x="1113.5947" y="22.9951">Auto-scaling Architecture</text></g><!--cluster Metrics Collection--><g class="cluster" data-entity="Metrics Collection" data-source-line="3" data-uid="ent0002" id="cluster_Metrics Collection"><path d="M8.5,89.4869 L151.1885,89.4869 A3.75,3.75 0 0 1 153.6885,91.9869 L160.6885,111.7838 L667.5,111.7838 A2.5,2.5 0 0 1 670,114.2838 L670,203.2869 A2.5,2.5 0 0 1 667.5,205.7869 L8.5,205.7869 A2.5,2.5 0 0 1 6,203.2869 L6,91.9869 A2.5,2.5 0 0 1 8.5,89.4869" fill="none" style="stroke:#000000;stroke-width:1.5;"/><line style="stroke:#000000;stroke-width:1.5;" x1="6" x2="160.6885" y1="111.7838" y2="111.7838"/><text fill="#000000" font-family="sans-serif" font-size="14" font-weight="bold" lengthAdjust="spacing" textLength="141.6885" x="10" y="104.482">Metrics Collection</text></g><!--cluster Scaling Decision--><g class="cluster" data-entity="Scaling Decision" data-source-line="9" data-uid="ent0006" id="cluster_Scaling Decision"><path d="M885.5,89.4869 L1015.7197,89.4869 A3.75,3.75 0 0 1 1018.2197,91.9869 L1025.2197,111.7838 L1598.5,111.7838 A2.5,2.5 0 0 1 1601,114.2838 L1601,203.2869 A2.5,2.5 0 0 1 1598.5,205.7869 L885.5,205.7869 A2.5,2.5 0 0 1 883,203.2869 L883,91.9869 A2.5,2.5 0 0 1 885.5,89.4869" fill="none" style="stroke:#000000;stroke-width:1.5;"/><line style="stroke:#000000;stroke-width:1.5;" x1="883" x2="1025.2197" y1="111.7838" y2="111.7838"/><text fill="#000000" font-family="sans-serif" font-size="14" font-weight="bold" lengthAdjust="spacing" textLength="129.2197" x="887" y="104.482">Scaling Decision</text></g><!--cluster Scaling Actions--><g class="cluster" data-entity="Scaling Actions" data-source-line="15" data-uid="ent0010" id="cluster_Scaling Actions"><path d="M1676.5,89.4869 L1798.332,89.4869 A3.75,3.75 0 0 1 1800.832,91.9869 L1807.832,111.7838 L2433.5,111.7838 A2.5,2.5 0 0 1 2436,114.2838 L2436,203.2869 A2.5,2.5 0 0 1 2433.5,205.7869 L1676.5,205.7869 A2.5,2.5 0 0 1 1674,203.2869 L1674,91.9869 A2.5,2.5 0 0 1 1676.5,89.4869" fill="none" style="stroke:#000000;stroke-width:1.5;"/><line style="stroke:#000000;stroke-width:1.5;" x1="1674" x2="1807.832" y1="111.7838" y2="111.7838"/><text fill="#000000" font-family="sans-serif" font-size="14" font-weight="bold" lengthAdjust="spacing" textLength="120.832" x="1678" y="104.482">Scaling Actions</text></g><!--entity Metrics--><g class="entity" data-entity="Metrics" data-source-line="4" data-uid="ent0003" id="entity_Metrics"><rect fill="#F1F1F1" height="46.2969" rx="2.5" ry="2.5" style="stroke:#181818;stroke-width:0.5;" width="124.1572" x="529.92" y="143.4869"/><rect fill="#F1F1F1" height="10" style="stroke:#181818;stroke-width:0.5;" width="15" x="634.0772" y="148.4869"/><rect fill="#F1F1F1" height="2" style="stroke:#181818;stroke-width:0.5;" width="4" x="632.0772" y="150.4869"/><rect fill="#F1F1F1" height="2" style="stroke:#181818;stroke-width:0.5;" width="4" x="632.0772" y="154.4869"/><text fill="#000000" font-family="sans-serif" font-size="14" lengthAdjust="spacing" textLength="84.1572" x="544.92" y="176.482">Prometheus</text></g><!--entity CustomMetrics--><g class="entity" data-entity="CustomMetrics" data-source-line="5" data-uid="ent0004" id="entity_CustomMetrics"><rect fill="#F1F1F1" height="46.2969" rx="2.5" ry="2.5" style="stroke:#181818;stroke-width:0.5;" width="148.9033" x="219.55" y="143.4869"/><rect fill="#F1F1F1" height="10" style="stroke:#181818;stroke-width:0.5;" width="15" x="348.4533" y="148.4869"/><rect fill="#F1F1F1" height="2" style="stroke:#181818;stroke-width:0.5;" width="4" x="346.4533" y="150.4869"/><rect fill="#F1F1F1" height="2" style="stroke:#181818;stroke-width:0.5;" width="4" x="346.4533" y="154.4869"/><text fill="#000000" font-family="sans-serif" font-size="14" lengthAdjust="spacing" textLength="108.9033" x="234.55" y="176.482">Custom Metrics</text></g><!--entity ResourceMon--><g class="entity" data-entity="ResourceMon" data-source-line="6" data-uid="ent0005" id="entity_ResourceMon"><rect fill="#F1F1F1" height="46.2969" rx="2.5" ry="2.5" style="stroke:#181818;stroke-width:0.5;" width="162.8076" x="21.6" y="143.4869"/><rect fill="#F1F1F1" height="10" style="stroke:#181818;stroke-width:0.5;" width="15" x="164.4076" y="148.4869"/><rect fill="#F1F1F1" height="2" style="stroke:#181818;stroke-width:0.5;" width="4" x="162.4076" y="150.4869"/><rect fill="#F1F1F1" height="2" style="stroke:#181818;stroke-width:0.5;" width="4" x="162.4076" y="154.4869"/><text fill="#000000" font-family="sans-serif" font-size="14" lengthAdjust="spacing" textLength="122.8076" x="36.6" y="176.482">Resource Monitor</text></g><!--entity HPA--><g class="entity" data-entity="HPA" data-source-line="10" data-uid="ent0007" id="entity_HPA"><rect fill="#F1F1F1" height="46.2969" rx="2.5" ry="2.5" style="stroke:#181818;stroke-width:0.5;" width="142.1699" x="898.92" y="143.4869"/><rect fill="#F1F1F1" height="10" style="stroke:#181818;stroke-width:0.5;" width="15" x="1021.0899" y="148.4869"/><rect fill="#F1F1F1" height="2" style="stroke:#181818;stroke-width:0.5;" width="4" x="1019.0899" y="150.4869"/><rect fill="#F1F1F1" height="2" style="stroke:#181818;stroke-width:0.5;" width="4" x="1019.0899" y="154.4869"/><text fill="#000000" font-family="sans-serif" font-size="14" lengthAdjust="spacing" textLength="102.1699" x="913.92" y="176.482">HPA Controller</text></g><!--entity VPA--><g class="entity" data-entity="VPA" data-source-line="11" data-uid="ent0008" id="entity_VPA"><rect fill="#F1F1F1" height="46.2969" rx="2.5" ry="2.5" style="stroke:#181818;stroke-width:0.5;" width="141.2197" x="1076.39" y="143.4869"/><rect fill="#F1F1F1" height="10" style="stroke:#181818;stroke-width:0.5;" width="15" x="1197.6097" y="148.4869"/><rect fill="#F1F1F1" height="2" style="stroke:#181818;stroke-width:0.5;" width="4" x="1195.6097" y="150.4869"/><rect fill="#F1F1F1" height="2" style="stroke:#181818;stroke-width:0.5;" width="4" x="1195.6097" y="154.4869"/><text fill="#000000" font-family="sans-serif" font-size="14" lengthAdjust="spacing" textLength="101.2197" x="1091.39" y="176.482">VPA Controller</text></g><!--entity CustomScaler--><g class="entity" data-entity="CustomScaler" data-source-line="12" data-uid="ent0009" id="entity_CustomScaler"><rect fill="#F1F1F1" height="46.2969" rx="2.5" ry="2.5" style="stroke:#181818;stroke-width:0.5;" width="141.5068" x="1443.25" y="143.4869"/><rect fill="#F1F1F1" height="10" style="stroke:#181818;stroke-width:0.5;" width="15" x="1564.7568" y="148.4869"/><rect fill="#F1F1F1" height="2" style="stroke:#181818;stroke-width:0.5;" width="4" x="1562.7568" y="150.4869"/><rect fill="#F1F1F1" height="2" style="stroke:#181818;stroke-width:0.5;" width="4" x="1562.7568" y="154.4869"/><text fill="#000000" font-family="sans-serif" font-size="14" lengthAdjust="spacing" textLength="101.5068" x="1458.25" y="176.482">Custom Scaler</text></g><!--entity K8sAPI--><g class="entity" data-entity="K8sAPI" data-source-line="16" data-uid="ent0011" id="entity_K8sAPI"><rect fill="#F1F1F1" height="46.2969" rx="2.5" ry="2.5" style="stroke:#181818;stroke-width:0.5;" width="146.791" x="1981.6" y="143.4869"/><rect fill="#F1F1F1" height="10" style="stroke:#181818;stroke-width:0.5;" width="15" x="2108.391" y="148.4869"/><rect fill="#F1F1F1" height="2" style="stroke:#181818;stroke-width:0.5;" width="4" x="2106.391" y="150.4869"/><rect fill="#F1F1F1" height="2" style="stroke:#181818;stroke-width:0.5;" width="4" x="2106.391" y="154.4869"/><text fill="#000000" font-family="sans-serif" font-size="14" lengthAdjust="spacing" textLength="106.791" x="1996.6" y="176.482">Kubernetes API</text></g><!--entity NodeProv--><g class="entity" data-entity="NodeProv" data-source-line="17" data-uid="ent0012" id="entity_NodeProv"><rect fill="#F1F1F1" height="46.2969" rx="2.5" ry="2.5" style="stroke:#181818;stroke-width:0.5;" width="158.918" x="1689.54" y="143.4869"/><rect fill="#F1F1F1" height="10" style="stroke:#181818;stroke-width:0.5;" width="15" x="1828.458" y="148.4869"/><rect fill="#F1F1F1" height="2" style="stroke:#181818;stroke-width:0.5;" width="4" x="1826.458" y="150.4869"/><rect fill="#F1F1F1" height="2" style="stroke:#181818;stroke-width:0.5;" width="4" x="1826.458" y="154.4869"/><text fill="#000000" font-family="sans-serif" font-size="14" lengthAdjust="spacing" textLength="118.918" x="1704.54" y="176.482">Node Provisioner</text></g><!--entity LB--><g class="entity" data-entity="LB" data-source-line="18" data-uid="ent0013" id="entity_LB"><rect fill="#F1F1F1" height="46.2969" rx="2.5" ry="2.5" style="stroke:#181818;stroke-width:0.5;" width="139.873" x="2280.06" y="143.4869"/><rect fill="#F1F1F1" height="10" style="stroke:#181818;stroke-width:0.5;" width="15" x="2399.933" y="148.4869"/><rect fill="#F1F1F1" height="2" style="stroke:#181818;stroke-width:0.5;" width="4" x="2397.933" y="150.4869"/><rect fill="#F1F1F1" height="2" style="stroke:#181818;stroke-width:0.5;" width="4" x="2397.933" y="154.4869"/><text fill="#000000" font-family="sans-serif" font-size="14" lengthAdjust="spacing" textLength="99.873" x="2295.06" y="176.482">Load Balancer</text></g><!--link ResourceMon to Metrics--><g class="link" data-entity-1="ResourceMon" data-entity-2="Metrics" data-source-line="21" data-uid="lnk14" id="link_ResourceMon_Metrics"><path d="M121.73,143.1669 C139.79,122.5669 169.16,93.9869 202,81.4869 C287.78,48.8569 318.95,59.6369 408.5,79.7669 C462.49,91.8969 514.124,118.7583 549.964,140.0883" fill="none" id="ResourceMon-to-Metrics" style="stroke:#181818;stroke-width:1;"/><polygon fill="#181818" points="555.12,143.1569,549.4317,135.1167,550.8234,140.5998,545.3403,141.9914,555.12,143.1569" style="stroke:#181818;stroke-width:1;"/><text fill="#000000" font-family="sans-serif" font-size="13" lengthAdjust="spacing" textLength="101.2451" x="306.5" y="69.5538">System metrics</text></g><!--link CustomMetrics to Metrics--><g class="link" data-entity-1="CustomMetrics" data-entity-2="Metrics" data-source-line="22" data-uid="lnk15" id="link_CustomMetrics_Metrics"><path d="M368.81,166.6369 C418.47,166.6369 476.88,166.6369 523.73,166.6369" fill="none" id="CustomMetrics-to-Metrics" style="stroke:#181818;stroke-width:1;"/><polygon fill="#181818" points="529.73,166.6369,520.73,162.6369,524.73,166.6369,520.73,170.6369,529.73,166.6369" style="stroke:#181818;stroke-width:1;"/><text fill="#000000" font-family="sans-serif" font-size="13" lengthAdjust="spacing" textLength="125.4043" x="386.69" y="159.7038">Application metrics</text></g><!--link Metrics to HPA--><g class="link" data-entity-1="Metrics" data-entity-2="HPA" data-source-line="23" data-uid="lnk16" id="link_Metrics_HPA"><path d="M654.42,166.6369 C721.52,166.6369 822.02,166.6369 892.46,166.6369" fill="none" id="Metrics-to-HPA" style="stroke:#181818;stroke-width:1;"/><polygon fill="#181818" points="898.46,166.6369,889.46,162.6369,893.46,166.6369,889.46,170.6369,898.46,166.6369" style="stroke:#181818;stroke-width:1;"/><text fill="#000000" font-family="sans-serif" font-size="13" lengthAdjust="spacing" textLength="136.4492" x="708.5" y="182.7038">CPU/Memory metrics</text></g><!--link Metrics to VPA--><g class="link" data-entity-1="Metrics" data-entity-2="VPA" data-source-line="24" data-uid="lnk17" id="link_Metrics_VPA"><path d="M601.23,143.2869 C610.9,122.3569 628.3,92.9969 654,79.7669 C670,71.5269 1042,74.5369 1059,81.4869 C1089.5,93.9669 1111.6941,117.7664 1127.3341,138.3864" fill="none" id="Metrics-to-VPA" style="stroke:#181818;stroke-width:1;"/><polygon fill="#181818" points="1130.96,143.1669,1128.7081,133.5789,1127.9384,139.1832,1122.3342,138.4135,1130.96,143.1669" style="stroke:#181818;stroke-width:1;"/><text fill="#000000" font-family="sans-serif" font-size="13" lengthAdjust="spacing" textLength="182.5205" x="655" y="69.5538">Resource recommendations</text></g><!--link Metrics to CustomScaler--><g class="link" data-entity-1="Metrics" data-entity-2="CustomScaler" data-source-line="25" data-uid="lnk18" id="link_Metrics_CustomScaler"><path d="M653.88,143.0169 C712.03,122.1469 802,93.2569 883,81.4869 C944.58,72.5469 1386.78,53.1069 1443,79.7669 C1470.46,92.7869 1487.8849,116.9582 1499.6049,137.9482" fill="none" id="Metrics-to-CustomScaler" style="stroke:#181818;stroke-width:1;"/><polygon fill="#181818" points="1502.53,143.1869,1501.6348,133.3788,1500.0924,138.8213,1494.6499,137.2789,1502.53,143.1869" style="stroke:#181818;stroke-width:1;"/><text fill="#000000" font-family="sans-serif" font-size="13" lengthAdjust="spacing" textLength="102.5718" x="1340" y="69.5538">Custom metrics</text></g><!--link HPA to K8sAPI--><g class="link" data-entity-1="HPA" data-entity-2="K8sAPI" data-source-line="26" data-uid="lnk19" id="link_HPA_K8sAPI"><path d="M986.33,143.2469 C1002.21,122.6969 1028.37,94.1569 1059,81.4869 C1092.69,67.5569 1104.55,80.1469 1141,79.7669 C1415.56,76.8769 1755.9,57.6869 1866,81.4869 C1920.7,93.3169 1973.4494,119.2573 2010.5494,140.1073" fill="none" id="HPA-to-K8sAPI" style="stroke:#181818;stroke-width:1;"/><polygon fill="#181818" points="2015.78,143.0469,2009.8938,135.1505,2011.4212,140.5972,2005.9744,142.1246,2015.78,143.0469" style="stroke:#181818;stroke-width:1;"/><text fill="#000000" font-family="sans-serif" font-size="13" lengthAdjust="spacing" textLength="70.3384" x="1142" y="69.5538">Scale pods</text></g><!--link VPA to K8sAPI--><g class="link" data-entity-1="VPA" data-entity-2="K8sAPI" data-source-line="27" data-uid="lnk20" id="link_VPA_K8sAPI"><path d="M1158.47,143.1869 C1170.19,122.1969 1190.54,92.7869 1218,79.7669 C1235.85,71.3069 1689.63,43.2969 1866,81.4869 C1920.69,93.3369 1973.4492,119.2678 2010.5392,140.1078" fill="none" id="VPA-to-K8sAPI" style="stroke:#181818;stroke-width:1;"/><polygon fill="#181818" points="2015.77,143.0469,2009.8831,135.151,2011.411,140.5976,2005.9643,142.1255,2015.77,143.0469" style="stroke:#181818;stroke-width:1;"/><text fill="#000000" font-family="sans-serif" font-size="13" lengthAdjust="spacing" textLength="114.7847" x="1219" y="69.5538">Update resources</text></g><!--link CustomScaler to NodeProv--><g class="link" data-entity-1="CustomScaler" data-entity-2="NodeProv" data-source-line="28" data-uid="lnk21" id="link_CustomScaler_NodeProv"><path d="M1585.03,166.6369 C1617.45,166.6369 1649.98,166.6369 1683.38,166.6369" fill="none" id="CustomScaler-to-NodeProv" style="stroke:#181818;stroke-width:1;"/><polygon fill="#181818" points="1689.38,166.6369,1680.38,162.6369,1684.38,166.6369,1680.38,170.6369,1689.38,166.6369" style="stroke:#181818;stroke-width:1;"/><text fill="#000000" font-family="sans-serif" font-size="13" lengthAdjust="spacing" textLength="68.7451" x="1603.15" y="159.7038">Add nodes</text></g><!--link K8sAPI to LB--><g class="link" data-entity-1="K8sAPI" data-entity-2="LB" data-source-line="29" data-uid="lnk22" id="link_K8sAPI_LB"><path d="M2128.68,166.6369 C2174.93,166.6369 2228.22,166.6369 2273.8,166.6369" fill="none" id="K8sAPI-to-LB" style="stroke:#181818;stroke-width:1;"/><polygon fill="#181818" points="2279.8,166.6369,2270.8,162.6369,2274.8,166.6369,2270.8,170.6369,2279.8,166.6369" style="stroke:#181818;stroke-width:1;"/><text fill="#000000" font-family="sans-serif" font-size="13" lengthAdjust="spacing" textLength="115.6289" x="2146.73" y="159.7038">Update endpoints</text></g><!--link NodeProv to K8sAPI--><g class="link" data-entity-1="NodeProv" data-entity-2="K8sAPI" data-source-line="30" data-uid="lnk23" id="link_NodeProv_K8sAPI"><path d="M1848.67,166.6369 C1890.15,166.6369 1934.55,166.6369 1975.15,166.6369" fill="none" id="NodeProv-to-K8sAPI" style="stroke:#181818;stroke-width:1;"/><polygon fill="#181818" points="1981.15,166.6369,1972.15,162.6369,1976.15,166.6369,1972.15,170.6369,1981.15,166.6369" style="stroke:#181818;stroke-width:1;"/><text fill="#000000" font-family="sans-serif" font-size="13" lengthAdjust="spacing" textLength="97.4556" x="1866.53" y="159.7038">Register nodes</text></g><!--SRC=[TP71ReCm38RlF8N5lTfruZ29TeTDRIVKgjopOBNH84P9c5HDU_Sv922WZ1EnF_-sVplbQeIySxInKjHANo4tygOSIjSPJ99Mo2znHKYFw8oI5dPKrvnKf5FuIO0_IKrB6hM3j33KeBjXPrCG5cBDajfrrb4pP7ioXFxXJsYfCnBXI5evCdt54EHOyZkPynpNU4MfxFgKRqNEQsXd_2f1ZKDBgdoaoaSgxkAxHYX4Gc1rihntpwuCjky-qMXqQ24ltdkr_RFbtoNuGHK2c_tThnWR-w2FBU43YGgseXPQHlAmzODD78JDot2E3Cvtwx219XvZTfePcBTjhQJmsupqX6DFCzWLbwSZDcJkQqZfaV6y1ddg1dNLIyx0gQbPV8s2_fxC1AkoS0jegR99ESzSMfRsVKB3ORSWwy71Gjwjga3pooQXs6SFsr62Xsn9QMUJeMJQvuHNnHwQgF07]--></g></svg>