<svg xmlns="http://www.w3.org/2000/svg" xmlns:xlink="http://www.w3.org/1999/xlink" contentStyleType="text/css" data-diagram-type="STATE" height="166px" preserveAspectRatio="none" style="width:2626px;height:166px;background:#FFFFFF;" version="1.1" viewBox="0 0 2626 166" width="2626px" zoomAndPan="magnify"><title>Edge Deployment State Machine</title><defs/><g><g class="title" data-source-line="1"><text fill="#000000" font-family="sans-serif" font-size="14" font-weight="bold" lengthAdjust="spacing" textLength="257.4619" x="1177.7032" y="22.9951">Edge Deployment State Machine</text></g><ellipse cx="16" cy="135.5269" fill="#222222" rx="10" ry="10" style="stroke:#222222;stroke-width:1;"/><g id="Provisioning"><rect fill="#F1F1F1" height="50" rx="12.5" ry="12.5" style="stroke:#181818;stroke-width:0.5;" width="105.21" x="176.4" y="110.5269"/><line style="stroke:#181818;stroke-width:0.5;" x1="176.4" x2="281.61" y1="136.8238" y2="136.8238"/><text fill="#000000" font-family="sans-serif" font-size="14" lengthAdjust="spacing" textLength="85.21" x="186.4" y="128.522">Provisioning</text></g><g id="Downloading"><rect fill="#F1F1F1" height="50" rx="12.5" ry="12.5" style="stroke:#181818;stroke-width:0.5;" width="111.2393" x="437.38" y="110.5269"/><line style="stroke:#181818;stroke-width:0.5;" x1="437.38" x2="548.6193" y1="136.8238" y2="136.8238"/><text fill="#000000" font-family="sans-serif" font-size="14" lengthAdjust="spacing" textLength="91.2393" x="447.38" y="128.522">Downloading</text></g><g id="Installing"><rect fill="#F1F1F1" height="50" rx="12.5" ry="12.5" style="stroke:#181818;stroke-width:0.5;" width="83.793" x="688.1" y="110.5269"/><line style="stroke:#181818;stroke-width:0.5;" x1="688.1" x2="771.893" y1="136.8238" y2="136.8238"/><text fill="#000000" font-family="sans-serif" font-size="14" lengthAdjust="spacing" textLength="63.793" x="698.1" y="128.522">Installing</text></g><g id="Configuring"><rect fill="#F1F1F1" height="50" rx="12.5" ry="12.5" style="stroke:#181818;stroke-width:0.5;" width="101.1973" x="916.4" y="110.5269"/><line style="stroke:#181818;stroke-width:0.5;" x1="916.4" x2="1017.5973" y1="136.8238" y2="136.8238"/><text fill="#000000" font-family="sans-serif" font-size="14" lengthAdjust="spacing" textLength="81.1973" x="926.4" y="128.522">Configuring</text></g><g id="Connecting"><rect fill="#F1F1F1" height="50" rx="12.5" ry="12.5" style="stroke:#181818;stroke-width:0.5;" width="99.5361" x="1166.23" y="110.5269"/><line style="stroke:#181818;stroke-width:0.5;" x1="1166.23" x2="1265.7661" y1="136.8238" y2="136.8238"/><text fill="#000000" font-family="sans-serif" font-size="14" lengthAdjust="spacing" textLength="79.5361" x="1176.23" y="128.522">Connecting</text></g><g id="Syncing"><rect fill="#F1F1F1" height="50" rx="12.5" ry="12.5" style="stroke:#181818;stroke-width:0.5;" width="75.3916" x="1428.3" y="110.5269"/><line style="stroke:#181818;stroke-width:0.5;" x1="1428.3" x2="1503.6916" y1="136.8238" y2="136.8238"/><text fill="#000000" font-family="sans-serif" font-size="14" lengthAdjust="spacing" textLength="55.3916" x="1438.3" y="128.522">Syncing</text></g><g id="Operational"><rect fill="#F1F1F1" height="50" rx="12.5" ry="12.5" style="stroke:#181818;stroke-width:0.5;" width="102.1406" x="1635.93" y="110.5269"/><line style="stroke:#181818;stroke-width:0.5;" x1="1635.93" x2="1738.0706" y1="136.8238" y2="136.8238"/><text fill="#000000" font-family="sans-serif" font-size="14" lengthAdjust="spacing" textLength="82.1406" x="1645.93" y="128.522">Operational</text></g><g id="Updating"><rect fill="#F1F1F1" height="50" rx="12.5" ry="12.5" style="stroke:#181818;stroke-width:0.5;" width="83.7383" x="2536.13" y="110.5269"/><line style="stroke:#181818;stroke-width:0.5;" x1="2536.13" x2="2619.8683" y1="136.8238" y2="136.8238"/><text fill="#000000" font-family="sans-serif" font-size="14" lengthAdjust="spacing" textLength="63.7383" x="2546.13" y="128.522">Updating</text></g><g id="Offline"><rect fill="#F1F1F1" height="50" rx="12.5" ry="12.5" style="stroke:#181818;stroke-width:0.5;" width="66.1426" x="2434.93" y="110.5269"/><line style="stroke:#181818;stroke-width:0.5;" x1="2434.93" x2="2501.0726" y1="136.8238" y2="136.8238"/><text fill="#000000" font-family="sans-serif" font-size="14" lengthAdjust="spacing" textLength="46.1426" x="2444.93" y="128.522">Offline</text></g><g id="Maintenance"><rect fill="#F1F1F1" height="50" rx="12.5" ry="12.5" style="stroke:#181818;stroke-width:0.5;" width="110.1592" x="2263.92" y="110.5269"/><line style="stroke:#181818;stroke-width:0.5;" x1="2263.92" x2="2374.0792" y1="136.8238" y2="136.8238"/><text fill="#000000" font-family="sans-serif" font-size="14" lengthAdjust="spacing" textLength="90.1592" x="2273.92" y="128.522">Maintenance</text></g><g id="Decommissioning"><rect fill="#F1F1F1" height="50" rx="12.5" ry="12.5" style="stroke:#181818;stroke-width:0.5;" width="144.3867" x="1907.81" y="110.5269"/><line style="stroke:#181818;stroke-width:0.5;" x1="1907.81" x2="2052.1967" y1="136.8238" y2="136.8238"/><text fill="#000000" font-family="sans-serif" font-size="14" lengthAdjust="spacing" textLength="124.3867" x="1917.81" y="128.522">Decommissioning</text></g><ellipse cx="2218" cy="135.5269" fill="none" rx="11" ry="11" style="stroke:#222222;stroke-width:1;"/><ellipse cx="2218" cy="135.5269" fill="#222222" rx="6" ry="6" style="stroke:#222222;stroke-width:1;"/><!--link *start* to Provisioning--><g class="link" data-entity-1=".start." data-entity-2="Provisioning" data-source-line="3" data-uid="lnk4" id="link_.start._Provisioning"><path d="M26.27,135.5269 C52.87,135.5269 119.41,135.5269 170.07,135.5269" fill="none" id="*start*-to-Provisioning" style="stroke:#181818;stroke-width:1;"/><polygon fill="#181818" points="176.07,135.5269,167.07,131.5269,171.07,135.5269,167.07,139.5269,176.07,135.5269" style="stroke:#181818;stroke-width:1;"/><text fill="#000000" font-family="sans-serif" font-size="13" lengthAdjust="spacing" textLength="114.5371" x="44.2" y="128.5938">Deploy command</text></g><!--link Provisioning to Downloading--><g class="link" data-entity-1="Provisioning" data-entity-2="Downloading" data-source-line="4" data-uid="lnk6" id="link_Provisioning_Downloading"><path d="M281.79,135.5269 C326.78,135.5269 385.25,135.5269 431.11,135.5269" fill="none" id="Provisioning-to-Downloading" style="stroke:#181818;stroke-width:1;"/><polygon fill="#181818" points="437.11,135.5269,428.11,131.5269,432.11,135.5269,428.11,139.5269,437.11,135.5269" style="stroke:#181818;stroke-width:1;"/><text fill="#000000" font-family="sans-serif" font-size="13" lengthAdjust="spacing" textLength="119.9453" x="299.99" y="128.5938">Download runtime</text></g><!--link Downloading to Installing--><g class="link" data-entity-1="Downloading" data-entity-2="Installing" data-source-line="5" data-uid="lnk8" id="link_Downloading_Installing"><path d="M548.87,135.5269 C591.43,135.5269 643.11,135.5269 681.85,135.5269" fill="none" id="Downloading-to-Installing" style="stroke:#181818;stroke-width:1;"/><polygon fill="#181818" points="687.85,135.5269,678.85,131.5269,682.85,135.5269,678.85,139.5269,687.85,135.5269" style="stroke:#181818;stroke-width:1;"/><text fill="#000000" font-family="sans-serif" font-size="13" lengthAdjust="spacing" textLength="103.9873" x="566.86" y="128.5938">Install complete</text></g><!--link Installing to Configuring--><g class="link" data-entity-1="Installing" data-entity-2="Configuring" data-source-line="6" data-uid="lnk10" id="link_Installing_Configuring"><path d="M772.37,135.5269 C812.58,135.5269 867.07,135.5269 909.93,135.5269" fill="none" id="Installing-to-Configuring" style="stroke:#181818;stroke-width:1;"/><polygon fill="#181818" points="915.93,135.5269,906.93,131.5269,910.93,135.5269,906.93,139.5269,915.93,135.5269" style="stroke:#181818;stroke-width:1;"/><text fill="#000000" font-family="sans-serif" font-size="13" lengthAdjust="spacing" textLength="108.5767" x="790.15" y="128.5938">Installation done</text></g><!--link Configuring to Connecting--><g class="link" data-entity-1="Configuring" data-entity-2="Connecting" data-source-line="7" data-uid="lnk12" id="link_Configuring_Connecting"><path d="M1017.99,135.5269 C1061.24,135.5269 1116.94,135.5269 1159.93,135.5269" fill="none" id="Configuring-to-Connecting" style="stroke:#181818;stroke-width:1;"/><polygon fill="#181818" points="1165.93,135.5269,1156.93,131.5269,1160.93,135.5269,1156.93,139.5269,1165.93,135.5269" style="stroke:#181818;stroke-width:1;"/><text fill="#000000" font-family="sans-serif" font-size="13" lengthAdjust="spacing" textLength="112.1631" x="1035.92" y="128.5938">Configuration set</text></g><!--link Connecting to Syncing--><g class="link" data-entity-1="Connecting" data-entity-2="Syncing" data-source-line="8" data-uid="lnk14" id="link_Connecting_Syncing"><path d="M1265.99,135.5269 C1313.73,135.5269 1378.62,135.5269 1421.93,135.5269" fill="none" id="Connecting-to-Syncing" style="stroke:#181818;stroke-width:1;"/><polygon fill="#181818" points="1427.93,135.5269,1418.93,131.5269,1422.93,135.5269,1418.93,139.5269,1427.93,135.5269" style="stroke:#181818;stroke-width:1;"/><text fill="#000000" font-family="sans-serif" font-size="13" lengthAdjust="spacing" textLength="126.9912" x="1284.04" y="128.5938">Connected to mesh</text></g><!--link Syncing to Operational--><g class="link" data-entity-1="Syncing" data-entity-2="Operational" data-source-line="9" data-uid="lnk16" id="link_Syncing_Operational"><path d="M1503.99,135.5269 C1540.27,135.5269 1589.23,135.5269 1629.45,135.5269" fill="none" id="Syncing-to-Operational" style="stroke:#181818;stroke-width:1;"/><polygon fill="#181818" points="1635.45,135.5269,1626.45,131.5269,1630.45,135.5269,1626.45,139.5269,1635.45,135.5269" style="stroke:#181818;stroke-width:1;"/><text fill="#000000" font-family="sans-serif" font-size="13" lengthAdjust="spacing" textLength="96.186" x="1521.81" y="128.5938">Sync complete</text></g><!--link Operational to Updating--><g class="link" data-entity-1="Operational" data-entity-2="Updating" data-source-line="10" data-uid="lnk18" id="link_Operational_Updating"><path d="M1700.85,110.1469 C1709.68,96.7569 1722.48,81.5769 1738.5,74.1069 C1783.21,53.2569 1800.18,72.7669 1849.5,74.1069 C2147.39,82.2069 2228.69,43.2969 2519,110.5269 C2524.53,111.8069 2524.5477,111.5263 2530.0777,113.5263" fill="none" id="Operational-to-Updating" style="stroke:#181818;stroke-width:1;"/><polygon fill="#181818" points="2535.72,115.5669,2528.6169,108.7444,2531.0181,113.8664,2525.8961,116.2675,2535.72,115.5669" style="stroke:#181818;stroke-width:1;"/><text fill="#000000" font-family="sans-serif" font-size="13" lengthAdjust="spacing" textLength="109.8906" x="1739.5" y="76.5938">Update available</text></g><!--link Updating to Operational--><g class="link" data-entity-1="Updating" data-entity-2="Operational" data-source-line="11" data-uid="lnk19" id="link_Updating_Operational"><path d="M2535.72,115.5669 C2530.19,113.5669 2524.53,111.8069 2519,110.5269 C2228.69,43.2969 2147.39,82.2069 1849.5,74.1069 C1800.18,72.7669 1783.21,53.2569 1738.5,74.1069 C1722.48,81.5769 1712.9831,91.7479 1704.1531,105.1379" fill="none" id="Updating-to-Operational" style="stroke:#181818;stroke-width:1;"/><polygon fill="#181818" points="1700.85,110.1469,1709.144,104.8356,1703.6026,105.9728,1702.4654,100.4314,1700.85,110.1469" style="stroke:#181818;stroke-width:1;"/><text fill="#000000" font-family="sans-serif" font-size="13" lengthAdjust="spacing" textLength="111.9346" x="1738.5" y="76.5938">Update complete</text></g><!--link Operational to Offline--><g class="link" data-entity-1="Operational" data-entity-2="Offline" data-source-line="12" data-uid="lnk21" id="link_Operational_Offline"><path d="M1738.2,126.7369 C1867.4,105.1669 2204.19,52.8569 2314.5,74.1069 C2357.76,82.4469 2398.9514,100.2077 2429.3114,115.2177" fill="none" id="Operational-to-Offline" style="stroke:#181818;stroke-width:1;"/><polygon fill="#181818" points="2434.69,117.8769,2428.3949,110.3024,2430.2079,115.6609,2424.8494,117.4738,2434.69,117.8769" style="stroke:#181818;stroke-width:1;"/><text fill="#000000" font-family="sans-serif" font-size="13" lengthAdjust="spacing" textLength="81.8467" x="2232.5" y="76.5938">Network lost</text></g><!--link Offline to Connecting--><g class="link" data-entity-1="Offline" data-entity-2="Connecting" data-source-line="13" data-uid="lnk22" id="link_Offline_Connecting"><path d="M2461.04,110.1469 C2455.98,96.9269 2447.66,81.9269 2434.5,74.1069 C2412.52,61.0669 2345.05,73.5969 2319.5,74.1069 C1915.48,82.2069 1813.68,76.7069 1411,110.5269 C1361.51,114.6869 1311.2277,121.3246 1271.9077,127.0346" fill="none" id="Offline-to-Connecting" style="stroke:#181818;stroke-width:1;"/><polygon fill="#181818" points="1265.97,127.8969,1275.4514,130.562,1270.9181,127.1783,1274.3017,122.645,1265.97,127.8969" style="stroke:#181818;stroke-width:1;"/><text fill="#000000" font-family="sans-serif" font-size="13" lengthAdjust="spacing" textLength="113.1724" x="2320.5" y="76.5938">Network restored</text></g><!--link Operational to Maintenance--><g class="link" data-entity-1="Operational" data-entity-2="Maintenance" data-source-line="14" data-uid="lnk24" id="link_Operational_Maintenance"><path d="M1738.28,111.4469 C1770.9,97.4869 1814.48,81.2869 1855,74.1069 C1941.15,58.8569 2161.92,90.1469 2247,110.5269 C2252.4,111.8169 2252.2253,111.6352 2257.7653,113.3052" fill="none" id="Operational-to-Maintenance" style="stroke:#181818;stroke-width:1;"/><polygon fill="#181818" points="2263.51,115.0369,2256.0475,108.6096,2258.7228,113.5938,2253.7385,116.2691,2263.51,115.0369" style="stroke:#181818;stroke-width:1;"/><text fill="#000000" font-family="sans-serif" font-size="13" lengthAdjust="spacing" textLength="124.7188" x="1856" y="76.5938">Maintenance mode</text></g><!--link Maintenance to Operational--><g class="link" data-entity-1="Maintenance" data-entity-2="Operational" data-source-line="15" data-uid="lnk25" id="link_Maintenance_Operational"><path d="M2263.51,115.0369 C2257.97,113.3669 2252.4,111.8169 2247,110.5269 C2161.92,90.1469 1941.15,58.8569 1855,74.1069 C1814.48,81.2869 1776.4161,95.1262 1743.7961,109.0862" fill="none" id="Maintenance-to-Operational" style="stroke:#181818;stroke-width:1;"/><polygon fill="#181818" points="1738.28,111.4469,1748.1279,111.5833,1742.8767,109.4797,1744.9804,104.2285,1738.28,111.4469" style="stroke:#181818;stroke-width:1;"/><text fill="#000000" font-family="sans-serif" font-size="13" lengthAdjust="spacing" textLength="120.2944" x="1858" y="76.5938">Maintenance done</text></g><!--link Operational to Decommissioning--><g class="link" data-entity-1="Operational" data-entity-2="Decommissioning" data-source-line="16" data-uid="lnk27" id="link_Operational_Decommissioning"><path d="M1738.37,135.5269 C1785.23,135.5269 1848.96,135.5269 1901.49,135.5269" fill="none" id="Operational-to-Decommissioning" style="stroke:#181818;stroke-width:1;"/><polygon fill="#181818" points="1907.49,135.5269,1898.49,131.5269,1902.49,135.5269,1898.49,139.5269,1907.49,135.5269" style="stroke:#181818;stroke-width:1;"/><text fill="#000000" font-family="sans-serif" font-size="13" lengthAdjust="spacing" textLength="133.9229" x="1756.44" y="128.5938">Shutdown command</text></g><!--link Decommissioning to *end*--><g class="link" data-entity-1="Decommissioning" data-entity-2=".end." data-source-line="17" data-uid="lnk29" id="link_Decommissioning_.end."><path d="M2052.38,135.5269 C2107.9,135.5269 2173.51,135.5269 2200.78,135.5269" fill="none" id="Decommissioning-to-*end*" style="stroke:#181818;stroke-width:1;"/><polygon fill="#181818" points="2206.78,135.5269,2197.78,131.5269,2201.78,135.5269,2197.78,139.5269,2206.78,135.5269" style="stroke:#181818;stroke-width:1;"/><text fill="#000000" font-family="sans-serif" font-size="13" lengthAdjust="spacing" textLength="118.2378" x="2070.6" y="128.5938">Cleanup complete</text></g><!--SRC=[TP8zRiCm34PtdO9pWLwWGvUwGuSq1OnEHGVMOcAXCcbOT8BSldJyfpZePl4zVv8eQj18yEgF10MrKIuDiKAfg0GxhEh0vDpNmpSyFiD79wUGWd3W8pnDFbJIDCZUtL2p2pbp5FIJFAsWwrb3Gox7PhznKennbAV54Dr6Kd8PDVT5-12EVNSZezhMuCNEc_DHPwfqj6SswedKPTZayiBLOWvryg023QNQpSoqVKjZ14PJ1x0UDcUcVhOUfysldmHumX3n9v9Rs5tafFuNkZySh1jauZlfMRfVY9BKpUNjhMUfewJIaT_6xJ2m4YDNGsI-QiIJomjt9ytXjVsRx8A62Gbf7PooxjNRyo-ZirNihs7ax0qY8VVjseO_]--></g></svg>