<svg xmlns="http://www.w3.org/2000/svg" xmlns:xlink="http://www.w3.org/1999/xlink" contentStyleType="text/css" data-diagram-type="DESCRIPTION" height="1349px" preserveAspectRatio="none" style="width:1475px;height:1349px;background:#F8FFF8;" version="1.1" viewBox="0 0 1475 1349" width="1475px" zoomAndPan="magnify"><title>VisualGridDev Studio - General System Architecture View</title><defs/><g><rect fill="#F8FFF8" height="1349" style="stroke:none;stroke-width:1;" width="1475" x="0" y="0"/><g class="title" data-source-line="4"><text fill="#000000" font-family="Verdana" font-size="22" font-weight="bold" lengthAdjust="spacing" textLength="713.7432" x="376.1284" y="35.4209">VisualGridDev Studio - General System Architecture View</text></g><!--cluster users--><g class="cluster" data-entity="users" data-source-line="6" data-uid="ent0002" id="cluster_users"><path d="M54.398,75.0917 C60.8711,62.4895 69.9319,62.8143 78.4299,72.9519 C87.2243,61.147 96.9737,61.6068 103.5399,75.1585 C108.7991,63.8665 119.0262,59.0243 128.2746,70.8992 C136.3549,59.0587 146.3558,61.9353 151.8623,73.4938 C159.004,60.9847 166.7797,61.2157 176.4334,70.6856 C183.297,58.9773 194.5308,57.6094 202.3103,69.6893 C209.7435,60.4882 218.1628,60.728 223.2103,72.1116 C230.5591,59.0215 242.8024,59.5244 249.4343,72.824 C256.625,60.9445 265.2983,58.2341 274.1064,71.219 C282.0321,58.9511 290.4524,60.6232 298.1461,71.4605 C306.7487,63.9362 314.5001,64.2303 319.8603,75.2559 C331.0953,63.1178 342.2313,65.8073 350,79.3277 C353.2892,79.1324 353.7793,80.7106 352.9866,83.4633 C366.6149,89.4188 366.6872,100.5761 354.141,107.7745 C362.1819,114.706 360.6561,123.7319 351.4742,128.4409 C365.6753,136.2185 366.7233,145.6463 353.0273,155.052 C367.085,161.1432 365.3211,170.6396 355.8513,179.4537 C367.0716,185.3519 369.2112,197.0708 356.7134,203.8086 C368.1879,209.8552 368.1111,218.0376 357.2333,224.6419 C369.0225,232.6619 369.1592,241.5162 356.9728,249.2827 C367.5222,257.828 365.2006,264.5676 355.3032,271.582 C368.1027,277.692 367.1905,288.7417 356.9249,296.3612 C367.2831,305.8216 366.0101,313.9879 353.3264,319.9302 C367.7902,328.3808 364.4003,338.6686 352.9071,346.7129 C365.4146,352.3822 363.7786,361.5257 354.5966,368.8503 C365.5334,377.1998 366.2381,385.1147 354.4387,393.3175 C366.0186,406.6905 360.9618,420.7474 343,422.5677 C344.382,420.9041 346.4815,420.7556 347.3828,423.0941 C341.865,435.5462 330.9422,439.0375 321.4267,427.4017 C311.5879,438.0675 303.4883,438.9225 295.5576,425.364 C290.2669,436.8604 281.0283,439.2825 271.835,429.7709 C262.8567,442.1045 253.3939,439.7554 246.5862,427.5385 C240.5494,437.8772 233.7866,439.6976 225.7806,429.537 C218.7164,440.3713 209.9941,442.5425 202.3222,430.1509 C195.6814,443.3507 184.1128,444.8916 175.124,432.6622 C167.2425,441.5777 156.6814,441.1825 153.1982,428.2486 C146.1916,440.9108 136.7665,441.5862 128.9865,428.99 C122.2839,441.5661 110.9653,439.4063 104.735,428.5022 C95.4641,440.9459 86.6276,438.533 78.6307,427.1088 C62.2195,440.8927 51.2816,433.251 46,415.5677 C47.9657,416.597 48.2182,418.3516 46.4459,419.7769 C35.6452,413.2655 34.445,401.7486 45.2095,394.1949 C33.6228,386.3889 33.0592,375.2022 45.7606,367.9054 C34.2611,363.2045 34.4409,353.3323 43.8127,346.713 C34.2928,339.46 32.4775,330.3037 44.0145,323.2317 C33.5429,315.5009 33.7285,307.2875 44.0297,299.57 C31.7507,292.8975 28.3544,282.0818 41.1251,272.7013 C30.046,267.4429 29.6431,259.488 38.7135,251.8942 C26.7568,244.1504 30.4751,233.2224 41.336,227.9809 C27.4479,220.9596 27.2791,212.3971 39.6411,203.5544 C27.0718,194.9761 29.6184,183.2433 42.3469,177.2692 C30.6851,169.3104 33.952,158.3686 45.0989,152.9957 C31.929,145.745 31.6955,135.2822 44.8171,127.7382 C34.1989,120.668 35.8591,111.0831 46.5589,105.6976 C32.4762,94.2549 36.5673,77.8803 53,72.3277 C54.6357,72.5085 55.4214,73.566 54.398,75.0917" fill="#FFFFFF" style="stroke:#000000;stroke-width:1;"/><text fill="#000000" font-family="Verdana" font-size="14" font-weight="bold" lengthAdjust="spacing" textLength="120.75" x="137.625" y="90.3228">Users &amp; Clients</text></g><!--cluster platform--><g class="cluster" data-entity="platform" data-source-line="13" data-uid="ent0007" id="cluster_platform"><rect fill="#FFFFFF" height="962.82" rx="2.5" ry="2.5" style="stroke:#000000;stroke-width:1;" width="729" x="390" y="247.6277"/><text fill="#000000" font-family="Verdana" font-size="14" font-weight="bold" lengthAdjust="spacing" textLength="240.9668" x="634.0166" y="262.6228">VisualGridDev Studio Platform</text></g><!--cluster presentation--><g class="cluster" data-entity="presentation" data-source-line="14" data-uid="ent0008" id="cluster_presentation"><rect fill="#FFFFFF" height="316.53" rx="2.5" ry="2.5" style="stroke:#000000;stroke-width:1;" width="295" x="422" y="298.6277"/><text fill="#000000" font-family="Verdana" font-size="14" font-weight="bold" lengthAdjust="spacing" textLength="150.4385" x="494.2808" y="313.6228">Presentation Layer</text></g><!--cluster application--><g class="cluster" data-entity="application" data-source-line="20" data-uid="ent0012" id="cluster_application"><rect fill="#FFFFFF" height="304.19" rx="2.5" ry="2.5" style="stroke:#000000;stroke-width:1;" width="310" x="757" y="495.5677"/><text fill="#000000" font-family="Verdana" font-size="14" font-weight="bold" lengthAdjust="spacing" textLength="138.0654" x="842.9673" y="510.5628">Application Layer</text></g><!--cluster runtime--><g class="cluster" data-entity="runtime" data-source-line="27" data-uid="ent0017" id="cluster_runtime"><rect fill="#FFFFFF" height="309.19" rx="2.5" ry="2.5" style="stroke:#000000;stroke-width:1;" width="287" x="422" y="680.1577"/><text fill="#000000" font-family="Verdana" font-size="14" font-weight="bold" lengthAdjust="spacing" textLength="115.0557" x="507.9722" y="695.1528">Runtime Layer</text></g><!--cluster infrastructure--><g class="cluster" data-entity="infrastructure" data-source-line="34" data-uid="ent0022" id="cluster_infrastructure"><rect fill="#FFFFFF" height="308.69" rx="2.5" ry="2.5" style="stroke:#000000;stroke-width:1;" width="338" x="749" y="869.7577"/><text fill="#000000" font-family="Verdana" font-size="14" font-weight="bold" lengthAdjust="spacing" textLength="159.6396" x="838.1802" y="884.7528">Infrastructure Layer</text></g><!--cluster datastorage--><g class="cluster" data-entity="datastorage" data-source-line="42" data-uid="ent0027" id="cluster_datastorage"><rect fill="#FFFFFF" height="288.69" rx="2.5" ry="2.5" style="stroke:#000000;stroke-width:1;" width="318" x="1151" y="1054.3477"/><text fill="#000000" font-family="Verdana" font-size="14" font-weight="bold" lengthAdjust="spacing" textLength="121.4268" x="1249.2866" y="1069.3428">Data &amp; Storage</text></g><!--cluster external--><g class="cluster" data-entity="external" data-source-line="49" data-uid="ent0032" id="cluster_external"><rect fill="#FFFFFF" height="313.69" rx="2.5" ry="2.5" style="stroke:#000000;stroke-width:1;" width="346" x="12" y="864.7577"/><text fill="#000000" font-family="Verdana" font-size="14" font-weight="bold" lengthAdjust="spacing" textLength="137.4229" x="116.2886" y="879.7528">External Systems</text></g><!--entity designer--><g class="entity" data-entity="designer" data-source-line="7" data-uid="ent0003" id="entity_designer"><ellipse cx="122.0012" cy="116.3277" fill="#FFFFFF" rx="8" ry="8" style="stroke:#000000;stroke-width:1;"/><path d="M122.0012,124.3277 L122.0012,151.3277 M109.0012,132.3277 L135.0012,132.3277 M122.0012,151.3277 L109.0012,166.3277 M122.0012,151.3277 L135.0012,166.3277" fill="none" style="stroke:#000000;stroke-width:1;"/><text fill="#000000" font-family="Verdana" font-size="14" lengthAdjust="spacing" textLength="119.3623" x="62.32" y="181.3228">System Designer</text></g><!--entity datascientist--><g class="entity" data-entity="datascientist" data-source-line="8" data-uid="ent0004" id="entity_datascientist"><ellipse cx="266" cy="116.3277" fill="#FFFFFF" rx="8" ry="8" style="stroke:#000000;stroke-width:1;"/><path d="M266,124.3277 L266,151.3277 M253,132.3277 L279,132.3277 M266,151.3277 L253,166.3277 M266,151.3277 L279,166.3277" fill="none" style="stroke:#000000;stroke-width:1;"/><text fill="#000000" font-family="Verdana" font-size="14" lengthAdjust="spacing" textLength="98" x="217" y="181.3228">Data Scientist</text></g><!--entity devops--><g class="entity" data-entity="devops" data-source-line="9" data-uid="ent0005" id="entity_devops"><ellipse cx="122.9998" cy="338.2677" fill="#FFFFFF" rx="8" ry="8" style="stroke:#000000;stroke-width:1;"/><path d="M122.9998,346.2677 L122.9998,373.2677 M109.9998,354.2677 L135.9998,354.2677 M122.9998,373.2677 L109.9998,388.2677 M122.9998,373.2677 L135.9998,388.2677" fill="none" style="stroke:#000000;stroke-width:1;"/><text fill="#000000" font-family="Verdana" font-size="14" lengthAdjust="spacing" textLength="121.6797" x="62.16" y="403.2628">DevOps Engineer</text></g><!--entity business--><g class="entity" data-entity="business" data-source-line="10" data-uid="ent0006" id="entity_business"><ellipse cx="267.9979" cy="338.2677" fill="#FFFFFF" rx="8" ry="8" style="stroke:#000000;stroke-width:1;"/><path d="M267.9979,346.2677 L267.9979,373.2677 M254.9979,354.2677 L280.9979,354.2677 M267.9979,373.2677 L254.9979,388.2677 M267.9979,373.2677 L280.9979,388.2677" fill="none" style="stroke:#000000;stroke-width:1;"/><text fill="#000000" font-family="Verdana" font-size="14" lengthAdjust="spacing" textLength="98.0957" x="218.95" y="403.2628">Business User</text></g><!--entity webui--><g class="entity" data-entity="webui" data-source-line="15" data-uid="ent0009" id="entity_webui"><rect fill="#FFFFFF" height="52.5938" rx="2.5" ry="2.5" style="stroke:#000000;stroke-width:1;" width="71.0303" x="446.48" y="341.6277"/><text fill="#000000" font-family="Verdana" font-size="14" lengthAdjust="spacing" textLength="50.1689" x="456.48" y="364.6228">Web UI</text><text fill="#000000" font-family="Verdana" font-size="14" lengthAdjust="spacing" textLength="51.0303" x="456.48" y="380.9197">(React)</text></g><!--entity mobile--><g class="entity" data-entity="mobile" data-source-line="16" data-uid="ent0010" id="entity_mobile"><rect fill="#FFFFFF" height="52.5938" rx="2.5" ry="2.5" style="stroke:#000000;stroke-width:1;" width="120.8096" x="552.6" y="341.6277"/><text fill="#000000" font-family="Verdana" font-size="14" lengthAdjust="spacing" textLength="77.7246" x="562.6" y="364.6228">Mobile App</text><text fill="#000000" font-family="Verdana" font-size="14" lengthAdjust="spacing" textLength="100.8096" x="562.6" y="380.9197">(React Native)</text></g><!--entity api--><g class="entity" data-entity="api" data-source-line="17" data-uid="ent0011" id="entity_api"><rect fill="#FFFFFF" height="52.5938" rx="2.5" ry="2.5" style="stroke:#000000;stroke-width:1;" width="108.4434" x="445.78" y="538.5677"/><text fill="#000000" font-family="Verdana" font-size="14" lengthAdjust="spacing" textLength="88.4434" x="455.78" y="561.5628">API Gateway</text><text fill="#000000" font-family="Verdana" font-size="14" lengthAdjust="spacing" textLength="80.5137" x="455.78" y="577.8597">(Kong/Istio)</text></g><!--entity designer_app--><g class="entity" data-entity="designer_app" data-source-line="21" data-uid="ent0013" id="entity_designer_app"><rect fill="#FFFFFF" height="52.5938" rx="2.5" ry="2.5" style="stroke:#000000;stroke-width:1;" width="98.5107" x="800.74" y="538.5677"/><text fill="#000000" font-family="Verdana" font-size="14" lengthAdjust="spacing" textLength="78.5107" x="810.74" y="561.5628">Visual Flow</text><text fill="#000000" font-family="Verdana" font-size="14" lengthAdjust="spacing" textLength="62.7061" x="810.74" y="577.8597">Designer</text></g><!--entity orchestrator--><g class="entity" data-entity="orchestrator" data-source-line="22" data-uid="ent0014" id="entity_orchestrator"><rect fill="#FFFFFF" height="52.5938" rx="2.5" ry="2.5" style="stroke:#000000;stroke-width:1;" width="108.8877" x="934.56" y="538.5677"/><text fill="#000000" font-family="Verdana" font-size="14" lengthAdjust="spacing" textLength="41.4395" x="944.56" y="561.5628">Agent</text><text fill="#000000" font-family="Verdana" font-size="14" lengthAdjust="spacing" textLength="88.8877" x="944.56" y="577.8597">Orchestrator</text></g><!--entity deployment--><g class="entity" data-entity="deployment" data-source-line="23" data-uid="ent0015" id="entity_deployment"><rect fill="#FFFFFF" height="52.5938" rx="2.5" ry="2.5" style="stroke:#000000;stroke-width:1;" width="105.6338" x="801.18" y="723.1577"/><text fill="#000000" font-family="Verdana" font-size="14" lengthAdjust="spacing" textLength="85.6338" x="811.18" y="746.1528">Deployment</text><text fill="#000000" font-family="Verdana" font-size="14" lengthAdjust="spacing" textLength="61.3662" x="811.18" y="762.4497">Manager</text></g><!--entity monitoring--><g class="entity" data-entity="monitoring" data-source-line="24" data-uid="ent0016" id="entity_monitoring"><rect fill="#FFFFFF" height="52.5938" rx="2.5" ry="2.5" style="stroke:#000000;stroke-width:1;" width="94.8672" x="941.57" y="723.1577"/><text fill="#000000" font-family="Verdana" font-size="14" lengthAdjust="spacing" textLength="74.8672" x="951.57" y="746.1528">Monitoring</text><text fill="#000000" font-family="Verdana" font-size="14" lengthAdjust="spacing" textLength="51.7412" x="951.57" y="762.4497">Service</text></g><!--entity agents--><g class="entity" data-entity="agents" data-source-line="28" data-uid="ent0018" id="entity_agents"><rect fill="#FFFFFF" height="52.5938" rx="2.5" ry="2.5" style="stroke:#000000;stroke-width:1;" width="93.999" x="446" y="723.1577"/><text fill="#000000" font-family="Verdana" font-size="14" lengthAdjust="spacing" textLength="66.8896" x="456" y="746.1528">AI Agents</text><text fill="#000000" font-family="Verdana" font-size="14" lengthAdjust="spacing" textLength="73.999" x="456" y="762.4497">(A2A/MCP)</text></g><!--entity nodered--><g class="entity" data-entity="nodered" data-source-line="29" data-uid="ent0019" id="entity_nodered"><rect fill="#FFFFFF" height="52.5938" rx="2.5" ry="2.5" style="stroke:#000000;stroke-width:1;" width="90.9434" x="574.53" y="723.1577"/><text fill="#000000" font-family="Verdana" font-size="14" lengthAdjust="spacing" textLength="70.9434" x="584.53" y="746.1528">Node-RED</text><text fill="#000000" font-family="Verdana" font-size="14" lengthAdjust="spacing" textLength="59.1035" x="584.53" y="762.4497">Runtime</text></g><!--entity mlservices--><g class="entity" data-entity="mlservices" data-source-line="30" data-uid="ent0020" id="entity_mlservices"><rect fill="#FFFFFF" height="52.5938" rx="2.5" ry="2.5" style="stroke:#000000;stroke-width:1;" width="103.3643" x="446.32" y="912.7577"/><text fill="#000000" font-family="Verdana" font-size="14" lengthAdjust="spacing" textLength="83.3643" x="456.32" y="935.7528">ML Services</text><text fill="#000000" font-family="Verdana" font-size="14" lengthAdjust="spacing" textLength="59.4521" x="456.32" y="952.0497">(Python)</text></g><!--entity router--><g class="entity" data-entity="router" data-source-line="31" data-uid="ent0021" id="entity_router"><rect fill="#FFFFFF" height="52.5938" rx="2.5" ry="2.5" style="stroke:#000000;stroke-width:1;" width="76.9707" x="584.51" y="912.7577"/><text fill="#000000" font-family="Verdana" font-size="14" lengthAdjust="spacing" textLength="56.9707" x="594.51" y="935.7528">Protocol</text><text fill="#000000" font-family="Verdana" font-size="14" lengthAdjust="spacing" textLength="47.0244" x="594.51" y="952.0497">Router</text></g><!--entity k8s--><g class="entity" data-entity="k8s" data-source-line="35" data-uid="ent0023" id="entity_k8s"><rect fill="#FFFFFF" height="52.5938" rx="2.5" ry="2.5" style="stroke:#000000;stroke-width:1;" width="115.8945" x="776.05" y="912.7577"/><text fill="#000000" font-family="Verdana" font-size="14" lengthAdjust="spacing" textLength="80.1924" x="786.05" y="935.7528">Kubernetes</text><text fill="#000000" font-family="Verdana" font-size="14" lengthAdjust="spacing" textLength="95.8945" x="786.05" y="952.0497">Orchestration</text></g><!--entity servicemesh--><g class="entity" data-entity="servicemesh" data-source-line="36" data-uid="ent0024" id="entity_servicemesh"><rect fill="#FFFFFF" height="52.5938" rx="2.5" ry="2.5" style="stroke:#000000;stroke-width:1;" width="113.0508" x="926.47" y="912.7577"/><text fill="#000000" font-family="Verdana" font-size="14" lengthAdjust="spacing" textLength="93.0508" x="936.47" y="935.7528">Service Mesh</text><text fill="#000000" font-family="Verdana" font-size="14" lengthAdjust="spacing" textLength="40.291" x="936.47" y="952.0497">(Istio)</text></g><!--entity messagequeue--><g class="entity" data-entity="messagequeue" data-source-line="37" data-uid="ent0025" id="entity_messagequeue"><rect fill="#FFFFFF" height="52.5938" rx="2.5" ry="2.5" style="stroke:#000000;stroke-width:1;" width="131.8018" x="773.1" y="1101.8477"/><text fill="#000000" font-family="Verdana" font-size="14" lengthAdjust="spacing" textLength="111.8018" x="783.1" y="1124.8428">Message Queue</text><text fill="#000000" font-family="Verdana" font-size="14" lengthAdjust="spacing" textLength="50.2988" x="783.1" y="1141.1397">(Kafka)</text></g><!--entity prometheus--><g class="entity" data-entity="prometheus" data-source-line="38" data-uid="ent0026" id="entity_prometheus"><rect fill="#FFFFFF" height="52.5938" rx="2.5" ry="2.5" style="stroke:#000000;stroke-width:1;" width="115.0811" x="939.46" y="1101.8477"/><text fill="#000000" font-family="Verdana" font-size="14" lengthAdjust="spacing" textLength="74.8672" x="949.46" y="1124.8428">Monitoring</text><text fill="#000000" font-family="Verdana" font-size="14" lengthAdjust="spacing" textLength="95.0811" x="949.46" y="1141.1397">(Prometheus)</text></g><!--entity sqliteai--><g class="entity" data-entity="sqliteai" data-source-line="43" data-uid="ent0028" id="entity_sqliteai"><path d="M1194.77,1107.3477 C1194.77,1097.3477 1236.998,1097.3477 1236.998,1097.3477 C1236.998,1097.3477 1279.2261,1097.3477 1279.2261,1107.3477 L1279.2261,1148.9414 C1279.2261,1158.9414 1236.998,1158.9414 1236.998,1158.9414 C1236.998,1158.9414 1194.77,1158.9414 1194.77,1148.9414 L1194.77,1107.3477" fill="#FFFFFF" style="stroke:#000000;stroke-width:1;"/><path d="M1194.77,1107.3477 C1194.77,1117.3477 1236.998,1117.3477 1236.998,1117.3477 C1236.998,1117.3477 1279.2261,1117.3477 1279.2261,1107.3477" fill="none" style="stroke:#000000;stroke-width:1;"/><text fill="#000000" font-family="Verdana" font-size="14" lengthAdjust="spacing" textLength="64.4561" x="1204.77" y="1134.3428">SQLite-AI</text><text fill="#000000" font-family="Verdana" font-size="14" lengthAdjust="spacing" textLength="46.1563" x="1204.77" y="1150.6397">(Edge)</text></g><!--entity vectordb--><g class="entity" data-entity="vectordb" data-source-line="44" data-uid="ent0029" id="entity_vectordb"><path d="M1313.75,1107.3477 C1313.75,1097.3477 1360.9956,1097.3477 1360.9956,1097.3477 C1360.9956,1097.3477 1408.2412,1097.3477 1408.2412,1107.3477 L1408.2412,1148.9414 C1408.2412,1158.9414 1360.9956,1158.9414 1360.9956,1158.9414 C1360.9956,1158.9414 1313.75,1158.9414 1313.75,1148.9414 L1313.75,1107.3477" fill="#FFFFFF" style="stroke:#000000;stroke-width:1;"/><path d="M1313.75,1107.3477 C1313.75,1117.3477 1360.9956,1117.3477 1360.9956,1117.3477 C1360.9956,1117.3477 1408.2412,1117.3477 1408.2412,1107.3477" fill="none" style="stroke:#000000;stroke-width:1;"/><text fill="#000000" font-family="Verdana" font-size="14" lengthAdjust="spacing" textLength="70.5332" x="1323.75" y="1134.3428">Vector DB</text><text fill="#000000" font-family="Verdana" font-size="14" lengthAdjust="spacing" textLength="74.4912" x="1323.75" y="1150.6397">(Pinecone)</text></g><!--entity influxdb--><g class="entity" data-entity="influxdb" data-source-line="45" data-uid="ent0030" id="entity_influxdb"><path d="M1182.9,1267.4477 C1182.9,1257.4477 1233.9977,1257.4477 1233.9977,1257.4477 C1233.9977,1257.4477 1285.0953,1257.4477 1285.0953,1267.4477 L1285.0953,1309.0414 C1285.0953,1319.0414 1233.9977,1319.0414 1233.9977,1319.0414 C1233.9977,1319.0414 1182.9,1319.0414 1182.9,1309.0414 L1182.9,1267.4477" fill="#FFFFFF" style="stroke:#000000;stroke-width:1;"/><path d="M1182.9,1267.4477 C1182.9,1277.4477 1233.9977,1277.4477 1233.9977,1277.4477 C1233.9977,1277.4477 1285.0953,1277.4477 1285.0953,1267.4477" fill="none" style="stroke:#000000;stroke-width:1;"/><text fill="#000000" font-family="Verdana" font-size="14" lengthAdjust="spacing" textLength="82.1953" x="1192.9" y="1294.4428">Time Series</text><text fill="#000000" font-family="Verdana" font-size="14" lengthAdjust="spacing" textLength="70.2871" x="1192.9" y="1310.7397">(InfluxDB)</text></g><!--entity objectstorage--><g class="entity" data-entity="objectstorage" data-source-line="46" data-uid="ent0031" id="entity_objectstorage"><path d="M1320.59,1267.4477 C1320.59,1257.4477 1383.0011,1257.4477 1383.0011,1257.4477 C1383.0011,1257.4477 1445.4123,1257.4477 1445.4123,1267.4477 L1445.4123,1309.0414 C1445.4123,1319.0414 1383.0011,1319.0414 1383.0011,1319.0414 C1383.0011,1319.0414 1320.59,1319.0414 1320.59,1309.0414 L1320.59,1267.4477" fill="#FFFFFF" style="stroke:#000000;stroke-width:1;"/><path d="M1320.59,1267.4477 C1320.59,1277.4477 1383.0011,1277.4477 1383.0011,1277.4477 C1383.0011,1277.4477 1445.4123,1277.4477 1445.4123,1267.4477" fill="none" style="stroke:#000000;stroke-width:1;"/><text fill="#000000" font-family="Verdana" font-size="14" lengthAdjust="spacing" textLength="104.8223" x="1330.59" y="1294.4428">Object Storage</text><text fill="#000000" font-family="Verdana" font-size="14" lengthAdjust="spacing" textLength="28.7178" x="1330.59" y="1310.7397">(S3)</text></g><!--entity cloudservices--><g class="entity" data-entity="cloudservices" data-source-line="50" data-uid="ent0033" id="entity_cloudservices"><path d="M44.1689,915.9878 C47.5432,910.3805 52.1831,910.9694 55.9156,915.5759 C60.1219,910.5797 64.4083,909.2294 68.3696,915.839 C70.878,910.6755 75.9942,910.5123 78.7765,915.5598 C82.5843,909.6259 86.3601,910.5778 89.9479,915.7805 C93.0524,910.0809 98.1495,909.7463 101.8772,915.1085 C105.2038,910.5767 109.6901,909.8661 112.9996,915.1279 C116.1424,910.5756 121.117,910.4466 123.5858,915.8449 C127.9545,909.0052 132.423,909.8739 136.6463,915.9915 C140.4738,911.8461 143.9933,911.0701 147.2634,916.6029 C150.7063,911.2835 155.6757,911.2998 158.6796,917.0555 C162.7024,912.1355 166.3855,912.2202 170.2886,917.196 C172.6734,911.8445 177.2163,910.8348 180.6388,916.1933 C187.8505,917.4597 190.9373,922.8776 185.4138,928.9217 C191.9266,930.3537 194.2151,935.1457 189.3774,940.4725 C194.1352,945.5243 192.6541,951.1376 185.442,952.1583 C189.9841,957.7004 187.358,963.0649 180.5535,963.8716 C177.2879,968.7345 173.9856,968.9798 170.4099,964.1977 C167.4817,971.4145 161.5755,970.6107 157.679,965.1718 C155.4851,970.6708 152.3136,972.5119 147.2545,968.2235 C143.5411,973.7167 139.415,972.9703 135.9108,967.9968 C133.07,974.7799 127.7358,974.5109 123.3442,969.6739 C121.1906,975.3582 118.1479,976.4294 113.5289,972.0874 C108.8965,975.612 105.1979,974.9185 102.7459,969.4678 C98.6678,975.2303 93.2199,974.8583 89.4506,969.1112 C86.0773,973.463 81.0847,974.1036 78.8304,967.9771 C73.5911,973.2991 69.6932,972.5424 66.9305,965.5784 C63.9611,970.609 59.1399,969.3022 57.079,964.6537 C53.4906,970.7972 48.0624,970.4197 45.1966,963.9717 C38.1366,961.014 39.1866,954.8974 44.2034,951.014 C39.2421,948.8902 37.5227,943.8267 42.496,940.1427 C37.5473,936.4275 36.9282,930.699 43.335,927.7527 C37.5832,923.6817 38.1586,919.2252 44.1689,915.9878" fill="#FFFFFF" style="stroke:#000000;stroke-width:1;"/><text fill="#000000" font-family="Verdana" font-size="14" lengthAdjust="spacing" textLength="103.4756" x="51.05" y="935.7528">Cloud Services</text><text fill="#000000" font-family="Verdana" font-size="14" lengthAdjust="spacing" textLength="121.8984" x="51.05" y="952.0497">(AWS/Azure/GCP)</text></g><!--entity enterprise--><g class="entity" data-entity="enterprise" data-source-line="51" data-uid="ent0034" id="entity_enterprise"><rect fill="#FFFFFF" height="52.5938" rx="2.5" ry="2.5" style="stroke:#000000;stroke-width:1;" width="92.0166" x="222.99" y="912.7577"/><text fill="#000000" font-family="Verdana" font-size="14" lengthAdjust="spacing" textLength="72.0166" x="232.99" y="935.7528">Enterprise</text><text fill="#000000" font-family="Verdana" font-size="14" lengthAdjust="spacing" textLength="59.5" x="232.99" y="952.0497">Systems</text></g><!--entity iot--><g class="entity" data-entity="iot" data-source-line="52" data-uid="ent0035" id="entity_iot"><rect fill="#FFFFFF" height="52.5938" rx="2.5" ry="2.5" style="stroke:#000000;stroke-width:1;" width="100.8691" x="61.57" y="1101.8477"/><text fill="#000000" font-family="Verdana" font-size="14" lengthAdjust="spacing" textLength="80.8691" x="71.57" y="1124.8428">IoT Devices</text><text fill="#000000" font-family="Verdana" font-size="14" lengthAdjust="spacing" textLength="70.6494" x="71.57" y="1141.1397">&amp; Sensors</text></g><!--entity thirdparty--><g class="entity" data-entity="thirdparty" data-source-line="53" data-uid="ent0036" id="entity_thirdparty"><rect fill="#FFFFFF" height="52.5938" rx="2.5" ry="2.5" style="stroke:#000000;stroke-width:1;" width="98.0049" x="197" y="1101.8477"/><text fill="#000000" font-family="Verdana" font-size="14" lengthAdjust="spacing" textLength="78.0049" x="207" y="1124.8428">Third-party</text><text fill="#000000" font-family="Verdana" font-size="14" lengthAdjust="spacing" textLength="29.4424" x="207" y="1141.1397">APIs</text></g><!--link users to presentation--><g class="link" data-entity-1="users" data-entity-2="presentation" data-source-line="56" data-uid="lnk37" id="link_users_presentation"><path d="M358.2149,148.0127 C359.8445,148.2249 361.6994,148.4691 363.764,148.7451 C372.0224,149.8491 383.636,151.4612 397.6095,153.561 C425.5566,157.7605 462.9431,163.9108 501.8063,171.8489 C579.5325,187.7252 663.165,210.7527 689,239.6277 C698.3975,250.1302 704.3806,263.1727 708.0608,276.8689 C709.9009,283.7171 711.1652,290.7286 711.9927,297.6678 C712.0186,297.8847 711.3561,292.141 711.3811,292.3577" fill="none" id="users-to-presentation" style="stroke:#000000;stroke-width:1;"/><polygon fill="#000000" points="712.069,298.3182,715.0107,288.9189,711.4957,293.3512,707.0635,289.8362,712.069,298.3182" style="stroke:#000000;stroke-width:1;"/><text fill="#000000" font-family="Verdana" font-size="13" lengthAdjust="spacing" textLength="50.502" x="678.2" y="227.6946">interact</text></g><!--link presentation to application--><g class="link" data-entity-1="presentation" data-entity-2="application" data-source-line="57" data-uid="lnk38" id="link_presentation_application"><path d="M717.0643,396.9892 C717.1414,397.2576 717.2189,397.5274 717.2968,397.7987 C717.6085,398.8838 717.9269,399.9919 718.2514,401.1216 C723.4441,419.1974 730.2281,442.8133 737.0113,466.4264 C743.7944,490.0396 750.5766,513.6499 755.7655,531.7144 C756.0898,532.8434 756.4079,533.9508 756.7193,535.0352 C756.7972,535.3063 755.2182,529.8091 755.2952,530.0773" fill="none" id="presentation-to-application" style="stroke:#000000;stroke-width:1;"/><polygon fill="#000000" points="756.9517,535.8441,758.3115,526.0896,755.5713,531.0384,750.6225,528.2982,756.9517,535.8441" style="stroke:#000000;stroke-width:1;"/><text fill="#000000" font-family="Verdana" font-size="13" lengthAdjust="spacing" textLength="56.4751" x="738" y="467.6346">requests</text></g><!--link application to runtime--><g class="link" data-entity-1="application" data-entity-2="runtime" data-source-line="58" data-uid="lnk39" id="link_application_runtime"><path d="M756.9311,581.2846 C756.8849,581.3754 756.8386,581.4665 756.7922,581.5579 C755.3066,584.4832 753.6825,587.7258 751.975,591.2052 C745.145,605.1227 736.98,622.8277 731,639.1577 C722.475,662.4427 715.075,689.2852 709.7575,710.5427 C709.5913,711.207 709.4272,711.8658 709.2651,712.5189 C709.1841,712.8455 710.5433,707.3459 710.4633,707.6696" fill="none" id="application-to-runtime" style="stroke:#000000;stroke-width:1;"/><polygon fill="#000000" points="709.0236,713.4943,715.0664,705.7171,710.2234,708.6404,707.3001,703.7974,709.0236,713.4943" style="stroke:#000000;stroke-width:1;"/><text fill="#000000" font-family="Verdana" font-size="13" lengthAdjust="spacing" textLength="52.1714" x="732" y="652.2246">execute</text></g><!--link runtime to infrastructure--><g class="link" data-entity-1="runtime" data-entity-2="infrastructure" data-source-line="59" data-uid="lnk40" id="link_runtime_infrastructure"><path d="M709.0576,759.2966 C709.1296,759.3722 709.202,759.4482 709.2748,759.5246 C713.9378,764.4114 720.3719,770.8452 728.0563,777.7327 C743.425,791.5077 763.795,807.0977 785,815.7577 C844.23,839.9477 1026.34,802.9477 1071,848.7577 C1074.4225,852.2689 1077.1239,856.268 1079.2298,860.5817 C1080.2828,862.7385 1081.1869,864.974 1081.9579,867.2665 C1082.1506,867.8396 1082.335,868.4163 1082.5113,868.9962 C1082.5554,869.1412 1080.8943,863.5336 1080.9374,863.679" fill="none" id="runtime-to-infrastructure" style="stroke:#000000;stroke-width:1;"/><polygon fill="#000000" points="1082.6421,869.4317,1083.9202,859.6662,1081.2215,864.6378,1076.2499,861.9391,1082.6421,869.4317" style="stroke:#000000;stroke-width:1;"/><text fill="#000000" font-family="Verdana" font-size="13" lengthAdjust="spacing" textLength="43.7607" x="1058.78" y="836.8246">deploy</text></g><!--link infrastructure to datastorage--><g class="link" data-entity-1="infrastructure" data-entity-2="datastorage" data-source-line="60" data-uid="lnk41" id="link_infrastructure_datastorage"><path d="M1087.1022,965.4813 C1087.1439,965.6072 1087.1857,965.7335 1087.2276,965.8601 C1087.8984,967.8859 1088.6019,969.9939 1089.335,972.1702 C1095.2,989.5802 1102.96,1011.3577 1111,1030.3477 C1120.07,1051.7677 1131.615,1075.1477 1141.11,1093.5639 C1143.4838,1098.168 1145.7294,1102.4618 1147.7762,1106.3372 C1148.7996,1108.2749 1149.7733,1110.108 1150.6884,1111.823 C1150.7456,1111.9302 1147.9765,1106.7442 1148.0332,1106.8504" fill="none" id="infrastructure-to-datastorage" style="stroke:#000000;stroke-width:1;"/><polygon fill="#000000" points="1150.8593,1112.1432,1150.1487,1102.32,1148.5043,1107.7326,1143.0917,1106.0881,1150.8593,1112.1432" style="stroke:#000000;stroke-width:1;"/><text fill="#000000" font-family="Verdana" font-size="13" lengthAdjust="spacing" textLength="88.6323" x="1112" y="1026.4146">store/retrieve</text></g><!--link runtime to external--><g class="link" data-entity-1="runtime" data-entity-2="external" data-source-line="61" data-uid="lnk42" id="link_runtime_external"><path d="M421.9913,853.4357 C421.8167,853.5475 421.6422,853.6598 421.468,853.7727 C418.6809,855.5779 415.952,857.5086 413.2858,859.5407 C407.9533,863.6048 402.8713,868.0741 398.0744,872.7549 C388.4806,882.1164 380.0275,892.3239 372.9925,901.8277 C369.475,906.5796 366.312,911.1555 363.5383,915.3618 C362.1514,917.4649 360.8618,919.4757 359.6739,921.3698 C359.3769,921.8433 359.0863,922.3095 358.8021,922.7681 C358.66,922.9974 358.5195,923.2248 358.3806,923.4502 C358.3112,923.5629 358.2421,923.6751 358.1735,923.7868 C358.1392,923.8427 361.2425,918.7841 361.2084,918.8397" fill="none" id="runtime-to-external" style="stroke:#000000;stroke-width:1;"/><polygon fill="#000000" points="358.0708,923.954,366.1867,918.3743,360.6855,919.6921,359.3677,914.1909,358.0708,923.954" style="stroke:#000000;stroke-width:1;"/><text fill="#000000" font-family="Verdana" font-size="13" lengthAdjust="spacing" textLength="59.6045" x="666.75" y="836.8246">integrate</text></g><!--SRC=[VLL9Rzf05BxxLqof52K7XDHU8WwL7A089IGaPBaWLMFxOQROCyui45hbl_VDU0nUK0y8vdlxznQ-w0taG8gCCXweBUC5bJGd4OstgHI69oEH2Kc-hg_Nw_Lr46YcCo2lJ1cQJILBnh0ZIsqI9aYVJ863f1bP7fI6d8GotZ0DiJRIci0-2E9Cc8JqNXH8HIx8A6F0jUeHgeXnsD-041fh3DdpNiQWM8f-dLBY7oUjCTMKB6FhXobTAY6aAgIc2Rk7Gf49Jnc7ex-TADH9vyOe52f5R8PE8_98y1a44ckXF4K2UcSPM6HKhuNCdM7X7wwackL2WiBKg6Q2apjwy76AEcnD6aPl496NsOfVFW5cUkKizX0PrbQSYuZXTrWKbJAvHvyxA6ro9suRXOiPcL8DUtf0grl1qy5COIAb3Irib4_yD0l161cBstNG6jefesID_Cp4ViNFDlONsdVIIv6O5N_0SGAb9SLEEHjH0zesOoWoSSYTuPnocXxZL7YNESxG4UFfYYz1xbWCdh8AFyl2ay4nmmqwCI0zqga-d15NYaAIms_XO3vQU8OTsbQ_5mdqdoRZ5VSnd2v7L4BIoVwE-AIjzyL1RmJtBS-K5xHj5b9e4OiC0mYZg-pTpxEbplXQKkJRb1jzgfWr1Pt2Rqq4aeEskPswY1FYhBVNdSnyAMGEQeFbr8RHrvAZe4C1RYaoIHuD6B1pJDTRwZaeHUzMyh- -No8bEU19DEhARsNrTemqRu0xFHUu_4AYyzFfAT-E1lkEgB8bFTxXBUo7TeadIUhtKRrdY5BMK7q5Tup6DpOXF3wnu5vzvoH9r51_jiE6Z37NUcnIPZx6DrTLP_3LCdY8VgEVAc-qMNuljOKJ-FnRnKu-S2puyRYNDnigqDRgR_l8VTM6CNnR3i8_E1Y3QJNmJhKsblKu75qMaYbCh17gYBU6KZpZNuIFXSq0heGiJPZGJTtd3PD97__XDDuvF7gbchQe0st9vTzGl_-ZUP67I2KcWFSqQE1MiNxoXXWFnqpXEjTXgrRTXI7I1Z5kML0XLjhQeQ6_L44Bjwhr8HiI-mi64ZGEmAxfyzYUCliKbmw2Vm00]--></g></svg>