<svg xmlns="http://www.w3.org/2000/svg" xmlns:xlink="http://www.w3.org/1999/xlink" contentStyleType="text/css" data-diagram-type="DESCRIPTION" height="812px" preserveAspectRatio="none" style="width:733px;height:812px;background:#FFFFFF;" version="1.1" viewBox="0 0 733 812" width="733px" zoomAndPan="magnify"><title>Data Flow Network Architecture</title><defs/><g><g class="title" data-source-line="1"><text fill="#000000" font-family="sans-serif" font-size="14" font-weight="bold" lengthAdjust="spacing" textLength="253.7637" x="232.6182" y="22.9951">Data Flow Network Architecture</text></g><!--cluster Data Sources--><g class="cluster" data-entity="Data Sources" data-source-line="3" data-uid="ent0002" id="cluster_Data Sources"><path d="M128.5,43.2969 L234.2813,43.2969 A3.75,3.75 0 0 1 236.7813,45.7969 L243.7813,65.5938 L592.5,65.5938 A2.5,2.5 0 0 1 595,68.0938 L595,138.0969 A2.5,2.5 0 0 1 592.5,140.5969 L128.5,140.5969 A2.5,2.5 0 0 1 126,138.0969 L126,45.7969 A2.5,2.5 0 0 1 128.5,43.2969" fill="none" style="stroke:#000000;stroke-width:1.5;"/><line style="stroke:#000000;stroke-width:1.5;" x1="126" x2="243.7813" y1="65.5938" y2="65.5938"/><text fill="#000000" font-family="sans-serif" font-size="14" font-weight="bold" lengthAdjust="spacing" textLength="104.7813" x="130" y="58.292">Data Sources</text></g><!--cluster Edge Layer--><g class="cluster" data-entity="Edge Layer" data-source-line="9" data-uid="ent0006" id="cluster_Edge Layer"><path d="M124.5,189.5969 L213.3691,189.5969 A3.75,3.75 0 0 1 215.8691,192.0969 L222.8691,211.8937 L307.5,211.8937 A2.5,2.5 0 0 1 310,214.3937 L310,553.9869 A2.5,2.5 0 0 1 307.5,556.4869 L124.5,556.4869 A2.5,2.5 0 0 1 122,553.9869 L122,192.0969 A2.5,2.5 0 0 1 124.5,189.5969" fill="none" style="stroke:#000000;stroke-width:1.5;"/><line style="stroke:#000000;stroke-width:1.5;" x1="122" x2="222.8691" y1="211.8937" y2="211.8937"/><text fill="#000000" font-family="sans-serif" font-size="14" font-weight="bold" lengthAdjust="spacing" textLength="87.8691" x="126" y="204.592">Edge Layer</text></g><!--cluster Streaming Layer--><g class="cluster" data-entity="Streaming Layer" data-source-line="15" data-uid="ent0010" id="cluster_Streaming Layer"><path d="M383.5,189.5969 L515.2646,189.5969 A3.75,3.75 0 0 1 517.7646,192.0969 L524.7646,211.8937 L723.5,211.8937 A2.5,2.5 0 0 1 726,214.3937 L726,407.6869 A2.5,2.5 0 0 1 723.5,410.1869 L383.5,410.1869 A2.5,2.5 0 0 1 381,407.6869 L381,192.0969 A2.5,2.5 0 0 1 383.5,189.5969" fill="none" style="stroke:#000000;stroke-width:1.5;"/><line style="stroke:#000000;stroke-width:1.5;" x1="381" x2="524.7646" y1="211.8937" y2="211.8937"/><text fill="#000000" font-family="sans-serif" font-size="14" font-weight="bold" lengthAdjust="spacing" textLength="130.7646" x="385" y="204.592">Streaming Layer</text></g><!--cluster Cloud Layer--><g class="cluster" data-entity="Cloud Layer" data-source-line="21" data-uid="ent0014" id="cluster_Cloud Layer"><path d="M390.5,459.1869 L484.9473,459.1869 A3.75,3.75 0 0 1 487.4473,461.6869 L494.4473,481.4838 L541.5,481.4838 A2.5,2.5 0 0 1 544,483.9838 L544,802.5769 A2.5,2.5 0 0 1 541.5,805.0769 L390.5,805.0769 A2.5,2.5 0 0 1 388,802.5769 L388,461.6869 A2.5,2.5 0 0 1 390.5,459.1869" fill="none" style="stroke:#000000;stroke-width:1.5;"/><line style="stroke:#000000;stroke-width:1.5;" x1="388" x2="494.4473" y1="481.4838" y2="481.4838"/><text fill="#000000" font-family="sans-serif" font-size="14" font-weight="bold" lengthAdjust="spacing" textLength="93.4473" x="392" y="474.182">Cloud Layer</text></g><!--entity Sensors--><g class="entity" data-entity="Sensors" data-source-line="4" data-uid="ent0003" id="entity_Sensors"><rect fill="#F1F1F1" height="46.2969" rx="2.5" ry="2.5" style="stroke:#181818;stroke-width:0.5;" width="120.9785" x="141.51" y="78.2969"/><rect fill="#F1F1F1" height="10" style="stroke:#181818;stroke-width:0.5;" width="15" x="242.4885" y="83.2969"/><rect fill="#F1F1F1" height="2" style="stroke:#181818;stroke-width:0.5;" width="4" x="240.4885" y="85.2969"/><rect fill="#F1F1F1" height="2" style="stroke:#181818;stroke-width:0.5;" width="4" x="240.4885" y="89.2969"/><text fill="#000000" font-family="sans-serif" font-size="14" lengthAdjust="spacing" textLength="80.9785" x="156.51" y="111.292">IoT Sensors</text></g><!--entity APIs--><g class="entity" data-entity="APIs" data-source-line="5" data-uid="ent0004" id="entity_APIs"><rect fill="#F1F1F1" height="46.2969" rx="2.5" ry="2.5" style="stroke:#181818;stroke-width:0.5;" width="132.2236" x="446.89" y="78.2969"/><rect fill="#F1F1F1" height="10" style="stroke:#181818;stroke-width:0.5;" width="15" x="559.1136" y="83.2969"/><rect fill="#F1F1F1" height="2" style="stroke:#181818;stroke-width:0.5;" width="4" x="557.1136" y="85.2969"/><rect fill="#F1F1F1" height="2" style="stroke:#181818;stroke-width:0.5;" width="4" x="557.1136" y="89.2969"/><text fill="#000000" font-family="sans-serif" font-size="14" lengthAdjust="spacing" textLength="92.2236" x="461.89" y="111.292">External APIs</text></g><!--entity DBs--><g class="entity" data-entity="DBs" data-source-line="6" data-uid="ent0005" id="entity_DBs"><rect fill="#F1F1F1" height="46.2969" rx="2.5" ry="2.5" style="stroke:#181818;stroke-width:0.5;" width="114.0947" x="297.95" y="78.2969"/><rect fill="#F1F1F1" height="10" style="stroke:#181818;stroke-width:0.5;" width="15" x="392.0447" y="83.2969"/><rect fill="#F1F1F1" height="2" style="stroke:#181818;stroke-width:0.5;" width="4" x="390.0447" y="85.2969"/><rect fill="#F1F1F1" height="2" style="stroke:#181818;stroke-width:0.5;" width="4" x="390.0447" y="89.2969"/><text fill="#000000" font-family="sans-serif" font-size="14" lengthAdjust="spacing" textLength="74.0947" x="312.95" y="111.292">Databases</text></g><!--entity EdgeAgents--><g class="entity" data-entity="EdgeAgents" data-source-line="10" data-uid="ent0007" id="entity_EdgeAgents"><rect fill="#F1F1F1" height="46.2969" rx="2.5" ry="2.5" style="stroke:#181818;stroke-width:0.5;" width="128.416" x="137.79" y="224.5969"/><rect fill="#F1F1F1" height="10" style="stroke:#181818;stroke-width:0.5;" width="15" x="246.206" y="229.5969"/><rect fill="#F1F1F1" height="2" style="stroke:#181818;stroke-width:0.5;" width="4" x="244.206" y="231.5969"/><rect fill="#F1F1F1" height="2" style="stroke:#181818;stroke-width:0.5;" width="4" x="244.206" y="235.5969"/><text fill="#000000" font-family="sans-serif" font-size="14" lengthAdjust="spacing" textLength="88.416" x="152.79" y="257.592">Edge Agents</text></g><!--entity EdgeDB--><g class="entity" data-entity="EdgeDB" data-source-line="11" data-uid="ent0008" id="entity_EdgeDB"><rect fill="#F1F1F1" height="46.2969" rx="2.5" ry="2.5" style="stroke:#181818;stroke-width:0.5;" width="104.4561" x="140.77" y="347.8869"/><rect fill="#F1F1F1" height="10" style="stroke:#181818;stroke-width:0.5;" width="15" x="225.2261" y="352.8869"/><rect fill="#F1F1F1" height="2" style="stroke:#181818;stroke-width:0.5;" width="4" x="223.2261" y="354.8869"/><rect fill="#F1F1F1" height="2" style="stroke:#181818;stroke-width:0.5;" width="4" x="223.2261" y="358.8869"/><text fill="#000000" font-family="sans-serif" font-size="14" lengthAdjust="spacing" textLength="64.4561" x="155.77" y="380.882">SQLite-AI</text></g><!--entity LocalProc--><g class="entity" data-entity="LocalProc" data-source-line="12" data-uid="ent0009" id="entity_LocalProc"><rect fill="#F1F1F1" height="46.2969" rx="2.5" ry="2.5" style="stroke:#181818;stroke-width:0.5;" width="156.293" x="137.85" y="494.1869"/><rect fill="#F1F1F1" height="10" style="stroke:#181818;stroke-width:0.5;" width="15" x="274.143" y="499.1869"/><rect fill="#F1F1F1" height="2" style="stroke:#181818;stroke-width:0.5;" width="4" x="272.143" y="501.1869"/><rect fill="#F1F1F1" height="2" style="stroke:#181818;stroke-width:0.5;" width="4" x="272.143" y="505.1869"/><text fill="#000000" font-family="sans-serif" font-size="14" lengthAdjust="spacing" textLength="116.293" x="152.85" y="527.182">Local Processing</text></g><!--entity Kafka--><g class="entity" data-entity="Kafka" data-source-line="16" data-uid="ent0011" id="entity_Kafka"><rect fill="#F1F1F1" height="46.2969" rx="2.5" ry="2.5" style="stroke:#181818;stroke-width:0.5;" width="136.0518" x="396.97" y="224.5969"/><rect fill="#F1F1F1" height="10" style="stroke:#181818;stroke-width:0.5;" width="15" x="513.0218" y="229.5969"/><rect fill="#F1F1F1" height="2" style="stroke:#181818;stroke-width:0.5;" width="4" x="511.0218" y="231.5969"/><rect fill="#F1F1F1" height="2" style="stroke:#181818;stroke-width:0.5;" width="4" x="511.0218" y="235.5969"/><text fill="#000000" font-family="sans-serif" font-size="14" lengthAdjust="spacing" textLength="96.0518" x="411.97" y="257.592">Apache Kafka</text></g><!--entity Flink--><g class="entity" data-entity="Flink" data-source-line="17" data-uid="ent0012" id="entity_Flink"><rect fill="#F1F1F1" height="46.2969" rx="2.5" ry="2.5" style="stroke:#181818;stroke-width:0.5;" width="129.4893" x="451.26" y="347.8869"/><rect fill="#F1F1F1" height="10" style="stroke:#181818;stroke-width:0.5;" width="15" x="560.7493" y="352.8869"/><rect fill="#F1F1F1" height="2" style="stroke:#181818;stroke-width:0.5;" width="4" x="558.7493" y="354.8869"/><rect fill="#F1F1F1" height="2" style="stroke:#181818;stroke-width:0.5;" width="4" x="558.7493" y="358.8869"/><text fill="#000000" font-family="sans-serif" font-size="14" lengthAdjust="spacing" textLength="89.4893" x="466.26" y="380.882">Apache Flink</text></g><!--entity Redis--><g class="entity" data-entity="Redis" data-source-line="18" data-uid="ent0013" id="entity_Redis"><rect fill="#F1F1F1" height="46.2969" rx="2.5" ry="2.5" style="stroke:#181818;stroke-width:0.5;" width="141.1172" x="568.44" y="224.5969"/><rect fill="#F1F1F1" height="10" style="stroke:#181818;stroke-width:0.5;" width="15" x="689.5572" y="229.5969"/><rect fill="#F1F1F1" height="2" style="stroke:#181818;stroke-width:0.5;" width="4" x="687.5572" y="231.5969"/><rect fill="#F1F1F1" height="2" style="stroke:#181818;stroke-width:0.5;" width="4" x="687.5572" y="235.5969"/><text fill="#000000" font-family="sans-serif" font-size="14" lengthAdjust="spacing" textLength="101.1172" x="583.44" y="257.592">Redis Streams</text></g><!--entity MLPipe--><g class="entity" data-entity="MLPipe" data-source-line="22" data-uid="ent0015" id="entity_MLPipe"><rect fill="#F1F1F1" height="46.2969" rx="2.5" ry="2.5" style="stroke:#181818;stroke-width:0.5;" width="119.4268" x="404.29" y="619.4869"/><rect fill="#F1F1F1" height="10" style="stroke:#181818;stroke-width:0.5;" width="15" x="503.7168" y="624.4869"/><rect fill="#F1F1F1" height="2" style="stroke:#181818;stroke-width:0.5;" width="4" x="501.7168" y="626.4869"/><rect fill="#F1F1F1" height="2" style="stroke:#181818;stroke-width:0.5;" width="4" x="501.7168" y="630.4869"/><text fill="#000000" font-family="sans-serif" font-size="14" lengthAdjust="spacing" textLength="79.4268" x="419.29" y="652.482">ML Pipeline</text></g><!--entity DataLake--><g class="entity" data-entity="DataLake" data-source-line="23" data-uid="ent0016" id="entity_DataLake"><rect fill="#F1F1F1" height="46.2969" rx="2.5" ry="2.5" style="stroke:#181818;stroke-width:0.5;" width="110.9775" x="410.51" y="494.1869"/><rect fill="#F1F1F1" height="10" style="stroke:#181818;stroke-width:0.5;" width="15" x="501.4875" y="499.1869"/><rect fill="#F1F1F1" height="2" style="stroke:#181818;stroke-width:0.5;" width="4" x="499.4875" y="501.1869"/><rect fill="#F1F1F1" height="2" style="stroke:#181818;stroke-width:0.5;" width="4" x="499.4875" y="505.1869"/><text fill="#000000" font-family="sans-serif" font-size="14" lengthAdjust="spacing" textLength="70.9775" x="425.51" y="527.182">Data Lake</text></g><!--entity Analytics--><g class="entity" data-entity="Analytics" data-source-line="24" data-uid="ent0017" id="entity_Analytics"><rect fill="#F1F1F1" height="46.2969" rx="2.5" ry="2.5" style="stroke:#181818;stroke-width:0.5;" width="103.5742" x="404.21" y="742.7769"/><rect fill="#F1F1F1" height="10" style="stroke:#181818;stroke-width:0.5;" width="15" x="487.7842" y="747.7769"/><rect fill="#F1F1F1" height="2" style="stroke:#181818;stroke-width:0.5;" width="4" x="485.7842" y="749.7769"/><rect fill="#F1F1F1" height="2" style="stroke:#181818;stroke-width:0.5;" width="4" x="485.7842" y="753.7769"/><text fill="#000000" font-family="sans-serif" font-size="14" lengthAdjust="spacing" textLength="63.5742" x="419.21" y="775.772">Analytics</text></g><!--link Sensors to EdgeAgents--><g class="link" data-entity-1="Sensors" data-entity-2="EdgeAgents" data-source-line="27" data-uid="lnk18" id="link_Sensors_EdgeAgents"><path d="M202,124.9869 C202,152.0969 202,191.3169 202,218.3569" fill="none" id="Sensors-to-EdgeAgents" style="stroke:#181818;stroke-width:1;"/><polygon fill="#181818" points="202,224.3569,206,215.3569,202,219.3569,198,215.3569,202,224.3569" style="stroke:#181818;stroke-width:1;"/><text fill="#000000" font-family="sans-serif" font-size="13" lengthAdjust="spacing" textLength="96.0845" x="203" y="169.6638">Real-time data</text></g><!--link APIs to Kafka--><g class="link" data-entity-1="APIs" data-entity-2="Kafka" data-source-line="28" data-uid="lnk19" id="link_APIs_Kafka"><path d="M505.5,124.9869 C496.48,152.0969 483.3329,191.6233 474.3429,218.6633" fill="none" id="APIs-to-Kafka" style="stroke:#181818;stroke-width:1;"/><polygon fill="#181818" points="472.45,224.3569,479.0851,217.0785,474.0275,219.6122,471.4937,214.5546,472.45,224.3569" style="stroke:#181818;stroke-width:1;"/><text fill="#000000" font-family="sans-serif" font-size="13" lengthAdjust="spacing" textLength="68.4976" x="495.71" y="169.6638">API events</text></g><!--link DBs to Kafka--><g class="link" data-entity-1="DBs" data-entity-2="Kafka" data-source-line="29" data-uid="lnk20" id="link_DBs_Kafka"><path d="M357.35,125.0869 C359.74,139.8569 364.51,159.0269 374,173.5969 C387.39,194.1469 403.5055,208.208 421.9955,220.918" fill="none" id="DBs-to-Kafka" style="stroke:#181818;stroke-width:1;"/><polygon fill="#181818" points="426.94,224.3169,421.7892,215.9223,422.8196,221.4845,417.2574,222.515,426.94,224.3169" style="stroke:#181818;stroke-width:1;"/><text fill="#000000" font-family="sans-serif" font-size="13" lengthAdjust="spacing" textLength="106.52" x="375" y="169.6638">Change streams</text></g><!--link EdgeAgents to EdgeDB--><g class="link" data-entity-1="EdgeAgents" data-entity-2="EdgeDB" data-source-line="30" data-uid="lnk21" id="link_EdgeAgents_EdgeDB"><path d="M200.33,271.2669 C198.71,293.0569 196.7257,319.8934 195.1057,341.6434" fill="none" id="EdgeAgents-to-EdgeDB" style="stroke:#181818;stroke-width:1;"/><polygon fill="#181818" points="194.66,347.6269,199.3174,338.9488,195.0314,342.6407,191.3395,338.3546,194.66,347.6269" style="stroke:#181818;stroke-width:1;"/><text fill="#000000" font-family="sans-serif" font-size="13" lengthAdjust="spacing" textLength="87.439" x="199.04" y="313.9538">Local storage</text></g><!--link EdgeDB to LocalProc--><g class="link" data-entity-1="EdgeDB" data-entity-2="LocalProc" data-source-line="31" data-uid="lnk22" id="link_EdgeDB_LocalProc"><path d="M196.59,394.5869 C200.91,421.6969 207.1756,460.9817 211.4856,488.0217" fill="none" id="EdgeDB-to-LocalProc" style="stroke:#181818;stroke-width:1;"/><polygon fill="#181818" points="212.43,493.9469,214.9635,484.4294,211.643,489.0092,207.0632,485.6887,212.43,493.9469" style="stroke:#181818;stroke-width:1;"/><text fill="#000000" font-family="sans-serif" font-size="13" lengthAdjust="spacing" textLength="78.0127" x="204.81" y="439.2538">AI inference</text></g><!--link LocalProc to Kafka--><g class="link" data-entity-1="LocalProc" data-entity-2="Kafka" data-source-line="32" data-uid="lnk23" id="link_LocalProc_Kafka"><path d="M244.36,493.8969 C259.96,480.4669 278.76,462.3069 292,443.1869 C318.24,405.2769 304.5,384.1269 333,347.8869 C358.07,316.0069 390.6447,292.239 419.3447,274.519" fill="none" id="LocalProc-to-Kafka" style="stroke:#181818;stroke-width:1;"/><polygon fill="#181818" points="424.45,271.3669,414.6906,272.6915,420.1956,273.9936,418.8935,279.4986,424.45,271.3669" style="stroke:#181818;stroke-width:1;"/><text fill="#000000" font-family="sans-serif" font-size="13" lengthAdjust="spacing" textLength="99.4932" x="334" y="375.6038">Processed data</text></g><!--link Kafka to Flink--><g class="link" data-entity-1="Kafka" data-entity-2="Flink" data-source-line="33" data-uid="lnk24" id="link_Kafka_Flink"><path d="M474.47,271.2669 C483.63,293.0569 495.1034,320.3463 504.2534,342.0963" fill="none" id="Kafka-to-Flink" style="stroke:#181818;stroke-width:1;"/><polygon fill="#181818" points="506.58,347.6269,506.7771,337.78,504.6411,343.0181,499.403,340.8822,506.58,347.6269" style="stroke:#181818;stroke-width:1;"/><text fill="#000000" font-family="sans-serif" font-size="13" lengthAdjust="spacing" textLength="121.7988" x="494.55" y="313.9538">Stream processing</text></g><!--link Flink to DataLake--><g class="link" data-entity-1="Flink" data-entity-2="DataLake" data-source-line="34" data-uid="lnk25" id="link_Flink_DataLake"><path d="M508.19,394.5869 C498.79,421.6969 485.0945,461.2376 475.7245,488.2776" fill="none" id="Flink-to-DataLake" style="stroke:#181818;stroke-width:1;"/><polygon fill="#181818" points="473.76,493.9469,480.4863,486.7527,475.3971,489.2225,472.9273,484.1333,473.76,493.9469" style="stroke:#181818;stroke-width:1;"/><text fill="#000000" font-family="sans-serif" font-size="13" lengthAdjust="spacing" textLength="109.7192" x="497.95" y="439.2538">Aggregated data</text></g><!--link DataLake to MLPipe--><g class="link" data-entity-1="DataLake" data-entity-2="MLPipe" data-source-line="35" data-uid="lnk26" id="link_DataLake_MLPipe"><path d="M465.63,540.9469 C465.27,563.1969 464.8173,590.9677 464.4573,613.1577" fill="none" id="DataLake-to-MLPipe" style="stroke:#181818;stroke-width:1;"/><polygon fill="#181818" points="464.36,619.1569,468.5055,610.2229,464.4411,614.1575,460.5065,610.0932,464.36,619.1569" style="stroke:#181818;stroke-width:1;"/><text fill="#000000" font-family="sans-serif" font-size="13" lengthAdjust="spacing" textLength="86.6201" x="466.12" y="585.5538">Training data</text></g><!--link MLPipe to Analytics--><g class="link" data-entity-1="MLPipe" data-entity-2="Analytics" data-source-line="36" data-uid="lnk27" id="link_MLPipe_Analytics"><path d="M462.51,666.1669 C461.08,687.9469 459.3038,714.7898 457.8738,736.5298" fill="none" id="MLPipe-to-Analytics" style="stroke:#181818;stroke-width:1;"/><polygon fill="#181818" points="457.48,742.5169,462.0621,733.7988,457.8082,737.5277,454.0793,733.2737,457.48,742.5169" style="stroke:#181818;stroke-width:1;"/><text fill="#000000" font-family="sans-serif" font-size="13" lengthAdjust="spacing" textLength="87.001" x="461.48" y="708.8438">Model results</text></g><!--link Analytics to EdgeAgents--><g class="link" data-entity-1="Analytics" data-entity-2="EdgeAgents" data-source-line="37" data-uid="lnk28" id="link_Analytics_EdgeAgents"><path d="M403.94,761.8969 C285.49,753.5569 6,725.2569 6,643.6269 C6,370.0369 6,370.0369 6,370.0369 C6,306.9069 74.6117,277.0316 131.7417,262.2316" fill="none" id="Analytics-to-EdgeAgents" style="stroke:#181818;stroke-width:1;"/><polygon fill="#181818" points="137.55,260.7269,127.8345,259.1117,132.7098,261.9808,129.8407,266.8561,137.55,260.7269" style="stroke:#181818;stroke-width:1;"/><text fill="#000000" font-family="sans-serif" font-size="13" lengthAdjust="spacing" textLength="95.7417" x="7" y="521.9038">Model updates</text></g><!--SRC=[TPBDRi8m3CVlUGgBEo-mmwJo9Q6LYGrkqmvPQqhKabH9EeQclVlif2rGW0EAxL_jlp-yyXN2J7e9YyeSuHNzqTWI4fljbSVCDnQ5g6LMoW9X5C2DQMo6RWI_0kYNcKDjD6eF7qkpXGrgPwpx1Ecwzn2R_tYqMbQGh9SHvCUGubfVqc4aPXCd_YwKp7FwJ-K9xHqT8PWKz8uVintD8RbvIwdDSRBikTbaoAGc8wrhQwXfftGHqE1atvMgZRSe3yGyb9OGkqTuaRjIXaJXzO1QL4gNWGgl8VMEkQ8XXvgnqU2vKZIjJ9C_LBDAOQrgfEGOlb-bRDxR1AKe8yCM6pUQQQCdhx9sevt5QjexWF7u-M8Ny4HwPJNswe2GKrR1Pn2WC1IAamFmEooE3k0gDDrBJGswsBsuIDjLcKq8YyjptbWQXsZTJFGBv39BK7g75dM6uXouBDUk7_EeDBeP29iX8Au1wlvCH8mmqusCInM5nKBwBb4VOYwEdwYjbKhp6GMcTJFHZvMWbScn0ekkgMW-vyZDb2FOr9GCdVW7]--></g></svg>