<svg xmlns="http://www.w3.org/2000/svg" xmlns:xlink="http://www.w3.org/1999/xlink" contentStyleType="text/css" data-diagram-type="SEQUENCE" height="760px" preserveAspectRatio="none" style="width:1158px;height:760px;background:#FFFEF7;" version="1.1" viewBox="0 0 1158 760" width="1158px" zoomAndPan="magnify"><title>VisualGridDev Studio - End-to-End Message Flow</title><defs/><g><rect fill="#FFFEF7" height="760" style="stroke:none;stroke-width:1;" width="1158" x="0" y="0"/><text fill="#000000" font-family="Verdana" font-size="22" font-weight="bold" lengthAdjust="spacing" textLength="606.5791" x="280.2019" y="35.4209">VisualGridDev Studio - End-to-End Message Flow</text><rect fill="#FFFFFF" height="125.6641" style="stroke:#000000;stroke-width:1;" width="1035.2983" x="117.6846" y="582.5625"/><g><title>IoT Sensor</title><rect fill="#000000" fill-opacity="0.00000" height="642.3203" width="8" x="59.8423" y="82.9063"/><line style="stroke:#000000;stroke-width:1;" x1="63" x2="63" y1="82.9063" y2="725.2266"/></g><g><title>Edge Agent</title><rect fill="#000000" fill-opacity="0.00000" height="642.3203" width="8" x="181.2456" y="82.9063"/><line style="stroke:#000000;stroke-width:1;" x1="184.6846" x2="184.6846" y1="82.9063" y2="725.2266"/></g><g><title>Kafka Stream</title><rect fill="#000000" fill-opacity="0.00000" height="642.3203" width="8" x="313.2002" y="82.9063"/><line style="stroke:#000000;stroke-width:1;" x1="316.8066" x2="316.8066" y1="82.9063" y2="725.2266"/></g><g><title>Flow Engine</title><rect fill="#000000" fill-opacity="0.00000" height="642.3203" width="8" x="446.7886" y="82.9063"/><line style="stroke:#000000;stroke-width:1;" x1="450.5938" x2="450.5938" y1="82.9063" y2="725.2266"/></g><g><title>AI Service</title><rect fill="#000000" fill-opacity="0.00000" height="642.3203" width="8" x="567.9321" y="82.9063"/><line style="stroke:#000000;stroke-width:1;" x1="570.9834" x2="570.9834" y1="82.9063" y2="725.2266"/></g><g><title>Database</title><rect fill="#000000" fill-opacity="0.00000" height="642.3203" width="8" x="680.2813" y="82.9063"/><line style="stroke:#000000;stroke-width:1;" x1="683.8809" x2="683.8809" y1="82.9063" y2="725.2266"/></g><g><title>Dashboard</title><rect fill="#000000" fill-opacity="0.00000" height="642.3203" width="8" x="795.7817" y="82.9063"/><line style="stroke:#000000;stroke-width:1;" x1="799.6816" x2="799.6816" y1="82.9063" y2="725.2266"/></g><g><title>Alert System</title><rect fill="#000000" fill-opacity="0.00000" height="642.3203" width="8" x="922.8726" y="82.9063"/><line style="stroke:#000000;stroke-width:1;" x1="925.8818" x2="925.8818" y1="82.9063" y2="725.2266"/></g><g class="participant participant-head" data-participant="sensor"><rect fill="#FFFFFF" height="30.2969" rx="2.5" ry="2.5" style="stroke:#000000;stroke-width:1;" width="87.6846" x="20" y="51.6094"/><text fill="#000000" font-family="Verdana" font-size="14" lengthAdjust="spacing" textLength="73.6846" x="27" y="71.6045">IoT Sensor</text></g><g class="participant participant-tail" data-participant="sensor"><rect fill="#FFFFFF" height="30.2969" rx="2.5" ry="2.5" style="stroke:#000000;stroke-width:1;" width="87.6846" x="20" y="724.2266"/><text fill="#000000" font-family="Verdana" font-size="14" lengthAdjust="spacing" textLength="73.6846" x="27" y="744.2217">IoT Sensor</text></g><g class="participant participant-head" data-participant="edge"><rect fill="#FFFFFF" height="30.2969" rx="2.5" ry="2.5" style="stroke:#000000;stroke-width:1;" width="95.1221" x="137.6846" y="51.6094"/><text fill="#000000" font-family="Verdana" font-size="14" lengthAdjust="spacing" textLength="81.1221" x="144.6846" y="71.6045">Edge Agent</text></g><g class="participant participant-tail" data-participant="edge"><rect fill="#FFFFFF" height="30.2969" rx="2.5" ry="2.5" style="stroke:#000000;stroke-width:1;" width="95.1221" x="137.6846" y="724.2266"/><text fill="#000000" font-family="Verdana" font-size="14" lengthAdjust="spacing" textLength="81.1221" x="144.6846" y="744.2217">Edge Agent</text></g><g class="participant participant-head" data-participant="kafka"><rect fill="#FFFFFF" height="30.2969" rx="2.5" ry="2.5" style="stroke:#000000;stroke-width:1;" width="108.7871" x="262.8066" y="51.6094"/><text fill="#000000" font-family="Verdana" font-size="14" lengthAdjust="spacing" textLength="94.7871" x="269.8066" y="71.6045">Kafka Stream</text></g><g class="participant participant-tail" data-participant="kafka"><rect fill="#FFFFFF" height="30.2969" rx="2.5" ry="2.5" style="stroke:#000000;stroke-width:1;" width="108.7871" x="262.8066" y="724.2266"/><text fill="#000000" font-family="Verdana" font-size="14" lengthAdjust="spacing" textLength="94.7871" x="269.8066" y="744.2217">Kafka Stream</text></g><g class="participant participant-head" data-participant="flow"><rect fill="#FFFFFF" height="30.2969" rx="2.5" ry="2.5" style="stroke:#000000;stroke-width:1;" width="98.3896" x="401.5938" y="51.6094"/><text fill="#000000" font-family="Verdana" font-size="14" lengthAdjust="spacing" textLength="84.3896" x="408.5938" y="71.6045">Flow Engine</text></g><g class="participant participant-tail" data-participant="flow"><rect fill="#FFFFFF" height="30.2969" rx="2.5" ry="2.5" style="stroke:#000000;stroke-width:1;" width="98.3896" x="401.5938" y="724.2266"/><text fill="#000000" font-family="Verdana" font-size="14" lengthAdjust="spacing" textLength="84.3896" x="408.5938" y="744.2217">Flow Engine</text></g><g class="participant participant-head" data-participant="ai"><rect fill="#FFFFFF" height="30.2969" rx="2.5" ry="2.5" style="stroke:#000000;stroke-width:1;" width="83.8975" x="529.9834" y="51.6094"/><text fill="#000000" font-family="Verdana" font-size="14" lengthAdjust="spacing" textLength="69.8975" x="536.9834" y="71.6045">AI Service</text></g><g class="participant participant-tail" data-participant="ai"><rect fill="#FFFFFF" height="30.2969" rx="2.5" ry="2.5" style="stroke:#000000;stroke-width:1;" width="83.8975" x="529.9834" y="724.2266"/><text fill="#000000" font-family="Verdana" font-size="14" lengthAdjust="spacing" textLength="69.8975" x="536.9834" y="744.2217">AI Service</text></g><g class="participant participant-head" data-participant="db"><rect fill="#FFFFFF" height="30.2969" rx="2.5" ry="2.5" style="stroke:#000000;stroke-width:1;" width="80.8008" x="643.8809" y="51.6094"/><text fill="#000000" font-family="Verdana" font-size="14" lengthAdjust="spacing" textLength="66.8008" x="650.8809" y="71.6045">Database</text></g><g class="participant participant-tail" data-participant="db"><rect fill="#FFFFFF" height="30.2969" rx="2.5" ry="2.5" style="stroke:#000000;stroke-width:1;" width="80.8008" x="643.8809" y="724.2266"/><text fill="#000000" font-family="Verdana" font-size="14" lengthAdjust="spacing" textLength="66.8008" x="650.8809" y="744.2217">Database</text></g><g class="participant participant-head" data-participant="dashboard"><rect fill="#FFFFFF" height="30.2969" rx="2.5" ry="2.5" style="stroke:#000000;stroke-width:1;" width="90.2002" x="754.6816" y="51.6094"/><text fill="#000000" font-family="Verdana" font-size="14" lengthAdjust="spacing" textLength="76.2002" x="761.6816" y="71.6045">Dashboard</text></g><g class="participant participant-tail" data-participant="dashboard"><rect fill="#FFFFFF" height="30.2969" rx="2.5" ry="2.5" style="stroke:#000000;stroke-width:1;" width="90.2002" x="754.6816" y="724.2266"/><text fill="#000000" font-family="Verdana" font-size="14" lengthAdjust="spacing" textLength="76.2002" x="761.6816" y="744.2217">Dashboard</text></g><g class="participant participant-head" data-participant="alerts"><rect fill="#FFFFFF" height="30.2969" rx="2.5" ry="2.5" style="stroke:#000000;stroke-width:1;" width="103.9814" x="874.8818" y="51.6094"/><text fill="#000000" font-family="Verdana" font-size="14" lengthAdjust="spacing" textLength="89.9814" x="881.8818" y="71.6045">Alert System</text></g><g class="participant participant-tail" data-participant="alerts"><rect fill="#FFFFFF" height="30.2969" rx="2.5" ry="2.5" style="stroke:#000000;stroke-width:1;" width="103.9814" x="874.8818" y="724.2266"/><text fill="#000000" font-family="Verdana" font-size="14" lengthAdjust="spacing" textLength="89.9814" x="881.8818" y="744.2217">Alert System</text></g><g class="message" data-participant-1="sensor" data-participant-2="edge"><polygon fill="#000000" points="173.2456,120.6055,183.2456,124.6055,173.2456,128.6055,177.2456,124.6055" style="stroke:#000000;stroke-width:1;"/><line style="stroke:#000000;stroke-width:1;" x1="63.8423" x2="179.2456" y1="124.6055" y2="124.6055"/><text fill="#000000" font-family="Verdana" font-size="13" lengthAdjust="spacing" textLength="78.8633" x="70.8423" y="119.5396">sensor_data</text></g><path d="M190,97.9063 L190,137.9063 L443,137.9063 L443,107.9063 L433,97.9063 L190,97.9063" fill="#FFFFFF" style="stroke:#000000;stroke-width:1;"/><path d="M433,97.9063 L433,107.9063 L443,107.9063 L433,97.9063" fill="#FFFFFF" style="stroke:#000000;stroke-width:1;"/><text fill="#000000" font-family="Verdana" font-size="13" lengthAdjust="spacing" textLength="137.8774" x="196" y="114.9731">Temperature: 25.3&#176;C</text><text fill="#000000" font-family="Verdana" font-size="13" lengthAdjust="spacing" textLength="232.2607" x="196" y="130.106">Timestamp: 2024-01-15T10:30:00Z</text><g class="message" data-participant-1="edge" data-participant-2="edge"><line style="stroke:#000000;stroke-width:1;" x1="185.2456" x2="227.2456" y1="175.9375" y2="175.9375"/><line style="stroke:#000000;stroke-width:1;" x1="227.2456" x2="227.2456" y1="175.9375" y2="188.9375"/><line style="stroke:#000000;stroke-width:1;" x1="186.2456" x2="227.2456" y1="188.9375" y2="188.9375"/><polygon fill="#000000" points="196.2456,184.9375,186.2456,188.9375,196.2456,192.9375,192.2456,188.9375" style="stroke:#000000;stroke-width:1;"/><text fill="#000000" font-family="Verdana" font-size="13" lengthAdjust="spacing" textLength="107.1357" x="192.2456" y="170.8716">local_processing</text></g><path d="M311.1357,148.1719 L311.1357,203.1719 L453.1357,203.1719 L453.1357,158.1719 L443.1357,148.1719 L311.1357,148.1719" fill="#FFFFFF" style="stroke:#000000;stroke-width:1;"/><path d="M443.1357,148.1719 L443.1357,158.1719 L453.1357,158.1719 L443.1357,148.1719" fill="#FFFFFF" style="stroke:#000000;stroke-width:1;"/><text fill="#000000" font-family="Verdana" font-size="13" lengthAdjust="spacing" textLength="99.1758" x="317.1357" y="165.2388">Data validation</text><text fill="#000000" font-family="Verdana" font-size="13" lengthAdjust="spacing" textLength="121.5894" x="317.1357" y="180.3716">Format conversion</text><text fill="#000000" font-family="Verdana" font-size="13" lengthAdjust="spacing" textLength="88.6577" x="317.1357" y="195.5044">Local caching</text><g class="message" data-participant-1="edge" data-participant-2="kafka"><polygon fill="#000000" points="305.2002,236.2695,315.2002,240.2695,305.2002,244.2695,309.2002,240.2695" style="stroke:#000000;stroke-width:1;"/><line style="stroke:#000000;stroke-width:1;" x1="185.2456" x2="311.2002" y1="240.2695" y2="240.2695"/><text fill="#000000" font-family="Verdana" font-size="13" lengthAdjust="spacing" textLength="90.5049" x="192.2456" y="235.2036">publish_event</text></g><path d="M322,213.5703 L322,253.5703 L515,253.5703 L515,223.5703 L505,213.5703 L322,213.5703" fill="#FFFFFF" style="stroke:#000000;stroke-width:1;"/><path d="M505,213.5703 L505,223.5703 L515,223.5703 L505,213.5703" fill="#FFFFFF" style="stroke:#000000;stroke-width:1;"/><text fill="#000000" font-family="Verdana" font-size="13" lengthAdjust="spacing" textLength="172.6309" x="328" y="230.6372">Topic: sensor.temperature</text><text fill="#000000" font-family="Verdana" font-size="13" lengthAdjust="spacing" textLength="137.2871" x="328" y="245.77">Partition: device_001</text><g class="message" data-participant-1="kafka" data-participant-2="flow"><polygon fill="#000000" points="438.7886,286.5352,448.7886,290.5352,438.7886,294.5352,442.7886,290.5352" style="stroke:#000000;stroke-width:1;"/><line style="stroke:#000000;stroke-width:1;" x1="317.2002" x2="444.7886" y1="290.5352" y2="290.5352"/><text fill="#000000" font-family="Verdana" font-size="13" lengthAdjust="spacing" textLength="102.54" x="324.2002" y="285.4692">consume_event</text></g><path d="M455,263.8359 L455,303.8359 L600,303.8359 L600,273.8359 L590,263.8359 L455,263.8359" fill="#FFFFFF" style="stroke:#000000;stroke-width:1;"/><path d="M590,263.8359 L590,273.8359 L600,273.8359 L590,263.8359" fill="#FFFFFF" style="stroke:#000000;stroke-width:1;"/><text fill="#000000" font-family="Verdana" font-size="13" lengthAdjust="spacing" textLength="96.7827" x="461" y="280.9028">Node-RED flow</text><text fill="#000000" font-family="Verdana" font-size="13" lengthAdjust="spacing" textLength="124.23" x="461" y="296.0356">Triggered by event</text><g class="message" data-participant-1="flow" data-participant-2="ai"><polygon fill="#000000" points="559.9321,336.8008,569.9321,340.8008,559.9321,344.8008,563.9321,340.8008" style="stroke:#000000;stroke-width:1;"/><line style="stroke:#000000;stroke-width:1;" x1="450.7886" x2="565.9321" y1="340.8008" y2="340.8008"/><text fill="#000000" font-family="Verdana" font-size="13" lengthAdjust="spacing" textLength="86.0806" x="457.7886" y="335.7349">analyze_data</text></g><path d="M576,314.1016 L576,354.1016 L719,354.1016 L719,324.1016 L709,314.1016 L576,314.1016" fill="#FFFFFF" style="stroke:#000000;stroke-width:1;"/><path d="M709,314.1016 L709,324.1016 L719,324.1016 L709,314.1016" fill="#FFFFFF" style="stroke:#000000;stroke-width:1;"/><text fill="#000000" font-family="Verdana" font-size="13" lengthAdjust="spacing" textLength="83.7446" x="582" y="331.1685">ML inference</text><text fill="#000000" font-family="Verdana" font-size="13" lengthAdjust="spacing" textLength="122.5479" x="582" y="346.3013">Anomaly detection</text><g class="message" data-participant-1="ai" data-participant-2="ai"><line style="stroke:#000000;stroke-width:1;" x1="571.9321" x2="613.9321" y1="384.5664" y2="384.5664"/><line style="stroke:#000000;stroke-width:1;" x1="613.9321" x2="613.9321" y1="384.5664" y2="397.5664"/><line style="stroke:#000000;stroke-width:1;" x1="572.9321" x2="613.9321" y1="397.5664" y2="397.5664"/><polygon fill="#000000" points="582.9321,393.5664,572.9321,397.5664,582.9321,401.5664,578.9321,397.5664" style="stroke:#000000;stroke-width:1;"/><text fill="#000000" font-family="Verdana" font-size="13" lengthAdjust="spacing" textLength="68.8022" x="578.9321" y="379.5005">run_model</text></g><path d="M658.8022,364.3672 L658.8022,404.3672 L859.8022,404.3672 L859.8022,374.3672 L849.8022,364.3672 L658.8022,364.3672" fill="#FFFFFF" style="stroke:#000000;stroke-width:1;"/><path d="M849.8022,364.3672 L849.8022,374.3672 L859.8022,374.3672 L849.8022,364.3672" fill="#FFFFFF" style="stroke:#000000;stroke-width:1;"/><text fill="#000000" font-family="Verdana" font-size="13" lengthAdjust="spacing" textLength="180.6733" x="664.8022" y="381.4341">Temperature trend analysis</text><text fill="#000000" font-family="Verdana" font-size="13" lengthAdjust="spacing" textLength="129.3081" x="664.8022" y="396.5669">Predictive modeling</text><g class="message" data-participant-1="ai" data-participant-2="flow"><polygon fill="#000000" points="461.7886,444.8984,451.7886,448.8984,461.7886,452.8984,457.7886,448.8984" style="stroke:#000000;stroke-width:1;"/><line style="stroke:#000000;stroke-width:1;" x1="455.7886" x2="570.9321" y1="448.8984" y2="448.8984"/><text fill="#000000" font-family="Verdana" font-size="13" lengthAdjust="spacing" textLength="96.1987" x="467.7886" y="443.8325">analysis_result</text></g><path d="M576,414.6328 L576,469.6328 L736,469.6328 L736,424.6328 L726,414.6328 L576,414.6328" fill="#FFFFFF" style="stroke:#000000;stroke-width:1;"/><path d="M726,414.6328 L726,424.6328 L736,424.6328 L726,414.6328" fill="#FFFFFF" style="stroke:#000000;stroke-width:1;"/><text fill="#000000" font-family="Verdana" font-size="13" lengthAdjust="spacing" textLength="95.7163" x="582" y="431.6997">Status: normal</text><text fill="#000000" font-family="Verdana" font-size="13" lengthAdjust="spacing" textLength="85.9854" x="582" y="446.8325">Trend: stable</text><text fill="#000000" font-family="Verdana" font-size="13" lengthAdjust="spacing" textLength="139.7119" x="582" y="461.9653">Next_reading: 25.5&#176;C</text><g class="message" data-participant-1="flow" data-participant-2="db"><polygon fill="#000000" points="672.2813,502.7305,682.2813,506.7305,672.2813,510.7305,676.2813,506.7305" style="stroke:#000000;stroke-width:1;"/><line style="stroke:#000000;stroke-width:1;" x1="450.7886" x2="678.2813" y1="506.7305" y2="506.7305"/><text fill="#000000" font-family="Verdana" font-size="13" lengthAdjust="spacing" textLength="76.7305" x="457.7886" y="501.6646">store_result</text></g><path d="M689,480.0313 L689,520.0313 L830,520.0313 L830,490.0313 L820,480.0313 L689,480.0313" fill="#FFFFFF" style="stroke:#000000;stroke-width:1;"/><path d="M820,480.0313 L820,490.0313 L830,490.0313 L820,480.0313" fill="#FFFFFF" style="stroke:#000000;stroke-width:1;"/><text fill="#000000" font-family="Verdana" font-size="13" lengthAdjust="spacing" textLength="113.3691" x="695" y="497.0981">SQLite-AI storage</text><text fill="#000000" font-family="Verdana" font-size="13" lengthAdjust="spacing" textLength="120.085" x="695" y="512.231">Vector embedding</text><g class="message" data-participant-1="flow" data-participant-2="dashboard"><polygon fill="#000000" points="787.7817,552.9961,797.7817,556.9961,787.7817,560.9961,791.7817,556.9961" style="stroke:#000000;stroke-width:1;"/><line style="stroke:#000000;stroke-width:1;" x1="450.7886" x2="793.7817" y1="556.9961" y2="556.9961"/><text fill="#000000" font-family="Verdana" font-size="13" lengthAdjust="spacing" textLength="98.4648" x="457.7886" y="551.9302">update_display</text></g><path d="M804,530.2969 L804,570.2969 L973,570.2969 L973,540.2969 L963,530.2969 L804,530.2969" fill="#FFFFFF" style="stroke:#000000;stroke-width:1;"/><path d="M963,530.2969 L963,540.2969 L973,540.2969 L963,530.2969" fill="#FFFFFF" style="stroke:#000000;stroke-width:1;"/><text fill="#000000" font-family="Verdana" font-size="13" lengthAdjust="spacing" textLength="148.002" x="810" y="547.3638">Real-time visualization</text><text fill="#000000" font-family="Verdana" font-size="13" lengthAdjust="spacing" textLength="97.1255" x="810" y="562.4966">Metrics update</text><path d="M117.6846,582.5625 L182.1274,582.5625 L182.1274,589.6953 L172.1274,599.6953 L117.6846,599.6953 L117.6846,582.5625" fill="#FFFFFF" style="stroke:#000000;stroke-width:1;"/><rect fill="none" height="125.6641" style="stroke:#000000;stroke-width:1;" width="1035.2983" x="117.6846" y="582.5625"/><text fill="#000000" font-family="Verdana" font-size="13" font-weight="bold" lengthAdjust="spacing" textLength="19.4429" x="132.6846" y="595.6294">alt</text><text fill="#000000" font-family="Verdana" font-size="11" font-weight="bold" lengthAdjust="spacing" textLength="122.7778" x="197.1274" y="594.7729">[Anomaly detected]</text><g class="message" data-participant-1="ai" data-participant-2="alerts"><polygon fill="#000000" points="914.8726,627.3945,924.8726,631.3945,914.8726,635.3945,918.8726,631.3945" style="stroke:#000000;stroke-width:1;"/><line style="stroke:#000000;stroke-width:1;" x1="571.9321" x2="920.8726" y1="631.3945" y2="631.3945"/><text fill="#000000" font-family="Verdana" font-size="13" lengthAdjust="spacing" textLength="80.4185" x="578.9321" y="626.3286">trigger_alert</text></g><path d="M931,604.6953 L931,644.6953 L1137,644.6953 L1137,614.6953 L1127,604.6953 L931,604.6953" fill="#FFFFFF" style="stroke:#000000;stroke-width:1;"/><path d="M1127,604.6953 L1127,614.6953 L1137,614.6953 L1127,604.6953" fill="#FFFFFF" style="stroke:#000000;stroke-width:1;"/><text fill="#000000" font-family="Verdana" font-size="13" lengthAdjust="spacing" textLength="185.1104" x="937" y="621.7622">Temperature spike detected</text><text fill="#000000" font-family="Verdana" font-size="13" lengthAdjust="spacing" textLength="131.8218" x="937" y="636.895">Threshold exceeded</text><g class="message" data-participant-1="alerts" data-participant-2="dashboard"><polygon fill="#000000" points="810.7817,667.0938,800.7817,671.0938,810.7817,675.0938,806.7817,671.0938" style="stroke:#000000;stroke-width:1;"/><line style="stroke:#000000;stroke-width:1;" x1="804.7817" x2="925.8726" y1="671.0938" y2="671.0938"/><text fill="#000000" font-family="Verdana" font-size="13" lengthAdjust="spacing" textLength="70.1162" x="816.7817" y="666.0278">show_alert</text></g><g class="message" data-participant-1="alerts" data-participant-2="edge"><polygon fill="#000000" points="196.2456,696.2266,186.2456,700.2266,196.2456,704.2266,192.2456,700.2266" style="stroke:#000000;stroke-width:1;"/><line style="stroke:#000000;stroke-width:1;" x1="190.2456" x2="925.8726" y1="700.2266" y2="700.2266"/><text fill="#000000" font-family="Verdana" font-size="13" lengthAdjust="spacing" textLength="110.8682" x="202.2456" y="695.1606">send_notification</text></g><!--SRC=[TLJRRjim37tNLt3TimkdNJ703mMANePYRR4rGH-608PiqGaHMJ8aEMtwLVk6VTaeEPUvQ_FYY3mwv3ca_IaiiKNej2GZ_8fC9vriePBrQk5iRzIbrTR1vwPfiFagHA2W4Px8zr9_SwIkS0tJq2koaC6rKLcm6J_W7hsN2uGRRP-5OD90DNNI13YwjJEOel7M7O7quDFVCUHQyTMB1PgG8CZ7CU2xR5QI2pkKROAiOc2CYQMvfGKPJ90cjZ92NDno8svDzG2GD4vVoI0hwOUagjuc_RAoqgaXkpkzAQ3H1PXkVC2XJHa3NeX1D6JdILknDQ5KN54O6n0SBPQXW1cs7JePUiUWaxFZqp-_B-TcHYtw8DkEO_d9booVP9EpsIGlJlCYpty94KaFvDhMKfUTipKFXSnYL26AXBNKnBN9chcviQwL0MfhrkXy2jr50gXblOotz-p9ymAwljBaboMkULxZxcr7zKxSSJXecPiVqQPOi025SG9bda-4I9IHEmwhY4tuliLtg1-imkpn-Ye1sH4EBz2XWce30rh4JAIIL80qKczUyN-3x- -0JCCtJSrTNHZRCf1R2bZ7xeIGjEDmlIbRBgi_cX3mElBgfrgUF8laXeXvrWZfOd9l81pqxQ2bGz_hiS9fO59VW8dpq54YaxEPl9EQMtt0by3Nf6BIj1fdl1e7qQgAKElmNUgVTnGmu_MF47vDv-Q9zV92ObkXKgdFFTDkjGleE_QFJIJFtulDYF8HfSu2xoMiqxU1NhVhT8_1KUstTrc-3Z2s6PK0_csDJYz8mLQcWPRfdF8VcUuxMk6UYdrQikAbrGhmfKPKE_f4_4OGuvx_AN70xDzALN9TQgXESWG7n5y0]--></g></svg>