<svg xmlns="http://www.w3.org/2000/svg" xmlns:xlink="http://www.w3.org/1999/xlink" contentStyleType="text/css" data-diagram-type="DESCRIPTION" height="746px" preserveAspectRatio="none" style="width:372px;height:746px;background:#FFFFFF;" version="1.1" viewBox="0 0 372 746" width="372px" zoomAndPan="magnify"><title>VisualGridDev Studio Use Cases</title><defs/><g><g class="title" data-source-line="1"><text fill="#000000" font-family="sans-serif" font-size="14" font-weight="bold" lengthAdjust="spacing" textLength="252.5195" x="53.1802" y="22.9951">VisualGridDev Studio Use Cases</text></g><!--cluster VisualGridDev Studio--><g class="cluster" data-entity="VisualGridDev Studio" data-source-line="10" data-uid="ent0006" id="cluster_VisualGridDev Studio"><path d="M171.86,43.2969 L340.5524,43.2969 A3.75,3.75 0 0 1 343.0524,45.7969 L350.0524,65.5938 L363.38,65.5938 A2.5,2.5 0 0 1 365.88,68.0938 L365.88,736.7969 A2.5,2.5 0 0 1 363.38,739.2969 L171.86,739.2969 A2.5,2.5 0 0 1 169.36,736.7969 L169.36,45.7969 A2.5,2.5 0 0 1 171.86,43.2969" fill="none" style="stroke:#000000;stroke-width:1.5;"/><line style="stroke:#000000;stroke-width:1.5;" x1="169.36" x2="350.0524" y1="65.5938" y2="65.5938"/><text fill="#000000" font-family="sans-serif" font-size="14" font-weight="bold" lengthAdjust="spacing" textLength="167.6924" x="173.36" y="58.292">VisualGridDev Studio</text></g><!--entity CreateFlow--><g class="entity" data-entity="CreateFlow" data-source-line="11" data-uid="ent0007" id="entity_CreateFlow"><ellipse cx="267.6231" cy="570.3015" fill="#F1F1F1" rx="79.6231" ry="18.3246" style="stroke:#181818;stroke-width:0.5;"/><text fill="#000000" font-family="sans-serif" font-size="14" lengthAdjust="spacing" textLength="129.7871" x="202.7295" y="574.9499">Create Visual Flow</text></g><!--entity DeployFlow--><g class="entity" data-entity="DeployFlow" data-source-line="12" data-uid="ent0008" id="entity_DeployFlow"><ellipse cx="267.6192" cy="364.2927" fill="#F1F1F1" rx="62.0292" ry="14.8058" style="stroke:#181818;stroke-width:0.5;"/><text fill="#000000" font-family="sans-serif" font-size="14" lengthAdjust="spacing" textLength="85.4287" x="224.9048" y="368.9411">Deploy Flow</text></g><!--entity Monitor--><g class="entity" data-entity="Monitor" data-source-line="13" data-uid="ent0009" id="entity_Monitor"><ellipse cx="267.6159" cy="228.2961" fill="#F1F1F1" rx="71.3959" ry="16.6792" style="stroke:#181818;stroke-width:0.5;"/><text fill="#000000" font-family="sans-serif" font-size="14" lengthAdjust="spacing" textLength="109.874" x="212.6789" y="232.9445">Monitor System</text></g><!--entity ConfigNodes--><g class="entity" data-entity="ConfigNodes" data-source-line="14" data-uid="ent0010" id="entity_ConfigNodes"><ellipse cx="267.6212" cy="297.2991" fill="#F1F1F1" rx="74.0612" ry="17.2122" style="stroke:#181818;stroke-width:0.5;"/><text fill="#000000" font-family="sans-serif" font-size="14" lengthAdjust="spacing" textLength="116.4434" x="209.3995" y="301.9475">Configure Nodes</text></g><!--entity WriteCode--><g class="entity" data-entity="WriteCode" data-source-line="15" data-uid="ent0011" id="entity_WriteCode"><ellipse cx="267.617" cy="498.2983" fill="#F1F1F1" rx="82.257" ry="18.8514" style="stroke:#181818;stroke-width:0.5;"/><text fill="#000000" font-family="sans-serif" font-size="14" lengthAdjust="spacing" textLength="135.9668" x="199.6336" y="502.9467">Write Custom Code</text></g><!--entity ManageAgents--><g class="entity" data-entity="ManageAgents" data-source-line="16" data-uid="ent0012" id="entity_ManageAgents"><ellipse cx="267.6229" cy="160.2995" fill="#F1F1F1" rx="70.9629" ry="16.5926" style="stroke:#181818;stroke-width:0.5;"/><text fill="#000000" font-family="sans-serif" font-size="14" lengthAdjust="spacing" textLength="108.7939" x="213.2259" y="164.9479">Manage Agents</text></g><!--entity Scale--><g class="entity" data-entity="Scale" data-source-line="17" data-uid="ent0013" id="entity_Scale"><ellipse cx="267.6225" cy="93.3014" fill="#F1F1F1" rx="65.3225" ry="15.4645" style="stroke:#181818;stroke-width:0.5;"/><text fill="#000000" font-family="sans-serif" font-size="14" lengthAdjust="spacing" textLength="94.3223" x="220.4614" y="97.9498">Scale System</text></g><!--entity Debug--><g class="entity" data-entity="Debug" data-source-line="18" data-uid="ent0014" id="entity_Debug"><ellipse cx="267.6181" cy="429.2985" fill="#F1F1F1" rx="63.6081" ry="15.1216" style="stroke:#181818;stroke-width:0.5;"/><text fill="#000000" font-family="sans-serif" font-size="14" lengthAdjust="spacing" textLength="89.7422" x="222.747" y="433.9469">Debug Flows</text></g><!--entity TrainML--><g class="entity" data-entity="TrainML" data-source-line="19" data-uid="ent0015" id="entity_TrainML"><ellipse cx="267.6249" cy="706.2998" fill="#F1F1F1" rx="72.9649" ry="16.993" style="stroke:#181818;stroke-width:0.5;"/><text fill="#000000" font-family="sans-serif" font-size="14" lengthAdjust="spacing" textLength="113.7568" x="210.7464" y="710.9483">Train ML Models</text></g><!--entity AnalyzeData--><g class="entity" data-entity="AnalyzeData" data-source-line="20" data-uid="ent0016" id="entity_AnalyzeData"><ellipse cx="267.6203" cy="639.2949" fill="#F1F1F1" rx="64.8403" ry="15.3681" style="stroke:#181818;stroke-width:0.5;"/><text fill="#000000" font-family="sans-serif" font-size="14" lengthAdjust="spacing" textLength="93.0439" x="221.0983" y="643.9434">Analyze Data</text></g><!--entity Designer--><g class="entity" data-entity="Designer" data-source-line="5" data-uid="ent0002" id="entity_Designer"><ellipse cx="65.6812" cy="345.6469" fill="#F1F1F1" rx="8" ry="8" style="stroke:#181818;stroke-width:0.5;"/><path d="M65.6812,353.6469 L65.6812,380.6469 M52.6812,361.6469 L78.6812,361.6469 M65.6812,380.6469 L52.6812,395.6469 M65.6812,380.6469 L78.6812,395.6469" fill="none" style="stroke:#181818;stroke-width:0.5;"/><text fill="#000000" font-family="sans-serif" font-size="14" lengthAdjust="spacing" textLength="119.3623" x="6" y="410.142">System Designer</text></g><!--entity Admin--><g class="entity" data-entity="Admin" data-source-line="6" data-uid="ent0003" id="entity_Admin"><ellipse cx="65.6813" cy="130.6469" fill="#F1F1F1" rx="8" ry="8" style="stroke:#181818;stroke-width:0.5;"/><path d="M65.6813,138.6469 L65.6813,165.6469 M52.6813,146.6469 L78.6813,146.6469 M65.6813,165.6469 L52.6813,180.6469 M65.6813,165.6469 L78.6813,180.6469" fill="none" style="stroke:#181818;stroke-width:0.5;"/><text fill="#000000" font-family="sans-serif" font-size="14" lengthAdjust="spacing" textLength="108.6025" x="11.38" y="195.142">Platform Admin</text></g><!--entity Dev--><g class="entity" data-entity="Dev" data-source-line="7" data-uid="ent0004" id="entity_Dev"><ellipse cx="65.6815" cy="468.6469" fill="#F1F1F1" rx="8" ry="8" style="stroke:#181818;stroke-width:0.5;"/><path d="M65.6815,476.6469 L65.6815,503.6469 M52.6815,484.6469 L78.6815,484.6469 M65.6815,503.6469 L52.6815,518.6469 M65.6815,503.6469 L78.6815,518.6469" fill="none" style="stroke:#181818;stroke-width:0.5;"/><text fill="#000000" font-family="sans-serif" font-size="14" lengthAdjust="spacing" textLength="72.0029" x="29.68" y="533.142">Developer</text></g><!--entity DataSci--><g class="entity" data-entity="DataSci" data-source-line="8" data-uid="ent0005" id="entity_DataSci"><ellipse cx="65.68" cy="609.6469" fill="#F1F1F1" rx="8" ry="8" style="stroke:#181818;stroke-width:0.5;"/><path d="M65.68,617.6469 L65.68,644.6469 M52.68,625.6469 L78.68,625.6469 M65.68,644.6469 L52.68,659.6469 M65.68,644.6469 L78.68,659.6469" fill="none" style="stroke:#181818;stroke-width:0.5;"/><text fill="#000000" font-family="sans-serif" font-size="14" lengthAdjust="spacing" textLength="98" x="16.68" y="674.142">Data Scientist</text></g><!--link Designer to CreateFlow--><g class="link" data-entity-1="Designer" data-entity-2="CreateFlow" data-source-line="23" data-uid="lnk17" id="link_Designer_CreateFlow"><path d="M104.48,413.9169 C112.01,422.7969 119.42,432.5169 125.36,442.2969 C148.17,479.8169 129.65,503.9269 161.36,534.2969 C173.22,545.6469 183.1349,551.4892 198.6649,556.8192" fill="none" id="Designer-to-CreateFlow" style="stroke:#181818;stroke-width:1;"/><polygon fill="#181818" points="204.34,558.7669,197.1259,552.0619,199.6108,557.1438,194.5289,559.6287,204.34,558.7669" style="stroke:#181818;stroke-width:1;"/></g><!--link Designer to DeployFlow--><g class="link" data-entity-1="Designer" data-entity-2="DeployFlow" data-source-line="24" data-uid="lnk18" id="link_Designer_DeployFlow"><path d="M125.86,372.0369 C151.42,370.6369 175.2891,369.3266 200.9091,367.9166" fill="none" id="Designer-to-DeployFlow" style="stroke:#181818;stroke-width:1;"/><polygon fill="#181818" points="206.9,367.5869,197.6938,364.0875,201.9076,367.8616,198.1334,372.0754,206.9,367.5869" style="stroke:#181818;stroke-width:1;"/></g><!--link Designer to ConfigNodes--><g class="link" data-entity-1="Designer" data-entity-2="ConfigNodes" data-source-line="25" data-uid="lnk19" id="link_Designer_ConfigNodes"><path d="M125.62,347.3769 C137.36,342.1369 149.68,336.8769 161.36,332.2969 C180.81,324.6669 196.9802,319.0602 215.7202,313.0102" fill="none" id="Designer-to-ConfigNodes" style="stroke:#181818;stroke-width:1;"/><polygon fill="#181818" points="221.43,311.1669,211.6364,310.1254,216.6718,312.703,214.0942,317.7385,221.43,311.1669" style="stroke:#181818;stroke-width:1;"/></g><!--link Designer to Debug--><g class="link" data-entity-1="Designer" data-entity-2="Debug" data-source-line="26" data-uid="lnk20" id="link_Designer_Debug"><path d="M125.86,391.2769 C157.52,399.8369 189.9874,408.6029 218.6174,416.3329" fill="none" id="Designer-to-Debug" style="stroke:#181818;stroke-width:1;"/><polygon fill="#181818" points="224.41,417.8969,216.7638,411.6892,219.5829,416.5936,214.6785,419.4126,224.41,417.8969" style="stroke:#181818;stroke-width:1;"/></g><!--link Admin to Monitor--><g class="link" data-entity-1="Admin" data-entity-2="Monitor" data-source-line="28" data-uid="lnk21" id="link_Admin_Monitor"><path d="M120.15,179.8369 C133.58,184.6469 147.97,189.7269 161.36,194.2969 C181.81,201.2669 198.895,206.8495 218.035,212.9695" fill="none" id="Admin-to-Monitor" style="stroke:#181818;stroke-width:1;"/><polygon fill="#181818" points="223.75,214.7969,216.3958,208.2459,218.9875,213.2741,213.9593,215.8658,223.75,214.7969" style="stroke:#181818;stroke-width:1;"/></g><!--link Admin to ManageAgents--><g class="link" data-entity-1="Admin" data-entity-2="ManageAgents" data-source-line="29" data-uid="lnk22" id="link_Admin_ManageAgents"><path d="M120.26,160.2969 C143.63,160.2969 165.34,160.2969 190.33,160.2969" fill="none" id="Admin-to-ManageAgents" style="stroke:#181818;stroke-width:1;"/><polygon fill="#181818" points="196.33,160.2969,187.33,156.2969,191.33,160.2969,187.33,164.2969,196.33,160.2969" style="stroke:#181818;stroke-width:1;"/></g><!--link Admin to Scale--><g class="link" data-entity-1="Admin" data-entity-2="Scale" data-source-line="30" data-uid="lnk23" id="link_Admin_Scale"><path d="M120.13,140.6769 C133.55,135.8669 147.95,130.8069 161.36,126.2969 C182.6,119.1569 200.6761,113.4139 220.2761,107.3739" fill="none" id="Admin-to-Scale" style="stroke:#181818;stroke-width:1;"/><polygon fill="#181818" points="226.01,105.6069,216.2311,104.4347,221.2317,107.0794,218.5871,112.08,226.01,105.6069" style="stroke:#181818;stroke-width:1;"/></g><!--link Dev to WriteCode--><g class="link" data-entity-1="Dev" data-entity-2="WriteCode" data-source-line="32" data-uid="lnk24" id="link_Dev_WriteCode"><path d="M101.97,498.2969 C125.06,498.2969 150.22,498.2969 179.23,498.2969" fill="none" id="Dev-to-WriteCode" style="stroke:#181818;stroke-width:1;"/><polygon fill="#181818" points="185.23,498.2969,176.23,494.2969,180.23,498.2969,176.23,502.2969,185.23,498.2969" style="stroke:#181818;stroke-width:1;"/></g><!--link Dev to CreateFlow--><g class="link" data-entity-1="Dev" data-entity-2="CreateFlow" data-source-line="33" data-uid="lnk25" id="link_Dev_CreateFlow"><path d="M102.09,512.0869 C119.84,518.9169 141.68,527.1869 161.36,534.2969 C180.8,541.3169 196.6975,546.831 215.2275,553.111" fill="none" id="Dev-to-CreateFlow" style="stroke:#181818;stroke-width:1;"/><polygon fill="#181818" points="220.91,555.0369,213.6701,548.3597,216.1746,553.432,211.1023,555.9364,220.91,555.0369" style="stroke:#181818;stroke-width:1;"/></g><!--link Dev to Debug--><g class="link" data-entity-1="Dev" data-entity-2="Debug" data-source-line="34" data-uid="lnk26" id="link_Dev_Debug"><path d="M102.02,484.2869 C119.74,477.4069 141.59,469.1469 161.36,462.2969 C182.81,454.8669 201.2131,449.0042 220.9631,442.9542" fill="none" id="Dev-to-Debug" style="stroke:#181818;stroke-width:1;"/><polygon fill="#181818" points="226.7,441.1969,216.9231,440.0084,221.9193,442.6613,219.2663,447.6575,226.7,441.1969" style="stroke:#181818;stroke-width:1;"/></g><!--link DataSci to TrainML--><g class="link" data-entity-1="DataSci" data-entity-2="TrainML" data-source-line="36" data-uid="lnk27" id="link_DataSci_TrainML"><path d="M114.77,656.2969 C129.68,661.5069 146.18,667.1969 161.36,672.2969 C181.57,679.0769 198.326,684.5465 217.306,690.6265" fill="none" id="DataSci-to-TrainML" style="stroke:#181818;stroke-width:1;"/><polygon fill="#181818" points="223.02,692.4569,215.6693,685.9019,218.2583,690.9315,213.2288,693.5206,223.02,692.4569" style="stroke:#181818;stroke-width:1;"/></g><!--link DataSci to AnalyzeData--><g class="link" data-entity-1="DataSci" data-entity-2="AnalyzeData" data-source-line="37" data-uid="lnk28" id="link_DataSci_AnalyzeData"><path d="M115.08,639.2969 C141.32,639.2969 168.07,639.2969 196.42,639.2969" fill="none" id="DataSci-to-AnalyzeData" style="stroke:#181818;stroke-width:1;"/><polygon fill="#181818" points="202.42,639.2969,193.42,635.2969,197.42,639.2969,193.42,643.2969,202.42,639.2969" style="stroke:#181818;stroke-width:1;"/></g><!--link DataSci to CreateFlow--><g class="link" data-entity-1="DataSci" data-entity-2="CreateFlow" data-source-line="38" data-uid="lnk29" id="link_DataSci_CreateFlow"><path d="M114.83,622.4569 C129.74,617.2569 146.22,611.5269 161.36,606.2969 C181.08,599.4869 197.2114,593.9544 215.8514,587.5944" fill="none" id="DataSci-to-CreateFlow" style="stroke:#181818;stroke-width:1;"/><polygon fill="#181818" points="221.53,585.6569,211.7205,584.7775,216.7979,587.2715,214.3039,592.3489,221.53,585.6569" style="stroke:#181818;stroke-width:1;"/></g><!--SRC=[RPBFJiCm3CRlUGghzxq2qhG9BWmXbJ_dq7h58ascn1qQY7SdSTOjAVHK__8bjZ-RYGt22uL9cpjF_HQFqFBKauFdWB3H0ODI1lSCxC3JyCxGayUEoLcbTCVEGzEU0kC8MmmqMFGDw709PisZqRntVeHrFv8LYVpDvp4p6dUut3vU3ZHhQ3j2onGudqOKYL87tNte0Q7vhuC6lXN4RmhOnJwWsNZKF7SBjyPzociPfx2MR_5WtEcgo_5VtSvPIfLc5qHwHelqpkvfc3p2W-invDp29Ax5hvvYgPifi1kZgaUH2qtHeW9jamlh8NgKtyqaWrhRTZfElAXLmBBpjscGniEvynZNaYUloSBkFhRQeyaoORlxMhYssfo-K6QMfvv1YjMFKlEUm6frKuwYueNrjRwmRt4XLQnammJC4ob8QT4LPpjKMgCKNXsVILNZiSnsNaj1inSbApilUV7YBm00]--></g></svg>