<svg xmlns="http://www.w3.org/2000/svg" xmlns:xlink="http://www.w3.org/1999/xlink" contentStyleType="text/css" data-diagram-type="DESCRIPTION" height="218px" preserveAspectRatio="none" style="width:2319px;height:218px;background:#FFFFFF;" version="1.1" viewBox="0 0 2319 218" width="2319px" zoomAndPan="magnify"><title>Load Distribution Pattern</title><defs/><g><g class="title" data-source-line="1"><text fill="#000000" font-family="sans-serif" font-size="14" font-weight="bold" lengthAdjust="spacing" textLength="201.4277" x="1051.7861" y="22.9951">Load Distribution Pattern</text></g><!--cluster Load Balancing Layer--><g class="cluster" data-entity="Load Balancing Layer" data-source-line="3" data-uid="ent0002" id="cluster_Load Balancing Layer"><path d="M8.5,94.8769 L178.5664,94.8769 A3.75,3.75 0 0 1 181.0664,97.3769 L188.0664,117.1737 L853.5,117.1737 A2.5,2.5 0 0 1 856,119.6737 L856,208.6769 A2.5,2.5 0 0 1 853.5,211.1769 L8.5,211.1769 A2.5,2.5 0 0 1 6,208.6769 L6,97.3769 A2.5,2.5 0 0 1 8.5,94.8769" fill="none" style="stroke:#000000;stroke-width:1.5;"/><line style="stroke:#000000;stroke-width:1.5;" x1="6" x2="188.0664" y1="117.1737" y2="117.1737"/><text fill="#000000" font-family="sans-serif" font-size="14" font-weight="bold" lengthAdjust="spacing" textLength="169.0664" x="10" y="109.872">Load Balancing Layer</text></g><!--cluster Application Instances--><g class="cluster" data-entity="Application Instances" data-source-line="9" data-uid="ent0006" id="cluster_Application Instances"><path d="M1167.5,94.8769 L1338.4141,94.8769 A3.75,3.75 0 0 1 1340.9141,97.3769 L1347.9141,117.1737 L1758.5,117.1737 A2.5,2.5 0 0 1 1761,119.6737 L1761,208.6769 A2.5,2.5 0 0 1 1758.5,211.1769 L1167.5,211.1769 A2.5,2.5 0 0 1 1165,208.6769 L1165,97.3769 A2.5,2.5 0 0 1 1167.5,94.8769" fill="none" style="stroke:#000000;stroke-width:1.5;"/><line style="stroke:#000000;stroke-width:1.5;" x1="1165" x2="1347.9141" y1="117.1737" y2="117.1737"/><text fill="#000000" font-family="sans-serif" font-size="14" font-weight="bold" lengthAdjust="spacing" textLength="169.9141" x="1169" y="109.872">Application Instances</text></g><!--cluster Health Monitoring--><g class="cluster" data-entity="Health Monitoring" data-source-line="16" data-uid="ent0011" id="cluster_Health Monitoring"><path d="M1800.5,94.8769 L1944.8086,94.8769 A3.75,3.75 0 0 1 1947.3086,97.3769 L1954.3086,117.1737 L2309.5,117.1737 A2.5,2.5 0 0 1 2312,119.6737 L2312,208.6769 A2.5,2.5 0 0 1 2309.5,211.1769 L1800.5,211.1769 A2.5,2.5 0 0 1 1798,208.6769 L1798,97.3769 A2.5,2.5 0 0 1 1800.5,94.8769" fill="none" style="stroke:#000000;stroke-width:1.5;"/><line style="stroke:#000000;stroke-width:1.5;" x1="1798" x2="1954.3086" y1="117.1737" y2="117.1737"/><text fill="#000000" font-family="sans-serif" font-size="14" font-weight="bold" lengthAdjust="spacing" textLength="143.3086" x="1802" y="109.872">Health Monitoring</text></g><!--entity GLB--><g class="entity" data-entity="GLB" data-source-line="4" data-uid="ent0003" id="entity_GLB"><rect fill="#F1F1F1" height="46.2969" rx="2.5" ry="2.5" style="stroke:#181818;stroke-width:0.5;" width="188.9824" x="21.51" y="148.8769"/><rect fill="#F1F1F1" height="10" style="stroke:#181818;stroke-width:0.5;" width="15" x="190.4924" y="153.8769"/><rect fill="#F1F1F1" height="2" style="stroke:#181818;stroke-width:0.5;" width="4" x="188.4924" y="155.8769"/><rect fill="#F1F1F1" height="2" style="stroke:#181818;stroke-width:0.5;" width="4" x="188.4924" y="159.8769"/><text fill="#000000" font-family="sans-serif" font-size="14" lengthAdjust="spacing" textLength="148.9824" x="36.51" y="181.872">Global Load Balancer</text></g><!--entity RLB--><g class="entity" data-entity="RLB" data-source-line="5" data-uid="ent0004" id="entity_RLB"><rect fill="#F1F1F1" height="46.2969" rx="2.5" ry="2.5" style="stroke:#181818;stroke-width:0.5;" width="205.3477" x="350.33" y="148.8769"/><rect fill="#F1F1F1" height="10" style="stroke:#181818;stroke-width:0.5;" width="15" x="535.6777" y="153.8769"/><rect fill="#F1F1F1" height="2" style="stroke:#181818;stroke-width:0.5;" width="4" x="533.6777" y="155.8769"/><rect fill="#F1F1F1" height="2" style="stroke:#181818;stroke-width:0.5;" width="4" x="533.6777" y="159.8769"/><text fill="#000000" font-family="sans-serif" font-size="14" lengthAdjust="spacing" textLength="165.3477" x="365.33" y="181.872">Regional Load Balancer</text></g><!--entity Mesh--><g class="entity" data-entity="Mesh" data-source-line="6" data-uid="ent0005" id="entity_Mesh"><rect fill="#F1F1F1" height="46.2969" rx="2.5" ry="2.5" style="stroke:#181818;stroke-width:0.5;" width="133.0508" x="706.47" y="148.8769"/><rect fill="#F1F1F1" height="10" style="stroke:#181818;stroke-width:0.5;" width="15" x="819.5208" y="153.8769"/><rect fill="#F1F1F1" height="2" style="stroke:#181818;stroke-width:0.5;" width="4" x="817.5208" y="155.8769"/><rect fill="#F1F1F1" height="2" style="stroke:#181818;stroke-width:0.5;" width="4" x="817.5208" y="159.8769"/><text fill="#000000" font-family="sans-serif" font-size="14" lengthAdjust="spacing" textLength="93.0508" x="721.47" y="181.872">Service Mesh</text></g><!--entity Inst1--><g class="entity" data-entity="Inst1" data-source-line="10" data-uid="ent0007" id="entity_Inst1"><rect fill="#F1F1F1" height="46.2969" rx="2.5" ry="2.5" style="stroke:#181818;stroke-width:0.5;" width="112.9053" x="1180.55" y="148.8769"/><rect fill="#F1F1F1" height="10" style="stroke:#181818;stroke-width:0.5;" width="15" x="1273.4553" y="153.8769"/><rect fill="#F1F1F1" height="2" style="stroke:#181818;stroke-width:0.5;" width="4" x="1271.4553" y="155.8769"/><rect fill="#F1F1F1" height="2" style="stroke:#181818;stroke-width:0.5;" width="4" x="1271.4553" y="159.8769"/><text fill="#000000" font-family="sans-serif" font-size="14" lengthAdjust="spacing" textLength="72.9053" x="1195.55" y="181.872">Instance 1</text></g><!--entity Inst2--><g class="entity" data-entity="Inst2" data-source-line="11" data-uid="ent0008" id="entity_Inst2"><rect fill="#F1F1F1" height="46.2969" rx="2.5" ry="2.5" style="stroke:#181818;stroke-width:0.5;" width="112.9053" x="1328.55" y="148.8769"/><rect fill="#F1F1F1" height="10" style="stroke:#181818;stroke-width:0.5;" width="15" x="1421.4553" y="153.8769"/><rect fill="#F1F1F1" height="2" style="stroke:#181818;stroke-width:0.5;" width="4" x="1419.4553" y="155.8769"/><rect fill="#F1F1F1" height="2" style="stroke:#181818;stroke-width:0.5;" width="4" x="1419.4553" y="159.8769"/><text fill="#000000" font-family="sans-serif" font-size="14" lengthAdjust="spacing" textLength="72.9053" x="1343.55" y="181.872">Instance 2</text></g><!--entity Inst3--><g class="entity" data-entity="Inst3" data-source-line="12" data-uid="ent0009" id="entity_Inst3"><rect fill="#F1F1F1" height="46.2969" rx="2.5" ry="2.5" style="stroke:#181818;stroke-width:0.5;" width="112.9053" x="1476.55" y="148.8769"/><rect fill="#F1F1F1" height="10" style="stroke:#181818;stroke-width:0.5;" width="15" x="1569.4553" y="153.8769"/><rect fill="#F1F1F1" height="2" style="stroke:#181818;stroke-width:0.5;" width="4" x="1567.4553" y="155.8769"/><rect fill="#F1F1F1" height="2" style="stroke:#181818;stroke-width:0.5;" width="4" x="1567.4553" y="159.8769"/><text fill="#000000" font-family="sans-serif" font-size="14" lengthAdjust="spacing" textLength="72.9053" x="1491.55" y="181.872">Instance 3</text></g><!--entity InstN--><g class="entity" data-entity="InstN" data-source-line="13" data-uid="ent0010" id="entity_InstN"><rect fill="#F1F1F1" height="46.2969" rx="2.5" ry="2.5" style="stroke:#181818;stroke-width:0.5;" width="114.4707" x="1630.76" y="148.8769"/><rect fill="#F1F1F1" height="10" style="stroke:#181818;stroke-width:0.5;" width="15" x="1725.2307" y="153.8769"/><rect fill="#F1F1F1" height="2" style="stroke:#181818;stroke-width:0.5;" width="4" x="1723.2307" y="155.8769"/><rect fill="#F1F1F1" height="2" style="stroke:#181818;stroke-width:0.5;" width="4" x="1723.2307" y="159.8769"/><text fill="#000000" font-family="sans-serif" font-size="14" lengthAdjust="spacing" textLength="74.4707" x="1645.76" y="181.872">Instance N</text></g><!--entity HealthCheck--><g class="entity" data-entity="HealthCheck" data-source-line="17" data-uid="ent0012" id="entity_HealthCheck"><rect fill="#F1F1F1" height="46.2969" rx="2.5" ry="2.5" style="stroke:#181818;stroke-width:0.5;" width="147.8574" x="1814.07" y="148.8769"/><rect fill="#F1F1F1" height="10" style="stroke:#181818;stroke-width:0.5;" width="15" x="1941.9274" y="153.8769"/><rect fill="#F1F1F1" height="2" style="stroke:#181818;stroke-width:0.5;" width="4" x="1939.9274" y="155.8769"/><rect fill="#F1F1F1" height="2" style="stroke:#181818;stroke-width:0.5;" width="4" x="1939.9274" y="159.8769"/><text fill="#000000" font-family="sans-serif" font-size="14" lengthAdjust="spacing" textLength="107.8574" x="1829.07" y="181.872">Health Checker</text></g><!--entity CircuitBreaker--><g class="entity" data-entity="CircuitBreaker" data-source-line="18" data-uid="ent0013" id="entity_CircuitBreaker"><rect fill="#F1F1F1" height="46.2969" rx="2.5" ry="2.5" style="stroke:#181818;stroke-width:0.5;" width="144.8496" x="1996.58" y="148.8769"/><rect fill="#F1F1F1" height="10" style="stroke:#181818;stroke-width:0.5;" width="15" x="2121.4296" y="153.8769"/><rect fill="#F1F1F1" height="2" style="stroke:#181818;stroke-width:0.5;" width="4" x="2119.4296" y="155.8769"/><rect fill="#F1F1F1" height="2" style="stroke:#181818;stroke-width:0.5;" width="4" x="2119.4296" y="159.8769"/><text fill="#000000" font-family="sans-serif" font-size="14" lengthAdjust="spacing" textLength="104.8496" x="2011.58" y="181.872">Circuit Breaker</text></g><!--entity Retry--><g class="entity" data-entity="Retry" data-source-line="19" data-uid="ent0014" id="entity_Retry"><rect fill="#F1F1F1" height="46.2969" rx="2.5" ry="2.5" style="stroke:#181818;stroke-width:0.5;" width="119.1602" x="2176.42" y="148.8769"/><rect fill="#F1F1F1" height="10" style="stroke:#181818;stroke-width:0.5;" width="15" x="2275.5802" y="153.8769"/><rect fill="#F1F1F1" height="2" style="stroke:#181818;stroke-width:0.5;" width="4" x="2273.5802" y="155.8769"/><rect fill="#F1F1F1" height="2" style="stroke:#181818;stroke-width:0.5;" width="4" x="2273.5802" y="159.8769"/><text fill="#000000" font-family="sans-serif" font-size="14" lengthAdjust="spacing" textLength="79.1602" x="2191.42" y="181.872">Retry Logic</text></g><!--link GLB to RLB--><g class="link" data-entity-1="GLB" data-entity-2="RLB" data-source-line="22" data-uid="lnk15" id="link_GLB_RLB"><path d="M210.77,172.0269 C254.18,172.0269 299.73,172.0269 344.09,172.0269" fill="none" id="GLB-to-RLB" style="stroke:#181818;stroke-width:1;"/><polygon fill="#181818" points="350.09,172.0269,341.09,168.0269,345.09,172.0269,341.09,176.0269,350.09,172.0269" style="stroke:#181818;stroke-width:1;"/><text fill="#000000" font-family="sans-serif" font-size="13" lengthAdjust="spacing" textLength="103.9302" x="228.91" y="165.0938">Route by region</text></g><!--link RLB to Mesh--><g class="link" data-entity-1="RLB" data-entity-2="Mesh" data-source-line="23" data-uid="lnk16" id="link_RLB_Mesh"><path d="M556.01,172.0269 C605.16,172.0269 656.56,172.0269 699.98,172.0269" fill="none" id="RLB-to-Mesh" style="stroke:#181818;stroke-width:1;"/><polygon fill="#181818" points="705.98,172.0269,696.98,168.0269,700.98,172.0269,696.98,176.0269,705.98,172.0269" style="stroke:#181818;stroke-width:1;"/><text fill="#000000" font-family="sans-serif" font-size="13" lengthAdjust="spacing" textLength="114.645" x="574.07" y="165.0938">Service discovery</text></g><!--link Mesh to Inst1--><g class="link" data-entity-1="Mesh" data-entity-2="Inst1" data-source-line="24" data-uid="lnk17" id="link_Mesh_Inst1"><path d="M839.97,172.0269 C931.58,172.0269 1088.35,172.0269 1174.26,172.0269" fill="none" id="Mesh-to-Inst1" style="stroke:#181818;stroke-width:1;"/><polygon fill="#181818" points="1180.26,172.0269,1171.26,168.0269,1175.26,172.0269,1171.26,176.0269,1180.26,172.0269" style="stroke:#181818;stroke-width:1;"/><text fill="#000000" font-family="sans-serif" font-size="13" lengthAdjust="spacing" textLength="95.9512" x="962.54" y="188.0938">Distribute load</text></g><!--link Mesh to Inst2--><g class="link" data-entity-1="Mesh" data-entity-2="Inst2" data-source-line="25" data-uid="lnk18" id="link_Mesh_Inst2"><path d="M839.98,153.4469 C917.5,132.8869 1049.36,100.8169 1165,86.8769 C1194.35,83.3469 1201.94,85.5369 1231.5,85.1569 C1274.61,84.5969 1290.61,64.5969 1328.5,85.1569 C1353.17,98.5369 1366.5083,122.3014 1374.9183,143.1814" fill="none" id="Mesh-to-Inst2" style="stroke:#181818;stroke-width:1;"/><polygon fill="#181818" points="1377.16,148.7469,1377.5078,138.9042,1375.2919,144.1089,1370.0872,141.893,1377.16,148.7469" style="stroke:#181818;stroke-width:1;"/><text fill="#000000" font-family="sans-serif" font-size="13" lengthAdjust="spacing" textLength="95.9512" x="1232.5" y="74.9438">Distribute load</text></g><!--link Mesh to Inst3--><g class="link" data-entity-1="Mesh" data-entity-2="Inst3" data-source-line="26" data-uid="lnk19" id="link_Mesh_Inst3"><path d="M825.3,148.4869 C875.85,127.1069 955.19,97.1569 1027.5,85.1569 C1078.09,76.7569 1398.66,59.1869 1459,86.8769 C1486.59,99.5369 1504.7783,122.9629 1517.2983,143.5129" fill="none" id="Mesh-to-Inst3" style="stroke:#181818;stroke-width:1;"/><polygon fill="#181818" points="1520.42,148.6369,1519.1534,138.8698,1517.8186,144.3669,1512.3214,143.0321,1520.42,148.6369" style="stroke:#181818;stroke-width:1;"/><text fill="#000000" font-family="sans-serif" font-size="13" lengthAdjust="spacing" textLength="95.9512" x="1028.5" y="74.9438">Distribute load</text></g><!--link Mesh to InstN--><g class="link" data-entity-1="Mesh" data-entity-2="InstN" data-source-line="27" data-uid="lnk20" id="link_Mesh_InstN"><path d="M839.93,153.0069 C917.4,132.0369 1049.22,99.5869 1165,86.8769 C1327.8,69.0169 1369.72,85.5369 1533.5,85.1569 C1576.61,85.0569 1592.52,64.7469 1630.5,85.1569 C1655.35,98.5069 1668.9759,122.3028 1677.6159,143.1828" fill="none" id="Mesh-to-InstN" style="stroke:#181818;stroke-width:1;"/><polygon fill="#181818" points="1679.91,148.7269,1680.1649,138.8813,1677.9982,144.1068,1672.7728,141.9401,1679.91,148.7269" style="stroke:#181818;stroke-width:1;"/><text fill="#000000" font-family="sans-serif" font-size="13" lengthAdjust="spacing" textLength="95.9512" x="1534.5" y="74.9438">Distribute load</text></g><!--link HealthCheck to Inst1--><g class="link" data-entity-1="HealthCheck" data-entity-2="Inst1" data-source-line="28" data-uid="lnk21" id="link_HealthCheck_Inst1"><path d="M1875.91,148.5569 C1863.64,127.5469 1842.46,98.1269 1814.5,85.1569 C1779.42,68.8869 1766.17,85.0769 1727.5,85.1569 C1634.94,85.3469 1395.14,48.3169 1311,86.8769 C1283.4,99.5269 1265.2217,122.9529 1252.7017,143.5029" fill="none" id="HealthCheck-to-Inst1" style="stroke:#181818;stroke-width:1;"/><polygon fill="#181818" points="1249.58,148.6269,1257.6786,143.0221,1252.1814,144.3569,1250.8466,138.8598,1249.58,148.6269" style="stroke:#181818;stroke-width:1;"/><text fill="#000000" font-family="sans-serif" font-size="13" lengthAdjust="spacing" textLength="85.2744" x="1728.5" y="74.9438">Check health</text></g><!--link HealthCheck to Inst2--><g class="link" data-entity-1="HealthCheck" data-entity-2="Inst2" data-source-line="29" data-uid="lnk22" id="link_HealthCheck_Inst2"><path d="M1862.65,148.3869 C1838.58,127.6569 1800.32,98.9969 1761,86.8769 C1686.79,64.0069 1458.17,76.1069 1441.5,85.1569 C1416.83,98.5369 1403.4917,122.3014 1395.0817,143.1814" fill="none" id="HealthCheck-to-Inst2" style="stroke:#181818;stroke-width:1;"/><polygon fill="#181818" points="1392.84,148.7469,1399.9128,141.893,1394.7081,144.1089,1392.4922,138.9042,1392.84,148.7469" style="stroke:#181818;stroke-width:1;"/><text fill="#000000" font-family="sans-serif" font-size="13" lengthAdjust="spacing" textLength="85.2744" x="1442.5" y="74.9438">Check health</text></g><!--link HealthCheck to Inst3--><g class="link" data-entity-1="HealthCheck" data-entity-2="Inst3" data-source-line="30" data-uid="lnk23" id="link_HealthCheck_Inst3"><path d="M1862.55,148.7269 C1838.4,128.2369 1800.09,99.7369 1761,86.8769 C1708.01,69.4569 1691.24,83.0169 1635.5,85.1569 C1625.48,85.5369 1622.05,82.5469 1613,86.8769 C1584.83,100.3669 1565.021,123.5177 1550.981,143.7477" fill="none" id="HealthCheck-to-Inst3" style="stroke:#181818;stroke-width:1;"/><polygon fill="#181818" points="1547.56,148.6769,1555.9776,143.5637,1550.4108,144.5692,1549.4053,139.0024,1547.56,148.6769" style="stroke:#181818;stroke-width:1;"/><text fill="#000000" font-family="sans-serif" font-size="13" lengthAdjust="spacing" textLength="85.2744" x="1636.5" y="74.9438">Check health</text></g><!--link CircuitBreaker to Mesh--><g class="link" data-entity-1="CircuitBreaker" data-entity-2="Mesh" data-source-line="31" data-uid="lnk24" id="link_CircuitBreaker_Mesh"><path d="M2052.49,148.4969 C2036.43,127.8469 2009.97,99.2369 1979,86.8769 C1869.76,43.2969 1038.11,85.2469 920.5,85.1569 C884.5,85.1269 871.78,69.2169 839.5,85.1569 C812.93,98.2769 796.7781,122.3229 786.0781,143.2829" fill="none" id="CircuitBreaker-to-Mesh" style="stroke:#181818;stroke-width:1;"/><polygon fill="#181818" points="783.35,148.6269,791.0047,142.4297,785.6234,144.1736,783.8795,138.7923,783.35,148.6269" style="stroke:#181818;stroke-width:1;"/><text fill="#000000" font-family="sans-serif" font-size="13" lengthAdjust="spacing" textLength="79.1934" x="840.5" y="74.9438">Circuit state</text></g><!--link Retry to Mesh--><g class="link" data-entity-1="Retry" data-entity-2="Mesh" data-source-line="32" data-uid="lnk25" id="link_Retry_Mesh"><path d="M2222.64,148.6769 C2209.43,128.1469 2187.14,99.6269 2159,86.8769 C2112.03,65.6069 2094.56,85.5369 2043,85.1569 C1652.79,82.2569 1552.95,44.8069 1165,86.8769 C1049.2,99.4369 923.1808,130.3664 845.7108,151.3764" fill="none" id="Retry-to-Mesh" style="stroke:#181818;stroke-width:1;"/><polygon fill="#181818" points="839.92,152.9469,849.6532,154.4517,844.7457,151.6381,847.5592,146.7306,839.92,152.9469" style="stroke:#181818;stroke-width:1;"/><text fill="#000000" font-family="sans-serif" font-size="13" lengthAdjust="spacing" textLength="88.2578" x="1954" y="74.9438">Retry policies</text></g><!--SRC=[XPBDRi8m48JlVeeLznv8RXmg5IhHIe2gz0cCMIKhZ1tP2nAg-kwrdHy219fJTkUBCva94sk4bPKxU2VFZhP79clWIpAZCqBKKkrbYJ19p5ngQHIP4bRoZ6u2FmB2fUoXjWODmsIfxLPg6D0HanwMg_ajMs0PtZLA5_VqDxeJAOGr-YenyKRy3Yo-rRKc9TC7V1hFyJW_uh7JO9hEYUFq8PFrJFQGoNicVyXiUcPpPVe3fUOArjOGMnUY7J7SCeiArRuDg5cbpIsz8AUEn31tA3kytRMh-oBOdKCB9Qac_JX7bw4qU7cDRSoWi4T6s9x1fTf4qMYnXHbqvUp8Atl2y7JSHpsbExlyNGWwj7qbPy_b_BcykPS7uGmiD7ELj34a-n_9Rv3hM2znT1M4xXb54sylDcDjmxzAwCKV]--></g></svg>